<?xml version="1.0"?>
<svg version="1.1" id="topsvg"
xmlns="http://www.w3.org/2000/svg" xmlns:xlink="http://www.w3.org/1999/xlink"
xmlns:cml="http://www.xml-cml.org/schema" x="0" y="0" width="200px" height="200px" viewBox="0 0 100 100">
<title> - Open Babel Depiction</title>
<rect x="0" y="0" width="100" height="100" fill="white"/>
<g transform="translate(0,0)">
<svg width="100" height="100" x="0" y="0" viewBox="0 0 357.128 200"
font-family="sans-serif" stroke="rgb(0,0,0)" stroke-width="2"  stroke-linecap="round">
<line x1="178.6" y1="147.0" x2="178.6" y2="120.0" opacity="1.0" stroke="rgb(0,0,0)"  stroke-width="2.0"/>
<line x1="213.2" y1="60.0" x2="236.6" y2="46.5" opacity="1.0" stroke="rgb(0,0,0)"  stroke-width="2.0"/>
<line x1="259.1" y1="46.5" x2="282.5" y2="60.0" opacity="1.0" stroke="rgb(0,0,0)"  stroke-width="2.0"/>
<line x1="282.5" y1="60.0" x2="282.5" y2="87.0" opacity="1.0" stroke="rgb(0,0,0)"  stroke-width="2.0"/>
<line x1="282.5" y1="60.0" x2="305.9" y2="46.5" opacity="1.0" stroke="rgb(0,0,0)"  stroke-width="2.0"/>
<line x1="143.9" y1="60.0" x2="120.5" y2="46.5" opacity="1.0" stroke="rgb(0,0,0)"  stroke-width="2.0"/>
<line x1="98.0" y1="46.5" x2="74.6" y2="60.0" opacity="1.0" stroke="rgb(0,0,0)"  stroke-width="2.0"/>
<line x1="74.6" y1="60.0" x2="51.3" y2="46.5" opacity="1.0" stroke="rgb(0,0,0)"  stroke-width="2.0"/>
<line x1="143.9" y1="60.0" x2="167.3" y2="46.5" opacity="1.0" stroke="rgb(0,0,0)"  stroke-width="2.0"/>
<line x1="190.0" y1="46.6" x2="213.2" y2="60.0" opacity="1.0" stroke="rgb(0,0,0)"  stroke-width="2.0"/>
<line x1="188.1" y1="53.8" x2="204.4" y2="63.2" opacity="1.0" stroke="rgb(0,0,0)"  stroke-width="2.0"/>
<line x1="213.2" y1="60.0" x2="213.2" y2="87.0" opacity="1.0" stroke="rgb(0,0,0)"  stroke-width="2.0"/>
<line x1="201.8" y1="106.6" x2="178.6" y2="120.0" opacity="1.0" stroke="rgb(0,0,0)"  stroke-width="2.0"/>
<line x1="196.4" y1="101.4" x2="180.2" y2="110.8" opacity="1.0" stroke="rgb(0,0,0)"  stroke-width="2.0"/>
<line x1="178.6" y1="120.0" x2="155.2" y2="106.5" opacity="1.0" stroke="rgb(0,0,0)"  stroke-width="2.0"/>
<line x1="143.9" y1="86.8" x2="143.9" y2="60.0" opacity="1.0" stroke="rgb(0,0,0)"  stroke-width="2.0"/>
<line x1="151.1" y1="84.8" x2="151.1" y2="66.0" opacity="1.0" stroke="rgb(0,0,0)"  stroke-width="2.0"/>
<text x="172.564065" y="168.000000" fill="rgb(30,239,30)" stroke-width="0" font-weight="bold" font-size="16" >Cl</text>
<text x="137.923048" y="108.000000" fill="rgb(12,12,255)" stroke-width="0" font-weight="bold" font-size="16" >N</text>
<text x="172.564065" y="48.000000" fill="rgb(12,12,255)" stroke-width="0" font-weight="bold" font-size="16" >N</text>
<text x="207.205081" y="108.000000" fill="rgb(12,12,255)" stroke-width="0" font-weight="bold" font-size="16" >N</text>
<text x="241.846097" y="48.000000" fill="rgb(12,12,255)" stroke-width="0" font-weight="bold" font-size="16" >N</text>
<text x="241.846097" y="32.000000" fill="rgb(12,12,255)" stroke-width="0" font-weight="bold" font-size="16" >H</text>
<text x="278.487113" y="108.000000" fill="rgb(102,102,102)" stroke-width="0" font-weight="bold" font-size="16" >CH</text>
<text x="302.487113" y="111.680000" fill="rgb(102,102,102)" stroke-width="0" font-weight="bold" font-size="13" >3</text>
<text x="313.128129" y="48.000000" fill="rgb(102,102,102)" stroke-width="0" font-weight="bold" font-size="16" >CH</text>
<text x="337.128129" y="51.680000" fill="rgb(102,102,102)" stroke-width="0" font-weight="bold" font-size="13" >3</text>
<text x="103.282032" y="48.000000" fill="rgb(12,12,255)" stroke-width="0" font-weight="bold" font-size="16" >N</text>
<text x="103.282032" y="32.000000" fill="rgb(12,12,255)" stroke-width="0" font-weight="bold" font-size="16" >H</text>
<text x="14.000000" y="48.000000" fill="rgb(102,102,102)" stroke-width="0" font-weight="bold" font-size="16" >H</text>
<text x="26.000000" y="51.680000" fill="rgb(102,102,102)" stroke-width="0" font-weight="bold" font-size="13" >3</text>
<text x="32.500000" y="48.000000" fill="rgb(102,102,102)" stroke-width="0" font-weight="bold" font-size="16" >C</text>
</svg>
</g>
<text font-size="18.000000" fill ="black" font-family="sans-serif"
x="10.000000" y="20.000000" ></text>
</svg>
