solid Mesh
  facet normal 0 0 -1
    outer loop
      vertex 325.611 -55 0
      vertex 325.611 -97 0
      vertex 298.611 -55 0
    endloop
  endfacet
  facet normal 0 0 -1
    outer loop
      vertex 325.611 -97 0
      vertex 298.611 -97 0
      vertex 298.611 -55 0
    endloop
  endfacet
  facet normal 0 0 1
    outer loop
      vertex 325.611 -97 0.25
      vertex 325.611 -55 0.25
      vertex 298.611 -97 0.25
    endloop
  endfacet
  facet normal 0 0 1
    outer loop
      vertex 325.611 -55 0.25
      vertex 298.611 -55 0.25
      vertex 298.611 -97 0.25
    endloop
  endfacet
  facet normal 0 1 0
    outer loop
      vertex 298.611 -55 0.25
      vertex 325.611 -55 0.25
      vertex 298.611 -55 0
    endloop
  endfacet
  facet normal 0 1 0
    outer loop
      vertex 325.611 -55 0.25
      vertex 325.611 -55 0
      vertex 298.611 -55 0
    endloop
  endfacet
  facet normal 1 0 0
    outer loop
      vertex 325.611 -55 0.25
      vertex 325.611 -97 0.25
      vertex 325.611 -55 0
    endloop
  endfacet
  facet normal 1 0 0
    outer loop
      vertex 325.611 -97 0.25
      vertex 325.611 -97 0
      vertex 325.611 -55 0
    endloop
  endfacet
  facet normal -1 0 0
    outer loop
      vertex 298.611 -97 0.25
      vertex 298.611 -55 0.25
      vertex 298.611 -97 0
    endloop
  endfacet
  facet normal -1 0 0
    outer loop
      vertex 298.611 -55 0.25
      vertex 298.611 -55 0
      vertex 298.611 -97 0
    endloop
  endfacet
  facet normal 0 -1 0
    outer loop
      vertex 325.611 -97 0.25
      vertex 298.611 -97 0.25
      vertex 325.611 -97 0
    endloop
  endfacet
  facet normal 0 -1 0
    outer loop
      vertex 298.611 -97 0.25
      vertex 298.611 -97 0
      vertex 325.611 -97 0
    endloop
  endfacet
endsolid Mesh
