solid Mesh
  facet normal 0 0 -1
    outer loop
      vertex 325.611 158.844 0
      vertex 325.611 30.7998 0
      vertex 167 158.844 0
    endloop
  endfacet
  facet normal 0 0 -1
    outer loop
      vertex 325.611 30.7998 0
      vertex 280.549 30.7998 0
      vertex 167 158.844 0
    endloop
  endfacet
  facet normal 0 0 -1
    outer loop
      vertex 325.611 -8.0498 0
      vertex 325.611 -55 0
      vertex 280.549 -8.0498 0
    endloop
  endfacet
  facet normal 0 0 -1
    outer loop
      vertex 325.611 -55 0
      vertex 298.611 -55 0
      vertex 280.549 -8.0498 0
    endloop
  endfacet
  facet normal 0 0 -1
    outer loop
      vertex 325.611 -97 0
      vertex 325.611 -158.844 0
      vertex 298.611 -97 0
    endloop
  endfacet
  facet normal 0 0 -1
    outer loop
      vertex 325.611 -158.844 0
      vertex 167 -158.844 0
      vertex 298.611 -97 0
    endloop
  endfacet
  facet normal 0 0 -1
    outer loop
      vertex 298.611 -97 0
      vertex 167 -158.844 0
      vertex 298.611 -55 0
    endloop
  endfacet
  facet normal 0 0 -1
    outer loop
      vertex 167 -158.844 0
      vertex 167 158.844 0
      vertex 298.611 -55 0
    endloop
  endfacet
  facet normal 0 0 -1
    outer loop
      vertex 298.611 -55 0
      vertex 167 158.844 0
      vertex 280.549 -8.0498 0
    endloop
  endfacet
  facet normal 0 0 -1
    outer loop
      vertex 167 158.844 0
      vertex 280.549 30.7998 0
      vertex 280.549 -8.0498 0
    endloop
  endfacet
  facet normal 0 0 1
    outer loop
      vertex 325.611 -158.844 0.25
      vertex 325.611 -97 0.25
      vertex 167 -158.844 0.25
    endloop
  endfacet
  facet normal 0 0 1
    outer loop
      vertex 325.611 -97 0.25
      vertex 298.611 -97 0.25
      vertex 167 -158.844 0.25
    endloop
  endfacet
  facet normal 0 0 1
    outer loop
      vertex 167 -158.844 0.25
      vertex 298.611 -97 0.25
      vertex 167 158.844 0.25
    endloop
  endfacet
  facet normal 0 0 1
    outer loop
      vertex 298.611 -97 0.25
      vertex 298.611 -55 0.25
      vertex 167 158.844 0.25
    endloop
  endfacet
  facet normal 0 0 1
    outer loop
      vertex 325.611 30.7998 0.25
      vertex 325.611 158.844 0.25
      vertex 280.549 30.7998 0.25
    endloop
  endfacet
  facet normal 0 0 1
    outer loop
      vertex 325.611 158.844 0.25
      vertex 167 158.844 0.25
      vertex 280.549 30.7998 0.25
    endloop
  endfacet
  facet normal 0 0 1
    outer loop
      vertex 280.549 30.7998 0.25
      vertex 167 158.844 0.25
      vertex 280.549 -8.0498 0.25
    endloop
  endfacet
  facet normal 0 0 1
    outer loop
      vertex 167 158.844 0.25
      vertex 298.611 -55 0.25
      vertex 280.549 -8.0498 0.25
    endloop
  endfacet
  facet normal 0 0 1
    outer loop
      vertex 280.549 -8.0498 0.25
      vertex 298.611 -55 0.25
      vertex 325.611 -8.0498 0.25
    endloop
  endfacet
  facet normal 0 0 1
    outer loop
      vertex 298.611 -55 0.25
      vertex 325.611 -55 0.25
      vertex 325.611 -8.0498 0.25
    endloop
  endfacet
  facet normal 1 0 0
    outer loop
      vertex 325.611 158.844 0.25
      vertex 325.611 30.7998 0.25
      vertex 325.611 158.844 0
    endloop
  endfacet
  facet normal 1 0 0
    outer loop
      vertex 325.611 30.7998 0.25
      vertex 325.611 30.7998 0
      vertex 325.611 158.844 0
    endloop
  endfacet
  facet normal 0 -1 0
    outer loop
      vertex 325.611 30.7998 0.25
      vertex 280.549 30.7998 0.25
      vertex 325.611 30.7998 0
    endloop
  endfacet
  facet normal 0 -1 0
    outer loop
      vertex 280.549 30.7998 0.25
      vertex 280.549 30.7998 0
      vertex 325.611 30.7998 0
    endloop
  endfacet
  facet normal 1 0 0
    outer loop
      vertex 280.549 30.7998 0.25
      vertex 280.549 -8.0498 0.25
      vertex 280.549 30.7998 0
    endloop
  endfacet
  facet normal 1 0 0
    outer loop
      vertex 280.549 -8.0498 0.25
      vertex 280.549 -8.0498 0
      vertex 280.549 30.7998 0
    endloop
  endfacet
  facet normal 0 1 0
    outer loop
      vertex 280.549 -8.0498 0.25
      vertex 325.611 -8.0498 0.25
      vertex 280.549 -8.0498 0
    endloop
  endfacet
  facet normal 0 1 0
    outer loop
      vertex 325.611 -8.0498 0.25
      vertex 325.611 -8.0498 0
      vertex 280.549 -8.0498 0
    endloop
  endfacet
  facet normal 1 0 0
    outer loop
      vertex 325.611 -8.0498 0.25
      vertex 325.611 -55 0.25
      vertex 325.611 -8.0498 0
    endloop
  endfacet
  facet normal 1 0 0
    outer loop
      vertex 325.611 -55 0.25
      vertex 325.611 -55 0
      vertex 325.611 -8.0498 0
    endloop
  endfacet
  facet normal 0 -1 0
    outer loop
      vertex 325.611 -55 0.25
      vertex 298.611 -55 0.25
      vertex 325.611 -55 0
    endloop
  endfacet
  facet normal 0 -1 0
    outer loop
      vertex 298.611 -55 0.25
      vertex 298.611 -55 0
      vertex 325.611 -55 0
    endloop
  endfacet
  facet normal -1 0 0
    outer loop
      vertex 167 -158.844 0.25
      vertex 167 158.844 0.25
      vertex 167 -158.844 0
    endloop
  endfacet
  facet normal -1 0 0
    outer loop
      vertex 167 158.844 0.25
      vertex 167 158.844 0
      vertex 167 -158.844 0
    endloop
  endfacet
  facet normal 0 1 0
    outer loop
      vertex 167 158.844 0.25
      vertex 325.611 158.844 0.25
      vertex 167 158.844 0
    endloop
  endfacet
  facet normal 0 1 0
    outer loop
      vertex 325.611 158.844 0.25
      vertex 325.611 158.844 0
      vertex 167 158.844 0
    endloop
  endfacet
  facet normal 0 -1 0
    outer loop
      vertex 325.611 -158.844 0.25
      vertex 167 -158.844 0.25
      vertex 325.611 -158.844 0
    endloop
  endfacet
  facet normal 0 -1 0
    outer loop
      vertex 167 -158.844 0.25
      vertex 167 -158.844 0
      vertex 325.611 -158.844 0
    endloop
  endfacet
  facet normal 1 0 0
    outer loop
      vertex 298.611 -55 0.25
      vertex 298.611 -97 0.25
      vertex 298.611 -55 0
    endloop
  endfacet
  facet normal 1 0 0
    outer loop
      vertex 298.611 -97 0.25
      vertex 298.611 -97 0
      vertex 298.611 -55 0
    endloop
  endfacet
  facet normal 1 0 0
    outer loop
      vertex 325.611 -97 0.25
      vertex 325.611 -158.844 0.25
      vertex 325.611 -97 0
    endloop
  endfacet
  facet normal 1 0 0
    outer loop
      vertex 325.611 -158.844 0.25
      vertex 325.611 -158.844 0
      vertex 325.611 -97 0
    endloop
  endfacet
  facet normal 0 1 0
    outer loop
      vertex 298.611 -97 0.25
      vertex 325.611 -97 0.25
      vertex 298.611 -97 0
    endloop
  endfacet
  facet normal 0 1 0
    outer loop
      vertex 325.611 -97 0.25
      vertex 325.611 -97 0
      vertex 298.611 -97 0
    endloop
  endfacet
endsolid Mesh
