solid Mesh
  facet normal 0 0 -1
    outer loop
      vertex -325.611 8.0498 0
      vertex -287.049 8.0498 0
      vertex -325.611 -30.7998 0
    endloop
  endfacet
  facet normal 0 0 -1
    outer loop
      vertex -287.049 8.0498 0
      vertex -287.049 3.49 0
      vertex -325.611 -30.7998 0
    endloop
  endfacet
  facet normal 0 0 -1
    outer loop
      vertex -287.049 -30.7998 0
      vertex -325.611 -30.7998 0
      vertex -287.049 -26.24 0
    endloop
  endfacet
  facet normal 0 0 -1
    outer loop
      vertex -325.611 -30.7998 0
      vertex -287.049 3.49 0
      vertex -287.049 -26.24 0
    endloop
  endfacet
  facet normal 0 0 -1
    outer loop
      vertex -287.049 -26.24 0
      vertex -287.049 3.49 0
      vertex -280.549 -26.24 0
    endloop
  endfacet
  facet normal 0 0 -1
    outer loop
      vertex -287.049 3.49 0
      vertex -280.549 3.49 0
      vertex -280.549 -26.24 0
    endloop
  endfacet
  facet normal 0 0 1
    outer loop
      vertex -325.611 -30.7998 0.25
      vertex -287.049 -30.7998 0.25
      vertex -325.611 8.0498 0.25
    endloop
  endfacet
  facet normal 0 0 1
    outer loop
      vertex -287.049 -30.7998 0.25
      vertex -287.049 -26.24 0.25
      vertex -325.611 8.0498 0.25
    endloop
  endfacet
  facet normal 0 0 1
    outer loop
      vertex -287.049 8.0498 0.25
      vertex -325.611 8.0498 0.25
      vertex -287.049 3.49 0.25
    endloop
  endfacet
  facet normal 0 0 1
    outer loop
      vertex -325.611 8.0498 0.25
      vertex -287.049 -26.24 0.25
      vertex -287.049 3.49 0.25
    endloop
  endfacet
  facet normal 0 0 1
    outer loop
      vertex -287.049 3.49 0.25
      vertex -287.049 -26.24 0.25
      vertex -280.549 3.49 0.25
    endloop
  endfacet
  facet normal 0 0 1
    outer loop
      vertex -287.049 -26.24 0.25
      vertex -280.549 -26.24 0.25
      vertex -280.549 3.49 0.25
    endloop
  endfacet
  facet normal 0 -1 0
    outer loop
      vertex -287.049 -30.7998 0.25
      vertex -325.611 -30.7998 0.25
      vertex -287.049 -30.7998 0
    endloop
  endfacet
  facet normal 0 -1 0
    outer loop
      vertex -325.611 -30.7998 0.25
      vertex -325.611 -30.7998 0
      vertex -287.049 -30.7998 0
    endloop
  endfacet
  facet normal -1 0 0
    outer loop
      vertex -325.611 -30.7998 0.25
      vertex -325.611 8.0498 0.25
      vertex -325.611 -30.7998 0
    endloop
  endfacet
  facet normal -1 0 0
    outer loop
      vertex -325.611 8.0498 0.25
      vertex -325.611 8.0498 0
      vertex -325.611 -30.7998 0
    endloop
  endfacet
  facet normal 0 -1 0
    outer loop
      vertex -280.549 -26.24 0.25
      vertex -287.049 -26.24 0.25
      vertex -280.549 -26.24 0
    endloop
  endfacet
  facet normal 0 -1 0
    outer loop
      vertex -287.049 -26.24 0.25
      vertex -287.049 -26.24 0
      vertex -280.549 -26.24 0
    endloop
  endfacet
  facet normal 1 0 0
    outer loop
      vertex -287.049 -26.24 0.25
      vertex -287.049 -30.7998 0.25
      vertex -287.049 -26.24 0
    endloop
  endfacet
  facet normal 1 0 0
    outer loop
      vertex -287.049 -30.7998 0.25
      vertex -287.049 -30.7998 0
      vertex -287.049 -26.24 0
    endloop
  endfacet
  facet normal 1 0 0
    outer loop
      vertex -280.549 3.49 0.25
      vertex -280.549 -26.24 0.25
      vertex -280.549 3.49 0
    endloop
  endfacet
  facet normal 1 0 0
    outer loop
      vertex -280.549 -26.24 0.25
      vertex -280.549 -26.24 0
      vertex -280.549 3.49 0
    endloop
  endfacet
  facet normal 0 1 0
    outer loop
      vertex -287.049 3.49 0.25
      vertex -280.549 3.49 0.25
      vertex -287.049 3.49 0
    endloop
  endfacet
  facet normal 0 1 0
    outer loop
      vertex -280.549 3.49 0.25
      vertex -280.549 3.49 0
      vertex -287.049 3.49 0
    endloop
  endfacet
  facet normal 0 1 0
    outer loop
      vertex -325.611 8.0498 0.25
      vertex -287.049 8.0498 0.25
      vertex -325.611 8.0498 0
    endloop
  endfacet
  facet normal 0 1 0
    outer loop
      vertex -287.049 8.0498 0.25
      vertex -287.049 8.0498 0
      vertex -325.611 8.0498 0
    endloop
  endfacet
  facet normal 1 0 0
    outer loop
      vertex -287.049 8.0498 0.25
      vertex -287.049 3.49 0.25
      vertex -287.049 8.0498 0
    endloop
  endfacet
  facet normal 1 0 0
    outer loop
      vertex -287.049 3.49 0.25
      vertex -287.049 3.49 0
      vertex -287.049 8.0498 0
    endloop
  endfacet
endsolid Mesh
