solid Mesh
  facet normal 0 0 -1
    outer loop
      vertex -167 -108.5 0
      vertex -120 -108.5 0
      vertex -167 -158.844 0
    endloop
  endfacet
  facet normal 0 0 -1
    outer loop
      vertex -120 -108.5 0
      vertex -120 -158.844 0
      vertex -167 -158.844 0
    endloop
  endfacet
  facet normal 0 0 1
    outer loop
      vertex -120 -108.5 0.25
      vertex -167 -108.5 0.25
      vertex -120 -158.844 0.25
    endloop
  endfacet
  facet normal 0 0 1
    outer loop
      vertex -167 -108.5 0.25
      vertex -167 -158.844 0.25
      vertex -120 -158.844 0.25
    endloop
  endfacet
  facet normal -1 0 0
    outer loop
      vertex -167 -158.844 0.25
      vertex -167 -108.5 0.25
      vertex -167 -158.844 0
    endloop
  endfacet
  facet normal -1 0 0
    outer loop
      vertex -167 -108.5 0.25
      vertex -167 -108.5 0
      vertex -167 -158.844 0
    endloop
  endfacet
  facet normal 0 1 0
    outer loop
      vertex -167 -108.5 0.25
      vertex -120 -108.5 0.25
      vertex -167 -108.5 0
    endloop
  endfacet
  facet normal 0 1 0
    outer loop
      vertex -120 -108.5 0.25
      vertex -120 -108.5 0
      vertex -167 -108.5 0
    endloop
  endfacet
  facet normal 0 -1 0
    outer loop
      vertex -120 -158.844 0.25
      vertex -167 -158.844 0.25
      vertex -120 -158.844 0
    endloop
  endfacet
  facet normal 0 -1 0
    outer loop
      vertex -167 -158.844 0.25
      vertex -167 -158.844 0
      vertex -120 -158.844 0
    endloop
  endfacet
  facet normal 1 0 0
    outer loop
      vertex -120 -108.5 0.25
      vertex -120 -158.844 0.25
      vertex -120 -108.5 0
    endloop
  endfacet
  facet normal 1 0 0
    outer loop
      vertex -120 -158.844 0.25
      vertex -120 -158.844 0
      vertex -120 -108.5 0
    endloop
  endfacet
endsolid Mesh
