<svg xmlns="http://www.w3.org/2000/svg" xmlns:xlink="http://www.w3.org/1999/xlink" contentStyleType="text/css" data-diagram-type="CLASS" height="794px" preserveAspectRatio="none" style="width:2819px;height:794px;" version="1.1" viewBox="0 0 2819 794" width="2819px" zoomAndPan="magnify"><title>Harbor TLS Configuration: /etc/harbor/tls/internal</title><defs/><g><text fill="#000000" font-family="sans-serif" font-size="14" font-weight="bold" lengthAdjust="spacing" textLength="350.2368" x="1227.8211" y="24.9659">Harbor TLS Configuration: /etc/harbor/tls/internal</text><!--cluster uswest.nomoneydown.cloud--><g class="cluster" data-entity="uswest.nomoneydown.cloud" data-source-line="63" data-uid="ent0010" id="cluster_uswest.nomoneydown.cloud"><path d="M8.5,46.6699 L209.4192,46.6699 A3.75,3.75 0 0 1 211.9192,49.1699 L218.9192,71.7378 L589.5,71.7378 A2.5,2.5 0 0 1 592,74.2378 L592,244.1699 A2.5,2.5 0 0 1 589.5,246.6699 L8.5,246.6699 A2.5,2.5 0 0 1 6,244.1699 L6,49.1699 A2.5,2.5 0 0 1 8.5,46.6699" fill="none" style="stroke:#000000;stroke-width:1.5;"/><line style="stroke:#000000;stroke-width:1.5;" x1="6" x2="218.9192" y1="71.7378" y2="71.7378"/><text fill="#000000" font-family="sans-serif" font-size="14" font-weight="bold" lengthAdjust="spacing" textLength="199.9192" x="10" y="63.6358">uswest.nomoneydown.cloud</text></g><!--cluster uswest.solidstate.nomoneydown.cloud--><g class="cluster" data-entity="uswest.solidstate.nomoneydown.cloud" data-source-line="79" data-uid="ent0014" id="cluster_uswest.solidstate.nomoneydown.cloud"><path d="M618.5,46.6699 L892.2609,46.6699 A3.75,3.75 0 0 1 894.7609,49.1699 L901.7609,71.7378 L1248.5,71.7378 A2.5,2.5 0 0 1 1251,74.2378 L1251,244.1699 A2.5,2.5 0 0 1 1248.5,246.6699 L618.5,246.6699 A2.5,2.5 0 0 1 616,244.1699 L616,49.1699 A2.5,2.5 0 0 1 618.5,46.6699" fill="none" style="stroke:#000000;stroke-width:1.5;"/><line style="stroke:#000000;stroke-width:1.5;" x1="616" x2="901.7609" y1="71.7378" y2="71.7378"/><text fill="#000000" font-family="sans-serif" font-size="14" font-weight="bold" lengthAdjust="spacing" textLength="272.7609" x="620" y="63.6358">uswest.solidstate.nomoneydown.cloud</text></g><rect fill="#F1F1F1" height="138.4075" rx="2.5" ry="2.5" style="stroke:#181818;stroke-width:0.5;" width="251.0551" x="30.5" y="88.6699"/><text fill="#000000" font-family="sans-serif" font-size="14" lengthAdjust="spacing" textLength="59.1778" x="126.4387" y="105.6358">ext_redis</text><line style="stroke:#181818;stroke-width:1;" x1="67.7719" x2="67.7719" y1="111.7378" y2="227.0774"/><line style="stroke:#181818;stroke-width:1;" x1="30.5" x2="281.5551" y1="111.7378" y2="111.7378"/><text fill="#000000" font-family="sans-serif" font-size="14" lengthAdjust="spacing" textLength="22.5119" x="35.5" y="128.7038">key</text><text fill="#000000" font-family="sans-serif" font-size="14" lengthAdjust="spacing" textLength="192.8773" x="72.7719" y="128.7038">/etc/harbor/tls/redis/root.key</text><line style="stroke:#181818;stroke-width:1;" x1="30.5" x2="281.5551" y1="134.8057" y2="134.8057"/><text fill="#000000" font-family="sans-serif" font-size="14" lengthAdjust="spacing" textLength="17.5559" x="35.5" y="151.7717">crt</text><text fill="#000000" font-family="sans-serif" font-size="14" lengthAdjust="spacing" textLength="187.9213" x="72.7719" y="151.7717">/etc/harbor/tls/redis/root.crt</text><line style="stroke:#181818;stroke-width:1;" x1="30.5" x2="281.5551" y1="157.8736" y2="157.8736"/><text fill="#000000" font-family="sans-serif" font-size="14" lengthAdjust="spacing" textLength="19.4879" x="35.5" y="174.8396">CN</text><text fill="#000000" font-family="sans-serif" font-size="14" lengthAdjust="spacing" textLength="192.0233" x="72.7719" y="174.8396">redis.uswest.bigmoney.cloud</text><line style="stroke:#181818;stroke-width:1;" x1="30.5" x2="281.5551" y1="180.9416" y2="180.9416"/><text fill="#000000" font-family="sans-serif" font-size="14" lengthAdjust="spacing" textLength="27.2719" x="35.5" y="197.9075">SAN</text><text fill="#000000" font-family="sans-serif" font-size="14" lengthAdjust="spacing" textLength="203.7832" x="72.7719" y="197.9075">1.redis.uswest.bigmoney.cloud</text><line style="stroke:#181818;stroke-width:1;" x1="67.7719" x2="281.5551" y1="204.0095" y2="204.0095"/><text fill="#000000" font-family="sans-serif" font-size="14" lengthAdjust="spacing" textLength="203.7832" x="72.7719" y="220.9754">2.redis.uswest.bigmoney.cloud</text><rect fill="#F1F1F1" height="69.2038" rx="2.5" ry="2.5" style="stroke:#181818;stroke-width:0.5;" width="235.3892" x="332.5" y="123.1699"/><text fill="#FF0000" font-family="sans-serif" font-size="14" lengthAdjust="spacing" textLength="94.4576" x="404.7858" y="140.1358">Redis' Root CA</text><line style="stroke:#181818;stroke-width:1;" x1="365.0119" x2="365.0119" y1="146.2378" y2="192.3736"/><line style="stroke:#181818;stroke-width:1;" x1="332.5" x2="567.8892" y1="146.2378" y2="146.2378"/><text fill="#000000" font-family="sans-serif" font-size="14" lengthAdjust="spacing" textLength="22.5119" x="337.5" y="163.2038">key</text><text fill="#000000" font-family="sans-serif" font-size="14" lengthAdjust="spacing" textLength="192.8773" x="370.0119" y="163.2038">/etc/harbor/tls/redis/root.key</text><line style="stroke:#181818;stroke-width:1;" x1="332.5" x2="567.8892" y1="169.3057" y2="169.3057"/><text fill="#000000" font-family="sans-serif" font-size="14" lengthAdjust="spacing" textLength="17.5559" x="337.5" y="186.2717">crt</text><text fill="#000000" font-family="sans-serif" font-size="14" lengthAdjust="spacing" textLength="187.9213" x="370.0119" y="186.2717">/etc/harbor/tls/redis/root.crt</text><rect fill="#F1F1F1" height="138.4075" rx="2.5" ry="2.5" style="stroke:#181818;stroke-width:0.5;" width="276.283" x="640" y="88.6699"/><text fill="#000000" font-family="sans-serif" font-size="14" lengthAdjust="spacing" textLength="84.4057" x="735.9387" y="105.6358">ext_postgres</text><line style="stroke:#181818;stroke-width:1;" x1="677.2719" x2="677.2719" y1="111.7378" y2="227.0774"/><line style="stroke:#181818;stroke-width:1;" x1="640" x2="916.283" y1="111.7378" y2="111.7378"/><text fill="#000000" font-family="sans-serif" font-size="14" lengthAdjust="spacing" textLength="22.5119" x="645" y="128.7038">key</text><text fill="#000000" font-family="sans-serif" font-size="14" lengthAdjust="spacing" textLength="218.1052" x="682.2719" y="128.7038">/etc/harbor/tls/postgres/root.key</text><line style="stroke:#181818;stroke-width:1;" x1="640" x2="916.283" y1="134.8057" y2="134.8057"/><text fill="#000000" font-family="sans-serif" font-size="14" lengthAdjust="spacing" textLength="17.5559" x="645" y="151.7717">crt</text><text fill="#000000" font-family="sans-serif" font-size="14" lengthAdjust="spacing" textLength="213.1492" x="682.2719" y="151.7717">/etc/harbor/tls/postgres/root.crt</text><line style="stroke:#181818;stroke-width:1;" x1="640" x2="916.283" y1="157.8736" y2="157.8736"/><text fill="#000000" font-family="sans-serif" font-size="14" lengthAdjust="spacing" textLength="19.4879" x="645" y="174.8396">CN</text><text fill="#000000" font-family="sans-serif" font-size="14" lengthAdjust="spacing" textLength="217.2512" x="682.2719" y="174.8396">postgres.uswest.bigmoney.cloud</text><line style="stroke:#181818;stroke-width:1;" x1="640" x2="916.283" y1="180.9416" y2="180.9416"/><text fill="#000000" font-family="sans-serif" font-size="14" lengthAdjust="spacing" textLength="27.2719" x="645" y="197.9075">SAN</text><text fill="#000000" font-family="sans-serif" font-size="14" lengthAdjust="spacing" textLength="229.0111" x="682.2719" y="197.9075">1.postgres.uswest.bigmoney.cloud</text><line style="stroke:#181818;stroke-width:1;" x1="677.2719" x2="916.283" y1="204.0095" y2="204.0095"/><text fill="#000000" font-family="sans-serif" font-size="14" lengthAdjust="spacing" textLength="229.0111" x="682.2719" y="220.9754">2.postgres.uswest.bigmoney.cloud</text><rect fill="#F1F1F1" height="69.2038" rx="2.5" ry="2.5" style="stroke:#181818;stroke-width:0.5;" width="260.6171" x="967" y="123.1699"/><text fill="#FF0000" font-family="sans-serif" font-size="14" lengthAdjust="spacing" textLength="116.6196" x="1040.8187" y="140.1358">Postgres' Root CA</text><line style="stroke:#181818;stroke-width:1;" x1="999.5119" x2="999.5119" y1="146.2378" y2="192.3736"/><line style="stroke:#181818;stroke-width:1;" x1="967" x2="1227.6171" y1="146.2378" y2="146.2378"/><text fill="#000000" font-family="sans-serif" font-size="14" lengthAdjust="spacing" textLength="22.5119" x="972" y="163.2038">key</text><text fill="#000000" font-family="sans-serif" font-size="14" lengthAdjust="spacing" textLength="218.1052" x="1004.5119" y="163.2038">/etc/harbor/tls/postgres/root.key</text><line style="stroke:#181818;stroke-width:1;" x1="967" x2="1227.6171" y1="169.3057" y2="169.3057"/><text fill="#000000" font-family="sans-serif" font-size="14" lengthAdjust="spacing" textLength="17.5559" x="972" y="186.2717">crt</text><text fill="#000000" font-family="sans-serif" font-size="14" lengthAdjust="spacing" textLength="213.1492" x="1004.5119" y="186.2717">/etc/harbor/tls/postgres/root.crt</text><rect fill="#F1F1F1" height="92.2717" rx="2.5" ry="2.5" style="stroke:#181818;stroke-width:0.5;" width="269.149" x="1710.5" y="340.6699"/><text fill="#000000" font-family="sans-serif" font-size="14" lengthAdjust="spacing" textLength="255.149" x="1717.5" y="357.6358">harbor.solidstate.nomoneydown.cloud</text><line style="stroke:#181818;stroke-width:1;" x1="1796.8697" x2="1796.8697" y1="363.7378" y2="432.9416"/><line style="stroke:#181818;stroke-width:1;" x1="1710.5" x2="1979.649" y1="363.7378" y2="363.7378"/><text fill="#000000" font-family="sans-serif" font-size="14" lengthAdjust="spacing" textLength="22.5119" x="1715.5" y="380.7038">key</text><text fill="#000000" font-family="sans-serif" font-size="14" lengthAdjust="spacing" textLength="149.5334" x="1801.8697" y="380.7038">harbor_internal_ca.key</text><line style="stroke:#181818;stroke-width:1;" x1="1710.5" x2="1979.649" y1="386.8057" y2="386.8057"/><text fill="#000000" font-family="sans-serif" font-size="14" lengthAdjust="spacing" textLength="17.5559" x="1715.5" y="403.7717">crt</text><text fill="#000000" font-family="sans-serif" font-size="14" lengthAdjust="spacing" textLength="144.5775" x="1801.8697" y="403.7717">harbor_internal_ca.crt</text><line style="stroke:#181818;stroke-width:1;" x1="1710.5" x2="1979.649" y1="409.8736" y2="409.8736"/><text fill="#000000" font-family="sans-serif" font-size="14" lengthAdjust="spacing" textLength="76.3697" x="1715.5" y="426.8396">pathLength</text><text fill="#000000" font-family="sans-serif" font-size="14" lengthAdjust="spacing" textLength="8.008" x="1801.8697" y="426.8396">0</text><rect fill="#F1F1F1" height="115.3396" rx="2.5" ry="2.5" style="stroke:#181818;stroke-width:0.5;" width="102.4037" x="1278" y="100.1699"/><text fill="#000000" font-family="sans-serif" font-size="14" lengthAdjust="spacing" textLength="77.7697" x="1290.317" y="117.1358">core.harbor</text><line style="stroke:#181818;stroke-width:1;" x1="1315.2719" x2="1315.2719" y1="123.2378" y2="215.5095"/><line style="stroke:#181818;stroke-width:1;" x1="1278" x2="1380.4037" y1="123.2378" y2="123.2378"/><text fill="#000000" font-family="sans-serif" font-size="14" lengthAdjust="spacing" textLength="22.5119" x="1283" y="140.2038">key</text><text fill="#000000" font-family="sans-serif" font-size="14" lengthAdjust="spacing" textLength="55.1318" x="1320.2719" y="140.2038">core.key</text><line style="stroke:#181818;stroke-width:1;" x1="1278" x2="1380.4037" y1="146.3057" y2="146.3057"/><text fill="#000000" font-family="sans-serif" font-size="14" lengthAdjust="spacing" textLength="17.5559" x="1283" y="163.2717">crt</text><text fill="#000000" font-family="sans-serif" font-size="14" lengthAdjust="spacing" textLength="50.1758" x="1320.2719" y="163.2717">core.crt</text><line style="stroke:#181818;stroke-width:1;" x1="1278" x2="1380.4037" y1="169.3736" y2="169.3736"/><text fill="#000000" font-family="sans-serif" font-size="14" lengthAdjust="spacing" textLength="19.4879" x="1283" y="186.3396">CN</text><text fill="#000000" font-family="sans-serif" font-size="14" lengthAdjust="spacing" textLength="28.8679" x="1320.2719" y="186.3396">core</text><line style="stroke:#181818;stroke-width:1;" x1="1278" x2="1380.4037" y1="192.4416" y2="192.4416"/><text fill="#000000" font-family="sans-serif" font-size="14" lengthAdjust="spacing" textLength="27.2719" x="1283" y="209.4075">SAN</text><text fill="#000000" font-family="sans-serif" font-size="14" lengthAdjust="spacing" textLength="28.8679" x="1320.2719" y="209.4075">core</text><rect fill="#F1F1F1" height="115.3396" rx="2.5" ry="2.5" style="stroke:#181818;stroke-width:0.5;" width="146.1675" x="1431" y="100.1699"/><text fill="#000000" font-family="sans-serif" font-size="14" lengthAdjust="spacing" textLength="121.5335" x="1443.317" y="117.1358">job_service.harbor</text><line style="stroke:#181818;stroke-width:1;" x1="1468.2719" x2="1468.2719" y1="123.2378" y2="215.5095"/><line style="stroke:#181818;stroke-width:1;" x1="1431" x2="1577.1675" y1="123.2378" y2="123.2378"/><text fill="#000000" font-family="sans-serif" font-size="14" lengthAdjust="spacing" textLength="22.5119" x="1436" y="140.2038">key</text><text fill="#000000" font-family="sans-serif" font-size="14" lengthAdjust="spacing" textLength="98.8956" x="1473.2719" y="140.2038">job_service.key</text><line style="stroke:#181818;stroke-width:1;" x1="1431" x2="1577.1675" y1="146.3057" y2="146.3057"/><text fill="#000000" font-family="sans-serif" font-size="14" lengthAdjust="spacing" textLength="17.5559" x="1436" y="163.2717">crt</text><text fill="#000000" font-family="sans-serif" font-size="14" lengthAdjust="spacing" textLength="93.9396" x="1473.2719" y="163.2717">job_service.crt</text><line style="stroke:#181818;stroke-width:1;" x1="1431" x2="1577.1675" y1="169.3736" y2="169.3736"/><text fill="#000000" font-family="sans-serif" font-size="14" lengthAdjust="spacing" textLength="19.4879" x="1436" y="186.3396">CN</text><text fill="#000000" font-family="sans-serif" font-size="14" lengthAdjust="spacing" textLength="66.4157" x="1473.2719" y="186.3396">jobservice</text><line style="stroke:#181818;stroke-width:1;" x1="1431" x2="1577.1675" y1="192.4416" y2="192.4416"/><text fill="#000000" font-family="sans-serif" font-size="14" lengthAdjust="spacing" textLength="27.2719" x="1436" y="209.4075">SAN</text><text fill="#000000" font-family="sans-serif" font-size="14" lengthAdjust="spacing" textLength="66.4157" x="1473.2719" y="209.4075">jobservice</text><rect fill="#F1F1F1" height="115.3396" rx="2.5" ry="2.5" style="stroke:#181818;stroke-width:0.5;" width="110.9436" x="1628" y="100.1699"/><text fill="#000000" font-family="sans-serif" font-size="14" lengthAdjust="spacing" textLength="86.3097" x="1640.317" y="117.1358">proxy.harbor</text><line style="stroke:#181818;stroke-width:1;" x1="1665.2719" x2="1665.2719" y1="123.2378" y2="215.5095"/><line style="stroke:#181818;stroke-width:1;" x1="1628" x2="1738.9436" y1="123.2378" y2="123.2378"/><text fill="#000000" font-family="sans-serif" font-size="14" lengthAdjust="spacing" textLength="22.5119" x="1633" y="140.2038">key</text><text fill="#000000" font-family="sans-serif" font-size="14" lengthAdjust="spacing" textLength="63.6718" x="1670.2719" y="140.2038">proxy.key</text><line style="stroke:#181818;stroke-width:1;" x1="1628" x2="1738.9436" y1="146.3057" y2="146.3057"/><text fill="#000000" font-family="sans-serif" font-size="14" lengthAdjust="spacing" textLength="17.5559" x="1633" y="163.2717">crt</text><text fill="#000000" font-family="sans-serif" font-size="14" lengthAdjust="spacing" textLength="58.7158" x="1670.2719" y="163.2717">proxy.crt</text><line style="stroke:#181818;stroke-width:1;" x1="1628" x2="1738.9436" y1="169.3736" y2="169.3736"/><text fill="#000000" font-family="sans-serif" font-size="14" lengthAdjust="spacing" textLength="19.4879" x="1633" y="186.3396">CN</text><text fill="#000000" font-family="sans-serif" font-size="14" lengthAdjust="spacing" textLength="37.4079" x="1670.2719" y="186.3396">proxy</text><line style="stroke:#181818;stroke-width:1;" x1="1628" x2="1738.9436" y1="192.4416" y2="192.4416"/><text fill="#000000" font-family="sans-serif" font-size="14" lengthAdjust="spacing" textLength="27.2719" x="1633" y="209.4075">SAN</text><text fill="#000000" font-family="sans-serif" font-size="14" lengthAdjust="spacing" textLength="37.4079" x="1670.2719" y="209.4075">proxy</text><rect fill="#F1F1F1" height="115.3396" rx="2.5" ry="2.5" style="stroke:#181818;stroke-width:0.5;" width="112.9176" x="1789" y="100.1699"/><text fill="#000000" font-family="sans-serif" font-size="14" lengthAdjust="spacing" textLength="88.2837" x="1801.317" y="117.1358">portal.harbor</text><line style="stroke:#181818;stroke-width:1;" x1="1826.2719" x2="1826.2719" y1="123.2378" y2="215.5095"/><line style="stroke:#181818;stroke-width:1;" x1="1789" x2="1901.9176" y1="123.2378" y2="123.2378"/><text fill="#000000" font-family="sans-serif" font-size="14" lengthAdjust="spacing" textLength="22.5119" x="1794" y="140.2038">key</text><text fill="#000000" font-family="sans-serif" font-size="14" lengthAdjust="spacing" textLength="65.6458" x="1831.2719" y="140.2038">portal.key</text><line style="stroke:#181818;stroke-width:1;" x1="1789" x2="1901.9176" y1="146.3057" y2="146.3057"/><text fill="#000000" font-family="sans-serif" font-size="14" lengthAdjust="spacing" textLength="17.5559" x="1794" y="163.2717">crt</text><text fill="#000000" font-family="sans-serif" font-size="14" lengthAdjust="spacing" textLength="60.6898" x="1831.2719" y="163.2717">portal.crt</text><line style="stroke:#181818;stroke-width:1;" x1="1789" x2="1901.9176" y1="169.3736" y2="169.3736"/><text fill="#000000" font-family="sans-serif" font-size="14" lengthAdjust="spacing" textLength="19.4879" x="1794" y="186.3396">CN</text><text fill="#000000" font-family="sans-serif" font-size="14" lengthAdjust="spacing" textLength="39.3819" x="1831.2719" y="186.3396">portal</text><line style="stroke:#181818;stroke-width:1;" x1="1789" x2="1901.9176" y1="192.4416" y2="192.4416"/><text fill="#000000" font-family="sans-serif" font-size="14" lengthAdjust="spacing" textLength="27.2719" x="1794" y="209.4075">SAN</text><text fill="#000000" font-family="sans-serif" font-size="14" lengthAdjust="spacing" textLength="39.3819" x="1831.2719" y="209.4075">portal</text><rect fill="#F1F1F1" height="115.3396" rx="2.5" ry="2.5" style="stroke:#181818;stroke-width:0.5;" width="113.4836" x="1952.5" y="100.1699"/><text fill="#000000" font-family="sans-serif" font-size="14" lengthAdjust="spacing" textLength="99.4836" x="1959.5" y="117.1358">registry.harbor</text><line style="stroke:#181818;stroke-width:1;" x1="1989.7719" x2="1989.7719" y1="123.2378" y2="215.5095"/><line style="stroke:#181818;stroke-width:1;" x1="1952.5" x2="2065.9836" y1="123.2378" y2="123.2378"/><text fill="#000000" font-family="sans-serif" font-size="14" lengthAdjust="spacing" textLength="22.5119" x="1957.5" y="140.2038">key</text><text fill="#000000" font-family="sans-serif" font-size="14" lengthAdjust="spacing" textLength="65.6458" x="1994.7719" y="140.2038">portal.key</text><line style="stroke:#181818;stroke-width:1;" x1="1952.5" x2="2065.9836" y1="146.3057" y2="146.3057"/><text fill="#000000" font-family="sans-serif" font-size="14" lengthAdjust="spacing" textLength="17.5559" x="1957.5" y="163.2717">crt</text><text fill="#000000" font-family="sans-serif" font-size="14" lengthAdjust="spacing" textLength="60.6898" x="1994.7719" y="163.2717">portal.crt</text><line style="stroke:#181818;stroke-width:1;" x1="1952.5" x2="2065.9836" y1="169.3736" y2="169.3736"/><text fill="#000000" font-family="sans-serif" font-size="14" lengthAdjust="spacing" textLength="19.4879" x="1957.5" y="186.3396">CN</text><text fill="#000000" font-family="sans-serif" font-size="14" lengthAdjust="spacing" textLength="50.5818" x="1994.7719" y="186.3396">registry</text><line style="stroke:#181818;stroke-width:1;" x1="1952.5" x2="2065.9836" y1="192.4416" y2="192.4416"/><text fill="#000000" font-family="sans-serif" font-size="14" lengthAdjust="spacing" textLength="27.2719" x="1957.5" y="209.4075">SAN</text><text fill="#000000" font-family="sans-serif" font-size="14" lengthAdjust="spacing" textLength="50.5818" x="1994.7719" y="209.4075">registry</text><rect fill="#F1F1F1" height="115.3396" rx="2.5" ry="2.5" style="stroke:#181818;stroke-width:0.5;" width="128.8696" x="2117" y="100.1699"/><text fill="#000000" font-family="sans-serif" font-size="14" lengthAdjust="spacing" textLength="114.8696" x="2124" y="117.1358">registryctl.harbor</text><line style="stroke:#181818;stroke-width:1;" x1="2154.2719" x2="2154.2719" y1="123.2378" y2="215.5095"/><line style="stroke:#181818;stroke-width:1;" x1="2117" x2="2245.8696" y1="123.2378" y2="123.2378"/><text fill="#000000" font-family="sans-serif" font-size="14" lengthAdjust="spacing" textLength="22.5119" x="2122" y="140.2038">key</text><text fill="#000000" font-family="sans-serif" font-size="14" lengthAdjust="spacing" textLength="65.6458" x="2159.2719" y="140.2038">portal.key</text><line style="stroke:#181818;stroke-width:1;" x1="2117" x2="2245.8696" y1="146.3057" y2="146.3057"/><text fill="#000000" font-family="sans-serif" font-size="14" lengthAdjust="spacing" textLength="17.5559" x="2122" y="163.2717">crt</text><text fill="#000000" font-family="sans-serif" font-size="14" lengthAdjust="spacing" textLength="60.6898" x="2159.2719" y="163.2717">portal.crt</text><line style="stroke:#181818;stroke-width:1;" x1="2117" x2="2245.8696" y1="169.3736" y2="169.3736"/><text fill="#000000" font-family="sans-serif" font-size="14" lengthAdjust="spacing" textLength="19.4879" x="2122" y="186.3396">CN</text><text fill="#000000" font-family="sans-serif" font-size="14" lengthAdjust="spacing" textLength="65.9678" x="2159.2719" y="186.3396">registryctl</text><line style="stroke:#181818;stroke-width:1;" x1="2117" x2="2245.8696" y1="192.4416" y2="192.4416"/><text fill="#000000" font-family="sans-serif" font-size="14" lengthAdjust="spacing" textLength="27.2719" x="2122" y="209.4075">SAN</text><text fill="#000000" font-family="sans-serif" font-size="14" lengthAdjust="spacing" textLength="65.9678" x="2159.2719" y="209.4075">registryctl</text><rect fill="#F1F1F1" height="115.3396" rx="2.5" ry="2.5" style="stroke:#181818;stroke-width:0.5;" width="160.1115" x="2296" y="100.1699"/><text fill="#000000" font-family="sans-serif" font-size="14" lengthAdjust="spacing" textLength="135.4775" x="2308.317" y="117.1358">trivy_adapter.harbor</text><line style="stroke:#181818;stroke-width:1;" x1="2333.2719" x2="2333.2719" y1="123.2378" y2="215.5095"/><line style="stroke:#181818;stroke-width:1;" x1="2296" x2="2456.1115" y1="123.2378" y2="123.2378"/><text fill="#000000" font-family="sans-serif" font-size="14" lengthAdjust="spacing" textLength="22.5119" x="2301" y="140.2038">key</text><text fill="#000000" font-family="sans-serif" font-size="14" lengthAdjust="spacing" textLength="112.8396" x="2338.2719" y="140.2038">trivy_adapter.key</text><line style="stroke:#181818;stroke-width:1;" x1="2296" x2="2456.1115" y1="146.3057" y2="146.3057"/><text fill="#000000" font-family="sans-serif" font-size="14" lengthAdjust="spacing" textLength="17.5559" x="2301" y="163.2717">crt</text><text fill="#000000" font-family="sans-serif" font-size="14" lengthAdjust="spacing" textLength="107.8836" x="2338.2719" y="163.2717">trivy_adapter.crt</text><line style="stroke:#181818;stroke-width:1;" x1="2296" x2="2456.1115" y1="169.3736" y2="169.3736"/><text fill="#000000" font-family="sans-serif" font-size="14" lengthAdjust="spacing" textLength="19.4879" x="2301" y="186.3396">CN</text><text fill="#000000" font-family="sans-serif" font-size="14" lengthAdjust="spacing" textLength="84.8677" x="2338.2719" y="186.3396">trivy-adapter</text><line style="stroke:#181818;stroke-width:1;" x1="2296" x2="2456.1115" y1="192.4416" y2="192.4416"/><text fill="#000000" font-family="sans-serif" font-size="14" lengthAdjust="spacing" textLength="27.2719" x="2301" y="209.4075">SAN</text><text fill="#000000" font-family="sans-serif" font-size="14" lengthAdjust="spacing" textLength="84.8677" x="2338.2719" y="209.4075">trivy-adapter</text><rect fill="#F1F1F1" height="92.2717" rx="2.5" ry="2.5" style="stroke:#181818;stroke-width:0.5;" width="248.5392" x="2536" y="340.6699"/><text fill="#000000" font-family="sans-serif" font-size="14" lengthAdjust="spacing" textLength="68.6418" x="2625.9487" y="357.6358">temp_root</text><line style="stroke:#181818;stroke-width:1;" x1="2654.8916" x2="2654.8916" y1="363.7378" y2="432.9416"/><line style="stroke:#181818;stroke-width:1;" x1="2536" x2="2784.5392" y1="363.7378" y2="363.7378"/><text fill="#000000" font-family="sans-serif" font-size="14" lengthAdjust="spacing" textLength="17.5559" x="2541" y="380.7038">crt</text><text fill="#000000" font-family="sans-serif" font-size="14" lengthAdjust="spacing" textLength="98.9096" x="2659.8916" y="380.7038">./temp_root.crt</text><line style="stroke:#181818;stroke-width:1;" x1="2536" x2="2784.5392" y1="386.8057" y2="386.8057"/><text fill="#000000" font-family="sans-serif" font-size="14" lengthAdjust="spacing" textLength="108.8916" x="2541" y="403.7717">basicConstraints</text><line style="stroke:#181818;stroke-width:1;" x1="2747.1553" x2="2747.1553" y1="386.8057" y2="432.9416"/><line style="stroke:#181818;stroke-width:1;" x1="2654.8916" x2="2784.5392" y1="386.8057" y2="386.8057"/><text fill="#000000" font-family="sans-serif" font-size="14" lengthAdjust="spacing" textLength="28.1119" x="2659.8916" y="403.7717">isCA</text><text fill="#000000" font-family="sans-serif" font-size="14" lengthAdjust="spacing" textLength="27.3839" x="2752.1553" y="403.7717">true</text><line style="stroke:#181818;stroke-width:1;" x1="2654.8916" x2="2784.5392" y1="409.8736" y2="409.8736"/><text fill="#000000" font-family="sans-serif" font-size="14" lengthAdjust="spacing" textLength="82.2637" x="2659.8916" y="426.8396">maxPathLen</text><text fill="#000000" font-family="sans-serif" font-size="14" lengthAdjust="spacing" textLength="8.008" x="2752.1553" y="426.8396">3</text><rect fill="#F1F1F1" height="161.4754" rx="2.5" ry="2.5" style="stroke:#181818;stroke-width:0.5;" width="305.3789" x="2507.5" y="77.1699"/><text fill="#000000" font-family="sans-serif" font-size="14" lengthAdjust="spacing" textLength="80.9897" x="2619.6946" y="94.1358">temp_piv_ca</text><line style="stroke:#181818;stroke-width:1;" x1="2626.3916" x2="2626.3916" y1="100.2378" y2="238.6453"/><line style="stroke:#181818;stroke-width:1;" x1="2507.5" x2="2812.8789" y1="100.2378" y2="100.2378"/><text fill="#000000" font-family="sans-serif" font-size="14" lengthAdjust="spacing" textLength="22.5119" x="2512.5" y="117.2038">key</text><text fill="#000000" font-family="sans-serif" font-size="14" lengthAdjust="spacing" textLength="137.1294" x="2631.3916" y="117.2038">yubikey:&amp;slot-id=101</text><line style="stroke:#181818;stroke-width:1;" x1="2507.5" x2="2812.8789" y1="123.3057" y2="123.3057"/><text fill="#000000" font-family="sans-serif" font-size="14" lengthAdjust="spacing" textLength="17.5559" x="2512.5" y="140.2717">crt</text><text fill="#000000" font-family="sans-serif" font-size="14" lengthAdjust="spacing" textLength="111.2576" x="2631.3916" y="140.2717">./temp_piv_ca.crt</text><line style="stroke:#181818;stroke-width:1;" x1="2507.5" x2="2812.8789" y1="146.3736" y2="146.3736"/><text fill="#000000" font-family="sans-serif" font-size="14" lengthAdjust="spacing" textLength="108.8916" x="2512.5" y="163.3396">basicConstraints</text><line style="stroke:#181818;stroke-width:1;" x1="2718.6553" x2="2718.6553" y1="146.3736" y2="192.5095"/><line style="stroke:#181818;stroke-width:1;" x1="2626.3916" x2="2812.8789" y1="146.3736" y2="146.3736"/><text fill="#000000" font-family="sans-serif" font-size="14" lengthAdjust="spacing" textLength="28.1119" x="2631.3916" y="163.3396">isCA</text><text fill="#000000" font-family="sans-serif" font-size="14" lengthAdjust="spacing" textLength="27.3839" x="2723.6553" y="163.3396">true</text><line style="stroke:#181818;stroke-width:1;" x1="2626.3916" x2="2812.8789" y1="169.4416" y2="169.4416"/><text fill="#000000" font-family="sans-serif" font-size="14" lengthAdjust="spacing" textLength="82.2637" x="2631.3916" y="186.4075">maxPathLen</text><text fill="#000000" font-family="sans-serif" font-size="14" lengthAdjust="spacing" textLength="8.008" x="2723.6553" y="186.4075">1</text><line style="stroke:#181818;stroke-width:1;" x1="2507.5" x2="2812.8789" y1="192.5095" y2="192.5095"/><text fill="#000000" font-family="sans-serif" font-size="14" lengthAdjust="spacing" textLength="27.2719" x="2512.5" y="209.4754">kms</text><line style="stroke:#181818;stroke-width:1;" x1="2665.0915" x2="2665.0915" y1="192.5095" y2="238.6453"/><line style="stroke:#181818;stroke-width:1;" x1="2626.3916" x2="2812.8789" y1="192.5095" y2="192.5095"/><text fill="#000000" font-family="sans-serif" font-size="14" lengthAdjust="spacing" textLength="28.6999" x="2631.3916" y="209.4754">type</text><text fill="#000000" font-family="sans-serif" font-size="14" lengthAdjust="spacing" textLength="50.5258" x="2670.0915" y="209.4754">yubikey</text><line style="stroke:#181818;stroke-width:1;" x1="2626.3916" x2="2812.8789" y1="215.5774" y2="215.5774"/><text fill="#000000" font-family="sans-serif" font-size="14" lengthAdjust="spacing" textLength="18.0459" x="2631.3916" y="232.5433">uri</text><text fill="#000000" font-family="sans-serif" font-size="14" lengthAdjust="spacing" textLength="137.7874" x="2670.0915" y="232.5433">yubikey:serial654321</text><rect fill="#F1F1F1" height="92.2717" rx="2.5" ry="2.5" style="stroke:#181818;stroke-width:0.5;" width="251.3351" x="1542.5" y="695.1699"/><text fill="#FF0000" font-family="sans-serif" font-size="14" lengthAdjust="spacing" textLength="94.2477" x="1622.8637" y="712.1358">Homelab Root</text><line style="stroke:#181818;stroke-width:1;" x1="1661.3916" x2="1661.3916" y1="718.2378" y2="787.4416"/><line style="stroke:#181818;stroke-width:1;" x1="1542.5" x2="1793.8351" y1="718.2378" y2="718.2378"/><text fill="#000000" font-family="sans-serif" font-size="14" lengthAdjust="spacing" textLength="17.5559" x="1547.5" y="735.2038">crt</text><text fill="#000000" font-family="sans-serif" font-size="14" lengthAdjust="spacing" textLength="122.4435" x="1666.3916" y="735.2038">./homelab_root.crt</text><line style="stroke:#181818;stroke-width:1;" x1="1542.5" x2="1793.8351" y1="741.3057" y2="741.3057"/><text fill="#000000" font-family="sans-serif" font-size="14" lengthAdjust="spacing" textLength="108.8916" x="1547.5" y="758.2717">basicConstraints</text><line style="stroke:#181818;stroke-width:1;" x1="1753.6553" x2="1753.6553" y1="741.3057" y2="787.4416"/><line style="stroke:#181818;stroke-width:1;" x1="1661.3916" x2="1793.8351" y1="741.3057" y2="741.3057"/><text fill="#000000" font-family="sans-serif" font-size="14" lengthAdjust="spacing" textLength="28.1119" x="1666.3916" y="758.2717">isCA</text><text fill="#000000" font-family="sans-serif" font-size="14" lengthAdjust="spacing" textLength="27.3839" x="1758.6553" y="758.2717">true</text><line style="stroke:#181818;stroke-width:1;" x1="1661.3916" x2="1793.8351" y1="764.3736" y2="764.3736"/><text fill="#000000" font-family="sans-serif" font-size="14" lengthAdjust="spacing" textLength="82.2637" x="1666.3916" y="781.3396">maxPathLen</text><text fill="#000000" font-family="sans-serif" font-size="14" lengthAdjust="spacing" textLength="12.5159" x="1758.6553" y="781.3396">-1</text><rect fill="#F1F1F1" height="92.2717" rx="2.5" ry="2.5" style="stroke:#181818;stroke-width:0.5;" width="273.9171" x="1355.5" y="535.1699"/><text fill="#000000" font-family="sans-serif" font-size="14" lengthAdjust="spacing" textLength="78.9737" x="1452.9717" y="552.1358">homelab_ca</text><line style="stroke:#181818;stroke-width:1;" x1="1474.3916" x2="1474.3916" y1="558.2378" y2="627.4416"/><line style="stroke:#181818;stroke-width:1;" x1="1355.5" x2="1629.4171" y1="558.2378" y2="558.2378"/><text fill="#000000" font-family="sans-serif" font-size="14" lengthAdjust="spacing" textLength="17.5559" x="1360.5" y="575.2038">crt</text><text fill="#000000" font-family="sans-serif" font-size="14" lengthAdjust="spacing" textLength="145.0255" x="1479.3916" y="575.2038">./homelab_root+ca.crt</text><line style="stroke:#181818;stroke-width:1;" x1="1355.5" x2="1629.4171" y1="581.3057" y2="581.3057"/><text fill="#000000" font-family="sans-serif" font-size="14" lengthAdjust="spacing" textLength="108.8916" x="1360.5" y="598.2717">basicConstraints</text><line style="stroke:#181818;stroke-width:1;" x1="1566.6553" x2="1566.6553" y1="581.3057" y2="627.4416"/><line style="stroke:#181818;stroke-width:1;" x1="1474.3916" x2="1629.4171" y1="581.3057" y2="581.3057"/><text fill="#000000" font-family="sans-serif" font-size="14" lengthAdjust="spacing" textLength="28.1119" x="1479.3916" y="598.2717">isCA</text><text fill="#000000" font-family="sans-serif" font-size="14" lengthAdjust="spacing" textLength="27.3839" x="1571.6553" y="598.2717">true</text><line style="stroke:#181818;stroke-width:1;" x1="1474.3916" x2="1629.4171" y1="604.3736" y2="604.3736"/><text fill="#000000" font-family="sans-serif" font-size="14" lengthAdjust="spacing" textLength="82.2637" x="1479.3916" y="621.3396">maxPathLen</text><text fill="#000000" font-family="sans-serif" font-size="14" lengthAdjust="spacing" textLength="8.008" x="1571.6553" y="621.3396">3</text><rect fill="#F1F1F1" height="92.2717" rx="2.5" ry="2.5" style="stroke:#181818;stroke-width:0.5;" width="328.3768" x="1680" y="535.1699"/><text fill="#000000" font-family="sans-serif" font-size="14" lengthAdjust="spacing" textLength="110.8516" x="1788.7626" y="552.1358">homelab_cicd_ca</text><line style="stroke:#181818;stroke-width:1;" x1="1798.8916" x2="1798.8916" y1="558.2378" y2="627.4416"/><line style="stroke:#181818;stroke-width:1;" x1="1680" x2="2008.3768" y1="558.2378" y2="558.2378"/><text fill="#000000" font-family="sans-serif" font-size="14" lengthAdjust="spacing" textLength="17.5559" x="1685" y="575.2038">crt</text><text fill="#000000" font-family="sans-serif" font-size="14" lengthAdjust="spacing" textLength="199.4852" x="1803.8916" y="575.2038">./homelab_root+ca+cicd_ca.crt</text><line style="stroke:#181818;stroke-width:1;" x1="1680" x2="2008.3768" y1="581.3057" y2="581.3057"/><text fill="#000000" font-family="sans-serif" font-size="14" lengthAdjust="spacing" textLength="108.8916" x="1685" y="598.2717">basicConstraints</text><line style="stroke:#181818;stroke-width:1;" x1="1891.1553" x2="1891.1553" y1="581.3057" y2="627.4416"/><line style="stroke:#181818;stroke-width:1;" x1="1798.8916" x2="2008.3768" y1="581.3057" y2="581.3057"/><text fill="#000000" font-family="sans-serif" font-size="14" lengthAdjust="spacing" textLength="28.1119" x="1803.8916" y="598.2717">isCA</text><text fill="#000000" font-family="sans-serif" font-size="14" lengthAdjust="spacing" textLength="27.3839" x="1896.1553" y="598.2717">true</text><line style="stroke:#181818;stroke-width:1;" x1="1798.8916" x2="2008.3768" y1="604.3736" y2="604.3736"/><text fill="#000000" font-family="sans-serif" font-size="14" lengthAdjust="spacing" textLength="82.2637" x="1803.8916" y="621.3396">maxPathLen</text><text fill="#000000" font-family="sans-serif" font-size="14" lengthAdjust="spacing" textLength="8.008" x="1896.1553" y="621.3396">2</text><rect fill="#F1F1F1" height="161.4754" rx="2.5" ry="2.5" style="stroke:#181818;stroke-width:0.5;" width="337.4108" x="1322.5" y="306.1699"/><text fill="#000000" font-family="sans-serif" font-size="14" lengthAdjust="spacing" textLength="104.5236" x="1438.9436" y="323.1358">homelab_piv_ca</text><line style="stroke:#181818;stroke-width:1;" x1="1441.3916" x2="1441.3916" y1="329.2378" y2="467.6453"/><line style="stroke:#181818;stroke-width:1;" x1="1322.5" x2="1659.9108" y1="329.2378" y2="329.2378"/><text fill="#000000" font-family="sans-serif" font-size="14" lengthAdjust="spacing" textLength="22.5119" x="1327.5" y="346.2038">key</text><text fill="#000000" font-family="sans-serif" font-size="14" lengthAdjust="spacing" textLength="118.8735" x="1446.3916" y="346.2038">yubikey:slot-id=99</text><line style="stroke:#181818;stroke-width:1;" x1="1322.5" x2="1659.9108" y1="352.3057" y2="352.3057"/><text fill="#000000" font-family="sans-serif" font-size="14" lengthAdjust="spacing" textLength="17.5559" x="1327.5" y="369.2717">crt</text><text fill="#000000" font-family="sans-serif" font-size="14" lengthAdjust="spacing" textLength="193.1573" x="1446.3916" y="369.2717">./homelab_root+ca+piv_ca.crt</text><line style="stroke:#181818;stroke-width:1;" x1="1322.5" x2="1659.9108" y1="375.3736" y2="375.3736"/><text fill="#000000" font-family="sans-serif" font-size="14" lengthAdjust="spacing" textLength="27.2719" x="1327.5" y="392.3396">kms</text><line style="stroke:#181818;stroke-width:1;" x1="1480.0915" x2="1480.0915" y1="375.3736" y2="421.5095"/><line style="stroke:#181818;stroke-width:1;" x1="1441.3916" x2="1659.9108" y1="375.3736" y2="375.3736"/><text fill="#000000" font-family="sans-serif" font-size="14" lengthAdjust="spacing" textLength="28.6999" x="1446.3916" y="392.3396">type</text><text fill="#000000" font-family="sans-serif" font-size="14" lengthAdjust="spacing" textLength="50.5258" x="1485.0915" y="392.3396">yubikey</text><line style="stroke:#181818;stroke-width:1;" x1="1441.3916" x2="1659.9108" y1="398.4416" y2="398.4416"/><text fill="#000000" font-family="sans-serif" font-size="14" lengthAdjust="spacing" textLength="18.0459" x="1446.3916" y="415.4075">uri</text><text fill="#000000" font-family="sans-serif" font-size="14" lengthAdjust="spacing" textLength="169.8193" x="1485.0915" y="415.4075">yubikey:serial=123456789</text><line style="stroke:#181818;stroke-width:1;" x1="1322.5" x2="1659.9108" y1="421.5095" y2="421.5095"/><text fill="#000000" font-family="sans-serif" font-size="14" lengthAdjust="spacing" textLength="108.8916" x="1327.5" y="438.4754">basicConstraints</text><line style="stroke:#181818;stroke-width:1;" x1="1533.6553" x2="1533.6553" y1="421.5095" y2="467.6453"/><line style="stroke:#181818;stroke-width:1;" x1="1441.3916" x2="1659.9108" y1="421.5095" y2="421.5095"/><text fill="#000000" font-family="sans-serif" font-size="14" lengthAdjust="spacing" textLength="28.1119" x="1446.3916" y="438.4754">isCA</text><text fill="#000000" font-family="sans-serif" font-size="14" lengthAdjust="spacing" textLength="27.3839" x="1538.6553" y="438.4754">true</text><line style="stroke:#181818;stroke-width:1;" x1="1441.3916" x2="1659.9108" y1="444.5774" y2="444.5774"/><text fill="#000000" font-family="sans-serif" font-size="14" lengthAdjust="spacing" textLength="82.2637" x="1446.3916" y="461.5433">maxPathLen</text><text fill="#000000" font-family="sans-serif" font-size="14" lengthAdjust="spacing" textLength="8.008" x="1538.6553" y="461.5433">1</text><!--link ext_redis to ext_redis_root--><g class="link" data-entity-1="ext_redis" data-entity-2="ext_redis_root" data-source-line="76" data-uid="lnk13" id="link_ext_redis_ext_redis_root"><path codeLine="76" d="M289.22,157.6699 C301.05,157.6699 306.88,157.6699 318.7,157.6699" fill="none" id="ext_redis-to-ext_redis_root" style="stroke:#181818;stroke-width:1;"/><polygon fill="#181818" points="324.7,157.6699,315.7,153.6699,319.7,157.6699,315.7,161.6699,324.7,157.6699" style="stroke:#181818;stroke-width:1;"/></g><!--link ext_postgres to ext_postgres_root--><g class="link" data-entity-1="ext_postgres" data-entity-2="ext_postgres_root" data-source-line="92" data-uid="lnk17" id="link_ext_postgres_ext_postgres_root"><path codeLine="92" d="M923.79,157.6699 C935.63,157.6699 941.47,157.6699 953.31,157.6699" fill="none" id="ext_postgres-to-ext_postgres_root" style="stroke:#181818;stroke-width:1;"/><polygon fill="#181818" points="959.31,157.6699,950.31,153.6699,954.31,157.6699,950.31,161.6699,959.31,157.6699" style="stroke:#181818;stroke-width:1;"/></g><!--link core.harbor to harbor.solidstate.nomoneydown.cloud--><g class="link" data-entity-1="core.harbor" data-entity-2="harbor.solidstate.nomoneydown.cloud" data-source-line="95" data-uid="lnk18" id="link_core.harbor_harbor.solidstate.nomoneydown.cloud"><path codeLine="95" d="M1366.43,219.1199 C1377.57,232.7499 1390.9,245.7899 1406,254.6699 C1514.42,318.4399 1565.79,262.0299 1685,302.1699 C1711.43,311.0699 1733.5132,321.0702 1758.0032,333.9902" fill="none" id="core.harbor-to-harbor.solidstate.nomoneydown.cloud" style="stroke:#181818;stroke-width:1;"/><polygon fill="#181818" points="1763.31,336.7899,1757.2163,329.0526,1758.8877,334.4569,1753.4834,336.1283,1763.31,336.7899" style="stroke:#181818;stroke-width:1;"/></g><!--link job_service.harbor to harbor.solidstate.nomoneydown.cloud--><g class="link" data-entity-1="job_service.harbor" data-entity-2="harbor.solidstate.nomoneydown.cloud" data-source-line="96" data-uid="lnk19" id="link_job_service.harbor_harbor.solidstate.nomoneydown.cloud"><path codeLine="96" d="M1561.04,219.0999 C1574.23,231.5799 1588.62,244.1199 1603,254.6699 C1616.67,264.6999 1684.336,301.105 1746.606,334.035" fill="none" id="job_service.harbor-to-harbor.solidstate.nomoneydown.cloud" style="stroke:#181818;stroke-width:1;"/><polygon fill="#181818" points="1751.91,336.8399,1745.8239,329.0965,1747.49,334.5025,1742.084,336.1686,1751.91,336.8399" style="stroke:#181818;stroke-width:1;"/></g><!--link proxy.harbor to harbor.solidstate.nomoneydown.cloud--><g class="link" data-entity-1="proxy.harbor" data-entity-2="harbor.solidstate.nomoneydown.cloud" data-source-line="97" data-uid="lnk20" id="link_proxy.harbor_harbor.solidstate.nomoneydown.cloud"><path codeLine="97" d="M1725.99,218.9099 C1752.33,255.8099 1782.114,297.5564 1806.784,332.1164" fill="none" id="proxy.harbor-to-harbor.solidstate.nomoneydown.cloud" style="stroke:#181818;stroke-width:1;"/><polygon fill="#181818" points="1810.27,336.9999,1808.2967,327.3508,1807.365,332.9304,1801.7854,331.9987,1810.27,336.9999" style="stroke:#181818;stroke-width:1;"/></g><!--link portal.harbor to harbor.solidstate.nomoneydown.cloud--><g class="link" data-entity-1="portal.harbor" data-entity-2="harbor.solidstate.nomoneydown.cloud" data-source-line="98" data-uid="lnk21" id="link_portal.harbor_harbor.solidstate.nomoneydown.cloud"><path codeLine="98" d="M1845,218.9099 C1845,255.8099 1845,296.4399 1845,330.9999" fill="none" id="portal.harbor-to-harbor.solidstate.nomoneydown.cloud" style="stroke:#181818;stroke-width:1;"/><polygon fill="#181818" points="1845,336.9999,1849,327.9999,1845,331.9999,1841,327.9999,1845,336.9999" style="stroke:#181818;stroke-width:1;"/></g><!--link registry.harbor to harbor.solidstate.nomoneydown.cloud--><g class="link" data-entity-1="registry.harbor" data-entity-2="harbor.solidstate.nomoneydown.cloud" data-source-line="99" data-uid="lnk22" id="link_registry.harbor_harbor.solidstate.nomoneydown.cloud"><path codeLine="99" d="M1965.48,218.9099 C1938.82,255.8099 1908.6439,297.5765 1883.6739,332.1365" fill="none" id="registry.harbor-to-harbor.solidstate.nomoneydown.cloud" style="stroke:#181818;stroke-width:1;"/><polygon fill="#181818" points="1880.16,336.9999,1888.6731,332.0474,1883.0882,332.9471,1882.1885,327.3622,1880.16,336.9999" style="stroke:#181818;stroke-width:1;"/></g><!--link registryctl.harbor to harbor.solidstate.nomoneydown.cloud--><g class="link" data-entity-1="registryctl.harbor" data-entity-2="harbor.solidstate.nomoneydown.cloud" data-source-line="100" data-uid="lnk23" id="link_registryctl.harbor_harbor.solidstate.nomoneydown.cloud"><path codeLine="100" d="M2130.05,219.1599 C2117.96,231.6999 2104.6,244.2499 2091,254.6699 C2049.51,286.4399 2004.6087,312.041 1960.3587,334.121" fill="none" id="registryctl.harbor-to-harbor.solidstate.nomoneydown.cloud" style="stroke:#181818;stroke-width:1;"/><polygon fill="#181818" points="1954.99,336.7999,1964.8291,336.3607,1959.464,334.5675,1961.2572,329.2024,1954.99,336.7999" style="stroke:#181818;stroke-width:1;"/></g><!--link trivy_adapter.harbor to harbor.solidstate.nomoneydown.cloud--><g class="link" data-entity-1="trivy_adapter.harbor" data-entity-2="harbor.solidstate.nomoneydown.cloud" data-source-line="101" data-uid="lnk24" id="link_trivy_adapter.harbor_harbor.solidstate.nomoneydown.cloud"><path codeLine="101" d="M2319.12,218.9899 C2304.42,232.1299 2287.94,244.9799 2271,254.6699 C2182.84,305.0899 2078.939,336.8591 1992.929,357.1991" fill="none" id="trivy_adapter.harbor-to-harbor.solidstate.nomoneydown.cloud" style="stroke:#181818;stroke-width:1;"/><polygon fill="#181818" points="1987.09,358.5799,1996.769,360.4013,1991.9558,357.4292,1994.9279,352.616,1987.09,358.5799" style="stroke:#181818;stroke-width:1;"/></g><!--link temp_piv_ca to temp_root--><g class="link" data-entity-1="temp_piv_ca" data-entity-2="temp_root" data-source-line="124" data-uid="lnk27" id="link_temp_piv_ca_temp_root"><path codeLine="124" d="M2660,241.9099 C2660,273.7899 2660,303.1199 2660,330.7699" fill="none" id="temp_piv_ca-to-temp_root" style="stroke:#181818;stroke-width:1;"/><polygon fill="#181818" points="2660,336.7699,2664,327.7699,2660,331.7699,2656,327.7699,2660,336.7699" style="stroke:#181818;stroke-width:1;"/></g><!--link homelab_piv_ca to homelab_ca--><g class="link" data-entity-1="homelab_piv_ca" data-entity-2="homelab_ca" data-source-line="162" data-uid="lnk32" id="link_homelab_piv_ca_homelab_ca"><path codeLine="162" d="M1491.43,470.9799 C1491.54,491.6099 1491.6173,507.05 1491.7173,525.4" fill="none" id="homelab_piv_ca-to-homelab_ca" style="stroke:#181818;stroke-width:1;"/><polygon fill="#181818" points="1491.75,531.3999,1495.7009,522.3782,1491.7228,526.4,1487.701,522.4218,1491.75,531.3999" style="stroke:#181818;stroke-width:1;"/></g><!--link homelab_ca to homelab_root--><g class="link" data-entity-1="homelab_ca" data-entity-2="homelab_root" data-source-line="163" data-uid="lnk33" id="link_homelab_ca_homelab_root"><path codeLine="163" d="M1546.24,630.8599 C1567.65,650.0899 1587.7453,668.1216 1609.1653,687.3516" fill="none" id="homelab_ca-to-homelab_root" style="stroke:#181818;stroke-width:1;"/><polygon fill="#181818" points="1613.63,691.3599,1609.6051,682.371,1609.9094,688.0197,1604.2607,688.324,1613.63,691.3599" style="stroke:#181818;stroke-width:1;"/></g><!--link homelab_cicd_ca to homelab_root--><g class="link" data-entity-1="homelab_cicd_ca" data-entity-2="homelab_root" data-source-line="164" data-uid="lnk34" id="link_homelab_cicd_ca_homelab_root"><path codeLine="164" d="M1789.76,630.8599 C1768.35,650.0899 1748.2547,668.1216 1726.8347,687.3516" fill="none" id="homelab_cicd_ca-to-homelab_root" style="stroke:#181818;stroke-width:1;"/><polygon fill="#181818" points="1722.37,691.3599,1731.7393,688.324,1726.0906,688.0197,1726.3949,682.371,1722.37,691.3599" style="stroke:#181818;stroke-width:1;"/></g><!--link harbor.solidstate.nomoneydown.cloud to homelab_cicd_ca--><g class="link" data-entity-1="harbor.solidstate.nomoneydown.cloud" data-entity-2="homelab_cicd_ca" data-source-line="166" data-uid="lnk35" id="link_harbor.solidstate.nomoneydown.cloud_homelab_cicd_ca"><path codeLine="166" d="M1844.75,436.2499 C1844.6,465.3199 1844.443,496.15 1844.283,525.28" fill="none" id="harbor.solidstate.nomoneydown.cloud-to-homelab_cicd_ca" style="stroke:#181818;stroke-width:1;"/><polygon fill="#181818" points="1844.25,531.2799,1848.2994,522.302,1844.2775,526.28,1840.2995,522.2581,1844.25,531.2799" style="stroke:#181818;stroke-width:1;"/></g><!--SRC=[jLTDKzim4BtxLwW-D0UQX8IFbanXXg473ao70MuT9gFOmX78aaUI0K-7_rvPiXn9CObRqblOjxllhNQrCWFmgU0moo4Wi6Ab12974b8O3S308XnApC0a4a-O5f3372nWyfHnLj8qOOHn83caGa68IXMuylk17c19v1rwbUS4PnGGz22TF8NA0pDqXoL1hWEIWC8SgPG9kaMrhrGib54KBN6AG89vGfhVA2za1Hum8gbmBQgE9LEcIDRPmINa2vNZxkeMN33wWBDIbqLdO8naCbvgU2o966Cg4QUGH140Zu9HOB2HO0IdGaA9HfJbIakLiXSwIWWhK_1REGCGFw4gde7OHCnjfda2HpNonJWbNBxZL2EDKm7byWhHJ2wLxxwolKLQJC8u6fbGJMefjTsIM0fjj4dZYv_MPlw-FQyDlupbFce87jbYBX1_naadZmk7T2uMi2geGNnknzugA3XxhRgu3H2o6cl0fuq-bJ6jM1YNa7JI66IDnvX38cqDc8ojfU8emqBowiDaDf5FrrhN21D9TiQfSdNJra3BB3b-hkOmXOMQwYvkto6KuAE14WqE6z3NuaErcgXT8A0KBqZ8TowjLgtsqvoZ58lW7eUhGVkCEMEoupvlS7RkjJrKXOqQOGkSQML6bNMqfKr66vtZwKRyNcyE06obyNUziMSgvWpSr843SACaWelp642nEebvBVm_7iTAr-hmXsS1VsSVj-xXjgK54pBZQ5jNhLlVIdp_jTvQk6zxj_ch3cznsTZawoPslSysQvzMV_oC_8QthMbwxccfs-w-SqFbrECHZZgUhjwntgFJFyfxH7g7XG_2NmSwYxrtRETgxXtTh7VrRRKQ5zlyqRYrhtRs0WgSg4yj9HUgRnoX79iHmq8DuKmz5ILgXYY7hzVcUqVP3_IalBcC1NvMdqVUErAL2wn-pZuBmkGGfwUJ_Odtb3IYJEWEP4rgMJh5K-v4oQf0ZXvxBKgENPLgAZ4anqU71zD9REjpIwlRq1vYKxftZIzPZWXSw4kiR_3I6BgwuK8xg7muyJfYizk6TDBkxUJC3xg9SP9kPTzhl7QWOjgey4Hi64axaISdmK264iFP_EV1EfrC3mwFZhz-EudRAVtOeDU77fIgDqNR-yWP0nVHynjsQiqXwlC_bKTeCaL_0000]--></g></svg>