<?xml version="1.0" encoding="UTF-8" standalone="no"?>
<!DOCTYPE svg PUBLIC "-//W3C//DTD SVG 1.1//EN"
 "http://www.w3.org/Graphics/SVG/1.1/DTD/svg11.dtd">
<!-- Generated by graphviz version 12.2.1 (0)
 -->
<!-- Title: G Pages: 1 -->
<svg width="332pt" height="260pt"
 viewBox="0.00 0.00 331.82 260.00" xmlns="http://www.w3.org/2000/svg" xmlns:xlink="http://www.w3.org/1999/xlink">
<g id="graph0" class="graph" transform="scale(1 1) rotate(0) translate(4 256)">
<title>G</title>
<polygon fill="white" stroke="none" points="-4,4 -4,-256 327.82,-256 327.82,4 -4,4"/>
<!-- webapp -->
<g id="node1" class="node">
<title>webapp</title>
<ellipse fill="none" stroke="black" cx="107.78" cy="-90" rx="50.16" ry="18"/>
<text text-anchor="middle" x="107.78" y="-85.33" font-family="Times,serif" font-size="14.00">webapp</text>
</g>
<!-- postgres -->
<g id="node4" class="node">
<title>postgres</title>
<ellipse fill="none" stroke="black" cx="185.78" cy="-18" rx="54.89" ry="18"/>
<text text-anchor="middle" x="185.78" y="-13.32" font-family="Times,serif" font-size="14.00">postgres</text>
</g>
<!-- webapp&#45;&gt;postgres -->
<g id="edge1" class="edge">
<title>webapp&#45;&gt;postgres</title>
<path fill="none" stroke="black" d="M125.87,-72.76C135.74,-63.91 148.15,-52.77 159.11,-42.93"/>
<polygon fill="black" stroke="black" points="161.29,-45.68 166.39,-36.4 156.61,-40.47 161.29,-45.68"/>
</g>
<!-- redis -->
<g id="node5" class="node">
<title>redis</title>
<ellipse fill="none" stroke="black" cx="53.78" cy="-18" rx="36.48" ry="18"/>
<text text-anchor="middle" x="53.78" y="-13.32" font-family="Times,serif" font-size="14.00">redis</text>
</g>
<!-- webapp&#45;&gt;redis -->
<g id="edge2" class="edge">
<title>webapp&#45;&gt;redis</title>
<path fill="none" stroke="black" d="M94.98,-72.41C88.43,-63.92 80.32,-53.41 73.04,-43.96"/>
<polygon fill="black" stroke="black" points="75.92,-41.97 67.04,-36.19 70.37,-46.24 75.92,-41.97"/>
</g>
<!-- celeryWorker -->
<g id="node2" class="node">
<title>celeryWorker</title>
<ellipse fill="none" stroke="black" cx="245.78" cy="-162" rx="78.04" ry="18"/>
<text text-anchor="middle" x="245.78" y="-157.32" font-family="Times,serif" font-size="14.00">celeryWorker</text>
</g>
<!-- celeryWorker&#45;&gt;webapp -->
<g id="edge7" class="edge">
<title>celeryWorker&#45;&gt;webapp</title>
<path fill="none" stroke="black" d="M214.47,-145.12C194.1,-134.79 167.42,-121.25 145.83,-110.3"/>
<polygon fill="black" stroke="black" points="147.54,-107.25 137.04,-105.84 144.38,-113.49 147.54,-107.25"/>
</g>
<!-- celeryWorker&#45;&gt;postgres -->
<g id="edge3" class="edge">
<title>celeryWorker&#45;&gt;postgres</title>
<path fill="none" stroke="black" d="M247.56,-143.73C248.73,-125.13 248.45,-95.1 237.78,-72 232.71,-61.03 224.38,-50.99 215.86,-42.66"/>
<polygon fill="black" stroke="black" points="218.25,-40.11 208.5,-35.96 213.54,-45.28 218.25,-40.11"/>
</g>
<!-- celeryWorker&#45;&gt;redis -->
<g id="edge4" class="edge">
<title>celeryWorker&#45;&gt;redis</title>
<path fill="none" stroke="black" d="M234.05,-144.05C219.92,-124.61 194.58,-92.78 166.78,-72 144.55,-55.39 116.29,-42.14 93.59,-33.04"/>
<polygon fill="black" stroke="black" points="94.95,-29.81 84.36,-29.46 92.41,-36.34 94.95,-29.81"/>
</g>
<!-- celeryBeat -->
<g id="node3" class="node">
<title>celeryBeat</title>
<ellipse fill="none" stroke="black" cx="84.78" cy="-162" rx="64.89" ry="18"/>
<text text-anchor="middle" x="84.78" y="-157.32" font-family="Times,serif" font-size="14.00">celeryBeat</text>
</g>
<!-- celeryBeat&#45;&gt;webapp -->
<g id="edge8" class="edge">
<title>celeryBeat&#45;&gt;webapp</title>
<path fill="none" stroke="black" d="M90.47,-143.7C92.92,-136.24 95.85,-127.32 98.59,-118.97"/>
<polygon fill="black" stroke="black" points="101.89,-120.14 101.69,-109.54 95.24,-117.95 101.89,-120.14"/>
</g>
<!-- celeryBeat&#45;&gt;postgres -->
<g id="edge5" class="edge">
<title>celeryBeat&#45;&gt;postgres</title>
<path fill="none" stroke="black" d="M119.43,-146.42C136.18,-137.65 155.14,-124.89 166.78,-108 178.99,-90.29 183.59,-66.24 185.22,-47.6"/>
<polygon fill="black" stroke="black" points="188.7,-47.96 185.81,-37.77 181.71,-47.54 188.7,-47.96"/>
</g>
<!-- celeryBeat&#45;&gt;redis -->
<g id="edge6" class="edge">
<title>celeryBeat&#45;&gt;redis</title>
<path fill="none" stroke="black" d="M69.54,-144.24C61.68,-134.44 52.9,-121.4 48.78,-108 42.73,-88.32 44.32,-65.05 47.24,-47.24"/>
<polygon fill="black" stroke="black" points="50.64,-48.12 49.06,-37.64 43.76,-46.82 50.64,-48.12"/>
</g>
<!-- celeryPromExporter -->
<g id="node6" class="node">
<title>celeryPromExporter</title>
<ellipse fill="none" stroke="black" cx="118.78" cy="-234" rx="113.29" ry="18"/>
<text text-anchor="middle" x="118.78" y="-229.32" font-family="Times,serif" font-size="14.00">celeryPromExporter</text>
</g>
<!-- celeryPromExporter&#45;&gt;celeryWorker -->
<g id="edge9" class="edge">
<title>celeryPromExporter&#45;&gt;celeryWorker</title>
<path fill="none" stroke="black" d="M149.2,-216.23C166.41,-206.75 188.12,-194.78 206.6,-184.6"/>
<polygon fill="black" stroke="black" points="208.09,-187.77 215.16,-179.88 204.71,-181.64 208.09,-187.77"/>
</g>
<!-- celeryPromExporter&#45;&gt;redis -->
<g id="edge10" class="edge">
<title>celeryPromExporter&#45;&gt;redis</title>
<path fill="none" stroke="black" d="M60.79,-218.17C41.48,-210.17 22.05,-198.08 10.78,-180 -15.84,-137.28 13.59,-78.25 35.18,-44.82"/>
<polygon fill="black" stroke="black" points="38.05,-46.83 40.71,-36.57 32.23,-42.93 38.05,-46.83"/>
</g>
</g>
</svg>
