<?xml version="1.0" encoding="UTF-8" standalone="no"?>
<!DOCTYPE svg PUBLIC "-//W3C//DTD SVG 1.1//EN"
 "http://www.w3.org/Graphics/SVG/1.1/DTD/svg11.dtd">
<!-- Generated by graphviz version 12.2.1 (0)
 -->
<!-- Title: G Pages: 1 -->
<svg width="2484pt" height="98pt"
 viewBox="0.00 0.00 2483.97 98.05" xmlns="http://www.w3.org/2000/svg" xmlns:xlink="http://www.w3.org/1999/xlink">
<g id="graph0" class="graph" transform="scale(1 1) rotate(0) translate(4 94.05)">
<title>G</title>
<polygon fill="white" stroke="none" points="-4,4 -4,-94.05 2479.97,-94.05 2479.97,4 -4,4"/>
<!-- Start -->
<g id="node1" class="node">
<title>Start</title>
<polygon fill="none" stroke="black" points="84.1,-22.6 84.1,-37.51 60.64,-48.05 27.46,-48.05 4,-37.51 4,-22.6 27.46,-12.05 60.64,-12.05 84.1,-22.6"/>
<polygon fill="none" stroke="black" points="88.1,-20.01 88.1,-40.1 61.5,-52.05 26.6,-52.05 0,-40.1 0,-20.01 26.6,-8.05 61.5,-8.05 88.1,-20.01"/>
<text text-anchor="middle" x="44.05" y="-25.38" font-family="Times,serif" font-size="14.00">Start</text>
</g>
<!-- ProxyDHCP -->
<g id="node2" class="node">
<title>ProxyDHCP</title>
<ellipse fill="none" stroke="black" cx="311.69" cy="-30.05" rx="99.08" ry="18"/>
<text text-anchor="middle" x="311.69" y="-25.38" font-family="Times,serif" font-size="14.00">Offer ProxyDHCP</text>
</g>
<!-- Start&#45;&gt;ProxyDHCP -->
<g id="edge1" class="edge">
<title>Start&#45;&gt;ProxyDHCP</title>
<path fill="none" stroke="black" d="M88.32,-30.05C118.9,-30.05 161.32,-30.05 200.92,-30.05"/>
<polygon fill="black" stroke="black" points="200.76,-33.55 210.76,-30.05 200.76,-26.55 200.76,-33.55"/>
<text text-anchor="start" x="106.1" y="-34.1" font-family="Times,serif" font-size="11.00"> </text>
<text text-anchor="start" x="109.85" y="-34.1" font-family="Times,serif" font-style="italic" font-size="11.00">DHCP request</text>
<text text-anchor="start" x="190.85" y="-34.1" font-family="Times,serif" font-size="11.00"> </text>
</g>
<!-- PXE -->
<g id="node3" class="node">
<title>PXE</title>
<ellipse fill="none" stroke="black" cx="639.35" cy="-72.05" rx="119.08" ry="18"/>
<text text-anchor="middle" x="639.35" y="-67.38" font-family="Times,serif" font-size="14.00">Send PXE boot config</text>
</g>
<!-- ProxyDHCP&#45;&gt;PXE -->
<g id="edge2" class="edge">
<title>ProxyDHCP&#45;&gt;PXE</title>
<path fill="none" stroke="black" d="M393.61,-40.49C436.68,-46.04 490.09,-52.93 536.02,-58.85"/>
<polygon fill="black" stroke="black" points="535.35,-62.3 545.71,-60.1 536.24,-55.35 535.35,-62.3"/>
<text text-anchor="start" x="428.77" y="-66.12" font-family="Times,serif" font-size="11.00"> </text>
<text text-anchor="start" x="432.52" y="-66.12" font-family="Times,serif" font-style="italic" font-size="11.00">PXE request</text>
<text text-anchor="start" x="431.02" y="-55.12" font-family="Times,serif" font-style="italic" font-size="11.00">(UEFI only)</text>
<text text-anchor="start" x="496.27" y="-55.12" font-family="Times,serif" font-size="11.00"> </text>
</g>
<!-- TFTP -->
<g id="node4" class="node">
<title>TFTP</title>
<ellipse fill="none" stroke="black" cx="945.95" cy="-30.05" rx="67.53" ry="30.05"/>
<text text-anchor="start" x="906.2" y="-34" font-family="Times,serif" font-size="14.00"> Send iPXE</text>
<text text-anchor="start" x="919.7" y="-16.75" font-family="Times,serif" font-size="14.00">(TFTP) </text>
</g>
<!-- ProxyDHCP&#45;&gt;TFTP -->
<g id="edge3" class="edge">
<title>ProxyDHCP&#45;&gt;TFTP</title>
<path fill="none" stroke="black" d="M408.78,-26.14C443.86,-24.88 483.86,-23.67 520.27,-23.05 626.1,-21.27 652.6,-21.07 758.42,-23.05 794.23,-23.72 833.88,-25.12 867.38,-26.49"/>
<polygon fill="black" stroke="black" points="866.85,-29.97 876.98,-26.89 867.14,-22.98 866.85,-29.97"/>
<text text-anchor="start" x="599.22" y="-35.6" font-family="Times,serif" font-size="11.00"> </text>
<text text-anchor="start" x="602.97" y="-35.6" font-family="Times,serif" font-style="italic" font-size="11.00">TFTP request</text>
<text text-anchor="start" x="604.85" y="-24.6" font-family="Times,serif" font-style="italic" font-size="11.00">(BIOS only)</text>
<text text-anchor="start" x="670.1" y="-24.6" font-family="Times,serif" font-size="11.00"> </text>
</g>
<!-- PXE&#45;&gt;TFTP -->
<g id="edge4" class="edge">
<title>PXE&#45;&gt;TFTP</title>
<path fill="none" stroke="black" d="M728.86,-59.85C773.53,-53.69 827.13,-46.3 869.77,-40.42"/>
<polygon fill="black" stroke="black" points="870,-43.92 879.42,-39.09 869.04,-36.99 870,-43.92"/>
<text text-anchor="start" x="776.42" y="-56.36" font-family="Times,serif" font-size="11.00"> </text>
<text text-anchor="start" x="780.17" y="-56.36" font-family="Times,serif" font-style="italic" font-size="11.00">TFTP request</text>
<text text-anchor="start" x="856.67" y="-56.36" font-family="Times,serif" font-size="11.00"> </text>
</g>
<!-- ProxyDHCP_Ipxe -->
<g id="node5" class="node">
<title>ProxyDHCP_Ipxe</title>
<ellipse fill="none" stroke="black" cx="1237.29" cy="-30.05" rx="103.06" ry="30.05"/>
<text text-anchor="start" x="1172.42" y="-34" font-family="Times,serif" font-size="14.00"> Offer ProxyDHCP</text>
<text text-anchor="start" x="1203.17" y="-16.75" font-family="Times,serif" font-size="14.00">(to iPXE) </text>
</g>
<!-- TFTP&#45;&gt;ProxyDHCP_Ipxe -->
<g id="edge5" class="edge">
<title>TFTP&#45;&gt;ProxyDHCP_Ipxe</title>
<path fill="none" stroke="black" d="M1013.7,-30.05C1045.99,-30.05 1085.66,-30.05 1122.53,-30.05"/>
<polygon fill="black" stroke="black" points="1122.35,-33.55 1132.35,-30.05 1122.35,-26.55 1122.35,-33.55"/>
<text text-anchor="start" x="1031.48" y="-42.6" font-family="Times,serif" font-size="11.00"> </text>
<text text-anchor="start" x="1035.23" y="-42.6" font-family="Times,serif" font-style="italic" font-size="11.00">DHCP request</text>
<text text-anchor="start" x="1038.98" y="-31.6" font-family="Times,serif" font-style="italic" font-size="11.00">(from iPXE)</text>
<text text-anchor="start" x="1104.98" y="-31.6" font-family="Times,serif" font-size="11.00"> </text>
</g>
<!-- HTTP_Ipxe_Script -->
<g id="node6" class="node">
<title>HTTP_Ipxe_Script</title>
<ellipse fill="none" stroke="black" cx="1619.44" cy="-30.05" rx="125.33" ry="30.05"/>
<text text-anchor="start" x="1538.81" y="-34" font-family="Times,serif" font-size="14.00"> Send iPXE boot script</text>
<text text-anchor="start" x="1591.69" y="-16.75" font-family="Times,serif" font-size="14.00">(HTTP) </text>
</g>
<!-- ProxyDHCP_Ipxe&#45;&gt;HTTP_Ipxe_Script -->
<g id="edge6" class="edge">
<title>ProxyDHCP_Ipxe&#45;&gt;HTTP_Ipxe_Script</title>
<path fill="none" stroke="black" d="M1340.66,-30.05C1384.24,-30.05 1435.7,-30.05 1482.4,-30.05"/>
<polygon fill="black" stroke="black" points="1482.34,-33.55 1492.34,-30.05 1482.34,-26.55 1482.34,-33.55"/>
<text text-anchor="start" x="1358.35" y="-34.1" font-family="Times,serif" font-size="11.00"> </text>
<text text-anchor="start" x="1362.1" y="-34.1" font-family="Times,serif" font-style="italic" font-size="11.00">Request boot script</text>
<text text-anchor="start" x="1472.35" y="-34.1" font-family="Times,serif" font-size="11.00"> </text>
</g>
<!-- HTTP_Kernel -->
<g id="node7" class="node">
<title>HTTP_Kernel</title>
<ellipse fill="none" stroke="black" cx="1948.73" cy="-30.05" rx="74.95" ry="30.05"/>
<text text-anchor="start" x="1903.73" y="-34" font-family="Times,serif" font-size="14.00"> Send kernel</text>
<text text-anchor="start" x="1920.98" y="-16.75" font-family="Times,serif" font-size="14.00">(HTTP) </text>
</g>
<!-- HTTP_Ipxe_Script&#45;&gt;HTTP_Kernel -->
<g id="edge7" class="edge">
<title>HTTP_Ipxe_Script&#45;&gt;HTTP_Kernel</title>
<path fill="none" stroke="black" d="M1745.11,-30.05C1784.23,-30.05 1826.5,-30.05 1862.27,-30.05"/>
<polygon fill="black" stroke="black" points="1862.12,-33.55 1872.12,-30.05 1862.12,-26.55 1862.12,-33.55"/>
<text text-anchor="start" x="1762.77" y="-34.1" font-family="Times,serif" font-size="11.00"> </text>
<text text-anchor="start" x="1766.52" y="-34.1" font-family="Times,serif" font-style="italic" font-size="11.00">Request kernel</text>
<text text-anchor="start" x="1852.02" y="-34.1" font-family="Times,serif" font-size="11.00"> </text>
</g>
<!-- HTTP_Initrd -->
<g id="node8" class="node">
<title>HTTP_Initrd</title>
<ellipse fill="none" stroke="black" cx="2246.4" cy="-30.05" rx="83.97" ry="30.05"/>
<text text-anchor="start" x="2195.02" y="-34" font-family="Times,serif" font-size="14.00"> Send initrd(s)</text>
<text text-anchor="start" x="2218.65" y="-16.75" font-family="Times,serif" font-size="14.00">(HTTP) </text>
</g>
<!-- HTTP_Kernel&#45;&gt;HTTP_Initrd -->
<g id="edge8" class="edge">
<title>HTTP_Kernel&#45;&gt;HTTP_Initrd</title>
<path fill="none" stroke="black" d="M2023.95,-30.05C2062.34,-30.05 2109.62,-30.05 2150.62,-30.05"/>
<polygon fill="black" stroke="black" points="2150.49,-33.55 2160.49,-30.05 2150.49,-26.55 2150.49,-33.55"/>
<text text-anchor="start" x="2041.68" y="-34.1" font-family="Times,serif" font-size="11.00"> </text>
<text text-anchor="start" x="2045.43" y="-34.1" font-family="Times,serif" font-style="italic" font-size="11.00">Request initrd(s)</text>
<text text-anchor="start" x="2140.68" y="-34.1" font-family="Times,serif" font-size="11.00"> </text>
</g>
<!-- Booted -->
<g id="node9" class="node">
<title>Booted</title>
<polygon fill="none" stroke="black" points="2471.97,-22.6 2471.97,-37.51 2442.5,-48.05 2400.83,-48.05 2371.37,-37.51 2371.37,-22.6 2400.83,-12.05 2442.5,-12.05 2471.97,-22.6"/>
<polygon fill="none" stroke="black" points="2475.97,-19.78 2475.97,-40.32 2443.2,-52.05 2400.14,-52.05 2367.37,-40.32 2367.37,-19.78 2400.14,-8.05 2443.2,-8.05 2475.97,-19.78"/>
<text text-anchor="middle" x="2421.67" y="-25.38" font-family="Times,serif" font-size="14.00">Booted</text>
</g>
<!-- HTTP_Initrd&#45;&gt;Booted -->
<g id="edge9" class="edge">
<title>HTTP_Initrd&#45;&gt;Booted</title>
<path fill="none" stroke="black" d="M2330.73,-30.05C2339.1,-30.05 2347.51,-30.05 2355.65,-30.05"/>
<polygon fill="black" stroke="black" points="2355.42,-33.55 2365.42,-30.05 2355.42,-26.55 2355.42,-33.55"/>
</g>
</g>
</svg>
