<?xml version="1.0" encoding="UTF-8" standalone="no"?>
<!DOCTYPE svg PUBLIC "-//W3C//DTD SVG 1.1//EN"
 "http://www.w3.org/Graphics/SVG/1.1/DTD/svg11.dtd">
<!-- Generated by graphviz version 12.2.1 (0)
 -->
<!-- Title: G Pages: 1 -->
<svg width="632pt" height="1692pt"
 viewBox="0.00 0.00 631.94 1692.00" xmlns="http://www.w3.org/2000/svg" xmlns:xlink="http://www.w3.org/1999/xlink">
<g id="graph0" class="graph" transform="scale(1 1) rotate(0) translate(4 1688)">
<title>G</title>
<polygon fill="white" stroke="none" points="-4,4 -4,-1688 627.94,-1688 627.94,4 -4,4"/>
<!-- base64 -->
<g id="node1" class="node">
<title>base64</title>
<ellipse fill="none" stroke="black" cx="159.64" cy="-1558" rx="47" ry="18"/>
<text text-anchor="middle" x="159.64" y="-1553.33" font-family="Times,serif" font-size="14.00">base64</text>
</g>
<!-- ca -->
<g id="node2" class="node">
<title>ca</title>
<ellipse fill="none" stroke="black" cx="159.64" cy="-1504" rx="27" ry="18"/>
<text text-anchor="middle" x="159.64" y="-1499.33" font-family="Times,serif" font-size="14.00">ca</text>
</g>
<!-- certificate -->
<g id="node3" class="node">
<title>certificate</title>
<ellipse fill="none" stroke="black" cx="332.25" cy="-1396" rx="61.73" ry="18"/>
<text text-anchor="middle" x="332.25" y="-1391.33" font-family="Times,serif" font-size="14.00">certificate</text>
</g>
<!-- bundle -->
<g id="node11" class="node">
<title>bundle</title>
<ellipse fill="none" stroke="black" cx="540.11" cy="-1342" rx="45.42" ry="18"/>
<text text-anchor="middle" x="540.11" y="-1337.33" font-family="Times,serif" font-size="14.00">bundle</text>
</g>
<!-- certificate&#45;&gt;bundle -->
<g id="edge10" class="edge">
<title>certificate&#45;&gt;bundle</title>
<path fill="none" stroke="black" d="M379.19,-1383.95C412.3,-1375.26 456.9,-1363.56 490.59,-1354.73"/>
<polygon fill="black" stroke="black" points="491.31,-1358.16 500.1,-1352.23 489.54,-1351.39 491.31,-1358.16"/>
</g>
<!-- create -->
<g id="node12" class="node">
<title>create</title>
<ellipse fill="none" stroke="black" cx="540.11" cy="-1288" rx="42.79" ry="18"/>
<text text-anchor="middle" x="540.11" y="-1283.33" font-family="Times,serif" font-size="14.00">create</text>
</g>
<!-- certificate&#45;&gt;create -->
<g id="edge11" class="edge">
<title>certificate&#45;&gt;create</title>
<path fill="none" stroke="black" d="M380.07,-1384.39C393.88,-1379.54 408.45,-1372.9 420.28,-1364 441.88,-1347.76 434.39,-1330.84 456.28,-1315 466.13,-1307.88 477.95,-1302.57 489.54,-1298.64"/>
<polygon fill="black" stroke="black" points="490.53,-1301.99 499.06,-1295.71 488.47,-1295.3 490.53,-1301.99"/>
</g>
<!-- fingerprint -->
<g id="node13" class="node">
<title>fingerprint</title>
<ellipse fill="none" stroke="black" cx="540.11" cy="-1180" rx="65.41" ry="18"/>
<text text-anchor="middle" x="540.11" y="-1175.33" font-family="Times,serif" font-size="14.00">fingerprint</text>
</g>
<!-- certificate&#45;&gt;fingerprint -->
<g id="edge12" class="edge">
<title>certificate&#45;&gt;fingerprint</title>
<path fill="none" stroke="black" d="M384.86,-1386.32C398.01,-1381.58 411.03,-1374.51 420.28,-1364 467.59,-1310.27 407.98,-1259.84 456.28,-1207 461.11,-1201.73 466.97,-1197.48 473.33,-1194.06"/>
<polygon fill="black" stroke="black" points="474.63,-1197.31 482.26,-1189.97 471.72,-1190.95 474.63,-1197.31"/>
</g>
<!-- format -->
<g id="node14" class="node">
<title>format</title>
<ellipse fill="none" stroke="black" cx="540.11" cy="-1234" rx="44.89" ry="18"/>
<text text-anchor="middle" x="540.11" y="-1229.33" font-family="Times,serif" font-size="14.00">format</text>
</g>
<!-- certificate&#45;&gt;format -->
<g id="edge13" class="edge">
<title>certificate&#45;&gt;format</title>
<path fill="none" stroke="black" d="M383.66,-1385.79C396.96,-1381.03 410.35,-1374.1 420.28,-1364 454.3,-1329.44 421.63,-1294.93 456.28,-1261 464.55,-1252.91 475.27,-1247.24 486.25,-1243.27"/>
<polygon fill="black" stroke="black" points="487.28,-1246.61 495.78,-1240.29 485.19,-1239.93 487.28,-1246.61"/>
</g>
<!-- inspect -->
<g id="node15" class="node">
<title>inspect</title>
<ellipse fill="none" stroke="black" cx="540.11" cy="-788" rx="47.53" ry="18"/>
<text text-anchor="middle" x="540.11" y="-783.33" font-family="Times,serif" font-size="14.00">inspect</text>
</g>
<!-- certificate&#45;&gt;inspect -->
<g id="edge14" class="edge">
<title>certificate&#45;&gt;inspect</title>
<path fill="none" stroke="black" d="M365.52,-1380.44C384.73,-1369.41 407.73,-1352.71 420.28,-1331 487.72,-1214.36 426.3,-1161.35 456.28,-1030 474.33,-950.94 508.77,-861.54 527.04,-816.77"/>
<polygon fill="black" stroke="black" points="530.27,-818.11 530.85,-807.53 523.8,-815.45 530.27,-818.11"/>
</g>
<!-- install -->
<g id="node16" class="node">
<title>install</title>
<ellipse fill="none" stroke="black" cx="540.11" cy="-1666" rx="42.26" ry="18"/>
<text text-anchor="middle" x="540.11" y="-1661.33" font-family="Times,serif" font-size="14.00">install</text>
</g>
<!-- certificate&#45;&gt;install -->
<g id="edge15" class="edge">
<title>certificate&#45;&gt;install</title>
<path fill="none" stroke="black" d="M388.75,-1403.37C400.63,-1407.41 412.07,-1413.58 420.28,-1423 484.28,-1496.32 392.82,-1565.22 456.28,-1639 464.44,-1648.48 475.97,-1654.65 487.84,-1658.67"/>
<polygon fill="black" stroke="black" points="486.72,-1661.99 497.3,-1661.36 488.64,-1655.26 486.72,-1661.99"/>
</g>
<!-- key -->
<g id="node17" class="node">
<title>key</title>
<ellipse fill="none" stroke="black" cx="540.11" cy="-669" rx="28.59" ry="18"/>
<text text-anchor="middle" x="540.11" y="-664.33" font-family="Times,serif" font-size="14.00">key</text>
</g>
<!-- certificate&#45;&gt;key -->
<g id="edge16" class="edge">
<title>certificate&#45;&gt;key</title>
<path fill="none" stroke="black" d="M365.95,-1380.68C385.32,-1369.74 408.34,-1353.06 420.28,-1331 480.71,-1219.39 407.09,-878 456.28,-761 468.29,-732.44 493.05,-706.87 512.38,-689.98"/>
<polygon fill="black" stroke="black" points="514.54,-692.73 519.93,-683.61 510.03,-687.38 514.54,-692.73"/>
</g>
<!-- lint -->
<g id="node18" class="node">
<title>lint</title>
<ellipse fill="none" stroke="black" cx="540.11" cy="-1612" rx="28.06" ry="18"/>
<text text-anchor="middle" x="540.11" y="-1607.33" font-family="Times,serif" font-size="14.00">lint</text>
</g>
<!-- certificate&#45;&gt;lint -->
<g id="edge17" class="edge">
<title>certificate&#45;&gt;lint</title>
<path fill="none" stroke="black" d="M388.39,-1403.69C400.29,-1407.72 411.82,-1413.81 420.28,-1423 470.25,-1477.25 406.71,-1530.39 456.28,-1585 467.66,-1597.52 484.9,-1604.26 500.72,-1607.87"/>
<polygon fill="black" stroke="black" points="499.91,-1611.28 510.39,-1609.71 501.22,-1604.4 499.91,-1611.28"/>
</g>
<!-- needs&#45;renewal -->
<g id="node19" class="node">
<title>needs&#45;renewal</title>
<ellipse fill="none" stroke="black" cx="540.11" cy="-1057" rx="83.83" ry="18"/>
<text text-anchor="middle" x="540.11" y="-1052.33" font-family="Times,serif" font-size="14.00">needs&#45;renewal</text>
</g>
<!-- certificate&#45;&gt;needs&#45;renewal -->
<g id="edge18" class="edge">
<title>certificate&#45;&gt;needs&#45;renewal</title>
<path fill="none" stroke="black" d="M364.5,-1380.33C383.55,-1369.16 406.77,-1352.35 420.28,-1331 463.46,-1262.81 420.76,-1225.48 456.28,-1153 469.56,-1125.92 492.35,-1100.32 510.67,-1082.39"/>
<polygon fill="black" stroke="black" points="512.81,-1085.18 517.63,-1075.75 507.97,-1080.12 512.81,-1085.18"/>
</g>
<!-- p12 -->
<g id="node20" class="node">
<title>p12</title>
<ellipse fill="none" stroke="black" cx="540.11" cy="-1558" rx="30.16" ry="18"/>
<text text-anchor="middle" x="540.11" y="-1553.33" font-family="Times,serif" font-size="14.00">p12</text>
</g>
<!-- certificate&#45;&gt;p12 -->
<g id="edge19" class="edge">
<title>certificate&#45;&gt;p12</title>
<path fill="none" stroke="black" d="M387.73,-1404.33C399.65,-1408.34 411.35,-1414.26 420.28,-1423 456.43,-1458.4 420.39,-1495.34 456.28,-1531 467.66,-1542.3 483.81,-1548.87 498.83,-1552.69"/>
<polygon fill="black" stroke="black" points="498.01,-1556.09 508.53,-1554.79 499.49,-1549.25 498.01,-1556.09"/>
</g>
<!-- sign -->
<g id="node21" class="node">
<title>sign</title>
<ellipse fill="none" stroke="black" cx="540.11" cy="-1504" rx="32.27" ry="18"/>
<text text-anchor="middle" x="540.11" y="-1499.33" font-family="Times,serif" font-size="14.00">sign</text>
</g>
<!-- certificate&#45;&gt;sign -->
<g id="edge20" class="edge">
<title>certificate&#45;&gt;sign</title>
<path fill="none" stroke="black" d="M384.81,-1405.7C397.23,-1409.67 409.89,-1415.23 420.28,-1423 443.39,-1440.27 433.3,-1459.57 456.28,-1477 468.36,-1486.16 483.67,-1492.29 497.84,-1496.35"/>
<polygon fill="black" stroke="black" points="496.85,-1499.71 507.4,-1498.81 498.59,-1492.93 496.85,-1499.71"/>
</g>
<!-- uninstall -->
<g id="node22" class="node">
<title>uninstall</title>
<ellipse fill="none" stroke="black" cx="540.11" cy="-1450" rx="54.89" ry="18"/>
<text text-anchor="middle" x="540.11" y="-1445.33" font-family="Times,serif" font-size="14.00">uninstall</text>
</g>
<!-- certificate&#45;&gt;uninstall -->
<g id="edge21" class="edge">
<title>certificate&#45;&gt;uninstall</title>
<path fill="none" stroke="black" d="M379.19,-1408.05C410.71,-1416.32 452.63,-1427.31 485.64,-1435.97"/>
<polygon fill="black" stroke="black" points="484.44,-1439.28 495,-1438.43 486.22,-1432.51 484.44,-1439.28"/>
</g>
<!-- verify -->
<g id="node23" class="node">
<title>verify</title>
<ellipse fill="none" stroke="black" cx="540.11" cy="-1396" rx="40.16" ry="18"/>
<text text-anchor="middle" x="540.11" y="-1391.33" font-family="Times,serif" font-size="14.00">verify</text>
</g>
<!-- certificate&#45;&gt;verify -->
<g id="edge22" class="edge">
<title>certificate&#45;&gt;verify</title>
<path fill="none" stroke="black" d="M394.46,-1396C424.35,-1396 459.9,-1396 488.28,-1396"/>
<polygon fill="black" stroke="black" points="488.05,-1399.5 498.05,-1396 488.05,-1392.5 488.05,-1399.5"/>
</g>
<!-- context -->
<g id="node4" class="node">
<title>context</title>
<ellipse fill="none" stroke="black" cx="159.64" cy="-1450" rx="48.58" ry="18"/>
<text text-anchor="middle" x="159.64" y="-1445.33" font-family="Times,serif" font-size="14.00">context</text>
</g>
<!-- current -->
<g id="node24" class="node">
<title>current</title>
<ellipse fill="none" stroke="black" cx="332.25" cy="-1612" rx="48.58" ry="18"/>
<text text-anchor="middle" x="332.25" y="-1607.33" font-family="Times,serif" font-size="14.00">current</text>
</g>
<!-- context&#45;&gt;current -->
<g id="edge23" class="edge">
<title>context&#45;&gt;current</title>
<path fill="none" stroke="black" d="M192.31,-1463.61C198.21,-1467.27 203.87,-1471.72 208.21,-1477 240.35,-1516.08 208.06,-1549.6 244.21,-1585 252.69,-1593.3 263.68,-1599.06 274.97,-1603.05"/>
<polygon fill="black" stroke="black" points="273.79,-1606.35 284.37,-1605.91 275.83,-1599.65 273.79,-1606.35"/>
</g>
<!-- list -->
<g id="node25" class="node">
<title>list</title>
<ellipse fill="none" stroke="black" cx="332.25" cy="-1450" rx="27.01" ry="18"/>
<text text-anchor="middle" x="332.25" y="-1445.33" font-family="Times,serif" font-size="14.00">list</text>
</g>
<!-- context&#45;&gt;list -->
<g id="edge24" class="edge">
<title>context&#45;&gt;list</title>
<path fill="none" stroke="black" d="M208.62,-1450C235.5,-1450 268.55,-1450 293.56,-1450"/>
<polygon fill="black" stroke="black" points="293.27,-1453.5 303.27,-1450 293.27,-1446.5 293.27,-1453.5"/>
</g>
<!-- remove -->
<g id="node26" class="node">
<title>remove</title>
<ellipse fill="none" stroke="black" cx="332.25" cy="-1558" rx="48.58" ry="18"/>
<text text-anchor="middle" x="332.25" y="-1553.33" font-family="Times,serif" font-size="14.00">remove</text>
</g>
<!-- context&#45;&gt;remove -->
<g id="edge25" class="edge">
<title>context&#45;&gt;remove</title>
<path fill="none" stroke="black" d="M190.78,-1464.28C196.92,-1467.94 203.07,-1472.21 208.21,-1477 229.33,-1496.65 221.11,-1513.73 244.21,-1531 253.72,-1538.11 265.13,-1543.37 276.51,-1547.25"/>
<polygon fill="black" stroke="black" points="275.32,-1550.55 285.9,-1550.13 277.37,-1543.85 275.32,-1550.55"/>
</g>
<!-- select -->
<g id="node27" class="node">
<title>select</title>
<ellipse fill="none" stroke="black" cx="332.25" cy="-1504" rx="40.69" ry="18"/>
<text text-anchor="middle" x="332.25" y="-1499.33" font-family="Times,serif" font-size="14.00">select</text>
</g>
<!-- context&#45;&gt;select -->
<g id="edge26" class="edge">
<title>context&#45;&gt;select</title>
<path fill="none" stroke="black" d="M196.81,-1461.79C211.51,-1466.55 228.66,-1472.08 244.21,-1477 258.26,-1481.45 273.6,-1486.23 287.44,-1490.52"/>
<polygon fill="black" stroke="black" points="286.12,-1493.78 296.71,-1493.39 288.19,-1487.09 286.12,-1493.78"/>
</g>
<!-- crl -->
<g id="node5" class="node">
<title>crl</title>
<ellipse fill="none" stroke="black" cx="159.64" cy="-919" rx="27" ry="18"/>
<text text-anchor="middle" x="159.64" y="-914.33" font-family="Times,serif" font-size="14.00">crl</text>
</g>
<!-- crl&#45;&gt;inspect -->
<g id="edge27" class="edge">
<title>crl&#45;&gt;inspect</title>
<path fill="none" stroke="black" d="M164.77,-901.07C173.29,-868.81 196.16,-801.77 244.21,-774 322.76,-728.61 433.65,-752.67 494.62,-771.85"/>
<polygon fill="black" stroke="black" points="493.37,-775.13 503.97,-774.89 495.54,-768.47 493.37,-775.13"/>
</g>
<!-- crypto -->
<g id="node6" class="node">
<title>crypto</title>
<ellipse fill="none" stroke="black" cx="159.64" cy="-450" rx="43.32" ry="18"/>
<text text-anchor="middle" x="159.64" y="-445.32" font-family="Times,serif" font-size="14.00">crypto</text>
</g>
<!-- crypto&#45;&gt;key -->
<g id="edge28" class="edge">
<title>crypto&#45;&gt;key</title>
<path fill="none" stroke="black" d="M166.57,-468.13C177.18,-497.57 202.32,-555.44 244.21,-585 309.62,-631.16 343.59,-600.03 420.28,-623 449.74,-631.82 482.24,-644.62 505.79,-654.48"/>
<polygon fill="black" stroke="black" points="504.29,-657.65 514.87,-658.33 507.02,-651.2 504.29,-657.65"/>
</g>
<!-- change&#45;pass -->
<g id="node28" class="node">
<title>change&#45;pass</title>
<ellipse fill="none" stroke="black" cx="332.25" cy="-558" rx="72.78" ry="18"/>
<text text-anchor="middle" x="332.25" y="-553.33" font-family="Times,serif" font-size="14.00">change&#45;pass</text>
</g>
<!-- crypto&#45;&gt;change&#45;pass -->
<g id="edge29" class="edge">
<title>crypto&#45;&gt;change&#45;pass</title>
<path fill="none" stroke="black" d="M174.22,-467.32C189.43,-485.61 215.71,-514.1 244.21,-531 251.4,-535.26 259.34,-538.92 267.39,-542.03"/>
<polygon fill="black" stroke="black" points="265.99,-545.25 276.58,-545.31 268.34,-538.66 265.99,-545.25"/>
</g>
<!-- hash -->
<g id="node29" class="node">
<title>hash</title>
<ellipse fill="none" stroke="black" cx="332.25" cy="-504" rx="34.9" ry="18"/>
<text text-anchor="middle" x="332.25" y="-499.32" font-family="Times,serif" font-size="14.00">hash</text>
</g>
<!-- crypto&#45;&gt;hash -->
<g id="edge30" class="edge">
<title>crypto&#45;&gt;hash</title>
<path fill="none" stroke="black" d="M194.36,-460.99C209.58,-465.93 227.79,-471.8 244.21,-477 259.48,-481.83 276.28,-487.06 291.01,-491.62"/>
<polygon fill="black" stroke="black" points="289.78,-494.91 300.37,-494.52 291.85,-488.22 289.78,-494.91"/>
</g>
<!-- jose -->
<g id="node30" class="node">
<title>jose</title>
<ellipse fill="none" stroke="black" cx="332.25" cy="-450" rx="31.22" ry="18"/>
<text text-anchor="middle" x="332.25" y="-445.32" font-family="Times,serif" font-size="14.00">jose</text>
</g>
<!-- crypto&#45;&gt;jose -->
<g id="edge31" class="edge">
<title>crypto&#45;&gt;jose</title>
<path fill="none" stroke="black" d="M203.25,-450C229.53,-450 263.08,-450 289.25,-450"/>
<polygon fill="black" stroke="black" points="289.18,-453.5 299.18,-450 289.18,-446.5 289.18,-453.5"/>
</g>
<!-- jwe -->
<g id="node31" class="node">
<title>jwe</title>
<ellipse fill="none" stroke="black" cx="332.25" cy="-396" rx="28.59" ry="18"/>
<text text-anchor="middle" x="332.25" y="-391.32" font-family="Times,serif" font-size="14.00">jwe</text>
</g>
<!-- crypto&#45;&gt;jwe -->
<g id="edge32" class="edge">
<title>crypto&#45;&gt;jwe</title>
<path fill="none" stroke="black" d="M194.36,-439.01C209.58,-434.07 227.79,-428.2 244.21,-423 260.96,-417.7 279.56,-411.91 295.25,-407.07"/>
<polygon fill="black" stroke="black" points="296.12,-410.46 304.64,-404.17 294.05,-403.77 296.12,-410.46"/>
</g>
<!-- jwk -->
<g id="node32" class="node">
<title>jwk</title>
<ellipse fill="none" stroke="black" cx="332.25" cy="-342" rx="28.59" ry="18"/>
<text text-anchor="middle" x="332.25" y="-337.32" font-family="Times,serif" font-size="14.00">jwk</text>
</g>
<!-- crypto&#45;&gt;jwk -->
<g id="edge33" class="edge">
<title>crypto&#45;&gt;jwk</title>
<path fill="none" stroke="black" d="M189.29,-436.6C195.92,-432.75 202.65,-428.18 208.21,-423 229.33,-403.35 221.11,-386.27 244.21,-369 258.42,-358.38 276.88,-351.88 293.14,-347.94"/>
<polygon fill="black" stroke="black" points="293.46,-351.45 302.49,-345.91 291.97,-344.61 293.46,-351.45"/>
</g>
<!-- jws -->
<g id="node33" class="node">
<title>jws</title>
<ellipse fill="none" stroke="black" cx="332.25" cy="-288" rx="28.06" ry="18"/>
<text text-anchor="middle" x="332.25" y="-283.32" font-family="Times,serif" font-size="14.00">jws</text>
</g>
<!-- crypto&#45;&gt;jws -->
<g id="edge34" class="edge">
<title>crypto&#45;&gt;jws</title>
<path fill="none" stroke="black" d="M190.83,-437.29C197.25,-433.46 203.51,-428.72 208.21,-423 240.35,-383.92 208.06,-350.4 244.21,-315 257.16,-302.32 275.95,-295.58 292.76,-292.01"/>
<polygon fill="black" stroke="black" points="293.27,-295.47 302.5,-290.27 292.04,-288.58 293.27,-295.47"/>
</g>
<!-- jwt -->
<g id="node34" class="node">
<title>jwt</title>
<ellipse fill="none" stroke="black" cx="332.25" cy="-234" rx="27.01" ry="18"/>
<text text-anchor="middle" x="332.25" y="-229.32" font-family="Times,serif" font-size="14.00">jwt</text>
</g>
<!-- crypto&#45;&gt;jwt -->
<g id="edge35" class="edge">
<title>crypto&#45;&gt;jwt</title>
<path fill="none" stroke="black" d="M191.27,-437.63C197.67,-433.79 203.81,-428.96 208.21,-423 252.06,-363.69 194.24,-315.25 244.21,-261 256.96,-247.16 276.65,-240.35 294.08,-237.03"/>
<polygon fill="black" stroke="black" points="294.28,-240.54 303.62,-235.54 293.2,-233.62 294.28,-240.54"/>
</g>
<!-- kdf -->
<g id="node35" class="node">
<title>kdf</title>
<ellipse fill="none" stroke="black" cx="332.25" cy="-180" rx="27.01" ry="18"/>
<text text-anchor="middle" x="332.25" y="-175.32" font-family="Times,serif" font-size="14.00">kdf</text>
</g>
<!-- crypto&#45;&gt;kdf -->
<g id="edge36" class="edge">
<title>crypto&#45;&gt;kdf</title>
<path fill="none" stroke="black" d="M191.5,-437.8C197.9,-433.95 203.97,-429.07 208.21,-423 263.96,-343.22 180.22,-280.32 244.21,-207 256.59,-192.82 276.25,-185.99 293.76,-182.74"/>
<polygon fill="black" stroke="black" points="293.99,-186.24 303.36,-181.3 292.95,-179.32 293.99,-186.24"/>
</g>
<!-- keypair -->
<g id="node36" class="node">
<title>keypair</title>
<ellipse fill="none" stroke="black" cx="332.25" cy="-126" rx="48.58" ry="18"/>
<text text-anchor="middle" x="332.25" y="-121.33" font-family="Times,serif" font-size="14.00">keypair</text>
</g>
<!-- crypto&#45;&gt;keypair -->
<g id="edge37" class="edge">
<title>crypto&#45;&gt;keypair</title>
<path fill="none" stroke="black" d="M192.14,-437.6C198.34,-433.79 204.18,-428.98 208.21,-423 275.93,-322.65 166.11,-245.49 244.21,-153 251.95,-143.84 262.73,-137.74 274.08,-133.68"/>
<polygon fill="black" stroke="black" points="275.03,-137.05 283.6,-130.83 273.02,-130.35 275.03,-137.05"/>
</g>
<!-- nacl -->
<g id="node37" class="node">
<title>nacl</title>
<ellipse fill="none" stroke="black" cx="332.25" cy="-72" rx="31.74" ry="18"/>
<text text-anchor="middle" x="332.25" y="-67.33" font-family="Times,serif" font-size="14.00">nacl</text>
</g>
<!-- crypto&#45;&gt;nacl -->
<g id="edge38" class="edge">
<title>crypto&#45;&gt;nacl</title>
<path fill="none" stroke="black" d="M192.23,-437.67C198.44,-433.86 204.24,-429.03 208.21,-423 287.93,-302.02 151.95,-210.71 244.21,-99 255.26,-85.62 272.82,-78.75 289.28,-75.27"/>
<polygon fill="black" stroke="black" points="289.66,-78.75 298.92,-73.61 288.47,-71.85 289.66,-78.75"/>
</g>
<!-- otp -->
<g id="node38" class="node">
<title>otp</title>
<ellipse fill="none" stroke="black" cx="332.25" cy="-18" rx="27.53" ry="18"/>
<text text-anchor="middle" x="332.25" y="-13.32" font-family="Times,serif" font-size="14.00">otp</text>
</g>
<!-- crypto&#45;&gt;otp -->
<g id="edge39" class="edge">
<title>crypto&#45;&gt;otp</title>
<path fill="none" stroke="black" d="M192.3,-437.71C198.5,-433.9 204.29,-429.06 208.21,-423 254.09,-352.18 190.99,-110.48 244.21,-45 256.08,-30.4 275.71,-23.54 293.33,-20.37"/>
<polygon fill="black" stroke="black" points="293.6,-23.87 303.01,-19 292.62,-16.94 293.6,-23.87"/>
</g>
<!-- rand -->
<g id="node39" class="node">
<title>rand</title>
<ellipse fill="none" stroke="black" cx="332.25" cy="-704" rx="34.37" ry="18"/>
<text text-anchor="middle" x="332.25" y="-699.33" font-family="Times,serif" font-size="14.00">rand</text>
</g>
<!-- crypto&#45;&gt;rand -->
<g id="edge40" class="edge">
<title>crypto&#45;&gt;rand</title>
<path fill="none" stroke="black" d="M162.01,-468.24C166.22,-511.03 182.69,-618.59 244.21,-677 255.94,-688.13 272.17,-694.68 287.45,-698.53"/>
<polygon fill="black" stroke="black" points="286.33,-701.87 296.84,-700.56 287.81,-695.02 286.33,-701.87"/>
</g>
<!-- winpe -->
<g id="node40" class="node">
<title>winpe</title>
<ellipse fill="none" stroke="black" cx="332.25" cy="-650" rx="41.21" ry="18"/>
<text text-anchor="middle" x="332.25" y="-645.33" font-family="Times,serif" font-size="14.00">winpe</text>
</g>
<!-- crypto&#45;&gt;winpe -->
<g id="edge41" class="edge">
<title>crypto&#45;&gt;winpe</title>
<path fill="none" stroke="black" d="M164.89,-468.16C173.79,-502.24 197.51,-576.15 244.21,-618 255.19,-627.84 269.44,-634.73 283.22,-639.53"/>
<polygon fill="black" stroke="black" points="282.07,-642.83 292.66,-642.49 284.17,-636.15 282.07,-642.83"/>
</g>
<!-- oauth -->
<g id="node7" class="node">
<title>oauth</title>
<ellipse fill="none" stroke="black" cx="159.64" cy="-396" rx="39.63" ry="18"/>
<text text-anchor="middle" x="159.64" y="-391.32" font-family="Times,serif" font-size="14.00">oauth</text>
</g>
<!-- path -->
<g id="node8" class="node">
<title>path</title>
<ellipse fill="none" stroke="black" cx="159.64" cy="-342" rx="33.85" ry="18"/>
<text text-anchor="middle" x="159.64" y="-337.32" font-family="Times,serif" font-size="14.00">path</text>
</g>
<!-- ssh -->
<g id="node9" class="node">
<title>ssh</title>
<ellipse fill="none" stroke="black" cx="159.64" cy="-1115" rx="28.06" ry="18"/>
<text text-anchor="middle" x="159.64" y="-1110.33" font-family="Times,serif" font-size="14.00">ssh</text>
</g>
<!-- ssh&#45;&gt;certificate -->
<g id="edge42" class="edge">
<title>ssh&#45;&gt;certificate</title>
<path fill="none" stroke="black" d="M166.43,-1132.95C184.67,-1189.36 239.97,-1359.64 244.21,-1364 251.46,-1371.46 260.6,-1377.19 270.21,-1381.6"/>
<polygon fill="black" stroke="black" points="268.77,-1384.79 279.35,-1385.3 271.4,-1378.3 268.77,-1384.79"/>
</g>
<!-- ssh&#45;&gt;fingerprint -->
<g id="edge43" class="edge">
<title>ssh&#45;&gt;fingerprint</title>
<path fill="none" stroke="black" d="M166.3,-1132.97C182.14,-1182.67 226.88,-1319.12 244.21,-1331 308.76,-1375.24 357.71,-1377.99 420.28,-1331 466.17,-1296.54 416.37,-1248.23 456.28,-1207 461.26,-1201.87 467.21,-1197.71 473.62,-1194.34"/>
<polygon fill="black" stroke="black" points="474.93,-1197.59 482.61,-1190.29 472.06,-1191.2 474.93,-1197.59"/>
</g>
<!-- ssh&#45;&gt;inspect -->
<g id="edge44" class="edge">
<title>ssh&#45;&gt;inspect</title>
<path fill="none" stroke="black" d="M165.76,-1097.27C174.61,-1066.53 193.26,-1001.32 208.21,-946 224.86,-884.39 195.03,-847.66 244.21,-807 279.14,-778.12 406.32,-780.05 481.78,-784.02"/>
<polygon fill="black" stroke="black" points="481.28,-787.5 491.46,-784.56 481.67,-780.51 481.28,-787.5"/>
</g>
<!-- ssh&#45;&gt;needs&#45;renewal -->
<g id="edge45" class="edge">
<title>ssh&#45;&gt;needs&#45;renewal</title>
<path fill="none" stroke="black" d="M168.03,-1097.49C179.86,-1072.06 205.69,-1025.9 244.21,-1007 327.77,-966.01 438.89,-1006.93 498.01,-1035.15"/>
<polygon fill="black" stroke="black" points="496.2,-1038.16 506.72,-1039.41 499.27,-1031.87 496.2,-1038.16"/>
</g>
<!-- ssh&#45;&gt;list -->
<g id="edge46" class="edge">
<title>ssh&#45;&gt;list</title>
<path fill="none" stroke="black" d="M159.94,-1133.15C158.94,-1185.65 163.43,-1339.27 244.21,-1423 257.19,-1436.45 276.72,-1443.24 294,-1446.64"/>
<polygon fill="black" stroke="black" points="293,-1450.03 303.44,-1448.19 294.13,-1443.12 293,-1450.03"/>
</g>
<!-- check&#45;host -->
<g id="node41" class="node">
<title>check&#45;host</title>
<ellipse fill="none" stroke="black" cx="332.25" cy="-834" rx="64.36" ry="18"/>
<text text-anchor="middle" x="332.25" y="-829.33" font-family="Times,serif" font-size="14.00">check&#45;host</text>
</g>
<!-- ssh&#45;&gt;check&#45;host -->
<g id="edge47" class="edge">
<title>ssh&#45;&gt;check&#45;host</title>
<path fill="none" stroke="black" d="M165.53,-1096.99C180.65,-1041.89 226.63,-878.29 244.21,-861 250.11,-855.2 257.22,-850.65 264.81,-847.07"/>
<polygon fill="black" stroke="black" points="266.04,-850.35 273.99,-843.34 263.4,-843.87 266.04,-850.35"/>
</g>
<!-- config -->
<g id="node42" class="node">
<title>config</title>
<ellipse fill="none" stroke="black" cx="332.25" cy="-1304" rx="41.21" ry="18"/>
<text text-anchor="middle" x="332.25" y="-1299.33" font-family="Times,serif" font-size="14.00">config</text>
</g>
<!-- ssh&#45;&gt;config -->
<g id="edge48" class="edge">
<title>ssh&#45;&gt;config</title>
<path fill="none" stroke="black" d="M164.96,-1132.99C173.92,-1166.36 197.65,-1237.96 244.21,-1277 254.82,-1285.89 268.35,-1291.86 281.55,-1295.86"/>
<polygon fill="black" stroke="black" points="280.48,-1299.2 291.04,-1298.4 282.28,-1292.44 280.48,-1299.2"/>
</g>
<!-- hosts -->
<g id="node43" class="node">
<title>hosts</title>
<ellipse fill="none" stroke="black" cx="332.25" cy="-1250" rx="38.06" ry="18"/>
<text text-anchor="middle" x="332.25" y="-1245.33" font-family="Times,serif" font-size="14.00">hosts</text>
</g>
<!-- ssh&#45;&gt;hosts -->
<g id="edge49" class="edge">
<title>ssh&#45;&gt;hosts</title>
<path fill="none" stroke="black" d="M169.53,-1132.27C182.68,-1156.13 209.54,-1198.95 244.21,-1223 256.32,-1231.4 271.13,-1237.26 285.08,-1241.32"/>
<polygon fill="black" stroke="black" points="283.99,-1244.65 294.55,-1243.81 285.77,-1237.88 283.99,-1244.65"/>
</g>
<!-- login -->
<g id="node44" class="node">
<title>login</title>
<ellipse fill="none" stroke="black" cx="332.25" cy="-1196" rx="35.95" ry="18"/>
<text text-anchor="middle" x="332.25" y="-1191.33" font-family="Times,serif" font-size="14.00">login</text>
</g>
<!-- ssh&#45;&gt;login -->
<g id="edge50" class="edge">
<title>ssh&#45;&gt;login</title>
<path fill="none" stroke="black" d="M178.71,-1128.76C195.09,-1140.71 220.27,-1157.81 244.21,-1169 258.26,-1175.57 274.31,-1181.06 288.77,-1185.34"/>
<polygon fill="black" stroke="black" points="287.43,-1188.6 298,-1187.97 289.34,-1181.87 287.43,-1188.6"/>
</g>
<!-- logout -->
<g id="node45" class="node">
<title>logout</title>
<ellipse fill="none" stroke="black" cx="332.25" cy="-1142" rx="42.79" ry="18"/>
<text text-anchor="middle" x="332.25" y="-1137.33" font-family="Times,serif" font-size="14.00">logout</text>
</g>
<!-- ssh&#45;&gt;logout -->
<g id="edge51" class="edge">
<title>ssh&#45;&gt;logout</title>
<path fill="none" stroke="black" d="M187.29,-1119.22C212.14,-1123.15 249.86,-1129.12 280.45,-1133.96"/>
<polygon fill="black" stroke="black" points="279.87,-1137.41 290.29,-1135.52 280.96,-1130.5 279.87,-1137.41"/>
</g>
<!-- proxycommand -->
<g id="node46" class="node">
<title>proxycommand</title>
<ellipse fill="none" stroke="black" cx="332.25" cy="-1088" rx="88.04" ry="18"/>
<text text-anchor="middle" x="332.25" y="-1083.33" font-family="Times,serif" font-size="14.00">proxycommand</text>
</g>
<!-- ssh&#45;&gt;proxycommand -->
<g id="edge52" class="edge">
<title>ssh&#45;&gt;proxycommand</title>
<path fill="none" stroke="black" d="M187.29,-1110.78C204.37,-1108.08 227.52,-1104.42 250.26,-1100.82"/>
<polygon fill="black" stroke="black" points="250.54,-1104.32 259.87,-1099.3 249.44,-1097.4 250.54,-1104.32"/>
</g>
<!-- rekey -->
<g id="node47" class="node">
<title>rekey</title>
<ellipse fill="none" stroke="black" cx="332.25" cy="-1034" rx="39.11" ry="18"/>
<text text-anchor="middle" x="332.25" y="-1029.33" font-family="Times,serif" font-size="14.00">rekey</text>
</g>
<!-- ssh&#45;&gt;rekey -->
<g id="edge53" class="edge">
<title>ssh&#45;&gt;rekey</title>
<path fill="none" stroke="black" d="M178.71,-1101.24C195.09,-1089.29 220.27,-1072.19 244.21,-1061 257.45,-1054.82 272.45,-1049.58 286.23,-1045.41"/>
<polygon fill="black" stroke="black" points="286.88,-1048.87 295.51,-1042.73 284.93,-1042.15 286.88,-1048.87"/>
</g>
<!-- renew -->
<g id="node48" class="node">
<title>renew</title>
<ellipse fill="none" stroke="black" cx="332.25" cy="-942" rx="42.26" ry="18"/>
<text text-anchor="middle" x="332.25" y="-937.33" font-family="Times,serif" font-size="14.00">renew</text>
</g>
<!-- ssh&#45;&gt;renew -->
<g id="edge54" class="edge">
<title>ssh&#45;&gt;renew</title>
<path fill="none" stroke="black" d="M166.66,-1097.21C177.57,-1067.58 203.31,-1008.04 244.21,-974 255.35,-964.74 269.4,-958.03 282.95,-953.23"/>
<polygon fill="black" stroke="black" points="283.76,-956.65 292.2,-950.24 281.61,-949.99 283.76,-956.65"/>
</g>
<!-- revoke -->
<g id="node49" class="node">
<title>revoke</title>
<ellipse fill="none" stroke="black" cx="332.25" cy="-888" rx="44.89" ry="18"/>
<text text-anchor="middle" x="332.25" y="-883.33" font-family="Times,serif" font-size="14.00">revoke</text>
</g>
<!-- ssh&#45;&gt;revoke -->
<g id="edge55" class="edge">
<title>ssh&#45;&gt;revoke</title>
<path fill="none" stroke="black" d="M163.03,-1096.87C169.14,-1057.82 188.94,-965.25 244.21,-915 253.72,-906.36 265.95,-900.48 278.23,-896.48"/>
<polygon fill="black" stroke="black" points="278.84,-899.95 287.5,-893.85 276.92,-893.22 278.84,-899.95"/>
</g>
<!-- acme -->
<g id="node10" class="node">
<title>acme</title>
<ellipse fill="none" stroke="black" cx="37.53" cy="-1115" rx="37.53" ry="18"/>
<text text-anchor="middle" x="37.53" y="-1110.33" font-family="Times,serif" font-size="14.00">acme</text>
</g>
<!-- acme&#45;&gt;base64 -->
<g id="edge1" class="edge">
<title>acme&#45;&gt;base64</title>
<path fill="none" stroke="black" d="M39.67,-1133.45C44.43,-1205.23 64.62,-1465.07 111.06,-1531 112.9,-1533.62 115.09,-1536.02 117.49,-1538.21"/>
<polygon fill="black" stroke="black" points="115.03,-1540.74 125.13,-1543.96 119.25,-1535.15 115.03,-1540.74"/>
</g>
<!-- acme&#45;&gt;ca -->
<g id="edge2" class="edge">
<title>acme&#45;&gt;ca</title>
<path fill="none" stroke="black" d="M40.19,-1133.27C46.42,-1198.71 70.21,-1420.52 111.06,-1477 114.82,-1482.19 119.9,-1486.53 125.35,-1490.09"/>
<polygon fill="black" stroke="black" points="123.59,-1493.12 134.02,-1494.95 127.01,-1487.01 123.59,-1493.12"/>
</g>
<!-- acme&#45;&gt;certificate -->
<g id="edge3" class="edge">
<title>acme&#45;&gt;certificate</title>
<path fill="none" stroke="black" d="M48.72,-1132.54C75.34,-1176.96 151.4,-1295.12 244.21,-1362 253.89,-1368.97 265.18,-1374.74 276.37,-1379.43"/>
<polygon fill="black" stroke="black" points="275.01,-1382.65 285.6,-1383.04 277.56,-1376.14 275.01,-1382.65"/>
</g>
<!-- acme&#45;&gt;context -->
<g id="edge4" class="edge">
<title>acme&#45;&gt;context</title>
<path fill="none" stroke="black" d="M44.99,-1133.01C64.7,-1188 124.23,-1354.02 148.33,-1421.26"/>
<polygon fill="black" stroke="black" points="144.97,-1422.24 151.64,-1430.48 151.56,-1419.88 144.97,-1422.24"/>
</g>
<!-- acme&#45;&gt;crl -->
<g id="edge5" class="edge">
<title>acme&#45;&gt;crl</title>
<path fill="none" stroke="black" d="M49.19,-1097.61C70.26,-1063.22 117.37,-986.34 142.35,-945.57"/>
<polygon fill="black" stroke="black" points="145.31,-947.44 147.55,-937.09 139.34,-943.79 145.31,-947.44"/>
</g>
<!-- acme&#45;&gt;crypto -->
<g id="edge6" class="edge">
<title>acme&#45;&gt;crypto</title>
<path fill="none" stroke="black" d="M41.8,-1096.87C58.35,-1005.28 132.73,-593.44 153.33,-479.37"/>
<polygon fill="black" stroke="black" points="156.76,-480.07 155.09,-469.61 149.87,-478.82 156.76,-480.07"/>
</g>
<!-- acme&#45;&gt;oauth -->
<g id="edge7" class="edge">
<title>acme&#45;&gt;oauth</title>
<path fill="none" stroke="black" d="M38.24,-1096.76C37.04,-999.12 35.48,-538.48 111.06,-423 113.26,-419.64 116.03,-416.65 119.12,-414.01"/>
<polygon fill="black" stroke="black" points="121.07,-416.91 127.25,-408.3 117.05,-411.18 121.07,-416.91"/>
</g>
<!-- acme&#45;&gt;path -->
<g id="edge8" class="edge">
<title>acme&#45;&gt;path</title>
<path fill="none" stroke="black" d="M39.3,-1096.85C44.01,-988.72 70.14,-432.03 111.06,-369 113.81,-364.76 117.47,-361.12 121.54,-358.01"/>
<polygon fill="black" stroke="black" points="123.11,-361.16 129.66,-352.84 119.34,-355.26 123.11,-361.16"/>
</g>
<!-- acme&#45;&gt;ssh -->
<g id="edge9" class="edge">
<title>acme&#45;&gt;ssh</title>
<path fill="none" stroke="black" d="M75.55,-1115C89.55,-1115 105.52,-1115 119.69,-1115"/>
<polygon fill="black" stroke="black" points="119.57,-1118.5 129.57,-1115 119.57,-1111.5 119.57,-1118.5"/>
</g>
</g>
</svg>
