<?xml version="1.0" encoding="UTF-8" standalone="no"?>
<!DOCTYPE svg PUBLIC "-//W3C//DTD SVG 1.1//EN"
 "http://www.w3.org/Graphics/SVG/1.1/DTD/svg11.dtd">
<!-- Generated by graphviz version 12.2.1 (0)
 -->
<!-- Title: G Pages: 1 -->
<svg width="234pt" height="854pt"
 viewBox="0.00 0.00 234.09 854.00" xmlns="http://www.w3.org/2000/svg" xmlns:xlink="http://www.w3.org/1999/xlink">
<g id="graph0" class="graph" transform="scale(1 1) rotate(0) translate(4 850)">
<title>G</title>
<polygon fill="white" stroke="none" points="-4,4 -4,-850 230.09,-850 230.09,4 -4,4"/>
<!-- acme -->
<g id="node1" class="node">
<title>acme</title>
<ellipse fill="none" stroke="black" cx="158.04" cy="-828" rx="37.53" ry="18"/>
<text text-anchor="middle" x="158.04" y="-823.33" font-family="Times,serif" font-size="14.00">acme</text>
</g>
<!-- admin -->
<g id="node2" class="node">
<title>admin</title>
<ellipse fill="none" stroke="black" cx="158.04" cy="-774" rx="42.26" ry="18"/>
<text text-anchor="middle" x="158.04" y="-769.33" font-family="Times,serif" font-size="14.00">admin</text>
</g>
<!-- bootstrap -->
<g id="node3" class="node">
<title>bootstrap</title>
<ellipse fill="none" stroke="black" cx="158.04" cy="-720" rx="59.63" ry="18"/>
<text text-anchor="middle" x="158.04" y="-715.33" font-family="Times,serif" font-size="14.00">bootstrap</text>
</g>
<!-- certificate -->
<g id="node4" class="node">
<title>certificate</title>
<ellipse fill="none" stroke="black" cx="158.04" cy="-666" rx="61.73" ry="18"/>
<text text-anchor="middle" x="158.04" y="-661.33" font-family="Times,serif" font-size="14.00">certificate</text>
</g>
<!-- federation -->
<g id="node5" class="node">
<title>federation</title>
<ellipse fill="none" stroke="black" cx="158.04" cy="-612" rx="62.78" ry="18"/>
<text text-anchor="middle" x="158.04" y="-607.33" font-family="Times,serif" font-size="14.00">federation</text>
</g>
<!-- health -->
<g id="node6" class="node">
<title>health</title>
<ellipse fill="none" stroke="black" cx="158.04" cy="-558" rx="42.79" ry="18"/>
<text text-anchor="middle" x="158.04" y="-553.33" font-family="Times,serif" font-size="14.00">health</text>
</g>
<!-- init -->
<g id="node7" class="node">
<title>init</title>
<ellipse fill="none" stroke="black" cx="158.04" cy="-504" rx="28.06" ry="18"/>
<text text-anchor="middle" x="158.04" y="-499.32" font-family="Times,serif" font-size="14.00">init</text>
</g>
<!-- policy -->
<g id="node8" class="node">
<title>policy</title>
<ellipse fill="none" stroke="black" cx="158.04" cy="-450" rx="40.69" ry="18"/>
<text text-anchor="middle" x="158.04" y="-445.32" font-family="Times,serif" font-size="14.00">policy</text>
</g>
<!-- provisioner -->
<g id="node9" class="node">
<title>provisioner</title>
<ellipse fill="none" stroke="black" cx="158.04" cy="-396" rx="68.04" ry="18"/>
<text text-anchor="middle" x="158.04" y="-391.32" font-family="Times,serif" font-size="14.00">provisioner</text>
</g>
<!-- rekey -->
<g id="node10" class="node">
<title>rekey</title>
<ellipse fill="none" stroke="black" cx="158.04" cy="-342" rx="39.11" ry="18"/>
<text text-anchor="middle" x="158.04" y="-337.32" font-family="Times,serif" font-size="14.00">rekey</text>
</g>
<!-- renew -->
<g id="node11" class="node">
<title>renew</title>
<ellipse fill="none" stroke="black" cx="158.04" cy="-288" rx="42.26" ry="18"/>
<text text-anchor="middle" x="158.04" y="-283.32" font-family="Times,serif" font-size="14.00">renew</text>
</g>
<!-- revoke -->
<g id="node12" class="node">
<title>revoke</title>
<ellipse fill="none" stroke="black" cx="158.04" cy="-234" rx="44.89" ry="18"/>
<text text-anchor="middle" x="158.04" y="-229.32" font-family="Times,serif" font-size="14.00">revoke</text>
</g>
<!-- root -->
<g id="node13" class="node">
<title>root</title>
<ellipse fill="none" stroke="black" cx="158.04" cy="-180" rx="31.74" ry="18"/>
<text text-anchor="middle" x="158.04" y="-175.32" font-family="Times,serif" font-size="14.00">root</text>
</g>
<!-- roots -->
<g id="node14" class="node">
<title>roots</title>
<ellipse fill="none" stroke="black" cx="158.04" cy="-126" rx="37" ry="18"/>
<text text-anchor="middle" x="158.04" y="-121.33" font-family="Times,serif" font-size="14.00">roots</text>
</g>
<!-- sign -->
<g id="node15" class="node">
<title>sign</title>
<ellipse fill="none" stroke="black" cx="158.04" cy="-72" rx="32.27" ry="18"/>
<text text-anchor="middle" x="158.04" y="-67.33" font-family="Times,serif" font-size="14.00">sign</text>
</g>
<!-- token -->
<g id="node16" class="node">
<title>token</title>
<ellipse fill="none" stroke="black" cx="158.04" cy="-18" rx="39.11" ry="18"/>
<text text-anchor="middle" x="158.04" y="-13.32" font-family="Times,serif" font-size="14.00">token</text>
</g>
<!-- ca -->
<g id="node17" class="node">
<title>ca</title>
<ellipse fill="none" stroke="black" cx="27" cy="-423" rx="27" ry="18"/>
<text text-anchor="middle" x="27" y="-418.32" font-family="Times,serif" font-size="14.00">ca</text>
</g>
<!-- ca&#45;&gt;acme -->
<g id="edge1" class="edge">
<title>ca&#45;&gt;acme</title>
<path fill="none" stroke="black" d="M28.68,-441.31C31.53,-509.02 44.58,-744.29 90,-801 95.8,-808.24 103.84,-813.55 112.35,-817.44"/>
<polygon fill="black" stroke="black" points="110.83,-820.61 121.42,-820.97 113.37,-814.09 110.83,-820.61"/>
</g>
<!-- ca&#45;&gt;admin -->
<g id="edge2" class="edge">
<title>ca&#45;&gt;admin</title>
<path fill="none" stroke="black" d="M29.22,-441.18C33.66,-502.33 50.79,-699.35 90,-747 95.15,-753.26 101.98,-758.08 109.3,-761.79"/>
<polygon fill="black" stroke="black" points="107.53,-764.84 118.09,-765.59 110.3,-758.41 107.53,-764.84"/>
</g>
<!-- ca&#45;&gt;bootstrap -->
<g id="edge3" class="edge">
<title>ca&#45;&gt;bootstrap</title>
<path fill="none" stroke="black" d="M29.97,-441.13C36.2,-495.26 56.97,-654.32 90,-693 93.3,-696.86 97.23,-700.18 101.51,-703.02"/>
<polygon fill="black" stroke="black" points="99.58,-705.95 110.01,-707.79 103,-699.85 99.58,-705.95"/>
</g>
<!-- ca&#45;&gt;certificate -->
<g id="edge4" class="edge">
<title>ca&#45;&gt;certificate</title>
<path fill="none" stroke="black" d="M28.11,-441.47C29.34,-482.31 37.88,-581.19 90,-639 93.21,-642.56 96.96,-645.67 101.02,-648.36"/>
<polygon fill="black" stroke="black" points="99.18,-651.34 109.6,-653.21 102.62,-645.25 99.18,-651.34"/>
</g>
<!-- ca&#45;&gt;federation -->
<g id="edge5" class="edge">
<title>ca&#45;&gt;federation</title>
<path fill="none" stroke="black" d="M30.2,-441.35C35.09,-474.36 49.79,-544.08 90,-585 93.36,-588.42 97.22,-591.43 101.35,-594.06"/>
<polygon fill="black" stroke="black" points="99.58,-597.08 110.03,-598.82 102.94,-590.94 99.58,-597.08"/>
</g>
<!-- ca&#45;&gt;health -->
<g id="edge6" class="edge">
<title>ca&#45;&gt;health</title>
<path fill="none" stroke="black" d="M33.97,-440.73C42.76,-464.34 61.3,-506.02 90,-531 96.05,-536.26 103.25,-540.58 110.66,-544.1"/>
<polygon fill="black" stroke="black" points="109.2,-547.28 119.77,-547.96 111.93,-540.84 109.2,-547.28"/>
</g>
<!-- ca&#45;&gt;init -->
<g id="edge7" class="edge">
<title>ca&#45;&gt;init</title>
<path fill="none" stroke="black" d="M42.18,-437.83C54.08,-449.64 71.99,-465.96 90,-477 99.77,-482.98 111.09,-488.13 121.63,-492.28"/>
<polygon fill="black" stroke="black" points="120.2,-495.49 130.8,-495.71 122.65,-488.93 120.2,-495.49"/>
</g>
<!-- ca&#45;&gt;policy -->
<g id="edge8" class="edge">
<title>ca&#45;&gt;policy</title>
<path fill="none" stroke="black" d="M53.19,-428.27C69.18,-431.62 90.38,-436.05 109.45,-440.04"/>
<polygon fill="black" stroke="black" points="108.7,-443.46 119.2,-442.08 110.13,-436.61 108.7,-443.46"/>
</g>
<!-- ca&#45;&gt;provisioner -->
<g id="edge9" class="edge">
<title>ca&#45;&gt;provisioner</title>
<path fill="none" stroke="black" d="M53.19,-417.73C64.53,-415.36 78.5,-412.43 92.47,-409.51"/>
<polygon fill="black" stroke="black" points="93.07,-412.96 102.14,-407.49 91.64,-406.11 93.07,-412.96"/>
</g>
<!-- ca&#45;&gt;rekey -->
<g id="edge10" class="edge">
<title>ca&#45;&gt;rekey</title>
<path fill="none" stroke="black" d="M42.18,-408.17C54.08,-396.36 71.99,-380.04 90,-369 97.67,-364.3 106.31,-360.11 114.77,-356.52"/>
<polygon fill="black" stroke="black" points="115.91,-359.83 123.89,-352.86 113.31,-353.34 115.91,-359.83"/>
</g>
<!-- ca&#45;&gt;renew -->
<g id="edge11" class="edge">
<title>ca&#45;&gt;renew</title>
<path fill="none" stroke="black" d="M33.97,-405.27C42.76,-381.66 61.3,-339.98 90,-315 96.18,-309.62 103.57,-305.23 111.15,-301.67"/>
<polygon fill="black" stroke="black" points="112.25,-305 120.12,-297.9 109.54,-298.55 112.25,-305"/>
</g>
<!-- ca&#45;&gt;revoke -->
<g id="edge12" class="edge">
<title>ca&#45;&gt;revoke</title>
<path fill="none" stroke="black" d="M30.2,-404.65C35.09,-371.64 49.79,-301.92 90,-261 95.32,-255.59 101.87,-251.23 108.76,-247.72"/>
<polygon fill="black" stroke="black" points="109.91,-251.04 117.63,-243.79 107.07,-244.64 109.91,-251.04"/>
</g>
<!-- ca&#45;&gt;root -->
<g id="edge13" class="edge">
<title>ca&#45;&gt;root</title>
<path fill="none" stroke="black" d="M28.11,-404.53C29.34,-363.69 37.88,-264.81 90,-207 97.16,-199.06 106.98,-193.42 116.89,-189.42"/>
<polygon fill="black" stroke="black" points="117.85,-192.79 126.14,-186.19 115.54,-186.18 117.85,-192.79"/>
</g>
<!-- ca&#45;&gt;roots -->
<g id="edge14" class="edge">
<title>ca&#45;&gt;roots</title>
<path fill="none" stroke="black" d="M29.97,-404.87C36.2,-350.74 56.97,-191.68 90,-153 96.03,-145.95 104.16,-140.71 112.69,-136.84"/>
<polygon fill="black" stroke="black" points="113.71,-140.2 121.76,-133.31 111.17,-133.68 113.71,-140.2"/>
</g>
<!-- ca&#45;&gt;sign -->
<g id="edge15" class="edge">
<title>ca&#45;&gt;sign</title>
<path fill="none" stroke="black" d="M29.22,-404.82C33.66,-343.67 50.79,-146.65 90,-99 96.73,-90.82 106.32,-85.09 116.15,-81.1"/>
<polygon fill="black" stroke="black" points="117.05,-84.49 125.35,-77.91 114.75,-77.88 117.05,-84.49"/>
</g>
<!-- ca&#45;&gt;token -->
<g id="edge16" class="edge">
<title>ca&#45;&gt;token</title>
<path fill="none" stroke="black" d="M28.68,-404.69C31.53,-336.98 44.58,-101.71 90,-45 95.45,-38.19 102.89,-33.09 110.83,-29.27"/>
<polygon fill="black" stroke="black" points="112.09,-32.53 120.03,-25.52 109.45,-26.05 112.09,-32.53"/>
</g>
</g>
</svg>
