<?xml version="1.0" encoding="UTF-8" standalone="no"?>
<!DOCTYPE svg PUBLIC "-//W3C//DTD SVG 1.1//EN"
 "http://www.w3.org/Graphics/SVG/1.1/DTD/svg11.dtd">
<!-- Generated by graphviz version 12.2.1 (0)
 -->
<!-- Title: G Pages: 1 -->
<svg width="1221pt" height="260pt"
 viewBox="0.00 0.00 1221.15 260.00" xmlns="http://www.w3.org/2000/svg" xmlns:xlink="http://www.w3.org/1999/xlink">
<g id="graph0" class="graph" transform="scale(1 1) rotate(0) translate(4 256)">
<title>G</title>
<polygon fill="white" stroke="none" points="-4,4 -4,-256 1217.15,-256 1217.15,4 -4,4"/>
<!-- xxxxxx -->
<g id="node1" class="node">
<title>xxxxxx</title>
<ellipse fill="none" stroke="black" cx="656.62" cy="-234" rx="45.95" ry="18"/>
<text text-anchor="middle" x="656.62" y="-229.32" font-family="Times,serif" font-size="14.00">xxxxxx</text>
</g>
<!-- 001xxx -->
<g id="node2" class="node">
<title>001xxx</title>
<ellipse fill="none" stroke="black" cx="148.62" cy="-162" rx="47.53" ry="18"/>
<text text-anchor="middle" x="148.62" y="-157.32" font-family="Times,serif" font-size="14.00">001xxx</text>
</g>
<!-- xxxxxx&#45;&gt;001xxx -->
<g id="edge1" class="edge">
<title>xxxxxx&#45;&gt;001xxx</title>
<path fill="none" stroke="black" d="M611.29,-230.36C529.38,-225.01 351.58,-210.67 204.62,-180 201.25,-179.3 197.79,-178.48 194.32,-177.6"/>
<polygon fill="black" stroke="black" points="195.36,-174.25 184.79,-174.98 193.51,-181 195.36,-174.25"/>
</g>
<!-- 101xxx -->
<g id="node3" class="node">
<title>101xxx</title>
<ellipse fill="none" stroke="black" cx="261.62" cy="-162" rx="47.53" ry="18"/>
<text text-anchor="middle" x="261.62" y="-157.32" font-family="Times,serif" font-size="14.00">101xxx</text>
</g>
<!-- xxxxxx&#45;&gt;101xxx -->
<g id="edge2" class="edge">
<title>xxxxxx&#45;&gt;101xxx</title>
<path fill="none" stroke="black" d="M612.64,-228.11C547.63,-220.45 422.29,-203.95 317.62,-180 314.31,-179.24 310.91,-178.39 307.5,-177.49"/>
<polygon fill="black" stroke="black" points="308.7,-174.19 298.13,-174.87 306.82,-180.93 308.7,-174.19"/>
</g>
<!-- 201xxx -->
<g id="node4" class="node">
<title>201xxx</title>
<ellipse fill="none" stroke="black" cx="374.62" cy="-162" rx="47.53" ry="18"/>
<text text-anchor="middle" x="374.62" y="-157.32" font-family="Times,serif" font-size="14.00">201xxx</text>
</g>
<!-- xxxxxx&#45;&gt;201xxx -->
<g id="edge3" class="edge">
<title>xxxxxx&#45;&gt;201xxx</title>
<path fill="none" stroke="black" d="M616.83,-224.48C571.54,-214.6 495.43,-197.41 430.62,-180 427.54,-179.17 424.38,-178.29 421.19,-177.38"/>
<polygon fill="black" stroke="black" points="422.41,-174.09 411.83,-174.65 420.45,-180.81 422.41,-174.09"/>
</g>
<!-- 301xxx -->
<g id="node5" class="node">
<title>301xxx</title>
<ellipse fill="none" stroke="black" cx="487.62" cy="-162" rx="47.53" ry="18"/>
<text text-anchor="middle" x="487.62" y="-157.32" font-family="Times,serif" font-size="14.00">301xxx</text>
</g>
<!-- xxxxxx&#45;&gt;301xxx -->
<g id="edge4" class="edge">
<title>xxxxxx&#45;&gt;301xxx</title>
<path fill="none" stroke="black" d="M626.02,-220.32C599,-209.13 559.35,-192.71 529.41,-180.31"/>
<polygon fill="black" stroke="black" points="530.84,-177.11 520.26,-176.52 528.16,-183.58 530.84,-177.11"/>
</g>
<!-- 401xxx -->
<g id="node6" class="node">
<title>401xxx</title>
<ellipse fill="none" stroke="black" cx="600.62" cy="-162" rx="47.53" ry="18"/>
<text text-anchor="middle" x="600.62" y="-157.32" font-family="Times,serif" font-size="14.00">401xxx</text>
</g>
<!-- xxxxxx&#45;&gt;401xxx -->
<g id="edge5" class="edge">
<title>xxxxxx&#45;&gt;401xxx</title>
<path fill="none" stroke="black" d="M643.35,-216.41C636.66,-208.04 628.39,-197.71 620.92,-188.37"/>
<polygon fill="black" stroke="black" points="623.73,-186.27 614.75,-180.65 618.26,-190.65 623.73,-186.27"/>
</g>
<!-- 501xxx -->
<g id="node7" class="node">
<title>501xxx</title>
<ellipse fill="none" stroke="black" cx="713.62" cy="-162" rx="47.53" ry="18"/>
<text text-anchor="middle" x="713.62" y="-157.32" font-family="Times,serif" font-size="14.00">501xxx</text>
</g>
<!-- xxxxxx&#45;&gt;501xxx -->
<g id="edge6" class="edge">
<title>xxxxxx&#45;&gt;501xxx</title>
<path fill="none" stroke="black" d="M670.13,-216.41C676.95,-208.04 685.36,-197.71 692.97,-188.37"/>
<polygon fill="black" stroke="black" points="695.66,-190.61 699.26,-180.64 690.23,-186.19 695.66,-190.61"/>
</g>
<!-- 601xxx -->
<g id="node8" class="node">
<title>601xxx</title>
<ellipse fill="none" stroke="black" cx="826.62" cy="-162" rx="47.53" ry="18"/>
<text text-anchor="middle" x="826.62" y="-157.32" font-family="Times,serif" font-size="14.00">601xxx</text>
</g>
<!-- xxxxxx&#45;&gt;601xxx -->
<g id="edge7" class="edge">
<title>xxxxxx&#45;&gt;601xxx</title>
<path fill="none" stroke="black" d="M687.41,-220.32C714.59,-209.13 754.48,-192.71 784.59,-180.31"/>
<polygon fill="black" stroke="black" points="785.89,-183.56 793.81,-176.51 783.23,-177.09 785.89,-183.56"/>
</g>
<!-- 701xxx -->
<g id="node9" class="node">
<title>701xxx</title>
<ellipse fill="none" stroke="black" cx="939.62" cy="-162" rx="47.53" ry="18"/>
<text text-anchor="middle" x="939.62" y="-157.32" font-family="Times,serif" font-size="14.00">701xxx</text>
</g>
<!-- xxxxxx&#45;&gt;701xxx -->
<g id="edge8" class="edge">
<title>xxxxxx&#45;&gt;701xxx</title>
<path fill="none" stroke="black" d="M696.19,-224.59C741.64,-214.73 818.35,-197.51 883.62,-180 886.71,-179.17 889.88,-178.29 893.06,-177.39"/>
<polygon fill="black" stroke="black" points="893.8,-180.82 902.42,-174.66 891.84,-174.1 893.8,-180.82"/>
</g>
<!-- 801xxx -->
<g id="node10" class="node">
<title>801xxx</title>
<ellipse fill="none" stroke="black" cx="1052.62" cy="-162" rx="47.53" ry="18"/>
<text text-anchor="middle" x="1052.62" y="-157.32" font-family="Times,serif" font-size="14.00">801xxx</text>
</g>
<!-- xxxxxx&#45;&gt;801xxx -->
<g id="edge9" class="edge">
<title>xxxxxx&#45;&gt;801xxx</title>
<path fill="none" stroke="black" d="M700.47,-228.16C765.59,-220.52 891.5,-204.02 996.62,-180 999.94,-179.24 1003.34,-178.39 1006.75,-177.49"/>
<polygon fill="black" stroke="black" points="1007.43,-180.93 1016.12,-174.87 1005.55,-174.19 1007.43,-180.93"/>
</g>
<!-- 901xxx -->
<g id="node11" class="node">
<title>901xxx</title>
<ellipse fill="none" stroke="black" cx="1165.62" cy="-162" rx="47.53" ry="18"/>
<text text-anchor="middle" x="1165.62" y="-157.32" font-family="Times,serif" font-size="14.00">901xxx</text>
</g>
<!-- xxxxxx&#45;&gt;901xxx -->
<g id="edge10" class="edge">
<title>xxxxxx&#45;&gt;901xxx</title>
<path fill="none" stroke="black" d="M702.06,-230.37C784.15,-225.03 962.35,-210.71 1109.62,-180 1113,-179.3 1116.46,-178.48 1119.93,-177.6"/>
<polygon fill="black" stroke="black" points="1120.74,-181 1129.46,-174.98 1118.89,-174.25 1120.74,-181"/>
</g>
<!-- 5010xx -->
<g id="node12" class="node">
<title>5010xx</title>
<ellipse fill="none" stroke="black" cx="251.62" cy="-90" rx="48.05" ry="18"/>
<text text-anchor="middle" x="251.62" y="-85.33" font-family="Times,serif" font-size="14.00">5010xx</text>
</g>
<!-- 501xxx&#45;&gt;5010xx -->
<g id="edge11" class="edge">
<title>501xxx&#45;&gt;5010xx</title>
<path fill="none" stroke="black" d="M678.61,-149.4C671.71,-147.39 664.48,-145.48 657.62,-144 535.26,-117.63 389.14,-102.46 309.84,-95.56"/>
<polygon fill="black" stroke="black" points="310.4,-92.1 300.14,-94.73 309.81,-99.07 310.4,-92.1"/>
</g>
<!-- 5011xx -->
<g id="node13" class="node">
<title>5011xx</title>
<ellipse fill="none" stroke="black" cx="599.62" cy="-90" rx="48.05" ry="18"/>
<text text-anchor="middle" x="599.62" y="-85.33" font-family="Times,serif" font-size="14.00">5011xx</text>
</g>
<!-- 501xxx&#45;&gt;5011xx -->
<g id="edge12" class="edge">
<title>501xxx&#45;&gt;5011xx</title>
<path fill="none" stroke="black" d="M689.45,-146.15C673.13,-136.13 651.35,-122.76 633.33,-111.7"/>
<polygon fill="black" stroke="black" points="635.41,-108.87 625.06,-106.62 631.75,-114.83 635.41,-108.87"/>
</g>
<!-- 5012xx -->
<g id="node14" class="node">
<title>5012xx</title>
<ellipse fill="none" stroke="black" cx="713.62" cy="-90" rx="48.05" ry="18"/>
<text text-anchor="middle" x="713.62" y="-85.33" font-family="Times,serif" font-size="14.00">5012xx</text>
</g>
<!-- 501xxx&#45;&gt;5012xx -->
<g id="edge13" class="edge">
<title>501xxx&#45;&gt;5012xx</title>
<path fill="none" stroke="black" d="M713.62,-143.7C713.62,-136.41 713.62,-127.73 713.62,-119.54"/>
<polygon fill="black" stroke="black" points="717.13,-119.62 713.63,-109.62 710.13,-119.62 717.13,-119.62"/>
</g>
<!-- 5013xx -->
<g id="node15" class="node">
<title>5013xx</title>
<ellipse fill="none" stroke="black" cx="827.62" cy="-90" rx="48.05" ry="18"/>
<text text-anchor="middle" x="827.62" y="-85.33" font-family="Times,serif" font-size="14.00">5013xx</text>
</g>
<!-- 501xxx&#45;&gt;5013xx -->
<g id="edge14" class="edge">
<title>501xxx&#45;&gt;5013xx</title>
<path fill="none" stroke="black" d="M737.8,-146.15C754.12,-136.13 775.9,-122.76 793.92,-111.7"/>
<polygon fill="black" stroke="black" points="795.5,-114.83 802.19,-106.62 791.84,-108.87 795.5,-114.83"/>
</g>
<!-- 5014xx -->
<g id="node16" class="node">
<title>5014xx</title>
<ellipse fill="none" stroke="black" cx="941.62" cy="-90" rx="48.05" ry="18"/>
<text text-anchor="middle" x="941.62" y="-85.33" font-family="Times,serif" font-size="14.00">5014xx</text>
</g>
<!-- 501xxx&#45;&gt;5014xx -->
<g id="edge15" class="edge">
<title>501xxx&#45;&gt;5014xx</title>
<path fill="none" stroke="black" d="M749.75,-149.91C788.91,-137.89 851.55,-118.65 894.54,-105.46"/>
<polygon fill="black" stroke="black" points="895.31,-108.88 903.84,-102.6 893.26,-102.19 895.31,-108.88"/>
</g>
<!-- 50100x -->
<g id="node17" class="node">
<title>50100x</title>
<polygon fill="mintcream" stroke="darkgreen" points="69.25,-36 0,-36 0,0 69.25,0 69.25,-36"/>
<text text-anchor="middle" x="34.62" y="-13.32" font-family="Times,serif" font-size="14.00">50100x</text>
</g>
<!-- 5010xx&#45;&gt;50100x -->
<g id="edge16" class="edge">
<title>5010xx&#45;&gt;50100x</title>
<path fill="none" stroke="black" d="M214.01,-78.49C180.92,-69.05 131.28,-54.36 80.57,-36.91"/>
<polygon fill="black" stroke="black" points="81.76,-33.62 71.17,-33.65 79.46,-40.24 81.76,-33.62"/>
</g>
<!-- 50101x -->
<g id="node18" class="node">
<title>50101x</title>
<polygon fill="mintcream" stroke="darkgreen" points="156.25,-36 87,-36 87,0 156.25,0 156.25,-36"/>
<text text-anchor="middle" x="121.62" y="-13.32" font-family="Times,serif" font-size="14.00">50101x</text>
</g>
<!-- 5010xx&#45;&gt;50101x -->
<g id="edge17" class="edge">
<title>5010xx&#45;&gt;50101x</title>
<path fill="none" stroke="black" d="M225,-74.67C207.34,-65.15 183.78,-52.47 163.61,-41.61"/>
<polygon fill="black" stroke="black" points="165.52,-38.66 155.06,-37 162.21,-44.83 165.52,-38.66"/>
</g>
<!-- 50102x -->
<g id="node19" class="node">
<title>50102x</title>
<polygon fill="mintcream" stroke="darkgreen" points="243.25,-36 174,-36 174,0 243.25,0 243.25,-36"/>
<text text-anchor="middle" x="208.62" y="-13.32" font-family="Times,serif" font-size="14.00">50102x</text>
</g>
<!-- 5010xx&#45;&gt;50102x -->
<g id="edge18" class="edge">
<title>5010xx&#45;&gt;50102x</title>
<path fill="none" stroke="black" d="M241.22,-72.05C236.43,-64.26 230.63,-54.82 225.26,-46.08"/>
<polygon fill="black" stroke="black" points="228.25,-44.25 220.03,-37.56 222.28,-47.92 228.25,-44.25"/>
</g>
<!-- 50103x -->
<g id="node20" class="node">
<title>50103x</title>
<polygon fill="mintcream" stroke="darkgreen" points="330.25,-36 261,-36 261,0 330.25,0 330.25,-36"/>
<text text-anchor="middle" x="295.62" y="-13.32" font-family="Times,serif" font-size="14.00">50103x</text>
</g>
<!-- 5010xx&#45;&gt;50103x -->
<g id="edge19" class="edge">
<title>5010xx&#45;&gt;50103x</title>
<path fill="none" stroke="black" d="M262.28,-72.05C267.23,-64.18 273.24,-54.62 278.78,-45.79"/>
<polygon fill="black" stroke="black" points="281.6,-47.89 283.96,-37.56 275.68,-44.16 281.6,-47.89"/>
</g>
<!-- 50104x -->
<g id="node21" class="node">
<title>50104x</title>
<polygon fill="mintcream" stroke="darkgreen" points="417.25,-36 348,-36 348,0 417.25,0 417.25,-36"/>
<text text-anchor="middle" x="382.62" y="-13.32" font-family="Times,serif" font-size="14.00">50104x</text>
</g>
<!-- 5010xx&#45;&gt;50104x -->
<g id="edge20" class="edge">
<title>5010xx&#45;&gt;50104x</title>
<path fill="none" stroke="black" d="M278.45,-74.67C296.25,-65.15 319.99,-52.47 340.31,-41.61"/>
<polygon fill="black" stroke="black" points="341.77,-44.8 348.94,-37 338.47,-38.63 341.77,-44.8"/>
</g>
<!-- 50110x -->
<g id="node22" class="node">
<title>50110x</title>
<polygon fill="lavender" stroke="navy" points="504.25,-36 435,-36 435,0 504.25,0 504.25,-36"/>
<text text-anchor="middle" x="469.62" y="-13.32" font-family="Times,serif" font-size="14.00">50110x</text>
</g>
<!-- 5011xx&#45;&gt;50110x -->
<g id="edge21" class="edge">
<title>5011xx&#45;&gt;50110x</title>
<path fill="none" stroke="black" d="M573,-74.67C555.34,-65.15 531.78,-52.47 511.61,-41.61"/>
<polygon fill="black" stroke="black" points="513.52,-38.66 503.06,-37 510.21,-44.83 513.52,-38.66"/>
</g>
<!-- 50111x -->
<g id="node23" class="node">
<title>50111x</title>
<polygon fill="lavender" stroke="navy" points="591.25,-36 522,-36 522,0 591.25,0 591.25,-36"/>
<text text-anchor="middle" x="556.62" y="-13.32" font-family="Times,serif" font-size="14.00">50111x</text>
</g>
<!-- 5011xx&#45;&gt;50111x -->
<g id="edge22" class="edge">
<title>5011xx&#45;&gt;50111x</title>
<path fill="none" stroke="black" d="M589.22,-72.05C584.43,-64.26 578.63,-54.82 573.26,-46.08"/>
<polygon fill="black" stroke="black" points="576.25,-44.25 568.03,-37.56 570.28,-47.92 576.25,-44.25"/>
</g>
<!-- 50112x -->
<g id="node24" class="node">
<title>50112x</title>
<polygon fill="lavender" stroke="navy" points="678.25,-36 609,-36 609,0 678.25,0 678.25,-36"/>
<text text-anchor="middle" x="643.62" y="-13.32" font-family="Times,serif" font-size="14.00">50112x</text>
</g>
<!-- 5011xx&#45;&gt;50112x -->
<g id="edge23" class="edge">
<title>5011xx&#45;&gt;50112x</title>
<path fill="none" stroke="black" d="M610.28,-72.05C615.23,-64.18 621.24,-54.62 626.78,-45.79"/>
<polygon fill="black" stroke="black" points="629.6,-47.89 631.96,-37.56 623.68,-44.16 629.6,-47.89"/>
</g>
<!-- 50113x -->
<g id="node25" class="node">
<title>50113x</title>
<polygon fill="lavender" stroke="navy" points="765.25,-36 696,-36 696,0 765.25,0 765.25,-36"/>
<text text-anchor="middle" x="730.62" y="-13.32" font-family="Times,serif" font-size="14.00">50113x</text>
</g>
<!-- 5011xx&#45;&gt;50113x -->
<g id="edge24" class="edge">
<title>5011xx&#45;&gt;50113x</title>
<path fill="none" stroke="black" d="M626.45,-74.67C644.25,-65.15 667.99,-52.47 688.31,-41.61"/>
<polygon fill="black" stroke="black" points="689.77,-44.8 696.94,-37 686.47,-38.63 689.77,-44.8"/>
</g>
<!-- 50114x -->
<g id="node26" class="node">
<title>50114x</title>
<polygon fill="lavender" stroke="navy" points="852.25,-36 783,-36 783,0 852.25,0 852.25,-36"/>
<text text-anchor="middle" x="817.62" y="-13.32" font-family="Times,serif" font-size="14.00">50114x</text>
</g>
<!-- 5011xx&#45;&gt;50114x -->
<g id="edge25" class="edge">
<title>5011xx&#45;&gt;50114x</title>
<path fill="none" stroke="black" d="M636.35,-78.05C677.57,-65.74 741.89,-46.46 771.72,-36.77"/>
<polygon fill="black" stroke="black" points="772.71,-40.13 781.08,-33.63 770.48,-33.49 772.71,-40.13"/>
</g>
</g>
</svg>
