<?xml version="1.0" encoding="UTF-8" standalone="no"?>
<!DOCTYPE svg PUBLIC "-//W3C//DTD SVG 1.1//EN"
 "http://www.w3.org/Graphics/SVG/1.1/DTD/svg11.dtd">
<!-- Generated by graphviz version 12.2.1 (0)
 -->
<!-- Title: G Pages: 1 -->
<svg width="2506pt" height="816pt"
 viewBox="0.00 0.00 2506.00 815.88" xmlns="http://www.w3.org/2000/svg" xmlns:xlink="http://www.w3.org/1999/xlink">
<g id="graph0" class="graph" transform="scale(1 1) rotate(0) translate(4 811.88)">
<title>G</title>
<polygon fill="white" stroke="none" points="-4,4 -4,-811.88 2502,-811.88 2502,4 -4,4"/>
<g id="clust1" class="cluster">
<title>cluster_NET_wan</title>
<polygon fill="papayawhip" stroke="black" points="8,-461.38 8,-538.62 166,-538.62 166,-461.38 8,-461.38"/>
<text text-anchor="middle" x="87" y="-521.33" font-family="Times,serif" font-size="14.00">WAN</text>
</g>
<g id="clust2" class="cluster">
<title>cluster_vyos1</title>
<polygon fill="none" stroke="black" points="570,-224.75 570,-592.38 1072,-592.38 1072,-224.75 570,-224.75"/>
<text text-anchor="middle" x="821" y="-575.08" font-family="Times,serif" font-size="14.00">§vy1</text>
</g>
<g id="clust3" class="cluster">
<title>cluster_vy1VRF_VRRP</title>
<polygon fill="#a3a3a3" stroke="black" points="679,-458.12 679,-559.12 780,-559.12 780,-458.12 679,-458.12"/>
<text text-anchor="middle" x="729.5" y="-541.83" font-family="Times,serif" font-size="14.00">~VRRP:</text>
<text text-anchor="middle" x="729.5" y="-524.58" font-family="Times,serif" font-size="14.00">10.124.0/24</text>
</g>
<g id="clust4" class="cluster">
<title>cluster_vy1VRF</title>
<polygon fill="#9aff9a" stroke="black" points="578,-232.75 578,-333.75 1064,-333.75 1064,-232.75 578,-232.75"/>
<text text-anchor="middle" x="821" y="-316.45" font-family="Times,serif" font-size="14.00">~</text>
</g>
<g id="clust5" class="cluster">
<title>cluster_vy1VRF_MGMT</title>
<polygon fill="#eed2ee" stroke="black" points="788,-449.5 788,-550.5 962,-550.5 962,-449.5 788,-449.5"/>
<text text-anchor="middle" x="875" y="-533.2" font-family="Times,serif" font-size="14.00">~MGMT</text>
</g>
<g id="clust6" class="cluster">
<title>cluster_vy1NET_pihole</title>
<polygon fill="none" stroke="black" points="970,-458.12 970,-541.88 1064,-541.88 1064,-458.12 970,-458.12"/>
<text text-anchor="middle" x="1017" y="-524.58" font-family="Times,serif" font-size="14.00">§vy1</text>
</g>
<g id="clust7" class="cluster">
<title>cluster_vyos2</title>
<polygon fill="none" stroke="black" points="1988,-8 1988,-375.62 2490,-375.62 2490,-8 1988,-8"/>
<text text-anchor="middle" x="2239" y="-358.32" font-family="Times,serif" font-size="14.00">§vy2</text>
</g>
<g id="clust8" class="cluster">
<title>cluster_vy2VRF_VRRP</title>
<polygon fill="#a3a3a3" stroke="black" points="2016,-241.38 2016,-342.38 2117,-342.38 2117,-241.38 2016,-241.38"/>
<text text-anchor="middle" x="2066.5" y="-325.07" font-family="Times,serif" font-size="14.00">~VRRP</text>
<text text-anchor="middle" x="2066.5" y="-307.82" font-family="Times,serif" font-size="14.00">10.124.0/24</text>
</g>
<g id="clust9" class="cluster">
<title>cluster_vy2VRF</title>
<polygon fill="#9aff9a" stroke="black" points="1996,-16 1996,-117 2482,-117 2482,-16 1996,-16"/>
<text text-anchor="middle" x="2239" y="-99.7" font-family="Times,serif" font-size="14.00">~</text>
</g>
<g id="clust10" class="cluster">
<title>cluster_vy2VRF_MGMT</title>
<polygon fill="#eed2ee" stroke="black" points="2125,-232.75 2125,-333.75 2299,-333.75 2299,-232.75 2125,-232.75"/>
<text text-anchor="middle" x="2212" y="-316.45" font-family="Times,serif" font-size="14.00">~MGMT</text>
</g>
<g id="clust11" class="cluster">
<title>cluster_vy2NET_pihole</title>
<polygon fill="none" stroke="black" points="2307,-241.38 2307,-325.12 2401,-325.12 2401,-241.38 2307,-241.38"/>
<text text-anchor="middle" x="2354" y="-307.82" font-family="Times,serif" font-size="14.00">§vy2</text>
</g>
<g id="clust12" class="cluster">
<title>cluster_VLAN_5</title>
<polygon fill="#cae1ff" stroke="black" points="174,-461.38 174,-555.88 289,-555.88 289,-461.38 174,-461.38"/>
<text text-anchor="middle" x="231.5" y="-538.58" font-family="Times,serif" font-size="14.00">#5 DNS</text>
<text text-anchor="middle" x="231.5" y="-521.33" font-family="Times,serif" font-size="14.00">10.123.5.0/24</text>
</g>
<g id="clust13" class="cluster">
<title>cluster_VLAN_10</title>
<polygon fill="#cae1ff" stroke="black" points="297,-461.38 297,-555.88 421,-555.88 421,-461.38 297,-461.38"/>
<text text-anchor="middle" x="359" y="-538.58" font-family="Times,serif" font-size="14.00">#10 LAN</text>
<text text-anchor="middle" x="359" y="-521.33" font-family="Times,serif" font-size="14.00">10.123.10.0/24</text>
</g>
<g id="clust14" class="cluster">
<title>cluster_VLAN_110</title>
<polygon fill="#cae1ff" stroke="black" points="429,-461.38 429,-555.88 562,-555.88 562,-461.38 429,-461.38"/>
<text text-anchor="middle" x="495.5" y="-538.58" font-family="Times,serif" font-size="14.00">#110 DEV</text>
<text text-anchor="middle" x="495.5" y="-521.33" font-family="Times,serif" font-size="14.00">10.123.168.0/24</text>
</g>
<g id="clust15" class="cluster">
<title>cluster_VLAN_210</title>
<polygon fill="#cae1ff" stroke="black" points="1552,-461.38 1552,-555.88 1685,-555.88 1685,-461.38 1552,-461.38"/>
<text text-anchor="middle" x="1618.5" y="-538.58" font-family="Times,serif" font-size="14.00">#210 SVC</text>
<text text-anchor="middle" x="1618.5" y="-521.33" font-family="Times,serif" font-size="14.00">10.123.164.0/24</text>
</g>
<g id="clust16" class="cluster">
<title>cluster_VLAN_220</title>
<polygon fill="#cae1ff" stroke="black" points="1091,-461.38 1091,-555.88 1224,-555.88 1224,-461.38 1091,-461.38"/>
<text text-anchor="middle" x="1157.5" y="-538.58" font-family="Times,serif" font-size="14.00">#220 LAB</text>
<text text-anchor="middle" x="1157.5" y="-521.33" font-family="Times,serif" font-size="14.00">10.123.168.0/24</text>
</g>
<g id="clust17" class="cluster">
<title>cluster_VLAN_410</title>
<polygon fill="#cae1ff" stroke="black" points="1716,-678.12 1716,-772.62 1849,-772.62 1849,-678.12 1716,-678.12"/>
<text text-anchor="middle" x="1782.5" y="-755.33" font-family="Times,serif" font-size="14.00">#410 MGMT</text>
<text text-anchor="middle" x="1782.5" y="-738.08" font-family="Times,serif" font-size="14.00">10.123.192.0/24</text>
</g>
<g id="clust18" class="cluster">
<title>cluster_VLAN_420</title>
<polygon fill="#cae1ff" stroke="black" points="2091,-678.12 2091,-772.62 2224,-772.62 2224,-678.12 2091,-678.12"/>
<text text-anchor="middle" x="2157.5" y="-755.33" font-family="Times,serif" font-size="14.00">#420 ADMIN</text>
<text text-anchor="middle" x="2157.5" y="-738.08" font-family="Times,serif" font-size="14.00">10.123.208.0/24</text>
</g>
<g id="clust19" class="cluster">
<title>cluster_ddwrt</title>
<polygon fill="none" stroke="black" points="252,-232.75 252,-333.75 494,-333.75 494,-232.75 252,-232.75"/>
<text text-anchor="middle" x="373" y="-316.45" font-family="Times,serif" font-size="14.00">§ddwrt1</text>
</g>
<g id="clust20" class="cluster">
<title>cluster_svc1</title>
<polygon fill="none" stroke="black" points="1108,-224.75 1108,-367 1540,-367 1540,-224.75 1108,-224.75"/>
<text text-anchor="middle" x="1324" y="-349.7" font-family="Times,serif" font-size="14.00">§svc1</text>
</g>
<g id="clust21" class="cluster">
<title>cluster_svc1VRF</title>
<polygon fill="#9aff9a" stroke="black" points="1116,-232.75 1116,-333.75 1438,-333.75 1438,-232.75 1116,-232.75"/>
<text text-anchor="middle" x="1277" y="-316.45" font-family="Times,serif" font-size="14.00">~</text>
</g>
<g id="clust22" class="cluster">
<title>cluster_svc1VRF_MGMT</title>
<polygon fill="#eed2ee" stroke="black" points="1446,-232.75 1446,-333.75 1532,-333.75 1532,-232.75 1446,-232.75"/>
<text text-anchor="middle" x="1489" y="-316.45" font-family="Times,serif" font-size="14.00">~MGMT</text>
</g>
<g id="clust23" class="cluster">
<title>cluster_svc2</title>
<polygon fill="none" stroke="black" points="1548,-224.75 1548,-367 1980,-367 1980,-224.75 1548,-224.75"/>
<text text-anchor="middle" x="1764" y="-349.7" font-family="Times,serif" font-size="14.00">§svc2</text>
</g>
<g id="clust24" class="cluster">
<title>cluster_svc2VRF</title>
<polygon fill="#9aff9a" stroke="black" points="1556,-232.75 1556,-333.75 1878,-333.75 1878,-232.75 1556,-232.75"/>
<text text-anchor="middle" x="1717" y="-316.45" font-family="Times,serif" font-size="14.00">~</text>
</g>
<g id="clust25" class="cluster">
<title>cluster_svc2VRF_MGMT</title>
<polygon fill="#eed2ee" stroke="black" points="1886,-232.75 1886,-333.75 1972,-333.75 1972,-232.75 1886,-232.75"/>
<text text-anchor="middle" x="1929" y="-316.45" font-family="Times,serif" font-size="14.00">~MGMT</text>
</g>
<g id="clust26" class="cluster">
<title>cluster_mgmt1</title>
<polygon fill="none" stroke="black" points="2017,-441.5 2017,-583.75 2207,-583.75 2207,-441.5 2017,-441.5"/>
<text text-anchor="middle" x="2112" y="-566.45" font-family="Times,serif" font-size="14.00">§mgmt1</text>
</g>
<g id="clust28" class="cluster">
<title>cluster_mgmt1VRF_MGMT</title>
<polygon fill="#eed2ee" stroke="black" points="2025,-449.5 2025,-550.5 2199,-550.5 2199,-449.5 2025,-449.5"/>
<text text-anchor="middle" x="2112" y="-533.2" font-family="Times,serif" font-size="14.00">vrf~MGMT</text>
</g>
<g id="clust29" class="cluster">
<title>cluster_mgmt2</title>
<polygon fill="none" stroke="black" points="1819,-441.5 1819,-583.75 2009,-583.75 2009,-441.5 1819,-441.5"/>
<text text-anchor="middle" x="1914" y="-566.45" font-family="Times,serif" font-size="14.00">§mgmt2</text>
</g>
<g id="clust31" class="cluster">
<title>cluster_mgmt2VRF_MGMT</title>
<polygon fill="#eed2ee" stroke="black" points="1827,-449.5 1827,-550.5 2001,-550.5 2001,-449.5 1827,-449.5"/>
<text text-anchor="middle" x="1914" y="-533.2" font-family="Times,serif" font-size="14.00">vrf~MGMT</text>
</g>
<g id="clust32" class="cluster">
<title>cluster_admin1</title>
<polygon fill="none" stroke="black" points="2243,-441.5 2243,-583.75 2356,-583.75 2356,-441.5 2243,-441.5"/>
<text text-anchor="middle" x="2299.5" y="-566.45" font-family="Times,serif" font-size="14.00">§admin1</text>
</g>
<g id="clust33" class="cluster">
<title>cluster_admin1VRF_MGMT</title>
<polygon fill="#eed2ee" stroke="black" points="2251,-449.5 2251,-550.5 2348,-550.5 2348,-449.5 2251,-449.5"/>
<text text-anchor="middle" x="2299.5" y="-533.2" font-family="Times,serif" font-size="14.00">vrf~MGMT</text>
</g>
<!-- wan_uplink -->
<g id="node1" class="node">
<title>wan_uplink</title>
<polygon fill="white" stroke="black" points="158,-505.38 16,-505.38 16,-469.38 158,-469.38 158,-505.38"/>
<text text-anchor="middle" x="87" y="-482.7" font-family="Times,serif" font-size="14.00">123.45.67.100/30</text>
</g>
<!-- vy1_wan -->
<g id="node3" class="node">
<title>vy1_wan</title>
<polygon fill="white" stroke="black" points="640,-291.88 586,-291.88 586,-249.38 640,-249.38 640,-291.88"/>
<text text-anchor="middle" x="613" y="-274.57" font-family="Times,serif" font-size="14.00">WAN</text>
<text text-anchor="middle" x="613" y="-257.32" font-family="Times,serif" font-size="14.00">.101</text>
</g>
<!-- wan_uplink&#45;&#45;vy1_wan -->
<g id="edge31" class="edge">
<title>wan_uplink&#45;&#45;vy1_wan</title>
<path fill="none" stroke="#a3a3a3" d="M114.08,-469.06C129.86,-459.67 150.44,-448.57 170,-441.5 309.83,-390.94 365.21,-442.53 498,-375.62 538.87,-355.03 576.17,-315.93 596.62,-291.98"/>
</g>
<!-- vy2_wan -->
<g id="node13" class="node">
<title>vy2_wan</title>
<polygon fill="white" stroke="black" points="2058,-75.12 2004,-75.12 2004,-32.62 2058,-32.62 2058,-75.12"/>
<text text-anchor="middle" x="2031" y="-57.83" font-family="Times,serif" font-size="14.00">WAN</text>
<text text-anchor="middle" x="2031" y="-40.58" font-family="Times,serif" font-size="14.00">.102</text>
</g>
<!-- wan_uplink&#45;&#45;vy2_wan -->
<g id="edge32" class="edge">
<title>wan_uplink&#45;&#45;vy2_wan</title>
<path fill="none" stroke="#a3a3a3" d="M89.08,-468.92C95.86,-420.66 122.01,-285.02 207,-224.75 360.39,-115.98 1787.08,-63.2 2003.53,-55.79"/>
</g>
<!-- vy1_vrrp -->
<g id="node2" class="node">
<title>vy1_vrrp</title>
<polygon fill="white" stroke="black" points="772.25,-508.62 715.75,-508.62 715.75,-466.12 772.25,-466.12 772.25,-508.62"/>
<text text-anchor="middle" x="744" y="-491.32" font-family="Times,serif" font-size="14.00">VRRP</text>
<text text-anchor="middle" x="744" y="-474.07" font-family="Times,serif" font-size="14.00">.111</text>
</g>
<!-- vy2_vrrp -->
<g id="node12" class="node">
<title>vy2_vrrp</title>
<polygon fill="white" stroke="black" points="2082.25,-291.88 2025.75,-291.88 2025.75,-249.38 2082.25,-249.38 2082.25,-291.88"/>
<text text-anchor="middle" x="2054" y="-274.57" font-family="Times,serif" font-size="14.00">VRRP</text>
<text text-anchor="middle" x="2054" y="-257.32" font-family="Times,serif" font-size="14.00">.222</text>
</g>
<!-- vy1_vrrp&#45;&#45;vy2_vrrp -->
<g id="edge3" class="edge">
<title>vy1_vrrp&#45;&#45;vy2_vrrp</title>
<path fill="none" stroke="#a3a3a3" d="M756.67,-465.97C763.54,-456.8 772.91,-446.85 784,-441.5 1023,-326.35 1742.08,-500.77 1976,-375.62 2010.23,-357.31 2033.67,-316.66 2045.37,-291.95"/>
</g>
<!-- vy1_dns -->
<g id="node4" class="node">
<title>vy1_dns</title>
<polygon fill="white" stroke="black" points="712,-300.5 658,-300.5 658,-240.75 712,-240.75 712,-300.5"/>
<text text-anchor="middle" x="685" y="-283.2" font-family="Times,serif" font-size="14.00">.5.11</text>
<text text-anchor="middle" x="685" y="-265.95" font-family="Times,serif" font-size="14.00">DNS</text>
<text text-anchor="middle" x="685" y="-248.7" font-family="Times,serif" font-size="14.00">#5</text>
</g>
<!-- vy1_lan -->
<g id="node5" class="node">
<title>vy1_lan</title>
<polygon fill="white" stroke="black" points="791.5,-300.5 730.5,-300.5 730.5,-240.75 791.5,-240.75 791.5,-300.5"/>
<text text-anchor="middle" x="761" y="-283.2" font-family="Times,serif" font-size="14.00">.10.11</text>
<text text-anchor="middle" x="761" y="-265.95" font-family="Times,serif" font-size="14.00">LAN</text>
<text text-anchor="middle" x="761" y="-248.7" font-family="Times,serif" font-size="14.00">#10</text>
</g>
<!-- vy1_dev -->
<g id="node6" class="node">
<title>vy1_dev</title>
<polygon fill="white" stroke="black" points="880,-300.5 810,-300.5 810,-240.75 880,-240.75 880,-300.5"/>
<text text-anchor="middle" x="845" y="-283.2" font-family="Times,serif" font-size="14.00">.148.11</text>
<text text-anchor="middle" x="845" y="-265.95" font-family="Times,serif" font-size="14.00">DEV</text>
<text text-anchor="middle" x="845" y="-248.7" font-family="Times,serif" font-size="14.00">#110</text>
</g>
<!-- vy1_svc -->
<g id="node7" class="node">
<title>vy1_svc</title>
<polygon fill="white" stroke="black" points="1056,-300.5 986,-300.5 986,-240.75 1056,-240.75 1056,-300.5"/>
<text text-anchor="middle" x="1021" y="-283.2" font-family="Times,serif" font-size="14.00">.164.11</text>
<text text-anchor="middle" x="1021" y="-265.95" font-family="Times,serif" font-size="14.00">SVC</text>
<text text-anchor="middle" x="1021" y="-248.7" font-family="Times,serif" font-size="14.00">#210</text>
</g>
<!-- vy1_lab -->
<g id="node8" class="node">
<title>vy1_lab</title>
<polygon fill="white" stroke="black" points="968,-300.5 898,-300.5 898,-240.75 968,-240.75 968,-300.5"/>
<text text-anchor="middle" x="933" y="-283.2" font-family="Times,serif" font-size="14.00">.168.11</text>
<text text-anchor="middle" x="933" y="-265.95" font-family="Times,serif" font-size="14.00">LAB</text>
<text text-anchor="middle" x="933" y="-248.7" font-family="Times,serif" font-size="14.00">#220</text>
</g>
<!-- vy1_mgmt -->
<g id="node9" class="node">
<title>vy1_mgmt</title>
<polygon fill="white" stroke="black" points="866,-517.25 796,-517.25 796,-457.5 866,-457.5 866,-517.25"/>
<text text-anchor="middle" x="831" y="-499.95" font-family="Times,serif" font-size="14.00">.192.11</text>
<text text-anchor="middle" x="831" y="-482.7" font-family="Times,serif" font-size="14.00">MGMT</text>
<text text-anchor="middle" x="831" y="-465.45" font-family="Times,serif" font-size="14.00">#410</text>
</g>
<!-- vy1_admin -->
<g id="node10" class="node">
<title>vy1_admin</title>
<polygon fill="white" stroke="black" points="954,-517.25 884,-517.25 884,-457.5 954,-457.5 954,-517.25"/>
<text text-anchor="middle" x="919" y="-499.95" font-family="Times,serif" font-size="14.00">.200.11</text>
<text text-anchor="middle" x="919" y="-482.7" font-family="Times,serif" font-size="14.00">ADMIN</text>
<text text-anchor="middle" x="919" y="-465.45" font-family="Times,serif" font-size="14.00">#420</text>
</g>
<!-- vy1_pihole -->
<g id="node11" class="node">
<title>vy1_pihole</title>
<polygon fill="white" stroke="black" points="1056.12,-508.62 977.88,-508.62 977.88,-466.12 1056.12,-466.12 1056.12,-508.62"/>
<text text-anchor="middle" x="1017" y="-491.32" font-family="Times,serif" font-size="14.00">© pihole</text>
<text text-anchor="middle" x="1017" y="-474.07" font-family="Times,serif" font-size="14.00">1.pihole.</text>
</g>
<!-- vy1_pihole&#45;&#45;vy1_dns -->
<g id="edge1" class="edge">
<title>vy1_pihole&#45;&#45;vy1_dns</title>
<path fill="none" stroke="#a3a3a3" d="M997.79,-465.68C988.85,-457.12 977.64,-447.75 966,-441.5 867.03,-388.37 804.47,-451.89 722,-375.62 701.04,-356.24 691.94,-324.19 688,-300.78"/>
</g>
<!-- vy2_dns -->
<g id="node14" class="node">
<title>vy2_dns</title>
<polygon fill="white" stroke="black" points="2210,-83.75 2156,-83.75 2156,-24 2210,-24 2210,-83.75"/>
<text text-anchor="middle" x="2183" y="-66.45" font-family="Times,serif" font-size="14.00">.5.11</text>
<text text-anchor="middle" x="2183" y="-49.2" font-family="Times,serif" font-size="14.00">DNS</text>
<text text-anchor="middle" x="2183" y="-31.95" font-family="Times,serif" font-size="14.00">#5</text>
</g>
<!-- vy2_lan -->
<g id="node15" class="node">
<title>vy2_lan</title>
<polygon fill="white" stroke="black" points="2137.5,-83.75 2076.5,-83.75 2076.5,-24 2137.5,-24 2137.5,-83.75"/>
<text text-anchor="middle" x="2107" y="-66.45" font-family="Times,serif" font-size="14.00">.10.12</text>
<text text-anchor="middle" x="2107" y="-49.2" font-family="Times,serif" font-size="14.00">LAN</text>
<text text-anchor="middle" x="2107" y="-31.95" font-family="Times,serif" font-size="14.00">#10</text>
</g>
<!-- vy2_dev -->
<g id="node16" class="node">
<title>vy2_dev</title>
<polygon fill="white" stroke="black" points="2298,-83.75 2228,-83.75 2228,-24 2298,-24 2298,-83.75"/>
<text text-anchor="middle" x="2263" y="-66.45" font-family="Times,serif" font-size="14.00">.148.12</text>
<text text-anchor="middle" x="2263" y="-49.2" font-family="Times,serif" font-size="14.00">DEV</text>
<text text-anchor="middle" x="2263" y="-31.95" font-family="Times,serif" font-size="14.00">#110</text>
</g>
<!-- vy2_svc -->
<g id="node17" class="node">
<title>vy2_svc</title>
<polygon fill="white" stroke="black" points="2474,-83.75 2404,-83.75 2404,-24 2474,-24 2474,-83.75"/>
<text text-anchor="middle" x="2439" y="-66.45" font-family="Times,serif" font-size="14.00">.164.12</text>
<text text-anchor="middle" x="2439" y="-49.2" font-family="Times,serif" font-size="14.00">SVC</text>
<text text-anchor="middle" x="2439" y="-31.95" font-family="Times,serif" font-size="14.00">#210</text>
</g>
<!-- vy2_lab -->
<g id="node18" class="node">
<title>vy2_lab</title>
<polygon fill="white" stroke="black" points="2386,-83.75 2316,-83.75 2316,-24 2386,-24 2386,-83.75"/>
<text text-anchor="middle" x="2351" y="-66.45" font-family="Times,serif" font-size="14.00">.168.12</text>
<text text-anchor="middle" x="2351" y="-49.2" font-family="Times,serif" font-size="14.00">LAB</text>
<text text-anchor="middle" x="2351" y="-31.95" font-family="Times,serif" font-size="14.00">#220</text>
</g>
<!-- vy2_mgmt -->
<g id="node19" class="node">
<title>vy2_mgmt</title>
<polygon fill="white" stroke="black" points="2203,-300.5 2133,-300.5 2133,-240.75 2203,-240.75 2203,-300.5"/>
<text text-anchor="middle" x="2168" y="-283.2" font-family="Times,serif" font-size="14.00">.192.12</text>
<text text-anchor="middle" x="2168" y="-265.95" font-family="Times,serif" font-size="14.00">MGMT</text>
<text text-anchor="middle" x="2168" y="-248.7" font-family="Times,serif" font-size="14.00">#410</text>
</g>
<!-- vy2_admin -->
<g id="node20" class="node">
<title>vy2_admin</title>
<polygon fill="white" stroke="black" points="2291,-300.5 2221,-300.5 2221,-240.75 2291,-240.75 2291,-300.5"/>
<text text-anchor="middle" x="2256" y="-283.2" font-family="Times,serif" font-size="14.00">.200.12</text>
<text text-anchor="middle" x="2256" y="-265.95" font-family="Times,serif" font-size="14.00">ADMIN</text>
<text text-anchor="middle" x="2256" y="-248.7" font-family="Times,serif" font-size="14.00">#420</text>
</g>
<!-- vy2_pihole -->
<g id="node21" class="node">
<title>vy2_pihole</title>
<polygon fill="white" stroke="black" points="2393.12,-291.88 2314.88,-291.88 2314.88,-249.38 2393.12,-249.38 2393.12,-291.88"/>
<text text-anchor="middle" x="2354" y="-274.57" font-family="Times,serif" font-size="14.00">© pihole</text>
<text text-anchor="middle" x="2354" y="-257.32" font-family="Times,serif" font-size="14.00">2.pihole.</text>
</g>
<!-- vy2_pihole&#45;&#45;vy2_dns -->
<g id="edge2" class="edge">
<title>vy2_pihole&#45;&#45;vy2_dns</title>
<path fill="none" stroke="#a3a3a3" d="M2333.36,-249.02C2305.57,-220.7 2255.41,-167.5 2219,-117 2211.56,-106.69 2204.34,-94.73 2198.34,-84.07"/>
</g>
<!-- vlan5_net -->
<g id="node22" class="node">
<title>vlan5_net</title>
<polygon fill="white" stroke="black" points="270,-505.38 216,-505.38 216,-469.38 270,-469.38 270,-505.38"/>
<text text-anchor="middle" x="243" y="-482.7" font-family="Times,serif" font-size="14.00">.0</text>
</g>
<!-- vlan5_net&#45;&#45;vy1_dns -->
<g id="edge6" class="edge">
<title>vlan5_net&#45;&#45;vy1_dns</title>
<path fill="none" stroke="#a3a3a3" d="M257.95,-468.88C267.1,-459.31 279.6,-448.09 293,-441.5 437.38,-370.47 527,-480.54 649,-375.62 670.73,-356.94 679.35,-324.44 682.77,-300.74"/>
</g>
<!-- vlan5_net&#45;&#45;vy2_dns -->
<g id="edge13" class="edge">
<title>vlan5_net&#45;&#45;vy2_dns</title>
<path fill="none" stroke="#a3a3a3" d="M236.43,-469.07C219.94,-422.36 182.61,-292.65 248,-224.75 394.61,-72.53 1966.95,-227.67 2147,-117 2159.11,-109.56 2167.57,-96.42 2173.23,-84.14"/>
</g>
<!-- vlan10_net -->
<g id="node23" class="node">
<title>vlan10_net</title>
<polygon fill="white" stroke="black" points="413,-505.38 359,-505.38 359,-469.38 413,-469.38 413,-505.38"/>
<text text-anchor="middle" x="386" y="-482.7" font-family="Times,serif" font-size="14.00">.0</text>
</g>
<!-- vlan10_net&#45;&#45;vy1_lan -->
<g id="edge7" class="edge">
<title>vlan10_net&#45;&#45;vy1_lan</title>
<path fill="none" stroke="#a3a3a3" d="M396.99,-469.01C403.9,-459.48 413.65,-448.26 425,-441.5 540.79,-372.54 618.91,-463.61 721,-375.62 742.98,-356.68 752.94,-324.23 757.41,-300.61"/>
</g>
<!-- vlan10_net&#45;&#45;vy2_lan -->
<g id="edge14" class="edge">
<title>vlan10_net&#45;&#45;vy2_lan</title>
<path fill="none" stroke="#a3a3a3" d="M400.34,-468.89C407.52,-460.41 416.47,-450.19 425,-441.5 455.61,-410.31 475.24,-412.93 498,-375.62 534.14,-316.41 484.54,-268.96 538,-224.75 800.49,-7.67 1773.9,-290.53 2067,-117 2079.58,-109.55 2088.89,-96.42 2095.35,-84.14"/>
</g>
<!-- ddwrt_home -->
<g id="node30" class="node">
<title>ddwrt_home</title>
<polygon fill="white" stroke="black" points="406,-300.5 342,-300.5 342,-240.75 406,-240.75 406,-300.5"/>
<text text-anchor="middle" x="374" y="-283.2" font-family="Times,serif" font-size="14.00">.11.10</text>
<text text-anchor="middle" x="374" y="-265.95" font-family="Times,serif" font-size="14.00">HOME</text>
<text text-anchor="middle" x="374" y="-248.7" font-family="Times,serif" font-size="14.00">#10</text>
</g>
<!-- vlan10_net&#45;&#45;ddwrt_home -->
<g id="edge4" class="edge">
<title>vlan10_net&#45;&#45;ddwrt_home</title>
<path fill="none" stroke="#a3a3a3" d="M385.04,-469.16C382.99,-432.44 378.16,-346.04 375.62,-300.65"/>
</g>
<!-- ddwrt_wifi -->
<g id="node31" class="node">
<title>ddwrt_wifi</title>
<polygon fill="white" stroke="black" points="485.5,-300.5 424.5,-300.5 424.5,-240.75 485.5,-240.75 485.5,-300.5"/>
<text text-anchor="middle" x="455" y="-283.2" font-family="Times,serif" font-size="14.00">.12.10</text>
<text text-anchor="middle" x="455" y="-265.95" font-family="Times,serif" font-size="14.00">WIFI</text>
<text text-anchor="middle" x="455" y="-248.7" font-family="Times,serif" font-size="14.00">#11</text>
</g>
<!-- vlan10_net&#45;&#45;ddwrt_wifi -->
<g id="edge5" class="edge">
<title>vlan10_net&#45;&#45;ddwrt_wifi</title>
<path fill="none" stroke="#a3a3a3" d="M391.53,-469.16C403.33,-432.44 431.09,-346.04 445.67,-300.65"/>
</g>
<!-- vlan110_net -->
<g id="node24" class="node">
<title>vlan110_net</title>
<polygon fill="white" stroke="black" points="554,-505.38 500,-505.38 500,-469.38 554,-469.38 554,-505.38"/>
<text text-anchor="middle" x="527" y="-482.7" font-family="Times,serif" font-size="14.00">.0</text>
</g>
<!-- vlan110_net&#45;&#45;vy1_dev -->
<g id="edge8" class="edge">
<title>vlan110_net&#45;&#45;vy1_dev</title>
<path fill="none" stroke="#a3a3a3" d="M554.42,-478.24C616.29,-459.44 764.25,-411.79 801,-375.62 821.68,-355.27 833.16,-323.69 839.16,-300.67"/>
</g>
<!-- vlan110_net&#45;&#45;vy2_dev -->
<g id="edge15" class="edge">
<title>vlan110_net&#45;&#45;vy2_dev</title>
<path fill="none" stroke="#a3a3a3" d="M527.44,-469.11C529.19,-416.12 537.44,-257.42 574,-224.75 847.18,19.34 1899.28,-295.83 2219,-117 2232.15,-109.64 2242.31,-96.52 2249.54,-84.22"/>
</g>
<!-- vlan210_net -->
<g id="node25" class="node">
<title>vlan210_net</title>
<polygon fill="white" stroke="black" points="1630,-505.38 1576,-505.38 1576,-469.38 1630,-469.38 1630,-505.38"/>
<text text-anchor="middle" x="1603" y="-482.7" font-family="Times,serif" font-size="14.00">.0</text>
</g>
<!-- vlan210_net&#45;&#45;vy1_svc -->
<g id="edge9" class="edge">
<title>vlan210_net&#45;&#45;vy1_svc</title>
<path fill="none" stroke="#a3a3a3" d="M1575.58,-486C1497.43,-483.78 1269.12,-469.15 1112,-375.62 1081.08,-357.22 1055.15,-324.68 1038.98,-300.88"/>
</g>
<!-- vlan210_net&#45;&#45;vy2_svc -->
<g id="edge16" class="edge">
<title>vlan210_net&#45;&#45;vy2_svc</title>
<path fill="none" stroke="#a3a3a3" d="M1630.28,-479.08C1714.21,-456.52 1963.65,-388.67 1976,-375.62 2023.4,-325.57 1964.24,-274.46 2012,-224.75 2134.51,-97.24 2250.51,-218.94 2395,-117 2406.99,-108.54 2416.85,-95.74 2424.18,-83.95"/>
</g>
<!-- svc1_vif_svc -->
<g id="node32" class="node">
<title>svc1_vif_svc</title>
<polygon fill="white" stroke="black" points="1282,-300.5 1212,-300.5 1212,-240.75 1282,-240.75 1282,-300.5"/>
<text text-anchor="middle" x="1247" y="-283.2" font-family="Times,serif" font-size="14.00">.164.21</text>
<text text-anchor="middle" x="1247" y="-265.95" font-family="Times,serif" font-size="14.00">SVC</text>
<text text-anchor="middle" x="1247" y="-248.7" font-family="Times,serif" font-size="14.00">#210</text>
</g>
<!-- vlan210_net&#45;&#45;svc1_vif_svc -->
<g id="edge20" class="edge">
<title>vlan210_net&#45;&#45;svc1_vif_svc</title>
<path fill="none" stroke="#a3a3a3" d="M1575.86,-484.02C1516.6,-477.48 1374.24,-454.08 1291,-375.62 1269.89,-355.72 1258.48,-324.07 1252.61,-300.91"/>
</g>
<!-- svc2_vif_svc -->
<g id="node37" class="node">
<title>svc2_vif_svc</title>
<polygon fill="white" stroke="black" points="1722,-300.5 1652,-300.5 1652,-240.75 1722,-240.75 1722,-300.5"/>
<text text-anchor="middle" x="1687" y="-283.2" font-family="Times,serif" font-size="14.00">.164.21</text>
<text text-anchor="middle" x="1687" y="-265.95" font-family="Times,serif" font-size="14.00">SVC</text>
<text text-anchor="middle" x="1687" y="-248.7" font-family="Times,serif" font-size="14.00">#210</text>
</g>
<!-- vlan210_net&#45;&#45;svc2_vif_svc -->
<g id="edge21" class="edge">
<title>vlan210_net&#45;&#45;svc2_vif_svc</title>
<path fill="none" stroke="#a3a3a3" d="M1609.73,-469.16C1624.1,-432.44 1657.89,-346.04 1675.65,-300.65"/>
</g>
<!-- vlan220_net -->
<g id="node26" class="node">
<title>vlan220_net</title>
<polygon fill="white" stroke="black" points="1164,-505.38 1110,-505.38 1110,-469.38 1164,-469.38 1164,-505.38"/>
<text text-anchor="middle" x="1137" y="-482.7" font-family="Times,serif" font-size="14.00">.0</text>
</g>
<!-- vlan220_net&#45;&#45;vy1_lab -->
<g id="edge10" class="edge">
<title>vlan220_net&#45;&#45;vy1_lab</title>
<path fill="none" stroke="#a3a3a3" d="M1110.22,-469.02C1067.31,-441.04 986.94,-387.85 977,-375.62 959.06,-353.57 947.33,-323.13 940.53,-300.89"/>
</g>
<!-- vlan220_net&#45;&#45;vy2_lab -->
<g id="edge17" class="edge">
<title>vlan220_net&#45;&#45;vy2_lab</title>
<path fill="none" stroke="#a3a3a3" d="M1127.6,-468.95C1103.95,-422.5 1048.28,-294.47 1112,-224.75 1291.87,-27.93 2075.91,-250 2307,-117 2320.06,-109.48 2330.21,-96.34 2337.46,-84.08"/>
</g>
<!-- svc1_vif_lab -->
<g id="node33" class="node">
<title>svc1_vif_lab</title>
<polygon fill="white" stroke="black" points="1194,-300.5 1124,-300.5 1124,-240.75 1194,-240.75 1194,-300.5"/>
<text text-anchor="middle" x="1159" y="-283.2" font-family="Times,serif" font-size="14.00">.168.21</text>
<text text-anchor="middle" x="1159" y="-265.95" font-family="Times,serif" font-size="14.00">LAB</text>
<text text-anchor="middle" x="1159" y="-248.7" font-family="Times,serif" font-size="14.00">#220</text>
</g>
<!-- vlan220_net&#45;&#45;svc1_vif_lab -->
<g id="edge22" class="edge">
<title>vlan220_net&#45;&#45;svc1_vif_lab</title>
<path fill="none" stroke="#a3a3a3" d="M1138.76,-469.16C1142.53,-432.44 1151.38,-346.04 1156.03,-300.65"/>
</g>
<!-- svc2_vif_lab -->
<g id="node38" class="node">
<title>svc2_vif_lab</title>
<polygon fill="white" stroke="black" points="1634,-300.5 1564,-300.5 1564,-240.75 1634,-240.75 1634,-300.5"/>
<text text-anchor="middle" x="1599" y="-283.2" font-family="Times,serif" font-size="14.00">.168.21</text>
<text text-anchor="middle" x="1599" y="-265.95" font-family="Times,serif" font-size="14.00">LAB</text>
<text text-anchor="middle" x="1599" y="-248.7" font-family="Times,serif" font-size="14.00">#220</text>
</g>
<!-- vlan220_net&#45;&#45;svc2_vif_lab -->
<g id="edge23" class="edge">
<title>vlan220_net&#45;&#45;svc2_vif_lab</title>
<path fill="none" stroke="#a3a3a3" d="M1164.47,-485.52C1233.79,-482.06 1418.68,-464.52 1536,-375.62 1561.07,-356.63 1578.3,-324.51 1588.32,-300.99"/>
</g>
<!-- vlan410_net -->
<g id="node27" class="node">
<title>vlan410_net</title>
<polygon fill="white" stroke="black" points="1809,-722.12 1755,-722.12 1755,-686.12 1809,-686.12 1809,-722.12"/>
<text text-anchor="middle" x="1782" y="-699.45" font-family="Times,serif" font-size="14.00">.0</text>
</g>
<!-- vlan410_net&#45;&#45;vy1_mgmt -->
<g id="edge11" class="edge">
<title>vlan410_net&#45;&#45;vy1_mgmt</title>
<path fill="none" stroke="#a3a3a3" d="M1754.81,-703.36C1619.39,-704.01 1018.61,-700.65 875,-592.38 851.36,-574.55 840.3,-541.57 835.2,-517.52"/>
</g>
<!-- vlan410_net&#45;&#45;vy2_mgmt -->
<g id="edge18" class="edge">
<title>vlan410_net&#45;&#45;vy2_mgmt</title>
<path fill="none" stroke="#a3a3a3" d="M1782.26,-685.74C1783.41,-633.13 1789.63,-477.01 1823,-441.5 1915.89,-342.65 2015.7,-461.12 2121,-375.62 2144.07,-356.89 2156.24,-324.41 2162.37,-300.72"/>
</g>
<!-- svc1_vif_mgmt -->
<g id="node36" class="node">
<title>svc1_vif_mgmt</title>
<polygon fill="white" stroke="black" points="1524,-300.5 1454,-300.5 1454,-240.75 1524,-240.75 1524,-300.5"/>
<text text-anchor="middle" x="1489" y="-283.2" font-family="Times,serif" font-size="14.00">.192.31</text>
<text text-anchor="middle" x="1489" y="-265.95" font-family="Times,serif" font-size="14.00">SVC</text>
<text text-anchor="middle" x="1489" y="-248.7" font-family="Times,serif" font-size="14.00">#410</text>
</g>
<!-- vlan410_net&#45;&#45;svc1_vif_mgmt -->
<g id="edge24" class="edge">
<title>vlan410_net&#45;&#45;svc1_vif_mgmt</title>
<path fill="none" stroke="#a3a3a3" d="M1754.52,-698.49C1704.82,-688.59 1600.32,-660.44 1548,-592.38 1480.02,-503.94 1481.73,-361.67 1486.13,-300.79"/>
</g>
<!-- svc2_vif_mgmt -->
<g id="node41" class="node">
<title>svc2_vif_mgmt</title>
<polygon fill="white" stroke="black" points="1964,-300.5 1894,-300.5 1894,-240.75 1964,-240.75 1964,-300.5"/>
<text text-anchor="middle" x="1929" y="-283.2" font-family="Times,serif" font-size="14.00">.192.32</text>
<text text-anchor="middle" x="1929" y="-265.95" font-family="Times,serif" font-size="14.00">SVC</text>
<text text-anchor="middle" x="1929" y="-248.7" font-family="Times,serif" font-size="14.00">#410</text>
</g>
<!-- vlan410_net&#45;&#45;svc2_vif_mgmt -->
<g id="edge25" class="edge">
<title>vlan410_net&#45;&#45;svc2_vif_mgmt</title>
<path fill="none" stroke="#a3a3a3" d="M1777.28,-685.89C1766.27,-641.98 1743.02,-523.59 1787,-441.5 1811.26,-396.21 1849.12,-415.1 1882,-375.62 1900.39,-353.55 1913.02,-323.12 1920.52,-300.88"/>
</g>
<!-- mgmt1_vif_mgmt -->
<g id="node42" class="node">
<title>mgmt1_vif_mgmt</title>
<polygon fill="white" stroke="black" points="2103,-517.25 2033,-517.25 2033,-457.5 2103,-457.5 2103,-517.25"/>
<text text-anchor="middle" x="2068" y="-499.95" font-family="Times,serif" font-size="14.00">.192.21</text>
<text text-anchor="middle" x="2068" y="-482.7" font-family="Times,serif" font-size="14.00">MGMT</text>
<text text-anchor="middle" x="2068" y="-465.45" font-family="Times,serif" font-size="14.00">#410</text>
</g>
<!-- vlan410_net&#45;&#45;mgmt1_vif_mgmt -->
<g id="edge26" class="edge">
<title>vlan410_net&#45;&#45;mgmt1_vif_mgmt</title>
<path fill="none" stroke="#a3a3a3" d="M1809.26,-695.14C1854.43,-680.78 1945.66,-646.95 2005,-592.38 2027.84,-571.37 2045.22,-540.2 2055.88,-517.46"/>
</g>
<!-- mgmt2_vif_mgmt -->
<g id="node44" class="node">
<title>mgmt2_vif_mgmt</title>
<polygon fill="white" stroke="black" points="1905,-517.25 1835,-517.25 1835,-457.5 1905,-457.5 1905,-517.25"/>
<text text-anchor="middle" x="1870" y="-499.95" font-family="Times,serif" font-size="14.00">.192.22</text>
<text text-anchor="middle" x="1870" y="-482.7" font-family="Times,serif" font-size="14.00">MGMT</text>
<text text-anchor="middle" x="1870" y="-465.45" font-family="Times,serif" font-size="14.00">#410</text>
</g>
<!-- vlan410_net&#45;&#45;mgmt2_vif_mgmt -->
<g id="edge27" class="edge">
<title>vlan410_net&#45;&#45;mgmt2_vif_mgmt</title>
<path fill="none" stroke="#a3a3a3" d="M1789.05,-685.91C1804.1,-649.19 1839.5,-562.79 1858.11,-517.4"/>
</g>
<!-- vlan420_net -->
<g id="node28" class="node">
<title>vlan420_net</title>
<polygon fill="white" stroke="black" points="2183,-722.12 2129,-722.12 2129,-686.12 2183,-686.12 2183,-722.12"/>
<text text-anchor="middle" x="2156" y="-699.45" font-family="Times,serif" font-size="14.00">.0</text>
</g>
<!-- vlan420_net&#45;&#45;vy1_admin -->
<g id="edge12" class="edge">
<title>vlan420_net&#45;&#45;vy1_admin</title>
<path fill="none" stroke="#a3a3a3" d="M2128.78,-690.6C2076.63,-667.34 1958.42,-618.25 1853,-600.38 1828.71,-596.26 986.64,-605.83 966,-592.38 940.6,-575.82 928.78,-541.91 923.37,-517.29"/>
</g>
<!-- vlan420_net&#45;&#45;vy2_admin -->
<g id="edge19" class="edge">
<title>vlan420_net&#45;&#45;vy2_admin</title>
<path fill="none" stroke="#a3a3a3" d="M2164.81,-685.95C2175.42,-664.57 2193.04,-626.68 2203,-592.38 2233.45,-487.49 2248.15,-357.91 2253.51,-300.89"/>
</g>
<!-- mgmt1_vif_admin -->
<g id="node43" class="node">
<title>mgmt1_vif_admin</title>
<polygon fill="white" stroke="black" points="2191,-517.25 2121,-517.25 2121,-457.5 2191,-457.5 2191,-517.25"/>
<text text-anchor="middle" x="2156" y="-499.95" font-family="Times,serif" font-size="14.00">.200.31</text>
<text text-anchor="middle" x="2156" y="-482.7" font-family="Times,serif" font-size="14.00">ADMIN</text>
<text text-anchor="middle" x="2156" y="-465.45" font-family="Times,serif" font-size="14.00">#420</text>
</g>
<!-- vlan420_net&#45;&#45;mgmt1_vif_admin -->
<g id="edge28" class="edge">
<title>vlan420_net&#45;&#45;mgmt1_vif_admin</title>
<path fill="none" stroke="#a3a3a3" d="M2156,-685.91C2156,-649.19 2156,-562.79 2156,-517.4"/>
</g>
<!-- mgmt2_vif_admin -->
<g id="node45" class="node">
<title>mgmt2_vif_admin</title>
<polygon fill="white" stroke="black" points="1993,-517.25 1923,-517.25 1923,-457.5 1993,-457.5 1993,-517.25"/>
<text text-anchor="middle" x="1958" y="-499.95" font-family="Times,serif" font-size="14.00">.200.32</text>
<text text-anchor="middle" x="1958" y="-482.7" font-family="Times,serif" font-size="14.00">ADMIN</text>
<text text-anchor="middle" x="1958" y="-465.45" font-family="Times,serif" font-size="14.00">#420</text>
</g>
<!-- vlan420_net&#45;&#45;mgmt2_vif_admin -->
<g id="edge29" class="edge">
<title>vlan420_net&#45;&#45;mgmt2_vif_admin</title>
<path fill="none" stroke="#a3a3a3" d="M2129.9,-685.78C2100.94,-665.68 2053.96,-630.4 2021,-592.38 2001.09,-569.41 1983.64,-539.37 1972.19,-517.49"/>
</g>
<!-- admin1_vif_admin -->
<g id="node46" class="node">
<title>admin1_vif_admin</title>
<polygon fill="white" stroke="black" points="2329,-517.25 2259,-517.25 2259,-457.5 2329,-457.5 2329,-517.25"/>
<text text-anchor="middle" x="2294" y="-499.95" font-family="Times,serif" font-size="14.00">.200.21</text>
<text text-anchor="middle" x="2294" y="-482.7" font-family="Times,serif" font-size="14.00">ADMIN</text>
<text text-anchor="middle" x="2294" y="-465.45" font-family="Times,serif" font-size="14.00">#420</text>
</g>
<!-- vlan420_net&#45;&#45;admin1_vif_admin -->
<g id="edge30" class="edge">
<title>vlan420_net&#45;&#45;admin1_vif_admin</title>
<path fill="none" stroke="#a3a3a3" d="M2163.71,-685.84C2174.33,-663.64 2195.35,-625.04 2223,-600.38 2228.93,-595.08 2233.31,-597.93 2239,-592.38 2260.47,-571.39 2275.42,-540.21 2284.26,-517.47"/>
</g>
<!-- ddwrt_lan -->
<g id="node29" class="node">
<title>ddwrt_lan</title>
<polygon fill="white" stroke="black" points="324,-300.5 260,-300.5 260,-240.75 324,-240.75 324,-300.5"/>
<text text-anchor="middle" x="292" y="-283.2" font-family="Times,serif" font-size="14.00">.10.10</text>
<text text-anchor="middle" x="292" y="-265.95" font-family="Times,serif" font-size="14.00">HOME</text>
<text text-anchor="middle" x="292" y="-248.7" font-family="Times,serif" font-size="14.00">#10</text>
</g>
<!-- svc1_vif_vm1 -->
<g id="node34" class="node">
<title>svc1_vif_vm1</title>
<polygon fill="white" stroke="black" points="1355.88,-288.62 1300.12,-288.62 1300.12,-252.62 1355.88,-252.62 1355.88,-288.62"/>
<text text-anchor="middle" x="1328" y="-265.95" font-family="Times,serif" font-size="14.00">vm11</text>
</g>
<!-- svc1_vif_vm2 -->
<g id="node35" class="node">
<title>svc1_vif_vm2</title>
<polygon fill="white" stroke="black" points="1429.88,-288.62 1374.12,-288.62 1374.12,-252.62 1429.88,-252.62 1429.88,-288.62"/>
<text text-anchor="middle" x="1402" y="-265.95" font-family="Times,serif" font-size="14.00">vm12</text>
</g>
<!-- svc2_vif_vm1 -->
<g id="node39" class="node">
<title>svc2_vif_vm1</title>
<polygon fill="white" stroke="black" points="1795.88,-288.62 1740.12,-288.62 1740.12,-252.62 1795.88,-252.62 1795.88,-288.62"/>
<text text-anchor="middle" x="1768" y="-265.95" font-family="Times,serif" font-size="14.00">vm21</text>
</g>
<!-- svc2_vif_vm2 -->
<g id="node40" class="node">
<title>svc2_vif_vm2</title>
<polygon fill="white" stroke="black" points="1869.88,-288.62 1814.12,-288.62 1814.12,-252.62 1869.88,-252.62 1869.88,-288.62"/>
<text text-anchor="middle" x="1842" y="-265.95" font-family="Times,serif" font-size="14.00">vm22</text>
</g>
<!-- legend -->
<g id="node47" class="node">
<title>legend</title>
<polygon fill="white" stroke="black" points="2452.38,-807.88 2231.62,-807.88 2231.62,-600.38 2452.38,-600.38 2452.38,-807.88"/>
<text text-anchor="middle" x="2342" y="-781.08" font-family="Times,serif" font-size="24.00">§ server</text>
<text text-anchor="middle" x="2342" y="-752.58" font-family="Times,serif" font-size="24.00">¶ Port</text>
<text text-anchor="middle" x="2342" y="-724.08" font-family="Times,serif" font-size="24.00">ß Bridge</text>
<text text-anchor="middle" x="2342" y="-695.58" font-family="Times,serif" font-size="24.00"># VLAN</text>
<text text-anchor="middle" x="2342" y="-667.08" font-family="Times,serif" font-size="24.00">® VRF</text>
<text text-anchor="middle" x="2342" y="-638.58" font-family="Times,serif" font-size="24.00">© Container Net</text>
<text text-anchor="middle" x="2342" y="-610.08" font-family="Times,serif" font-size="24.00">¢ Container </text>
</g>
</g>
</svg>
