<svg width="100" height="116" version="1.1" xmlns="http://www.w3.org/2000/svg" xmlns:xlink="http://www.w3.org/1999/xlink" foreground="#000000" background="#FFFFFF"> <rect width="10" height="10" x="13" y="13" fill="#FFFFFF" stroke="#000000" stroke-width="1"></rect> <rect width="10" height="10" x="29" y="13" fill="#FFFFFF" stroke="#0000FF" stroke-width="1"></rect> <rect width="10" height="10" x="45" y="13" fill="#FFFFFF" stroke="#FF0000" stroke-width="1"></rect> <rect width="10" height="10" x="61" y="13" fill="#FFFFFF" stroke="#00E000" stroke-width="1"></rect> <rect width="10" height="10" x="77" y="13" fill="#FFFFFF" stroke="#D0D000" stroke-width="1"></rect> <rect width="10" height="10" x="13" y="29" fill="#FF8000"></rect> <rect width="10" height="10" x="29" y="29" fill="#00E0E0"></rect> <rect width="10" height="10" x="45" y="29" fill="#FF00FF"></rect> <rect width="10" height="10" x="61" y="29" fill="#B4B4B4"></rect> <rect width="10" height="10" x="77" y="29" fill="#0000A0"></rect> <rect width="10" height="10" x="13" y="45" fill="#A00000"></rect> <rect width="10" height="10" x="29" y="45" fill="#00A000"></rect> <rect width="10" height="10" x="45" y="45" fill="#A0A000"></rect> <rect width="10" height="10" x="61" y="45" fill="#C08000"></rect> <rect width="10" height="10" x="77" y="45" fill="#00A0FF"></rect> <rect width="10" height="10" x="13" y="61" fill="#A000A0"></rect> <rect width="10" height="10" x="29" y="61" fill="#808080"></rect> <rect width="10" height="10" x="45" y="61" fill="#7d87b9"></rect> <rect width="10" height="10" x="61" y="61" fill="#BB7784"></rect> <rect width="10" height="10" x="77" y="61" fill="#4A6FE3"></rect> <rect width="10" height="10" x="13" y="77" fill="#D33F6A"></rect> <rect width="10" height="10" x="29" y="77" fill="#8CD78C"></rect> <rect width="10" height="10" x="45" y="77" fill="#F0B98D"></rect> <rect width="10" height="10" x="61" y="77" fill="#F6C4E1"></rect> <rect width="10" height="10" x="77" y="77" fill="#FA9ED4"></rect> <rect width="10" height="10" x="13" y="93" fill="#500A78"></rect> <rect width="10" height="10" x="29" y="93" fill="#B45A00"></rect> <rect width="10" height="10" x="45" y="93" fill="#004754"></rect> <rect width="10" height="10" x="61" y="93" fill="#86FA88"></rect> <rect width="10" height="10" x="77" y="93" fill="#FFDB66"></rect></svg>