<?xml version="1.0" encoding="UTF-8" standalone="no"?>
<!DOCTYPE svg PUBLIC "-//W3C//DTD SVG 1.1//EN"
 "http://www.w3.org/Graphics/SVG/1.1/DTD/svg11.dtd">
<!-- Generated by graphviz version 12.2.1 (0)
 -->
<!-- Title: ArcadeDrive Pages: 1 -->
<svg width="474pt" height="692pt"
 viewBox="0.00 0.00 474.27 692.10" xmlns="http://www.w3.org/2000/svg" xmlns:xlink="http://www.w3.org/1999/xlink">
<g id="graph0" class="graph" transform="scale(1 1) rotate(0) translate(4 688.1)">
<title>ArcadeDrive</title>
<polygon fill="white" stroke="none" points="-4,4 -4,-688.1 470.27,-688.1 470.27,4 -4,4"/>
<!-- com_ctre_phoenix6_CANBus -->
<g id="node1" class="node">
<title>com_ctre_phoenix6_CANBus</title>
<ellipse fill="none" stroke="black" cx="306.47" cy="-576.05" rx="104.65" ry="30.05"/>
<text text-anchor="middle" x="306.47" y="-580" font-family="Times,serif" font-size="14.00">com.ctre.phoenix6</text>
<text text-anchor="middle" x="306.47" y="-562.75" font-family="Times,serif" font-size="14.00">CANBus</text>
</g>
<!-- com_ctre_phoenix6_configs_TalonFXConfiguration -->
<g id="node2" class="node">
<title>com_ctre_phoenix6_configs_TalonFXConfiguration</title>
<ellipse fill="none" stroke="black" cx="306.47" cy="-498.05" rx="159.81" ry="30.05"/>
<text text-anchor="middle" x="306.47" y="-502" font-family="Times,serif" font-size="14.00">com.ctre.phoenix6</text>
<text text-anchor="middle" x="306.47" y="-484.75" font-family="Times,serif" font-size="14.00">configs.TalonFXConfiguration</text>
</g>
<!-- com_ctre_phoenix6_controls_DutyCycleOut -->
<g id="node3" class="node">
<title>com_ctre_phoenix6_controls_DutyCycleOut</title>
<ellipse fill="none" stroke="black" cx="306.47" cy="-420.05" rx="125.87" ry="30.05"/>
<text text-anchor="middle" x="306.47" y="-424" font-family="Times,serif" font-size="14.00">com.ctre.phoenix6</text>
<text text-anchor="middle" x="306.47" y="-406.75" font-family="Times,serif" font-size="14.00">controls.DutyCycleOut</text>
</g>
<!-- com_ctre_phoenix6_controls_Follower -->
<g id="node4" class="node">
<title>com_ctre_phoenix6_controls_Follower</title>
<ellipse fill="none" stroke="black" cx="306.47" cy="-342.05" rx="104.65" ry="30.05"/>
<text text-anchor="middle" x="306.47" y="-346" font-family="Times,serif" font-size="14.00">com.ctre.phoenix6</text>
<text text-anchor="middle" x="306.47" y="-328.75" font-family="Times,serif" font-size="14.00">controls.Follower</text>
</g>
<!-- com_ctre_phoenix6_hardware_TalonFX -->
<g id="node5" class="node">
<title>com_ctre_phoenix6_hardware_TalonFX</title>
<ellipse fill="none" stroke="black" cx="306.47" cy="-264.05" rx="104.65" ry="30.05"/>
<text text-anchor="middle" x="306.47" y="-268" font-family="Times,serif" font-size="14.00">com.ctre.phoenix6</text>
<text text-anchor="middle" x="306.47" y="-250.75" font-family="Times,serif" font-size="14.00">hardware.TalonFX</text>
</g>
<!-- com_ctre_phoenix6_signals_InvertedValue -->
<g id="node6" class="node">
<title>com_ctre_phoenix6_signals_InvertedValue</title>
<ellipse fill="none" stroke="black" cx="306.47" cy="-186.05" rx="120.56" ry="30.05"/>
<text text-anchor="middle" x="306.47" y="-190" font-family="Times,serif" font-size="14.00">com.ctre.phoenix6</text>
<text text-anchor="middle" x="306.47" y="-172.75" font-family="Times,serif" font-size="14.00">signals.InvertedValue</text>
</g>
<!-- edu_wpi_first_wpilibj_RobotBase -->
<g id="node7" class="node">
<title>edu_wpi_first_wpilibj_RobotBase</title>
<ellipse fill="none" stroke="black" cx="306.47" cy="-654.05" rx="102.53" ry="30.05"/>
<text text-anchor="middle" x="306.47" y="-658" font-family="Times,serif" font-size="14.00">edu.wpi.first</text>
<text text-anchor="middle" x="306.47" y="-640.75" font-family="Times,serif" font-size="14.00">wpilibj.RobotBase</text>
</g>
<!-- edu_wpi_first_wpilibj_TimedRobot -->
<g id="node8" class="node">
<title>edu_wpi_first_wpilibj_TimedRobot</title>
<ellipse fill="none" stroke="black" cx="306.47" cy="-108.05" rx="109.42" ry="30.05"/>
<text text-anchor="middle" x="306.47" y="-112" font-family="Times,serif" font-size="14.00">edu.wpi.first</text>
<text text-anchor="middle" x="306.47" y="-94.75" font-family="Times,serif" font-size="14.00">wpilibj.TimedRobot</text>
</g>
<!-- edu_wpi_first_wpilibj_XboxController -->
<g id="node9" class="node">
<title>edu_wpi_first_wpilibj_XboxController</title>
<ellipse fill="none" stroke="black" cx="306.47" cy="-30.05" rx="124.8" ry="30.05"/>
<text text-anchor="middle" x="306.47" y="-34" font-family="Times,serif" font-size="14.00">edu.wpi.first</text>
<text text-anchor="middle" x="306.47" y="-16.75" font-family="Times,serif" font-size="14.00">wpilibj.XboxController</text>
</g>
<!-- frc_robot_Main -->
<g id="node10" class="node">
<title>frc_robot_Main</title>
<ellipse fill="none" stroke="black" cx="55.33" cy="-654.05" rx="55.33" ry="30.05"/>
<text text-anchor="middle" x="55.33" y="-658" font-family="Times,serif" font-size="14.00">frc.robot</text>
<text text-anchor="middle" x="55.33" y="-640.75" font-family="Times,serif" font-size="14.00">Main</text>
</g>
<!-- frc_robot_Main&#45;&gt;edu_wpi_first_wpilibj_RobotBase -->
<g id="edge9" class="edge">
<title>frc_robot_Main&#45;&gt;edu_wpi_first_wpilibj_RobotBase</title>
<path fill="none" stroke="black" d="M111.01,-654.05C134.97,-654.05 164.03,-654.05 192.31,-654.05"/>
<polygon fill="black" stroke="black" points="192,-657.55 202,-654.05 192,-650.55 192,-657.55"/>
</g>
<!-- frc_robot_Robot -->
<g id="node11" class="node">
<title>frc_robot_Robot</title>
<ellipse fill="none" stroke="black" cx="55.33" cy="-303.05" rx="55.33" ry="30.05"/>
<text text-anchor="middle" x="55.33" y="-307" font-family="Times,serif" font-size="14.00">frc.robot</text>
<text text-anchor="middle" x="55.33" y="-289.75" font-family="Times,serif" font-size="14.00">Robot</text>
</g>
<!-- frc_robot_Robot&#45;&gt;com_ctre_phoenix6_CANBus -->
<g id="edge1" class="edge">
<title>frc_robot_Robot&#45;&gt;com_ctre_phoenix6_CANBus</title>
<path fill="none" stroke="black" d="M59.16,-333.16C65.51,-383.2 85.53,-483.26 146.66,-537.05 160.58,-549.3 177.74,-557.84 195.57,-563.76"/>
<polygon fill="black" stroke="black" points="194.4,-567.06 204.98,-566.6 196.42,-560.36 194.4,-567.06"/>
</g>
<!-- frc_robot_Robot&#45;&gt;com_ctre_phoenix6_configs_TalonFXConfiguration -->
<g id="edge2" class="edge">
<title>frc_robot_Robot&#45;&gt;com_ctre_phoenix6_configs_TalonFXConfiguration</title>
<path fill="none" stroke="black" d="M65.54,-332.92C78.08,-368.47 103.97,-427.04 146.66,-459.05 154.58,-464.99 163.29,-470.04 172.43,-474.32"/>
<polygon fill="black" stroke="black" points="170.95,-477.49 181.52,-478.24 173.72,-471.07 170.95,-477.49"/>
</g>
<!-- frc_robot_Robot&#45;&gt;com_ctre_phoenix6_controls_DutyCycleOut -->
<g id="edge3" class="edge">
<title>frc_robot_Robot&#45;&gt;com_ctre_phoenix6_controls_DutyCycleOut</title>
<path fill="none" stroke="black" d="M80.76,-329.88C97.69,-346.92 121.62,-368.13 146.66,-381.05 160.91,-388.41 176.6,-394.41 192.4,-399.31"/>
<polygon fill="black" stroke="black" points="191.3,-402.64 201.88,-402.1 193.28,-395.92 191.3,-402.64"/>
</g>
<!-- frc_robot_Robot&#45;&gt;com_ctre_phoenix6_controls_Follower -->
<g id="edge4" class="edge">
<title>frc_robot_Robot&#45;&gt;com_ctre_phoenix6_controls_Follower</title>
<path fill="none" stroke="black" d="M108.86,-311.28C136.06,-315.53 170.25,-320.88 202.45,-325.93"/>
<polygon fill="black" stroke="black" points="201.83,-329.37 212.25,-327.46 202.91,-322.45 201.83,-329.37"/>
</g>
<!-- frc_robot_Robot&#45;&gt;com_ctre_phoenix6_hardware_TalonFX -->
<g id="edge5" class="edge">
<title>frc_robot_Robot&#45;&gt;com_ctre_phoenix6_hardware_TalonFX</title>
<path fill="none" stroke="black" d="M108.86,-294.83C136.06,-290.57 170.25,-285.22 202.45,-280.18"/>
<polygon fill="black" stroke="black" points="202.91,-283.65 212.25,-278.65 201.83,-276.73 202.91,-283.65"/>
</g>
<!-- frc_robot_Robot&#45;&gt;com_ctre_phoenix6_signals_InvertedValue -->
<g id="edge6" class="edge">
<title>frc_robot_Robot&#45;&gt;com_ctre_phoenix6_signals_InvertedValue</title>
<path fill="none" stroke="black" d="M80.76,-276.22C97.69,-259.18 121.62,-237.98 146.66,-225.05 161.67,-217.31 178.27,-211.06 194.92,-206.02"/>
<polygon fill="black" stroke="black" points="195.75,-209.43 204.39,-203.3 193.82,-202.7 195.75,-209.43"/>
</g>
<!-- frc_robot_Robot&#45;&gt;edu_wpi_first_wpilibj_TimedRobot -->
<g id="edge7" class="edge">
<title>frc_robot_Robot&#45;&gt;edu_wpi_first_wpilibj_TimedRobot</title>
<path fill="none" stroke="black" d="M65.54,-273.18C78.08,-237.63 103.97,-179.06 146.66,-147.05 160.77,-136.47 177.38,-128.73 194.45,-123.08"/>
<polygon fill="black" stroke="black" points="195.13,-126.53 203.67,-120.26 193.08,-119.83 195.13,-126.53"/>
</g>
<!-- frc_robot_Robot&#45;&gt;edu_wpi_first_wpilibj_XboxController -->
<g id="edge8" class="edge">
<title>frc_robot_Robot&#45;&gt;edu_wpi_first_wpilibj_XboxController</title>
<path fill="none" stroke="black" d="M59.16,-272.94C65.51,-222.91 85.53,-122.85 146.66,-69.05 157.17,-59.8 169.53,-52.67 182.63,-47.18"/>
<polygon fill="black" stroke="black" points="183.76,-50.5 191.85,-43.66 181.26,-43.96 183.76,-50.5"/>
</g>
</g>
</svg>
