<?xml version="1.0" encoding="UTF-8" standalone="no"?>
<!DOCTYPE svg PUBLIC "-//W3C//DTD SVG 1.1//EN"
 "http://www.w3.org/Graphics/SVG/1.1/DTD/svg11.dtd">
<!-- Generated by graphviz version 12.2.1 (0)
 -->
<!-- Title: BasicLatencyCompensation Pages: 1 -->
<svg width="487pt" height="1004pt"
 viewBox="0.00 0.00 487.00 1004.10" xmlns="http://www.w3.org/2000/svg" xmlns:xlink="http://www.w3.org/1999/xlink">
<g id="graph0" class="graph" transform="scale(1 1) rotate(0) translate(4 1000.1)">
<title>BasicLatencyCompensation</title>
<polygon fill="white" stroke="none" points="-4,4 -4,-1000.1 483,-1000.1 483,4 -4,4"/>
<!-- com_ctre_phoenix6_BaseStatusSignal -->
<g id="node1" class="node">
<title>com_ctre_phoenix6_BaseStatusSignal</title>
<ellipse fill="none" stroke="black" cx="312.83" cy="-888.05" rx="104.65" ry="30.05"/>
<text text-anchor="middle" x="312.83" y="-892" font-family="Times,serif" font-size="14.00">com.ctre.phoenix6</text>
<text text-anchor="middle" x="312.83" y="-874.75" font-family="Times,serif" font-size="14.00">BaseStatusSignal</text>
</g>
<!-- com_ctre_phoenix6_CANBus -->
<g id="node2" class="node">
<title>com_ctre_phoenix6_CANBus</title>
<ellipse fill="none" stroke="black" cx="312.83" cy="-810.05" rx="104.65" ry="30.05"/>
<text text-anchor="middle" x="312.83" y="-814" font-family="Times,serif" font-size="14.00">com.ctre.phoenix6</text>
<text text-anchor="middle" x="312.83" y="-796.75" font-family="Times,serif" font-size="14.00">CANBus</text>
</g>
<!-- com_ctre_phoenix6_controls_DutyCycleOut -->
<g id="node3" class="node">
<title>com_ctre_phoenix6_controls_DutyCycleOut</title>
<ellipse fill="none" stroke="black" cx="312.83" cy="-732.05" rx="125.87" ry="30.05"/>
<text text-anchor="middle" x="312.83" y="-736" font-family="Times,serif" font-size="14.00">com.ctre.phoenix6</text>
<text text-anchor="middle" x="312.83" y="-718.75" font-family="Times,serif" font-size="14.00">controls.DutyCycleOut</text>
</g>
<!-- com_ctre_phoenix6_hardware_CANcoder -->
<g id="node4" class="node">
<title>com_ctre_phoenix6_hardware_CANcoder</title>
<ellipse fill="none" stroke="black" cx="312.83" cy="-654.05" rx="113.67" ry="30.05"/>
<text text-anchor="middle" x="312.83" y="-658" font-family="Times,serif" font-size="14.00">com.ctre.phoenix6</text>
<text text-anchor="middle" x="312.83" y="-640.75" font-family="Times,serif" font-size="14.00">hardware.CANcoder</text>
</g>
<!-- com_ctre_phoenix6_hardware_Pigeon2 -->
<g id="node5" class="node">
<title>com_ctre_phoenix6_hardware_Pigeon2</title>
<ellipse fill="none" stroke="black" cx="312.83" cy="-576.05" rx="104.65" ry="30.05"/>
<text text-anchor="middle" x="312.83" y="-580" font-family="Times,serif" font-size="14.00">com.ctre.phoenix6</text>
<text text-anchor="middle" x="312.83" y="-562.75" font-family="Times,serif" font-size="14.00">hardware.Pigeon2</text>
</g>
<!-- com_ctre_phoenix6_hardware_TalonFX -->
<g id="node6" class="node">
<title>com_ctre_phoenix6_hardware_TalonFX</title>
<ellipse fill="none" stroke="black" cx="312.83" cy="-498.05" rx="104.65" ry="30.05"/>
<text text-anchor="middle" x="312.83" y="-502" font-family="Times,serif" font-size="14.00">com.ctre.phoenix6</text>
<text text-anchor="middle" x="312.83" y="-484.75" font-family="Times,serif" font-size="14.00">hardware.TalonFX</text>
</g>
<!-- com_ctre_phoenix6_StatusSignal -->
<g id="node7" class="node">
<title>com_ctre_phoenix6_StatusSignal</title>
<ellipse fill="none" stroke="black" cx="312.83" cy="-420.05" rx="104.65" ry="30.05"/>
<text text-anchor="middle" x="312.83" y="-424" font-family="Times,serif" font-size="14.00">com.ctre.phoenix6</text>
<text text-anchor="middle" x="312.83" y="-406.75" font-family="Times,serif" font-size="14.00">StatusSignal</text>
</g>
<!-- edu_wpi_first_units_measure_Angle -->
<g id="node8" class="node">
<title>edu_wpi_first_units_measure_Angle</title>
<ellipse fill="none" stroke="black" cx="312.83" cy="-342.05" rx="115.26" ry="30.05"/>
<text text-anchor="middle" x="312.83" y="-346" font-family="Times,serif" font-size="14.00">edu.wpi.first</text>
<text text-anchor="middle" x="312.83" y="-328.75" font-family="Times,serif" font-size="14.00">units.measure.Angle</text>
</g>
<!-- edu_wpi_first_units_measure_AngularVelocity -->
<g id="node9" class="node">
<title>edu_wpi_first_units_measure_AngularVelocity</title>
<ellipse fill="none" stroke="black" cx="312.83" cy="-264.05" rx="166.17" ry="30.05"/>
<text text-anchor="middle" x="312.83" y="-268" font-family="Times,serif" font-size="14.00">edu.wpi.first</text>
<text text-anchor="middle" x="312.83" y="-250.75" font-family="Times,serif" font-size="14.00">units.measure.AngularVelocity</text>
</g>
<!-- edu_wpi_first_units_Units -->
<g id="node10" class="node">
<title>edu_wpi_first_units_Units</title>
<ellipse fill="none" stroke="black" cx="312.83" cy="-186.05" rx="74.95" ry="30.05"/>
<text text-anchor="middle" x="312.83" y="-190" font-family="Times,serif" font-size="14.00">edu.wpi.first</text>
<text text-anchor="middle" x="312.83" y="-172.75" font-family="Times,serif" font-size="14.00">units.Units</text>
</g>
<!-- edu_wpi_first_wpilibj_RobotBase -->
<g id="node11" class="node">
<title>edu_wpi_first_wpilibj_RobotBase</title>
<ellipse fill="none" stroke="black" cx="312.83" cy="-966.05" rx="102.53" ry="30.05"/>
<text text-anchor="middle" x="312.83" y="-970" font-family="Times,serif" font-size="14.00">edu.wpi.first</text>
<text text-anchor="middle" x="312.83" y="-952.75" font-family="Times,serif" font-size="14.00">wpilibj.RobotBase</text>
</g>
<!-- edu_wpi_first_wpilibj_TimedRobot -->
<g id="node12" class="node">
<title>edu_wpi_first_wpilibj_TimedRobot</title>
<ellipse fill="none" stroke="black" cx="312.83" cy="-108.05" rx="109.42" ry="30.05"/>
<text text-anchor="middle" x="312.83" y="-112" font-family="Times,serif" font-size="14.00">edu.wpi.first</text>
<text text-anchor="middle" x="312.83" y="-94.75" font-family="Times,serif" font-size="14.00">wpilibj.TimedRobot</text>
</g>
<!-- edu_wpi_first_wpilibj_XboxController -->
<g id="node13" class="node">
<title>edu_wpi_first_wpilibj_XboxController</title>
<ellipse fill="none" stroke="black" cx="312.83" cy="-30.05" rx="124.8" ry="30.05"/>
<text text-anchor="middle" x="312.83" y="-34" font-family="Times,serif" font-size="14.00">edu.wpi.first</text>
<text text-anchor="middle" x="312.83" y="-16.75" font-family="Times,serif" font-size="14.00">wpilibj.XboxController</text>
</g>
<!-- frc_robot_Main -->
<g id="node14" class="node">
<title>frc_robot_Main</title>
<ellipse fill="none" stroke="black" cx="55.33" cy="-966.05" rx="55.33" ry="30.05"/>
<text text-anchor="middle" x="55.33" y="-970" font-family="Times,serif" font-size="14.00">frc.robot</text>
<text text-anchor="middle" x="55.33" y="-952.75" font-family="Times,serif" font-size="14.00">Main</text>
</g>
<!-- frc_robot_Main&#45;&gt;edu_wpi_first_wpilibj_RobotBase -->
<g id="edge13" class="edge">
<title>frc_robot_Main&#45;&gt;edu_wpi_first_wpilibj_RobotBase</title>
<path fill="none" stroke="black" d="M111.14,-966.05C136.8,-966.05 168.37,-966.05 198.81,-966.05"/>
<polygon fill="black" stroke="black" points="198.44,-969.55 208.44,-966.05 198.44,-962.55 198.44,-969.55"/>
</g>
<!-- frc_robot_Robot -->
<g id="node15" class="node">
<title>frc_robot_Robot</title>
<ellipse fill="none" stroke="black" cx="55.33" cy="-459.05" rx="55.33" ry="30.05"/>
<text text-anchor="middle" x="55.33" y="-463" font-family="Times,serif" font-size="14.00">frc.robot</text>
<text text-anchor="middle" x="55.33" y="-445.75" font-family="Times,serif" font-size="14.00">Robot</text>
</g>
<!-- frc_robot_Robot&#45;&gt;com_ctre_phoenix6_BaseStatusSignal -->
<g id="edge2" class="edge">
<title>frc_robot_Robot&#45;&gt;com_ctre_phoenix6_BaseStatusSignal</title>
<path fill="none" stroke="black" d="M59.26,-489.34C67.84,-571.84 95.6,-797.77 146.66,-849.05 160.96,-863.41 179.49,-872.87 198.95,-879.02"/>
<polygon fill="black" stroke="black" points="197.81,-882.34 208.39,-881.7 199.72,-875.6 197.81,-882.34"/>
</g>
<!-- frc_robot_Robot&#45;&gt;com_ctre_phoenix6_CANBus -->
<g id="edge3" class="edge">
<title>frc_robot_Robot&#45;&gt;com_ctre_phoenix6_CANBus</title>
<path fill="none" stroke="black" d="M55.69,-489.4C56.12,-551.73 66.38,-694.68 146.66,-771.05 161.34,-785.02 180.05,-794.29 199.57,-800.39"/>
<polygon fill="black" stroke="black" points="198.45,-803.71 209.02,-803.05 200.34,-796.97 198.45,-803.71"/>
</g>
<!-- frc_robot_Robot&#45;&gt;com_ctre_phoenix6_controls_DutyCycleOut -->
<g id="edge5" class="edge">
<title>frc_robot_Robot&#45;&gt;com_ctre_phoenix6_controls_DutyCycleOut</title>
<path fill="none" stroke="black" d="M59.1,-489.22C65.38,-539.34 85.29,-639.53 146.66,-693.05 158.19,-703.1 171.83,-710.68 186.26,-716.38"/>
<polygon fill="black" stroke="black" points="184.86,-719.59 195.45,-719.69 187.23,-713.01 184.86,-719.59"/>
</g>
<!-- frc_robot_Robot&#45;&gt;com_ctre_phoenix6_hardware_CANcoder -->
<g id="edge6" class="edge">
<title>frc_robot_Robot&#45;&gt;com_ctre_phoenix6_hardware_CANcoder</title>
<path fill="none" stroke="black" d="M65.49,-488.98C77.98,-524.6 103.83,-583.23 146.66,-615.05 161.25,-625.89 178.41,-633.77 196.04,-639.49"/>
<polygon fill="black" stroke="black" points="195.02,-642.84 205.61,-642.34 197.02,-636.13 195.02,-642.84"/>
</g>
<!-- frc_robot_Robot&#45;&gt;com_ctre_phoenix6_hardware_Pigeon2 -->
<g id="edge7" class="edge">
<title>frc_robot_Robot&#45;&gt;com_ctre_phoenix6_hardware_Pigeon2</title>
<path fill="none" stroke="black" d="M80.72,-485.95C97.64,-503.03 121.57,-524.24 146.66,-537.05 165.66,-546.75 187.11,-554.08 208.12,-559.61"/>
<polygon fill="black" stroke="black" points="207.04,-562.95 217.59,-561.97 208.73,-556.15 207.04,-562.95"/>
</g>
<!-- frc_robot_Robot&#45;&gt;com_ctre_phoenix6_hardware_TalonFX -->
<g id="edge8" class="edge">
<title>frc_robot_Robot&#45;&gt;com_ctre_phoenix6_hardware_TalonFX</title>
<path fill="none" stroke="black" d="M108.96,-467.09C137.76,-471.48 174.47,-477.08 208.71,-482.31"/>
<polygon fill="black" stroke="black" points="207.82,-485.72 218.24,-483.77 208.88,-478.8 207.82,-485.72"/>
</g>
<!-- frc_robot_Robot&#45;&gt;com_ctre_phoenix6_StatusSignal -->
<g id="edge4" class="edge">
<title>frc_robot_Robot&#45;&gt;com_ctre_phoenix6_StatusSignal</title>
<path fill="none" stroke="black" d="M108.96,-451.02C137.76,-446.62 174.47,-441.02 208.71,-435.79"/>
<polygon fill="black" stroke="black" points="208.88,-439.31 218.24,-434.34 207.82,-432.39 208.88,-439.31"/>
</g>
<!-- frc_robot_Robot&#45;&gt;edu_wpi_first_units_measure_Angle -->
<g id="edge9" class="edge">
<title>frc_robot_Robot&#45;&gt;edu_wpi_first_units_measure_Angle</title>
<path fill="none" stroke="black" d="M80.72,-432.15C97.64,-415.08 121.57,-393.87 146.66,-381.05 163.85,-372.28 183.06,-365.44 202.13,-360.12"/>
<polygon fill="black" stroke="black" points="202.77,-363.57 211.54,-357.63 200.98,-356.8 202.77,-363.57"/>
</g>
<!-- frc_robot_Robot&#45;&gt;edu_wpi_first_units_measure_AngularVelocity -->
<g id="edge10" class="edge">
<title>frc_robot_Robot&#45;&gt;edu_wpi_first_units_measure_AngularVelocity</title>
<path fill="none" stroke="black" d="M65.49,-429.12C77.98,-393.5 103.83,-334.87 146.66,-303.05 154.83,-296.99 163.79,-291.85 173.19,-287.5"/>
<polygon fill="black" stroke="black" points="174.33,-290.82 182.16,-283.67 171.58,-284.38 174.33,-290.82"/>
</g>
<!-- frc_robot_Robot&#45;&gt;edu_wpi_first_units_Units -->
<g id="edge1" class="edge">
<title>frc_robot_Robot&#45;&gt;edu_wpi_first_units_Units</title>
<path fill="none" stroke="black" d="M59.1,-428.88C65.38,-378.76 85.29,-278.57 146.66,-225.05 168.72,-205.82 198.52,-195.64 226.74,-190.38"/>
<polygon fill="black" stroke="black" points="227.08,-193.87 236.38,-188.79 225.94,-186.97 227.08,-193.87"/>
</g>
<!-- frc_robot_Robot&#45;&gt;edu_wpi_first_wpilibj_TimedRobot -->
<g id="edge11" class="edge">
<title>frc_robot_Robot&#45;&gt;edu_wpi_first_wpilibj_TimedRobot</title>
<path fill="none" stroke="black" d="M55.69,-428.7C56.12,-366.38 66.38,-223.42 146.66,-147.05 160.4,-133.98 177.68,-125.02 195.84,-118.92"/>
<polygon fill="black" stroke="black" points="196.61,-122.34 205.16,-116.09 194.58,-115.65 196.61,-122.34"/>
</g>
<!-- frc_robot_Robot&#45;&gt;edu_wpi_first_wpilibj_XboxController -->
<g id="edge12" class="edge">
<title>frc_robot_Robot&#45;&gt;edu_wpi_first_wpilibj_XboxController</title>
<path fill="none" stroke="black" d="M59.26,-428.76C67.84,-346.26 95.6,-120.33 146.66,-69.05 157.45,-58.22 170.66,-50.17 184.85,-44.23"/>
<polygon fill="black" stroke="black" points="185.81,-47.61 193.93,-40.8 183.34,-41.06 185.81,-47.61"/>
</g>
</g>
</svg>
