<?xml version="1.0" encoding="UTF-8" standalone="no"?>
<!DOCTYPE svg PUBLIC "-//W3C//DTD SVG 1.1//EN"
 "http://www.w3.org/Graphics/SVG/1.1/DTD/svg11.dtd">
<!-- Generated by graphviz version 12.2.1 (0)
 -->
<!-- Title: CANcoder Pages: 1 -->
<svg width="1112pt" height="1588pt"
 viewBox="0.00 0.00 1112.02 1588.10" xmlns="http://www.w3.org/2000/svg" xmlns:xlink="http://www.w3.org/1999/xlink">
<g id="graph0" class="graph" transform="scale(1 1) rotate(0) translate(4 1584.1)">
<title>CANcoder</title>
<polygon fill="white" stroke="none" points="-4,4 -4,-1584.1 1108.02,-1584.1 1108.02,4 -4,4"/>
<!-- com_ctre_phoenix6_BaseStatusSignal -->
<g id="node1" class="node">
<title>com_ctre_phoenix6_BaseStatusSignal</title>
<ellipse fill="none" stroke="black" cx="437.46" cy="-614.05" rx="104.65" ry="30.05"/>
<text text-anchor="middle" x="437.46" y="-618" font-family="Times,serif" font-size="14.00">com.ctre.phoenix6</text>
<text text-anchor="middle" x="437.46" y="-600.75" font-family="Times,serif" font-size="14.00">BaseStatusSignal</text>
</g>
<!-- com_ctre_phoenix6_CANBus -->
<g id="node2" class="node">
<title>com_ctre_phoenix6_CANBus</title>
<ellipse fill="none" stroke="black" cx="437.46" cy="-536.05" rx="104.65" ry="30.05"/>
<text text-anchor="middle" x="437.46" y="-540" font-family="Times,serif" font-size="14.00">com.ctre.phoenix6</text>
<text text-anchor="middle" x="437.46" y="-522.75" font-family="Times,serif" font-size="14.00">CANBus</text>
</g>
<!-- com_ctre_phoenix6_configs_CANcoderConfiguration -->
<g id="node3" class="node">
<title>com_ctre_phoenix6_configs_CANcoderConfiguration</title>
<ellipse fill="none" stroke="black" cx="437.46" cy="-380.05" rx="169.88" ry="30.05"/>
<text text-anchor="middle" x="437.46" y="-384" font-family="Times,serif" font-size="14.00">com.ctre.phoenix6</text>
<text text-anchor="middle" x="437.46" y="-366.75" font-family="Times,serif" font-size="14.00">configs.CANcoderConfiguration</text>
</g>
<!-- com_ctre_phoenix6_controls_DutyCycleOut -->
<g id="node4" class="node">
<title>com_ctre_phoenix6_controls_DutyCycleOut</title>
<ellipse fill="none" stroke="black" cx="437.46" cy="-302.05" rx="125.87" ry="30.05"/>
<text text-anchor="middle" x="437.46" y="-306" font-family="Times,serif" font-size="14.00">com.ctre.phoenix6</text>
<text text-anchor="middle" x="437.46" y="-288.75" font-family="Times,serif" font-size="14.00">controls.DutyCycleOut</text>
</g>
<!-- com_ctre_phoenix6_hardware_CANcoder -->
<g id="node5" class="node">
<title>com_ctre_phoenix6_hardware_CANcoder</title>
<ellipse fill="none" stroke="black" cx="915.05" cy="-264.05" rx="113.67" ry="30.05"/>
<text text-anchor="middle" x="915.05" y="-268" font-family="Times,serif" font-size="14.00">com.ctre.phoenix6</text>
<text text-anchor="middle" x="915.05" y="-250.75" font-family="Times,serif" font-size="14.00">hardware.CANcoder</text>
</g>
<!-- com_ctre_phoenix6_hardware_TalonFX -->
<g id="node6" class="node">
<title>com_ctre_phoenix6_hardware_TalonFX</title>
<ellipse fill="none" stroke="black" cx="915.05" cy="-186.05" rx="104.65" ry="30.05"/>
<text text-anchor="middle" x="915.05" y="-190" font-family="Times,serif" font-size="14.00">com.ctre.phoenix6</text>
<text text-anchor="middle" x="915.05" y="-172.75" font-family="Times,serif" font-size="14.00">hardware.TalonFX</text>
</g>
<!-- com_ctre_phoenix6_sim_TalonFXSimState -->
<g id="node7" class="node">
<title>com_ctre_phoenix6_sim_TalonFXSimState</title>
<ellipse fill="none" stroke="black" cx="915.05" cy="-420.05" rx="120.03" ry="30.05"/>
<text text-anchor="middle" x="915.05" y="-424" font-family="Times,serif" font-size="14.00">com.ctre.phoenix6</text>
<text text-anchor="middle" x="915.05" y="-406.75" font-family="Times,serif" font-size="14.00">sim.TalonFXSimState</text>
</g>
<!-- com_ctre_phoenix6_StatusSignal -->
<g id="node8" class="node">
<title>com_ctre_phoenix6_StatusSignal</title>
<ellipse fill="none" stroke="black" cx="437.46" cy="-1472.05" rx="104.65" ry="30.05"/>
<text text-anchor="middle" x="437.46" y="-1476" font-family="Times,serif" font-size="14.00">com.ctre.phoenix6</text>
<text text-anchor="middle" x="437.46" y="-1458.75" font-family="Times,serif" font-size="14.00">StatusSignal</text>
</g>
<!-- com_ctre_phoenix6_Utils -->
<g id="node9" class="node">
<title>com_ctre_phoenix6_Utils</title>
<ellipse fill="none" stroke="black" cx="915.05" cy="-108.05" rx="104.65" ry="30.05"/>
<text text-anchor="middle" x="915.05" y="-112" font-family="Times,serif" font-size="14.00">com.ctre.phoenix6</text>
<text text-anchor="middle" x="915.05" y="-94.75" font-family="Times,serif" font-size="14.00">Utils</text>
</g>
<!-- edu_wpi_first_math_geometry_Rotation2d -->
<g id="node10" class="node">
<title>edu_wpi_first_math_geometry_Rotation2d</title>
<ellipse fill="none" stroke="black" cx="437.46" cy="-1394.05" rx="146.02" ry="30.05"/>
<text text-anchor="middle" x="437.46" y="-1398" font-family="Times,serif" font-size="14.00">edu.wpi.first</text>
<text text-anchor="middle" x="437.46" y="-1380.75" font-family="Times,serif" font-size="14.00">math.geometry.Rotation2d</text>
</g>
<!-- edu_wpi_first_math_system_plant_DCMotor -->
<g id="node11" class="node">
<title>edu_wpi_first_math_system_plant_DCMotor</title>
<ellipse fill="none" stroke="black" cx="915.05" cy="-342.05" rx="155.03" ry="30.05"/>
<text text-anchor="middle" x="915.05" y="-346" font-family="Times,serif" font-size="14.00">edu.wpi.first</text>
<text text-anchor="middle" x="915.05" y="-328.75" font-family="Times,serif" font-size="14.00">math.system.plant.DCMotor</text>
</g>
<!-- edu_wpi_first_math_system_plant_LinearSystemId -->
<g id="node12" class="node">
<title>edu_wpi_first_math_system_plant_LinearSystemId</title>
<ellipse fill="none" stroke="black" cx="915.05" cy="-732.05" rx="188.97" ry="30.05"/>
<text text-anchor="middle" x="915.05" y="-736" font-family="Times,serif" font-size="14.00">edu.wpi.first</text>
<text text-anchor="middle" x="915.05" y="-718.75" font-family="Times,serif" font-size="14.00">math.system.plant.LinearSystemId</text>
</g>
<!-- edu_wpi_first_math_util_Units -->
<g id="node13" class="node">
<title>edu_wpi_first_math_util_Units</title>
<ellipse fill="none" stroke="black" cx="915.05" cy="-654.05" rx="88.21" ry="30.05"/>
<text text-anchor="middle" x="915.05" y="-658" font-family="Times,serif" font-size="14.00">edu.wpi.first</text>
<text text-anchor="middle" x="915.05" y="-640.75" font-family="Times,serif" font-size="14.00">math.util.Units</text>
</g>
<!-- edu_wpi_first_units_measure_Angle -->
<g id="node14" class="node">
<title>edu_wpi_first_units_measure_Angle</title>
<ellipse fill="none" stroke="black" cx="437.46" cy="-1316.05" rx="115.26" ry="30.05"/>
<text text-anchor="middle" x="437.46" y="-1320" font-family="Times,serif" font-size="14.00">edu.wpi.first</text>
<text text-anchor="middle" x="437.46" y="-1302.75" font-family="Times,serif" font-size="14.00">units.measure.Angle</text>
</g>
<!-- edu_wpi_first_units_Units -->
<g id="node15" class="node">
<title>edu_wpi_first_units_Units</title>
<ellipse fill="none" stroke="black" cx="437.46" cy="-70.05" rx="74.95" ry="30.05"/>
<text text-anchor="middle" x="437.46" y="-74" font-family="Times,serif" font-size="14.00">edu.wpi.first</text>
<text text-anchor="middle" x="437.46" y="-56.75" font-family="Times,serif" font-size="14.00">units.Units</text>
</g>
<!-- edu_wpi_first_wpilibj_RobotBase -->
<g id="node16" class="node">
<title>edu_wpi_first_wpilibj_RobotBase</title>
<ellipse fill="none" stroke="black" cx="437.46" cy="-1550.05" rx="102.53" ry="30.05"/>
<text text-anchor="middle" x="437.46" y="-1554" font-family="Times,serif" font-size="14.00">edu.wpi.first</text>
<text text-anchor="middle" x="437.46" y="-1536.75" font-family="Times,serif" font-size="14.00">wpilibj.RobotBase</text>
</g>
<!-- edu_wpi_first_wpilibj_simulation_DCMotorSim -->
<g id="node17" class="node">
<title>edu_wpi_first_wpilibj_simulation_DCMotorSim</title>
<ellipse fill="none" stroke="black" cx="915.05" cy="-576.05" rx="170.41" ry="30.05"/>
<text text-anchor="middle" x="915.05" y="-580" font-family="Times,serif" font-size="14.00">edu.wpi.first</text>
<text text-anchor="middle" x="915.05" y="-562.75" font-family="Times,serif" font-size="14.00">wpilibj.simulation.DCMotorSim</text>
</g>
<!-- edu_wpi_first_wpilibj_smartdashboard_Mechanism2d -->
<g id="node18" class="node">
<title>edu_wpi_first_wpilibj_smartdashboard_Mechanism2d</title>
<ellipse fill="none" stroke="black" cx="437.46" cy="-1238.05" rx="204.88" ry="30.05"/>
<text text-anchor="middle" x="437.46" y="-1242" font-family="Times,serif" font-size="14.00">edu.wpi.first</text>
<text text-anchor="middle" x="437.46" y="-1224.75" font-family="Times,serif" font-size="14.00">wpilibj.smartdashboard.Mechanism2d</text>
</g>
<!-- edu_wpi_first_wpilibj_smartdashboard_MechanismLigament2d -->
<g id="node19" class="node">
<title>edu_wpi_first_wpilibj_smartdashboard_MechanismLigament2d</title>
<ellipse fill="none" stroke="black" cx="437.46" cy="-1160.05" rx="252.61" ry="30.05"/>
<text text-anchor="middle" x="437.46" y="-1164" font-family="Times,serif" font-size="14.00">edu.wpi.first</text>
<text text-anchor="middle" x="437.46" y="-1146.75" font-family="Times,serif" font-size="14.00">wpilibj.smartdashboard.MechanismLigament2d</text>
</g>
<!-- edu_wpi_first_wpilibj_smartdashboard_SmartDashboard -->
<g id="node20" class="node">
<title>edu_wpi_first_wpilibj_smartdashboard_SmartDashboard</title>
<ellipse fill="none" stroke="black" cx="437.46" cy="-1082.05" rx="220.26" ry="30.05"/>
<text text-anchor="middle" x="437.46" y="-1086" font-family="Times,serif" font-size="14.00">edu.wpi.first</text>
<text text-anchor="middle" x="437.46" y="-1068.75" font-family="Times,serif" font-size="14.00">wpilibj.smartdashboard.SmartDashboard</text>
</g>
<!-- edu_wpi_first_wpilibj_TimedRobot -->
<g id="node21" class="node">
<title>edu_wpi_first_wpilibj_TimedRobot</title>
<ellipse fill="none" stroke="black" cx="437.46" cy="-848.05" rx="109.42" ry="30.05"/>
<text text-anchor="middle" x="437.46" y="-852" font-family="Times,serif" font-size="14.00">edu.wpi.first</text>
<text text-anchor="middle" x="437.46" y="-834.75" font-family="Times,serif" font-size="14.00">wpilibj.TimedRobot</text>
</g>
<!-- edu_wpi_first_wpilibj_Timer -->
<g id="node22" class="node">
<title>edu_wpi_first_wpilibj_Timer</title>
<ellipse fill="none" stroke="black" cx="437.46" cy="-770.05" rx="78.14" ry="30.05"/>
<text text-anchor="middle" x="437.46" y="-774" font-family="Times,serif" font-size="14.00">edu.wpi.first</text>
<text text-anchor="middle" x="437.46" y="-756.75" font-family="Times,serif" font-size="14.00">wpilibj.Timer</text>
</g>
<!-- edu_wpi_first_wpilibj_util_Color -->
<g id="node23" class="node">
<title>edu_wpi_first_wpilibj_util_Color</title>
<ellipse fill="none" stroke="black" cx="437.46" cy="-1004.05" rx="95.64" ry="30.05"/>
<text text-anchor="middle" x="437.46" y="-1008" font-family="Times,serif" font-size="14.00">edu.wpi.first</text>
<text text-anchor="middle" x="437.46" y="-990.75" font-family="Times,serif" font-size="14.00">wpilibj.util.Color</text>
</g>
<!-- edu_wpi_first_wpilibj_util_Color8Bit -->
<g id="node24" class="node">
<title>edu_wpi_first_wpilibj_util_Color8Bit</title>
<ellipse fill="none" stroke="black" cx="437.46" cy="-926.05" rx="116.85" ry="30.05"/>
<text text-anchor="middle" x="437.46" y="-930" font-family="Times,serif" font-size="14.00">edu.wpi.first</text>
<text text-anchor="middle" x="437.46" y="-912.75" font-family="Times,serif" font-size="14.00">wpilibj.util.Color8Bit</text>
</g>
<!-- edu_wpi_first_wpilibj_XboxController -->
<g id="node25" class="node">
<title>edu_wpi_first_wpilibj_XboxController</title>
<ellipse fill="none" stroke="black" cx="437.46" cy="-692.05" rx="124.8" ry="30.05"/>
<text text-anchor="middle" x="437.46" y="-696" font-family="Times,serif" font-size="14.00">edu.wpi.first</text>
<text text-anchor="middle" x="437.46" y="-678.75" font-family="Times,serif" font-size="14.00">wpilibj.XboxController</text>
</g>
<!-- frc_robot_Main -->
<g id="node26" class="node">
<title>frc_robot_Main</title>
<ellipse fill="none" stroke="black" cx="74.42" cy="-1550.05" rx="55.33" ry="30.05"/>
<text text-anchor="middle" x="74.42" y="-1554" font-family="Times,serif" font-size="14.00">frc.robot</text>
<text text-anchor="middle" x="74.42" y="-1536.75" font-family="Times,serif" font-size="14.00">Main</text>
</g>
<!-- frc_robot_Main&#45;&gt;edu_wpi_first_wpilibj_RobotBase -->
<g id="edge32" class="edge">
<title>frc_robot_Main&#45;&gt;edu_wpi_first_wpilibj_RobotBase</title>
<path fill="none" stroke="black" d="M129.86,-1550.05C180.88,-1550.05 258.71,-1550.05 323.19,-1550.05"/>
<polygon fill="black" stroke="black" points="323.14,-1553.55 333.14,-1550.05 323.14,-1546.55 323.14,-1553.55"/>
</g>
<!-- frc_robot_Mechanisms -->
<g id="node27" class="node">
<title>frc_robot_Mechanisms</title>
<ellipse fill="none" stroke="black" cx="74.42" cy="-1199.05" rx="74.42" ry="30.05"/>
<text text-anchor="middle" x="74.42" y="-1203" font-family="Times,serif" font-size="14.00">frc.robot</text>
<text text-anchor="middle" x="74.42" y="-1185.75" font-family="Times,serif" font-size="14.00">Mechanisms</text>
</g>
<!-- frc_robot_Mechanisms&#45;&gt;com_ctre_phoenix6_StatusSignal -->
<g id="edge12" class="edge">
<title>frc_robot_Mechanisms&#45;&gt;com_ctre_phoenix6_StatusSignal</title>
<path fill="none" stroke="black" d="M80.29,-1229.51C90.15,-1280.52 117.58,-1382.59 184.85,-1433.05 223.88,-1462.34 276.04,-1473.62 322.75,-1476.97"/>
<polygon fill="black" stroke="black" points="322.48,-1480.46 332.67,-1477.56 322.89,-1473.48 322.48,-1480.46"/>
</g>
<!-- frc_robot_Mechanisms&#45;&gt;edu_wpi_first_math_geometry_Rotation2d -->
<g id="edge13" class="edge">
<title>frc_robot_Mechanisms&#45;&gt;edu_wpi_first_math_geometry_Rotation2d</title>
<path fill="none" stroke="black" d="M87.57,-1229.03C103.93,-1265.26 136.67,-1325.09 184.85,-1355.05 213.34,-1372.78 247.07,-1383.42 280.41,-1389.62"/>
<polygon fill="black" stroke="black" points="279.75,-1393.06 290.2,-1391.3 280.94,-1386.16 279.75,-1393.06"/>
</g>
<!-- frc_robot_Mechanisms&#45;&gt;edu_wpi_first_units_measure_Angle -->
<g id="edge14" class="edge">
<title>frc_robot_Mechanisms&#45;&gt;edu_wpi_first_units_measure_Angle</title>
<path fill="none" stroke="black" d="M105.64,-1226.52C126.41,-1243.83 155.46,-1265.09 184.85,-1277.05 224.88,-1293.35 271.04,-1302.88 312.81,-1308.45"/>
<polygon fill="black" stroke="black" points="312.32,-1311.91 322.68,-1309.69 313.19,-1304.97 312.32,-1311.91"/>
</g>
<!-- frc_robot_Mechanisms&#45;&gt;edu_wpi_first_wpilibj_smartdashboard_Mechanism2d -->
<g id="edge15" class="edge">
<title>frc_robot_Mechanisms&#45;&gt;edu_wpi_first_wpilibj_smartdashboard_Mechanism2d</title>
<path fill="none" stroke="black" d="M146.75,-1206.76C179.44,-1210.29 219.77,-1214.64 259.85,-1218.97"/>
<polygon fill="black" stroke="black" points="259.32,-1222.44 269.63,-1220.03 260.07,-1215.48 259.32,-1222.44"/>
</g>
<!-- frc_robot_Mechanisms&#45;&gt;edu_wpi_first_wpilibj_smartdashboard_MechanismLigament2d -->
<g id="edge16" class="edge">
<title>frc_robot_Mechanisms&#45;&gt;edu_wpi_first_wpilibj_smartdashboard_MechanismLigament2d</title>
<path fill="none" stroke="black" d="M146.75,-1191.35C173.34,-1188.47 204.99,-1185.06 237.44,-1181.55"/>
<polygon fill="black" stroke="black" points="237.4,-1185.08 246.97,-1180.52 236.65,-1178.12 237.4,-1185.08"/>
</g>
<!-- frc_robot_Mechanisms&#45;&gt;edu_wpi_first_wpilibj_smartdashboard_SmartDashboard -->
<g id="edge17" class="edge">
<title>frc_robot_Mechanisms&#45;&gt;edu_wpi_first_wpilibj_smartdashboard_SmartDashboard</title>
<path fill="none" stroke="black" d="M105.64,-1171.59C126.41,-1154.28 155.46,-1133.01 184.85,-1121.05 203.93,-1113.28 224.41,-1107.05 245.15,-1102.05"/>
<polygon fill="black" stroke="black" points="245.91,-1105.47 254.87,-1099.81 244.34,-1098.65 245.91,-1105.47"/>
</g>
<!-- frc_robot_Mechanisms&#45;&gt;edu_wpi_first_wpilibj_util_Color -->
<g id="edge18" class="edge">
<title>frc_robot_Mechanisms&#45;&gt;edu_wpi_first_wpilibj_util_Color</title>
<path fill="none" stroke="black" d="M87.57,-1169.08C103.93,-1132.85 136.67,-1073.02 184.85,-1043.05 227.94,-1016.25 282.98,-1005.64 330.58,-1002.1"/>
<polygon fill="black" stroke="black" points="330.61,-1005.6 340.37,-1001.47 330.17,-998.62 330.61,-1005.6"/>
</g>
<!-- frc_robot_Mechanisms&#45;&gt;edu_wpi_first_wpilibj_util_Color8Bit -->
<g id="edge19" class="edge">
<title>frc_robot_Mechanisms&#45;&gt;edu_wpi_first_wpilibj_util_Color8Bit</title>
<path fill="none" stroke="black" d="M80.29,-1168.59C90.15,-1117.58 117.58,-1015.51 184.85,-965.05 220.47,-938.33 267.01,-926.6 310.37,-922.2"/>
<polygon fill="black" stroke="black" points="310.45,-925.71 320.1,-921.35 309.83,-918.74 310.45,-925.71"/>
</g>
<!-- frc_robot_Robot -->
<g id="node28" class="node">
<title>frc_robot_Robot</title>
<ellipse fill="none" stroke="black" cx="74.42" cy="-380.05" rx="55.33" ry="30.05"/>
<text text-anchor="middle" x="74.42" y="-384" font-family="Times,serif" font-size="14.00">frc.robot</text>
<text text-anchor="middle" x="74.42" y="-366.75" font-family="Times,serif" font-size="14.00">Robot</text>
</g>
<!-- frc_robot_Robot&#45;&gt;com_ctre_phoenix6_BaseStatusSignal -->
<g id="edge2" class="edge">
<title>frc_robot_Robot&#45;&gt;com_ctre_phoenix6_BaseStatusSignal</title>
<path fill="none" stroke="black" d="M83.23,-410.14C96.32,-454.1 127.12,-535 184.85,-575.05 224.44,-602.52 275.93,-613.67 322.02,-617.41"/>
<polygon fill="black" stroke="black" points="321.57,-620.89 331.79,-618.09 322.05,-613.91 321.57,-620.89"/>
</g>
<!-- frc_robot_Robot&#45;&gt;com_ctre_phoenix6_CANBus -->
<g id="edge3" class="edge">
<title>frc_robot_Robot&#45;&gt;com_ctre_phoenix6_CANBus</title>
<path fill="none" stroke="black" d="M93.63,-408.56C112.8,-436 145.63,-476.32 184.85,-497.05 226.28,-518.95 276.54,-529.41 321.22,-534.13"/>
<polygon fill="black" stroke="black" points="320.66,-537.59 330.95,-535.07 321.33,-530.63 320.66,-537.59"/>
</g>
<!-- frc_robot_Robot&#45;&gt;com_ctre_phoenix6_configs_CANcoderConfiguration -->
<g id="edge4" class="edge">
<title>frc_robot_Robot&#45;&gt;com_ctre_phoenix6_configs_CANcoderConfiguration</title>
<path fill="none" stroke="black" d="M129.86,-380.05C163.9,-380.05 209.87,-380.05 255.85,-380.05"/>
<polygon fill="black" stroke="black" points="255.7,-383.55 265.7,-380.05 255.7,-376.55 255.7,-383.55"/>
</g>
<!-- frc_robot_Robot&#45;&gt;com_ctre_phoenix6_controls_DutyCycleOut -->
<g id="edge5" class="edge">
<title>frc_robot_Robot&#45;&gt;com_ctre_phoenix6_controls_DutyCycleOut</title>
<path fill="none" stroke="black" d="M119.56,-362.18C139.27,-354.76 162.95,-346.6 184.85,-341.05 225.68,-330.71 270.98,-322.66 311.76,-316.64"/>
<polygon fill="black" stroke="black" points="312.24,-320.1 321.63,-315.21 311.24,-313.17 312.24,-320.1"/>
</g>
<!-- frc_robot_Robot&#45;&gt;com_ctre_phoenix6_hardware_CANcoder -->
<g id="edge6" class="edge">
<title>frc_robot_Robot&#45;&gt;com_ctre_phoenix6_hardware_CANcoder</title>
<path fill="none" stroke="black" d="M92.3,-351.3C110.88,-322.82 143.64,-280.93 184.85,-263.05 291.29,-216.86 619.21,-237.34 796.83,-252.69"/>
<polygon fill="black" stroke="black" points="796.27,-256.15 806.54,-253.53 796.88,-249.18 796.27,-256.15"/>
</g>
<!-- frc_robot_Robot&#45;&gt;com_ctre_phoenix6_hardware_TalonFX -->
<g id="edge7" class="edge">
<title>frc_robot_Robot&#45;&gt;com_ctre_phoenix6_hardware_TalonFX</title>
<path fill="none" stroke="black" d="M87.67,-350.37C104.03,-314.99 136.67,-257.34 184.85,-231.05 237.25,-202.46 606.89,-191.58 798.87,-187.83"/>
<polygon fill="black" stroke="black" points="798.69,-191.34 808.62,-187.64 798.55,-184.34 798.69,-191.34"/>
</g>
<!-- frc_robot_Robot&#45;&gt;edu_wpi_first_units_Units -->
<g id="edge1" class="edge">
<title>frc_robot_Robot&#45;&gt;edu_wpi_first_units_Units</title>
<path fill="none" stroke="black" d="M78.1,-349.95C84.89,-293.03 108.11,-169.89 184.85,-109.05 231.72,-71.89 299.34,-63.12 352.68,-63.1"/>
<polygon fill="black" stroke="black" points="352.63,-66.6 362.67,-63.22 352.71,-59.6 352.63,-66.6"/>
</g>
<!-- frc_robot_Robot&#45;&gt;edu_wpi_first_wpilibj_TimedRobot -->
<g id="edge8" class="edge">
<title>frc_robot_Robot&#45;&gt;edu_wpi_first_wpilibj_TimedRobot</title>
<path fill="none" stroke="black" d="M78.85,-410.42C89.49,-499.05 124.89,-754.59 184.85,-809.05 221.27,-842.14 273.6,-853.83 321.11,-856.47"/>
<polygon fill="black" stroke="black" points="320.78,-859.96 330.92,-856.87 321.07,-852.96 320.78,-859.96"/>
</g>
<!-- frc_robot_Robot&#45;&gt;edu_wpi_first_wpilibj_Timer -->
<g id="edge9" class="edge">
<title>frc_robot_Robot&#45;&gt;edu_wpi_first_wpilibj_Timer</title>
<path fill="none" stroke="black" d="M74.95,-410.35C75.66,-479.11 87.77,-647.41 184.85,-731.05 229.87,-769.84 296.99,-778.65 350.59,-778.26"/>
<polygon fill="black" stroke="black" points="350.37,-781.77 360.3,-778.08 350.23,-774.77 350.37,-781.77"/>
</g>
<!-- frc_robot_Robot&#45;&gt;edu_wpi_first_wpilibj_XboxController -->
<g id="edge10" class="edge">
<title>frc_robot_Robot&#45;&gt;edu_wpi_first_wpilibj_XboxController</title>
<path fill="none" stroke="black" d="M78.03,-410.37C84.68,-467.7 107.7,-591.73 184.85,-653.05 217.97,-679.38 261.5,-691.48 303.03,-696.3"/>
<polygon fill="black" stroke="black" points="302.58,-699.77 312.88,-697.29 303.28,-692.81 302.58,-699.77"/>
</g>
<!-- frc_robot_sim_PhysicsSim -->
<g id="node29" class="node">
<title>frc_robot_sim_PhysicsSim</title>
<ellipse fill="none" stroke="black" cx="437.46" cy="-148.05" rx="90.33" ry="30.05"/>
<text text-anchor="middle" x="437.46" y="-152" font-family="Times,serif" font-size="14.00">frc.robot</text>
<text text-anchor="middle" x="437.46" y="-134.75" font-family="Times,serif" font-size="14.00">sim.PhysicsSim</text>
</g>
<!-- frc_robot_Robot&#45;&gt;frc_robot_sim_PhysicsSim -->
<g id="edge11" class="edge">
<title>frc_robot_Robot&#45;&gt;frc_robot_sim_PhysicsSim</title>
<path fill="none" stroke="black" d="M84,-350.1C97.8,-307.64 129.22,-230.8 184.85,-192.05 228.48,-161.66 286.44,-150.08 335.73,-146.37"/>
<polygon fill="black" stroke="black" points="335.82,-149.87 345.57,-145.73 335.37,-142.88 335.82,-149.87"/>
</g>
<!-- frc_robot_sim_PhysicsSim&#45;&gt;com_ctre_phoenix6_hardware_CANcoder -->
<g id="edge22" class="edge">
<title>frc_robot_sim_PhysicsSim&#45;&gt;com_ctre_phoenix6_hardware_CANcoder</title>
<path fill="none" stroke="black" d="M507.05,-167.59C565.14,-183.86 650.76,-207.17 726.07,-225.05 753.84,-231.64 784.07,-238.19 812,-243.98"/>
<polygon fill="black" stroke="black" points="811,-247.35 821.5,-245.94 812.42,-240.5 811,-247.35"/>
</g>
<!-- frc_robot_sim_PhysicsSim&#45;&gt;com_ctre_phoenix6_hardware_TalonFX -->
<g id="edge23" class="edge">
<title>frc_robot_sim_PhysicsSim&#45;&gt;com_ctre_phoenix6_hardware_TalonFX</title>
<path fill="none" stroke="black" d="M525.69,-155.02C603.5,-161.24 717.85,-170.38 802.33,-177.13"/>
<polygon fill="black" stroke="black" points="802.03,-180.61 812.27,-177.92 802.58,-173.63 802.03,-180.61"/>
</g>
<!-- frc_robot_sim_PhysicsSim&#45;&gt;com_ctre_phoenix6_Utils -->
<g id="edge21" class="edge">
<title>frc_robot_sim_PhysicsSim&#45;&gt;com_ctre_phoenix6_Utils</title>
<path fill="none" stroke="black" d="M525.41,-140.74C603.32,-134.19 718.01,-124.54 802.62,-117.42"/>
<polygon fill="black" stroke="black" points="802.91,-120.91 812.58,-116.59 802.32,-113.94 802.91,-120.91"/>
</g>
<!-- java_util_ArrayList -->
<g id="node32" class="node">
<title>java_util_ArrayList</title>
<ellipse fill="none" stroke="black" cx="915.05" cy="-30.05" rx="58.51" ry="30.05"/>
<text text-anchor="middle" x="915.05" y="-34" font-family="Times,serif" font-size="14.00">java.util</text>
<text text-anchor="middle" x="915.05" y="-16.75" font-family="Times,serif" font-size="14.00">ArrayList</text>
</g>
<!-- frc_robot_sim_PhysicsSim&#45;&gt;java_util_ArrayList -->
<g id="edge20" class="edge">
<title>frc_robot_sim_PhysicsSim&#45;&gt;java_util_ArrayList</title>
<path fill="none" stroke="black" d="M528.13,-148.67C578.39,-145.57 640.7,-135.76 690.07,-109.05 711.11,-97.67 705.33,-80.96 726.07,-69.05 762.22,-48.29 807.91,-38.51 845.19,-33.93"/>
<polygon fill="black" stroke="black" points="845.42,-37.43 854.97,-32.84 844.64,-30.47 845.42,-37.43"/>
</g>
<!-- frc_robot_sim_PhysicsSim_SimProfile -->
<g id="node30" class="node">
<title>frc_robot_sim_PhysicsSim_SimProfile</title>
<ellipse fill="none" stroke="black" cx="915.05" cy="-498.05" rx="146.02" ry="30.05"/>
<text text-anchor="middle" x="915.05" y="-502" font-family="Times,serif" font-size="14.00">frc.robot</text>
<text text-anchor="middle" x="915.05" y="-484.75" font-family="Times,serif" font-size="14.00">sim.PhysicsSim.SimProfile</text>
</g>
<!-- frc_robot_sim_TalonFXSimProfile -->
<g id="node31" class="node">
<title>frc_robot_sim_TalonFXSimProfile</title>
<ellipse fill="none" stroke="black" cx="437.46" cy="-458.05" rx="125.87" ry="30.05"/>
<text text-anchor="middle" x="437.46" y="-462" font-family="Times,serif" font-size="14.00">frc.robot</text>
<text text-anchor="middle" x="437.46" y="-444.75" font-family="Times,serif" font-size="14.00">sim.TalonFXSimProfile</text>
</g>
<!-- frc_robot_sim_TalonFXSimProfile&#45;&gt;com_ctre_phoenix6_hardware_CANcoder -->
<g id="edge24" class="edge">
<title>frc_robot_sim_TalonFXSimProfile&#45;&gt;com_ctre_phoenix6_hardware_CANcoder</title>
<path fill="none" stroke="black" d="M560.16,-465.07C605.59,-461.55 654.68,-449.59 690.07,-419.05 730.95,-383.79 686.11,-339.34 726.07,-303.05 744.15,-286.63 767.29,-276.42 791.1,-270.2"/>
<polygon fill="black" stroke="black" points="791.66,-273.67 800.59,-267.97 790.06,-266.85 791.66,-273.67"/>
</g>
<!-- frc_robot_sim_TalonFXSimProfile&#45;&gt;com_ctre_phoenix6_hardware_TalonFX -->
<g id="edge25" class="edge">
<title>frc_robot_sim_TalonFXSimProfile&#45;&gt;com_ctre_phoenix6_hardware_TalonFX</title>
<path fill="none" stroke="black" d="M557.55,-467.46C604.52,-464.72 655.42,-452.69 690.07,-419.05 753,-357.97 664.72,-287.71 726.07,-225.05 745.44,-205.27 772.03,-194.22 799.11,-188.32"/>
<polygon fill="black" stroke="black" points="799.67,-191.78 808.83,-186.45 798.35,-184.9 799.67,-191.78"/>
</g>
<!-- frc_robot_sim_TalonFXSimProfile&#45;&gt;com_ctre_phoenix6_sim_TalonFXSimState -->
<g id="edge26" class="edge">
<title>frc_robot_sim_TalonFXSimProfile&#45;&gt;com_ctre_phoenix6_sim_TalonFXSimState</title>
<path fill="none" stroke="black" d="M557.24,-448.56C627.76,-442.93 717.08,-435.79 788.71,-430.07"/>
<polygon fill="black" stroke="black" points="788.85,-433.57 798.54,-429.28 788.3,-426.59 788.85,-433.57"/>
</g>
<!-- frc_robot_sim_TalonFXSimProfile&#45;&gt;edu_wpi_first_math_system_plant_DCMotor -->
<g id="edge27" class="edge">
<title>frc_robot_sim_TalonFXSimProfile&#45;&gt;edu_wpi_first_math_system_plant_DCMotor</title>
<path fill="none" stroke="black" d="M562.88,-454.94C605.14,-449.77 651.42,-439.33 690.07,-419.05 710.68,-408.25 705.75,-392.38 726.07,-381.05 740.64,-372.93 756.7,-366.5 773.1,-361.4"/>
<polygon fill="black" stroke="black" points="773.85,-364.82 782.46,-358.66 771.88,-358.11 773.85,-364.82"/>
</g>
<!-- frc_robot_sim_TalonFXSimProfile&#45;&gt;edu_wpi_first_math_system_plant_LinearSystemId -->
<g id="edge28" class="edge">
<title>frc_robot_sim_TalonFXSimProfile&#45;&gt;edu_wpi_first_math_system_plant_LinearSystemId</title>
<path fill="none" stroke="black" d="M557.58,-448.61C604.56,-451.35 655.45,-463.38 690.07,-497.05 753.57,-558.8 664.17,-629.71 726.07,-693.05 732.38,-699.5 739.45,-705.03 747.06,-709.75"/>
<polygon fill="black" stroke="black" points="745.22,-712.73 755.65,-714.57 748.64,-706.62 745.22,-712.73"/>
</g>
<!-- frc_robot_sim_TalonFXSimProfile&#45;&gt;edu_wpi_first_math_util_Units -->
<g id="edge29" class="edge">
<title>frc_robot_sim_TalonFXSimProfile&#45;&gt;edu_wpi_first_math_util_Units</title>
<path fill="none" stroke="black" d="M560.24,-450.94C605.68,-454.45 654.75,-466.43 690.07,-497.05 731.5,-532.97 685.57,-578.1 726.07,-615.05 750.3,-637.16 783.67,-648.03 815.58,-653.04"/>
<polygon fill="black" stroke="black" points="814.91,-656.48 825.29,-654.37 815.86,-649.55 814.91,-656.48"/>
</g>
<!-- frc_robot_sim_TalonFXSimProfile&#45;&gt;edu_wpi_first_wpilibj_simulation_DCMotorSim -->
<g id="edge30" class="edge">
<title>frc_robot_sim_TalonFXSimProfile&#45;&gt;edu_wpi_first_wpilibj_simulation_DCMotorSim</title>
<path fill="none" stroke="black" d="M563.18,-460.61C605.47,-465.73 651.68,-476.28 690.07,-497.05 711.11,-508.43 705.33,-525.14 726.07,-537.05 738.51,-544.19 752.08,-550.04 766.04,-554.82"/>
<polygon fill="black" stroke="black" points="764.76,-558.08 775.35,-557.8 766.9,-551.41 764.76,-558.08"/>
</g>
<!-- frc_robot_sim_TalonFXSimProfile&#45;&gt;frc_robot_sim_PhysicsSim_SimProfile -->
<g id="edge31" class="edge">
<title>frc_robot_sim_TalonFXSimProfile&#45;&gt;frc_robot_sim_PhysicsSim_SimProfile</title>
<path fill="none" stroke="black" d="M556.63,-467.99C620.61,-473.37 700.2,-480.07 768.03,-485.77"/>
<polygon fill="black" stroke="black" points="767.48,-489.24 777.74,-486.59 768.07,-482.26 767.48,-489.24"/>
</g>
</g>
</svg>
