<?xml version="1.0" encoding="UTF-8" standalone="no"?>
<!DOCTYPE svg PUBLIC "-//W3C//DTD SVG 1.1//EN"
 "http://www.w3.org/Graphics/SVG/1.1/DTD/svg11.dtd">
<!-- Generated by graphviz version 12.2.1 (0)
 -->
<!-- Title: CANdle Pages: 1 -->
<svg width="599pt" height="1004pt"
 viewBox="0.00 0.00 599.43 1004.10" xmlns="http://www.w3.org/2000/svg" xmlns:xlink="http://www.w3.org/1999/xlink">
<g id="graph0" class="graph" transform="scale(1 1) rotate(0) translate(4 1000.1)">
<title>CANdle</title>
<polygon fill="white" stroke="none" points="-4,4 -4,-1000.1 595.43,-1000.1 595.43,4 -4,4"/>
<!-- com_ctre_phoenix6_configs_CANdleConfiguration -->
<g id="node1" class="node">
<title>com_ctre_phoenix6_configs_CANdleConfiguration</title>
<ellipse fill="none" stroke="black" cx="369.05" cy="-888.05" rx="157.15" ry="30.05"/>
<text text-anchor="middle" x="369.05" y="-892" font-family="Times,serif" font-size="14.00">com.ctre.phoenix6</text>
<text text-anchor="middle" x="369.05" y="-874.75" font-family="Times,serif" font-size="14.00">configs.CANdleConfiguration</text>
</g>
<!-- com_ctre_phoenix6_controls -->
<g id="node2" class="node">
<title>com_ctre_phoenix6_controls</title>
<ellipse fill="none" stroke="black" cx="369.05" cy="-810.05" rx="104.65" ry="30.05"/>
<text text-anchor="middle" x="369.05" y="-814" font-family="Times,serif" font-size="14.00">com.ctre.phoenix6</text>
<text text-anchor="middle" x="369.05" y="-796.75" font-family="Times,serif" font-size="14.00">controls</text>
</g>
<!-- com_ctre_phoenix6_hardware_CANdle -->
<g id="node3" class="node">
<title>com_ctre_phoenix6_hardware_CANdle</title>
<ellipse fill="none" stroke="black" cx="369.05" cy="-732.05" rx="104.65" ry="30.05"/>
<text text-anchor="middle" x="369.05" y="-736" font-family="Times,serif" font-size="14.00">com.ctre.phoenix6</text>
<text text-anchor="middle" x="369.05" y="-718.75" font-family="Times,serif" font-size="14.00">hardware.CANdle</text>
</g>
<!-- com_ctre_phoenix6_signals_AnimationDirectionValue -->
<g id="node4" class="node">
<title>com_ctre_phoenix6_signals_AnimationDirectionValue</title>
<ellipse fill="none" stroke="black" cx="369.05" cy="-654.05" rx="175.72" ry="30.05"/>
<text text-anchor="middle" x="369.05" y="-658" font-family="Times,serif" font-size="14.00">com.ctre.phoenix6</text>
<text text-anchor="middle" x="369.05" y="-640.75" font-family="Times,serif" font-size="14.00">signals.AnimationDirectionValue</text>
</g>
<!-- com_ctre_phoenix6_signals_RGBWColor -->
<g id="node5" class="node">
<title>com_ctre_phoenix6_signals_RGBWColor</title>
<ellipse fill="none" stroke="black" cx="369.05" cy="-576.05" rx="109.96" ry="30.05"/>
<text text-anchor="middle" x="369.05" y="-580" font-family="Times,serif" font-size="14.00">com.ctre.phoenix6</text>
<text text-anchor="middle" x="369.05" y="-562.75" font-family="Times,serif" font-size="14.00">signals.RGBWColor</text>
</g>
<!-- com_ctre_phoenix6_signals_StatusLedWhenActiveValue -->
<g id="node6" class="node">
<title>com_ctre_phoenix6_signals_StatusLedWhenActiveValue</title>
<ellipse fill="none" stroke="black" cx="369.05" cy="-498.05" rx="188.97" ry="30.05"/>
<text text-anchor="middle" x="369.05" y="-502" font-family="Times,serif" font-size="14.00">com.ctre.phoenix6</text>
<text text-anchor="middle" x="369.05" y="-484.75" font-family="Times,serif" font-size="14.00">signals.StatusLedWhenActiveValue</text>
</g>
<!-- com_ctre_phoenix6_signals_StripTypeValue -->
<g id="node7" class="node">
<title>com_ctre_phoenix6_signals_StripTypeValue</title>
<ellipse fill="none" stroke="black" cx="369.05" cy="-420.05" rx="127.46" ry="30.05"/>
<text text-anchor="middle" x="369.05" y="-424" font-family="Times,serif" font-size="14.00">com.ctre.phoenix6</text>
<text text-anchor="middle" x="369.05" y="-406.75" font-family="Times,serif" font-size="14.00">signals.StripTypeValue</text>
</g>
<!-- edu_wpi_first_units_Units -->
<g id="node8" class="node">
<title>edu_wpi_first_units_Units</title>
<ellipse fill="none" stroke="black" cx="369.05" cy="-342.05" rx="74.95" ry="30.05"/>
<text text-anchor="middle" x="369.05" y="-346" font-family="Times,serif" font-size="14.00">edu.wpi.first</text>
<text text-anchor="middle" x="369.05" y="-328.75" font-family="Times,serif" font-size="14.00">units.Units</text>
</g>
<!-- edu_wpi_first_wpilibj_RobotBase -->
<g id="node9" class="node">
<title>edu_wpi_first_wpilibj_RobotBase</title>
<ellipse fill="none" stroke="black" cx="369.05" cy="-966.05" rx="102.53" ry="30.05"/>
<text text-anchor="middle" x="369.05" y="-970" font-family="Times,serif" font-size="14.00">edu.wpi.first</text>
<text text-anchor="middle" x="369.05" y="-952.75" font-family="Times,serif" font-size="14.00">wpilibj.RobotBase</text>
</g>
<!-- edu_wpi_first_wpilibj_smartdashboard_SendableChooser -->
<g id="node10" class="node">
<title>edu_wpi_first_wpilibj_smartdashboard_SendableChooser</title>
<ellipse fill="none" stroke="black" cx="369.05" cy="-264.05" rx="222.39" ry="30.05"/>
<text text-anchor="middle" x="369.05" y="-268" font-family="Times,serif" font-size="14.00">edu.wpi.first</text>
<text text-anchor="middle" x="369.05" y="-250.75" font-family="Times,serif" font-size="14.00">wpilibj.smartdashboard.SendableChooser</text>
</g>
<!-- edu_wpi_first_wpilibj_smartdashboard_SmartDashboard -->
<g id="node11" class="node">
<title>edu_wpi_first_wpilibj_smartdashboard_SmartDashboard</title>
<ellipse fill="none" stroke="black" cx="369.05" cy="-186.05" rx="220.26" ry="30.05"/>
<text text-anchor="middle" x="369.05" y="-190" font-family="Times,serif" font-size="14.00">edu.wpi.first</text>
<text text-anchor="middle" x="369.05" y="-172.75" font-family="Times,serif" font-size="14.00">wpilibj.smartdashboard.SmartDashboard</text>
</g>
<!-- edu_wpi_first_wpilibj_TimedRobot -->
<g id="node12" class="node">
<title>edu_wpi_first_wpilibj_TimedRobot</title>
<ellipse fill="none" stroke="black" cx="369.05" cy="-108.05" rx="109.42" ry="30.05"/>
<text text-anchor="middle" x="369.05" y="-112" font-family="Times,serif" font-size="14.00">edu.wpi.first</text>
<text text-anchor="middle" x="369.05" y="-94.75" font-family="Times,serif" font-size="14.00">wpilibj.TimedRobot</text>
</g>
<!-- edu_wpi_first_wpilibj_util_Color -->
<g id="node13" class="node">
<title>edu_wpi_first_wpilibj_util_Color</title>
<ellipse fill="none" stroke="black" cx="369.05" cy="-30.05" rx="95.64" ry="30.05"/>
<text text-anchor="middle" x="369.05" y="-34" font-family="Times,serif" font-size="14.00">edu.wpi.first</text>
<text text-anchor="middle" x="369.05" y="-16.75" font-family="Times,serif" font-size="14.00">wpilibj.util.Color</text>
</g>
<!-- frc_robot_Main -->
<g id="node14" class="node">
<title>frc_robot_Main</title>
<ellipse fill="none" stroke="black" cx="55.33" cy="-966.05" rx="55.33" ry="30.05"/>
<text text-anchor="middle" x="55.33" y="-970" font-family="Times,serif" font-size="14.00">frc.robot</text>
<text text-anchor="middle" x="55.33" y="-952.75" font-family="Times,serif" font-size="14.00">Main</text>
</g>
<!-- frc_robot_Main&#45;&gt;edu_wpi_first_wpilibj_RobotBase -->
<g id="edge13" class="edge">
<title>frc_robot_Main&#45;&gt;edu_wpi_first_wpilibj_RobotBase</title>
<path fill="none" stroke="black" d="M110.98,-966.05C150.67,-966.05 205.78,-966.05 254.8,-966.05"/>
<polygon fill="black" stroke="black" points="254.62,-969.55 264.62,-966.05 254.62,-962.55 254.62,-969.55"/>
</g>
<!-- frc_robot_Robot -->
<g id="node15" class="node">
<title>frc_robot_Robot</title>
<ellipse fill="none" stroke="black" cx="55.33" cy="-459.05" rx="55.33" ry="30.05"/>
<text text-anchor="middle" x="55.33" y="-463" font-family="Times,serif" font-size="14.00">frc.robot</text>
<text text-anchor="middle" x="55.33" y="-445.75" font-family="Times,serif" font-size="14.00">Robot</text>
</g>
<!-- frc_robot_Robot&#45;&gt;com_ctre_phoenix6_configs_CANdleConfiguration -->
<g id="edge2" class="edge">
<title>frc_robot_Robot&#45;&gt;com_ctre_phoenix6_configs_CANdleConfiguration</title>
<path fill="none" stroke="black" d="M59.11,-489.5C67.3,-572.4 94.15,-799.26 146.66,-849.05 162.28,-863.86 181.44,-874.09 201.89,-881.04"/>
<polygon fill="black" stroke="black" points="200.66,-884.33 211.24,-883.94 202.72,-877.64 200.66,-884.33"/>
</g>
<!-- frc_robot_Robot&#45;&gt;com_ctre_phoenix6_controls -->
<g id="edge3" class="edge">
<title>frc_robot_Robot&#45;&gt;com_ctre_phoenix6_controls</title>
<path fill="none" stroke="black" d="M55.34,-489.3C55.07,-552.08 64,-696.83 146.66,-771.05 175.67,-797.1 215.74,-808.76 253.84,-813.29"/>
<polygon fill="black" stroke="black" points="253.24,-816.74 263.54,-814.28 253.95,-809.78 253.24,-816.74"/>
</g>
<!-- frc_robot_Robot&#45;&gt;com_ctre_phoenix6_hardware_CANdle -->
<g id="edge4" class="edge">
<title>frc_robot_Robot&#45;&gt;com_ctre_phoenix6_hardware_CANdle</title>
<path fill="none" stroke="black" d="M58.73,-489.21C64.46,-539.77 83.61,-641.18 146.66,-693.05 176.36,-717.48 215.99,-728.88 253.5,-733.67"/>
<polygon fill="black" stroke="black" points="252.71,-737.1 263.04,-734.73 253.49,-730.14 252.71,-737.1"/>
</g>
<!-- frc_robot_Robot&#45;&gt;com_ctre_phoenix6_signals_AnimationDirectionValue -->
<g id="edge5" class="edge">
<title>frc_robot_Robot&#45;&gt;com_ctre_phoenix6_signals_AnimationDirectionValue</title>
<path fill="none" stroke="black" d="M65.09,-489.08C77.23,-525.08 102.8,-584.39 146.66,-615.05 161.36,-625.33 177.92,-633.17 195.2,-639.13"/>
<polygon fill="black" stroke="black" points="194,-642.42 204.59,-642.13 196.13,-635.75 194,-642.42"/>
</g>
<!-- frc_robot_Robot&#45;&gt;com_ctre_phoenix6_signals_RGBWColor -->
<g id="edge6" class="edge">
<title>frc_robot_Robot&#45;&gt;com_ctre_phoenix6_signals_RGBWColor</title>
<path fill="none" stroke="black" d="M80.12,-486.05C96.95,-503.39 121.02,-524.88 146.66,-537.05 178.71,-552.27 215.92,-561.6 250.58,-567.3"/>
<polygon fill="black" stroke="black" points="249.82,-570.72 260.23,-568.8 250.89,-563.81 249.82,-570.72"/>
</g>
<!-- frc_robot_Robot&#45;&gt;com_ctre_phoenix6_signals_StatusLedWhenActiveValue -->
<g id="edge7" class="edge">
<title>frc_robot_Robot&#45;&gt;com_ctre_phoenix6_signals_StatusLedWhenActiveValue</title>
<path fill="none" stroke="black" d="M109.56,-465.71C137.14,-469.16 172.43,-473.58 208.02,-478.03"/>
<polygon fill="black" stroke="black" points="207.2,-481.46 217.56,-479.22 208.07,-474.51 207.2,-481.46"/>
</g>
<!-- frc_robot_Robot&#45;&gt;com_ctre_phoenix6_signals_StripTypeValue -->
<g id="edge8" class="edge">
<title>frc_robot_Robot&#45;&gt;com_ctre_phoenix6_signals_StripTypeValue</title>
<path fill="none" stroke="black" d="M109.56,-452.39C146.59,-447.76 197.52,-441.39 244.4,-435.52"/>
<polygon fill="black" stroke="black" points="244.59,-439.03 254.08,-434.31 243.72,-432.08 244.59,-439.03"/>
</g>
<!-- frc_robot_Robot&#45;&gt;edu_wpi_first_units_Units -->
<g id="edge1" class="edge">
<title>frc_robot_Robot&#45;&gt;edu_wpi_first_units_Units</title>
<path fill="none" stroke="black" d="M80.12,-432.05C96.95,-414.71 121.02,-393.23 146.66,-381.05 188.98,-360.96 240.28,-351.13 282.84,-346.37"/>
<polygon fill="black" stroke="black" points="282.93,-349.88 292.52,-345.36 282.21,-342.91 282.93,-349.88"/>
</g>
<!-- frc_robot_Robot&#45;&gt;edu_wpi_first_wpilibj_smartdashboard_SendableChooser -->
<g id="edge10" class="edge">
<title>frc_robot_Robot&#45;&gt;edu_wpi_first_wpilibj_smartdashboard_SendableChooser</title>
<path fill="none" stroke="black" d="M65.09,-429.02C77.23,-393.02 102.8,-333.72 146.66,-303.05 156.18,-296.4 166.47,-290.77 177.23,-286.01"/>
<polygon fill="black" stroke="black" points="178.36,-289.33 186.28,-282.28 175.7,-282.85 178.36,-289.33"/>
</g>
<!-- frc_robot_Robot&#45;&gt;edu_wpi_first_wpilibj_smartdashboard_SmartDashboard -->
<g id="edge11" class="edge">
<title>frc_robot_Robot&#45;&gt;edu_wpi_first_wpilibj_smartdashboard_SmartDashboard</title>
<path fill="none" stroke="black" d="M58.73,-428.9C64.46,-378.34 83.61,-276.92 146.66,-225.05 154.99,-218.2 164.11,-212.37 173.74,-207.42"/>
<polygon fill="black" stroke="black" points="175.05,-210.68 182.58,-203.23 172.05,-204.35 175.05,-210.68"/>
</g>
<!-- frc_robot_Robot&#45;&gt;edu_wpi_first_wpilibj_TimedRobot -->
<g id="edge9" class="edge">
<title>frc_robot_Robot&#45;&gt;edu_wpi_first_wpilibj_TimedRobot</title>
<path fill="none" stroke="black" d="M55.34,-428.8C55.07,-366.02 64,-221.27 146.66,-147.05 174.43,-122.12 212.33,-110.37 248.93,-105.44"/>
<polygon fill="black" stroke="black" points="249.2,-108.93 258.73,-104.29 248.39,-101.98 249.2,-108.93"/>
</g>
<!-- frc_robot_Robot&#45;&gt;edu_wpi_first_wpilibj_util_Color -->
<g id="edge12" class="edge">
<title>frc_robot_Robot&#45;&gt;edu_wpi_first_wpilibj_util_Color</title>
<path fill="none" stroke="black" d="M59.11,-428.61C67.3,-345.71 94.15,-118.84 146.66,-69.05 177.6,-39.72 222.44,-28.32 263.69,-24.89"/>
<polygon fill="black" stroke="black" points="263.68,-28.4 273.42,-24.24 263.21,-21.41 263.68,-28.4"/>
</g>
</g>
</svg>
