<?xml version="1.0" encoding="UTF-8" standalone="no"?>
<!DOCTYPE svg PUBLIC "-//W3C//DTD SVG 1.1//EN"
 "http://www.w3.org/Graphics/SVG/1.1/DTD/svg11.dtd">
<!-- Generated by graphviz version 12.2.1 (0)
 -->
<!-- Title: CANdi Pages: 1 -->
<svg width="1112pt" height="1782pt"
 viewBox="0.00 0.00 1112.02 1782.10" xmlns="http://www.w3.org/2000/svg" xmlns:xlink="http://www.w3.org/1999/xlink">
<g id="graph0" class="graph" transform="scale(1 1) rotate(0) translate(4 1778.1)">
<title>CANdi</title>
<polygon fill="white" stroke="none" points="-4,4 -4,-1778.1 1108.02,-1778.1 1108.02,4 -4,4"/>
<!-- com_ctre_phoenix6_BaseStatusSignal -->
<g id="node1" class="node">
<title>com_ctre_phoenix6_BaseStatusSignal</title>
<ellipse fill="none" stroke="black" cx="437.46" cy="-808.05" rx="104.65" ry="30.05"/>
<text text-anchor="middle" x="437.46" y="-812" font-family="Times,serif" font-size="14.00">com.ctre.phoenix6</text>
<text text-anchor="middle" x="437.46" y="-794.75" font-family="Times,serif" font-size="14.00">BaseStatusSignal</text>
</g>
<!-- com_ctre_phoenix6_CANBus -->
<g id="node2" class="node">
<title>com_ctre_phoenix6_CANBus</title>
<ellipse fill="none" stroke="black" cx="437.46" cy="-730.05" rx="104.65" ry="30.05"/>
<text text-anchor="middle" x="437.46" y="-734" font-family="Times,serif" font-size="14.00">com.ctre.phoenix6</text>
<text text-anchor="middle" x="437.46" y="-716.75" font-family="Times,serif" font-size="14.00">CANBus</text>
</g>
<!-- com_ctre_phoenix6_configs_CANdiConfiguration -->
<g id="node3" class="node">
<title>com_ctre_phoenix6_configs_CANdiConfiguration</title>
<ellipse fill="none" stroke="black" cx="437.46" cy="-652.05" rx="151.32" ry="30.05"/>
<text text-anchor="middle" x="437.46" y="-656" font-family="Times,serif" font-size="14.00">com.ctre.phoenix6</text>
<text text-anchor="middle" x="437.46" y="-638.75" font-family="Times,serif" font-size="14.00">configs.CANdiConfiguration</text>
</g>
<!-- com_ctre_phoenix6_configs_TalonFXConfiguration -->
<g id="node4" class="node">
<title>com_ctre_phoenix6_configs_TalonFXConfiguration</title>
<ellipse fill="none" stroke="black" cx="437.46" cy="-496.05" rx="159.81" ry="30.05"/>
<text text-anchor="middle" x="437.46" y="-500" font-family="Times,serif" font-size="14.00">com.ctre.phoenix6</text>
<text text-anchor="middle" x="437.46" y="-482.75" font-family="Times,serif" font-size="14.00">configs.TalonFXConfiguration</text>
</g>
<!-- com_ctre_phoenix6_controls_DutyCycleOut -->
<g id="node5" class="node">
<title>com_ctre_phoenix6_controls_DutyCycleOut</title>
<ellipse fill="none" stroke="black" cx="437.46" cy="-418.05" rx="125.87" ry="30.05"/>
<text text-anchor="middle" x="437.46" y="-422" font-family="Times,serif" font-size="14.00">com.ctre.phoenix6</text>
<text text-anchor="middle" x="437.46" y="-404.75" font-family="Times,serif" font-size="14.00">controls.DutyCycleOut</text>
</g>
<!-- com_ctre_phoenix6_hardware_CANdi -->
<g id="node6" class="node">
<title>com_ctre_phoenix6_hardware_CANdi</title>
<ellipse fill="none" stroke="black" cx="915.05" cy="-360.05" rx="104.65" ry="30.05"/>
<text text-anchor="middle" x="915.05" y="-364" font-family="Times,serif" font-size="14.00">com.ctre.phoenix6</text>
<text text-anchor="middle" x="915.05" y="-346.75" font-family="Times,serif" font-size="14.00">hardware.CANdi</text>
</g>
<!-- com_ctre_phoenix6_hardware_TalonFX -->
<g id="node7" class="node">
<title>com_ctre_phoenix6_hardware_TalonFX</title>
<ellipse fill="none" stroke="black" cx="915.05" cy="-282.05" rx="104.65" ry="30.05"/>
<text text-anchor="middle" x="915.05" y="-286" font-family="Times,serif" font-size="14.00">com.ctre.phoenix6</text>
<text text-anchor="middle" x="915.05" y="-268.75" font-family="Times,serif" font-size="14.00">hardware.TalonFX</text>
</g>
<!-- com_ctre_phoenix6_signals_S1FloatStateValue -->
<g id="node8" class="node">
<title>com_ctre_phoenix6_signals_S1FloatStateValue</title>
<ellipse fill="none" stroke="black" cx="437.46" cy="-186.05" rx="143.9" ry="30.05"/>
<text text-anchor="middle" x="437.46" y="-190" font-family="Times,serif" font-size="14.00">com.ctre.phoenix6</text>
<text text-anchor="middle" x="437.46" y="-172.75" font-family="Times,serif" font-size="14.00">signals.S1FloatStateValue</text>
</g>
<!-- com_ctre_phoenix6_signals_S2CloseStateValue -->
<g id="node9" class="node">
<title>com_ctre_phoenix6_signals_S2CloseStateValue</title>
<ellipse fill="none" stroke="black" cx="437.46" cy="-108.05" rx="145.49" ry="30.05"/>
<text text-anchor="middle" x="437.46" y="-112" font-family="Times,serif" font-size="14.00">com.ctre.phoenix6</text>
<text text-anchor="middle" x="437.46" y="-94.75" font-family="Times,serif" font-size="14.00">signals.S2CloseStateValue</text>
</g>
<!-- com_ctre_phoenix6_sim_TalonFXSimState -->
<g id="node10" class="node">
<title>com_ctre_phoenix6_sim_TalonFXSimState</title>
<ellipse fill="none" stroke="black" cx="915.05" cy="-672.05" rx="120.03" ry="30.05"/>
<text text-anchor="middle" x="915.05" y="-676" font-family="Times,serif" font-size="14.00">com.ctre.phoenix6</text>
<text text-anchor="middle" x="915.05" y="-658.75" font-family="Times,serif" font-size="14.00">sim.TalonFXSimState</text>
</g>
<!-- com_ctre_phoenix6_StatusSignal -->
<g id="node11" class="node">
<title>com_ctre_phoenix6_StatusSignal</title>
<ellipse fill="none" stroke="black" cx="437.46" cy="-1666.05" rx="104.65" ry="30.05"/>
<text text-anchor="middle" x="437.46" y="-1670" font-family="Times,serif" font-size="14.00">com.ctre.phoenix6</text>
<text text-anchor="middle" x="437.46" y="-1652.75" font-family="Times,serif" font-size="14.00">StatusSignal</text>
</g>
<!-- com_ctre_phoenix6_Utils -->
<g id="node12" class="node">
<title>com_ctre_phoenix6_Utils</title>
<ellipse fill="none" stroke="black" cx="915.05" cy="-204.05" rx="104.65" ry="30.05"/>
<text text-anchor="middle" x="915.05" y="-208" font-family="Times,serif" font-size="14.00">com.ctre.phoenix6</text>
<text text-anchor="middle" x="915.05" y="-190.75" font-family="Times,serif" font-size="14.00">Utils</text>
</g>
<!-- edu_wpi_first_math_geometry_Rotation2d -->
<g id="node13" class="node">
<title>edu_wpi_first_math_geometry_Rotation2d</title>
<ellipse fill="none" stroke="black" cx="437.46" cy="-1588.05" rx="146.02" ry="30.05"/>
<text text-anchor="middle" x="437.46" y="-1592" font-family="Times,serif" font-size="14.00">edu.wpi.first</text>
<text text-anchor="middle" x="437.46" y="-1574.75" font-family="Times,serif" font-size="14.00">math.geometry.Rotation2d</text>
</g>
<!-- edu_wpi_first_math_system_plant_DCMotor -->
<g id="node14" class="node">
<title>edu_wpi_first_math_system_plant_DCMotor</title>
<ellipse fill="none" stroke="black" cx="915.05" cy="-594.05" rx="155.03" ry="30.05"/>
<text text-anchor="middle" x="915.05" y="-598" font-family="Times,serif" font-size="14.00">edu.wpi.first</text>
<text text-anchor="middle" x="915.05" y="-580.75" font-family="Times,serif" font-size="14.00">math.system.plant.DCMotor</text>
</g>
<!-- edu_wpi_first_math_system_plant_LinearSystemId -->
<g id="node15" class="node">
<title>edu_wpi_first_math_system_plant_LinearSystemId</title>
<ellipse fill="none" stroke="black" cx="915.05" cy="-516.05" rx="188.97" ry="30.05"/>
<text text-anchor="middle" x="915.05" y="-520" font-family="Times,serif" font-size="14.00">edu.wpi.first</text>
<text text-anchor="middle" x="915.05" y="-502.75" font-family="Times,serif" font-size="14.00">math.system.plant.LinearSystemId</text>
</g>
<!-- edu_wpi_first_math_util_Units -->
<g id="node16" class="node">
<title>edu_wpi_first_math_util_Units</title>
<ellipse fill="none" stroke="black" cx="915.05" cy="-438.05" rx="88.21" ry="30.05"/>
<text text-anchor="middle" x="915.05" y="-442" font-family="Times,serif" font-size="14.00">edu.wpi.first</text>
<text text-anchor="middle" x="915.05" y="-424.75" font-family="Times,serif" font-size="14.00">math.util.Units</text>
</g>
<!-- edu_wpi_first_units_measure_Angle -->
<g id="node17" class="node">
<title>edu_wpi_first_units_measure_Angle</title>
<ellipse fill="none" stroke="black" cx="437.46" cy="-1510.05" rx="115.26" ry="30.05"/>
<text text-anchor="middle" x="437.46" y="-1514" font-family="Times,serif" font-size="14.00">edu.wpi.first</text>
<text text-anchor="middle" x="437.46" y="-1496.75" font-family="Times,serif" font-size="14.00">units.measure.Angle</text>
</g>
<!-- edu_wpi_first_units_Units -->
<g id="node18" class="node">
<title>edu_wpi_first_units_Units</title>
<ellipse fill="none" stroke="black" cx="437.46" cy="-30.05" rx="74.95" ry="30.05"/>
<text text-anchor="middle" x="437.46" y="-34" font-family="Times,serif" font-size="14.00">edu.wpi.first</text>
<text text-anchor="middle" x="437.46" y="-16.75" font-family="Times,serif" font-size="14.00">units.Units</text>
</g>
<!-- edu_wpi_first_units_Units_Microseconds -->
<g id="node19" class="node">
<title>edu_wpi_first_units_Units_Microseconds</title>
<ellipse fill="none" stroke="black" cx="915.05" cy="-906.05" rx="140.18" ry="30.05"/>
<text text-anchor="middle" x="915.05" y="-910" font-family="Times,serif" font-size="14.00">edu.wpi.first</text>
<text text-anchor="middle" x="915.05" y="-892.75" font-family="Times,serif" font-size="14.00">units.Units.Microseconds</text>
</g>
<!-- edu_wpi_first_wpilibj_RobotBase -->
<g id="node20" class="node">
<title>edu_wpi_first_wpilibj_RobotBase</title>
<ellipse fill="none" stroke="black" cx="437.46" cy="-1744.05" rx="102.53" ry="30.05"/>
<text text-anchor="middle" x="437.46" y="-1748" font-family="Times,serif" font-size="14.00">edu.wpi.first</text>
<text text-anchor="middle" x="437.46" y="-1730.75" font-family="Times,serif" font-size="14.00">wpilibj.RobotBase</text>
</g>
<!-- edu_wpi_first_wpilibj_simulation_DCMotorSim -->
<g id="node21" class="node">
<title>edu_wpi_first_wpilibj_simulation_DCMotorSim</title>
<ellipse fill="none" stroke="black" cx="915.05" cy="-828.05" rx="170.41" ry="30.05"/>
<text text-anchor="middle" x="915.05" y="-832" font-family="Times,serif" font-size="14.00">edu.wpi.first</text>
<text text-anchor="middle" x="915.05" y="-814.75" font-family="Times,serif" font-size="14.00">wpilibj.simulation.DCMotorSim</text>
</g>
<!-- edu_wpi_first_wpilibj_smartdashboard_Mechanism2d -->
<g id="node22" class="node">
<title>edu_wpi_first_wpilibj_smartdashboard_Mechanism2d</title>
<ellipse fill="none" stroke="black" cx="437.46" cy="-1432.05" rx="204.88" ry="30.05"/>
<text text-anchor="middle" x="437.46" y="-1436" font-family="Times,serif" font-size="14.00">edu.wpi.first</text>
<text text-anchor="middle" x="437.46" y="-1418.75" font-family="Times,serif" font-size="14.00">wpilibj.smartdashboard.Mechanism2d</text>
</g>
<!-- edu_wpi_first_wpilibj_smartdashboard_MechanismLigament2d -->
<g id="node23" class="node">
<title>edu_wpi_first_wpilibj_smartdashboard_MechanismLigament2d</title>
<ellipse fill="none" stroke="black" cx="437.46" cy="-1354.05" rx="252.61" ry="30.05"/>
<text text-anchor="middle" x="437.46" y="-1358" font-family="Times,serif" font-size="14.00">edu.wpi.first</text>
<text text-anchor="middle" x="437.46" y="-1340.75" font-family="Times,serif" font-size="14.00">wpilibj.smartdashboard.MechanismLigament2d</text>
</g>
<!-- edu_wpi_first_wpilibj_smartdashboard_SmartDashboard -->
<g id="node24" class="node">
<title>edu_wpi_first_wpilibj_smartdashboard_SmartDashboard</title>
<ellipse fill="none" stroke="black" cx="437.46" cy="-1276.05" rx="220.26" ry="30.05"/>
<text text-anchor="middle" x="437.46" y="-1280" font-family="Times,serif" font-size="14.00">edu.wpi.first</text>
<text text-anchor="middle" x="437.46" y="-1262.75" font-family="Times,serif" font-size="14.00">wpilibj.smartdashboard.SmartDashboard</text>
</g>
<!-- edu_wpi_first_wpilibj_TimedRobot -->
<g id="node25" class="node">
<title>edu_wpi_first_wpilibj_TimedRobot</title>
<ellipse fill="none" stroke="black" cx="437.46" cy="-1042.05" rx="109.42" ry="30.05"/>
<text text-anchor="middle" x="437.46" y="-1046" font-family="Times,serif" font-size="14.00">edu.wpi.first</text>
<text text-anchor="middle" x="437.46" y="-1028.75" font-family="Times,serif" font-size="14.00">wpilibj.TimedRobot</text>
</g>
<!-- edu_wpi_first_wpilibj_Timer -->
<g id="node26" class="node">
<title>edu_wpi_first_wpilibj_Timer</title>
<ellipse fill="none" stroke="black" cx="437.46" cy="-964.05" rx="78.14" ry="30.05"/>
<text text-anchor="middle" x="437.46" y="-968" font-family="Times,serif" font-size="14.00">edu.wpi.first</text>
<text text-anchor="middle" x="437.46" y="-950.75" font-family="Times,serif" font-size="14.00">wpilibj.Timer</text>
</g>
<!-- edu_wpi_first_wpilibj_util_Color -->
<g id="node27" class="node">
<title>edu_wpi_first_wpilibj_util_Color</title>
<ellipse fill="none" stroke="black" cx="437.46" cy="-1198.05" rx="95.64" ry="30.05"/>
<text text-anchor="middle" x="437.46" y="-1202" font-family="Times,serif" font-size="14.00">edu.wpi.first</text>
<text text-anchor="middle" x="437.46" y="-1184.75" font-family="Times,serif" font-size="14.00">wpilibj.util.Color</text>
</g>
<!-- edu_wpi_first_wpilibj_util_Color8Bit -->
<g id="node28" class="node">
<title>edu_wpi_first_wpilibj_util_Color8Bit</title>
<ellipse fill="none" stroke="black" cx="437.46" cy="-1120.05" rx="116.85" ry="30.05"/>
<text text-anchor="middle" x="437.46" y="-1124" font-family="Times,serif" font-size="14.00">edu.wpi.first</text>
<text text-anchor="middle" x="437.46" y="-1106.75" font-family="Times,serif" font-size="14.00">wpilibj.util.Color8Bit</text>
</g>
<!-- edu_wpi_first_wpilibj_XboxController -->
<g id="node29" class="node">
<title>edu_wpi_first_wpilibj_XboxController</title>
<ellipse fill="none" stroke="black" cx="437.46" cy="-886.05" rx="124.8" ry="30.05"/>
<text text-anchor="middle" x="437.46" y="-890" font-family="Times,serif" font-size="14.00">edu.wpi.first</text>
<text text-anchor="middle" x="437.46" y="-872.75" font-family="Times,serif" font-size="14.00">wpilibj.XboxController</text>
</g>
<!-- frc_robot_Main -->
<g id="node30" class="node">
<title>frc_robot_Main</title>
<ellipse fill="none" stroke="black" cx="74.42" cy="-1744.05" rx="55.33" ry="30.05"/>
<text text-anchor="middle" x="74.42" y="-1748" font-family="Times,serif" font-size="14.00">frc.robot</text>
<text text-anchor="middle" x="74.42" y="-1730.75" font-family="Times,serif" font-size="14.00">Main</text>
</g>
<!-- frc_robot_Main&#45;&gt;edu_wpi_first_wpilibj_RobotBase -->
<g id="edge36" class="edge">
<title>frc_robot_Main&#45;&gt;edu_wpi_first_wpilibj_RobotBase</title>
<path fill="none" stroke="black" d="M129.86,-1744.05C180.88,-1744.05 258.71,-1744.05 323.19,-1744.05"/>
<polygon fill="black" stroke="black" points="323.14,-1747.55 333.14,-1744.05 323.14,-1740.55 323.14,-1747.55"/>
</g>
<!-- frc_robot_Mechanisms -->
<g id="node31" class="node">
<title>frc_robot_Mechanisms</title>
<ellipse fill="none" stroke="black" cx="74.42" cy="-1393.05" rx="74.42" ry="30.05"/>
<text text-anchor="middle" x="74.42" y="-1397" font-family="Times,serif" font-size="14.00">frc.robot</text>
<text text-anchor="middle" x="74.42" y="-1379.75" font-family="Times,serif" font-size="14.00">Mechanisms</text>
</g>
<!-- frc_robot_Mechanisms&#45;&gt;com_ctre_phoenix6_StatusSignal -->
<g id="edge15" class="edge">
<title>frc_robot_Mechanisms&#45;&gt;com_ctre_phoenix6_StatusSignal</title>
<path fill="none" stroke="black" d="M80.29,-1423.51C90.15,-1474.52 117.58,-1576.59 184.85,-1627.05 223.88,-1656.34 276.04,-1667.62 322.75,-1670.97"/>
<polygon fill="black" stroke="black" points="322.48,-1674.46 332.67,-1671.56 322.89,-1667.48 322.48,-1674.46"/>
</g>
<!-- frc_robot_Mechanisms&#45;&gt;edu_wpi_first_math_geometry_Rotation2d -->
<g id="edge16" class="edge">
<title>frc_robot_Mechanisms&#45;&gt;edu_wpi_first_math_geometry_Rotation2d</title>
<path fill="none" stroke="black" d="M87.57,-1423.03C103.93,-1459.26 136.67,-1519.09 184.85,-1549.05 213.34,-1566.78 247.07,-1577.42 280.41,-1583.62"/>
<polygon fill="black" stroke="black" points="279.75,-1587.06 290.2,-1585.3 280.94,-1580.16 279.75,-1587.06"/>
</g>
<!-- frc_robot_Mechanisms&#45;&gt;edu_wpi_first_units_measure_Angle -->
<g id="edge17" class="edge">
<title>frc_robot_Mechanisms&#45;&gt;edu_wpi_first_units_measure_Angle</title>
<path fill="none" stroke="black" d="M105.64,-1420.52C126.41,-1437.83 155.46,-1459.09 184.85,-1471.05 224.88,-1487.35 271.04,-1496.88 312.81,-1502.45"/>
<polygon fill="black" stroke="black" points="312.32,-1505.91 322.68,-1503.69 313.19,-1498.97 312.32,-1505.91"/>
</g>
<!-- frc_robot_Mechanisms&#45;&gt;edu_wpi_first_wpilibj_smartdashboard_Mechanism2d -->
<g id="edge18" class="edge">
<title>frc_robot_Mechanisms&#45;&gt;edu_wpi_first_wpilibj_smartdashboard_Mechanism2d</title>
<path fill="none" stroke="black" d="M146.75,-1400.76C179.44,-1404.29 219.77,-1408.64 259.85,-1412.97"/>
<polygon fill="black" stroke="black" points="259.32,-1416.44 269.63,-1414.03 260.07,-1409.48 259.32,-1416.44"/>
</g>
<!-- frc_robot_Mechanisms&#45;&gt;edu_wpi_first_wpilibj_smartdashboard_MechanismLigament2d -->
<g id="edge19" class="edge">
<title>frc_robot_Mechanisms&#45;&gt;edu_wpi_first_wpilibj_smartdashboard_MechanismLigament2d</title>
<path fill="none" stroke="black" d="M146.75,-1385.35C173.34,-1382.47 204.99,-1379.06 237.44,-1375.55"/>
<polygon fill="black" stroke="black" points="237.4,-1379.08 246.97,-1374.52 236.65,-1372.12 237.4,-1379.08"/>
</g>
<!-- frc_robot_Mechanisms&#45;&gt;edu_wpi_first_wpilibj_smartdashboard_SmartDashboard -->
<g id="edge20" class="edge">
<title>frc_robot_Mechanisms&#45;&gt;edu_wpi_first_wpilibj_smartdashboard_SmartDashboard</title>
<path fill="none" stroke="black" d="M105.64,-1365.59C126.41,-1348.28 155.46,-1327.01 184.85,-1315.05 203.93,-1307.28 224.41,-1301.05 245.15,-1296.05"/>
<polygon fill="black" stroke="black" points="245.91,-1299.47 254.87,-1293.81 244.34,-1292.65 245.91,-1299.47"/>
</g>
<!-- frc_robot_Mechanisms&#45;&gt;edu_wpi_first_wpilibj_util_Color -->
<g id="edge21" class="edge">
<title>frc_robot_Mechanisms&#45;&gt;edu_wpi_first_wpilibj_util_Color</title>
<path fill="none" stroke="black" d="M87.57,-1363.08C103.93,-1326.85 136.67,-1267.02 184.85,-1237.05 227.94,-1210.25 282.98,-1199.64 330.58,-1196.1"/>
<polygon fill="black" stroke="black" points="330.61,-1199.6 340.37,-1195.47 330.17,-1192.62 330.61,-1199.6"/>
</g>
<!-- frc_robot_Mechanisms&#45;&gt;edu_wpi_first_wpilibj_util_Color8Bit -->
<g id="edge22" class="edge">
<title>frc_robot_Mechanisms&#45;&gt;edu_wpi_first_wpilibj_util_Color8Bit</title>
<path fill="none" stroke="black" d="M80.29,-1362.59C90.15,-1311.58 117.58,-1209.51 184.85,-1159.05 220.47,-1132.33 267.01,-1120.6 310.37,-1116.2"/>
<polygon fill="black" stroke="black" points="310.45,-1119.71 320.1,-1115.35 309.83,-1112.74 310.45,-1119.71"/>
</g>
<!-- frc_robot_Robot -->
<g id="node32" class="node">
<title>frc_robot_Robot</title>
<ellipse fill="none" stroke="black" cx="74.42" cy="-457.05" rx="55.33" ry="30.05"/>
<text text-anchor="middle" x="74.42" y="-461" font-family="Times,serif" font-size="14.00">frc.robot</text>
<text text-anchor="middle" x="74.42" y="-443.75" font-family="Times,serif" font-size="14.00">Robot</text>
</g>
<!-- frc_robot_Robot&#45;&gt;com_ctre_phoenix6_BaseStatusSignal -->
<g id="edge2" class="edge">
<title>frc_robot_Robot&#45;&gt;com_ctre_phoenix6_BaseStatusSignal</title>
<path fill="none" stroke="black" d="M76.3,-487.13C79.88,-550.23 97.67,-696.57 184.85,-769.05 223.16,-800.91 276.51,-812.27 324.23,-815.01"/>
<polygon fill="black" stroke="black" points="323.93,-818.5 334.08,-815.45 324.24,-811.51 323.93,-818.5"/>
</g>
<!-- frc_robot_Robot&#45;&gt;com_ctre_phoenix6_CANBus -->
<g id="edge3" class="edge">
<title>frc_robot_Robot&#45;&gt;com_ctre_phoenix6_CANBus</title>
<path fill="none" stroke="black" d="M80.21,-487.1C90,-537.98 117.4,-640.46 184.85,-691.05 223.88,-720.34 276.04,-731.62 322.75,-734.97"/>
<polygon fill="black" stroke="black" points="322.48,-738.46 332.67,-735.56 322.89,-731.48 322.48,-738.46"/>
</g>
<!-- frc_robot_Robot&#45;&gt;com_ctre_phoenix6_configs_CANdiConfiguration -->
<g id="edge4" class="edge">
<title>frc_robot_Robot&#45;&gt;com_ctre_phoenix6_configs_CANdiConfiguration</title>
<path fill="none" stroke="black" d="M87.43,-486.71C103.74,-522.91 136.53,-583 184.85,-613.05 211.96,-629.92 243.8,-640.37 275.55,-646.69"/>
<polygon fill="black" stroke="black" points="274.81,-650.11 285.28,-648.48 276.08,-643.22 274.81,-650.11"/>
</g>
<!-- frc_robot_Robot&#45;&gt;com_ctre_phoenix6_configs_TalonFXConfiguration -->
<g id="edge5" class="edge">
<title>frc_robot_Robot&#45;&gt;com_ctre_phoenix6_configs_TalonFXConfiguration</title>
<path fill="none" stroke="black" d="M129.08,-462.85C170.8,-467.35 230.78,-473.83 286.7,-479.87"/>
<polygon fill="black" stroke="black" points="286,-483.32 296.32,-480.91 286.76,-476.36 286,-483.32"/>
</g>
<!-- frc_robot_Robot&#45;&gt;com_ctre_phoenix6_controls_DutyCycleOut -->
<g id="edge6" class="edge">
<title>frc_robot_Robot&#45;&gt;com_ctre_phoenix6_controls_DutyCycleOut</title>
<path fill="none" stroke="black" d="M129.08,-451.26C176.89,-446.09 248.71,-438.33 310.9,-431.62"/>
<polygon fill="black" stroke="black" points="310.92,-435.13 320.49,-430.58 310.17,-428.17 310.92,-435.13"/>
</g>
<!-- frc_robot_Robot&#45;&gt;com_ctre_phoenix6_hardware_CANdi -->
<g id="edge7" class="edge">
<title>frc_robot_Robot&#45;&gt;com_ctre_phoenix6_hardware_CANdi</title>
<path fill="none" stroke="black" d="M102.5,-430.67C123.2,-412.41 153.43,-389.56 184.85,-379.05 295.39,-342.09 624,-348.46 799.91,-354.96"/>
<polygon fill="black" stroke="black" points="799.64,-358.45 809.76,-355.33 799.9,-351.45 799.64,-358.45"/>
</g>
<!-- frc_robot_Robot&#45;&gt;com_ctre_phoenix6_hardware_TalonFX -->
<g id="edge8" class="edge">
<title>frc_robot_Robot&#45;&gt;com_ctre_phoenix6_hardware_TalonFX</title>
<path fill="none" stroke="black" d="M94.24,-428.69C113.53,-402.24 146.14,-364.21 184.85,-346.05 286.85,-298.19 577.84,-313.09 690.07,-303.05 727.18,-299.73 767.72,-295.97 804,-292.56"/>
<polygon fill="black" stroke="black" points="803.98,-296.08 813.6,-291.65 803.32,-289.11 803.98,-296.08"/>
</g>
<!-- frc_robot_Robot&#45;&gt;com_ctre_phoenix6_signals_S1FloatStateValue -->
<g id="edge9" class="edge">
<title>frc_robot_Robot&#45;&gt;com_ctre_phoenix6_signals_S1FloatStateValue</title>
<path fill="none" stroke="black" d="M80.37,-426.85C90.36,-376.26 117.97,-275.05 184.85,-225.05 212.88,-204.1 247.64,-192.37 282.29,-186.17"/>
<polygon fill="black" stroke="black" points="282.72,-189.65 292.03,-184.59 281.6,-182.74 282.72,-189.65"/>
</g>
<!-- frc_robot_Robot&#45;&gt;com_ctre_phoenix6_signals_S2CloseStateValue -->
<g id="edge10" class="edge">
<title>frc_robot_Robot&#45;&gt;com_ctre_phoenix6_signals_S2CloseStateValue</title>
<path fill="none" stroke="black" d="M76.39,-426.68C80.16,-363.72 98.32,-218.85 184.85,-147.05 211.94,-124.57 246.52,-112.31 281.31,-106.07"/>
<polygon fill="black" stroke="black" points="281.79,-109.54 291.11,-104.5 280.68,-102.63 281.79,-109.54"/>
</g>
<!-- frc_robot_Robot&#45;&gt;edu_wpi_first_units_Units -->
<g id="edge1" class="edge">
<title>frc_robot_Robot&#45;&gt;edu_wpi_first_units_Units</title>
<path fill="none" stroke="black" d="M79.69,-426.93C91.99,-344.38 130.23,-117.43 184.85,-69.05 230.26,-28.83 299.29,-20.52 353.57,-21.48"/>
<polygon fill="black" stroke="black" points="353.3,-24.97 363.4,-21.77 353.51,-17.97 353.3,-24.97"/>
</g>
<!-- frc_robot_Robot&#45;&gt;edu_wpi_first_wpilibj_TimedRobot -->
<g id="edge11" class="edge">
<title>frc_robot_Robot&#45;&gt;edu_wpi_first_wpilibj_TimedRobot</title>
<path fill="none" stroke="black" d="M77.06,-487.23C83.31,-591 109.32,-930.78 184.85,-1003.05 220.84,-1037.5 273.92,-1049.17 322.06,-1051.45"/>
<polygon fill="black" stroke="black" points="321.91,-1054.95 332.01,-1051.77 322.13,-1047.95 321.91,-1054.95"/>
</g>
<!-- frc_robot_Robot&#45;&gt;edu_wpi_first_wpilibj_Timer -->
<g id="edge12" class="edge">
<title>frc_robot_Robot&#45;&gt;edu_wpi_first_wpilibj_Timer</title>
<path fill="none" stroke="black" d="M78.16,-487.45C87.28,-581.44 119.75,-864.72 184.85,-925.05 228.81,-965.8 296.8,-974.32 351.02,-973.33"/>
<polygon fill="black" stroke="black" points="350.97,-976.83 360.86,-973.02 350.76,-969.83 350.97,-976.83"/>
</g>
<!-- frc_robot_Robot&#45;&gt;edu_wpi_first_wpilibj_XboxController -->
<g id="edge13" class="edge">
<title>frc_robot_Robot&#45;&gt;edu_wpi_first_wpilibj_XboxController</title>
<path fill="none" stroke="black" d="M79.66,-487.33C91.91,-570.3 130,-798.41 184.85,-847.05 217.41,-875.93 262.14,-888.36 304.86,-892.73"/>
<polygon fill="black" stroke="black" points="304.48,-896.21 314.75,-893.58 305.09,-889.24 304.48,-896.21"/>
</g>
<!-- frc_robot_sim_PhysicsSim -->
<g id="node33" class="node">
<title>frc_robot_sim_PhysicsSim</title>
<ellipse fill="none" stroke="black" cx="437.46" cy="-264.05" rx="90.33" ry="30.05"/>
<text text-anchor="middle" x="437.46" y="-268" font-family="Times,serif" font-size="14.00">frc.robot</text>
<text text-anchor="middle" x="437.46" y="-250.75" font-family="Times,serif" font-size="14.00">sim.PhysicsSim</text>
</g>
<!-- frc_robot_Robot&#45;&gt;frc_robot_sim_PhysicsSim -->
<g id="edge14" class="edge">
<title>frc_robot_Robot&#45;&gt;frc_robot_sim_PhysicsSim</title>
<path fill="none" stroke="black" d="M88.48,-427.64C105.44,-393.08 138.48,-336.81 184.85,-308.05 229.6,-280.29 286.97,-268.82 335.63,-264.49"/>
<polygon fill="black" stroke="black" points="335.63,-268.01 345.32,-263.73 335.08,-261.03 335.63,-268.01"/>
</g>
<!-- frc_robot_sim_PhysicsSim&#45;&gt;com_ctre_phoenix6_hardware_CANdi -->
<g id="edge25" class="edge">
<title>frc_robot_sim_PhysicsSim&#45;&gt;com_ctre_phoenix6_hardware_CANdi</title>
<path fill="none" stroke="black" d="M515.4,-279.58C597.59,-296.17 728.04,-322.5 817.17,-340.5"/>
<polygon fill="black" stroke="black" points="816.39,-343.91 826.89,-342.46 817.78,-337.05 816.39,-343.91"/>
</g>
<!-- frc_robot_sim_PhysicsSim&#45;&gt;com_ctre_phoenix6_hardware_TalonFX -->
<g id="edge26" class="edge">
<title>frc_robot_sim_PhysicsSim&#45;&gt;com_ctre_phoenix6_hardware_TalonFX</title>
<path fill="none" stroke="black" d="M527.64,-267.43C604.52,-270.34 716.01,-274.56 799.49,-277.72"/>
<polygon fill="black" stroke="black" points="799.18,-281.21 809.31,-278.09 799.44,-274.21 799.18,-281.21"/>
</g>
<!-- frc_robot_sim_PhysicsSim&#45;&gt;com_ctre_phoenix6_Utils -->
<g id="edge24" class="edge">
<title>frc_robot_sim_PhysicsSim&#45;&gt;com_ctre_phoenix6_Utils</title>
<path fill="none" stroke="black" d="M522.39,-253.46C601.76,-243.45 721.21,-228.38 807.31,-217.52"/>
<polygon fill="black" stroke="black" points="807.72,-220.99 817.2,-216.27 806.84,-214.05 807.72,-220.99"/>
</g>
<!-- java_util_ArrayList -->
<g id="node36" class="node">
<title>java_util_ArrayList</title>
<ellipse fill="none" stroke="black" cx="915.05" cy="-126.05" rx="58.51" ry="30.05"/>
<text text-anchor="middle" x="915.05" y="-130" font-family="Times,serif" font-size="14.00">java.util</text>
<text text-anchor="middle" x="915.05" y="-112.75" font-family="Times,serif" font-size="14.00">ArrayList</text>
</g>
<!-- frc_robot_sim_PhysicsSim&#45;&gt;java_util_ArrayList -->
<g id="edge23" class="edge">
<title>frc_robot_sim_PhysicsSim&#45;&gt;java_util_ArrayList</title>
<path fill="none" stroke="black" d="M527.26,-268.3C578.74,-266.61 642.57,-257 690.07,-225.05 715.88,-207.7 700.72,-183.06 726.07,-165.05 760.58,-140.55 807.09,-130.76 845.22,-127.11"/>
<polygon fill="black" stroke="black" points="845.06,-130.64 854.74,-126.33 844.48,-123.66 845.06,-130.64"/>
</g>
<!-- frc_robot_sim_PhysicsSim_SimProfile -->
<g id="node34" class="node">
<title>frc_robot_sim_PhysicsSim_SimProfile</title>
<ellipse fill="none" stroke="black" cx="915.05" cy="-750.05" rx="146.02" ry="30.05"/>
<text text-anchor="middle" x="915.05" y="-754" font-family="Times,serif" font-size="14.00">frc.robot</text>
<text text-anchor="middle" x="915.05" y="-736.75" font-family="Times,serif" font-size="14.00">sim.PhysicsSim.SimProfile</text>
</g>
<!-- frc_robot_sim_TalonFXSimProfile -->
<g id="node35" class="node">
<title>frc_robot_sim_TalonFXSimProfile</title>
<ellipse fill="none" stroke="black" cx="437.46" cy="-574.05" rx="125.87" ry="30.05"/>
<text text-anchor="middle" x="437.46" y="-578" font-family="Times,serif" font-size="14.00">frc.robot</text>
<text text-anchor="middle" x="437.46" y="-560.75" font-family="Times,serif" font-size="14.00">sim.TalonFXSimProfile</text>
</g>
<!-- frc_robot_sim_TalonFXSimProfile&#45;&gt;com_ctre_phoenix6_hardware_CANdi -->
<g id="edge28" class="edge">
<title>frc_robot_sim_TalonFXSimProfile&#45;&gt;com_ctre_phoenix6_hardware_CANdi</title>
<path fill="none" stroke="black" d="M559.54,-581.93C605.43,-578.65 655,-566.62 690.07,-535.05 736.55,-493.22 680.68,-442.05 726.07,-399.05 745.96,-380.22 772.45,-369.46 799.25,-363.52"/>
<polygon fill="black" stroke="black" points="799.71,-367 808.85,-361.63 798.36,-360.13 799.71,-367"/>
</g>
<!-- frc_robot_sim_TalonFXSimProfile&#45;&gt;com_ctre_phoenix6_hardware_TalonFX -->
<g id="edge29" class="edge">
<title>frc_robot_sim_TalonFXSimProfile&#45;&gt;com_ctre_phoenix6_hardware_TalonFX</title>
<path fill="none" stroke="black" d="M557.19,-583.78C604.38,-581.16 655.55,-569.14 690.07,-535.05 758.71,-467.29 659.18,-390.53 726.07,-321.05 745.27,-301.11 771.8,-290 798.88,-284.1"/>
<polygon fill="black" stroke="black" points="799.44,-287.55 808.6,-282.23 798.12,-280.68 799.44,-287.55"/>
</g>
<!-- frc_robot_sim_TalonFXSimProfile&#45;&gt;com_ctre_phoenix6_sim_TalonFXSimState -->
<g id="edge30" class="edge">
<title>frc_robot_sim_TalonFXSimProfile&#45;&gt;com_ctre_phoenix6_sim_TalonFXSimState</title>
<path fill="none" stroke="black" d="M557.04,-583.7C599.77,-589.44 647.84,-598.57 690.07,-613.05 707.39,-618.99 708.92,-626.68 726.07,-633.05 749.61,-641.8 775.58,-648.78 800.51,-654.27"/>
<polygon fill="black" stroke="black" points="799.5,-657.63 810.01,-656.29 800.96,-650.79 799.5,-657.63"/>
</g>
<!-- frc_robot_sim_TalonFXSimProfile&#45;&gt;edu_wpi_first_math_system_plant_DCMotor -->
<g id="edge31" class="edge">
<title>frc_robot_sim_TalonFXSimProfile&#45;&gt;edu_wpi_first_math_system_plant_DCMotor</title>
<path fill="none" stroke="black" d="M561.86,-579.24C619.89,-581.68 689.85,-584.62 752.07,-587.24"/>
<polygon fill="black" stroke="black" points="751.54,-590.72 761.68,-587.64 751.84,-583.73 751.54,-590.72"/>
</g>
<!-- frc_robot_sim_TalonFXSimProfile&#45;&gt;edu_wpi_first_math_system_plant_LinearSystemId -->
<g id="edge32" class="edge">
<title>frc_robot_sim_TalonFXSimProfile&#45;&gt;edu_wpi_first_math_system_plant_LinearSystemId</title>
<path fill="none" stroke="black" d="M550.26,-560.42C610.61,-553.06 686.17,-543.84 752.77,-535.72"/>
<polygon fill="black" stroke="black" points="752.8,-539.24 762.31,-534.56 751.96,-532.29 752.8,-539.24"/>
</g>
<!-- frc_robot_sim_TalonFXSimProfile&#45;&gt;edu_wpi_first_math_util_Units -->
<g id="edge33" class="edge">
<title>frc_robot_sim_TalonFXSimProfile&#45;&gt;edu_wpi_first_math_util_Units</title>
<path fill="none" stroke="black" d="M563.5,-575.46C606.52,-570.79 653.12,-559.51 690.07,-535.05 715.38,-518.31 701.2,-494.43 726.07,-477.05 752.23,-458.77 785.11,-448.71 816.03,-443.28"/>
<polygon fill="black" stroke="black" points="816.5,-446.75 825.83,-441.72 815.4,-439.83 816.5,-446.75"/>
</g>
<!-- frc_robot_sim_TalonFXSimProfile&#45;&gt;edu_wpi_first_units_Units_Microseconds -->
<g id="edge27" class="edge">
<title>frc_robot_sim_TalonFXSimProfile&#45;&gt;edu_wpi_first_units_Units_Microseconds</title>
<path fill="none" stroke="black" d="M556.33,-563.82C603.96,-566.22 655.68,-578.21 690.07,-613.05 770.17,-694.2 648.06,-783.9 726.07,-867.05 737.77,-879.51 752.31,-888.55 768.1,-895.03"/>
<polygon fill="black" stroke="black" points="766.63,-898.22 777.22,-898.4 769.06,-891.65 766.63,-898.22"/>
</g>
<!-- frc_robot_sim_TalonFXSimProfile&#45;&gt;edu_wpi_first_wpilibj_simulation_DCMotorSim -->
<g id="edge34" class="edge">
<title>frc_robot_sim_TalonFXSimProfile&#45;&gt;edu_wpi_first_wpilibj_simulation_DCMotorSim</title>
<path fill="none" stroke="black" d="M557.89,-565C604.64,-567.86 655.28,-579.88 690.07,-613.05 747.87,-668.14 669.7,-732.52 726.07,-789.05 734.1,-797.11 743.33,-803.71 753.3,-809.1"/>
<polygon fill="black" stroke="black" points="751.62,-812.17 762.14,-813.43 754.7,-805.88 751.62,-812.17"/>
</g>
<!-- frc_robot_sim_TalonFXSimProfile&#45;&gt;frc_robot_sim_PhysicsSim_SimProfile -->
<g id="edge35" class="edge">
<title>frc_robot_sim_TalonFXSimProfile&#45;&gt;frc_robot_sim_PhysicsSim_SimProfile</title>
<path fill="none" stroke="black" d="M561.3,-568.14C606.08,-571.97 654.42,-583.85 690.07,-613.05 725.97,-642.45 690.94,-680.75 726.07,-711.05 738.28,-721.58 752.57,-729.51 767.74,-735.47"/>
<polygon fill="black" stroke="black" points="766.34,-738.69 776.94,-738.77 768.71,-732.1 766.34,-738.69"/>
</g>
</g>
</svg>
