<?xml version="1.0" encoding="UTF-8" standalone="no"?>
<!DOCTYPE svg PUBLIC "-//W3C//DTD SVG 1.1//EN"
 "http://www.w3.org/Graphics/SVG/1.1/DTD/svg11.dtd">
<!-- Generated by graphviz version 12.2.1 (0)
 -->
<!-- Title: CANrange Pages: 1 -->
<svg width="497pt" height="536pt"
 viewBox="0.00 0.00 496.55 536.10" xmlns="http://www.w3.org/2000/svg" xmlns:xlink="http://www.w3.org/1999/xlink">
<g id="graph0" class="graph" transform="scale(1 1) rotate(0) translate(4 532.1)">
<title>CANrange</title>
<polygon fill="white" stroke="none" points="-4,4 -4,-532.1 492.55,-532.1 492.55,4 -4,4"/>
<!-- com_ctre_phoenix6_CANBus -->
<g id="node1" class="node">
<title>com_ctre_phoenix6_CANBus</title>
<ellipse fill="none" stroke="black" cx="317.61" cy="-420.05" rx="104.65" ry="30.05"/>
<text text-anchor="middle" x="317.61" y="-424" font-family="Times,serif" font-size="14.00">com.ctre.phoenix6</text>
<text text-anchor="middle" x="317.61" y="-406.75" font-family="Times,serif" font-size="14.00">CANBus</text>
</g>
<!-- com_ctre_phoenix6_configs_CANrangeConfiguration -->
<g id="node2" class="node">
<title>com_ctre_phoenix6_configs_CANrangeConfiguration</title>
<ellipse fill="none" stroke="black" cx="317.61" cy="-342.05" rx="170.94" ry="30.05"/>
<text text-anchor="middle" x="317.61" y="-346" font-family="Times,serif" font-size="14.00">com.ctre.phoenix6</text>
<text text-anchor="middle" x="317.61" y="-328.75" font-family="Times,serif" font-size="14.00">configs.CANrangeConfiguration</text>
</g>
<!-- com_ctre_phoenix6_hardware_CANrange -->
<g id="node3" class="node">
<title>com_ctre_phoenix6_hardware_CANrange</title>
<ellipse fill="none" stroke="black" cx="317.61" cy="-264.05" rx="114.73" ry="30.05"/>
<text text-anchor="middle" x="317.61" y="-268" font-family="Times,serif" font-size="14.00">com.ctre.phoenix6</text>
<text text-anchor="middle" x="317.61" y="-250.75" font-family="Times,serif" font-size="14.00">hardware.CANrange</text>
</g>
<!-- com_ctre_phoenix6_signals_UpdateModeValue -->
<g id="node4" class="node">
<title>com_ctre_phoenix6_signals_UpdateModeValue</title>
<ellipse fill="none" stroke="black" cx="317.61" cy="-186.05" rx="142.84" ry="30.05"/>
<text text-anchor="middle" x="317.61" y="-190" font-family="Times,serif" font-size="14.00">com.ctre.phoenix6</text>
<text text-anchor="middle" x="317.61" y="-172.75" font-family="Times,serif" font-size="14.00">signals.UpdateModeValue</text>
</g>
<!-- edu_wpi_first_wpilibj_RobotBase -->
<g id="node5" class="node">
<title>edu_wpi_first_wpilibj_RobotBase</title>
<ellipse fill="none" stroke="black" cx="317.61" cy="-498.05" rx="102.53" ry="30.05"/>
<text text-anchor="middle" x="317.61" y="-502" font-family="Times,serif" font-size="14.00">edu.wpi.first</text>
<text text-anchor="middle" x="317.61" y="-484.75" font-family="Times,serif" font-size="14.00">wpilibj.RobotBase</text>
</g>
<!-- edu_wpi_first_wpilibj_TimedRobot -->
<g id="node6" class="node">
<title>edu_wpi_first_wpilibj_TimedRobot</title>
<ellipse fill="none" stroke="black" cx="317.61" cy="-108.05" rx="109.42" ry="30.05"/>
<text text-anchor="middle" x="317.61" y="-112" font-family="Times,serif" font-size="14.00">edu.wpi.first</text>
<text text-anchor="middle" x="317.61" y="-94.75" font-family="Times,serif" font-size="14.00">wpilibj.TimedRobot</text>
</g>
<!-- edu_wpi_first_wpilibj_Timer -->
<g id="node7" class="node">
<title>edu_wpi_first_wpilibj_Timer</title>
<ellipse fill="none" stroke="black" cx="317.61" cy="-30.05" rx="78.14" ry="30.05"/>
<text text-anchor="middle" x="317.61" y="-34" font-family="Times,serif" font-size="14.00">edu.wpi.first</text>
<text text-anchor="middle" x="317.61" y="-16.75" font-family="Times,serif" font-size="14.00">wpilibj.Timer</text>
</g>
<!-- frc_robot_Main -->
<g id="node8" class="node">
<title>frc_robot_Main</title>
<ellipse fill="none" stroke="black" cx="55.33" cy="-498.05" rx="55.33" ry="30.05"/>
<text text-anchor="middle" x="55.33" y="-502" font-family="Times,serif" font-size="14.00">frc.robot</text>
<text text-anchor="middle" x="55.33" y="-484.75" font-family="Times,serif" font-size="14.00">Main</text>
</g>
<!-- frc_robot_Main&#45;&gt;edu_wpi_first_wpilibj_RobotBase -->
<g id="edge7" class="edge">
<title>frc_robot_Main&#45;&gt;edu_wpi_first_wpilibj_RobotBase</title>
<path fill="none" stroke="black" d="M110.89,-498.05C137.83,-498.05 171.37,-498.05 203.51,-498.05"/>
<polygon fill="black" stroke="black" points="203.29,-501.55 213.29,-498.05 203.29,-494.55 203.29,-501.55"/>
</g>
<!-- frc_robot_Robot -->
<g id="node9" class="node">
<title>frc_robot_Robot</title>
<ellipse fill="none" stroke="black" cx="55.33" cy="-225.05" rx="55.33" ry="30.05"/>
<text text-anchor="middle" x="55.33" y="-229" font-family="Times,serif" font-size="14.00">frc.robot</text>
<text text-anchor="middle" x="55.33" y="-211.75" font-family="Times,serif" font-size="14.00">Robot</text>
</g>
<!-- frc_robot_Robot&#45;&gt;com_ctre_phoenix6_CANBus -->
<g id="edge1" class="edge">
<title>frc_robot_Robot&#45;&gt;com_ctre_phoenix6_CANBus</title>
<path fill="none" stroke="black" d="M65.46,-255.03C77.91,-290.69 103.73,-349.37 146.66,-381.05 164.08,-393.91 185.04,-402.63 206.19,-408.51"/>
<polygon fill="black" stroke="black" points="205.23,-411.88 215.79,-410.97 206.97,-405.1 205.23,-411.88"/>
</g>
<!-- frc_robot_Robot&#45;&gt;com_ctre_phoenix6_configs_CANrangeConfiguration -->
<g id="edge2" class="edge">
<title>frc_robot_Robot&#45;&gt;com_ctre_phoenix6_configs_CANrangeConfiguration</title>
<path fill="none" stroke="black" d="M80.7,-252.01C97.6,-269.1 121.52,-290.32 146.66,-303.05 157.84,-308.71 169.84,-313.56 182.11,-317.72"/>
<polygon fill="black" stroke="black" points="180.91,-321.01 191.5,-320.73 183.05,-314.34 180.91,-321.01"/>
</g>
<!-- frc_robot_Robot&#45;&gt;com_ctre_phoenix6_hardware_CANrange -->
<g id="edge3" class="edge">
<title>frc_robot_Robot&#45;&gt;com_ctre_phoenix6_hardware_CANrange</title>
<path fill="none" stroke="black" d="M109,-232.94C136.89,-237.12 172.25,-242.42 205.84,-247.46"/>
<polygon fill="black" stroke="black" points="205.25,-250.91 215.66,-248.93 206.29,-243.98 205.25,-250.91"/>
</g>
<!-- frc_robot_Robot&#45;&gt;com_ctre_phoenix6_signals_UpdateModeValue -->
<g id="edge4" class="edge">
<title>frc_robot_Robot&#45;&gt;com_ctre_phoenix6_signals_UpdateModeValue</title>
<path fill="none" stroke="black" d="M109,-217.16C132.21,-213.68 160.59,-209.43 188.82,-205.2"/>
<polygon fill="black" stroke="black" points="189.18,-208.69 198.55,-203.74 188.14,-201.76 189.18,-208.69"/>
</g>
<!-- frc_robot_Robot&#45;&gt;edu_wpi_first_wpilibj_TimedRobot -->
<g id="edge5" class="edge">
<title>frc_robot_Robot&#45;&gt;edu_wpi_first_wpilibj_TimedRobot</title>
<path fill="none" stroke="black" d="M80.7,-198.1C97.6,-181 121.52,-159.79 146.66,-147.05 165.86,-137.32 187.51,-129.99 208.76,-124.47"/>
<polygon fill="black" stroke="black" points="209.48,-127.9 218.35,-122.11 207.8,-121.11 209.48,-127.9"/>
</g>
<!-- frc_robot_Robot&#45;&gt;edu_wpi_first_wpilibj_Timer -->
<g id="edge6" class="edge">
<title>frc_robot_Robot&#45;&gt;edu_wpi_first_wpilibj_Timer</title>
<path fill="none" stroke="black" d="M65.46,-195.07C77.91,-159.41 103.73,-100.74 146.66,-69.05 170.31,-51.6 200.48,-41.77 228.81,-36.3"/>
<polygon fill="black" stroke="black" points="229.23,-39.78 238.48,-34.61 228.03,-32.89 229.23,-39.78"/>
</g>
</g>
</svg>
