<?xml version="1.0" encoding="UTF-8" standalone="no"?>
<!DOCTYPE svg PUBLIC "-//W3C//DTD SVG 1.1//EN"
 "http://www.w3.org/Graphics/SVG/1.1/DTD/svg11.dtd">
<!-- Generated by graphviz version 12.2.1 (0)
 -->
<!-- Title: CommandBasedDrive Pages: 1 -->
<svg width="1723pt" height="2319pt"
 viewBox="0.00 0.00 1723.25 2319.10" xmlns="http://www.w3.org/2000/svg" xmlns:xlink="http://www.w3.org/1999/xlink">
<g id="graph0" class="graph" transform="scale(1 1) rotate(0) translate(4 2315.1)">
<title>CommandBasedDrive</title>
<polygon fill="white" stroke="none" points="-4,4 -4,-2315.1 1719.25,-2315.1 1719.25,4 -4,4"/>
<!-- com_ctre_phoenix6_BaseStatusSignal -->
<g id="node1" class="node">
<title>com_ctre_phoenix6_BaseStatusSignal</title>
<ellipse fill="none" stroke="black" cx="1481.73" cy="-1813.05" rx="104.65" ry="30.05"/>
<text text-anchor="middle" x="1481.73" y="-1817" font-family="Times,serif" font-size="14.00">com.ctre.phoenix6</text>
<text text-anchor="middle" x="1481.73" y="-1799.75" font-family="Times,serif" font-size="14.00">BaseStatusSignal</text>
</g>
<!-- com_ctre_phoenix6_configs_Pigeon2Configuration -->
<g id="node2" class="node">
<title>com_ctre_phoenix6_configs_Pigeon2Configuration</title>
<ellipse fill="none" stroke="black" cx="1481.73" cy="-1735.05" rx="159.81" ry="30.05"/>
<text text-anchor="middle" x="1481.73" y="-1739" font-family="Times,serif" font-size="14.00">com.ctre.phoenix6</text>
<text text-anchor="middle" x="1481.73" y="-1721.75" font-family="Times,serif" font-size="14.00">configs.Pigeon2Configuration</text>
</g>
<!-- com_ctre_phoenix6_configs_Pigeon2Configurator -->
<g id="node3" class="node">
<title>com_ctre_phoenix6_configs_Pigeon2Configurator</title>
<ellipse fill="none" stroke="black" cx="1481.73" cy="-1657.05" rx="155.03" ry="30.05"/>
<text text-anchor="middle" x="1481.73" y="-1661" font-family="Times,serif" font-size="14.00">com.ctre.phoenix6</text>
<text text-anchor="middle" x="1481.73" y="-1643.75" font-family="Times,serif" font-size="14.00">configs.Pigeon2Configurator</text>
</g>
<!-- com_ctre_phoenix6_configs_TalonFXConfiguration -->
<g id="node4" class="node">
<title>com_ctre_phoenix6_configs_TalonFXConfiguration</title>
<ellipse fill="none" stroke="black" cx="1481.73" cy="-1579.05" rx="159.81" ry="30.05"/>
<text text-anchor="middle" x="1481.73" y="-1583" font-family="Times,serif" font-size="14.00">com.ctre.phoenix6</text>
<text text-anchor="middle" x="1481.73" y="-1565.75" font-family="Times,serif" font-size="14.00">configs.TalonFXConfiguration</text>
</g>
<!-- com_ctre_phoenix6_configs_TalonFXConfigurator -->
<g id="node5" class="node">
<title>com_ctre_phoenix6_configs_TalonFXConfigurator</title>
<ellipse fill="none" stroke="black" cx="1481.73" cy="-1501.05" rx="155.03" ry="30.05"/>
<text text-anchor="middle" x="1481.73" y="-1505" font-family="Times,serif" font-size="14.00">com.ctre.phoenix6</text>
<text text-anchor="middle" x="1481.73" y="-1487.75" font-family="Times,serif" font-size="14.00">configs.TalonFXConfigurator</text>
</g>
<!-- com_ctre_phoenix6_controls_DutyCycleOut -->
<g id="node6" class="node">
<title>com_ctre_phoenix6_controls_DutyCycleOut</title>
<ellipse fill="none" stroke="black" cx="1481.73" cy="-1423.05" rx="125.87" ry="30.05"/>
<text text-anchor="middle" x="1481.73" y="-1427" font-family="Times,serif" font-size="14.00">com.ctre.phoenix6</text>
<text text-anchor="middle" x="1481.73" y="-1409.75" font-family="Times,serif" font-size="14.00">controls.DutyCycleOut</text>
</g>
<!-- com_ctre_phoenix6_controls_Follower -->
<g id="node7" class="node">
<title>com_ctre_phoenix6_controls_Follower</title>
<ellipse fill="none" stroke="black" cx="1481.73" cy="-1345.05" rx="104.65" ry="30.05"/>
<text text-anchor="middle" x="1481.73" y="-1349" font-family="Times,serif" font-size="14.00">com.ctre.phoenix6</text>
<text text-anchor="middle" x="1481.73" y="-1331.75" font-family="Times,serif" font-size="14.00">controls.Follower</text>
</g>
<!-- com_ctre_phoenix6_hardware_Pigeon2 -->
<g id="node8" class="node">
<title>com_ctre_phoenix6_hardware_Pigeon2</title>
<ellipse fill="none" stroke="black" cx="1481.73" cy="-1267.05" rx="104.65" ry="30.05"/>
<text text-anchor="middle" x="1481.73" y="-1271" font-family="Times,serif" font-size="14.00">com.ctre.phoenix6</text>
<text text-anchor="middle" x="1481.73" y="-1253.75" font-family="Times,serif" font-size="14.00">hardware.Pigeon2</text>
</g>
<!-- com_ctre_phoenix6_hardware_TalonFX -->
<g id="node9" class="node">
<title>com_ctre_phoenix6_hardware_TalonFX</title>
<ellipse fill="none" stroke="black" cx="1481.73" cy="-1189.05" rx="104.65" ry="30.05"/>
<text text-anchor="middle" x="1481.73" y="-1193" font-family="Times,serif" font-size="14.00">com.ctre.phoenix6</text>
<text text-anchor="middle" x="1481.73" y="-1175.75" font-family="Times,serif" font-size="14.00">hardware.TalonFX</text>
</g>
<!-- com_ctre_phoenix6_signals_InvertedValue -->
<g id="node10" class="node">
<title>com_ctre_phoenix6_signals_InvertedValue</title>
<ellipse fill="none" stroke="black" cx="1481.73" cy="-1111.05" rx="120.56" ry="30.05"/>
<text text-anchor="middle" x="1481.73" y="-1115" font-family="Times,serif" font-size="14.00">com.ctre.phoenix6</text>
<text text-anchor="middle" x="1481.73" y="-1097.75" font-family="Times,serif" font-size="14.00">signals.InvertedValue</text>
</g>
<!-- com_ctre_phoenix6_sim_ChassisReference -->
<g id="node11" class="node">
<title>com_ctre_phoenix6_sim_ChassisReference</title>
<ellipse fill="none" stroke="black" cx="1481.73" cy="-1033.05" rx="122.15" ry="30.05"/>
<text text-anchor="middle" x="1481.73" y="-1037" font-family="Times,serif" font-size="14.00">com.ctre.phoenix6</text>
<text text-anchor="middle" x="1481.73" y="-1019.75" font-family="Times,serif" font-size="14.00">sim.ChassisReference</text>
</g>
<!-- com_ctre_phoenix6_sim_Pigeon2SimState -->
<g id="node12" class="node">
<title>com_ctre_phoenix6_sim_Pigeon2SimState</title>
<ellipse fill="none" stroke="black" cx="1481.73" cy="-955.05" rx="120.03" ry="30.05"/>
<text text-anchor="middle" x="1481.73" y="-959" font-family="Times,serif" font-size="14.00">com.ctre.phoenix6</text>
<text text-anchor="middle" x="1481.73" y="-941.75" font-family="Times,serif" font-size="14.00">sim.Pigeon2SimState</text>
</g>
<!-- com_ctre_phoenix6_sim_TalonFXSimState -->
<g id="node13" class="node">
<title>com_ctre_phoenix6_sim_TalonFXSimState</title>
<ellipse fill="none" stroke="black" cx="1481.73" cy="-877.05" rx="120.03" ry="30.05"/>
<text text-anchor="middle" x="1481.73" y="-881" font-family="Times,serif" font-size="14.00">com.ctre.phoenix6</text>
<text text-anchor="middle" x="1481.73" y="-863.75" font-family="Times,serif" font-size="14.00">sim.TalonFXSimState</text>
</g>
<!-- com_ctre_phoenix6_StatusSignal -->
<g id="node14" class="node">
<title>com_ctre_phoenix6_StatusSignal</title>
<ellipse fill="none" stroke="black" cx="1481.73" cy="-331.05" rx="104.65" ry="30.05"/>
<text text-anchor="middle" x="1481.73" y="-335" font-family="Times,serif" font-size="14.00">com.ctre.phoenix6</text>
<text text-anchor="middle" x="1481.73" y="-317.75" font-family="Times,serif" font-size="14.00">StatusSignal</text>
</g>
<!-- edu_wpi_first_math_kinematics_DifferentialDriveOdometry -->
<g id="node15" class="node">
<title>edu_wpi_first_math_kinematics_DifferentialDriveOdometry</title>
<ellipse fill="none" stroke="black" cx="1481.73" cy="-799.05" rx="233.52" ry="30.05"/>
<text text-anchor="middle" x="1481.73" y="-803" font-family="Times,serif" font-size="14.00">edu.wpi.first</text>
<text text-anchor="middle" x="1481.73" y="-785.75" font-family="Times,serif" font-size="14.00">math.kinematics.DifferentialDriveOdometry</text>
</g>
<!-- edu_wpi_first_math_system_plant_DCMotor -->
<g id="node16" class="node">
<title>edu_wpi_first_math_system_plant_DCMotor</title>
<ellipse fill="none" stroke="black" cx="1481.73" cy="-721.05" rx="155.03" ry="30.05"/>
<text text-anchor="middle" x="1481.73" y="-725" font-family="Times,serif" font-size="14.00">edu.wpi.first</text>
<text text-anchor="middle" x="1481.73" y="-707.75" font-family="Times,serif" font-size="14.00">math.system.plant.DCMotor</text>
</g>
<!-- edu_wpi_first_units_measure_Angle -->
<g id="node17" class="node">
<title>edu_wpi_first_units_measure_Angle</title>
<ellipse fill="none" stroke="black" cx="1481.73" cy="-253.05" rx="115.26" ry="30.05"/>
<text text-anchor="middle" x="1481.73" y="-257" font-family="Times,serif" font-size="14.00">edu.wpi.first</text>
<text text-anchor="middle" x="1481.73" y="-239.75" font-family="Times,serif" font-size="14.00">units.measure.Angle</text>
</g>
<!-- edu_wpi_first_units_measure_AngularVelocity -->
<g id="node18" class="node">
<title>edu_wpi_first_units_measure_AngularVelocity</title>
<ellipse fill="none" stroke="black" cx="1481.73" cy="-643.05" rx="166.17" ry="30.05"/>
<text text-anchor="middle" x="1481.73" y="-647" font-family="Times,serif" font-size="14.00">edu.wpi.first</text>
<text text-anchor="middle" x="1481.73" y="-629.75" font-family="Times,serif" font-size="14.00">units.measure.AngularVelocity</text>
</g>
<!-- edu_wpi_first_units_measure_Distance -->
<g id="node19" class="node">
<title>edu_wpi_first_units_measure_Distance</title>
<ellipse fill="none" stroke="black" cx="1481.73" cy="-565.05" rx="130.64" ry="30.05"/>
<text text-anchor="middle" x="1481.73" y="-569" font-family="Times,serif" font-size="14.00">edu.wpi.first</text>
<text text-anchor="middle" x="1481.73" y="-551.75" font-family="Times,serif" font-size="14.00">units.measure.Distance</text>
</g>
<!-- edu_wpi_first_units_measure_LinearVelocity -->
<g id="node20" class="node">
<title>edu_wpi_first_units_measure_LinearVelocity</title>
<ellipse fill="none" stroke="black" cx="1481.73" cy="-487.05" rx="158.75" ry="30.05"/>
<text text-anchor="middle" x="1481.73" y="-491" font-family="Times,serif" font-size="14.00">edu.wpi.first</text>
<text text-anchor="middle" x="1481.73" y="-473.75" font-family="Times,serif" font-size="14.00">units.measure.LinearVelocity</text>
</g>
<!-- edu_wpi_first_units_Units -->
<g id="node21" class="node">
<title>edu_wpi_first_units_Units</title>
<ellipse fill="none" stroke="black" cx="1481.73" cy="-409.05" rx="74.95" ry="30.05"/>
<text text-anchor="middle" x="1481.73" y="-413" font-family="Times,serif" font-size="14.00">edu.wpi.first</text>
<text text-anchor="middle" x="1481.73" y="-395.75" font-family="Times,serif" font-size="14.00">units.Units</text>
</g>
<!-- edu_wpi_first_units_Units_Degrees -->
<g id="node22" class="node">
<title>edu_wpi_first_units_Units_Degrees</title>
<ellipse fill="none" stroke="black" cx="1003.61" cy="-420.05" rx="112.61" ry="30.05"/>
<text text-anchor="middle" x="1003.61" y="-424" font-family="Times,serif" font-size="14.00">edu.wpi.first</text>
<text text-anchor="middle" x="1003.61" y="-406.75" font-family="Times,serif" font-size="14.00">units.Units.Degrees</text>
</g>
<!-- edu_wpi_first_wpilibj2_command_button_CommandXboxController -->
<g id="node23" class="node">
<title>edu_wpi_first_wpilibj2_command_button_CommandXboxController</title>
<ellipse fill="none" stroke="black" cx="488.37" cy="-576.05" rx="270.65" ry="30.05"/>
<text text-anchor="middle" x="488.37" y="-580" font-family="Times,serif" font-size="14.00">edu.wpi.first</text>
<text text-anchor="middle" x="488.37" y="-562.75" font-family="Times,serif" font-size="14.00">wpilibj2.command.button.CommandXboxController</text>
</g>
<!-- edu_wpi_first_wpilibj2_command_Command -->
<g id="node24" class="node">
<title>edu_wpi_first_wpilibj2_command_Command</title>
<ellipse fill="none" stroke="black" cx="1003.61" cy="-186.05" rx="157.68" ry="30.05"/>
<text text-anchor="middle" x="1003.61" y="-190" font-family="Times,serif" font-size="14.00">edu.wpi.first</text>
<text text-anchor="middle" x="1003.61" y="-172.75" font-family="Times,serif" font-size="14.00">wpilibj2.command.Command</text>
</g>
<!-- edu_wpi_first_wpilibj2_command_CommandScheduler -->
<g id="node25" class="node">
<title>edu_wpi_first_wpilibj2_command_CommandScheduler</title>
<ellipse fill="none" stroke="black" cx="1003.61" cy="-30.05" rx="208.6" ry="30.05"/>
<text text-anchor="middle" x="1003.61" y="-34" font-family="Times,serif" font-size="14.00">edu.wpi.first</text>
<text text-anchor="middle" x="1003.61" y="-16.75" font-family="Times,serif" font-size="14.00">wpilibj2.command.CommandScheduler</text>
</g>
<!-- edu_wpi_first_wpilibj2_command_SubsystemBase -->
<g id="node26" class="node">
<title>edu_wpi_first_wpilibj2_command_SubsystemBase</title>
<ellipse fill="none" stroke="black" cx="1481.73" cy="-2281.05" rx="186.85" ry="30.05"/>
<text text-anchor="middle" x="1481.73" y="-2285" font-family="Times,serif" font-size="14.00">edu.wpi.first</text>
<text text-anchor="middle" x="1481.73" y="-2267.75" font-family="Times,serif" font-size="14.00">wpilibj2.command.SubsystemBase</text>
</g>
<!-- edu_wpi_first_wpilibj_GenericHID -->
<g id="node27" class="node">
<title>edu_wpi_first_wpilibj_GenericHID</title>
<ellipse fill="none" stroke="black" cx="488.37" cy="-498.05" rx="107.83" ry="30.05"/>
<text text-anchor="middle" x="488.37" y="-502" font-family="Times,serif" font-size="14.00">edu.wpi.first</text>
<text text-anchor="middle" x="488.37" y="-484.75" font-family="Times,serif" font-size="14.00">wpilibj.GenericHID</text>
</g>
<!-- edu_wpi_first_wpilibj_Notifier -->
<g id="node28" class="node">
<title>edu_wpi_first_wpilibj_Notifier</title>
<ellipse fill="none" stroke="black" cx="1003.61" cy="-342.05" rx="87.15" ry="30.05"/>
<text text-anchor="middle" x="1003.61" y="-346" font-family="Times,serif" font-size="14.00">edu.wpi.first</text>
<text text-anchor="middle" x="1003.61" y="-328.75" font-family="Times,serif" font-size="14.00">wpilibj.Notifier</text>
</g>
<!-- edu_wpi_first_wpilibj_RobotBase -->
<g id="node29" class="node">
<title>edu_wpi_first_wpilibj_RobotBase</title>
<ellipse fill="none" stroke="black" cx="488.37" cy="-1062.05" rx="102.53" ry="30.05"/>
<text text-anchor="middle" x="488.37" y="-1066" font-family="Times,serif" font-size="14.00">edu.wpi.first</text>
<text text-anchor="middle" x="488.37" y="-1048.75" font-family="Times,serif" font-size="14.00">wpilibj.RobotBase</text>
</g>
<!-- edu_wpi_first_wpilibj_RobotController -->
<g id="node30" class="node">
<title>edu_wpi_first_wpilibj_RobotController</title>
<ellipse fill="none" stroke="black" cx="1481.73" cy="-2203.05" rx="129.58" ry="30.05"/>
<text text-anchor="middle" x="1481.73" y="-2207" font-family="Times,serif" font-size="14.00">edu.wpi.first</text>
<text text-anchor="middle" x="1481.73" y="-2189.75" font-family="Times,serif" font-size="14.00">wpilibj.RobotController</text>
</g>
<!-- edu_wpi_first_wpilibj_simulation_DifferentialDrivetrainSim -->
<g id="node31" class="node">
<title>edu_wpi_first_wpilibj_simulation_DifferentialDrivetrainSim</title>
<ellipse fill="none" stroke="black" cx="1481.73" cy="-2125.05" rx="233.52" ry="30.05"/>
<text text-anchor="middle" x="1481.73" y="-2129" font-family="Times,serif" font-size="14.00">edu.wpi.first</text>
<text text-anchor="middle" x="1481.73" y="-2111.75" font-family="Times,serif" font-size="14.00">wpilibj.simulation.DifferentialDrivetrainSim</text>
</g>
<!-- edu_wpi_first_wpilibj_smartdashboard_Field2d -->
<g id="node32" class="node">
<title>edu_wpi_first_wpilibj_smartdashboard_Field2d</title>
<ellipse fill="none" stroke="black" cx="1481.73" cy="-2047.05" rx="172.53" ry="30.05"/>
<text text-anchor="middle" x="1481.73" y="-2051" font-family="Times,serif" font-size="14.00">edu.wpi.first</text>
<text text-anchor="middle" x="1481.73" y="-2033.75" font-family="Times,serif" font-size="14.00">wpilibj.smartdashboard.Field2d</text>
</g>
<!-- edu_wpi_first_wpilibj_smartdashboard_SmartDashboard -->
<g id="node33" class="node">
<title>edu_wpi_first_wpilibj_smartdashboard_SmartDashboard</title>
<ellipse fill="none" stroke="black" cx="1481.73" cy="-1969.05" rx="220.26" ry="30.05"/>
<text text-anchor="middle" x="1481.73" y="-1973" font-family="Times,serif" font-size="14.00">edu.wpi.first</text>
<text text-anchor="middle" x="1481.73" y="-1955.75" font-family="Times,serif" font-size="14.00">wpilibj.smartdashboard.SmartDashboard</text>
</g>
<!-- edu_wpi_first_wpilibj_TimedRobot -->
<g id="node34" class="node">
<title>edu_wpi_first_wpilibj_TimedRobot</title>
<ellipse fill="none" stroke="black" cx="1003.61" cy="-108.05" rx="109.42" ry="30.05"/>
<text text-anchor="middle" x="1003.61" y="-112" font-family="Times,serif" font-size="14.00">edu.wpi.first</text>
<text text-anchor="middle" x="1003.61" y="-94.75" font-family="Times,serif" font-size="14.00">wpilibj.TimedRobot</text>
</g>
<!-- frc_robot_commands_DriveStraightCommand -->
<g id="node35" class="node">
<title>frc_robot_commands_DriveStraightCommand</title>
<ellipse fill="none" stroke="black" cx="488.37" cy="-420.05" rx="188.97" ry="30.05"/>
<text text-anchor="middle" x="488.37" y="-424" font-family="Times,serif" font-size="14.00">frc.robot</text>
<text text-anchor="middle" x="488.37" y="-406.75" font-family="Times,serif" font-size="14.00">commands.DriveStraightCommand</text>
</g>
<!-- frc_robot_commands_DriveStraightCommand&#45;&gt;com_ctre_phoenix6_StatusSignal -->
<g id="edge11" class="edge">
<title>frc_robot_commands_DriveStraightCommand&#45;&gt;com_ctre_phoenix6_StatusSignal</title>
<path fill="none" stroke="black" d="M666.81,-430.3C698.51,-436.4 730.49,-445.52 759.02,-459.05 778.63,-468.35 774.79,-484.18 795.02,-492.05 967.82,-559.27 1063.7,-603.07 1212.21,-492.05 1257.49,-458.2 1205.89,-407.54 1248.21,-370.05 1280.41,-341.52 1325.37,-329.84 1367.18,-325.99"/>
<polygon fill="black" stroke="black" points="1367.38,-329.49 1377.08,-325.24 1366.85,-322.51 1367.38,-329.49"/>
</g>
<!-- frc_robot_commands_DriveStraightCommand&#45;&gt;edu_wpi_first_units_measure_Angle -->
<g id="edge12" class="edge">
<title>frc_robot_commands_DriveStraightCommand&#45;&gt;edu_wpi_first_units_measure_Angle</title>
<path fill="none" stroke="black" d="M625.19,-441.14C678.06,-448.36 739.23,-455.51 795.02,-459.05 887.54,-464.93 1140.08,-517.29 1212.21,-459.05 1271.28,-411.35 1193.3,-344.49 1248.21,-292.05 1277.24,-264.33 1318.14,-252.13 1357.56,-247.62"/>
<polygon fill="black" stroke="black" points="1357.78,-251.11 1367.4,-246.67 1357.11,-244.14 1357.78,-251.11"/>
</g>
<!-- frc_robot_commands_DriveStraightCommand&#45;&gt;edu_wpi_first_units_Units_Degrees -->
<g id="edge9" class="edge">
<title>frc_robot_commands_DriveStraightCommand&#45;&gt;edu_wpi_first_units_Units_Degrees</title>
<path fill="none" stroke="black" d="M677.57,-420.05C744.76,-420.05 818.71,-420.05 879.07,-420.05"/>
<polygon fill="black" stroke="black" points="879.05,-423.55 889.05,-420.05 879.05,-416.55 879.05,-423.55"/>
</g>
<!-- frc_robot_commands_DriveStraightCommand&#45;&gt;edu_wpi_first_wpilibj2_command_Command -->
<g id="edge14" class="edge">
<title>frc_robot_commands_DriveStraightCommand&#45;&gt;edu_wpi_first_wpilibj2_command_Command</title>
<path fill="none" stroke="black" d="M575.3,-393.02C632.57,-371.65 706.65,-337.17 759.02,-288.05 782.54,-265.99 768.75,-243.76 795.02,-225.05 810.12,-214.3 827.35,-206.28 845.28,-200.32"/>
<polygon fill="black" stroke="black" points="846.23,-203.69 854.76,-197.4 844.18,-197 846.23,-203.69"/>
</g>
<!-- frc_robot_commands_DriveStraightCommand&#45;&gt;edu_wpi_first_wpilibj_Notifier -->
<g id="edge13" class="edge">
<title>frc_robot_commands_DriveStraightCommand&#45;&gt;edu_wpi_first_wpilibj_Notifier</title>
<path fill="none" stroke="black" d="M626.57,-399.2C717.18,-385.43 833.36,-367.77 912.44,-355.76"/>
<polygon fill="black" stroke="black" points="912.49,-359.29 921.85,-354.33 911.44,-352.37 912.49,-359.29"/>
</g>
<!-- frc_robot_subsystems_DriveSubsystem -->
<g id="node40" class="node">
<title>frc_robot_subsystems_DriveSubsystem</title>
<ellipse fill="none" stroke="black" cx="1003.61" cy="-1189.05" rx="157.15" ry="30.05"/>
<text text-anchor="middle" x="1003.61" y="-1193" font-family="Times,serif" font-size="14.00">frc.robot</text>
<text text-anchor="middle" x="1003.61" y="-1175.75" font-family="Times,serif" font-size="14.00">subsystems.DriveSubsystem</text>
</g>
<!-- frc_robot_commands_DriveStraightCommand&#45;&gt;frc_robot_subsystems_DriveSubsystem -->
<g id="edge15" class="edge">
<title>frc_robot_commands_DriveStraightCommand&#45;&gt;frc_robot_subsystems_DriveSubsystem</title>
<path fill="none" stroke="black" d="M677.69,-420.2C707.32,-427.49 735.79,-439.64 759.02,-459.05 787.02,-482.46 944.72,-997.85 990.29,-1148.22"/>
<polygon fill="black" stroke="black" points="986.81,-1148.8 993.05,-1157.36 993.51,-1146.78 986.81,-1148.8"/>
</g>
<!-- java_util_function_DoubleSupplier -->
<g id="node41" class="node">
<title>java_util_function_DoubleSupplier</title>
<ellipse fill="none" stroke="black" cx="1003.61" cy="-264.05" rx="134.35" ry="30.05"/>
<text text-anchor="middle" x="1003.61" y="-268" font-family="Times,serif" font-size="14.00">java.util</text>
<text text-anchor="middle" x="1003.61" y="-250.75" font-family="Times,serif" font-size="14.00">function.DoubleSupplier</text>
</g>
<!-- frc_robot_commands_DriveStraightCommand&#45;&gt;java_util_function_DoubleSupplier -->
<g id="edge10" class="edge">
<title>frc_robot_commands_DriveStraightCommand&#45;&gt;java_util_function_DoubleSupplier</title>
<path fill="none" stroke="black" d="M553.81,-391.48C614.89,-365.35 709.73,-327.18 795.02,-303.05 822.43,-295.3 852.32,-288.66 880.67,-283.17"/>
<polygon fill="black" stroke="black" points="881.2,-286.63 890.38,-281.33 879.9,-279.76 881.2,-286.63"/>
</g>
<!-- frc_robot_Constants -->
<g id="node36" class="node">
<title>frc_robot_Constants</title>
<ellipse fill="none" stroke="black" cx="1481.73" cy="-1891.05" rx="62.23" ry="30.05"/>
<text text-anchor="middle" x="1481.73" y="-1895" font-family="Times,serif" font-size="14.00">frc.robot</text>
<text text-anchor="middle" x="1481.73" y="-1877.75" font-family="Times,serif" font-size="14.00">Constants</text>
</g>
<!-- frc_robot_Main -->
<g id="node37" class="node">
<title>frc_robot_Main</title>
<ellipse fill="none" stroke="black" cx="90.86" cy="-1062.05" rx="55.33" ry="30.05"/>
<text text-anchor="middle" x="90.86" y="-1066" font-family="Times,serif" font-size="14.00">frc.robot</text>
<text text-anchor="middle" x="90.86" y="-1048.75" font-family="Times,serif" font-size="14.00">Main</text>
</g>
<!-- frc_robot_Main&#45;&gt;edu_wpi_first_wpilibj_RobotBase -->
<g id="edge43" class="edge">
<title>frc_robot_Main&#45;&gt;edu_wpi_first_wpilibj_RobotBase</title>
<path fill="none" stroke="black" d="M146.44,-1062.05C205,-1062.05 299.65,-1062.05 374.38,-1062.05"/>
<polygon fill="black" stroke="black" points="374.21,-1065.55 384.21,-1062.05 374.21,-1058.55 374.21,-1065.55"/>
</g>
<!-- frc_robot_Robot -->
<g id="node38" class="node">
<title>frc_robot_Robot</title>
<ellipse fill="none" stroke="black" cx="488.37" cy="-108.05" rx="55.33" ry="30.05"/>
<text text-anchor="middle" x="488.37" y="-112" font-family="Times,serif" font-size="14.00">frc.robot</text>
<text text-anchor="middle" x="488.37" y="-94.75" font-family="Times,serif" font-size="14.00">Robot</text>
</g>
<!-- frc_robot_Robot&#45;&gt;edu_wpi_first_wpilibj2_command_Command -->
<g id="edge7" class="edge">
<title>frc_robot_Robot&#45;&gt;edu_wpi_first_wpilibj2_command_Command</title>
<path fill="none" stroke="black" d="M541.89,-116.03C617.89,-127.58 761.1,-149.35 867.77,-165.56"/>
<polygon fill="black" stroke="black" points="867.04,-168.99 877.45,-167.03 868.09,-162.07 867.04,-168.99"/>
</g>
<!-- frc_robot_Robot&#45;&gt;edu_wpi_first_wpilibj2_command_CommandScheduler -->
<g id="edge8" class="edge">
<title>frc_robot_Robot&#45;&gt;edu_wpi_first_wpilibj2_command_CommandScheduler</title>
<path fill="none" stroke="black" d="M541.89,-100.07C613.06,-89.25 743.19,-69.48 847.05,-53.69"/>
<polygon fill="black" stroke="black" points="847.43,-57.18 856.79,-52.21 846.38,-50.26 847.43,-57.18"/>
</g>
<!-- frc_robot_Robot&#45;&gt;edu_wpi_first_wpilibj_TimedRobot -->
<g id="edge6" class="edge">
<title>frc_robot_Robot&#45;&gt;edu_wpi_first_wpilibj_TimedRobot</title>
<path fill="none" stroke="black" d="M543.81,-108.05C623.84,-108.05 775.3,-108.05 882.27,-108.05"/>
<polygon fill="black" stroke="black" points="882.27,-111.55 892.27,-108.05 882.27,-104.55 882.27,-111.55"/>
</g>
<!-- frc_robot_RobotContainer -->
<g id="node39" class="node">
<title>frc_robot_RobotContainer</title>
<ellipse fill="none" stroke="black" cx="90.86" cy="-498.05" rx="90.86" ry="30.05"/>
<text text-anchor="middle" x="90.86" y="-502" font-family="Times,serif" font-size="14.00">frc.robot</text>
<text text-anchor="middle" x="90.86" y="-484.75" font-family="Times,serif" font-size="14.00">RobotContainer</text>
</g>
<!-- frc_robot_RobotContainer&#45;&gt;edu_wpi_first_wpilibj2_command_button_CommandXboxController -->
<g id="edge5" class="edge">
<title>frc_robot_RobotContainer&#45;&gt;edu_wpi_first_wpilibj2_command_button_CommandXboxController</title>
<path fill="none" stroke="black" d="M155.05,-519.75C174.93,-526.01 197.09,-532.39 217.73,-537.05 242.25,-542.59 268.22,-547.51 293.97,-551.83"/>
<polygon fill="black" stroke="black" points="293.06,-555.23 303.49,-553.4 294.2,-548.32 293.06,-555.23"/>
</g>
<!-- frc_robot_RobotContainer&#45;&gt;edu_wpi_first_wpilibj2_command_Command -->
<g id="edge4" class="edge">
<title>frc_robot_RobotContainer&#45;&gt;edu_wpi_first_wpilibj2_command_Command</title>
<path fill="none" stroke="black" d="M115.84,-468.78C139.19,-442.14 177.03,-403.63 217.73,-381.05 418.92,-269.46 684.12,-220.83 848.96,-200.28"/>
<polygon fill="black" stroke="black" points="849.16,-203.78 858.66,-199.09 848.31,-196.83 849.16,-203.78"/>
</g>
<!-- frc_robot_RobotContainer&#45;&gt;edu_wpi_first_wpilibj_GenericHID -->
<g id="edge1" class="edge">
<title>frc_robot_RobotContainer&#45;&gt;edu_wpi_first_wpilibj_GenericHID</title>
<path fill="none" stroke="black" d="M182.11,-498.05C237.47,-498.05 308.99,-498.05 368.89,-498.05"/>
<polygon fill="black" stroke="black" points="368.8,-501.55 378.8,-498.05 368.8,-494.55 368.8,-501.55"/>
</g>
<!-- frc_robot_RobotContainer&#45;&gt;frc_robot_commands_DriveStraightCommand -->
<g id="edge2" class="edge">
<title>frc_robot_RobotContainer&#45;&gt;frc_robot_commands_DriveStraightCommand</title>
<path fill="none" stroke="black" d="M155.05,-476.35C174.93,-470.1 197.09,-463.71 217.73,-459.05 251.66,-451.39 288.35,-444.91 323.41,-439.57"/>
<polygon fill="black" stroke="black" points="323.86,-443.04 333.23,-438.1 322.82,-436.12 323.86,-443.04"/>
</g>
<!-- frc_robot_RobotContainer&#45;&gt;frc_robot_subsystems_DriveSubsystem -->
<g id="edge3" class="edge">
<title>frc_robot_RobotContainer&#45;&gt;frc_robot_subsystems_DriveSubsystem</title>
<path fill="none" stroke="black" d="M120.48,-526.48C145.44,-550.82 182.99,-586.37 217.73,-615.05 482.21,-833.42 821.24,-1066.71 949.91,-1153.7"/>
<polygon fill="black" stroke="black" points="947.67,-1156.41 957.92,-1159.11 951.59,-1150.61 947.67,-1156.41"/>
</g>
<!-- frc_robot_subsystems_DriveSubsystem&#45;&gt;com_ctre_phoenix6_BaseStatusSignal -->
<g id="edge17" class="edge">
<title>frc_robot_subsystems_DriveSubsystem&#45;&gt;com_ctre_phoenix6_BaseStatusSignal</title>
<path fill="none" stroke="black" d="M1007.24,-1219.3C1017.49,-1317.21 1063.85,-1627.63 1248.21,-1774.05 1281.24,-1800.29 1325.37,-1811.72 1366.29,-1816.02"/>
<polygon fill="black" stroke="black" points="1365.96,-1819.5 1376.23,-1816.91 1366.59,-1812.53 1365.96,-1819.5"/>
</g>
<!-- frc_robot_subsystems_DriveSubsystem&#45;&gt;com_ctre_phoenix6_configs_Pigeon2Configuration -->
<g id="edge19" class="edge">
<title>frc_robot_subsystems_DriveSubsystem&#45;&gt;com_ctre_phoenix6_configs_Pigeon2Configuration</title>
<path fill="none" stroke="black" d="M1009.33,-1219.38C1024.96,-1308.73 1083.69,-1572.4 1248.21,-1696.05 1267.28,-1710.38 1289.71,-1720.21 1312.99,-1726.84"/>
<polygon fill="black" stroke="black" points="1312.08,-1730.22 1322.64,-1729.37 1313.86,-1723.45 1312.08,-1730.22"/>
</g>
<!-- frc_robot_subsystems_DriveSubsystem&#45;&gt;com_ctre_phoenix6_configs_Pigeon2Configurator -->
<g id="edge20" class="edge">
<title>frc_robot_subsystems_DriveSubsystem&#45;&gt;com_ctre_phoenix6_configs_Pigeon2Configurator</title>
<path fill="none" stroke="black" d="M1012.08,-1219.31C1033.49,-1299.19 1103.1,-1516.57 1248.21,-1618.05 1268.88,-1632.51 1293.08,-1642.27 1317.9,-1648.75"/>
<polygon fill="black" stroke="black" points="1316.94,-1652.12 1327.48,-1651.06 1318.58,-1645.31 1316.94,-1652.12"/>
</g>
<!-- frc_robot_subsystems_DriveSubsystem&#45;&gt;com_ctre_phoenix6_configs_TalonFXConfiguration -->
<g id="edge21" class="edge">
<title>frc_robot_subsystems_DriveSubsystem&#45;&gt;com_ctre_phoenix6_configs_TalonFXConfiguration</title>
<path fill="none" stroke="black" d="M1015.97,-1219.38C1043.74,-1288.94 1122.14,-1460.11 1248.21,-1540.05 1268.74,-1553.07 1292.27,-1562.15 1316.29,-1568.42"/>
<polygon fill="black" stroke="black" points="1315.34,-1571.79 1325.88,-1570.74 1316.99,-1564.98 1315.34,-1571.79"/>
</g>
<!-- frc_robot_subsystems_DriveSubsystem&#45;&gt;com_ctre_phoenix6_configs_TalonFXConfigurator -->
<g id="edge22" class="edge">
<title>frc_robot_subsystems_DriveSubsystem&#45;&gt;com_ctre_phoenix6_configs_TalonFXConfigurator</title>
<path fill="none" stroke="black" d="M1021.84,-1219.3C1056.49,-1277.09 1140.59,-1402.67 1248.21,-1462.05 1270.94,-1474.6 1296.69,-1483.32 1322.56,-1489.34"/>
<polygon fill="black" stroke="black" points="1321.65,-1492.73 1332.17,-1491.44 1323.14,-1485.89 1321.65,-1492.73"/>
</g>
<!-- frc_robot_subsystems_DriveSubsystem&#45;&gt;com_ctre_phoenix6_controls_DutyCycleOut -->
<g id="edge23" class="edge">
<title>frc_robot_subsystems_DriveSubsystem&#45;&gt;com_ctre_phoenix6_controls_DutyCycleOut</title>
<path fill="none" stroke="black" d="M1031.69,-1218.78C1073.52,-1262.67 1158.46,-1343.9 1248.21,-1384.05 1279.57,-1398.08 1315.35,-1407.1 1349.29,-1412.89"/>
<polygon fill="black" stroke="black" points="1348.31,-1416.28 1358.74,-1414.42 1349.43,-1409.37 1348.31,-1416.28"/>
</g>
<!-- frc_robot_subsystems_DriveSubsystem&#45;&gt;com_ctre_phoenix6_controls_Follower -->
<g id="edge24" class="edge">
<title>frc_robot_subsystems_DriveSubsystem&#45;&gt;com_ctre_phoenix6_controls_Follower</title>
<path fill="none" stroke="black" d="M1053.77,-1217.77C1101.8,-1244.58 1177.77,-1283.72 1248.21,-1306.05 1287.62,-1318.55 1332.14,-1327.25 1371.59,-1333.22"/>
<polygon fill="black" stroke="black" points="1370.95,-1336.66 1381.35,-1334.64 1371.96,-1329.73 1370.95,-1336.66"/>
</g>
<!-- frc_robot_subsystems_DriveSubsystem&#45;&gt;com_ctre_phoenix6_hardware_Pigeon2 -->
<g id="edge25" class="edge">
<title>frc_robot_subsystems_DriveSubsystem&#45;&gt;com_ctre_phoenix6_hardware_Pigeon2</title>
<path fill="none" stroke="black" d="M1124.14,-1208.63C1202.62,-1221.49 1304.16,-1238.12 1378.8,-1250.35"/>
<polygon fill="black" stroke="black" points="1378.15,-1253.79 1388.58,-1251.96 1379.28,-1246.89 1378.15,-1253.79"/>
</g>
<!-- frc_robot_subsystems_DriveSubsystem&#45;&gt;com_ctre_phoenix6_hardware_TalonFX -->
<g id="edge26" class="edge">
<title>frc_robot_subsystems_DriveSubsystem&#45;&gt;com_ctre_phoenix6_hardware_TalonFX</title>
<path fill="none" stroke="black" d="M1161.17,-1189.05C1227.77,-1189.05 1304.04,-1189.05 1365.36,-1189.05"/>
<polygon fill="black" stroke="black" points="1365.12,-1192.55 1375.12,-1189.05 1365.12,-1185.55 1365.12,-1192.55"/>
</g>
<!-- frc_robot_subsystems_DriveSubsystem&#45;&gt;com_ctre_phoenix6_signals_InvertedValue -->
<g id="edge30" class="edge">
<title>frc_robot_subsystems_DriveSubsystem&#45;&gt;com_ctre_phoenix6_signals_InvertedValue</title>
<path fill="none" stroke="black" d="M1124.14,-1169.47C1199.21,-1157.17 1295.38,-1141.42 1368.93,-1129.37"/>
<polygon fill="black" stroke="black" points="1369.28,-1132.86 1378.58,-1127.79 1368.15,-1125.95 1369.28,-1132.86"/>
</g>
<!-- frc_robot_subsystems_DriveSubsystem&#45;&gt;com_ctre_phoenix6_sim_ChassisReference -->
<g id="edge27" class="edge">
<title>frc_robot_subsystems_DriveSubsystem&#45;&gt;com_ctre_phoenix6_sim_ChassisReference</title>
<path fill="none" stroke="black" d="M1053.77,-1160.33C1101.8,-1133.52 1177.77,-1094.38 1248.21,-1072.05 1283.31,-1060.93 1322.44,-1052.81 1358.45,-1046.95"/>
<polygon fill="black" stroke="black" points="1358.69,-1050.46 1368.02,-1045.44 1357.6,-1043.54 1358.69,-1050.46"/>
</g>
<!-- frc_robot_subsystems_DriveSubsystem&#45;&gt;com_ctre_phoenix6_sim_Pigeon2SimState -->
<g id="edge28" class="edge">
<title>frc_robot_subsystems_DriveSubsystem&#45;&gt;com_ctre_phoenix6_sim_Pigeon2SimState</title>
<path fill="none" stroke="black" d="M1031.69,-1159.32C1073.52,-1115.44 1158.46,-1034.2 1248.21,-994.05 1281,-979.39 1318.63,-970.19 1353.93,-964.44"/>
<polygon fill="black" stroke="black" points="1354.45,-967.9 1363.81,-962.92 1353.39,-960.98 1354.45,-967.9"/>
</g>
<!-- frc_robot_subsystems_DriveSubsystem&#45;&gt;com_ctre_phoenix6_sim_TalonFXSimState -->
<g id="edge29" class="edge">
<title>frc_robot_subsystems_DriveSubsystem&#45;&gt;com_ctre_phoenix6_sim_TalonFXSimState</title>
<path fill="none" stroke="black" d="M1021.84,-1158.8C1056.49,-1101.02 1140.59,-975.43 1248.21,-916.05 1279.42,-898.83 1316.3,-888.81 1351.38,-883.09"/>
<polygon fill="black" stroke="black" points="1351.83,-886.56 1361.2,-881.61 1350.79,-879.64 1351.83,-886.56"/>
</g>
<!-- frc_robot_subsystems_DriveSubsystem&#45;&gt;com_ctre_phoenix6_StatusSignal -->
<g id="edge18" class="edge">
<title>frc_robot_subsystems_DriveSubsystem&#45;&gt;com_ctre_phoenix6_StatusSignal</title>
<path fill="none" stroke="black" d="M1015.15,-1158.77C1047.33,-1065.71 1146.12,-775.3 1212.21,-530.05 1231.18,-459.67 1195.27,-420.15 1248.21,-370.05 1280,-339.96 1325.81,-328.21 1368.38,-324.72"/>
<polygon fill="black" stroke="black" points="1368.44,-328.22 1378.19,-324.07 1367.98,-321.24 1368.44,-328.22"/>
</g>
<!-- frc_robot_subsystems_DriveSubsystem&#45;&gt;edu_wpi_first_math_kinematics_DifferentialDriveOdometry -->
<g id="edge31" class="edge">
<title>frc_robot_subsystems_DriveSubsystem&#45;&gt;edu_wpi_first_math_kinematics_DifferentialDriveOdometry</title>
<path fill="none" stroke="black" d="M1015.97,-1158.73C1043.74,-1089.17 1122.14,-918 1248.21,-838.05 1258.77,-831.36 1270.12,-825.7 1281.93,-820.94"/>
<polygon fill="black" stroke="black" points="1282.87,-824.32 1290.99,-817.51 1280.4,-817.77 1282.87,-824.32"/>
</g>
<!-- frc_robot_subsystems_DriveSubsystem&#45;&gt;edu_wpi_first_math_system_plant_DCMotor -->
<g id="edge32" class="edge">
<title>frc_robot_subsystems_DriveSubsystem&#45;&gt;edu_wpi_first_math_system_plant_DCMotor</title>
<path fill="none" stroke="black" d="M1012.08,-1158.8C1033.49,-1078.91 1103.1,-861.53 1248.21,-760.05 1268.88,-745.59 1293.08,-735.84 1317.9,-729.36"/>
<polygon fill="black" stroke="black" points="1318.58,-732.79 1327.48,-727.05 1316.94,-725.99 1318.58,-732.79"/>
</g>
<!-- frc_robot_subsystems_DriveSubsystem&#45;&gt;edu_wpi_first_units_measure_Angle -->
<g id="edge33" class="edge">
<title>frc_robot_subsystems_DriveSubsystem&#45;&gt;edu_wpi_first_units_measure_Angle</title>
<path fill="none" stroke="black" d="M1014.94,-1158.81C1047.57,-1062.46 1149.91,-753.67 1212.21,-492.05 1233.13,-404.19 1183.97,-355.53 1248.21,-292.05 1276.96,-263.65 1318.12,-251.35 1357.84,-246.96"/>
<polygon fill="black" stroke="black" points="1358.13,-250.45 1367.76,-246.05 1357.48,-243.48 1358.13,-250.45"/>
</g>
<!-- frc_robot_subsystems_DriveSubsystem&#45;&gt;edu_wpi_first_units_measure_AngularVelocity -->
<g id="edge34" class="edge">
<title>frc_robot_subsystems_DriveSubsystem&#45;&gt;edu_wpi_first_units_measure_AngularVelocity</title>
<path fill="none" stroke="black" d="M1009.33,-1158.72C1024.96,-1069.37 1083.69,-805.71 1248.21,-682.05 1265.91,-668.74 1286.52,-659.32 1308.02,-652.73"/>
<polygon fill="black" stroke="black" points="1308.85,-656.13 1317.52,-650.04 1306.94,-649.4 1308.85,-656.13"/>
</g>
<!-- frc_robot_subsystems_DriveSubsystem&#45;&gt;edu_wpi_first_units_measure_Distance -->
<g id="edge35" class="edge">
<title>frc_robot_subsystems_DriveSubsystem&#45;&gt;edu_wpi_first_units_measure_Distance</title>
<path fill="none" stroke="black" d="M1007.24,-1158.8C1017.49,-1060.89 1063.85,-750.48 1248.21,-604.05 1274.2,-583.41 1307.05,-571.93 1339.81,-565.88"/>
<polygon fill="black" stroke="black" points="1340.13,-569.38 1349.42,-564.28 1338.98,-562.47 1340.13,-569.38"/>
</g>
<!-- frc_robot_subsystems_DriveSubsystem&#45;&gt;edu_wpi_first_units_measure_LinearVelocity -->
<g id="edge36" class="edge">
<title>frc_robot_subsystems_DriveSubsystem&#45;&gt;edu_wpi_first_units_measure_LinearVelocity</title>
<path fill="none" stroke="black" d="M1005.63,-1158.68C1010.93,-1052.54 1043.86,-695.54 1248.21,-526.05 1266.86,-510.59 1289.31,-500.19 1312.81,-493.34"/>
<polygon fill="black" stroke="black" points="1313.45,-496.79 1322.21,-490.83 1311.65,-490.03 1313.45,-496.79"/>
</g>
<!-- frc_robot_subsystems_DriveSubsystem&#45;&gt;edu_wpi_first_units_Units -->
<g id="edge16" class="edge">
<title>frc_robot_subsystems_DriveSubsystem&#45;&gt;edu_wpi_first_units_Units</title>
<path fill="none" stroke="black" d="M1013.6,-1158.83C1054.15,-1022.78 1219.41,-472.79 1248.21,-448.05 1288.6,-413.36 1347.97,-403.85 1396.61,-402.9"/>
<polygon fill="black" stroke="black" points="1396.6,-406.4 1406.57,-402.83 1396.55,-399.4 1396.6,-406.4"/>
</g>
<!-- frc_robot_subsystems_DriveSubsystem&#45;&gt;edu_wpi_first_wpilibj2_command_SubsystemBase -->
<g id="edge41" class="edge">
<title>frc_robot_subsystems_DriveSubsystem&#45;&gt;edu_wpi_first_wpilibj2_command_SubsystemBase</title>
<path fill="none" stroke="black" d="M1007.17,-1219.34C1021.06,-1376.32 1092.57,-2095.65 1248.21,-2242.05 1260.5,-2253.61 1274.86,-2262.46 1290.31,-2269.17"/>
<polygon fill="black" stroke="black" points="1288.61,-2272.26 1299.2,-2272.72 1291.21,-2265.76 1288.61,-2272.26"/>
</g>
<!-- frc_robot_subsystems_DriveSubsystem&#45;&gt;edu_wpi_first_wpilibj_RobotController -->
<g id="edge37" class="edge">
<title>frc_robot_subsystems_DriveSubsystem&#45;&gt;edu_wpi_first_wpilibj_RobotController</title>
<path fill="none" stroke="black" d="M1007.79,-1219.57C1024.08,-1369.9 1103.11,-2029.93 1248.21,-2164.05 1273.71,-2187.62 1307.83,-2199.85 1342.07,-2205.67"/>
<polygon fill="black" stroke="black" points="1341.28,-2209.09 1351.69,-2207.11 1342.32,-2202.17 1341.28,-2209.09"/>
</g>
<!-- frc_robot_subsystems_DriveSubsystem&#45;&gt;edu_wpi_first_wpilibj_simulation_DifferentialDrivetrainSim -->
<g id="edge38" class="edge">
<title>frc_robot_subsystems_DriveSubsystem&#45;&gt;edu_wpi_first_wpilibj_simulation_DifferentialDrivetrainSim</title>
<path fill="none" stroke="black" d="M1008.48,-1219.49C1027.26,-1362.29 1113.5,-1964.06 1248.21,-2086.05 1255.7,-2092.84 1263.92,-2098.68 1272.64,-2103.69"/>
<polygon fill="black" stroke="black" points="1270.88,-2106.72 1281.36,-2108.3 1274.15,-2100.53 1270.88,-2106.72"/>
</g>
<!-- frc_robot_subsystems_DriveSubsystem&#45;&gt;edu_wpi_first_wpilibj_smartdashboard_Field2d -->
<g id="edge39" class="edge">
<title>frc_robot_subsystems_DriveSubsystem&#45;&gt;edu_wpi_first_wpilibj_smartdashboard_Field2d</title>
<path fill="none" stroke="black" d="M1009.32,-1219.54C1030.8,-1354.71 1123.87,-1898.13 1248.21,-2008.05 1263.48,-2021.55 1281.6,-2031.27 1300.89,-2038.18"/>
<polygon fill="black" stroke="black" points="1299.68,-2041.46 1310.27,-2041.26 1301.86,-2034.81 1299.68,-2041.46"/>
</g>
<!-- frc_robot_subsystems_DriveSubsystem&#45;&gt;edu_wpi_first_wpilibj_smartdashboard_SmartDashboard -->
<g id="edge40" class="edge">
<title>frc_robot_subsystems_DriveSubsystem&#45;&gt;edu_wpi_first_wpilibj_smartdashboard_SmartDashboard</title>
<path fill="none" stroke="black" d="M1004.31,-1219.29C1004.95,-1332.83 1023.5,-1737.03 1248.21,-1930.05 1257.21,-1937.78 1267.15,-1944.26 1277.71,-1949.68"/>
<polygon fill="black" stroke="black" points="1276.1,-1952.79 1286.64,-1953.9 1279.1,-1946.46 1276.1,-1952.79"/>
</g>
<!-- frc_robot_subsystems_DriveSubsystem&#45;&gt;frc_robot_Constants -->
<g id="edge42" class="edge">
<title>frc_robot_subsystems_DriveSubsystem&#45;&gt;frc_robot_Constants</title>
<path fill="none" stroke="black" d="M1005.63,-1219.43C1010.93,-1325.56 1043.86,-1682.56 1248.21,-1852.05 1292.56,-1888.84 1358.46,-1896.96 1408.78,-1896.82"/>
<polygon fill="black" stroke="black" points="1408.78,-1900.32 1418.73,-1896.67 1408.68,-1893.32 1408.78,-1900.32"/>
</g>
</g>
</svg>
