<?xml version="1.0" encoding="UTF-8" standalone="no"?>
<!DOCTYPE svg PUBLIC "-//W3C//DTD SVG 1.1//EN"
 "http://www.w3.org/Graphics/SVG/1.1/DTD/svg11.dtd">
<!-- Generated by graphviz version 12.2.1 (0)
 -->
<!-- Title: ControlRequestLimits Pages: 1 -->
<svg width="518pt" height="926pt"
 viewBox="0.00 0.00 517.76 926.10" xmlns="http://www.w3.org/2000/svg" xmlns:xlink="http://www.w3.org/1999/xlink">
<g id="graph0" class="graph" transform="scale(1 1) rotate(0) translate(4 922.1)">
<title>ControlRequestLimits</title>
<polygon fill="white" stroke="none" points="-4,4 -4,-922.1 513.76,-922.1 513.76,4 -4,4"/>
<!-- com_ctre_phoenix6_configs_TalonFXConfiguration -->
<g id="node1" class="node">
<title>com_ctre_phoenix6_configs_TalonFXConfiguration</title>
<ellipse fill="none" stroke="black" cx="328.21" cy="-810.05" rx="159.81" ry="30.05"/>
<text text-anchor="middle" x="328.21" y="-814" font-family="Times,serif" font-size="14.00">com.ctre.phoenix6</text>
<text text-anchor="middle" x="328.21" y="-796.75" font-family="Times,serif" font-size="14.00">configs.TalonFXConfiguration</text>
</g>
<!-- com_ctre_phoenix6_controls_DutyCycleOut -->
<g id="node2" class="node">
<title>com_ctre_phoenix6_controls_DutyCycleOut</title>
<ellipse fill="none" stroke="black" cx="328.21" cy="-732.05" rx="125.87" ry="30.05"/>
<text text-anchor="middle" x="328.21" y="-736" font-family="Times,serif" font-size="14.00">com.ctre.phoenix6</text>
<text text-anchor="middle" x="328.21" y="-718.75" font-family="Times,serif" font-size="14.00">controls.DutyCycleOut</text>
</g>
<!-- com_ctre_phoenix6_hardware_CANcoder -->
<g id="node3" class="node">
<title>com_ctre_phoenix6_hardware_CANcoder</title>
<ellipse fill="none" stroke="black" cx="328.21" cy="-654.05" rx="113.67" ry="30.05"/>
<text text-anchor="middle" x="328.21" y="-658" font-family="Times,serif" font-size="14.00">com.ctre.phoenix6</text>
<text text-anchor="middle" x="328.21" y="-640.75" font-family="Times,serif" font-size="14.00">hardware.CANcoder</text>
</g>
<!-- com_ctre_phoenix6_hardware_TalonFX -->
<g id="node4" class="node">
<title>com_ctre_phoenix6_hardware_TalonFX</title>
<ellipse fill="none" stroke="black" cx="328.21" cy="-576.05" rx="104.65" ry="30.05"/>
<text text-anchor="middle" x="328.21" y="-580" font-family="Times,serif" font-size="14.00">com.ctre.phoenix6</text>
<text text-anchor="middle" x="328.21" y="-562.75" font-family="Times,serif" font-size="14.00">hardware.TalonFX</text>
</g>
<!-- com_ctre_phoenix6_signals_ForwardLimitSourceValue -->
<g id="node5" class="node">
<title>com_ctre_phoenix6_signals_ForwardLimitSourceValue</title>
<ellipse fill="none" stroke="black" cx="328.21" cy="-498.05" rx="181.55" ry="30.05"/>
<text text-anchor="middle" x="328.21" y="-502" font-family="Times,serif" font-size="14.00">com.ctre.phoenix6</text>
<text text-anchor="middle" x="328.21" y="-484.75" font-family="Times,serif" font-size="14.00">signals.ForwardLimitSourceValue</text>
</g>
<!-- com_ctre_phoenix6_signals_ForwardLimitTypeValue -->
<g id="node6" class="node">
<title>com_ctre_phoenix6_signals_ForwardLimitTypeValue</title>
<ellipse fill="none" stroke="black" cx="328.21" cy="-420.05" rx="170.94" ry="30.05"/>
<text text-anchor="middle" x="328.21" y="-424" font-family="Times,serif" font-size="14.00">com.ctre.phoenix6</text>
<text text-anchor="middle" x="328.21" y="-406.75" font-family="Times,serif" font-size="14.00">signals.ForwardLimitTypeValue</text>
</g>
<!-- com_ctre_phoenix6_signals_InvertedValue -->
<g id="node7" class="node">
<title>com_ctre_phoenix6_signals_InvertedValue</title>
<ellipse fill="none" stroke="black" cx="328.21" cy="-342.05" rx="120.56" ry="30.05"/>
<text text-anchor="middle" x="328.21" y="-346" font-family="Times,serif" font-size="14.00">com.ctre.phoenix6</text>
<text text-anchor="middle" x="328.21" y="-328.75" font-family="Times,serif" font-size="14.00">signals.InvertedValue</text>
</g>
<!-- com_ctre_phoenix6_signals_MagnetHealthValue -->
<g id="node8" class="node">
<title>com_ctre_phoenix6_signals_MagnetHealthValue</title>
<ellipse fill="none" stroke="black" cx="328.21" cy="-264.05" rx="150.26" ry="30.05"/>
<text text-anchor="middle" x="328.21" y="-268" font-family="Times,serif" font-size="14.00">com.ctre.phoenix6</text>
<text text-anchor="middle" x="328.21" y="-250.75" font-family="Times,serif" font-size="14.00">signals.MagnetHealthValue</text>
</g>
<!-- com_ctre_phoenix6_StatusCode -->
<g id="node9" class="node">
<title>com_ctre_phoenix6_StatusCode</title>
<ellipse fill="none" stroke="black" cx="328.21" cy="-186.05" rx="104.65" ry="30.05"/>
<text text-anchor="middle" x="328.21" y="-190" font-family="Times,serif" font-size="14.00">com.ctre.phoenix6</text>
<text text-anchor="middle" x="328.21" y="-172.75" font-family="Times,serif" font-size="14.00">StatusCode</text>
</g>
<!-- edu_wpi_first_wpilibj_RobotBase -->
<g id="node10" class="node">
<title>edu_wpi_first_wpilibj_RobotBase</title>
<ellipse fill="none" stroke="black" cx="328.21" cy="-888.05" rx="102.53" ry="30.05"/>
<text text-anchor="middle" x="328.21" y="-892" font-family="Times,serif" font-size="14.00">edu.wpi.first</text>
<text text-anchor="middle" x="328.21" y="-874.75" font-family="Times,serif" font-size="14.00">wpilibj.RobotBase</text>
</g>
<!-- edu_wpi_first_wpilibj_TimedRobot -->
<g id="node11" class="node">
<title>edu_wpi_first_wpilibj_TimedRobot</title>
<ellipse fill="none" stroke="black" cx="328.21" cy="-108.05" rx="109.42" ry="30.05"/>
<text text-anchor="middle" x="328.21" y="-112" font-family="Times,serif" font-size="14.00">edu.wpi.first</text>
<text text-anchor="middle" x="328.21" y="-94.75" font-family="Times,serif" font-size="14.00">wpilibj.TimedRobot</text>
</g>
<!-- edu_wpi_first_wpilibj_XboxController -->
<g id="node12" class="node">
<title>edu_wpi_first_wpilibj_XboxController</title>
<ellipse fill="none" stroke="black" cx="328.21" cy="-30.05" rx="124.8" ry="30.05"/>
<text text-anchor="middle" x="328.21" y="-34" font-family="Times,serif" font-size="14.00">edu.wpi.first</text>
<text text-anchor="middle" x="328.21" y="-16.75" font-family="Times,serif" font-size="14.00">wpilibj.XboxController</text>
</g>
<!-- frc_robot_Main -->
<g id="node13" class="node">
<title>frc_robot_Main</title>
<ellipse fill="none" stroke="black" cx="55.33" cy="-888.05" rx="55.33" ry="30.05"/>
<text text-anchor="middle" x="55.33" y="-892" font-family="Times,serif" font-size="14.00">frc.robot</text>
<text text-anchor="middle" x="55.33" y="-874.75" font-family="Times,serif" font-size="14.00">Main</text>
</g>
<!-- frc_robot_Main&#45;&gt;edu_wpi_first_wpilibj_RobotBase -->
<g id="edge12" class="edge">
<title>frc_robot_Main&#45;&gt;edu_wpi_first_wpilibj_RobotBase</title>
<path fill="none" stroke="black" d="M111.15,-888.05C140.72,-888.05 178.36,-888.05 213.9,-888.05"/>
<polygon fill="black" stroke="black" points="213.84,-891.55 223.84,-888.05 213.84,-884.55 213.84,-891.55"/>
</g>
<!-- frc_robot_Robot -->
<g id="node14" class="node">
<title>frc_robot_Robot</title>
<ellipse fill="none" stroke="black" cx="55.33" cy="-420.05" rx="55.33" ry="30.05"/>
<text text-anchor="middle" x="55.33" y="-424" font-family="Times,serif" font-size="14.00">frc.robot</text>
<text text-anchor="middle" x="55.33" y="-406.75" font-family="Times,serif" font-size="14.00">Robot</text>
</g>
<!-- frc_robot_Robot&#45;&gt;com_ctre_phoenix6_configs_TalonFXConfiguration -->
<g id="edge2" class="edge">
<title>frc_robot_Robot&#45;&gt;com_ctre_phoenix6_configs_TalonFXConfiguration</title>
<path fill="none" stroke="black" d="M60.05,-450.41C70.07,-527.19 100.06,-726.24 146.66,-771.05 155.25,-779.31 165.14,-785.99 175.78,-791.37"/>
<polygon fill="black" stroke="black" points="174.27,-794.53 184.82,-795.52 177.19,-788.17 174.27,-794.53"/>
</g>
<!-- frc_robot_Robot&#45;&gt;com_ctre_phoenix6_controls_DutyCycleOut -->
<g id="edge3" class="edge">
<title>frc_robot_Robot&#45;&gt;com_ctre_phoenix6_controls_DutyCycleOut</title>
<path fill="none" stroke="black" d="M57.05,-450.25C60.12,-506.82 75.18,-628.82 146.66,-693.05 160.65,-705.62 177.71,-714.48 195.7,-720.67"/>
<polygon fill="black" stroke="black" points="194.66,-724.01 205.24,-723.65 196.74,-717.33 194.66,-724.01"/>
</g>
<!-- frc_robot_Robot&#45;&gt;com_ctre_phoenix6_hardware_CANcoder -->
<g id="edge4" class="edge">
<title>frc_robot_Robot&#45;&gt;com_ctre_phoenix6_hardware_CANcoder</title>
<path fill="none" stroke="black" d="M61.62,-450.31C70.87,-493.73 94.23,-573.09 146.66,-615.05 163.91,-628.85 184.94,-638.05 206.47,-644.12"/>
<polygon fill="black" stroke="black" points="205.39,-647.45 215.95,-646.56 207.13,-640.68 205.39,-647.45"/>
</g>
<!-- frc_robot_Robot&#45;&gt;com_ctre_phoenix6_hardware_TalonFX -->
<g id="edge5" class="edge">
<title>frc_robot_Robot&#45;&gt;com_ctre_phoenix6_hardware_TalonFX</title>
<path fill="none" stroke="black" d="M70.98,-449.11C86.17,-476.16 112.48,-515.48 146.66,-537.05 167.59,-550.26 192.31,-559.05 216.64,-564.89"/>
<polygon fill="black" stroke="black" points="215.77,-568.28 226.29,-567.04 217.29,-561.45 215.77,-568.28"/>
</g>
<!-- frc_robot_Robot&#45;&gt;com_ctre_phoenix6_signals_ForwardLimitSourceValue -->
<g id="edge6" class="edge">
<title>frc_robot_Robot&#45;&gt;com_ctre_phoenix6_signals_ForwardLimitSourceValue</title>
<path fill="none" stroke="black" d="M97.51,-439.84C112.71,-446.61 130.23,-453.79 146.66,-459.05 162.32,-464.07 178.95,-468.64 195.53,-472.75"/>
<polygon fill="black" stroke="black" points="194.39,-476.07 204.93,-475.02 196.04,-469.27 194.39,-476.07"/>
</g>
<!-- frc_robot_Robot&#45;&gt;com_ctre_phoenix6_signals_ForwardLimitTypeValue -->
<g id="edge7" class="edge">
<title>frc_robot_Robot&#45;&gt;com_ctre_phoenix6_signals_ForwardLimitTypeValue</title>
<path fill="none" stroke="black" d="M111.15,-420.05C121.74,-420.05 133.37,-420.05 145.56,-420.05"/>
<polygon fill="black" stroke="black" points="145.4,-423.55 155.4,-420.05 145.4,-416.55 145.4,-423.55"/>
</g>
<!-- frc_robot_Robot&#45;&gt;com_ctre_phoenix6_signals_InvertedValue -->
<g id="edge8" class="edge">
<title>frc_robot_Robot&#45;&gt;com_ctre_phoenix6_signals_InvertedValue</title>
<path fill="none" stroke="black" d="M97.51,-400.26C112.71,-393.5 130.23,-386.32 146.66,-381.05 169.47,-373.74 194.33,-367.38 218.11,-362.03"/>
<polygon fill="black" stroke="black" points="218.82,-365.46 227.83,-359.89 217.32,-358.62 218.82,-365.46"/>
</g>
<!-- frc_robot_Robot&#45;&gt;com_ctre_phoenix6_signals_MagnetHealthValue -->
<g id="edge9" class="edge">
<title>frc_robot_Robot&#45;&gt;com_ctre_phoenix6_signals_MagnetHealthValue</title>
<path fill="none" stroke="black" d="M70.98,-391C86.17,-363.94 112.48,-324.63 146.66,-303.05 159.54,-294.93 173.85,-288.47 188.61,-283.35"/>
<polygon fill="black" stroke="black" points="189.56,-286.72 198,-280.32 187.4,-280.06 189.56,-286.72"/>
</g>
<!-- frc_robot_Robot&#45;&gt;com_ctre_phoenix6_StatusCode -->
<g id="edge1" class="edge">
<title>frc_robot_Robot&#45;&gt;com_ctre_phoenix6_StatusCode</title>
<path fill="none" stroke="black" d="M61.62,-389.79C70.87,-346.37 94.23,-267.01 146.66,-225.05 165.88,-209.68 189.8,-200.01 213.88,-194.02"/>
<polygon fill="black" stroke="black" points="214.48,-197.47 223.46,-191.85 212.93,-190.65 214.48,-197.47"/>
</g>
<!-- frc_robot_Robot&#45;&gt;edu_wpi_first_wpilibj_TimedRobot -->
<g id="edge10" class="edge">
<title>frc_robot_Robot&#45;&gt;edu_wpi_first_wpilibj_TimedRobot</title>
<path fill="none" stroke="black" d="M57.05,-389.85C60.12,-333.28 75.18,-211.28 146.66,-147.05 163.98,-131.49 186.01,-121.62 208.67,-115.46"/>
<polygon fill="black" stroke="black" points="209.48,-118.86 218.36,-113.09 207.81,-112.06 209.48,-118.86"/>
</g>
<!-- frc_robot_Robot&#45;&gt;edu_wpi_first_wpilibj_XboxController -->
<g id="edge11" class="edge">
<title>frc_robot_Robot&#45;&gt;edu_wpi_first_wpilibj_XboxController</title>
<path fill="none" stroke="black" d="M60.05,-389.7C70.07,-312.91 100.06,-113.87 146.66,-69.05 160.38,-55.86 177.44,-46.69 195.56,-40.38"/>
<polygon fill="black" stroke="black" points="196.4,-43.79 204.89,-37.45 194.3,-37.11 196.4,-43.79"/>
</g>
</g>
</svg>
