<?xml version="1.0" encoding="UTF-8" standalone="no"?>
<!DOCTYPE svg PUBLIC "-//W3C//DTD SVG 1.1//EN"
 "http://www.w3.org/Graphics/SVG/1.1/DTD/svg11.dtd">
<!-- Generated by graphviz version 12.2.1 (0)
 -->
<!-- Title: CurrentLimits Pages: 1 -->
<svg width="474pt" height="614pt"
 viewBox="0.00 0.00 474.27 614.10" xmlns="http://www.w3.org/2000/svg" xmlns:xlink="http://www.w3.org/1999/xlink">
<g id="graph0" class="graph" transform="scale(1 1) rotate(0) translate(4 610.1)">
<title>CurrentLimits</title>
<polygon fill="white" stroke="none" points="-4,4 -4,-610.1 470.27,-610.1 470.27,4 -4,4"/>
<!-- com_ctre_phoenix6_configs_CurrentLimitsConfigs -->
<g id="node1" class="node">
<title>com_ctre_phoenix6_configs_CurrentLimitsConfigs</title>
<ellipse fill="none" stroke="black" cx="306.47" cy="-498.05" rx="159.28" ry="30.05"/>
<text text-anchor="middle" x="306.47" y="-502" font-family="Times,serif" font-size="14.00">com.ctre.phoenix6</text>
<text text-anchor="middle" x="306.47" y="-484.75" font-family="Times,serif" font-size="14.00">configs.CurrentLimitsConfigs</text>
</g>
<!-- com_ctre_phoenix6_configs_TalonFXConfiguration -->
<g id="node2" class="node">
<title>com_ctre_phoenix6_configs_TalonFXConfiguration</title>
<ellipse fill="none" stroke="black" cx="306.47" cy="-420.05" rx="159.81" ry="30.05"/>
<text text-anchor="middle" x="306.47" y="-424" font-family="Times,serif" font-size="14.00">com.ctre.phoenix6</text>
<text text-anchor="middle" x="306.47" y="-406.75" font-family="Times,serif" font-size="14.00">configs.TalonFXConfiguration</text>
</g>
<!-- com_ctre_phoenix6_controls_DutyCycleOut -->
<g id="node3" class="node">
<title>com_ctre_phoenix6_controls_DutyCycleOut</title>
<ellipse fill="none" stroke="black" cx="306.47" cy="-342.05" rx="125.87" ry="30.05"/>
<text text-anchor="middle" x="306.47" y="-346" font-family="Times,serif" font-size="14.00">com.ctre.phoenix6</text>
<text text-anchor="middle" x="306.47" y="-328.75" font-family="Times,serif" font-size="14.00">controls.DutyCycleOut</text>
</g>
<!-- com_ctre_phoenix6_hardware_TalonFX -->
<g id="node4" class="node">
<title>com_ctre_phoenix6_hardware_TalonFX</title>
<ellipse fill="none" stroke="black" cx="306.47" cy="-264.05" rx="104.65" ry="30.05"/>
<text text-anchor="middle" x="306.47" y="-268" font-family="Times,serif" font-size="14.00">com.ctre.phoenix6</text>
<text text-anchor="middle" x="306.47" y="-250.75" font-family="Times,serif" font-size="14.00">hardware.TalonFX</text>
</g>
<!-- edu_wpi_first_units_Units -->
<g id="node5" class="node">
<title>edu_wpi_first_units_Units</title>
<ellipse fill="none" stroke="black" cx="306.47" cy="-186.05" rx="74.95" ry="30.05"/>
<text text-anchor="middle" x="306.47" y="-190" font-family="Times,serif" font-size="14.00">edu.wpi.first</text>
<text text-anchor="middle" x="306.47" y="-172.75" font-family="Times,serif" font-size="14.00">units.Units</text>
</g>
<!-- edu_wpi_first_wpilibj_RobotBase -->
<g id="node6" class="node">
<title>edu_wpi_first_wpilibj_RobotBase</title>
<ellipse fill="none" stroke="black" cx="306.47" cy="-576.05" rx="102.53" ry="30.05"/>
<text text-anchor="middle" x="306.47" y="-580" font-family="Times,serif" font-size="14.00">edu.wpi.first</text>
<text text-anchor="middle" x="306.47" y="-562.75" font-family="Times,serif" font-size="14.00">wpilibj.RobotBase</text>
</g>
<!-- edu_wpi_first_wpilibj_TimedRobot -->
<g id="node7" class="node">
<title>edu_wpi_first_wpilibj_TimedRobot</title>
<ellipse fill="none" stroke="black" cx="306.47" cy="-108.05" rx="109.42" ry="30.05"/>
<text text-anchor="middle" x="306.47" y="-112" font-family="Times,serif" font-size="14.00">edu.wpi.first</text>
<text text-anchor="middle" x="306.47" y="-94.75" font-family="Times,serif" font-size="14.00">wpilibj.TimedRobot</text>
</g>
<!-- edu_wpi_first_wpilibj_XboxController -->
<g id="node8" class="node">
<title>edu_wpi_first_wpilibj_XboxController</title>
<ellipse fill="none" stroke="black" cx="306.47" cy="-30.05" rx="124.8" ry="30.05"/>
<text text-anchor="middle" x="306.47" y="-34" font-family="Times,serif" font-size="14.00">edu.wpi.first</text>
<text text-anchor="middle" x="306.47" y="-16.75" font-family="Times,serif" font-size="14.00">wpilibj.XboxController</text>
</g>
<!-- frc_robot_Main -->
<g id="node9" class="node">
<title>frc_robot_Main</title>
<ellipse fill="none" stroke="black" cx="55.33" cy="-576.05" rx="55.33" ry="30.05"/>
<text text-anchor="middle" x="55.33" y="-580" font-family="Times,serif" font-size="14.00">frc.robot</text>
<text text-anchor="middle" x="55.33" y="-562.75" font-family="Times,serif" font-size="14.00">Main</text>
</g>
<!-- frc_robot_Main&#45;&gt;edu_wpi_first_wpilibj_RobotBase -->
<g id="edge8" class="edge">
<title>frc_robot_Main&#45;&gt;edu_wpi_first_wpilibj_RobotBase</title>
<path fill="none" stroke="black" d="M111.01,-576.05C134.97,-576.05 164.03,-576.05 192.31,-576.05"/>
<polygon fill="black" stroke="black" points="192,-579.55 202,-576.05 192,-572.55 192,-579.55"/>
</g>
<!-- frc_robot_Robot -->
<g id="node10" class="node">
<title>frc_robot_Robot</title>
<ellipse fill="none" stroke="black" cx="55.33" cy="-264.05" rx="55.33" ry="30.05"/>
<text text-anchor="middle" x="55.33" y="-268" font-family="Times,serif" font-size="14.00">frc.robot</text>
<text text-anchor="middle" x="55.33" y="-250.75" font-family="Times,serif" font-size="14.00">Robot</text>
</g>
<!-- frc_robot_Robot&#45;&gt;com_ctre_phoenix6_configs_CurrentLimitsConfigs -->
<g id="edge2" class="edge">
<title>frc_robot_Robot&#45;&gt;com_ctre_phoenix6_configs_CurrentLimitsConfigs</title>
<path fill="none" stroke="black" d="M61.78,-294.12C71.22,-337.3 94.82,-416.36 146.66,-459.05 153.99,-465.08 162.11,-470.21 170.69,-474.55"/>
<polygon fill="black" stroke="black" points="169.03,-477.64 179.58,-478.67 171.97,-471.29 169.03,-477.64"/>
</g>
<!-- frc_robot_Robot&#45;&gt;com_ctre_phoenix6_configs_TalonFXConfiguration -->
<g id="edge3" class="edge">
<title>frc_robot_Robot&#45;&gt;com_ctre_phoenix6_configs_TalonFXConfiguration</title>
<path fill="none" stroke="black" d="M71.26,-293.15C86.57,-320.05 112.9,-359.07 146.66,-381.05 155.58,-386.86 165.29,-391.8 175.37,-396"/>
<polygon fill="black" stroke="black" points="173.99,-399.22 184.58,-399.58 176.52,-392.7 173.99,-399.22"/>
</g>
<!-- frc_robot_Robot&#45;&gt;com_ctre_phoenix6_controls_DutyCycleOut -->
<g id="edge4" class="edge">
<title>frc_robot_Robot&#45;&gt;com_ctre_phoenix6_controls_DutyCycleOut</title>
<path fill="none" stroke="black" d="M97.59,-283.59C112.8,-290.33 130.31,-297.56 146.66,-303.05 164.01,-308.88 182.7,-314.25 200.95,-319.02"/>
<polygon fill="black" stroke="black" points="199.91,-322.37 210.47,-321.46 201.65,-315.59 199.91,-322.37"/>
</g>
<!-- frc_robot_Robot&#45;&gt;com_ctre_phoenix6_hardware_TalonFX -->
<g id="edge5" class="edge">
<title>frc_robot_Robot&#45;&gt;com_ctre_phoenix6_hardware_TalonFX</title>
<path fill="none" stroke="black" d="M111.01,-264.05C134.36,-264.05 162.56,-264.05 190.15,-264.05"/>
<polygon fill="black" stroke="black" points="189.99,-267.55 199.99,-264.05 189.99,-260.55 189.99,-267.55"/>
</g>
<!-- frc_robot_Robot&#45;&gt;edu_wpi_first_units_Units -->
<g id="edge1" class="edge">
<title>frc_robot_Robot&#45;&gt;edu_wpi_first_units_Units</title>
<path fill="none" stroke="black" d="M97.59,-244.52C112.8,-237.78 130.31,-230.55 146.66,-225.05 172.8,-216.27 201.96,-208.54 228.09,-202.32"/>
<polygon fill="black" stroke="black" points="228.67,-205.78 237.62,-200.1 227.08,-198.96 228.67,-205.78"/>
</g>
<!-- frc_robot_Robot&#45;&gt;edu_wpi_first_wpilibj_TimedRobot -->
<g id="edge6" class="edge">
<title>frc_robot_Robot&#45;&gt;edu_wpi_first_wpilibj_TimedRobot</title>
<path fill="none" stroke="black" d="M71.26,-234.95C86.57,-208.06 112.9,-169.03 146.66,-147.05 161.74,-137.24 179.07,-129.9 196.63,-124.4"/>
<polygon fill="black" stroke="black" points="197.5,-127.79 206.12,-121.63 195.54,-121.07 197.5,-127.79"/>
</g>
<!-- frc_robot_Robot&#45;&gt;edu_wpi_first_wpilibj_XboxController -->
<g id="edge7" class="edge">
<title>frc_robot_Robot&#45;&gt;edu_wpi_first_wpilibj_XboxController</title>
<path fill="none" stroke="black" d="M61.78,-233.99C71.22,-190.81 94.82,-111.74 146.66,-69.05 157.75,-59.92 170.66,-52.87 184.24,-47.45"/>
<polygon fill="black" stroke="black" points="185.13,-50.85 193.31,-44.12 182.72,-44.28 185.13,-50.85"/>
</g>
</g>
</svg>
