<?xml version="1.0" encoding="UTF-8" standalone="no"?>
<!DOCTYPE svg PUBLIC "-//W3C//DTD SVG 1.1//EN"
 "http://www.w3.org/Graphics/SVG/1.1/DTD/svg11.dtd">
<!-- Generated by graphviz version 12.2.1 (0)
 -->
<!-- Title: FusedCANcoder Pages: 1 -->
<svg width="1112pt" height="1636pt"
 viewBox="0.00 0.00 1112.02 1636.10" xmlns="http://www.w3.org/2000/svg" xmlns:xlink="http://www.w3.org/1999/xlink">
<g id="graph0" class="graph" transform="scale(1 1) rotate(0) translate(4 1632.1)">
<title>FusedCANcoder</title>
<polygon fill="white" stroke="none" points="-4,4 -4,-1632.1 1108.02,-1632.1 1108.02,4 -4,4"/>
<!-- com_ctre_phoenix6_BaseStatusSignal -->
<g id="node1" class="node">
<title>com_ctre_phoenix6_BaseStatusSignal</title>
<ellipse fill="none" stroke="black" cx="437.46" cy="-576.05" rx="104.65" ry="30.05"/>
<text text-anchor="middle" x="437.46" y="-580" font-family="Times,serif" font-size="14.00">com.ctre.phoenix6</text>
<text text-anchor="middle" x="437.46" y="-562.75" font-family="Times,serif" font-size="14.00">BaseStatusSignal</text>
</g>
<!-- com_ctre_phoenix6_configs_CANcoderConfiguration -->
<g id="node2" class="node">
<title>com_ctre_phoenix6_configs_CANcoderConfiguration</title>
<ellipse fill="none" stroke="black" cx="437.46" cy="-888.05" rx="169.88" ry="30.05"/>
<text text-anchor="middle" x="437.46" y="-892" font-family="Times,serif" font-size="14.00">com.ctre.phoenix6</text>
<text text-anchor="middle" x="437.46" y="-874.75" font-family="Times,serif" font-size="14.00">configs.CANcoderConfiguration</text>
</g>
<!-- com_ctre_phoenix6_configs_TalonFXConfiguration -->
<g id="node3" class="node">
<title>com_ctre_phoenix6_configs_TalonFXConfiguration</title>
<ellipse fill="none" stroke="black" cx="437.46" cy="-810.05" rx="159.81" ry="30.05"/>
<text text-anchor="middle" x="437.46" y="-814" font-family="Times,serif" font-size="14.00">com.ctre.phoenix6</text>
<text text-anchor="middle" x="437.46" y="-796.75" font-family="Times,serif" font-size="14.00">configs.TalonFXConfiguration</text>
</g>
<!-- com_ctre_phoenix6_controls_DutyCycleOut -->
<g id="node4" class="node">
<title>com_ctre_phoenix6_controls_DutyCycleOut</title>
<ellipse fill="none" stroke="black" cx="437.46" cy="-732.05" rx="125.87" ry="30.05"/>
<text text-anchor="middle" x="437.46" y="-736" font-family="Times,serif" font-size="14.00">com.ctre.phoenix6</text>
<text text-anchor="middle" x="437.46" y="-718.75" font-family="Times,serif" font-size="14.00">controls.DutyCycleOut</text>
</g>
<!-- com_ctre_phoenix6_hardware_CANcoder -->
<g id="node5" class="node">
<title>com_ctre_phoenix6_hardware_CANcoder</title>
<ellipse fill="none" stroke="black" cx="915.05" cy="-1442.05" rx="113.67" ry="30.05"/>
<text text-anchor="middle" x="915.05" y="-1446" font-family="Times,serif" font-size="14.00">com.ctre.phoenix6</text>
<text text-anchor="middle" x="915.05" y="-1428.75" font-family="Times,serif" font-size="14.00">hardware.CANcoder</text>
</g>
<!-- com_ctre_phoenix6_hardware_TalonFX -->
<g id="node6" class="node">
<title>com_ctre_phoenix6_hardware_TalonFX</title>
<ellipse fill="none" stroke="black" cx="915.05" cy="-1364.05" rx="104.65" ry="30.05"/>
<text text-anchor="middle" x="915.05" y="-1368" font-family="Times,serif" font-size="14.00">com.ctre.phoenix6</text>
<text text-anchor="middle" x="915.05" y="-1350.75" font-family="Times,serif" font-size="14.00">hardware.TalonFX</text>
</g>
<!-- com_ctre_phoenix6_signals_FeedbackSensorSourceValue -->
<g id="node7" class="node">
<title>com_ctre_phoenix6_signals_FeedbackSensorSourceValue</title>
<ellipse fill="none" stroke="black" cx="437.46" cy="-1356.05" rx="195.34" ry="30.05"/>
<text text-anchor="middle" x="437.46" y="-1360" font-family="Times,serif" font-size="14.00">com.ctre.phoenix6</text>
<text text-anchor="middle" x="437.46" y="-1342.75" font-family="Times,serif" font-size="14.00">signals.FeedbackSensorSourceValue</text>
</g>
<!-- com_ctre_phoenix6_signals_SensorDirectionValue -->
<g id="node8" class="node">
<title>com_ctre_phoenix6_signals_SensorDirectionValue</title>
<ellipse fill="none" stroke="black" cx="437.46" cy="-1278.05" rx="159.28" ry="30.05"/>
<text text-anchor="middle" x="437.46" y="-1282" font-family="Times,serif" font-size="14.00">com.ctre.phoenix6</text>
<text text-anchor="middle" x="437.46" y="-1264.75" font-family="Times,serif" font-size="14.00">signals.SensorDirectionValue</text>
</g>
<!-- com_ctre_phoenix6_sim_TalonFXSimState -->
<g id="node9" class="node">
<title>com_ctre_phoenix6_sim_TalonFXSimState</title>
<ellipse fill="none" stroke="black" cx="915.05" cy="-1161.05" rx="120.03" ry="30.05"/>
<text text-anchor="middle" x="915.05" y="-1165" font-family="Times,serif" font-size="14.00">com.ctre.phoenix6</text>
<text text-anchor="middle" x="915.05" y="-1147.75" font-family="Times,serif" font-size="14.00">sim.TalonFXSimState</text>
</g>
<!-- com_ctre_phoenix6_StatusSignal -->
<g id="node10" class="node">
<title>com_ctre_phoenix6_StatusSignal</title>
<ellipse fill="none" stroke="black" cx="437.46" cy="-498.05" rx="104.65" ry="30.05"/>
<text text-anchor="middle" x="437.46" y="-502" font-family="Times,serif" font-size="14.00">com.ctre.phoenix6</text>
<text text-anchor="middle" x="437.46" y="-484.75" font-family="Times,serif" font-size="14.00">StatusSignal</text>
</g>
<!-- com_ctre_phoenix6_Utils -->
<g id="node11" class="node">
<title>com_ctre_phoenix6_Utils</title>
<ellipse fill="none" stroke="black" cx="915.05" cy="-1598.05" rx="104.65" ry="30.05"/>
<text text-anchor="middle" x="915.05" y="-1602" font-family="Times,serif" font-size="14.00">com.ctre.phoenix6</text>
<text text-anchor="middle" x="915.05" y="-1584.75" font-family="Times,serif" font-size="14.00">Utils</text>
</g>
<!-- edu_wpi_first_math_system_plant_DCMotor -->
<g id="node12" class="node">
<title>edu_wpi_first_math_system_plant_DCMotor</title>
<ellipse fill="none" stroke="black" cx="915.05" cy="-1083.05" rx="155.03" ry="30.05"/>
<text text-anchor="middle" x="915.05" y="-1087" font-family="Times,serif" font-size="14.00">edu.wpi.first</text>
<text text-anchor="middle" x="915.05" y="-1069.75" font-family="Times,serif" font-size="14.00">math.system.plant.DCMotor</text>
</g>
<!-- edu_wpi_first_math_system_plant_LinearSystemId -->
<g id="node13" class="node">
<title>edu_wpi_first_math_system_plant_LinearSystemId</title>
<ellipse fill="none" stroke="black" cx="915.05" cy="-1005.05" rx="188.97" ry="30.05"/>
<text text-anchor="middle" x="915.05" y="-1009" font-family="Times,serif" font-size="14.00">edu.wpi.first</text>
<text text-anchor="middle" x="915.05" y="-991.75" font-family="Times,serif" font-size="14.00">math.system.plant.LinearSystemId</text>
</g>
<!-- edu_wpi_first_math_util_Units -->
<g id="node14" class="node">
<title>edu_wpi_first_math_util_Units</title>
<ellipse fill="none" stroke="black" cx="915.05" cy="-927.05" rx="88.21" ry="30.05"/>
<text text-anchor="middle" x="915.05" y="-931" font-family="Times,serif" font-size="14.00">edu.wpi.first</text>
<text text-anchor="middle" x="915.05" y="-913.75" font-family="Times,serif" font-size="14.00">math.util.Units</text>
</g>
<!-- edu_wpi_first_units_measure -->
<g id="node15" class="node">
<title>edu_wpi_first_units_measure</title>
<ellipse fill="none" stroke="black" cx="437.46" cy="-1200.05" rx="83.44" ry="30.05"/>
<text text-anchor="middle" x="437.46" y="-1204" font-family="Times,serif" font-size="14.00">edu.wpi.first</text>
<text text-anchor="middle" x="437.46" y="-1186.75" font-family="Times,serif" font-size="14.00">units.measure</text>
</g>
<!-- edu_wpi_first_units_measure_Angle -->
<g id="node16" class="node">
<title>edu_wpi_first_units_measure_Angle</title>
<ellipse fill="none" stroke="black" cx="437.46" cy="-186.05" rx="115.26" ry="30.05"/>
<text text-anchor="middle" x="437.46" y="-190" font-family="Times,serif" font-size="14.00">edu.wpi.first</text>
<text text-anchor="middle" x="437.46" y="-172.75" font-family="Times,serif" font-size="14.00">units.measure.Angle</text>
</g>
<!-- edu_wpi_first_units_Units -->
<g id="node17" class="node">
<title>edu_wpi_first_units_Units</title>
<ellipse fill="none" stroke="black" cx="437.46" cy="-654.05" rx="74.95" ry="30.05"/>
<text text-anchor="middle" x="437.46" y="-658" font-family="Times,serif" font-size="14.00">edu.wpi.first</text>
<text text-anchor="middle" x="437.46" y="-640.75" font-family="Times,serif" font-size="14.00">units.Units</text>
</g>
<!-- edu_wpi_first_wpilibj_RobotBase -->
<g id="node18" class="node">
<title>edu_wpi_first_wpilibj_RobotBase</title>
<ellipse fill="none" stroke="black" cx="437.46" cy="-1588.05" rx="102.53" ry="30.05"/>
<text text-anchor="middle" x="437.46" y="-1592" font-family="Times,serif" font-size="14.00">edu.wpi.first</text>
<text text-anchor="middle" x="437.46" y="-1574.75" font-family="Times,serif" font-size="14.00">wpilibj.RobotBase</text>
</g>
<!-- edu_wpi_first_wpilibj_simulation_DCMotorSim -->
<g id="node19" class="node">
<title>edu_wpi_first_wpilibj_simulation_DCMotorSim</title>
<ellipse fill="none" stroke="black" cx="915.05" cy="-849.05" rx="170.41" ry="30.05"/>
<text text-anchor="middle" x="915.05" y="-853" font-family="Times,serif" font-size="14.00">edu.wpi.first</text>
<text text-anchor="middle" x="915.05" y="-835.75" font-family="Times,serif" font-size="14.00">wpilibj.simulation.DCMotorSim</text>
</g>
<!-- edu_wpi_first_wpilibj_smartdashboard_Mechanism2d -->
<g id="node20" class="node">
<title>edu_wpi_first_wpilibj_smartdashboard_Mechanism2d</title>
<ellipse fill="none" stroke="black" cx="437.46" cy="-108.05" rx="204.88" ry="30.05"/>
<text text-anchor="middle" x="437.46" y="-112" font-family="Times,serif" font-size="14.00">edu.wpi.first</text>
<text text-anchor="middle" x="437.46" y="-94.75" font-family="Times,serif" font-size="14.00">wpilibj.smartdashboard.Mechanism2d</text>
</g>
<!-- edu_wpi_first_wpilibj_smartdashboard_MechanismLigament2d -->
<g id="node21" class="node">
<title>edu_wpi_first_wpilibj_smartdashboard_MechanismLigament2d</title>
<ellipse fill="none" stroke="black" cx="437.46" cy="-30.05" rx="252.61" ry="30.05"/>
<text text-anchor="middle" x="437.46" y="-34" font-family="Times,serif" font-size="14.00">edu.wpi.first</text>
<text text-anchor="middle" x="437.46" y="-16.75" font-family="Times,serif" font-size="14.00">wpilibj.smartdashboard.MechanismLigament2d</text>
</g>
<!-- edu_wpi_first_wpilibj_smartdashboard_SmartDashboard -->
<g id="node22" class="node">
<title>edu_wpi_first_wpilibj_smartdashboard_SmartDashboard</title>
<ellipse fill="none" stroke="black" cx="437.46" cy="-420.05" rx="220.26" ry="30.05"/>
<text text-anchor="middle" x="437.46" y="-424" font-family="Times,serif" font-size="14.00">edu.wpi.first</text>
<text text-anchor="middle" x="437.46" y="-406.75" font-family="Times,serif" font-size="14.00">wpilibj.smartdashboard.SmartDashboard</text>
</g>
<!-- edu_wpi_first_wpilibj_TimedRobot -->
<g id="node23" class="node">
<title>edu_wpi_first_wpilibj_TimedRobot</title>
<ellipse fill="none" stroke="black" cx="437.46" cy="-1122.05" rx="109.42" ry="30.05"/>
<text text-anchor="middle" x="437.46" y="-1126" font-family="Times,serif" font-size="14.00">edu.wpi.first</text>
<text text-anchor="middle" x="437.46" y="-1108.75" font-family="Times,serif" font-size="14.00">wpilibj.TimedRobot</text>
</g>
<!-- edu_wpi_first_wpilibj_util_Color -->
<g id="node24" class="node">
<title>edu_wpi_first_wpilibj_util_Color</title>
<ellipse fill="none" stroke="black" cx="437.46" cy="-342.05" rx="95.64" ry="30.05"/>
<text text-anchor="middle" x="437.46" y="-346" font-family="Times,serif" font-size="14.00">edu.wpi.first</text>
<text text-anchor="middle" x="437.46" y="-328.75" font-family="Times,serif" font-size="14.00">wpilibj.util.Color</text>
</g>
<!-- edu_wpi_first_wpilibj_util_Color8Bit -->
<g id="node25" class="node">
<title>edu_wpi_first_wpilibj_util_Color8Bit</title>
<ellipse fill="none" stroke="black" cx="437.46" cy="-264.05" rx="116.85" ry="30.05"/>
<text text-anchor="middle" x="437.46" y="-268" font-family="Times,serif" font-size="14.00">edu.wpi.first</text>
<text text-anchor="middle" x="437.46" y="-250.75" font-family="Times,serif" font-size="14.00">wpilibj.util.Color8Bit</text>
</g>
<!-- edu_wpi_first_wpilibj_XboxController -->
<g id="node26" class="node">
<title>edu_wpi_first_wpilibj_XboxController</title>
<ellipse fill="none" stroke="black" cx="437.46" cy="-1044.05" rx="124.8" ry="30.05"/>
<text text-anchor="middle" x="437.46" y="-1048" font-family="Times,serif" font-size="14.00">edu.wpi.first</text>
<text text-anchor="middle" x="437.46" y="-1030.75" font-family="Times,serif" font-size="14.00">wpilibj.XboxController</text>
</g>
<!-- frc_robot_Main -->
<g id="node27" class="node">
<title>frc_robot_Main</title>
<ellipse fill="none" stroke="black" cx="74.42" cy="-1588.05" rx="55.33" ry="30.05"/>
<text text-anchor="middle" x="74.42" y="-1592" font-family="Times,serif" font-size="14.00">frc.robot</text>
<text text-anchor="middle" x="74.42" y="-1574.75" font-family="Times,serif" font-size="14.00">Main</text>
</g>
<!-- frc_robot_Main&#45;&gt;edu_wpi_first_wpilibj_RobotBase -->
<g id="edge36" class="edge">
<title>frc_robot_Main&#45;&gt;edu_wpi_first_wpilibj_RobotBase</title>
<path fill="none" stroke="black" d="M129.86,-1588.05C180.88,-1588.05 258.71,-1588.05 323.19,-1588.05"/>
<polygon fill="black" stroke="black" points="323.14,-1591.55 333.14,-1588.05 323.14,-1584.55 323.14,-1591.55"/>
</g>
<!-- frc_robot_Mechanisms -->
<g id="node28" class="node">
<title>frc_robot_Mechanisms</title>
<ellipse fill="none" stroke="black" cx="74.42" cy="-342.05" rx="74.42" ry="30.05"/>
<text text-anchor="middle" x="74.42" y="-346" font-family="Times,serif" font-size="14.00">frc.robot</text>
<text text-anchor="middle" x="74.42" y="-328.75" font-family="Times,serif" font-size="14.00">Mechanisms</text>
</g>
<!-- frc_robot_Mechanisms&#45;&gt;com_ctre_phoenix6_BaseStatusSignal -->
<g id="edge16" class="edge">
<title>frc_robot_Mechanisms&#45;&gt;com_ctre_phoenix6_BaseStatusSignal</title>
<path fill="none" stroke="black" d="M83.23,-372.14C96.32,-416.1 127.12,-497 184.85,-537.05 224.44,-564.52 275.93,-575.67 322.02,-579.41"/>
<polygon fill="black" stroke="black" points="321.57,-582.89 331.79,-580.09 322.05,-575.91 321.57,-582.89"/>
</g>
<!-- frc_robot_Mechanisms&#45;&gt;com_ctre_phoenix6_StatusSignal -->
<g id="edge17" class="edge">
<title>frc_robot_Mechanisms&#45;&gt;com_ctre_phoenix6_StatusSignal</title>
<path fill="none" stroke="black" d="M94.17,-371.33C113.42,-398.76 146,-438.51 184.85,-459.05 226.28,-480.95 276.54,-491.41 321.22,-496.13"/>
<polygon fill="black" stroke="black" points="320.66,-499.59 330.95,-497.07 321.33,-492.63 320.66,-499.59"/>
</g>
<!-- frc_robot_Mechanisms&#45;&gt;edu_wpi_first_units_measure_Angle -->
<g id="edge18" class="edge">
<title>frc_robot_Mechanisms&#45;&gt;edu_wpi_first_units_measure_Angle</title>
<path fill="none" stroke="black" d="M94.17,-312.77C113.42,-285.34 146,-245.59 184.85,-225.05 223.06,-204.85 268.79,-194.39 310.72,-189.18"/>
<polygon fill="black" stroke="black" points="311.11,-192.66 320.65,-188.05 310.31,-185.7 311.11,-192.66"/>
</g>
<!-- frc_robot_Mechanisms&#45;&gt;edu_wpi_first_units_Units -->
<g id="edge15" class="edge">
<title>frc_robot_Mechanisms&#45;&gt;edu_wpi_first_units_Units</title>
<path fill="none" stroke="black" d="M78.03,-372.37C84.68,-429.7 107.7,-553.73 184.85,-615.05 231.67,-652.28 299.3,-661.05 352.65,-661.04"/>
<polygon fill="black" stroke="black" points="352.68,-664.54 362.64,-660.92 352.6,-657.54 352.68,-664.54"/>
</g>
<!-- frc_robot_Mechanisms&#45;&gt;edu_wpi_first_wpilibj_smartdashboard_Mechanism2d -->
<g id="edge19" class="edge">
<title>frc_robot_Mechanisms&#45;&gt;edu_wpi_first_wpilibj_smartdashboard_Mechanism2d</title>
<path fill="none" stroke="black" d="M83.23,-311.96C96.32,-268 127.12,-187.11 184.85,-147.05 200.03,-136.52 216.96,-128.39 234.66,-122.15"/>
<polygon fill="black" stroke="black" points="235.32,-125.62 243.73,-119.17 233.14,-118.97 235.32,-125.62"/>
</g>
<!-- frc_robot_Mechanisms&#45;&gt;edu_wpi_first_wpilibj_smartdashboard_MechanismLigament2d -->
<g id="edge20" class="edge">
<title>frc_robot_Mechanisms&#45;&gt;edu_wpi_first_wpilibj_smartdashboard_MechanismLigament2d</title>
<path fill="none" stroke="black" d="M78.03,-311.73C84.68,-254.4 107.7,-130.38 184.85,-69.05 193.6,-62.09 203.09,-56.12 213.08,-51.02"/>
<polygon fill="black" stroke="black" points="214.32,-54.31 221.85,-46.85 211.32,-47.98 214.32,-54.31"/>
</g>
<!-- frc_robot_Mechanisms&#45;&gt;edu_wpi_first_wpilibj_smartdashboard_SmartDashboard -->
<g id="edge21" class="edge">
<title>frc_robot_Mechanisms&#45;&gt;edu_wpi_first_wpilibj_smartdashboard_SmartDashboard</title>
<path fill="none" stroke="black" d="M128.23,-363.14C146,-369.63 166.08,-376.3 184.85,-381.05 209.87,-387.39 236.58,-392.87 262.89,-397.55"/>
<polygon fill="black" stroke="black" points="262.2,-400.98 272.65,-399.24 263.4,-394.08 262.2,-400.98"/>
</g>
<!-- frc_robot_Mechanisms&#45;&gt;edu_wpi_first_wpilibj_util_Color -->
<g id="edge22" class="edge">
<title>frc_robot_Mechanisms&#45;&gt;edu_wpi_first_wpilibj_util_Color</title>
<path fill="none" stroke="black" d="M148.92,-342.05C201.01,-342.05 271.71,-342.05 329.97,-342.05"/>
<polygon fill="black" stroke="black" points="329.93,-345.55 339.93,-342.05 329.93,-338.55 329.93,-345.55"/>
</g>
<!-- frc_robot_Mechanisms&#45;&gt;edu_wpi_first_wpilibj_util_Color8Bit -->
<g id="edge23" class="edge">
<title>frc_robot_Mechanisms&#45;&gt;edu_wpi_first_wpilibj_util_Color8Bit</title>
<path fill="none" stroke="black" d="M128.23,-320.96C146,-314.48 166.08,-307.81 184.85,-303.05 227.92,-292.14 275.96,-283.79 318.42,-277.66"/>
<polygon fill="black" stroke="black" points="318.76,-281.15 328.17,-276.29 317.78,-274.22 318.76,-281.15"/>
</g>
<!-- frc_robot_Robot -->
<g id="node29" class="node">
<title>frc_robot_Robot</title>
<ellipse fill="none" stroke="black" cx="74.42" cy="-1083.05" rx="55.33" ry="30.05"/>
<text text-anchor="middle" x="74.42" y="-1087" font-family="Times,serif" font-size="14.00">frc.robot</text>
<text text-anchor="middle" x="74.42" y="-1069.75" font-family="Times,serif" font-size="14.00">Robot</text>
</g>
<!-- frc_robot_Robot&#45;&gt;com_ctre_phoenix6_BaseStatusSignal -->
<g id="edge2" class="edge">
<title>frc_robot_Robot&#45;&gt;com_ctre_phoenix6_BaseStatusSignal</title>
<path fill="none" stroke="black" d="M78.16,-1052.66C87.28,-958.66 119.75,-675.39 184.85,-615.05 222.29,-580.34 277.17,-569.02 326.12,-567.04"/>
<polygon fill="black" stroke="black" points="326.03,-570.54 335.93,-566.78 325.84,-563.54 326.03,-570.54"/>
</g>
<!-- frc_robot_Robot&#45;&gt;com_ctre_phoenix6_configs_CANcoderConfiguration -->
<g id="edge4" class="edge">
<title>frc_robot_Robot&#45;&gt;com_ctre_phoenix6_configs_CANcoderConfiguration</title>
<path fill="none" stroke="black" d="M87.43,-1053.39C103.74,-1017.2 136.53,-957.11 184.85,-927.05 207.53,-912.94 233.52,-903.32 260,-896.86"/>
<polygon fill="black" stroke="black" points="260.51,-900.33 269.48,-894.7 258.96,-893.5 260.51,-900.33"/>
</g>
<!-- frc_robot_Robot&#45;&gt;com_ctre_phoenix6_configs_TalonFXConfiguration -->
<g id="edge5" class="edge">
<title>frc_robot_Robot&#45;&gt;com_ctre_phoenix6_configs_TalonFXConfiguration</title>
<path fill="none" stroke="black" d="M80.21,-1053C90,-1002.13 117.4,-899.65 184.85,-849.05 208.52,-831.29 237.02,-820.16 266.2,-813.39"/>
<polygon fill="black" stroke="black" points="266.88,-816.83 275.93,-811.32 265.42,-809.98 266.88,-816.83"/>
</g>
<!-- frc_robot_Robot&#45;&gt;com_ctre_phoenix6_controls_DutyCycleOut -->
<g id="edge6" class="edge">
<title>frc_robot_Robot&#45;&gt;com_ctre_phoenix6_controls_DutyCycleOut</title>
<path fill="none" stroke="black" d="M76.3,-1052.98C79.88,-989.88 97.67,-843.53 184.85,-771.05 217.46,-743.93 260.97,-731.67 302.64,-726.93"/>
<polygon fill="black" stroke="black" points="302.92,-730.41 312.53,-725.95 302.24,-723.45 302.92,-730.41"/>
</g>
<!-- frc_robot_Robot&#45;&gt;com_ctre_phoenix6_hardware_CANcoder -->
<g id="edge7" class="edge">
<title>frc_robot_Robot&#45;&gt;com_ctre_phoenix6_hardware_CANcoder</title>
<path fill="none" stroke="black" d="M74.47,-1113.59C74.18,-1182.7 84.35,-1350.92 184.85,-1426.05 232.02,-1461.32 595.75,-1453.78 791.02,-1447.02"/>
<polygon fill="black" stroke="black" points="791.1,-1450.52 800.97,-1446.67 790.85,-1443.52 791.1,-1450.52"/>
</g>
<!-- frc_robot_Robot&#45;&gt;com_ctre_phoenix6_hardware_TalonFX -->
<g id="edge8" class="edge">
<title>frc_robot_Robot&#45;&gt;com_ctre_phoenix6_hardware_TalonFX</title>
<path fill="none" stroke="black" d="M75.44,-1113.23C77.3,-1177.86 91.9,-1329.15 184.85,-1395.05 283.53,-1465.02 640.64,-1413.37 815.8,-1382.6"/>
<polygon fill="black" stroke="black" points="816.34,-1386.06 825.58,-1380.87 815.12,-1379.17 816.34,-1386.06"/>
</g>
<!-- frc_robot_Robot&#45;&gt;com_ctre_phoenix6_signals_FeedbackSensorSourceValue -->
<g id="edge9" class="edge">
<title>frc_robot_Robot&#45;&gt;com_ctre_phoenix6_signals_FeedbackSensorSourceValue</title>
<path fill="none" stroke="black" d="M80.21,-1113.1C90,-1163.98 117.4,-1266.46 184.85,-1317.05 200.73,-1328.97 218.8,-1337.91 237.78,-1344.54"/>
<polygon fill="black" stroke="black" points="236.7,-1347.87 247.29,-1347.62 238.86,-1341.21 236.7,-1347.87"/>
</g>
<!-- frc_robot_Robot&#45;&gt;com_ctre_phoenix6_signals_SensorDirectionValue -->
<g id="edge10" class="edge">
<title>frc_robot_Robot&#45;&gt;com_ctre_phoenix6_signals_SensorDirectionValue</title>
<path fill="none" stroke="black" d="M87.43,-1112.71C103.74,-1148.91 136.53,-1209 184.85,-1239.05 209.89,-1254.63 238.98,-1264.74 268.29,-1271.17"/>
<polygon fill="black" stroke="black" points="267.55,-1274.59 278.05,-1273.15 268.94,-1267.73 267.55,-1274.59"/>
</g>
<!-- frc_robot_Robot&#45;&gt;com_ctre_phoenix6_StatusSignal -->
<g id="edge3" class="edge">
<title>frc_robot_Robot&#45;&gt;com_ctre_phoenix6_StatusSignal</title>
<path fill="none" stroke="black" d="M77.06,-1052.88C83.31,-949.1 109.32,-609.32 184.85,-537.05 221.96,-501.54 277.22,-490.23 326.51,-488.47"/>
<polygon fill="black" stroke="black" points="326.47,-491.97 336.39,-488.26 326.32,-484.97 326.47,-491.97"/>
</g>
<!-- frc_robot_Robot&#45;&gt;edu_wpi_first_units_measure -->
<g id="edge11" class="edge">
<title>frc_robot_Robot&#45;&gt;edu_wpi_first_units_measure</title>
<path fill="none" stroke="black" d="M103.83,-1109C124.71,-1126.57 154.59,-1148.74 184.85,-1161.05 234.69,-1181.34 294.03,-1191.15 342.56,-1195.86"/>
<polygon fill="black" stroke="black" points="342.23,-1199.35 352.51,-1196.76 342.86,-1192.38 342.23,-1199.35"/>
</g>
<!-- frc_robot_Robot&#45;&gt;edu_wpi_first_units_Units -->
<g id="edge1" class="edge">
<title>frc_robot_Robot&#45;&gt;edu_wpi_first_units_Units</title>
<path fill="none" stroke="black" d="M79.66,-1052.78C91.91,-969.8 130,-741.7 184.85,-693.05 230.23,-652.8 299.27,-644.5 353.55,-645.46"/>
<polygon fill="black" stroke="black" points="353.29,-648.95 363.39,-645.75 353.5,-641.95 353.29,-648.95"/>
</g>
<!-- frc_robot_Robot&#45;&gt;edu_wpi_first_wpilibj_TimedRobot -->
<g id="edge12" class="edge">
<title>frc_robot_Robot&#45;&gt;edu_wpi_first_wpilibj_TimedRobot</title>
<path fill="none" stroke="black" d="M129.08,-1088.85C180.24,-1094.37 258.88,-1102.87 323.81,-1109.88"/>
<polygon fill="black" stroke="black" points="323.12,-1113.33 333.43,-1110.92 323.87,-1106.37 323.12,-1113.33"/>
</g>
<!-- frc_robot_Robot&#45;&gt;edu_wpi_first_wpilibj_XboxController -->
<g id="edge13" class="edge">
<title>frc_robot_Robot&#45;&gt;edu_wpi_first_wpilibj_XboxController</title>
<path fill="none" stroke="black" d="M129.08,-1077.26C177.08,-1072.07 249.26,-1064.27 311.62,-1057.54"/>
<polygon fill="black" stroke="black" points="311.67,-1061.05 321.24,-1056.5 310.92,-1054.09 311.67,-1061.05"/>
</g>
<!-- frc_robot_sim_PhysicsSim -->
<g id="node30" class="node">
<title>frc_robot_sim_PhysicsSim</title>
<ellipse fill="none" stroke="black" cx="437.46" cy="-1510.05" rx="90.33" ry="30.05"/>
<text text-anchor="middle" x="437.46" y="-1514" font-family="Times,serif" font-size="14.00">frc.robot</text>
<text text-anchor="middle" x="437.46" y="-1496.75" font-family="Times,serif" font-size="14.00">sim.PhysicsSim</text>
</g>
<!-- frc_robot_Robot&#45;&gt;frc_robot_sim_PhysicsSim -->
<g id="edge14" class="edge">
<title>frc_robot_Robot&#45;&gt;frc_robot_sim_PhysicsSim</title>
<path fill="none" stroke="black" d="M79.88,-1113.32C92.56,-1195.17 131.39,-1417.94 184.85,-1466.05 225.76,-1502.87 286.14,-1514.33 337.5,-1516.37"/>
<polygon fill="black" stroke="black" points="337.38,-1519.87 347.47,-1516.63 337.57,-1512.87 337.38,-1519.87"/>
</g>
<!-- frc_robot_sim_PhysicsSim&#45;&gt;com_ctre_phoenix6_hardware_CANcoder -->
<g id="edge26" class="edge">
<title>frc_robot_sim_PhysicsSim&#45;&gt;com_ctre_phoenix6_hardware_CANcoder</title>
<path fill="none" stroke="black" d="M521.03,-1498.25C599.13,-1487.08 716.92,-1470.24 803.18,-1457.9"/>
<polygon fill="black" stroke="black" points="803.43,-1461.4 812.83,-1456.52 802.44,-1454.47 803.43,-1461.4"/>
</g>
<!-- frc_robot_sim_PhysicsSim&#45;&gt;com_ctre_phoenix6_hardware_TalonFX -->
<g id="edge27" class="edge">
<title>frc_robot_sim_PhysicsSim&#45;&gt;com_ctre_phoenix6_hardware_TalonFX</title>
<path fill="none" stroke="black" d="M511.42,-1492.35C562.87,-1478.43 632.57,-1456.61 690.07,-1428.05 707.52,-1419.39 708.18,-1410.74 726.07,-1403.05 751.51,-1392.12 780.23,-1384.18 807.42,-1378.44"/>
<polygon fill="black" stroke="black" points="807.97,-1381.9 817.07,-1376.49 806.58,-1375.04 807.97,-1381.9"/>
</g>
<!-- frc_robot_sim_PhysicsSim&#45;&gt;com_ctre_phoenix6_Utils -->
<g id="edge25" class="edge">
<title>frc_robot_sim_PhysicsSim&#45;&gt;com_ctre_phoenix6_Utils</title>
<path fill="none" stroke="black" d="M522.5,-1520.57C571.61,-1527.34 634.65,-1537.1 690.07,-1549.05 706.31,-1552.55 709.94,-1555.14 726.07,-1559.05 755.23,-1566.12 787.12,-1573.03 816.21,-1579.04"/>
<polygon fill="black" stroke="black" points="815.23,-1582.41 825.73,-1580.99 816.64,-1575.55 815.23,-1582.41"/>
</g>
<!-- java_util_ArrayList -->
<g id="node33" class="node">
<title>java_util_ArrayList</title>
<ellipse fill="none" stroke="black" cx="915.05" cy="-1520.05" rx="58.51" ry="30.05"/>
<text text-anchor="middle" x="915.05" y="-1524" font-family="Times,serif" font-size="14.00">java.util</text>
<text text-anchor="middle" x="915.05" y="-1506.75" font-family="Times,serif" font-size="14.00">ArrayList</text>
</g>
<!-- frc_robot_sim_PhysicsSim&#45;&gt;java_util_ArrayList -->
<g id="edge24" class="edge">
<title>frc_robot_sim_PhysicsSim&#45;&gt;java_util_ArrayList</title>
<path fill="none" stroke="black" d="M527.91,-1511.93C619.92,-1513.87 761.24,-1516.84 844.98,-1518.6"/>
<polygon fill="black" stroke="black" points="844.82,-1522.1 854.89,-1518.81 844.97,-1515.1 844.82,-1522.1"/>
</g>
<!-- frc_robot_sim_PhysicsSim_SimProfile -->
<g id="node31" class="node">
<title>frc_robot_sim_PhysicsSim_SimProfile</title>
<ellipse fill="none" stroke="black" cx="915.05" cy="-771.05" rx="146.02" ry="30.05"/>
<text text-anchor="middle" x="915.05" y="-775" font-family="Times,serif" font-size="14.00">frc.robot</text>
<text text-anchor="middle" x="915.05" y="-757.75" font-family="Times,serif" font-size="14.00">sim.PhysicsSim.SimProfile</text>
</g>
<!-- frc_robot_sim_TalonFXSimProfile -->
<g id="node32" class="node">
<title>frc_robot_sim_TalonFXSimProfile</title>
<ellipse fill="none" stroke="black" cx="437.46" cy="-966.05" rx="125.87" ry="30.05"/>
<text text-anchor="middle" x="437.46" y="-970" font-family="Times,serif" font-size="14.00">frc.robot</text>
<text text-anchor="middle" x="437.46" y="-952.75" font-family="Times,serif" font-size="14.00">sim.TalonFXSimProfile</text>
</g>
<!-- frc_robot_sim_TalonFXSimProfile&#45;&gt;com_ctre_phoenix6_hardware_CANcoder -->
<g id="edge28" class="edge">
<title>frc_robot_sim_TalonFXSimProfile&#45;&gt;com_ctre_phoenix6_hardware_CANcoder</title>
<path fill="none" stroke="black" d="M554.93,-954.89C603.33,-956.86 656.04,-968.79 690.07,-1005.05 750.84,-1069.81 666.97,-1336.77 726.07,-1403.05 742.71,-1421.71 765.74,-1432.78 789.98,-1439.12"/>
<polygon fill="black" stroke="black" points="789.18,-1442.52 799.71,-1441.36 790.76,-1435.7 789.18,-1442.52"/>
</g>
<!-- frc_robot_sim_TalonFXSimProfile&#45;&gt;com_ctre_phoenix6_hardware_TalonFX -->
<g id="edge29" class="edge">
<title>frc_robot_sim_TalonFXSimProfile&#45;&gt;com_ctre_phoenix6_hardware_TalonFX</title>
<path fill="none" stroke="black" d="M557.57,-956.63C604.54,-959.37 655.44,-971.4 690.07,-1005.05 753.28,-1066.47 682.44,-1123.48 726.07,-1200.05 757.67,-1255.5 815.17,-1301.45 858.29,-1330.47"/>
<polygon fill="black" stroke="black" points="856.27,-1333.33 866.55,-1335.92 860.13,-1327.49 856.27,-1333.33"/>
</g>
<!-- frc_robot_sim_TalonFXSimProfile&#45;&gt;com_ctre_phoenix6_sim_TalonFXSimState -->
<g id="edge30" class="edge">
<title>frc_robot_sim_TalonFXSimProfile&#45;&gt;com_ctre_phoenix6_sim_TalonFXSimState</title>
<path fill="none" stroke="black" d="M560.2,-958.99C605.63,-962.5 654.72,-974.47 690.07,-1005.05 731.23,-1040.64 685.84,-1085.43 726.07,-1122.05 742.63,-1137.12 763.43,-1146.96 785.11,-1153.29"/>
<polygon fill="black" stroke="black" points="784.14,-1156.65 794.7,-1155.82 785.92,-1149.88 784.14,-1156.65"/>
</g>
<!-- frc_robot_sim_TalonFXSimProfile&#45;&gt;edu_wpi_first_math_system_plant_DCMotor -->
<g id="edge31" class="edge">
<title>frc_robot_sim_TalonFXSimProfile&#45;&gt;edu_wpi_first_math_system_plant_DCMotor</title>
<path fill="none" stroke="black" d="M563.03,-968.88C605.31,-974.03 651.55,-984.52 690.07,-1005.05 710.89,-1016.14 705.54,-1032.43 726.07,-1044.05 740.47,-1052.2 756.35,-1058.65 772.59,-1063.76"/>
<polygon fill="black" stroke="black" points="771.28,-1067.02 781.86,-1066.5 773.26,-1060.31 771.28,-1067.02"/>
</g>
<!-- frc_robot_sim_TalonFXSimProfile&#45;&gt;edu_wpi_first_math_system_plant_LinearSystemId -->
<g id="edge32" class="edge">
<title>frc_robot_sim_TalonFXSimProfile&#45;&gt;edu_wpi_first_math_system_plant_LinearSystemId</title>
<path fill="none" stroke="black" d="M556.94,-975.77C610.7,-980.18 675.44,-985.49 734.95,-990.37"/>
<polygon fill="black" stroke="black" points="734.62,-993.85 744.88,-991.18 735.19,-986.87 734.62,-993.85"/>
</g>
<!-- frc_robot_sim_TalonFXSimProfile&#45;&gt;edu_wpi_first_math_util_Units -->
<g id="edge33" class="edge">
<title>frc_robot_sim_TalonFXSimProfile&#45;&gt;edu_wpi_first_math_util_Units</title>
<path fill="none" stroke="black" d="M556.94,-956.34C637.27,-949.75 742.13,-941.15 817.41,-934.98"/>
<polygon fill="black" stroke="black" points="817.58,-938.47 827.26,-934.17 817,-931.5 817.58,-938.47"/>
</g>
<!-- frc_robot_sim_TalonFXSimProfile&#45;&gt;edu_wpi_first_wpilibj_simulation_DCMotorSim -->
<g id="edge34" class="edge">
<title>frc_robot_sim_TalonFXSimProfile&#45;&gt;edu_wpi_first_wpilibj_simulation_DCMotorSim</title>
<path fill="none" stroke="black" d="M563.03,-963.22C605.31,-958.07 651.55,-947.58 690.07,-927.05 710.89,-915.96 705.54,-899.67 726.07,-888.05 738.56,-880.99 752.15,-875.2 766.14,-870.45"/>
<polygon fill="black" stroke="black" points="766.99,-873.85 775.45,-867.48 764.86,-867.18 766.99,-873.85"/>
</g>
<!-- frc_robot_sim_TalonFXSimProfile&#45;&gt;frc_robot_sim_PhysicsSim_SimProfile -->
<g id="edge35" class="edge">
<title>frc_robot_sim_TalonFXSimProfile&#45;&gt;frc_robot_sim_PhysicsSim_SimProfile</title>
<path fill="none" stroke="black" d="M560.2,-973.12C605.63,-969.6 654.72,-957.63 690.07,-927.05 731.23,-891.46 685.84,-846.67 726.07,-810.05 737.89,-799.3 751.87,-791.2 766.79,-785.15"/>
<polygon fill="black" stroke="black" points="767.68,-788.55 775.84,-781.8 765.25,-781.99 767.68,-788.55"/>
</g>
</g>
</svg>
