<?xml version="1.0" encoding="UTF-8" standalone="no"?>
<!DOCTYPE svg PUBLIC "-//W3C//DTD SVG 1.1//EN"
 "http://www.w3.org/Graphics/SVG/1.1/DTD/svg11.dtd">
<!-- Generated by graphviz version 12.2.1 (0)
 -->
<!-- Title: MotionMagic Pages: 1 -->
<svg width="1112pt" height="1588pt"
 viewBox="0.00 0.00 1112.02 1588.10" xmlns="http://www.w3.org/2000/svg" xmlns:xlink="http://www.w3.org/1999/xlink">
<g id="graph0" class="graph" transform="scale(1 1) rotate(0) translate(4 1584.1)">
<title>MotionMagic</title>
<polygon fill="white" stroke="none" points="-4,4 -4,-1584.1 1108.02,-1584.1 1108.02,4 -4,4"/>
<!-- com_ctre_phoenix6_configs_FeedbackConfigs -->
<g id="node1" class="node">
<title>com_ctre_phoenix6_configs_FeedbackConfigs</title>
<ellipse fill="none" stroke="black" cx="437.46" cy="-1472.05" rx="135.41" ry="30.05"/>
<text text-anchor="middle" x="437.46" y="-1476" font-family="Times,serif" font-size="14.00">com.ctre.phoenix6</text>
<text text-anchor="middle" x="437.46" y="-1458.75" font-family="Times,serif" font-size="14.00">configs.FeedbackConfigs</text>
</g>
<!-- com_ctre_phoenix6_configs_MotionMagicConfigs -->
<g id="node2" class="node">
<title>com_ctre_phoenix6_configs_MotionMagicConfigs</title>
<ellipse fill="none" stroke="black" cx="437.46" cy="-1394.05" rx="153.97" ry="30.05"/>
<text text-anchor="middle" x="437.46" y="-1398" font-family="Times,serif" font-size="14.00">com.ctre.phoenix6</text>
<text text-anchor="middle" x="437.46" y="-1380.75" font-family="Times,serif" font-size="14.00">configs.MotionMagicConfigs</text>
</g>
<!-- com_ctre_phoenix6_configs_Slot0Configs -->
<g id="node3" class="node">
<title>com_ctre_phoenix6_configs_Slot0Configs</title>
<ellipse fill="none" stroke="black" cx="437.46" cy="-1316.05" rx="114.2" ry="30.05"/>
<text text-anchor="middle" x="437.46" y="-1320" font-family="Times,serif" font-size="14.00">com.ctre.phoenix6</text>
<text text-anchor="middle" x="437.46" y="-1302.75" font-family="Times,serif" font-size="14.00">configs.Slot0Configs</text>
</g>
<!-- com_ctre_phoenix6_configs_TalonFXConfiguration -->
<g id="node4" class="node">
<title>com_ctre_phoenix6_configs_TalonFXConfiguration</title>
<ellipse fill="none" stroke="black" cx="437.46" cy="-1238.05" rx="159.81" ry="30.05"/>
<text text-anchor="middle" x="437.46" y="-1242" font-family="Times,serif" font-size="14.00">com.ctre.phoenix6</text>
<text text-anchor="middle" x="437.46" y="-1224.75" font-family="Times,serif" font-size="14.00">configs.TalonFXConfiguration</text>
</g>
<!-- com_ctre_phoenix6_controls_MotionMagicVoltage -->
<g id="node5" class="node">
<title>com_ctre_phoenix6_controls_MotionMagicVoltage</title>
<ellipse fill="none" stroke="black" cx="437.46" cy="-1160.05" rx="159.28" ry="30.05"/>
<text text-anchor="middle" x="437.46" y="-1164" font-family="Times,serif" font-size="14.00">com.ctre.phoenix6</text>
<text text-anchor="middle" x="437.46" y="-1146.75" font-family="Times,serif" font-size="14.00">controls.MotionMagicVoltage</text>
</g>
<!-- com_ctre_phoenix6_hardware_TalonFX -->
<g id="node6" class="node">
<title>com_ctre_phoenix6_hardware_TalonFX</title>
<ellipse fill="none" stroke="black" cx="915.05" cy="-1082.05" rx="104.65" ry="30.05"/>
<text text-anchor="middle" x="915.05" y="-1086" font-family="Times,serif" font-size="14.00">com.ctre.phoenix6</text>
<text text-anchor="middle" x="915.05" y="-1068.75" font-family="Times,serif" font-size="14.00">hardware.TalonFX</text>
</g>
<!-- com_ctre_phoenix6_sim_TalonFXSimState -->
<g id="node7" class="node">
<title>com_ctre_phoenix6_sim_TalonFXSimState</title>
<ellipse fill="none" stroke="black" cx="915.05" cy="-770.05" rx="120.03" ry="30.05"/>
<text text-anchor="middle" x="915.05" y="-774" font-family="Times,serif" font-size="14.00">com.ctre.phoenix6</text>
<text text-anchor="middle" x="915.05" y="-756.75" font-family="Times,serif" font-size="14.00">sim.TalonFXSimState</text>
</g>
<!-- com_ctre_phoenix6_StatusCode -->
<g id="node8" class="node">
<title>com_ctre_phoenix6_StatusCode</title>
<ellipse fill="none" stroke="black" cx="437.46" cy="-888.05" rx="104.65" ry="30.05"/>
<text text-anchor="middle" x="437.46" y="-892" font-family="Times,serif" font-size="14.00">com.ctre.phoenix6</text>
<text text-anchor="middle" x="437.46" y="-874.75" font-family="Times,serif" font-size="14.00">StatusCode</text>
</g>
<!-- com_ctre_phoenix6_StatusSignal -->
<g id="node9" class="node">
<title>com_ctre_phoenix6_StatusSignal</title>
<ellipse fill="none" stroke="black" cx="437.46" cy="-264.05" rx="104.65" ry="30.05"/>
<text text-anchor="middle" x="437.46" y="-268" font-family="Times,serif" font-size="14.00">com.ctre.phoenix6</text>
<text text-anchor="middle" x="437.46" y="-250.75" font-family="Times,serif" font-size="14.00">StatusSignal</text>
</g>
<!-- com_ctre_phoenix6_Utils -->
<g id="node10" class="node">
<title>com_ctre_phoenix6_Utils</title>
<ellipse fill="none" stroke="black" cx="915.05" cy="-1238.05" rx="104.65" ry="30.05"/>
<text text-anchor="middle" x="915.05" y="-1242" font-family="Times,serif" font-size="14.00">com.ctre.phoenix6</text>
<text text-anchor="middle" x="915.05" y="-1224.75" font-family="Times,serif" font-size="14.00">Utils</text>
</g>
<!-- edu_wpi_first_math_system_plant_DCMotor -->
<g id="node11" class="node">
<title>edu_wpi_first_math_system_plant_DCMotor</title>
<ellipse fill="none" stroke="black" cx="915.05" cy="-692.05" rx="155.03" ry="30.05"/>
<text text-anchor="middle" x="915.05" y="-696" font-family="Times,serif" font-size="14.00">edu.wpi.first</text>
<text text-anchor="middle" x="915.05" y="-678.75" font-family="Times,serif" font-size="14.00">math.system.plant.DCMotor</text>
</g>
<!-- edu_wpi_first_math_system_plant_LinearSystemId -->
<g id="node12" class="node">
<title>edu_wpi_first_math_system_plant_LinearSystemId</title>
<ellipse fill="none" stroke="black" cx="915.05" cy="-614.05" rx="188.97" ry="30.05"/>
<text text-anchor="middle" x="915.05" y="-618" font-family="Times,serif" font-size="14.00">edu.wpi.first</text>
<text text-anchor="middle" x="915.05" y="-600.75" font-family="Times,serif" font-size="14.00">math.system.plant.LinearSystemId</text>
</g>
<!-- edu_wpi_first_math_util_Units -->
<g id="node13" class="node">
<title>edu_wpi_first_math_util_Units</title>
<ellipse fill="none" stroke="black" cx="915.05" cy="-1004.05" rx="88.21" ry="30.05"/>
<text text-anchor="middle" x="915.05" y="-1008" font-family="Times,serif" font-size="14.00">edu.wpi.first</text>
<text text-anchor="middle" x="915.05" y="-990.75" font-family="Times,serif" font-size="14.00">math.util.Units</text>
</g>
<!-- edu_wpi_first_units_measure_Angle -->
<g id="node14" class="node">
<title>edu_wpi_first_units_measure_Angle</title>
<ellipse fill="none" stroke="black" cx="437.46" cy="-186.05" rx="115.26" ry="30.05"/>
<text text-anchor="middle" x="437.46" y="-190" font-family="Times,serif" font-size="14.00">edu.wpi.first</text>
<text text-anchor="middle" x="437.46" y="-172.75" font-family="Times,serif" font-size="14.00">units.measure.Angle</text>
</g>
<!-- edu_wpi_first_units_measure_AngularVelocity -->
<g id="node15" class="node">
<title>edu_wpi_first_units_measure_AngularVelocity</title>
<ellipse fill="none" stroke="black" cx="437.46" cy="-108.05" rx="166.17" ry="30.05"/>
<text text-anchor="middle" x="437.46" y="-112" font-family="Times,serif" font-size="14.00">edu.wpi.first</text>
<text text-anchor="middle" x="437.46" y="-94.75" font-family="Times,serif" font-size="14.00">units.measure.AngularVelocity</text>
</g>
<!-- edu_wpi_first_units_Units -->
<g id="node16" class="node">
<title>edu_wpi_first_units_Units</title>
<ellipse fill="none" stroke="black" cx="437.46" cy="-654.05" rx="74.95" ry="30.05"/>
<text text-anchor="middle" x="437.46" y="-658" font-family="Times,serif" font-size="14.00">edu.wpi.first</text>
<text text-anchor="middle" x="437.46" y="-640.75" font-family="Times,serif" font-size="14.00">units.Units</text>
</g>
<!-- edu_wpi_first_wpilibj_RobotBase -->
<g id="node17" class="node">
<title>edu_wpi_first_wpilibj_RobotBase</title>
<ellipse fill="none" stroke="black" cx="437.46" cy="-1550.05" rx="102.53" ry="30.05"/>
<text text-anchor="middle" x="437.46" y="-1554" font-family="Times,serif" font-size="14.00">edu.wpi.first</text>
<text text-anchor="middle" x="437.46" y="-1536.75" font-family="Times,serif" font-size="14.00">wpilibj.RobotBase</text>
</g>
<!-- edu_wpi_first_wpilibj_simulation_DCMotorSim -->
<g id="node18" class="node">
<title>edu_wpi_first_wpilibj_simulation_DCMotorSim</title>
<ellipse fill="none" stroke="black" cx="915.05" cy="-926.05" rx="170.41" ry="30.05"/>
<text text-anchor="middle" x="915.05" y="-930" font-family="Times,serif" font-size="14.00">edu.wpi.first</text>
<text text-anchor="middle" x="915.05" y="-912.75" font-family="Times,serif" font-size="14.00">wpilibj.simulation.DCMotorSim</text>
</g>
<!-- edu_wpi_first_wpilibj_smartdashboard_Mechanism2d -->
<g id="node19" class="node">
<title>edu_wpi_first_wpilibj_smartdashboard_Mechanism2d</title>
<ellipse fill="none" stroke="black" cx="437.46" cy="-30.05" rx="204.88" ry="30.05"/>
<text text-anchor="middle" x="437.46" y="-34" font-family="Times,serif" font-size="14.00">edu.wpi.first</text>
<text text-anchor="middle" x="437.46" y="-16.75" font-family="Times,serif" font-size="14.00">wpilibj.smartdashboard.Mechanism2d</text>
</g>
<!-- edu_wpi_first_wpilibj_smartdashboard_MechanismLigament2d -->
<g id="node20" class="node">
<title>edu_wpi_first_wpilibj_smartdashboard_MechanismLigament2d</title>
<ellipse fill="none" stroke="black" cx="437.46" cy="-576.05" rx="252.61" ry="30.05"/>
<text text-anchor="middle" x="437.46" y="-580" font-family="Times,serif" font-size="14.00">edu.wpi.first</text>
<text text-anchor="middle" x="437.46" y="-562.75" font-family="Times,serif" font-size="14.00">wpilibj.smartdashboard.MechanismLigament2d</text>
</g>
<!-- edu_wpi_first_wpilibj_smartdashboard_SmartDashboard -->
<g id="node21" class="node">
<title>edu_wpi_first_wpilibj_smartdashboard_SmartDashboard</title>
<ellipse fill="none" stroke="black" cx="437.46" cy="-498.05" rx="220.26" ry="30.05"/>
<text text-anchor="middle" x="437.46" y="-502" font-family="Times,serif" font-size="14.00">edu.wpi.first</text>
<text text-anchor="middle" x="437.46" y="-484.75" font-family="Times,serif" font-size="14.00">wpilibj.smartdashboard.SmartDashboard</text>
</g>
<!-- edu_wpi_first_wpilibj_TimedRobot -->
<g id="node22" class="node">
<title>edu_wpi_first_wpilibj_TimedRobot</title>
<ellipse fill="none" stroke="black" cx="437.46" cy="-810.05" rx="109.42" ry="30.05"/>
<text text-anchor="middle" x="437.46" y="-814" font-family="Times,serif" font-size="14.00">edu.wpi.first</text>
<text text-anchor="middle" x="437.46" y="-796.75" font-family="Times,serif" font-size="14.00">wpilibj.TimedRobot</text>
</g>
<!-- edu_wpi_first_wpilibj_util_Color -->
<g id="node23" class="node">
<title>edu_wpi_first_wpilibj_util_Color</title>
<ellipse fill="none" stroke="black" cx="437.46" cy="-420.05" rx="95.64" ry="30.05"/>
<text text-anchor="middle" x="437.46" y="-424" font-family="Times,serif" font-size="14.00">edu.wpi.first</text>
<text text-anchor="middle" x="437.46" y="-406.75" font-family="Times,serif" font-size="14.00">wpilibj.util.Color</text>
</g>
<!-- edu_wpi_first_wpilibj_util_Color8Bit -->
<g id="node24" class="node">
<title>edu_wpi_first_wpilibj_util_Color8Bit</title>
<ellipse fill="none" stroke="black" cx="437.46" cy="-342.05" rx="116.85" ry="30.05"/>
<text text-anchor="middle" x="437.46" y="-346" font-family="Times,serif" font-size="14.00">edu.wpi.first</text>
<text text-anchor="middle" x="437.46" y="-328.75" font-family="Times,serif" font-size="14.00">wpilibj.util.Color8Bit</text>
</g>
<!-- edu_wpi_first_wpilibj_XboxController -->
<g id="node25" class="node">
<title>edu_wpi_first_wpilibj_XboxController</title>
<ellipse fill="none" stroke="black" cx="437.46" cy="-732.05" rx="124.8" ry="30.05"/>
<text text-anchor="middle" x="437.46" y="-736" font-family="Times,serif" font-size="14.00">edu.wpi.first</text>
<text text-anchor="middle" x="437.46" y="-718.75" font-family="Times,serif" font-size="14.00">wpilibj.XboxController</text>
</g>
<!-- frc_robot_Main -->
<g id="node26" class="node">
<title>frc_robot_Main</title>
<ellipse fill="none" stroke="black" cx="74.42" cy="-1550.05" rx="55.33" ry="30.05"/>
<text text-anchor="middle" x="74.42" y="-1554" font-family="Times,serif" font-size="14.00">frc.robot</text>
<text text-anchor="middle" x="74.42" y="-1536.75" font-family="Times,serif" font-size="14.00">Main</text>
</g>
<!-- frc_robot_Main&#45;&gt;edu_wpi_first_wpilibj_RobotBase -->
<g id="edge31" class="edge">
<title>frc_robot_Main&#45;&gt;edu_wpi_first_wpilibj_RobotBase</title>
<path fill="none" stroke="black" d="M129.86,-1550.05C180.88,-1550.05 258.71,-1550.05 323.19,-1550.05"/>
<polygon fill="black" stroke="black" points="323.14,-1553.55 333.14,-1550.05 323.14,-1546.55 323.14,-1553.55"/>
</g>
<!-- frc_robot_Mechanisms -->
<g id="node27" class="node">
<title>frc_robot_Mechanisms</title>
<ellipse fill="none" stroke="black" cx="74.42" cy="-342.05" rx="74.42" ry="30.05"/>
<text text-anchor="middle" x="74.42" y="-346" font-family="Times,serif" font-size="14.00">frc.robot</text>
<text text-anchor="middle" x="74.42" y="-328.75" font-family="Times,serif" font-size="14.00">Mechanisms</text>
</g>
<!-- frc_robot_Mechanisms&#45;&gt;com_ctre_phoenix6_StatusSignal -->
<g id="edge13" class="edge">
<title>frc_robot_Mechanisms&#45;&gt;com_ctre_phoenix6_StatusSignal</title>
<path fill="none" stroke="black" d="M128.23,-320.96C146,-314.48 166.08,-307.81 184.85,-303.05 231.16,-291.32 283.22,-282.54 327.92,-276.32"/>
<polygon fill="black" stroke="black" points="328.18,-279.81 337.62,-274.99 327.24,-272.88 328.18,-279.81"/>
</g>
<!-- frc_robot_Mechanisms&#45;&gt;edu_wpi_first_units_measure_Angle -->
<g id="edge14" class="edge">
<title>frc_robot_Mechanisms&#45;&gt;edu_wpi_first_units_measure_Angle</title>
<path fill="none" stroke="black" d="M94.17,-312.77C113.42,-285.34 146,-245.59 184.85,-225.05 223.06,-204.85 268.79,-194.39 310.72,-189.18"/>
<polygon fill="black" stroke="black" points="311.11,-192.66 320.65,-188.05 310.31,-185.7 311.11,-192.66"/>
</g>
<!-- frc_robot_Mechanisms&#45;&gt;edu_wpi_first_units_measure_AngularVelocity -->
<g id="edge15" class="edge">
<title>frc_robot_Mechanisms&#45;&gt;edu_wpi_first_units_measure_AngularVelocity</title>
<path fill="none" stroke="black" d="M83.23,-311.96C96.32,-268 127.12,-187.11 184.85,-147.05 207.53,-131.31 234.12,-120.93 261.37,-114.23"/>
<polygon fill="black" stroke="black" points="261.79,-117.72 270.77,-112.09 260.24,-110.9 261.79,-117.72"/>
</g>
<!-- frc_robot_Mechanisms&#45;&gt;edu_wpi_first_units_Units -->
<g id="edge12" class="edge">
<title>frc_robot_Mechanisms&#45;&gt;edu_wpi_first_units_Units</title>
<path fill="none" stroke="black" d="M78.03,-372.37C84.68,-429.7 107.7,-553.73 184.85,-615.05 231.67,-652.28 299.3,-661.05 352.65,-661.04"/>
<polygon fill="black" stroke="black" points="352.68,-664.54 362.64,-660.92 352.6,-657.54 352.68,-664.54"/>
</g>
<!-- frc_robot_Mechanisms&#45;&gt;edu_wpi_first_wpilibj_smartdashboard_Mechanism2d -->
<g id="edge16" class="edge">
<title>frc_robot_Mechanisms&#45;&gt;edu_wpi_first_wpilibj_smartdashboard_Mechanism2d</title>
<path fill="none" stroke="black" d="M78.03,-311.73C84.68,-254.4 107.7,-130.38 184.85,-69.05 198.74,-58 214.47,-49.46 231.12,-42.91"/>
<polygon fill="black" stroke="black" points="231.98,-46.32 240.17,-39.61 229.58,-39.75 231.98,-46.32"/>
</g>
<!-- frc_robot_Mechanisms&#45;&gt;edu_wpi_first_wpilibj_smartdashboard_MechanismLigament2d -->
<g id="edge17" class="edge">
<title>frc_robot_Mechanisms&#45;&gt;edu_wpi_first_wpilibj_smartdashboard_MechanismLigament2d</title>
<path fill="none" stroke="black" d="M83.23,-372.14C96.32,-416.1 127.12,-497 184.85,-537.05 194.79,-543.95 205.48,-549.82 216.65,-554.8"/>
<polygon fill="black" stroke="black" points="215.05,-557.93 225.63,-558.54 217.75,-551.47 215.05,-557.93"/>
</g>
<!-- frc_robot_Mechanisms&#45;&gt;edu_wpi_first_wpilibj_smartdashboard_SmartDashboard -->
<g id="edge18" class="edge">
<title>frc_robot_Mechanisms&#45;&gt;edu_wpi_first_wpilibj_smartdashboard_SmartDashboard</title>
<path fill="none" stroke="black" d="M94.17,-371.33C113.42,-398.76 146,-438.51 184.85,-459.05 200.86,-467.52 218.19,-474.27 236.02,-479.65"/>
<polygon fill="black" stroke="black" points="234.83,-482.95 245.41,-482.32 236.75,-476.22 234.83,-482.95"/>
</g>
<!-- frc_robot_Mechanisms&#45;&gt;edu_wpi_first_wpilibj_util_Color -->
<g id="edge19" class="edge">
<title>frc_robot_Mechanisms&#45;&gt;edu_wpi_first_wpilibj_util_Color</title>
<path fill="none" stroke="black" d="M128.23,-363.14C146,-369.63 166.08,-376.3 184.85,-381.05 233.74,-393.44 289.03,-402.53 335.3,-408.8"/>
<polygon fill="black" stroke="black" points="334.68,-412.25 345.05,-410.1 335.6,-405.31 334.68,-412.25"/>
</g>
<!-- frc_robot_Mechanisms&#45;&gt;edu_wpi_first_wpilibj_util_Color8Bit -->
<g id="edge20" class="edge">
<title>frc_robot_Mechanisms&#45;&gt;edu_wpi_first_wpilibj_util_Color8Bit</title>
<path fill="none" stroke="black" d="M148.92,-342.05C194.92,-342.05 255.44,-342.05 309.08,-342.05"/>
<polygon fill="black" stroke="black" points="308.9,-345.55 318.9,-342.05 308.9,-338.55 308.9,-345.55"/>
</g>
<!-- frc_robot_Robot -->
<g id="node28" class="node">
<title>frc_robot_Robot</title>
<ellipse fill="none" stroke="black" cx="74.42" cy="-1082.05" rx="55.33" ry="30.05"/>
<text text-anchor="middle" x="74.42" y="-1086" font-family="Times,serif" font-size="14.00">frc.robot</text>
<text text-anchor="middle" x="74.42" y="-1068.75" font-family="Times,serif" font-size="14.00">Robot</text>
</g>
<!-- frc_robot_Robot&#45;&gt;com_ctre_phoenix6_configs_FeedbackConfigs -->
<g id="edge3" class="edge">
<title>frc_robot_Robot&#45;&gt;com_ctre_phoenix6_configs_FeedbackConfigs</title>
<path fill="none" stroke="black" d="M74.95,-1112.35C75.66,-1181.11 87.77,-1349.41 184.85,-1433.05 214.77,-1458.83 254.45,-1471.37 293.44,-1476.76"/>
<polygon fill="black" stroke="black" points="292.56,-1480.18 302.91,-1477.92 293.41,-1473.23 292.56,-1480.18"/>
</g>
<!-- frc_robot_Robot&#45;&gt;com_ctre_phoenix6_configs_MotionMagicConfigs -->
<g id="edge4" class="edge">
<title>frc_robot_Robot&#45;&gt;com_ctre_phoenix6_configs_MotionMagicConfigs</title>
<path fill="none" stroke="black" d="M78.03,-1112.37C84.68,-1169.7 107.7,-1293.73 184.85,-1355.05 209.84,-1374.92 240.76,-1386.68 272.28,-1393.33"/>
<polygon fill="black" stroke="black" points="271.47,-1396.74 281.95,-1395.19 272.79,-1389.87 271.47,-1396.74"/>
</g>
<!-- frc_robot_Robot&#45;&gt;com_ctre_phoenix6_configs_Slot0Configs -->
<g id="edge5" class="edge">
<title>frc_robot_Robot&#45;&gt;com_ctre_phoenix6_configs_Slot0Configs</title>
<path fill="none" stroke="black" d="M83.23,-1112.14C96.32,-1156.1 127.12,-1237 184.85,-1277.05 221.68,-1302.61 268.82,-1314.04 312.32,-1318.52"/>
<polygon fill="black" stroke="black" points="311.81,-1321.99 322.08,-1319.4 312.44,-1315.02 311.81,-1321.99"/>
</g>
<!-- frc_robot_Robot&#45;&gt;com_ctre_phoenix6_configs_TalonFXConfiguration -->
<g id="edge6" class="edge">
<title>frc_robot_Robot&#45;&gt;com_ctre_phoenix6_configs_TalonFXConfiguration</title>
<path fill="none" stroke="black" d="M93.63,-1110.56C112.8,-1138 145.63,-1178.32 184.85,-1199.05 211.3,-1213.04 241.35,-1222.35 271.25,-1228.49"/>
<polygon fill="black" stroke="black" points="270.29,-1231.87 280.77,-1230.32 271.61,-1225 270.29,-1231.87"/>
</g>
<!-- frc_robot_Robot&#45;&gt;com_ctre_phoenix6_controls_MotionMagicVoltage -->
<g id="edge7" class="edge">
<title>frc_robot_Robot&#45;&gt;com_ctre_phoenix6_controls_MotionMagicVoltage</title>
<path fill="none" stroke="black" d="M119.56,-1099.92C139.27,-1107.35 162.95,-1115.51 184.85,-1121.05 218.78,-1129.65 255.79,-1136.66 290.73,-1142.24"/>
<polygon fill="black" stroke="black" points="290.08,-1145.68 300.5,-1143.77 291.16,-1138.76 290.08,-1145.68"/>
</g>
<!-- frc_robot_Robot&#45;&gt;com_ctre_phoenix6_hardware_TalonFX -->
<g id="edge8" class="edge">
<title>frc_robot_Robot&#45;&gt;com_ctre_phoenix6_hardware_TalonFX</title>
<path fill="none" stroke="black" d="M117.9,-1063.08C137.8,-1055.2 162.09,-1046.99 184.85,-1043.05 406.11,-1004.8 466.36,-1023.72 690.07,-1043.05 732.76,-1046.74 779.51,-1054.31 819.2,-1061.81"/>
<polygon fill="black" stroke="black" points="818.51,-1065.24 828.99,-1063.69 819.83,-1058.37 818.51,-1065.24"/>
</g>
<!-- frc_robot_Robot&#45;&gt;com_ctre_phoenix6_StatusCode -->
<g id="edge2" class="edge">
<title>frc_robot_Robot&#45;&gt;com_ctre_phoenix6_StatusCode</title>
<path fill="none" stroke="black" d="M87.48,-1052.58C103.85,-1016.61 136.69,-956.9 184.85,-927.05 225.2,-902.04 275.98,-891.15 321.33,-886.93"/>
<polygon fill="black" stroke="black" points="321.55,-890.43 331.23,-886.13 320.98,-883.45 321.55,-890.43"/>
</g>
<!-- frc_robot_Robot&#45;&gt;edu_wpi_first_units_Units -->
<g id="edge1" class="edge">
<title>frc_robot_Robot&#45;&gt;edu_wpi_first_units_Units</title>
<path fill="none" stroke="black" d="M79.67,-1051.86C91.95,-969.09 130.11,-741.56 184.85,-693.05 230.25,-652.81 299.28,-644.51 353.56,-645.47"/>
<polygon fill="black" stroke="black" points="353.3,-648.96 363.39,-645.76 353.5,-641.96 353.3,-648.96"/>
</g>
<!-- frc_robot_Robot&#45;&gt;edu_wpi_first_wpilibj_TimedRobot -->
<g id="edge9" class="edge">
<title>frc_robot_Robot&#45;&gt;edu_wpi_first_wpilibj_TimedRobot</title>
<path fill="none" stroke="black" d="M80.33,-1051.72C90.25,-1000.92 117.77,-899.28 184.85,-849.05 222.52,-820.84 272.38,-809.35 317.78,-805.55"/>
<polygon fill="black" stroke="black" points="317.97,-809.05 327.7,-804.85 317.48,-802.06 317.97,-809.05"/>
</g>
<!-- frc_robot_Robot&#45;&gt;edu_wpi_first_wpilibj_XboxController -->
<g id="edge10" class="edge">
<title>frc_robot_Robot&#45;&gt;edu_wpi_first_wpilibj_XboxController</title>
<path fill="none" stroke="black" d="M76.36,-1051.59C80.07,-988.43 98.11,-843.1 184.85,-771.05 217.78,-743.7 261.8,-731.46 303.81,-726.81"/>
<polygon fill="black" stroke="black" points="303.89,-730.32 313.51,-725.89 303.23,-723.35 303.89,-730.32"/>
</g>
<!-- frc_robot_sim_PhysicsSim -->
<g id="node29" class="node">
<title>frc_robot_sim_PhysicsSim</title>
<ellipse fill="none" stroke="black" cx="437.46" cy="-1082.05" rx="90.33" ry="30.05"/>
<text text-anchor="middle" x="437.46" y="-1086" font-family="Times,serif" font-size="14.00">frc.robot</text>
<text text-anchor="middle" x="437.46" y="-1068.75" font-family="Times,serif" font-size="14.00">sim.PhysicsSim</text>
</g>
<!-- frc_robot_Robot&#45;&gt;frc_robot_sim_PhysicsSim -->
<g id="edge11" class="edge">
<title>frc_robot_Robot&#45;&gt;frc_robot_sim_PhysicsSim</title>
<path fill="none" stroke="black" d="M129.86,-1082.05C184.15,-1082.05 268.81,-1082.05 335.42,-1082.05"/>
<polygon fill="black" stroke="black" points="335.28,-1085.55 345.28,-1082.05 335.28,-1078.55 335.28,-1085.55"/>
</g>
<!-- frc_robot_sim_PhysicsSim&#45;&gt;com_ctre_phoenix6_hardware_TalonFX -->
<g id="edge23" class="edge">
<title>frc_robot_sim_PhysicsSim&#45;&gt;com_ctre_phoenix6_hardware_TalonFX</title>
<path fill="none" stroke="black" d="M528.19,-1082.05C604.89,-1082.05 715.7,-1082.05 798.92,-1082.05"/>
<polygon fill="black" stroke="black" points="798.7,-1085.55 808.7,-1082.05 798.7,-1078.55 798.7,-1085.55"/>
</g>
<!-- frc_robot_sim_PhysicsSim&#45;&gt;com_ctre_phoenix6_Utils -->
<g id="edge22" class="edge">
<title>frc_robot_sim_PhysicsSim&#45;&gt;com_ctre_phoenix6_Utils</title>
<path fill="none" stroke="black" d="M526.18,-1075.92C578.54,-1076.72 643.66,-1086.05 690.07,-1121.05 720.56,-1144.04 696.18,-1175.3 726.07,-1199.05 747.08,-1215.74 773.46,-1225.8 799.76,-1231.73"/>
<polygon fill="black" stroke="black" points="799.03,-1235.15 809.53,-1233.73 800.43,-1228.3 799.03,-1235.15"/>
</g>
<!-- java_util_ArrayList -->
<g id="node32" class="node">
<title>java_util_ArrayList</title>
<ellipse fill="none" stroke="black" cx="915.05" cy="-1160.05" rx="58.51" ry="30.05"/>
<text text-anchor="middle" x="915.05" y="-1164" font-family="Times,serif" font-size="14.00">java.util</text>
<text text-anchor="middle" x="915.05" y="-1146.75" font-family="Times,serif" font-size="14.00">ArrayList</text>
</g>
<!-- frc_robot_sim_PhysicsSim&#45;&gt;java_util_ArrayList -->
<g id="edge21" class="edge">
<title>frc_robot_sim_PhysicsSim&#45;&gt;java_util_ArrayList</title>
<path fill="none" stroke="black" d="M520.39,-1094.36C569.62,-1101.85 633.48,-1111.74 690.07,-1121.05 743.28,-1129.81 803.48,-1140.32 848.06,-1148.23"/>
<polygon fill="black" stroke="black" points="847.38,-1151.66 857.84,-1149.97 848.6,-1144.77 847.38,-1151.66"/>
</g>
<!-- frc_robot_sim_PhysicsSim_SimProfile -->
<g id="node30" class="node">
<title>frc_robot_sim_PhysicsSim_SimProfile</title>
<ellipse fill="none" stroke="black" cx="915.05" cy="-848.05" rx="146.02" ry="30.05"/>
<text text-anchor="middle" x="915.05" y="-852" font-family="Times,serif" font-size="14.00">frc.robot</text>
<text text-anchor="middle" x="915.05" y="-834.75" font-family="Times,serif" font-size="14.00">sim.PhysicsSim.SimProfile</text>
</g>
<!-- frc_robot_sim_TalonFXSimProfile -->
<g id="node31" class="node">
<title>frc_robot_sim_TalonFXSimProfile</title>
<ellipse fill="none" stroke="black" cx="437.46" cy="-966.05" rx="125.87" ry="30.05"/>
<text text-anchor="middle" x="437.46" y="-970" font-family="Times,serif" font-size="14.00">frc.robot</text>
<text text-anchor="middle" x="437.46" y="-952.75" font-family="Times,serif" font-size="14.00">sim.TalonFXSimProfile</text>
</g>
<!-- frc_robot_sim_TalonFXSimProfile&#45;&gt;com_ctre_phoenix6_hardware_TalonFX -->
<g id="edge24" class="edge">
<title>frc_robot_sim_TalonFXSimProfile&#45;&gt;com_ctre_phoenix6_hardware_TalonFX</title>
<path fill="none" stroke="black" d="M559.93,-973.24C602.72,-979.35 650.09,-990.36 690.07,-1010.05 709.55,-1019.64 706.75,-1033.16 726.07,-1043.05 750.32,-1055.47 778.25,-1063.93 805.03,-1069.7"/>
<polygon fill="black" stroke="black" points="804.05,-1073.07 814.54,-1071.63 805.44,-1066.21 804.05,-1073.07"/>
</g>
<!-- frc_robot_sim_TalonFXSimProfile&#45;&gt;com_ctre_phoenix6_sim_TalonFXSimState -->
<g id="edge25" class="edge">
<title>frc_robot_sim_TalonFXSimProfile&#45;&gt;com_ctre_phoenix6_sim_TalonFXSimState</title>
<path fill="none" stroke="black" d="M560.24,-973.16C605.68,-969.65 654.75,-957.67 690.07,-927.05 731.5,-891.14 685.57,-846.01 726.07,-809.05 742.61,-793.97 763.4,-784.11 785.08,-777.78"/>
<polygon fill="black" stroke="black" points="785.89,-781.19 794.67,-775.25 784.11,-774.42 785.89,-781.19"/>
</g>
<!-- frc_robot_sim_TalonFXSimProfile&#45;&gt;edu_wpi_first_math_system_plant_DCMotor -->
<g id="edge26" class="edge">
<title>frc_robot_sim_TalonFXSimProfile&#45;&gt;edu_wpi_first_math_system_plant_DCMotor</title>
<path fill="none" stroke="black" d="M557.58,-975.49C604.56,-972.76 655.45,-960.72 690.07,-927.05 753.57,-865.3 664.17,-794.39 726.07,-731.05 735.82,-721.08 747.39,-713.33 759.94,-707.34"/>
<polygon fill="black" stroke="black" points="761.02,-710.68 768.81,-703.5 758.24,-704.26 761.02,-710.68"/>
</g>
<!-- frc_robot_sim_TalonFXSimProfile&#45;&gt;edu_wpi_first_math_system_plant_LinearSystemId -->
<g id="edge27" class="edge">
<title>frc_robot_sim_TalonFXSimProfile&#45;&gt;edu_wpi_first_math_system_plant_LinearSystemId</title>
<path fill="none" stroke="black" d="M556.18,-976.47C603.92,-974.14 655.78,-962.15 690.07,-927.05 775.91,-839.2 642.49,-743.05 726.07,-653.05 732.13,-646.53 738.98,-640.94 746.37,-636.16"/>
<polygon fill="black" stroke="black" points="747.83,-639.36 754.71,-631.3 744.31,-633.31 747.83,-639.36"/>
</g>
<!-- frc_robot_sim_TalonFXSimProfile&#45;&gt;edu_wpi_first_math_util_Units -->
<g id="edge28" class="edge">
<title>frc_robot_sim_TalonFXSimProfile&#45;&gt;edu_wpi_first_math_util_Units</title>
<path fill="none" stroke="black" d="M557.24,-975.54C637.58,-981.96 742.34,-990.33 817.54,-996.34"/>
<polygon fill="black" stroke="black" points="817.12,-999.82 827.37,-997.13 817.68,-992.84 817.12,-999.82"/>
</g>
<!-- frc_robot_sim_TalonFXSimProfile&#45;&gt;edu_wpi_first_wpilibj_simulation_DCMotorSim -->
<g id="edge29" class="edge">
<title>frc_robot_sim_TalonFXSimProfile&#45;&gt;edu_wpi_first_wpilibj_simulation_DCMotorSim</title>
<path fill="none" stroke="black" d="M556.63,-956.11C614.76,-951.22 685.79,-945.25 749.17,-939.92"/>
<polygon fill="black" stroke="black" points="749.32,-943.42 758.99,-939.09 748.73,-936.44 749.32,-943.42"/>
</g>
<!-- frc_robot_sim_TalonFXSimProfile&#45;&gt;frc_robot_sim_PhysicsSim_SimProfile -->
<g id="edge30" class="edge">
<title>frc_robot_sim_TalonFXSimProfile&#45;&gt;frc_robot_sim_PhysicsSim_SimProfile</title>
<path fill="none" stroke="black" d="M563.18,-963.49C605.47,-958.37 651.68,-947.82 690.07,-927.05 711.11,-915.67 705.33,-898.96 726.07,-887.05 741.51,-878.19 758.69,-871.32 776.21,-866.01"/>
<polygon fill="black" stroke="black" points="777.04,-869.42 785.7,-863.31 775.12,-862.68 777.04,-869.42"/>
</g>
</g>
</svg>
