<?xml version="1.0" encoding="UTF-8" standalone="no"?>
<!DOCTYPE svg PUBLIC "-//W3C//DTD SVG 1.1//EN"
 "http://www.w3.org/Graphics/SVG/1.1/DTD/svg11.dtd">
<!-- Generated by graphviz version 12.2.1 (0)
 -->
<!-- Title: PhoenixSysId Pages: 1 -->
<svg width="1220pt" height="1082pt"
 viewBox="0.00 0.00 1220.21 1082.10" xmlns="http://www.w3.org/2000/svg" xmlns:xlink="http://www.w3.org/1999/xlink">
<g id="graph0" class="graph" transform="scale(1 1) rotate(0) translate(4 1078.1)">
<title>PhoenixSysId</title>
<polygon fill="white" stroke="none" points="-4,4 -4,-1078.1 1216.21,-1078.1 1216.21,4 -4,4"/>
<!-- com_ctre_phoenix6_BaseStatusSignal -->
<g id="node1" class="node">
<title>com_ctre_phoenix6_BaseStatusSignal</title>
<ellipse fill="none" stroke="black" cx="1003.61" cy="-654.05" rx="104.65" ry="30.05"/>
<text text-anchor="middle" x="1003.61" y="-658" font-family="Times,serif" font-size="14.00">com.ctre.phoenix6</text>
<text text-anchor="middle" x="1003.61" y="-640.75" font-family="Times,serif" font-size="14.00">BaseStatusSignal</text>
</g>
<!-- com_ctre_phoenix6_configs_TalonFXConfiguration -->
<g id="node2" class="node">
<title>com_ctre_phoenix6_configs_TalonFXConfiguration</title>
<ellipse fill="none" stroke="black" cx="1003.61" cy="-576.05" rx="159.81" ry="30.05"/>
<text text-anchor="middle" x="1003.61" y="-580" font-family="Times,serif" font-size="14.00">com.ctre.phoenix6</text>
<text text-anchor="middle" x="1003.61" y="-562.75" font-family="Times,serif" font-size="14.00">configs.TalonFXConfiguration</text>
</g>
<!-- com_ctre_phoenix6_controls_DutyCycleOut -->
<g id="node3" class="node">
<title>com_ctre_phoenix6_controls_DutyCycleOut</title>
<ellipse fill="none" stroke="black" cx="1003.61" cy="-498.05" rx="125.87" ry="30.05"/>
<text text-anchor="middle" x="1003.61" y="-502" font-family="Times,serif" font-size="14.00">com.ctre.phoenix6</text>
<text text-anchor="middle" x="1003.61" y="-484.75" font-family="Times,serif" font-size="14.00">controls.DutyCycleOut</text>
</g>
<!-- com_ctre_phoenix6_controls_VoltageOut -->
<g id="node4" class="node">
<title>com_ctre_phoenix6_controls_VoltageOut</title>
<ellipse fill="none" stroke="black" cx="1003.61" cy="-420.05" rx="111.55" ry="30.05"/>
<text text-anchor="middle" x="1003.61" y="-424" font-family="Times,serif" font-size="14.00">com.ctre.phoenix6</text>
<text text-anchor="middle" x="1003.61" y="-406.75" font-family="Times,serif" font-size="14.00">controls.VoltageOut</text>
</g>
<!-- com_ctre_phoenix6_hardware_TalonFX -->
<g id="node5" class="node">
<title>com_ctre_phoenix6_hardware_TalonFX</title>
<ellipse fill="none" stroke="black" cx="1003.61" cy="-342.05" rx="104.65" ry="30.05"/>
<text text-anchor="middle" x="1003.61" y="-346" font-family="Times,serif" font-size="14.00">com.ctre.phoenix6</text>
<text text-anchor="middle" x="1003.61" y="-328.75" font-family="Times,serif" font-size="14.00">hardware.TalonFX</text>
</g>
<!-- com_ctre_phoenix6_SignalLogger -->
<g id="node6" class="node">
<title>com_ctre_phoenix6_SignalLogger</title>
<ellipse fill="none" stroke="black" cx="1003.61" cy="-966.05" rx="104.65" ry="30.05"/>
<text text-anchor="middle" x="1003.61" y="-970" font-family="Times,serif" font-size="14.00">com.ctre.phoenix6</text>
<text text-anchor="middle" x="1003.61" y="-952.75" font-family="Times,serif" font-size="14.00">SignalLogger</text>
</g>
<!-- edu_wpi_first_units_Units -->
<g id="node7" class="node">
<title>edu_wpi_first_units_Units</title>
<ellipse fill="none" stroke="black" cx="1003.61" cy="-264.05" rx="74.95" ry="30.05"/>
<text text-anchor="middle" x="1003.61" y="-268" font-family="Times,serif" font-size="14.00">edu.wpi.first</text>
<text text-anchor="middle" x="1003.61" y="-250.75" font-family="Times,serif" font-size="14.00">units.Units</text>
</g>
<!-- edu_wpi_first_wpilibj2_command_button_CommandXboxController -->
<g id="node8" class="node">
<title>edu_wpi_first_wpilibj2_command_button_CommandXboxController</title>
<ellipse fill="none" stroke="black" cx="488.37" cy="-538.05" rx="270.65" ry="30.05"/>
<text text-anchor="middle" x="488.37" y="-542" font-family="Times,serif" font-size="14.00">edu.wpi.first</text>
<text text-anchor="middle" x="488.37" y="-524.75" font-family="Times,serif" font-size="14.00">wpilibj2.command.button.CommandXboxController</text>
</g>
<!-- edu_wpi_first_wpilibj2_command_Command -->
<g id="node9" class="node">
<title>edu_wpi_first_wpilibj2_command_Command</title>
<ellipse fill="none" stroke="black" cx="1003.61" cy="-186.05" rx="157.68" ry="30.05"/>
<text text-anchor="middle" x="1003.61" y="-190" font-family="Times,serif" font-size="14.00">edu.wpi.first</text>
<text text-anchor="middle" x="1003.61" y="-172.75" font-family="Times,serif" font-size="14.00">wpilibj2.command.Command</text>
</g>
<!-- edu_wpi_first_wpilibj2_command_Commands -->
<g id="node10" class="node">
<title>edu_wpi_first_wpilibj2_command_Commands</title>
<ellipse fill="none" stroke="black" cx="488.37" cy="-770.05" rx="162.99" ry="30.05"/>
<text text-anchor="middle" x="488.37" y="-774" font-family="Times,serif" font-size="14.00">edu.wpi.first</text>
<text text-anchor="middle" x="488.37" y="-756.75" font-family="Times,serif" font-size="14.00">wpilibj2.command.Commands</text>
</g>
<!-- edu_wpi_first_wpilibj2_command_CommandScheduler -->
<g id="node11" class="node">
<title>edu_wpi_first_wpilibj2_command_CommandScheduler</title>
<ellipse fill="none" stroke="black" cx="1003.61" cy="-30.05" rx="208.6" ry="30.05"/>
<text text-anchor="middle" x="1003.61" y="-34" font-family="Times,serif" font-size="14.00">edu.wpi.first</text>
<text text-anchor="middle" x="1003.61" y="-16.75" font-family="Times,serif" font-size="14.00">wpilibj2.command.CommandScheduler</text>
</g>
<!-- edu_wpi_first_wpilibj2_command_SubsystemBase -->
<g id="node12" class="node">
<title>edu_wpi_first_wpilibj2_command_SubsystemBase</title>
<ellipse fill="none" stroke="black" cx="1003.61" cy="-888.05" rx="186.85" ry="30.05"/>
<text text-anchor="middle" x="1003.61" y="-892" font-family="Times,serif" font-size="14.00">edu.wpi.first</text>
<text text-anchor="middle" x="1003.61" y="-874.75" font-family="Times,serif" font-size="14.00">wpilibj2.command.SubsystemBase</text>
</g>
<!-- edu_wpi_first_wpilibj2_command_sysid_SysIdRoutine -->
<g id="node13" class="node">
<title>edu_wpi_first_wpilibj2_command_sysid_SysIdRoutine</title>
<ellipse fill="none" stroke="black" cx="1003.61" cy="-1044.05" rx="203.29" ry="30.05"/>
<text text-anchor="middle" x="1003.61" y="-1048" font-family="Times,serif" font-size="14.00">edu.wpi.first</text>
<text text-anchor="middle" x="1003.61" y="-1030.75" font-family="Times,serif" font-size="14.00">wpilibj2.command.sysid.SysIdRoutine</text>
</g>
<!-- edu_wpi_first_wpilibj_RobotBase -->
<g id="node14" class="node">
<title>edu_wpi_first_wpilibj_RobotBase</title>
<ellipse fill="none" stroke="black" cx="488.37" cy="-994.05" rx="102.53" ry="30.05"/>
<text text-anchor="middle" x="488.37" y="-998" font-family="Times,serif" font-size="14.00">edu.wpi.first</text>
<text text-anchor="middle" x="488.37" y="-980.75" font-family="Times,serif" font-size="14.00">wpilibj.RobotBase</text>
</g>
<!-- edu_wpi_first_wpilibj_TimedRobot -->
<g id="node15" class="node">
<title>edu_wpi_first_wpilibj_TimedRobot</title>
<ellipse fill="none" stroke="black" cx="1003.61" cy="-108.05" rx="109.42" ry="30.05"/>
<text text-anchor="middle" x="1003.61" y="-112" font-family="Times,serif" font-size="14.00">edu.wpi.first</text>
<text text-anchor="middle" x="1003.61" y="-94.75" font-family="Times,serif" font-size="14.00">wpilibj.TimedRobot</text>
</g>
<!-- frc_robot_Constants -->
<g id="node16" class="node">
<title>frc_robot_Constants</title>
<ellipse fill="none" stroke="black" cx="1003.61" cy="-810.05" rx="62.23" ry="30.05"/>
<text text-anchor="middle" x="1003.61" y="-814" font-family="Times,serif" font-size="14.00">frc.robot</text>
<text text-anchor="middle" x="1003.61" y="-796.75" font-family="Times,serif" font-size="14.00">Constants</text>
</g>
<!-- frc_robot_Main -->
<g id="node17" class="node">
<title>frc_robot_Main</title>
<ellipse fill="none" stroke="black" cx="90.86" cy="-994.05" rx="55.33" ry="30.05"/>
<text text-anchor="middle" x="90.86" y="-998" font-family="Times,serif" font-size="14.00">frc.robot</text>
<text text-anchor="middle" x="90.86" y="-980.75" font-family="Times,serif" font-size="14.00">Main</text>
</g>
<!-- frc_robot_Main&#45;&gt;edu_wpi_first_wpilibj_RobotBase -->
<g id="edge22" class="edge">
<title>frc_robot_Main&#45;&gt;edu_wpi_first_wpilibj_RobotBase</title>
<path fill="none" stroke="black" d="M146.44,-994.05C205,-994.05 299.65,-994.05 374.38,-994.05"/>
<polygon fill="black" stroke="black" points="374.21,-997.55 384.21,-994.05 374.21,-990.55 374.21,-997.55"/>
</g>
<!-- frc_robot_Robot -->
<g id="node18" class="node">
<title>frc_robot_Robot</title>
<ellipse fill="none" stroke="black" cx="488.37" cy="-108.05" rx="55.33" ry="30.05"/>
<text text-anchor="middle" x="488.37" y="-112" font-family="Times,serif" font-size="14.00">frc.robot</text>
<text text-anchor="middle" x="488.37" y="-94.75" font-family="Times,serif" font-size="14.00">Robot</text>
</g>
<!-- frc_robot_Robot&#45;&gt;edu_wpi_first_wpilibj2_command_Command -->
<g id="edge8" class="edge">
<title>frc_robot_Robot&#45;&gt;edu_wpi_first_wpilibj2_command_Command</title>
<path fill="none" stroke="black" d="M541.89,-116.03C617.89,-127.58 761.1,-149.35 867.77,-165.56"/>
<polygon fill="black" stroke="black" points="867.04,-168.99 877.45,-167.03 868.09,-162.07 867.04,-168.99"/>
</g>
<!-- frc_robot_Robot&#45;&gt;edu_wpi_first_wpilibj2_command_CommandScheduler -->
<g id="edge9" class="edge">
<title>frc_robot_Robot&#45;&gt;edu_wpi_first_wpilibj2_command_CommandScheduler</title>
<path fill="none" stroke="black" d="M541.89,-100.07C613.06,-89.25 743.19,-69.48 847.05,-53.69"/>
<polygon fill="black" stroke="black" points="847.43,-57.18 856.79,-52.21 846.38,-50.26 847.43,-57.18"/>
</g>
<!-- frc_robot_Robot&#45;&gt;edu_wpi_first_wpilibj_TimedRobot -->
<g id="edge7" class="edge">
<title>frc_robot_Robot&#45;&gt;edu_wpi_first_wpilibj_TimedRobot</title>
<path fill="none" stroke="black" d="M543.81,-108.05C623.84,-108.05 775.3,-108.05 882.27,-108.05"/>
<polygon fill="black" stroke="black" points="882.27,-111.55 892.27,-108.05 882.27,-104.55 882.27,-111.55"/>
</g>
<!-- frc_robot_RobotContainer -->
<g id="node19" class="node">
<title>frc_robot_RobotContainer</title>
<ellipse fill="none" stroke="black" cx="90.86" cy="-683.05" rx="90.86" ry="30.05"/>
<text text-anchor="middle" x="90.86" y="-687" font-family="Times,serif" font-size="14.00">frc.robot</text>
<text text-anchor="middle" x="90.86" y="-669.75" font-family="Times,serif" font-size="14.00">RobotContainer</text>
</g>
<!-- frc_robot_RobotContainer&#45;&gt;com_ctre_phoenix6_SignalLogger -->
<g id="edge1" class="edge">
<title>frc_robot_RobotContainer&#45;&gt;com_ctre_phoenix6_SignalLogger</title>
<path fill="none" stroke="black" d="M179.54,-690.12C192.35,-691.12 205.38,-692.13 217.73,-693.05 277.85,-697.55 714.07,-690.86 759.02,-731.05 825.04,-790.09 732.52,-864.3 795.02,-927.05 819.54,-951.67 854.34,-963.41 888.46,-968.43"/>
<polygon fill="black" stroke="black" points="887.64,-971.85 898,-969.64 888.52,-964.91 887.64,-971.85"/>
</g>
<!-- frc_robot_RobotContainer&#45;&gt;edu_wpi_first_wpilibj2_command_button_CommandXboxController -->
<g id="edge4" class="edge">
<title>frc_robot_RobotContainer&#45;&gt;edu_wpi_first_wpilibj2_command_button_CommandXboxController</title>
<path fill="none" stroke="black" d="M118.98,-654.24C142.72,-630.89 179.34,-599.15 217.73,-582.05 236.46,-573.71 256.55,-566.93 277.02,-561.42"/>
<polygon fill="black" stroke="black" points="277.8,-564.84 286.61,-558.95 276.06,-558.06 277.8,-564.84"/>
</g>
<!-- frc_robot_RobotContainer&#45;&gt;edu_wpi_first_wpilibj2_command_Command -->
<g id="edge2" class="edge">
<title>frc_robot_RobotContainer&#45;&gt;edu_wpi_first_wpilibj2_command_Command</title>
<path fill="none" stroke="black" d="M131.62,-655.88C155.49,-641.05 187.08,-623.96 217.73,-615.05 275.62,-598.23 715.71,-619 759.02,-577.05 815.49,-522.34 741.79,-282.93 795.02,-225.05 806.88,-212.15 821.54,-202.71 837.55,-195.88"/>
<polygon fill="black" stroke="black" points="838.76,-199.17 846.84,-192.31 836.25,-192.64 838.76,-199.17"/>
</g>
<!-- frc_robot_RobotContainer&#45;&gt;edu_wpi_first_wpilibj2_command_Commands -->
<g id="edge3" class="edge">
<title>frc_robot_RobotContainer&#45;&gt;edu_wpi_first_wpilibj2_command_Commands</title>
<path fill="none" stroke="black" d="M151.75,-705.8C172.43,-713.04 195.89,-720.58 217.73,-726.05 257.79,-736.09 301.78,-744.39 342.41,-750.97"/>
<polygon fill="black" stroke="black" points="341.85,-754.42 352.28,-752.54 342.96,-747.51 341.85,-754.42"/>
</g>
<!-- frc_robot_RobotContainer&#45;&gt;edu_wpi_first_wpilibj2_command_sysid_SysIdRoutine -->
<g id="edge5" class="edge">
<title>frc_robot_RobotContainer&#45;&gt;edu_wpi_first_wpilibj2_command_sysid_SysIdRoutine</title>
<path fill="none" stroke="black" d="M113.62,-712.46C136.45,-741.25 174.91,-784.27 217.73,-809.05 433.38,-933.87 554.09,-813.31 759.02,-955.05 781.54,-970.63 771.91,-990.36 795.02,-1005.05 805.61,-1011.78 817.08,-1017.41 829,-1022.12"/>
<polygon fill="black" stroke="black" points="827.57,-1025.32 838.17,-1025.49 829.99,-1018.75 827.57,-1025.32"/>
</g>
<!-- frc_robot_subsystems_FlywheelMechanism -->
<g id="node20" class="node">
<title>frc_robot_subsystems_FlywheelMechanism</title>
<ellipse fill="none" stroke="black" cx="488.37" cy="-654.05" rx="177.31" ry="30.05"/>
<text text-anchor="middle" x="488.37" y="-658" font-family="Times,serif" font-size="14.00">frc.robot</text>
<text text-anchor="middle" x="488.37" y="-640.75" font-family="Times,serif" font-size="14.00">subsystems.FlywheelMechanism</text>
</g>
<!-- frc_robot_RobotContainer&#45;&gt;frc_robot_subsystems_FlywheelMechanism -->
<g id="edge6" class="edge">
<title>frc_robot_RobotContainer&#45;&gt;frc_robot_subsystems_FlywheelMechanism</title>
<path fill="none" stroke="black" d="M180.13,-676.58C219.57,-673.69 267.49,-670.17 313.63,-666.79"/>
<polygon fill="black" stroke="black" points="313.78,-670.29 323.5,-666.07 313.27,-663.31 313.78,-670.29"/>
</g>
<!-- frc_robot_subsystems_FlywheelMechanism&#45;&gt;com_ctre_phoenix6_BaseStatusSignal -->
<g id="edge12" class="edge">
<title>frc_robot_subsystems_FlywheelMechanism&#45;&gt;com_ctre_phoenix6_BaseStatusSignal</title>
<path fill="none" stroke="black" d="M666,-654.05C739.32,-654.05 822.33,-654.05 887.57,-654.05"/>
<polygon fill="black" stroke="black" points="887.19,-657.55 897.19,-654.05 887.19,-650.55 887.19,-657.55"/>
</g>
<!-- frc_robot_subsystems_FlywheelMechanism&#45;&gt;com_ctre_phoenix6_configs_TalonFXConfiguration -->
<g id="edge14" class="edge">
<title>frc_robot_subsystems_FlywheelMechanism&#45;&gt;com_ctre_phoenix6_configs_TalonFXConfiguration</title>
<path fill="none" stroke="black" d="M621.88,-633.91C697.18,-622.47 791.26,-608.17 867.06,-596.65"/>
<polygon fill="black" stroke="black" points="867.25,-600.16 876.61,-595.2 866.2,-593.24 867.25,-600.16"/>
</g>
<!-- frc_robot_subsystems_FlywheelMechanism&#45;&gt;com_ctre_phoenix6_controls_DutyCycleOut -->
<g id="edge15" class="edge">
<title>frc_robot_subsystems_FlywheelMechanism&#45;&gt;com_ctre_phoenix6_controls_DutyCycleOut</title>
<path fill="none" stroke="black" d="M664.48,-650.02C698.23,-642.74 731.57,-630.37 759.02,-610.05 788.09,-588.53 766.2,-558.92 795.02,-537.05 816.04,-521.1 841.65,-511.03 867.61,-504.8"/>
<polygon fill="black" stroke="black" points="868.24,-508.25 877.26,-502.69 866.74,-501.41 868.24,-508.25"/>
</g>
<!-- frc_robot_subsystems_FlywheelMechanism&#45;&gt;com_ctre_phoenix6_controls_VoltageOut -->
<g id="edge16" class="edge">
<title>frc_robot_subsystems_FlywheelMechanism&#45;&gt;com_ctre_phoenix6_controls_VoltageOut</title>
<path fill="none" stroke="black" d="M665.83,-655.13C700.17,-647.63 733.4,-633.88 759.02,-610.05 809.53,-563.06 745.07,-506.64 795.02,-459.05 818.11,-437.05 849.48,-425.49 880.84,-419.83"/>
<polygon fill="black" stroke="black" points="881.1,-423.33 890.42,-418.3 880,-416.42 881.1,-423.33"/>
</g>
<!-- frc_robot_subsystems_FlywheelMechanism&#45;&gt;com_ctre_phoenix6_hardware_TalonFX -->
<g id="edge17" class="edge">
<title>frc_robot_subsystems_FlywheelMechanism&#45;&gt;com_ctre_phoenix6_hardware_TalonFX</title>
<path fill="none" stroke="black" d="M665.18,-657.08C700.18,-649.6 733.85,-635.36 759.02,-610.05 831.66,-536.99 723.26,-454.98 795.02,-381.05 819.33,-356 854.27,-344.19 888.57,-339.23"/>
<polygon fill="black" stroke="black" points="888.67,-342.75 898.17,-338.04 887.81,-335.8 888.67,-342.75"/>
</g>
<!-- frc_robot_subsystems_FlywheelMechanism&#45;&gt;com_ctre_phoenix6_SignalLogger -->
<g id="edge13" class="edge">
<title>frc_robot_subsystems_FlywheelMechanism&#45;&gt;com_ctre_phoenix6_SignalLogger</title>
<path fill="none" stroke="black" d="M665.18,-651.03C700.18,-658.51 733.85,-672.74 759.02,-698.05 831.66,-771.12 723.26,-853.12 795.02,-927.05 819.33,-952.1 854.27,-963.91 888.57,-968.87"/>
<polygon fill="black" stroke="black" points="887.81,-972.3 898.17,-970.06 888.67,-965.36 887.81,-972.3"/>
</g>
<!-- frc_robot_subsystems_FlywheelMechanism&#45;&gt;edu_wpi_first_units_Units -->
<g id="edge10" class="edge">
<title>frc_robot_subsystems_FlywheelMechanism&#45;&gt;edu_wpi_first_units_Units</title>
<path fill="none" stroke="black" d="M664.54,-658.1C700,-650.67 734.02,-636.2 759.02,-610.05 853.95,-510.75 701.28,-403.49 795.02,-303.05 826.02,-269.83 875.66,-259.63 918.62,-257.95"/>
<polygon fill="black" stroke="black" points="918.53,-261.46 928.45,-257.73 918.37,-254.46 918.53,-261.46"/>
</g>
<!-- frc_robot_subsystems_FlywheelMechanism&#45;&gt;edu_wpi_first_wpilibj2_command_Command -->
<g id="edge18" class="edge">
<title>frc_robot_subsystems_FlywheelMechanism&#45;&gt;edu_wpi_first_wpilibj2_command_Command</title>
<path fill="none" stroke="black" d="M663.95,-658.75C699.76,-651.36 734.09,-636.75 759.02,-610.05 817.66,-547.25 737.13,-288.56 795.02,-225.05 806.82,-212.1 821.45,-202.63 837.44,-195.78"/>
<polygon fill="black" stroke="black" points="838.65,-199.07 846.72,-192.2 836.13,-192.54 838.65,-199.07"/>
</g>
<!-- frc_robot_subsystems_FlywheelMechanism&#45;&gt;edu_wpi_first_wpilibj2_command_SubsystemBase -->
<g id="edge19" class="edge">
<title>frc_robot_subsystems_FlywheelMechanism&#45;&gt;edu_wpi_first_wpilibj2_command_SubsystemBase</title>
<path fill="none" stroke="black" d="M665.83,-652.97C700.17,-660.48 733.4,-674.23 759.02,-698.05 809.53,-745.04 745.07,-801.46 795.02,-849.05 803.86,-857.48 813.91,-864.37 824.72,-869.99"/>
<polygon fill="black" stroke="black" points="822.93,-873.01 833.47,-874.14 825.94,-866.69 822.93,-873.01"/>
</g>
<!-- frc_robot_subsystems_FlywheelMechanism&#45;&gt;edu_wpi_first_wpilibj2_command_sysid_SysIdRoutine -->
<g id="edge20" class="edge">
<title>frc_robot_subsystems_FlywheelMechanism&#45;&gt;edu_wpi_first_wpilibj2_command_sysid_SysIdRoutine</title>
<path fill="none" stroke="black" d="M647.43,-667.62C689.28,-678.83 730.64,-698.15 759.02,-731.05 839.23,-824.07 710.59,-915.84 795.02,-1005.05 801.72,-1012.14 809.27,-1018.17 817.42,-1023.29"/>
<polygon fill="black" stroke="black" points="815.51,-1026.23 825.93,-1028.15 818.98,-1020.15 815.51,-1026.23"/>
</g>
<!-- frc_robot_subsystems_FlywheelMechanism&#45;&gt;frc_robot_Constants -->
<g id="edge21" class="edge">
<title>frc_robot_subsystems_FlywheelMechanism&#45;&gt;frc_robot_Constants</title>
<path fill="none" stroke="black" d="M664.48,-658.08C698.23,-665.36 731.57,-677.73 759.02,-698.05 788.09,-719.57 766.2,-749.18 795.02,-771.05 833.36,-800.15 886.97,-809.66 930.1,-812.02"/>
<polygon fill="black" stroke="black" points="929.75,-815.51 939.88,-812.43 930.04,-808.52 929.75,-815.51"/>
</g>
<!-- java_util_function_DoubleSupplier -->
<g id="node21" class="node">
<title>java_util_function_DoubleSupplier</title>
<ellipse fill="none" stroke="black" cx="1003.61" cy="-732.05" rx="134.35" ry="30.05"/>
<text text-anchor="middle" x="1003.61" y="-736" font-family="Times,serif" font-size="14.00">java.util</text>
<text text-anchor="middle" x="1003.61" y="-718.75" font-family="Times,serif" font-size="14.00">function.DoubleSupplier</text>
</g>
<!-- frc_robot_subsystems_FlywheelMechanism&#45;&gt;java_util_function_DoubleSupplier -->
<g id="edge11" class="edge">
<title>frc_robot_subsystems_FlywheelMechanism&#45;&gt;java_util_function_DoubleSupplier</title>
<path fill="none" stroke="black" d="M621.88,-674.19C701.57,-686.3 802.29,-701.61 880.12,-713.44"/>
<polygon fill="black" stroke="black" points="879.52,-716.89 889.94,-714.93 880.57,-709.96 879.52,-716.89"/>
</g>
</g>
</svg>
