<?xml version="1.0" encoding="UTF-8" standalone="no"?>
<!DOCTYPE svg PUBLIC "-//W3C//DTD SVG 1.1//EN"
 "http://www.w3.org/Graphics/SVG/1.1/DTD/svg11.dtd">
<!-- Generated by graphviz version 12.2.1 (0)
 -->
<!-- Title: Pigeon2 Pages: 1 -->
<svg width="1112pt" height="1393pt"
 viewBox="0.00 0.00 1112.02 1393.10" xmlns="http://www.w3.org/2000/svg" xmlns:xlink="http://www.w3.org/1999/xlink">
<g id="graph0" class="graph" transform="scale(1 1) rotate(0) translate(4 1389.1)">
<title>Pigeon2</title>
<polygon fill="white" stroke="none" points="-4,4 -4,-1389.1 1108.02,-1389.1 1108.02,4 -4,4"/>
<!-- com_ctre_phoenix6_BaseStatusSignal -->
<g id="node1" class="node">
<title>com_ctre_phoenix6_BaseStatusSignal</title>
<ellipse fill="none" stroke="black" cx="437.46" cy="-1277.05" rx="104.65" ry="30.05"/>
<text text-anchor="middle" x="437.46" y="-1281" font-family="Times,serif" font-size="14.00">com.ctre.phoenix6</text>
<text text-anchor="middle" x="437.46" y="-1263.75" font-family="Times,serif" font-size="14.00">BaseStatusSignal</text>
</g>
<!-- com_ctre_phoenix6_configs_Pigeon2Configuration -->
<g id="node2" class="node">
<title>com_ctre_phoenix6_configs_Pigeon2Configuration</title>
<ellipse fill="none" stroke="black" cx="437.46" cy="-1199.05" rx="159.81" ry="30.05"/>
<text text-anchor="middle" x="437.46" y="-1203" font-family="Times,serif" font-size="14.00">com.ctre.phoenix6</text>
<text text-anchor="middle" x="437.46" y="-1185.75" font-family="Times,serif" font-size="14.00">configs.Pigeon2Configuration</text>
</g>
<!-- com_ctre_phoenix6_controls_DutyCycleOut -->
<g id="node3" class="node">
<title>com_ctre_phoenix6_controls_DutyCycleOut</title>
<ellipse fill="none" stroke="black" cx="437.46" cy="-1121.05" rx="125.87" ry="30.05"/>
<text text-anchor="middle" x="437.46" y="-1125" font-family="Times,serif" font-size="14.00">com.ctre.phoenix6</text>
<text text-anchor="middle" x="437.46" y="-1107.75" font-family="Times,serif" font-size="14.00">controls.DutyCycleOut</text>
</g>
<!-- com_ctre_phoenix6_hardware_Pigeon2 -->
<g id="node4" class="node">
<title>com_ctre_phoenix6_hardware_Pigeon2</title>
<ellipse fill="none" stroke="black" cx="915.05" cy="-1043.05" rx="104.65" ry="30.05"/>
<text text-anchor="middle" x="915.05" y="-1047" font-family="Times,serif" font-size="14.00">com.ctre.phoenix6</text>
<text text-anchor="middle" x="915.05" y="-1029.75" font-family="Times,serif" font-size="14.00">hardware.Pigeon2</text>
</g>
<!-- com_ctre_phoenix6_hardware_TalonFX -->
<g id="node5" class="node">
<title>com_ctre_phoenix6_hardware_TalonFX</title>
<ellipse fill="none" stroke="black" cx="915.05" cy="-965.05" rx="104.65" ry="30.05"/>
<text text-anchor="middle" x="915.05" y="-969" font-family="Times,serif" font-size="14.00">com.ctre.phoenix6</text>
<text text-anchor="middle" x="915.05" y="-951.75" font-family="Times,serif" font-size="14.00">hardware.TalonFX</text>
</g>
<!-- com_ctre_phoenix6_sim_TalonFXSimState -->
<g id="node6" class="node">
<title>com_ctre_phoenix6_sim_TalonFXSimState</title>
<ellipse fill="none" stroke="black" cx="915.05" cy="-887.05" rx="120.03" ry="30.05"/>
<text text-anchor="middle" x="915.05" y="-891" font-family="Times,serif" font-size="14.00">com.ctre.phoenix6</text>
<text text-anchor="middle" x="915.05" y="-873.75" font-family="Times,serif" font-size="14.00">sim.TalonFXSimState</text>
</g>
<!-- com_ctre_phoenix6_StatusSignal -->
<g id="node7" class="node">
<title>com_ctre_phoenix6_StatusSignal</title>
<ellipse fill="none" stroke="black" cx="437.46" cy="-108.05" rx="104.65" ry="30.05"/>
<text text-anchor="middle" x="437.46" y="-112" font-family="Times,serif" font-size="14.00">com.ctre.phoenix6</text>
<text text-anchor="middle" x="437.46" y="-94.75" font-family="Times,serif" font-size="14.00">StatusSignal</text>
</g>
<!-- com_ctre_phoenix6_Utils -->
<g id="node8" class="node">
<title>com_ctre_phoenix6_Utils</title>
<ellipse fill="none" stroke="black" cx="915.05" cy="-1199.05" rx="104.65" ry="30.05"/>
<text text-anchor="middle" x="915.05" y="-1203" font-family="Times,serif" font-size="14.00">com.ctre.phoenix6</text>
<text text-anchor="middle" x="915.05" y="-1185.75" font-family="Times,serif" font-size="14.00">Utils</text>
</g>
<!-- edu_wpi_first_math_system_plant_DCMotor -->
<g id="node9" class="node">
<title>edu_wpi_first_math_system_plant_DCMotor</title>
<ellipse fill="none" stroke="black" cx="915.05" cy="-809.05" rx="155.03" ry="30.05"/>
<text text-anchor="middle" x="915.05" y="-813" font-family="Times,serif" font-size="14.00">edu.wpi.first</text>
<text text-anchor="middle" x="915.05" y="-795.75" font-family="Times,serif" font-size="14.00">math.system.plant.DCMotor</text>
</g>
<!-- edu_wpi_first_math_system_plant_LinearSystemId -->
<g id="node10" class="node">
<title>edu_wpi_first_math_system_plant_LinearSystemId</title>
<ellipse fill="none" stroke="black" cx="915.05" cy="-731.05" rx="188.97" ry="30.05"/>
<text text-anchor="middle" x="915.05" y="-735" font-family="Times,serif" font-size="14.00">edu.wpi.first</text>
<text text-anchor="middle" x="915.05" y="-717.75" font-family="Times,serif" font-size="14.00">math.system.plant.LinearSystemId</text>
</g>
<!-- edu_wpi_first_math_util_Units -->
<g id="node11" class="node">
<title>edu_wpi_first_math_util_Units</title>
<ellipse fill="none" stroke="black" cx="915.05" cy="-653.05" rx="88.21" ry="30.05"/>
<text text-anchor="middle" x="915.05" y="-657" font-family="Times,serif" font-size="14.00">edu.wpi.first</text>
<text text-anchor="middle" x="915.05" y="-639.75" font-family="Times,serif" font-size="14.00">math.util.Units</text>
</g>
<!-- edu_wpi_first_units_measure_Angle -->
<g id="node12" class="node">
<title>edu_wpi_first_units_measure_Angle</title>
<ellipse fill="none" stroke="black" cx="437.46" cy="-30.05" rx="115.26" ry="30.05"/>
<text text-anchor="middle" x="437.46" y="-34" font-family="Times,serif" font-size="14.00">edu.wpi.first</text>
<text text-anchor="middle" x="437.46" y="-16.75" font-family="Times,serif" font-size="14.00">units.measure.Angle</text>
</g>
<!-- edu_wpi_first_units_Units -->
<g id="node13" class="node">
<title>edu_wpi_first_units_Units</title>
<ellipse fill="none" stroke="black" cx="437.46" cy="-576.05" rx="74.95" ry="30.05"/>
<text text-anchor="middle" x="437.46" y="-580" font-family="Times,serif" font-size="14.00">edu.wpi.first</text>
<text text-anchor="middle" x="437.46" y="-562.75" font-family="Times,serif" font-size="14.00">units.Units</text>
</g>
<!-- edu_wpi_first_wpilibj_RobotBase -->
<g id="node14" class="node">
<title>edu_wpi_first_wpilibj_RobotBase</title>
<ellipse fill="none" stroke="black" cx="437.46" cy="-1355.05" rx="102.53" ry="30.05"/>
<text text-anchor="middle" x="437.46" y="-1359" font-family="Times,serif" font-size="14.00">edu.wpi.first</text>
<text text-anchor="middle" x="437.46" y="-1341.75" font-family="Times,serif" font-size="14.00">wpilibj.RobotBase</text>
</g>
<!-- edu_wpi_first_wpilibj_simulation_DCMotorSim -->
<g id="node15" class="node">
<title>edu_wpi_first_wpilibj_simulation_DCMotorSim</title>
<ellipse fill="none" stroke="black" cx="915.05" cy="-575.05" rx="170.41" ry="30.05"/>
<text text-anchor="middle" x="915.05" y="-579" font-family="Times,serif" font-size="14.00">edu.wpi.first</text>
<text text-anchor="middle" x="915.05" y="-561.75" font-family="Times,serif" font-size="14.00">wpilibj.simulation.DCMotorSim</text>
</g>
<!-- edu_wpi_first_wpilibj_smartdashboard_Mechanism2d -->
<g id="node16" class="node">
<title>edu_wpi_first_wpilibj_smartdashboard_Mechanism2d</title>
<ellipse fill="none" stroke="black" cx="437.46" cy="-498.05" rx="204.88" ry="30.05"/>
<text text-anchor="middle" x="437.46" y="-502" font-family="Times,serif" font-size="14.00">edu.wpi.first</text>
<text text-anchor="middle" x="437.46" y="-484.75" font-family="Times,serif" font-size="14.00">wpilibj.smartdashboard.Mechanism2d</text>
</g>
<!-- edu_wpi_first_wpilibj_smartdashboard_MechanismLigament2d -->
<g id="node17" class="node">
<title>edu_wpi_first_wpilibj_smartdashboard_MechanismLigament2d</title>
<ellipse fill="none" stroke="black" cx="437.46" cy="-420.05" rx="252.61" ry="30.05"/>
<text text-anchor="middle" x="437.46" y="-424" font-family="Times,serif" font-size="14.00">edu.wpi.first</text>
<text text-anchor="middle" x="437.46" y="-406.75" font-family="Times,serif" font-size="14.00">wpilibj.smartdashboard.MechanismLigament2d</text>
</g>
<!-- edu_wpi_first_wpilibj_smartdashboard_SmartDashboard -->
<g id="node18" class="node">
<title>edu_wpi_first_wpilibj_smartdashboard_SmartDashboard</title>
<ellipse fill="none" stroke="black" cx="437.46" cy="-342.05" rx="220.26" ry="30.05"/>
<text text-anchor="middle" x="437.46" y="-346" font-family="Times,serif" font-size="14.00">edu.wpi.first</text>
<text text-anchor="middle" x="437.46" y="-328.75" font-family="Times,serif" font-size="14.00">wpilibj.smartdashboard.SmartDashboard</text>
</g>
<!-- edu_wpi_first_wpilibj_TimedRobot -->
<g id="node19" class="node">
<title>edu_wpi_first_wpilibj_TimedRobot</title>
<ellipse fill="none" stroke="black" cx="437.46" cy="-810.05" rx="109.42" ry="30.05"/>
<text text-anchor="middle" x="437.46" y="-814" font-family="Times,serif" font-size="14.00">edu.wpi.first</text>
<text text-anchor="middle" x="437.46" y="-796.75" font-family="Times,serif" font-size="14.00">wpilibj.TimedRobot</text>
</g>
<!-- edu_wpi_first_wpilibj_Timer -->
<g id="node20" class="node">
<title>edu_wpi_first_wpilibj_Timer</title>
<ellipse fill="none" stroke="black" cx="437.46" cy="-732.05" rx="78.14" ry="30.05"/>
<text text-anchor="middle" x="437.46" y="-736" font-family="Times,serif" font-size="14.00">edu.wpi.first</text>
<text text-anchor="middle" x="437.46" y="-718.75" font-family="Times,serif" font-size="14.00">wpilibj.Timer</text>
</g>
<!-- edu_wpi_first_wpilibj_util_Color -->
<g id="node21" class="node">
<title>edu_wpi_first_wpilibj_util_Color</title>
<ellipse fill="none" stroke="black" cx="437.46" cy="-264.05" rx="95.64" ry="30.05"/>
<text text-anchor="middle" x="437.46" y="-268" font-family="Times,serif" font-size="14.00">edu.wpi.first</text>
<text text-anchor="middle" x="437.46" y="-250.75" font-family="Times,serif" font-size="14.00">wpilibj.util.Color</text>
</g>
<!-- edu_wpi_first_wpilibj_util_Color8Bit -->
<g id="node22" class="node">
<title>edu_wpi_first_wpilibj_util_Color8Bit</title>
<ellipse fill="none" stroke="black" cx="437.46" cy="-186.05" rx="116.85" ry="30.05"/>
<text text-anchor="middle" x="437.46" y="-190" font-family="Times,serif" font-size="14.00">edu.wpi.first</text>
<text text-anchor="middle" x="437.46" y="-172.75" font-family="Times,serif" font-size="14.00">wpilibj.util.Color8Bit</text>
</g>
<!-- edu_wpi_first_wpilibj_XboxController -->
<g id="node23" class="node">
<title>edu_wpi_first_wpilibj_XboxController</title>
<ellipse fill="none" stroke="black" cx="437.46" cy="-654.05" rx="124.8" ry="30.05"/>
<text text-anchor="middle" x="437.46" y="-658" font-family="Times,serif" font-size="14.00">edu.wpi.first</text>
<text text-anchor="middle" x="437.46" y="-640.75" font-family="Times,serif" font-size="14.00">wpilibj.XboxController</text>
</g>
<!-- frc_robot_Main -->
<g id="node24" class="node">
<title>frc_robot_Main</title>
<ellipse fill="none" stroke="black" cx="74.42" cy="-1355.05" rx="55.33" ry="30.05"/>
<text text-anchor="middle" x="74.42" y="-1359" font-family="Times,serif" font-size="14.00">frc.robot</text>
<text text-anchor="middle" x="74.42" y="-1341.75" font-family="Times,serif" font-size="14.00">Main</text>
</g>
<!-- frc_robot_Main&#45;&gt;edu_wpi_first_wpilibj_RobotBase -->
<g id="edge31" class="edge">
<title>frc_robot_Main&#45;&gt;edu_wpi_first_wpilibj_RobotBase</title>
<path fill="none" stroke="black" d="M129.86,-1355.05C180.88,-1355.05 258.71,-1355.05 323.19,-1355.05"/>
<polygon fill="black" stroke="black" points="323.14,-1358.55 333.14,-1355.05 323.14,-1351.55 323.14,-1358.55"/>
</g>
<!-- frc_robot_Mechanisms -->
<g id="node25" class="node">
<title>frc_robot_Mechanisms</title>
<ellipse fill="none" stroke="black" cx="74.42" cy="-303.05" rx="74.42" ry="30.05"/>
<text text-anchor="middle" x="74.42" y="-307" font-family="Times,serif" font-size="14.00">frc.robot</text>
<text text-anchor="middle" x="74.42" y="-289.75" font-family="Times,serif" font-size="14.00">Mechanisms</text>
</g>
<!-- frc_robot_Mechanisms&#45;&gt;com_ctre_phoenix6_StatusSignal -->
<g id="edge12" class="edge">
<title>frc_robot_Mechanisms&#45;&gt;com_ctre_phoenix6_StatusSignal</title>
<path fill="none" stroke="black" d="M87.57,-273.08C103.93,-236.85 136.67,-177.02 184.85,-147.05 225.16,-121.98 275.93,-111.08 321.29,-106.87"/>
<polygon fill="black" stroke="black" points="321.51,-110.37 331.19,-106.07 320.94,-103.39 321.51,-110.37"/>
</g>
<!-- frc_robot_Mechanisms&#45;&gt;edu_wpi_first_units_measure_Angle -->
<g id="edge13" class="edge">
<title>frc_robot_Mechanisms&#45;&gt;edu_wpi_first_units_measure_Angle</title>
<path fill="none" stroke="black" d="M80.29,-272.59C90.15,-221.58 117.58,-119.51 184.85,-69.05 220.95,-41.97 268.29,-30.28 312.15,-26.02"/>
<polygon fill="black" stroke="black" points="312.33,-29.52 322.01,-25.2 311.75,-22.55 312.33,-29.52"/>
</g>
<!-- frc_robot_Mechanisms&#45;&gt;edu_wpi_first_units_Units -->
<g id="edge11" class="edge">
<title>frc_robot_Mechanisms&#45;&gt;edu_wpi_first_units_Units</title>
<path fill="none" stroke="black" d="M80.29,-333.51C90.15,-384.52 117.58,-486.59 184.85,-537.05 232.37,-572.7 299.34,-581.67 352.24,-582.14"/>
<polygon fill="black" stroke="black" points="352.14,-585.64 362.13,-582.12 352.12,-578.64 352.14,-585.64"/>
</g>
<!-- frc_robot_Mechanisms&#45;&gt;edu_wpi_first_wpilibj_smartdashboard_Mechanism2d -->
<g id="edge14" class="edge">
<title>frc_robot_Mechanisms&#45;&gt;edu_wpi_first_wpilibj_smartdashboard_Mechanism2d</title>
<path fill="none" stroke="black" d="M87.57,-333.03C103.93,-369.26 136.67,-429.09 184.85,-459.05 201.01,-469.1 218.85,-476.88 237.34,-482.85"/>
<polygon fill="black" stroke="black" points="236.27,-486.19 246.86,-485.73 238.3,-479.49 236.27,-486.19"/>
</g>
<!-- frc_robot_Mechanisms&#45;&gt;edu_wpi_first_wpilibj_smartdashboard_MechanismLigament2d -->
<g id="edge15" class="edge">
<title>frc_robot_Mechanisms&#45;&gt;edu_wpi_first_wpilibj_smartdashboard_MechanismLigament2d</title>
<path fill="none" stroke="black" d="M105.64,-330.52C126.41,-347.83 155.46,-369.09 184.85,-381.05 200.78,-387.54 217.69,-392.95 234.9,-397.47"/>
<polygon fill="black" stroke="black" points="233.63,-400.76 244.19,-399.81 235.34,-393.97 233.63,-400.76"/>
</g>
<!-- frc_robot_Mechanisms&#45;&gt;edu_wpi_first_wpilibj_smartdashboard_SmartDashboard -->
<g id="edge16" class="edge">
<title>frc_robot_Mechanisms&#45;&gt;edu_wpi_first_wpilibj_smartdashboard_SmartDashboard</title>
<path fill="none" stroke="black" d="M146.75,-310.76C177.33,-314.06 214.61,-318.09 252.11,-322.14"/>
<polygon fill="black" stroke="black" points="251.39,-325.58 261.71,-323.18 252.14,-318.62 251.39,-325.58"/>
</g>
<!-- frc_robot_Mechanisms&#45;&gt;edu_wpi_first_wpilibj_util_Color -->
<g id="edge17" class="edge">
<title>frc_robot_Mechanisms&#45;&gt;edu_wpi_first_wpilibj_util_Color</title>
<path fill="none" stroke="black" d="M146.75,-295.35C200.52,-289.54 274.99,-281.49 334.96,-275.02"/>
<polygon fill="black" stroke="black" points="335.29,-278.5 344.86,-273.95 334.54,-271.54 335.29,-278.5"/>
</g>
<!-- frc_robot_Mechanisms&#45;&gt;edu_wpi_first_wpilibj_util_Color8Bit -->
<g id="edge18" class="edge">
<title>frc_robot_Mechanisms&#45;&gt;edu_wpi_first_wpilibj_util_Color8Bit</title>
<path fill="none" stroke="black" d="M105.64,-275.59C126.41,-258.28 155.46,-237.01 184.85,-225.05 224.51,-208.91 270.18,-199.4 311.64,-193.81"/>
<polygon fill="black" stroke="black" points="311.95,-197.3 321.42,-192.57 311.06,-190.36 311.95,-197.3"/>
</g>
<!-- frc_robot_Robot -->
<g id="node26" class="node">
<title>frc_robot_Robot</title>
<ellipse fill="none" stroke="black" cx="74.42" cy="-966.05" rx="55.33" ry="30.05"/>
<text text-anchor="middle" x="74.42" y="-970" font-family="Times,serif" font-size="14.00">frc.robot</text>
<text text-anchor="middle" x="74.42" y="-952.75" font-family="Times,serif" font-size="14.00">Robot</text>
</g>
<!-- frc_robot_Robot&#45;&gt;com_ctre_phoenix6_BaseStatusSignal -->
<g id="edge2" class="edge">
<title>frc_robot_Robot&#45;&gt;com_ctre_phoenix6_BaseStatusSignal</title>
<path fill="none" stroke="black" d="M78.06,-996.26C84.79,-1053.39 107.91,-1176.97 184.85,-1238.05 223.55,-1268.78 276.43,-1280.11 323.72,-1283.12"/>
<polygon fill="black" stroke="black" points="323.3,-1286.6 333.47,-1283.61 323.66,-1279.61 323.3,-1286.6"/>
</g>
<!-- frc_robot_Robot&#45;&gt;com_ctre_phoenix6_configs_Pigeon2Configuration -->
<g id="edge3" class="edge">
<title>frc_robot_Robot&#45;&gt;com_ctre_phoenix6_configs_Pigeon2Configuration</title>
<path fill="none" stroke="black" d="M83.28,-995.99C96.43,-1039.73 127.3,-1120.21 184.85,-1160.05 209.02,-1176.78 237.61,-1187.46 266.7,-1194.09"/>
<polygon fill="black" stroke="black" points="265.87,-1197.49 276.38,-1196.12 267.31,-1190.64 265.87,-1197.49"/>
</g>
<!-- frc_robot_Robot&#45;&gt;com_ctre_phoenix6_controls_DutyCycleOut -->
<g id="edge4" class="edge">
<title>frc_robot_Robot&#45;&gt;com_ctre_phoenix6_controls_DutyCycleOut</title>
<path fill="none" stroke="black" d="M93.87,-994.57C113.11,-1021.78 145.89,-1061.56 184.85,-1082.05 220.09,-1100.59 261.67,-1110.9 300.78,-1116.5"/>
<polygon fill="black" stroke="black" points="300.14,-1119.94 310.51,-1117.79 301.06,-1113 300.14,-1119.94"/>
</g>
<!-- frc_robot_Robot&#45;&gt;com_ctre_phoenix6_hardware_Pigeon2 -->
<g id="edge5" class="edge">
<title>frc_robot_Robot&#45;&gt;com_ctre_phoenix6_hardware_Pigeon2</title>
<path fill="none" stroke="black" d="M129.69,-968.63C258.96,-974.91 582.3,-991.38 690.07,-1004.05 732,-1008.98 777.98,-1016.6 817.31,-1023.8"/>
<polygon fill="black" stroke="black" points="816.53,-1027.21 827,-1025.59 817.81,-1020.33 816.53,-1027.21"/>
</g>
<!-- frc_robot_Robot&#45;&gt;com_ctre_phoenix6_hardware_TalonFX -->
<g id="edge6" class="edge">
<title>frc_robot_Robot&#45;&gt;com_ctre_phoenix6_hardware_TalonFX</title>
<path fill="none" stroke="black" d="M130.12,-965.99C264.95,-965.83 615.55,-965.41 798.74,-965.19"/>
<polygon fill="black" stroke="black" points="798.52,-968.69 808.51,-965.18 798.51,-961.69 798.52,-968.69"/>
</g>
<!-- frc_robot_Robot&#45;&gt;edu_wpi_first_units_Units -->
<g id="edge1" class="edge">
<title>frc_robot_Robot&#45;&gt;edu_wpi_first_units_Units</title>
<path fill="none" stroke="black" d="M74.95,-935.75C75.66,-867 87.77,-698.69 184.85,-615.05 230.65,-575.59 299.33,-567.16 353.37,-567.87"/>
<polygon fill="black" stroke="black" points="353.07,-571.36 363.15,-568.11 353.24,-564.37 353.07,-571.36"/>
</g>
<!-- frc_robot_Robot&#45;&gt;edu_wpi_first_wpilibj_TimedRobot -->
<g id="edge7" class="edge">
<title>frc_robot_Robot&#45;&gt;edu_wpi_first_wpilibj_TimedRobot</title>
<path fill="none" stroke="black" d="M93.63,-937.55C112.8,-910.1 145.63,-869.78 184.85,-849.05 224.84,-827.91 273.07,-817.44 316.56,-812.48"/>
<polygon fill="black" stroke="black" points="316.71,-815.99 326.29,-811.47 315.98,-809.03 316.71,-815.99"/>
</g>
<!-- frc_robot_Robot&#45;&gt;edu_wpi_first_wpilibj_Timer -->
<g id="edge8" class="edge">
<title>frc_robot_Robot&#45;&gt;edu_wpi_first_wpilibj_Timer</title>
<path fill="none" stroke="black" d="M83.23,-935.96C96.32,-892 127.12,-811.11 184.85,-771.05 232.3,-738.12 296.86,-728.65 348.7,-727.26"/>
<polygon fill="black" stroke="black" points="348.44,-730.77 358.38,-727.11 348.33,-723.77 348.44,-730.77"/>
</g>
<!-- frc_robot_Robot&#45;&gt;edu_wpi_first_wpilibj_XboxController -->
<g id="edge9" class="edge">
<title>frc_robot_Robot&#45;&gt;edu_wpi_first_wpilibj_XboxController</title>
<path fill="none" stroke="black" d="M78.03,-935.73C84.68,-878.4 107.7,-754.38 184.85,-693.05 217.97,-666.72 261.5,-654.63 303.03,-649.81"/>
<polygon fill="black" stroke="black" points="303.28,-653.3 312.88,-648.81 302.58,-646.33 303.28,-653.3"/>
</g>
<!-- frc_robot_sim_PhysicsSim -->
<g id="node27" class="node">
<title>frc_robot_sim_PhysicsSim</title>
<ellipse fill="none" stroke="black" cx="437.46" cy="-1043.05" rx="90.33" ry="30.05"/>
<text text-anchor="middle" x="437.46" y="-1047" font-family="Times,serif" font-size="14.00">frc.robot</text>
<text text-anchor="middle" x="437.46" y="-1029.75" font-family="Times,serif" font-size="14.00">sim.PhysicsSim</text>
</g>
<!-- frc_robot_Robot&#45;&gt;frc_robot_sim_PhysicsSim -->
<g id="edge10" class="edge">
<title>frc_robot_Robot&#45;&gt;frc_robot_sim_PhysicsSim</title>
<path fill="none" stroke="black" d="M122.48,-981.59C141.68,-987.58 164.19,-994.15 184.85,-999.05 236.67,-1011.35 295.26,-1021.8 342.86,-1029.42"/>
<polygon fill="black" stroke="black" points="342.16,-1032.85 352.59,-1030.96 343.26,-1025.94 342.16,-1032.85"/>
</g>
<!-- frc_robot_sim_PhysicsSim&#45;&gt;com_ctre_phoenix6_hardware_Pigeon2 -->
<g id="edge21" class="edge">
<title>frc_robot_sim_PhysicsSim&#45;&gt;com_ctre_phoenix6_hardware_Pigeon2</title>
<path fill="none" stroke="black" d="M528.19,-1043.05C604.89,-1043.05 715.7,-1043.05 798.92,-1043.05"/>
<polygon fill="black" stroke="black" points="798.7,-1046.55 808.7,-1043.05 798.7,-1039.55 798.7,-1046.55"/>
</g>
<!-- frc_robot_sim_PhysicsSim&#45;&gt;com_ctre_phoenix6_hardware_TalonFX -->
<g id="edge22" class="edge">
<title>frc_robot_sim_PhysicsSim&#45;&gt;com_ctre_phoenix6_hardware_TalonFX</title>
<path fill="none" stroke="black" d="M519.14,-1029.82C600,-1016.56 724.74,-996.1 812.34,-981.73"/>
<polygon fill="black" stroke="black" points="812.84,-985.2 822.14,-980.13 811.71,-978.29 812.84,-985.2"/>
</g>
<!-- frc_robot_sim_PhysicsSim&#45;&gt;com_ctre_phoenix6_Utils -->
<g id="edge20" class="edge">
<title>frc_robot_sim_PhysicsSim&#45;&gt;com_ctre_phoenix6_Utils</title>
<path fill="none" stroke="black" d="M526.18,-1036.92C578.54,-1037.72 643.66,-1047.05 690.07,-1082.05 720.56,-1105.04 696.18,-1136.3 726.07,-1160.05 747.08,-1176.74 773.46,-1186.8 799.76,-1192.73"/>
<polygon fill="black" stroke="black" points="799.03,-1196.15 809.53,-1194.73 800.43,-1189.3 799.03,-1196.15"/>
</g>
<!-- java_util_ArrayList -->
<g id="node30" class="node">
<title>java_util_ArrayList</title>
<ellipse fill="none" stroke="black" cx="915.05" cy="-1121.05" rx="58.51" ry="30.05"/>
<text text-anchor="middle" x="915.05" y="-1125" font-family="Times,serif" font-size="14.00">java.util</text>
<text text-anchor="middle" x="915.05" y="-1107.75" font-family="Times,serif" font-size="14.00">ArrayList</text>
</g>
<!-- frc_robot_sim_PhysicsSim&#45;&gt;java_util_ArrayList -->
<g id="edge19" class="edge">
<title>frc_robot_sim_PhysicsSim&#45;&gt;java_util_ArrayList</title>
<path fill="none" stroke="black" d="M520.39,-1055.36C569.62,-1062.85 633.48,-1072.74 690.07,-1082.05 743.28,-1090.81 803.48,-1101.32 848.06,-1109.23"/>
<polygon fill="black" stroke="black" points="847.38,-1112.66 857.84,-1110.97 848.6,-1105.77 847.38,-1112.66"/>
</g>
<!-- frc_robot_sim_PhysicsSim_SimProfile -->
<g id="node28" class="node">
<title>frc_robot_sim_PhysicsSim_SimProfile</title>
<ellipse fill="none" stroke="black" cx="915.05" cy="-497.05" rx="146.02" ry="30.05"/>
<text text-anchor="middle" x="915.05" y="-501" font-family="Times,serif" font-size="14.00">frc.robot</text>
<text text-anchor="middle" x="915.05" y="-483.75" font-family="Times,serif" font-size="14.00">sim.PhysicsSim.SimProfile</text>
</g>
<!-- frc_robot_sim_TalonFXSimProfile -->
<g id="node29" class="node">
<title>frc_robot_sim_TalonFXSimProfile</title>
<ellipse fill="none" stroke="black" cx="437.46" cy="-888.05" rx="125.87" ry="30.05"/>
<text text-anchor="middle" x="437.46" y="-892" font-family="Times,serif" font-size="14.00">frc.robot</text>
<text text-anchor="middle" x="437.46" y="-874.75" font-family="Times,serif" font-size="14.00">sim.TalonFXSimProfile</text>
</g>
<!-- frc_robot_sim_TalonFXSimProfile&#45;&gt;com_ctre_phoenix6_hardware_Pigeon2 -->
<g id="edge23" class="edge">
<title>frc_robot_sim_TalonFXSimProfile&#45;&gt;com_ctre_phoenix6_hardware_Pigeon2</title>
<path fill="none" stroke="black" d="M530.92,-908.49C580.3,-921.83 640.87,-942.2 690.07,-971.05 708.8,-982.03 706.75,-994.16 726.07,-1004.05 750.32,-1016.47 778.25,-1024.93 805.03,-1030.7"/>
<polygon fill="black" stroke="black" points="804.05,-1034.07 814.54,-1032.63 805.44,-1027.21 804.05,-1034.07"/>
</g>
<!-- frc_robot_sim_TalonFXSimProfile&#45;&gt;com_ctre_phoenix6_hardware_TalonFX -->
<g id="edge24" class="edge">
<title>frc_robot_sim_TalonFXSimProfile&#45;&gt;com_ctre_phoenix6_hardware_TalonFX</title>
<path fill="none" stroke="black" d="M542.54,-904.9C622.56,-917.86 732.52,-935.66 812.03,-948.53"/>
<polygon fill="black" stroke="black" points="811.11,-951.93 821.54,-950.08 812.23,-945.02 811.11,-951.93"/>
</g>
<!-- frc_robot_sim_TalonFXSimProfile&#45;&gt;com_ctre_phoenix6_sim_TalonFXSimState -->
<g id="edge25" class="edge">
<title>frc_robot_sim_TalonFXSimProfile&#45;&gt;com_ctre_phoenix6_sim_TalonFXSimState</title>
<path fill="none" stroke="black" d="M563.73,-887.79C631.38,-887.65 714.82,-887.47 783.29,-887.33"/>
<polygon fill="black" stroke="black" points="783.08,-890.83 793.07,-887.31 783.07,-883.83 783.08,-890.83"/>
</g>
<!-- frc_robot_sim_TalonFXSimProfile&#45;&gt;edu_wpi_first_math_system_plant_DCMotor -->
<g id="edge26" class="edge">
<title>frc_robot_sim_TalonFXSimProfile&#45;&gt;edu_wpi_first_math_system_plant_DCMotor</title>
<path fill="none" stroke="black" d="M545.06,-872.08C589.88,-865.23 642.55,-856.98 690.07,-849.05 722.54,-843.64 757.6,-837.51 790.13,-831.71"/>
<polygon fill="black" stroke="black" points="790.34,-835.22 799.57,-830.02 789.11,-828.33 790.34,-835.22"/>
</g>
<!-- frc_robot_sim_TalonFXSimProfile&#45;&gt;edu_wpi_first_math_system_plant_LinearSystemId -->
<g id="edge27" class="edge">
<title>frc_robot_sim_TalonFXSimProfile&#45;&gt;edu_wpi_first_math_system_plant_LinearSystemId</title>
<path fill="none" stroke="black" d="M562.41,-892.32C606.43,-888.12 653.96,-876.42 690.07,-849.05 720.83,-825.75 695.92,-794.13 726.07,-770.05 734.11,-763.64 742.93,-758.2 752.24,-753.6"/>
<polygon fill="black" stroke="black" points="753.49,-756.88 761.15,-749.56 750.59,-750.51 753.49,-756.88"/>
</g>
<!-- frc_robot_sim_TalonFXSimProfile&#45;&gt;edu_wpi_first_math_util_Units -->
<g id="edge28" class="edge">
<title>frc_robot_sim_TalonFXSimProfile&#45;&gt;edu_wpi_first_math_util_Units</title>
<path fill="none" stroke="black" d="M558.47,-896.63C604.89,-893.6 655.13,-881.58 690.07,-849.05 742.47,-800.28 674.93,-742.14 726.07,-692.05 749.72,-668.9 783.3,-657.84 815.55,-652.97"/>
<polygon fill="black" stroke="black" points="815.92,-656.45 825.38,-651.69 815.02,-649.51 815.92,-656.45"/>
</g>
<!-- frc_robot_sim_TalonFXSimProfile&#45;&gt;edu_wpi_first_wpilibj_simulation_DCMotorSim -->
<g id="edge29" class="edge">
<title>frc_robot_sim_TalonFXSimProfile&#45;&gt;edu_wpi_first_wpilibj_simulation_DCMotorSim</title>
<path fill="none" stroke="black" d="M556.79,-898.06C604.2,-895.56 655.64,-883.54 690.07,-849.05 764.72,-774.27 653.35,-690.7 726.07,-614.05 733.82,-605.89 742.78,-599.21 752.52,-593.75"/>
<polygon fill="black" stroke="black" points="753.81,-597.02 761.15,-589.37 750.64,-590.77 753.81,-597.02"/>
</g>
<!-- frc_robot_sim_TalonFXSimProfile&#45;&gt;frc_robot_sim_PhysicsSim_SimProfile -->
<g id="edge30" class="edge">
<title>frc_robot_sim_TalonFXSimProfile&#45;&gt;frc_robot_sim_PhysicsSim_SimProfile</title>
<path fill="none" stroke="black" d="M555.48,-898.78C603.54,-896.61 655.84,-884.66 690.07,-849.05 787.13,-748.11 631.62,-639.42 726.07,-536.05 736.57,-524.57 749.48,-515.98 763.59,-509.6"/>
<polygon fill="black" stroke="black" points="764.71,-512.93 772.65,-505.91 762.07,-506.44 764.71,-512.93"/>
</g>
</g>
</svg>
