<?xml version="1.0" encoding="UTF-8" standalone="no"?>
<!DOCTYPE svg PUBLIC "-//W3C//DTD SVG 1.1//EN"
 "http://www.w3.org/Graphics/SVG/1.1/DTD/svg11.dtd">
<!-- Generated by graphviz version 12.2.1 (0)
 -->
<!-- Title: PositionClosedLoop Pages: 1 -->
<svg width="1112pt" height="1432pt"
 viewBox="0.00 0.00 1112.02 1432.10" xmlns="http://www.w3.org/2000/svg" xmlns:xlink="http://www.w3.org/1999/xlink">
<g id="graph0" class="graph" transform="scale(1 1) rotate(0) translate(4 1428.1)">
<title>PositionClosedLoop</title>
<polygon fill="white" stroke="none" points="-4,4 -4,-1428.1 1108.02,-1428.1 1108.02,4 -4,4"/>
<!-- com_ctre_phoenix6_configs_TalonFXConfiguration -->
<g id="node1" class="node">
<title>com_ctre_phoenix6_configs_TalonFXConfiguration</title>
<ellipse fill="none" stroke="black" cx="437.46" cy="-1316.05" rx="159.81" ry="30.05"/>
<text text-anchor="middle" x="437.46" y="-1320" font-family="Times,serif" font-size="14.00">com.ctre.phoenix6</text>
<text text-anchor="middle" x="437.46" y="-1302.75" font-family="Times,serif" font-size="14.00">configs.TalonFXConfiguration</text>
</g>
<!-- com_ctre_phoenix6_controls_NeutralOut -->
<g id="node2" class="node">
<title>com_ctre_phoenix6_controls_NeutralOut</title>
<ellipse fill="none" stroke="black" cx="437.46" cy="-1238.05" rx="112.61" ry="30.05"/>
<text text-anchor="middle" x="437.46" y="-1242" font-family="Times,serif" font-size="14.00">com.ctre.phoenix6</text>
<text text-anchor="middle" x="437.46" y="-1224.75" font-family="Times,serif" font-size="14.00">controls.NeutralOut</text>
</g>
<!-- com_ctre_phoenix6_controls_PositionTorqueCurrentFOC -->
<g id="node3" class="node">
<title>com_ctre_phoenix6_controls_PositionTorqueCurrentFOC</title>
<ellipse fill="none" stroke="black" cx="437.46" cy="-1160.05" rx="192.69" ry="30.05"/>
<text text-anchor="middle" x="437.46" y="-1164" font-family="Times,serif" font-size="14.00">com.ctre.phoenix6</text>
<text text-anchor="middle" x="437.46" y="-1146.75" font-family="Times,serif" font-size="14.00">controls.PositionTorqueCurrentFOC</text>
</g>
<!-- com_ctre_phoenix6_controls_PositionVoltage -->
<g id="node4" class="node">
<title>com_ctre_phoenix6_controls_PositionVoltage</title>
<ellipse fill="none" stroke="black" cx="437.46" cy="-1082.05" rx="133.29" ry="30.05"/>
<text text-anchor="middle" x="437.46" y="-1086" font-family="Times,serif" font-size="14.00">com.ctre.phoenix6</text>
<text text-anchor="middle" x="437.46" y="-1068.75" font-family="Times,serif" font-size="14.00">controls.PositionVoltage</text>
</g>
<!-- com_ctre_phoenix6_hardware_TalonFX -->
<g id="node5" class="node">
<title>com_ctre_phoenix6_hardware_TalonFX</title>
<ellipse fill="none" stroke="black" cx="915.05" cy="-1004.05" rx="104.65" ry="30.05"/>
<text text-anchor="middle" x="915.05" y="-1008" font-family="Times,serif" font-size="14.00">com.ctre.phoenix6</text>
<text text-anchor="middle" x="915.05" y="-990.75" font-family="Times,serif" font-size="14.00">hardware.TalonFX</text>
</g>
<!-- com_ctre_phoenix6_sim_TalonFXSimState -->
<g id="node6" class="node">
<title>com_ctre_phoenix6_sim_TalonFXSimState</title>
<ellipse fill="none" stroke="black" cx="915.05" cy="-692.05" rx="120.03" ry="30.05"/>
<text text-anchor="middle" x="915.05" y="-696" font-family="Times,serif" font-size="14.00">com.ctre.phoenix6</text>
<text text-anchor="middle" x="915.05" y="-678.75" font-family="Times,serif" font-size="14.00">sim.TalonFXSimState</text>
</g>
<!-- com_ctre_phoenix6_StatusCode -->
<g id="node7" class="node">
<title>com_ctre_phoenix6_StatusCode</title>
<ellipse fill="none" stroke="black" cx="437.46" cy="-810.05" rx="104.65" ry="30.05"/>
<text text-anchor="middle" x="437.46" y="-814" font-family="Times,serif" font-size="14.00">com.ctre.phoenix6</text>
<text text-anchor="middle" x="437.46" y="-796.75" font-family="Times,serif" font-size="14.00">StatusCode</text>
</g>
<!-- com_ctre_phoenix6_StatusSignal -->
<g id="node8" class="node">
<title>com_ctre_phoenix6_StatusSignal</title>
<ellipse fill="none" stroke="black" cx="437.46" cy="-186.05" rx="104.65" ry="30.05"/>
<text text-anchor="middle" x="437.46" y="-190" font-family="Times,serif" font-size="14.00">com.ctre.phoenix6</text>
<text text-anchor="middle" x="437.46" y="-172.75" font-family="Times,serif" font-size="14.00">StatusSignal</text>
</g>
<!-- com_ctre_phoenix6_Utils -->
<g id="node9" class="node">
<title>com_ctre_phoenix6_Utils</title>
<ellipse fill="none" stroke="black" cx="915.05" cy="-1160.05" rx="104.65" ry="30.05"/>
<text text-anchor="middle" x="915.05" y="-1164" font-family="Times,serif" font-size="14.00">com.ctre.phoenix6</text>
<text text-anchor="middle" x="915.05" y="-1146.75" font-family="Times,serif" font-size="14.00">Utils</text>
</g>
<!-- edu_wpi_first_math_system_plant_DCMotor -->
<g id="node10" class="node">
<title>edu_wpi_first_math_system_plant_DCMotor</title>
<ellipse fill="none" stroke="black" cx="915.05" cy="-614.05" rx="155.03" ry="30.05"/>
<text text-anchor="middle" x="915.05" y="-618" font-family="Times,serif" font-size="14.00">edu.wpi.first</text>
<text text-anchor="middle" x="915.05" y="-600.75" font-family="Times,serif" font-size="14.00">math.system.plant.DCMotor</text>
</g>
<!-- edu_wpi_first_math_system_plant_LinearSystemId -->
<g id="node11" class="node">
<title>edu_wpi_first_math_system_plant_LinearSystemId</title>
<ellipse fill="none" stroke="black" cx="915.05" cy="-536.05" rx="188.97" ry="30.05"/>
<text text-anchor="middle" x="915.05" y="-540" font-family="Times,serif" font-size="14.00">edu.wpi.first</text>
<text text-anchor="middle" x="915.05" y="-522.75" font-family="Times,serif" font-size="14.00">math.system.plant.LinearSystemId</text>
</g>
<!-- edu_wpi_first_math_util_Units -->
<g id="node12" class="node">
<title>edu_wpi_first_math_util_Units</title>
<ellipse fill="none" stroke="black" cx="915.05" cy="-926.05" rx="88.21" ry="30.05"/>
<text text-anchor="middle" x="915.05" y="-930" font-family="Times,serif" font-size="14.00">edu.wpi.first</text>
<text text-anchor="middle" x="915.05" y="-912.75" font-family="Times,serif" font-size="14.00">math.util.Units</text>
</g>
<!-- edu_wpi_first_units_measure_Angle -->
<g id="node13" class="node">
<title>edu_wpi_first_units_measure_Angle</title>
<ellipse fill="none" stroke="black" cx="437.46" cy="-108.05" rx="115.26" ry="30.05"/>
<text text-anchor="middle" x="437.46" y="-112" font-family="Times,serif" font-size="14.00">edu.wpi.first</text>
<text text-anchor="middle" x="437.46" y="-94.75" font-family="Times,serif" font-size="14.00">units.measure.Angle</text>
</g>
<!-- edu_wpi_first_units_Units -->
<g id="node14" class="node">
<title>edu_wpi_first_units_Units</title>
<ellipse fill="none" stroke="black" cx="437.46" cy="-576.05" rx="74.95" ry="30.05"/>
<text text-anchor="middle" x="437.46" y="-580" font-family="Times,serif" font-size="14.00">edu.wpi.first</text>
<text text-anchor="middle" x="437.46" y="-562.75" font-family="Times,serif" font-size="14.00">units.Units</text>
</g>
<!-- edu_wpi_first_wpilibj_RobotBase -->
<g id="node15" class="node">
<title>edu_wpi_first_wpilibj_RobotBase</title>
<ellipse fill="none" stroke="black" cx="437.46" cy="-1394.05" rx="102.53" ry="30.05"/>
<text text-anchor="middle" x="437.46" y="-1398" font-family="Times,serif" font-size="14.00">edu.wpi.first</text>
<text text-anchor="middle" x="437.46" y="-1380.75" font-family="Times,serif" font-size="14.00">wpilibj.RobotBase</text>
</g>
<!-- edu_wpi_first_wpilibj_simulation_DCMotorSim -->
<g id="node16" class="node">
<title>edu_wpi_first_wpilibj_simulation_DCMotorSim</title>
<ellipse fill="none" stroke="black" cx="915.05" cy="-848.05" rx="170.41" ry="30.05"/>
<text text-anchor="middle" x="915.05" y="-852" font-family="Times,serif" font-size="14.00">edu.wpi.first</text>
<text text-anchor="middle" x="915.05" y="-834.75" font-family="Times,serif" font-size="14.00">wpilibj.simulation.DCMotorSim</text>
</g>
<!-- edu_wpi_first_wpilibj_smartdashboard_Mechanism2d -->
<g id="node17" class="node">
<title>edu_wpi_first_wpilibj_smartdashboard_Mechanism2d</title>
<ellipse fill="none" stroke="black" cx="437.46" cy="-30.05" rx="204.88" ry="30.05"/>
<text text-anchor="middle" x="437.46" y="-34" font-family="Times,serif" font-size="14.00">edu.wpi.first</text>
<text text-anchor="middle" x="437.46" y="-16.75" font-family="Times,serif" font-size="14.00">wpilibj.smartdashboard.Mechanism2d</text>
</g>
<!-- edu_wpi_first_wpilibj_smartdashboard_MechanismLigament2d -->
<g id="node18" class="node">
<title>edu_wpi_first_wpilibj_smartdashboard_MechanismLigament2d</title>
<ellipse fill="none" stroke="black" cx="437.46" cy="-498.05" rx="252.61" ry="30.05"/>
<text text-anchor="middle" x="437.46" y="-502" font-family="Times,serif" font-size="14.00">edu.wpi.first</text>
<text text-anchor="middle" x="437.46" y="-484.75" font-family="Times,serif" font-size="14.00">wpilibj.smartdashboard.MechanismLigament2d</text>
</g>
<!-- edu_wpi_first_wpilibj_smartdashboard_SmartDashboard -->
<g id="node19" class="node">
<title>edu_wpi_first_wpilibj_smartdashboard_SmartDashboard</title>
<ellipse fill="none" stroke="black" cx="437.46" cy="-420.05" rx="220.26" ry="30.05"/>
<text text-anchor="middle" x="437.46" y="-424" font-family="Times,serif" font-size="14.00">edu.wpi.first</text>
<text text-anchor="middle" x="437.46" y="-406.75" font-family="Times,serif" font-size="14.00">wpilibj.smartdashboard.SmartDashboard</text>
</g>
<!-- edu_wpi_first_wpilibj_TimedRobot -->
<g id="node20" class="node">
<title>edu_wpi_first_wpilibj_TimedRobot</title>
<ellipse fill="none" stroke="black" cx="437.46" cy="-732.05" rx="109.42" ry="30.05"/>
<text text-anchor="middle" x="437.46" y="-736" font-family="Times,serif" font-size="14.00">edu.wpi.first</text>
<text text-anchor="middle" x="437.46" y="-718.75" font-family="Times,serif" font-size="14.00">wpilibj.TimedRobot</text>
</g>
<!-- edu_wpi_first_wpilibj_util_Color -->
<g id="node21" class="node">
<title>edu_wpi_first_wpilibj_util_Color</title>
<ellipse fill="none" stroke="black" cx="437.46" cy="-342.05" rx="95.64" ry="30.05"/>
<text text-anchor="middle" x="437.46" y="-346" font-family="Times,serif" font-size="14.00">edu.wpi.first</text>
<text text-anchor="middle" x="437.46" y="-328.75" font-family="Times,serif" font-size="14.00">wpilibj.util.Color</text>
</g>
<!-- edu_wpi_first_wpilibj_util_Color8Bit -->
<g id="node22" class="node">
<title>edu_wpi_first_wpilibj_util_Color8Bit</title>
<ellipse fill="none" stroke="black" cx="437.46" cy="-264.05" rx="116.85" ry="30.05"/>
<text text-anchor="middle" x="437.46" y="-268" font-family="Times,serif" font-size="14.00">edu.wpi.first</text>
<text text-anchor="middle" x="437.46" y="-250.75" font-family="Times,serif" font-size="14.00">wpilibj.util.Color8Bit</text>
</g>
<!-- edu_wpi_first_wpilibj_XboxController -->
<g id="node23" class="node">
<title>edu_wpi_first_wpilibj_XboxController</title>
<ellipse fill="none" stroke="black" cx="437.46" cy="-654.05" rx="124.8" ry="30.05"/>
<text text-anchor="middle" x="437.46" y="-658" font-family="Times,serif" font-size="14.00">edu.wpi.first</text>
<text text-anchor="middle" x="437.46" y="-640.75" font-family="Times,serif" font-size="14.00">wpilibj.XboxController</text>
</g>
<!-- frc_robot_Main -->
<g id="node24" class="node">
<title>frc_robot_Main</title>
<ellipse fill="none" stroke="black" cx="74.42" cy="-1394.05" rx="55.33" ry="30.05"/>
<text text-anchor="middle" x="74.42" y="-1398" font-family="Times,serif" font-size="14.00">frc.robot</text>
<text text-anchor="middle" x="74.42" y="-1380.75" font-family="Times,serif" font-size="14.00">Main</text>
</g>
<!-- frc_robot_Main&#45;&gt;edu_wpi_first_wpilibj_RobotBase -->
<g id="edge29" class="edge">
<title>frc_robot_Main&#45;&gt;edu_wpi_first_wpilibj_RobotBase</title>
<path fill="none" stroke="black" d="M129.86,-1394.05C180.88,-1394.05 258.71,-1394.05 323.19,-1394.05"/>
<polygon fill="black" stroke="black" points="323.14,-1397.55 333.14,-1394.05 323.14,-1390.55 323.14,-1397.55"/>
</g>
<!-- frc_robot_Mechanisms -->
<g id="node25" class="node">
<title>frc_robot_Mechanisms</title>
<ellipse fill="none" stroke="black" cx="74.42" cy="-303.05" rx="74.42" ry="30.05"/>
<text text-anchor="middle" x="74.42" y="-307" font-family="Times,serif" font-size="14.00">frc.robot</text>
<text text-anchor="middle" x="74.42" y="-289.75" font-family="Times,serif" font-size="14.00">Mechanisms</text>
</g>
<!-- frc_robot_Mechanisms&#45;&gt;com_ctre_phoenix6_StatusSignal -->
<g id="edge12" class="edge">
<title>frc_robot_Mechanisms&#45;&gt;com_ctre_phoenix6_StatusSignal</title>
<path fill="none" stroke="black" d="M105.64,-275.59C126.41,-258.28 155.46,-237.01 184.85,-225.05 227.97,-207.5 278.21,-197.79 322.4,-192.44"/>
<polygon fill="black" stroke="black" points="322.75,-195.92 332.29,-191.31 321.96,-188.97 322.75,-195.92"/>
</g>
<!-- frc_robot_Mechanisms&#45;&gt;edu_wpi_first_units_measure_Angle -->
<g id="edge13" class="edge">
<title>frc_robot_Mechanisms&#45;&gt;edu_wpi_first_units_measure_Angle</title>
<path fill="none" stroke="black" d="M87.57,-273.08C103.93,-236.85 136.67,-177.02 184.85,-147.05 222.06,-123.91 268.19,-112.84 310.74,-107.96"/>
<polygon fill="black" stroke="black" points="310.96,-111.46 320.55,-106.96 310.24,-104.5 310.96,-111.46"/>
</g>
<!-- frc_robot_Mechanisms&#45;&gt;edu_wpi_first_units_Units -->
<g id="edge11" class="edge">
<title>frc_robot_Mechanisms&#45;&gt;edu_wpi_first_units_Units</title>
<path fill="none" stroke="black" d="M80.29,-333.51C90.15,-384.52 117.58,-486.59 184.85,-537.05 232.37,-572.7 299.34,-581.67 352.24,-582.14"/>
<polygon fill="black" stroke="black" points="352.14,-585.64 362.13,-582.12 352.12,-578.64 352.14,-585.64"/>
</g>
<!-- frc_robot_Mechanisms&#45;&gt;edu_wpi_first_wpilibj_smartdashboard_Mechanism2d -->
<g id="edge14" class="edge">
<title>frc_robot_Mechanisms&#45;&gt;edu_wpi_first_wpilibj_smartdashboard_Mechanism2d</title>
<path fill="none" stroke="black" d="M80.29,-272.59C90.15,-221.58 117.58,-119.51 184.85,-69.05 199.2,-58.29 215.32,-49.96 232.29,-43.56"/>
<polygon fill="black" stroke="black" points="233.25,-46.93 241.53,-40.32 230.94,-40.32 233.25,-46.93"/>
</g>
<!-- frc_robot_Mechanisms&#45;&gt;edu_wpi_first_wpilibj_smartdashboard_MechanismLigament2d -->
<g id="edge15" class="edge">
<title>frc_robot_Mechanisms&#45;&gt;edu_wpi_first_wpilibj_smartdashboard_MechanismLigament2d</title>
<path fill="none" stroke="black" d="M87.57,-333.03C103.93,-369.26 136.67,-429.09 184.85,-459.05 195.92,-465.94 207.78,-471.75 220.09,-476.66"/>
<polygon fill="black" stroke="black" points="218.53,-479.81 229.13,-480.03 220.98,-473.25 218.53,-479.81"/>
</g>
<!-- frc_robot_Mechanisms&#45;&gt;edu_wpi_first_wpilibj_smartdashboard_SmartDashboard -->
<g id="edge16" class="edge">
<title>frc_robot_Mechanisms&#45;&gt;edu_wpi_first_wpilibj_smartdashboard_SmartDashboard</title>
<path fill="none" stroke="black" d="M105.64,-330.52C126.41,-347.83 155.46,-369.09 184.85,-381.05 203.93,-388.82 224.41,-395.05 245.15,-400.05"/>
<polygon fill="black" stroke="black" points="244.34,-403.46 254.87,-402.29 245.91,-396.64 244.34,-403.46"/>
</g>
<!-- frc_robot_Mechanisms&#45;&gt;edu_wpi_first_wpilibj_util_Color -->
<g id="edge17" class="edge">
<title>frc_robot_Mechanisms&#45;&gt;edu_wpi_first_wpilibj_util_Color</title>
<path fill="none" stroke="black" d="M146.75,-310.76C200.52,-316.57 274.99,-324.61 334.96,-331.09"/>
<polygon fill="black" stroke="black" points="334.54,-334.56 344.86,-332.16 335.29,-327.6 334.54,-334.56"/>
</g>
<!-- frc_robot_Mechanisms&#45;&gt;edu_wpi_first_wpilibj_util_Color8Bit -->
<g id="edge18" class="edge">
<title>frc_robot_Mechanisms&#45;&gt;edu_wpi_first_wpilibj_util_Color8Bit</title>
<path fill="none" stroke="black" d="M146.75,-295.35C195.49,-290.08 261.25,-282.98 317.79,-276.87"/>
<polygon fill="black" stroke="black" points="317.9,-280.38 327.47,-275.83 317.15,-273.42 317.9,-280.38"/>
</g>
<!-- frc_robot_Robot -->
<g id="node26" class="node">
<title>frc_robot_Robot</title>
<ellipse fill="none" stroke="black" cx="74.42" cy="-975.05" rx="55.33" ry="30.05"/>
<text text-anchor="middle" x="74.42" y="-979" font-family="Times,serif" font-size="14.00">frc.robot</text>
<text text-anchor="middle" x="74.42" y="-961.75" font-family="Times,serif" font-size="14.00">Robot</text>
</g>
<!-- frc_robot_Robot&#45;&gt;com_ctre_phoenix6_configs_TalonFXConfiguration -->
<g id="edge3" class="edge">
<title>frc_robot_Robot&#45;&gt;com_ctre_phoenix6_configs_TalonFXConfiguration</title>
<path fill="none" stroke="black" d="M76.69,-1005.13C81.04,-1066.76 100.23,-1207.43 184.85,-1277.05 208.1,-1296.19 236.8,-1307.9 266.4,-1314.79"/>
<polygon fill="black" stroke="black" points="265.35,-1318.14 275.86,-1316.79 266.8,-1311.29 265.35,-1318.14"/>
</g>
<!-- frc_robot_Robot&#45;&gt;com_ctre_phoenix6_controls_NeutralOut -->
<g id="edge4" class="edge">
<title>frc_robot_Robot&#45;&gt;com_ctre_phoenix6_controls_NeutralOut</title>
<path fill="none" stroke="black" d="M80.87,-1005.03C91.49,-1054.17 119.87,-1151.17 184.85,-1199.05 221.83,-1226.31 270.27,-1237.86 314.75,-1241.97"/>
<polygon fill="black" stroke="black" points="314.21,-1245.44 324.46,-1242.74 314.76,-1238.46 314.21,-1245.44"/>
</g>
<!-- frc_robot_Robot&#45;&gt;com_ctre_phoenix6_controls_PositionTorqueCurrentFOC -->
<g id="edge5" class="edge">
<title>frc_robot_Robot&#45;&gt;com_ctre_phoenix6_controls_PositionTorqueCurrentFOC</title>
<path fill="none" stroke="black" d="M88.69,-1004.33C105.77,-1038.37 138.81,-1093.42 184.85,-1121.05 203.41,-1132.2 224.08,-1140.5 245.37,-1146.65"/>
<polygon fill="black" stroke="black" points="244.17,-1149.95 254.74,-1149.19 246,-1143.2 244.17,-1149.95"/>
</g>
<!-- frc_robot_Robot&#45;&gt;com_ctre_phoenix6_controls_PositionVoltage -->
<g id="edge6" class="edge">
<title>frc_robot_Robot&#45;&gt;com_ctre_phoenix6_controls_PositionVoltage</title>
<path fill="none" stroke="black" d="M107.14,-999.57C128.08,-1014.49 156.74,-1032.64 184.85,-1043.05 220.87,-1056.4 261.44,-1065.19 299.32,-1070.96"/>
<polygon fill="black" stroke="black" points="298.55,-1074.38 308.95,-1072.37 299.56,-1067.46 298.55,-1074.38"/>
</g>
<!-- frc_robot_Robot&#45;&gt;com_ctre_phoenix6_hardware_TalonFX -->
<g id="edge7" class="edge">
<title>frc_robot_Robot&#45;&gt;com_ctre_phoenix6_hardware_TalonFX</title>
<path fill="none" stroke="black" d="M129.06,-969.17C146.8,-967.48 166.65,-965.88 184.85,-965.05 409.16,-954.82 466.36,-945.72 690.07,-965.05 732.76,-968.74 779.51,-976.31 819.2,-983.81"/>
<polygon fill="black" stroke="black" points="818.51,-987.24 828.99,-985.69 819.83,-980.37 818.51,-987.24"/>
</g>
<!-- frc_robot_Robot&#45;&gt;com_ctre_phoenix6_StatusCode -->
<g id="edge2" class="edge">
<title>frc_robot_Robot&#45;&gt;com_ctre_phoenix6_StatusCode</title>
<path fill="none" stroke="black" d="M91.89,-946.29C110.45,-916.73 143.51,-871.89 184.85,-849.05 225.96,-826.34 276.28,-815.76 321.09,-811.16"/>
<polygon fill="black" stroke="black" points="321.22,-814.66 330.85,-810.25 320.57,-807.69 321.22,-814.66"/>
</g>
<!-- frc_robot_Robot&#45;&gt;edu_wpi_first_units_Units -->
<g id="edge1" class="edge">
<title>frc_robot_Robot&#45;&gt;edu_wpi_first_units_Units</title>
<path fill="none" stroke="black" d="M74.67,-944.52C74.75,-874.39 85.56,-701.22 184.85,-615.05 230.59,-575.36 299.43,-566.98 353.56,-567.77"/>
<polygon fill="black" stroke="black" points="353.26,-571.26 363.35,-568.03 353.45,-564.26 353.26,-571.26"/>
</g>
<!-- frc_robot_Robot&#45;&gt;edu_wpi_first_wpilibj_TimedRobot -->
<g id="edge8" class="edge">
<title>frc_robot_Robot&#45;&gt;edu_wpi_first_wpilibj_TimedRobot</title>
<path fill="none" stroke="black" d="M82.4,-945.12C94.7,-899.54 124.82,-813.55 184.85,-771.05 222.93,-744.09 272.38,-732.73 317.36,-728.69"/>
<polygon fill="black" stroke="black" points="317.47,-732.19 327.17,-727.93 316.94,-725.21 317.47,-732.19"/>
</g>
<!-- frc_robot_Robot&#45;&gt;edu_wpi_first_wpilibj_XboxController -->
<g id="edge9" class="edge">
<title>frc_robot_Robot&#45;&gt;edu_wpi_first_wpilibj_XboxController</title>
<path fill="none" stroke="black" d="M77.6,-944.68C83.55,-885.92 105.45,-756.89 184.85,-693.05 217.9,-666.47 261.53,-654.34 303.15,-649.56"/>
<polygon fill="black" stroke="black" points="303.43,-653.05 313.04,-648.57 302.74,-646.08 303.43,-653.05"/>
</g>
<!-- frc_robot_sim_PhysicsSim -->
<g id="node27" class="node">
<title>frc_robot_sim_PhysicsSim</title>
<ellipse fill="none" stroke="black" cx="437.46" cy="-1004.05" rx="90.33" ry="30.05"/>
<text text-anchor="middle" x="437.46" y="-1008" font-family="Times,serif" font-size="14.00">frc.robot</text>
<text text-anchor="middle" x="437.46" y="-990.75" font-family="Times,serif" font-size="14.00">sim.PhysicsSim</text>
</g>
<!-- frc_robot_Robot&#45;&gt;frc_robot_sim_PhysicsSim -->
<g id="edge10" class="edge">
<title>frc_robot_Robot&#45;&gt;frc_robot_sim_PhysicsSim</title>
<path fill="none" stroke="black" d="M129.47,-979.39C184.42,-983.81 270.79,-990.74 337.94,-996.14"/>
<polygon fill="black" stroke="black" points="337.63,-999.63 347.88,-996.94 338.19,-992.65 337.63,-999.63"/>
</g>
<!-- frc_robot_sim_PhysicsSim&#45;&gt;com_ctre_phoenix6_hardware_TalonFX -->
<g id="edge21" class="edge">
<title>frc_robot_sim_PhysicsSim&#45;&gt;com_ctre_phoenix6_hardware_TalonFX</title>
<path fill="none" stroke="black" d="M528.19,-1004.05C604.89,-1004.05 715.7,-1004.05 798.92,-1004.05"/>
<polygon fill="black" stroke="black" points="798.7,-1007.55 808.7,-1004.05 798.7,-1000.55 798.7,-1007.55"/>
</g>
<!-- frc_robot_sim_PhysicsSim&#45;&gt;com_ctre_phoenix6_Utils -->
<g id="edge20" class="edge">
<title>frc_robot_sim_PhysicsSim&#45;&gt;com_ctre_phoenix6_Utils</title>
<path fill="none" stroke="black" d="M526.18,-997.92C578.54,-998.72 643.66,-1008.05 690.07,-1043.05 720.56,-1066.04 696.18,-1097.3 726.07,-1121.05 747.08,-1137.74 773.46,-1147.8 799.76,-1153.73"/>
<polygon fill="black" stroke="black" points="799.03,-1157.15 809.53,-1155.73 800.43,-1150.3 799.03,-1157.15"/>
</g>
<!-- java_util_ArrayList -->
<g id="node30" class="node">
<title>java_util_ArrayList</title>
<ellipse fill="none" stroke="black" cx="915.05" cy="-1082.05" rx="58.51" ry="30.05"/>
<text text-anchor="middle" x="915.05" y="-1086" font-family="Times,serif" font-size="14.00">java.util</text>
<text text-anchor="middle" x="915.05" y="-1068.75" font-family="Times,serif" font-size="14.00">ArrayList</text>
</g>
<!-- frc_robot_sim_PhysicsSim&#45;&gt;java_util_ArrayList -->
<g id="edge19" class="edge">
<title>frc_robot_sim_PhysicsSim&#45;&gt;java_util_ArrayList</title>
<path fill="none" stroke="black" d="M520.39,-1016.36C569.62,-1023.85 633.48,-1033.74 690.07,-1043.05 743.28,-1051.81 803.48,-1062.32 848.06,-1070.23"/>
<polygon fill="black" stroke="black" points="847.38,-1073.66 857.84,-1071.97 848.6,-1066.77 847.38,-1073.66"/>
</g>
<!-- frc_robot_sim_PhysicsSim_SimProfile -->
<g id="node28" class="node">
<title>frc_robot_sim_PhysicsSim_SimProfile</title>
<ellipse fill="none" stroke="black" cx="915.05" cy="-770.05" rx="146.02" ry="30.05"/>
<text text-anchor="middle" x="915.05" y="-774" font-family="Times,serif" font-size="14.00">frc.robot</text>
<text text-anchor="middle" x="915.05" y="-756.75" font-family="Times,serif" font-size="14.00">sim.PhysicsSim.SimProfile</text>
</g>
<!-- frc_robot_sim_TalonFXSimProfile -->
<g id="node29" class="node">
<title>frc_robot_sim_TalonFXSimProfile</title>
<ellipse fill="none" stroke="black" cx="437.46" cy="-888.05" rx="125.87" ry="30.05"/>
<text text-anchor="middle" x="437.46" y="-892" font-family="Times,serif" font-size="14.00">frc.robot</text>
<text text-anchor="middle" x="437.46" y="-874.75" font-family="Times,serif" font-size="14.00">sim.TalonFXSimProfile</text>
</g>
<!-- frc_robot_sim_TalonFXSimProfile&#45;&gt;com_ctre_phoenix6_hardware_TalonFX -->
<g id="edge22" class="edge">
<title>frc_robot_sim_TalonFXSimProfile&#45;&gt;com_ctre_phoenix6_hardware_TalonFX</title>
<path fill="none" stroke="black" d="M559.93,-895.24C602.72,-901.35 650.09,-912.36 690.07,-932.05 709.55,-941.64 706.75,-955.16 726.07,-965.05 750.32,-977.47 778.25,-985.93 805.03,-991.7"/>
<polygon fill="black" stroke="black" points="804.05,-995.07 814.54,-993.63 805.44,-988.21 804.05,-995.07"/>
</g>
<!-- frc_robot_sim_TalonFXSimProfile&#45;&gt;com_ctre_phoenix6_sim_TalonFXSimState -->
<g id="edge23" class="edge">
<title>frc_robot_sim_TalonFXSimProfile&#45;&gt;com_ctre_phoenix6_sim_TalonFXSimState</title>
<path fill="none" stroke="black" d="M560.24,-895.16C605.68,-891.65 654.75,-879.67 690.07,-849.05 731.5,-813.14 685.57,-768.01 726.07,-731.05 742.61,-715.97 763.4,-706.11 785.08,-699.78"/>
<polygon fill="black" stroke="black" points="785.89,-703.19 794.67,-697.25 784.11,-696.42 785.89,-703.19"/>
</g>
<!-- frc_robot_sim_TalonFXSimProfile&#45;&gt;edu_wpi_first_math_system_plant_DCMotor -->
<g id="edge24" class="edge">
<title>frc_robot_sim_TalonFXSimProfile&#45;&gt;edu_wpi_first_math_system_plant_DCMotor</title>
<path fill="none" stroke="black" d="M557.58,-897.49C604.56,-894.76 655.45,-882.72 690.07,-849.05 753.57,-787.3 664.17,-716.39 726.07,-653.05 735.82,-643.08 747.39,-635.33 759.94,-629.34"/>
<polygon fill="black" stroke="black" points="761.02,-632.68 768.81,-625.5 758.24,-626.26 761.02,-632.68"/>
</g>
<!-- frc_robot_sim_TalonFXSimProfile&#45;&gt;edu_wpi_first_math_system_plant_LinearSystemId -->
<g id="edge25" class="edge">
<title>frc_robot_sim_TalonFXSimProfile&#45;&gt;edu_wpi_first_math_system_plant_LinearSystemId</title>
<path fill="none" stroke="black" d="M556.18,-898.47C603.92,-896.14 655.78,-884.15 690.07,-849.05 775.91,-761.2 642.49,-665.05 726.07,-575.05 732.13,-568.53 738.98,-562.94 746.37,-558.16"/>
<polygon fill="black" stroke="black" points="747.83,-561.36 754.71,-553.3 744.31,-555.31 747.83,-561.36"/>
</g>
<!-- frc_robot_sim_TalonFXSimProfile&#45;&gt;edu_wpi_first_math_util_Units -->
<g id="edge26" class="edge">
<title>frc_robot_sim_TalonFXSimProfile&#45;&gt;edu_wpi_first_math_util_Units</title>
<path fill="none" stroke="black" d="M557.24,-897.54C637.58,-903.96 742.34,-912.33 817.54,-918.34"/>
<polygon fill="black" stroke="black" points="817.12,-921.82 827.37,-919.13 817.68,-914.84 817.12,-921.82"/>
</g>
<!-- frc_robot_sim_TalonFXSimProfile&#45;&gt;edu_wpi_first_wpilibj_simulation_DCMotorSim -->
<g id="edge27" class="edge">
<title>frc_robot_sim_TalonFXSimProfile&#45;&gt;edu_wpi_first_wpilibj_simulation_DCMotorSim</title>
<path fill="none" stroke="black" d="M556.63,-878.11C614.76,-873.22 685.79,-867.25 749.17,-861.92"/>
<polygon fill="black" stroke="black" points="749.32,-865.42 758.99,-861.09 748.73,-858.44 749.32,-865.42"/>
</g>
<!-- frc_robot_sim_TalonFXSimProfile&#45;&gt;frc_robot_sim_PhysicsSim_SimProfile -->
<g id="edge28" class="edge">
<title>frc_robot_sim_TalonFXSimProfile&#45;&gt;frc_robot_sim_PhysicsSim_SimProfile</title>
<path fill="none" stroke="black" d="M563.18,-885.49C605.47,-880.37 651.68,-869.82 690.07,-849.05 711.11,-837.67 705.33,-820.96 726.07,-809.05 741.51,-800.19 758.69,-793.32 776.21,-788.01"/>
<polygon fill="black" stroke="black" points="777.04,-791.42 785.7,-785.31 775.12,-784.68 777.04,-791.42"/>
</g>
</g>
</svg>
