<?xml version="1.0" encoding="UTF-8" standalone="no"?>
<!DOCTYPE svg PUBLIC "-//W3C//DTD SVG 1.1//EN"
 "http://www.w3.org/Graphics/SVG/1.1/DTD/svg11.dtd">
<!-- Generated by graphviz version 12.2.1 (0)
 -->
<!-- Title: PWMTalonFXS Pages: 1 -->
<svg width="669pt" height="926pt"
 viewBox="0.00 0.00 669.44 926.10" xmlns="http://www.w3.org/2000/svg" xmlns:xlink="http://www.w3.org/1999/xlink">
<g id="graph0" class="graph" transform="scale(1 1) rotate(0) translate(4 922.1)">
<title>PWMTalonFXS</title>
<polygon fill="white" stroke="none" points="-4,4 -4,-922.1 665.44,-922.1 665.44,4 -4,4"/>
<!-- edu_wpi_first_hal_FRCNetComm_tResourceType -->
<g id="node1" class="node">
<title>edu_wpi_first_hal_FRCNetComm_tResourceType</title>
<ellipse fill="none" stroke="black" cx="434.81" cy="-576.05" rx="181.02" ry="30.05"/>
<text text-anchor="middle" x="434.81" y="-580" font-family="Times,serif" font-size="14.00">edu.wpi.first</text>
<text text-anchor="middle" x="434.81" y="-562.75" font-family="Times,serif" font-size="14.00">hal.FRCNetComm.tResourceType</text>
</g>
<!-- edu_wpi_first_hal_HAL -->
<g id="node2" class="node">
<title>edu_wpi_first_hal_HAL</title>
<ellipse fill="none" stroke="black" cx="434.81" cy="-498.05" rx="74.95" ry="30.05"/>
<text text-anchor="middle" x="434.81" y="-502" font-family="Times,serif" font-size="14.00">edu.wpi.first</text>
<text text-anchor="middle" x="434.81" y="-484.75" font-family="Times,serif" font-size="14.00">hal.HAL</text>
</g>
<!-- edu_wpi_first_wpilibj_DriverStation -->
<g id="node3" class="node">
<title>edu_wpi_first_wpilibj_DriverStation</title>
<ellipse fill="none" stroke="black" cx="434.81" cy="-420.05" rx="117.38" ry="30.05"/>
<text text-anchor="middle" x="434.81" y="-424" font-family="Times,serif" font-size="14.00">edu.wpi.first</text>
<text text-anchor="middle" x="434.81" y="-406.75" font-family="Times,serif" font-size="14.00">wpilibj.DriverStation</text>
</g>
<!-- edu_wpi_first_wpilibj_motorcontrol_PWMMotorController -->
<g id="node4" class="node">
<title>edu_wpi_first_wpilibj_motorcontrol_PWMMotorController</title>
<ellipse fill="none" stroke="black" cx="434.81" cy="-342.05" rx="226.63" ry="30.05"/>
<text text-anchor="middle" x="434.81" y="-346" font-family="Times,serif" font-size="14.00">edu.wpi.first</text>
<text text-anchor="middle" x="434.81" y="-328.75" font-family="Times,serif" font-size="14.00">wpilibj.motorcontrol.PWMMotorController</text>
</g>
<!-- edu_wpi_first_wpilibj_PWM -->
<g id="node5" class="node">
<title>edu_wpi_first_wpilibj_PWM</title>
<ellipse fill="none" stroke="black" cx="434.81" cy="-264.05" rx="75.48" ry="30.05"/>
<text text-anchor="middle" x="434.81" y="-268" font-family="Times,serif" font-size="14.00">edu.wpi.first</text>
<text text-anchor="middle" x="434.81" y="-250.75" font-family="Times,serif" font-size="14.00">wpilibj.PWM</text>
</g>
<!-- edu_wpi_first_wpilibj_RobotBase -->
<g id="node6" class="node">
<title>edu_wpi_first_wpilibj_RobotBase</title>
<ellipse fill="none" stroke="black" cx="434.81" cy="-654.05" rx="102.53" ry="30.05"/>
<text text-anchor="middle" x="434.81" y="-658" font-family="Times,serif" font-size="14.00">edu.wpi.first</text>
<text text-anchor="middle" x="434.81" y="-640.75" font-family="Times,serif" font-size="14.00">wpilibj.RobotBase</text>
</g>
<!-- edu_wpi_first_wpilibj_TimedRobot -->
<g id="node7" class="node">
<title>edu_wpi_first_wpilibj_TimedRobot</title>
<ellipse fill="none" stroke="black" cx="434.81" cy="-888.05" rx="109.42" ry="30.05"/>
<text text-anchor="middle" x="434.81" y="-892" font-family="Times,serif" font-size="14.00">edu.wpi.first</text>
<text text-anchor="middle" x="434.81" y="-874.75" font-family="Times,serif" font-size="14.00">wpilibj.TimedRobot</text>
</g>
<!-- edu_wpi_first_wpilibj_Timer -->
<g id="node8" class="node">
<title>edu_wpi_first_wpilibj_Timer</title>
<ellipse fill="none" stroke="black" cx="434.81" cy="-186.05" rx="78.14" ry="30.05"/>
<text text-anchor="middle" x="434.81" y="-190" font-family="Times,serif" font-size="14.00">edu.wpi.first</text>
<text text-anchor="middle" x="434.81" y="-172.75" font-family="Times,serif" font-size="14.00">wpilibj.Timer</text>
</g>
<!-- edu_wpi_first_wpilibj_XboxController -->
<g id="node9" class="node">
<title>edu_wpi_first_wpilibj_XboxController</title>
<ellipse fill="none" stroke="black" cx="434.81" cy="-810.05" rx="124.8" ry="30.05"/>
<text text-anchor="middle" x="434.81" y="-814" font-family="Times,serif" font-size="14.00">edu.wpi.first</text>
<text text-anchor="middle" x="434.81" y="-796.75" font-family="Times,serif" font-size="14.00">wpilibj.XboxController</text>
</g>
<!-- frc_robot_Main -->
<g id="node10" class="node">
<title>frc_robot_Main</title>
<ellipse fill="none" stroke="black" cx="86.09" cy="-654.05" rx="55.33" ry="30.05"/>
<text text-anchor="middle" x="86.09" y="-658" font-family="Times,serif" font-size="14.00">frc.robot</text>
<text text-anchor="middle" x="86.09" y="-640.75" font-family="Times,serif" font-size="14.00">Main</text>
</g>
<!-- frc_robot_Main&#45;&gt;edu_wpi_first_wpilibj_RobotBase -->
<g id="edge12" class="edge">
<title>frc_robot_Main&#45;&gt;edu_wpi_first_wpilibj_RobotBase</title>
<path fill="none" stroke="black" d="M141.65,-654.05C189.48,-654.05 260.57,-654.05 320.64,-654.05"/>
<polygon fill="black" stroke="black" points="320.6,-657.55 330.6,-654.05 320.6,-650.55 320.6,-657.55"/>
</g>
<!-- frc_robot_PWMTalonFXS -->
<g id="node11" class="node">
<title>frc_robot_PWMTalonFXS</title>
<ellipse fill="none" stroke="black" cx="86.09" cy="-303.05" rx="86.09" ry="30.05"/>
<text text-anchor="middle" x="86.09" y="-307" font-family="Times,serif" font-size="14.00">frc.robot</text>
<text text-anchor="middle" x="86.09" y="-289.75" font-family="Times,serif" font-size="14.00">PWMTalonFXS</text>
</g>
<!-- frc_robot_PWMTalonFXS&#45;&gt;edu_wpi_first_hal_FRCNetComm_tResourceType -->
<g id="edge7" class="edge">
<title>frc_robot_PWMTalonFXS&#45;&gt;edu_wpi_first_hal_FRCNetComm_tResourceType</title>
<path fill="none" stroke="black" d="M93.6,-333.46C106.2,-384.4 138.99,-486.37 208.18,-537.05 222.39,-547.46 238.44,-555.43 255.26,-561.5"/>
<polygon fill="black" stroke="black" points="253.8,-564.7 264.39,-564.56 256.02,-558.07 253.8,-564.7"/>
</g>
<!-- frc_robot_PWMTalonFXS&#45;&gt;edu_wpi_first_hal_HAL -->
<g id="edge6" class="edge">
<title>frc_robot_PWMTalonFXS&#45;&gt;edu_wpi_first_hal_HAL</title>
<path fill="none" stroke="black" d="M101.49,-332.92C120.56,-369.05 157.78,-428.77 208.18,-459.05 250.03,-484.19 303.65,-494.19 348.12,-497.78"/>
<polygon fill="black" stroke="black" points="347.78,-501.27 358,-498.47 348.27,-494.28 347.78,-501.27"/>
</g>
<!-- frc_robot_PWMTalonFXS&#45;&gt;edu_wpi_first_wpilibj_DriverStation -->
<g id="edge8" class="edge">
<title>frc_robot_PWMTalonFXS&#45;&gt;edu_wpi_first_wpilibj_DriverStation</title>
<path fill="none" stroke="black" d="M121.85,-330.83C145.01,-347.93 176.84,-368.84 208.18,-381.05 240.93,-393.82 277.98,-402.42 312.45,-408.21"/>
<polygon fill="black" stroke="black" points="311.62,-411.62 322.04,-409.75 312.73,-404.71 311.62,-411.62"/>
</g>
<!-- frc_robot_PWMTalonFXS&#45;&gt;edu_wpi_first_wpilibj_motorcontrol_PWMMotorController -->
<g id="edge10" class="edge">
<title>frc_robot_PWMTalonFXS&#45;&gt;edu_wpi_first_wpilibj_motorcontrol_PWMMotorController</title>
<path fill="none" stroke="black" d="M168.38,-312.2C192.85,-314.95 220.77,-318.09 249.1,-321.28"/>
<polygon fill="black" stroke="black" points="248.56,-324.74 258.89,-322.38 249.35,-317.78 248.56,-324.74"/>
</g>
<!-- frc_robot_PWMTalonFXS&#45;&gt;edu_wpi_first_wpilibj_PWM -->
<g id="edge9" class="edge">
<title>frc_robot_PWMTalonFXS&#45;&gt;edu_wpi_first_wpilibj_PWM</title>
<path fill="none" stroke="black" d="M168.38,-293.91C223.15,-287.75 295.2,-279.64 350.41,-273.43"/>
<polygon fill="black" stroke="black" points="350.52,-276.94 360.06,-272.35 349.73,-269.99 350.52,-276.94"/>
</g>
<!-- frc_robot_PWMTalonFXS&#45;&gt;edu_wpi_first_wpilibj_Timer -->
<g id="edge11" class="edge">
<title>frc_robot_PWMTalonFXS&#45;&gt;edu_wpi_first_wpilibj_Timer</title>
<path fill="none" stroke="black" d="M121.85,-275.28C145.01,-258.18 176.84,-237.27 208.18,-225.05 252.04,-207.95 303.6,-198.33 346.35,-192.92"/>
<polygon fill="black" stroke="black" points="346.58,-196.42 356.09,-191.75 345.74,-189.47 346.58,-196.42"/>
</g>
<!-- java_util_ArrayList -->
<g id="node14" class="node">
<title>java_util_ArrayList</title>
<ellipse fill="none" stroke="black" cx="434.81" cy="-108.05" rx="58.51" ry="30.05"/>
<text text-anchor="middle" x="434.81" y="-112" font-family="Times,serif" font-size="14.00">java.util</text>
<text text-anchor="middle" x="434.81" y="-94.75" font-family="Times,serif" font-size="14.00">ArrayList</text>
</g>
<!-- frc_robot_PWMTalonFXS&#45;&gt;java_util_ArrayList -->
<g id="edge4" class="edge">
<title>frc_robot_PWMTalonFXS&#45;&gt;java_util_ArrayList</title>
<path fill="none" stroke="black" d="M101.49,-273.18C120.56,-237.05 157.78,-177.33 208.18,-147.05 255.4,-118.69 317.61,-109.6 364.75,-107.24"/>
<polygon fill="black" stroke="black" points="364.72,-110.74 374.57,-106.84 364.44,-103.75 364.72,-110.74"/>
</g>
<!-- java_util_List -->
<g id="node15" class="node">
<title>java_util_List</title>
<ellipse fill="none" stroke="black" cx="434.81" cy="-30.05" rx="52.15" ry="30.05"/>
<text text-anchor="middle" x="434.81" y="-34" font-family="Times,serif" font-size="14.00">java.util</text>
<text text-anchor="middle" x="434.81" y="-16.75" font-family="Times,serif" font-size="14.00">List</text>
</g>
<!-- frc_robot_PWMTalonFXS&#45;&gt;java_util_List -->
<g id="edge5" class="edge">
<title>frc_robot_PWMTalonFXS&#45;&gt;java_util_List</title>
<path fill="none" stroke="black" d="M93.6,-272.64C106.2,-221.7 138.99,-119.73 208.18,-69.05 255.24,-34.58 322.48,-26.81 371.3,-26.46"/>
<polygon fill="black" stroke="black" points="371.14,-29.96 381.16,-26.51 371.17,-22.96 371.14,-29.96"/>
</g>
<!-- frc_robot_PWMTalonFXS_MotorArrangement -->
<g id="node12" class="node">
<title>frc_robot_PWMTalonFXS_MotorArrangement</title>
<ellipse fill="none" stroke="black" cx="434.81" cy="-732.05" rx="186.32" ry="30.05"/>
<text text-anchor="middle" x="434.81" y="-736" font-family="Times,serif" font-size="14.00">frc.robot</text>
<text text-anchor="middle" x="434.81" y="-718.75" font-family="Times,serif" font-size="14.00">PWMTalonFXS.MotorArrangement</text>
</g>
<!-- frc_robot_Robot -->
<g id="node13" class="node">
<title>frc_robot_Robot</title>
<ellipse fill="none" stroke="black" cx="86.09" cy="-810.05" rx="55.33" ry="30.05"/>
<text text-anchor="middle" x="86.09" y="-814" font-family="Times,serif" font-size="14.00">frc.robot</text>
<text text-anchor="middle" x="86.09" y="-796.75" font-family="Times,serif" font-size="14.00">Robot</text>
</g>
<!-- frc_robot_Robot&#45;&gt;edu_wpi_first_wpilibj_TimedRobot -->
<g id="edge1" class="edge">
<title>frc_robot_Robot&#45;&gt;edu_wpi_first_wpilibj_TimedRobot</title>
<path fill="none" stroke="black" d="M132.94,-826.5C155.4,-834.12 182.98,-842.85 208.18,-849.05 246.21,-858.41 288.39,-866.35 325.89,-872.56"/>
<polygon fill="black" stroke="black" points="324.92,-875.95 335.35,-874.11 326.05,-869.04 324.92,-875.95"/>
</g>
<!-- frc_robot_Robot&#45;&gt;edu_wpi_first_wpilibj_XboxController -->
<g id="edge2" class="edge">
<title>frc_robot_Robot&#45;&gt;edu_wpi_first_wpilibj_XboxController</title>
<path fill="none" stroke="black" d="M141.65,-810.05C183.66,-810.05 243.62,-810.05 298.29,-810.05"/>
<polygon fill="black" stroke="black" points="298,-813.55 308,-810.05 298,-806.55 298,-813.55"/>
</g>
<!-- frc_robot_Robot&#45;&gt;frc_robot_PWMTalonFXS_MotorArrangement -->
<g id="edge3" class="edge">
<title>frc_robot_Robot&#45;&gt;frc_robot_PWMTalonFXS_MotorArrangement</title>
<path fill="none" stroke="black" d="M132.94,-793.61C155.4,-785.98 182.98,-777.26 208.18,-771.05 233.09,-764.92 259.78,-759.4 285.76,-754.58"/>
<polygon fill="black" stroke="black" points="286.15,-758.06 295.36,-752.82 284.9,-751.18 286.15,-758.06"/>
</g>
</g>
</svg>
