<?xml version="1.0" encoding="UTF-8" standalone="no"?>
<!DOCTYPE svg PUBLIC "-//W3C//DTD SVG 1.1//EN"
 "http://www.w3.org/Graphics/SVG/1.1/DTD/svg11.dtd">
<!-- Generated by graphviz version 12.2.1 (0)
 -->
<!-- Title: Simulation Pages: 1 -->
<svg width="622pt" height="2252pt"
 viewBox="0.00 0.00 621.71 2252.10" xmlns="http://www.w3.org/2000/svg" xmlns:xlink="http://www.w3.org/1999/xlink">
<g id="graph0" class="graph" transform="scale(1 1) rotate(0) translate(4 2248.1)">
<title>Simulation</title>
<polygon fill="white" stroke="none" points="-4,4 -4,-2248.1 617.71,-2248.1 617.71,4 -4,4"/>
<!-- com_ctre_phoenix6_BaseStatusSignal -->
<g id="node1" class="node">
<title>com_ctre_phoenix6_BaseStatusSignal</title>
<ellipse fill="none" stroke="black" cx="380.18" cy="-2136.05" rx="104.65" ry="30.05"/>
<text text-anchor="middle" x="380.18" y="-2140" font-family="Times,serif" font-size="14.00">com.ctre.phoenix6</text>
<text text-anchor="middle" x="380.18" y="-2122.75" font-family="Times,serif" font-size="14.00">BaseStatusSignal</text>
</g>
<!-- com_ctre_phoenix6_configs_CANcoderConfiguration -->
<g id="node2" class="node">
<title>com_ctre_phoenix6_configs_CANcoderConfiguration</title>
<ellipse fill="none" stroke="black" cx="380.18" cy="-2058.05" rx="169.88" ry="30.05"/>
<text text-anchor="middle" x="380.18" y="-2062" font-family="Times,serif" font-size="14.00">com.ctre.phoenix6</text>
<text text-anchor="middle" x="380.18" y="-2044.75" font-family="Times,serif" font-size="14.00">configs.CANcoderConfiguration</text>
</g>
<!-- com_ctre_phoenix6_configs_Pigeon2Configuration -->
<g id="node3" class="node">
<title>com_ctre_phoenix6_configs_Pigeon2Configuration</title>
<ellipse fill="none" stroke="black" cx="380.18" cy="-1980.05" rx="159.81" ry="30.05"/>
<text text-anchor="middle" x="380.18" y="-1984" font-family="Times,serif" font-size="14.00">com.ctre.phoenix6</text>
<text text-anchor="middle" x="380.18" y="-1966.75" font-family="Times,serif" font-size="14.00">configs.Pigeon2Configuration</text>
</g>
<!-- com_ctre_phoenix6_configs_TalonFXConfiguration -->
<g id="node4" class="node">
<title>com_ctre_phoenix6_configs_TalonFXConfiguration</title>
<ellipse fill="none" stroke="black" cx="380.18" cy="-1902.05" rx="159.81" ry="30.05"/>
<text text-anchor="middle" x="380.18" y="-1906" font-family="Times,serif" font-size="14.00">com.ctre.phoenix6</text>
<text text-anchor="middle" x="380.18" y="-1888.75" font-family="Times,serif" font-size="14.00">configs.TalonFXConfiguration</text>
</g>
<!-- com_ctre_phoenix6_hardware_CANcoder -->
<g id="node5" class="node">
<title>com_ctre_phoenix6_hardware_CANcoder</title>
<ellipse fill="none" stroke="black" cx="380.18" cy="-1824.05" rx="113.67" ry="30.05"/>
<text text-anchor="middle" x="380.18" y="-1828" font-family="Times,serif" font-size="14.00">com.ctre.phoenix6</text>
<text text-anchor="middle" x="380.18" y="-1810.75" font-family="Times,serif" font-size="14.00">hardware.CANcoder</text>
</g>
<!-- com_ctre_phoenix6_hardware_Pigeon2 -->
<g id="node6" class="node">
<title>com_ctre_phoenix6_hardware_Pigeon2</title>
<ellipse fill="none" stroke="black" cx="380.18" cy="-1746.05" rx="104.65" ry="30.05"/>
<text text-anchor="middle" x="380.18" y="-1750" font-family="Times,serif" font-size="14.00">com.ctre.phoenix6</text>
<text text-anchor="middle" x="380.18" y="-1732.75" font-family="Times,serif" font-size="14.00">hardware.Pigeon2</text>
</g>
<!-- com_ctre_phoenix6_hardware_TalonFX -->
<g id="node7" class="node">
<title>com_ctre_phoenix6_hardware_TalonFX</title>
<ellipse fill="none" stroke="black" cx="380.18" cy="-1668.05" rx="104.65" ry="30.05"/>
<text text-anchor="middle" x="380.18" y="-1672" font-family="Times,serif" font-size="14.00">com.ctre.phoenix6</text>
<text text-anchor="middle" x="380.18" y="-1654.75" font-family="Times,serif" font-size="14.00">hardware.TalonFX</text>
</g>
<!-- com_ctre_phoenix6_signals_InvertedValue -->
<g id="node8" class="node">
<title>com_ctre_phoenix6_signals_InvertedValue</title>
<ellipse fill="none" stroke="black" cx="380.18" cy="-1590.05" rx="120.56" ry="30.05"/>
<text text-anchor="middle" x="380.18" y="-1594" font-family="Times,serif" font-size="14.00">com.ctre.phoenix6</text>
<text text-anchor="middle" x="380.18" y="-1576.75" font-family="Times,serif" font-size="14.00">signals.InvertedValue</text>
</g>
<!-- com_ctre_phoenix6_signals_SensorDirectionValue -->
<g id="node9" class="node">
<title>com_ctre_phoenix6_signals_SensorDirectionValue</title>
<ellipse fill="none" stroke="black" cx="380.18" cy="-1512.05" rx="159.28" ry="30.05"/>
<text text-anchor="middle" x="380.18" y="-1516" font-family="Times,serif" font-size="14.00">com.ctre.phoenix6</text>
<text text-anchor="middle" x="380.18" y="-1498.75" font-family="Times,serif" font-size="14.00">signals.SensorDirectionValue</text>
</g>
<!-- com_ctre_phoenix6_sim_CANcoderSimState -->
<g id="node10" class="node">
<title>com_ctre_phoenix6_sim_CANcoderSimState</title>
<ellipse fill="none" stroke="black" cx="380.18" cy="-1434.05" rx="130.11" ry="30.05"/>
<text text-anchor="middle" x="380.18" y="-1438" font-family="Times,serif" font-size="14.00">com.ctre.phoenix6</text>
<text text-anchor="middle" x="380.18" y="-1420.75" font-family="Times,serif" font-size="14.00">sim.CANcoderSimState</text>
</g>
<!-- com_ctre_phoenix6_sim_ChassisReference -->
<g id="node11" class="node">
<title>com_ctre_phoenix6_sim_ChassisReference</title>
<ellipse fill="none" stroke="black" cx="380.18" cy="-1356.05" rx="122.15" ry="30.05"/>
<text text-anchor="middle" x="380.18" y="-1360" font-family="Times,serif" font-size="14.00">com.ctre.phoenix6</text>
<text text-anchor="middle" x="380.18" y="-1342.75" font-family="Times,serif" font-size="14.00">sim.ChassisReference</text>
</g>
<!-- com_ctre_phoenix6_sim_Pigeon2SimState -->
<g id="node12" class="node">
<title>com_ctre_phoenix6_sim_Pigeon2SimState</title>
<ellipse fill="none" stroke="black" cx="380.18" cy="-1278.05" rx="120.03" ry="30.05"/>
<text text-anchor="middle" x="380.18" y="-1282" font-family="Times,serif" font-size="14.00">com.ctre.phoenix6</text>
<text text-anchor="middle" x="380.18" y="-1264.75" font-family="Times,serif" font-size="14.00">sim.Pigeon2SimState</text>
</g>
<!-- com_ctre_phoenix6_sim_TalonFXSimState -->
<g id="node13" class="node">
<title>com_ctre_phoenix6_sim_TalonFXSimState</title>
<ellipse fill="none" stroke="black" cx="380.18" cy="-1200.05" rx="120.03" ry="30.05"/>
<text text-anchor="middle" x="380.18" y="-1204" font-family="Times,serif" font-size="14.00">com.ctre.phoenix6</text>
<text text-anchor="middle" x="380.18" y="-1186.75" font-family="Times,serif" font-size="14.00">sim.TalonFXSimState</text>
</g>
<!-- com_ctre_phoenix6_StatusCode -->
<g id="node14" class="node">
<title>com_ctre_phoenix6_StatusCode</title>
<ellipse fill="none" stroke="black" cx="380.18" cy="-1122.05" rx="104.65" ry="30.05"/>
<text text-anchor="middle" x="380.18" y="-1126" font-family="Times,serif" font-size="14.00">com.ctre.phoenix6</text>
<text text-anchor="middle" x="380.18" y="-1108.75" font-family="Times,serif" font-size="14.00">StatusCode</text>
</g>
<!-- edu_wpi_first_math_kinematics_DifferentialDriveOdometry -->
<g id="node15" class="node">
<title>edu_wpi_first_math_kinematics_DifferentialDriveOdometry</title>
<ellipse fill="none" stroke="black" cx="380.18" cy="-1044.05" rx="233.52" ry="30.05"/>
<text text-anchor="middle" x="380.18" y="-1048" font-family="Times,serif" font-size="14.00">edu.wpi.first</text>
<text text-anchor="middle" x="380.18" y="-1030.75" font-family="Times,serif" font-size="14.00">math.kinematics.DifferentialDriveOdometry</text>
</g>
<!-- edu_wpi_first_math_system_plant_DCMotor -->
<g id="node16" class="node">
<title>edu_wpi_first_math_system_plant_DCMotor</title>
<ellipse fill="none" stroke="black" cx="380.18" cy="-966.05" rx="155.03" ry="30.05"/>
<text text-anchor="middle" x="380.18" y="-970" font-family="Times,serif" font-size="14.00">edu.wpi.first</text>
<text text-anchor="middle" x="380.18" y="-952.75" font-family="Times,serif" font-size="14.00">math.system.plant.DCMotor</text>
</g>
<!-- edu_wpi_first_units_measure_Angle -->
<g id="node17" class="node">
<title>edu_wpi_first_units_measure_Angle</title>
<ellipse fill="none" stroke="black" cx="380.18" cy="-888.05" rx="115.26" ry="30.05"/>
<text text-anchor="middle" x="380.18" y="-892" font-family="Times,serif" font-size="14.00">edu.wpi.first</text>
<text text-anchor="middle" x="380.18" y="-874.75" font-family="Times,serif" font-size="14.00">units.measure.Angle</text>
</g>
<!-- edu_wpi_first_units_measure_AngularVelocity -->
<g id="node18" class="node">
<title>edu_wpi_first_units_measure_AngularVelocity</title>
<ellipse fill="none" stroke="black" cx="380.18" cy="-810.05" rx="166.17" ry="30.05"/>
<text text-anchor="middle" x="380.18" y="-814" font-family="Times,serif" font-size="14.00">edu.wpi.first</text>
<text text-anchor="middle" x="380.18" y="-796.75" font-family="Times,serif" font-size="14.00">units.measure.AngularVelocity</text>
</g>
<!-- edu_wpi_first_units_measure_Distance -->
<g id="node19" class="node">
<title>edu_wpi_first_units_measure_Distance</title>
<ellipse fill="none" stroke="black" cx="380.18" cy="-732.05" rx="130.64" ry="30.05"/>
<text text-anchor="middle" x="380.18" y="-736" font-family="Times,serif" font-size="14.00">edu.wpi.first</text>
<text text-anchor="middle" x="380.18" y="-718.75" font-family="Times,serif" font-size="14.00">units.measure.Distance</text>
</g>
<!-- edu_wpi_first_units_measure_LinearVelocity -->
<g id="node20" class="node">
<title>edu_wpi_first_units_measure_LinearVelocity</title>
<ellipse fill="none" stroke="black" cx="380.18" cy="-654.05" rx="158.75" ry="30.05"/>
<text text-anchor="middle" x="380.18" y="-658" font-family="Times,serif" font-size="14.00">edu.wpi.first</text>
<text text-anchor="middle" x="380.18" y="-640.75" font-family="Times,serif" font-size="14.00">units.measure.LinearVelocity</text>
</g>
<!-- edu_wpi_first_units_Units -->
<g id="node21" class="node">
<title>edu_wpi_first_units_Units</title>
<ellipse fill="none" stroke="black" cx="380.18" cy="-576.05" rx="74.95" ry="30.05"/>
<text text-anchor="middle" x="380.18" y="-580" font-family="Times,serif" font-size="14.00">edu.wpi.first</text>
<text text-anchor="middle" x="380.18" y="-562.75" font-family="Times,serif" font-size="14.00">units.Units</text>
</g>
<!-- edu_wpi_first_wpilibj_drive_DifferentialDrive -->
<g id="node22" class="node">
<title>edu_wpi_first_wpilibj_drive_DifferentialDrive</title>
<ellipse fill="none" stroke="black" cx="380.18" cy="-498.05" rx="162.46" ry="30.05"/>
<text text-anchor="middle" x="380.18" y="-502" font-family="Times,serif" font-size="14.00">edu.wpi.first</text>
<text text-anchor="middle" x="380.18" y="-484.75" font-family="Times,serif" font-size="14.00">wpilibj.drive.DifferentialDrive</text>
</g>
<!-- edu_wpi_first_wpilibj_RobotBase -->
<g id="node23" class="node">
<title>edu_wpi_first_wpilibj_RobotBase</title>
<ellipse fill="none" stroke="black" cx="380.18" cy="-2214.05" rx="102.53" ry="30.05"/>
<text text-anchor="middle" x="380.18" y="-2218" font-family="Times,serif" font-size="14.00">edu.wpi.first</text>
<text text-anchor="middle" x="380.18" y="-2200.75" font-family="Times,serif" font-size="14.00">wpilibj.RobotBase</text>
</g>
<!-- edu_wpi_first_wpilibj_RobotController -->
<g id="node24" class="node">
<title>edu_wpi_first_wpilibj_RobotController</title>
<ellipse fill="none" stroke="black" cx="380.18" cy="-420.05" rx="129.58" ry="30.05"/>
<text text-anchor="middle" x="380.18" y="-424" font-family="Times,serif" font-size="14.00">edu.wpi.first</text>
<text text-anchor="middle" x="380.18" y="-406.75" font-family="Times,serif" font-size="14.00">wpilibj.RobotController</text>
</g>
<!-- edu_wpi_first_wpilibj_simulation_DifferentialDrivetrainSim -->
<g id="node25" class="node">
<title>edu_wpi_first_wpilibj_simulation_DifferentialDrivetrainSim</title>
<ellipse fill="none" stroke="black" cx="380.18" cy="-342.05" rx="233.52" ry="30.05"/>
<text text-anchor="middle" x="380.18" y="-346" font-family="Times,serif" font-size="14.00">edu.wpi.first</text>
<text text-anchor="middle" x="380.18" y="-328.75" font-family="Times,serif" font-size="14.00">wpilibj.simulation.DifferentialDrivetrainSim</text>
</g>
<!-- edu_wpi_first_wpilibj_smartdashboard_Field2d -->
<g id="node26" class="node">
<title>edu_wpi_first_wpilibj_smartdashboard_Field2d</title>
<ellipse fill="none" stroke="black" cx="380.18" cy="-264.05" rx="172.53" ry="30.05"/>
<text text-anchor="middle" x="380.18" y="-268" font-family="Times,serif" font-size="14.00">edu.wpi.first</text>
<text text-anchor="middle" x="380.18" y="-250.75" font-family="Times,serif" font-size="14.00">wpilibj.smartdashboard.Field2d</text>
</g>
<!-- edu_wpi_first_wpilibj_smartdashboard_SmartDashboard -->
<g id="node27" class="node">
<title>edu_wpi_first_wpilibj_smartdashboard_SmartDashboard</title>
<ellipse fill="none" stroke="black" cx="380.18" cy="-186.05" rx="220.26" ry="30.05"/>
<text text-anchor="middle" x="380.18" y="-190" font-family="Times,serif" font-size="14.00">edu.wpi.first</text>
<text text-anchor="middle" x="380.18" y="-172.75" font-family="Times,serif" font-size="14.00">wpilibj.smartdashboard.SmartDashboard</text>
</g>
<!-- edu_wpi_first_wpilibj_TimedRobot -->
<g id="node28" class="node">
<title>edu_wpi_first_wpilibj_TimedRobot</title>
<ellipse fill="none" stroke="black" cx="380.18" cy="-108.05" rx="109.42" ry="30.05"/>
<text text-anchor="middle" x="380.18" y="-112" font-family="Times,serif" font-size="14.00">edu.wpi.first</text>
<text text-anchor="middle" x="380.18" y="-94.75" font-family="Times,serif" font-size="14.00">wpilibj.TimedRobot</text>
</g>
<!-- edu_wpi_first_wpilibj_XboxController -->
<g id="node29" class="node">
<title>edu_wpi_first_wpilibj_XboxController</title>
<ellipse fill="none" stroke="black" cx="380.18" cy="-30.05" rx="124.8" ry="30.05"/>
<text text-anchor="middle" x="380.18" y="-34" font-family="Times,serif" font-size="14.00">edu.wpi.first</text>
<text text-anchor="middle" x="380.18" y="-16.75" font-family="Times,serif" font-size="14.00">wpilibj.XboxController</text>
</g>
<!-- frc_robot_Main -->
<g id="node30" class="node">
<title>frc_robot_Main</title>
<ellipse fill="none" stroke="black" cx="55.33" cy="-2214.05" rx="55.33" ry="30.05"/>
<text text-anchor="middle" x="55.33" y="-2218" font-family="Times,serif" font-size="14.00">frc.robot</text>
<text text-anchor="middle" x="55.33" y="-2200.75" font-family="Times,serif" font-size="14.00">Main</text>
</g>
<!-- frc_robot_Main&#45;&gt;edu_wpi_first_wpilibj_RobotBase -->
<g id="edge29" class="edge">
<title>frc_robot_Main&#45;&gt;edu_wpi_first_wpilibj_RobotBase</title>
<path fill="none" stroke="black" d="M111.1,-2214.05C153.42,-2214.05 213.44,-2214.05 265.97,-2214.05"/>
<polygon fill="black" stroke="black" points="265.89,-2217.55 275.89,-2214.05 265.89,-2210.55 265.89,-2217.55"/>
</g>
<!-- frc_robot_Robot -->
<g id="node31" class="node">
<title>frc_robot_Robot</title>
<ellipse fill="none" stroke="black" cx="55.33" cy="-1083.05" rx="55.33" ry="30.05"/>
<text text-anchor="middle" x="55.33" y="-1087" font-family="Times,serif" font-size="14.00">frc.robot</text>
<text text-anchor="middle" x="55.33" y="-1069.75" font-family="Times,serif" font-size="14.00">Robot</text>
</g>
<!-- frc_robot_Robot&#45;&gt;com_ctre_phoenix6_BaseStatusSignal -->
<g id="edge2" class="edge">
<title>frc_robot_Robot&#45;&gt;com_ctre_phoenix6_BaseStatusSignal</title>
<path fill="none" stroke="black" d="M56.87,-1113.34C59.98,-1274.1 78.12,-2023 146.66,-2097.05 177.29,-2130.15 224.62,-2141.98 268.6,-2144.72"/>
<polygon fill="black" stroke="black" points="268.33,-2148.21 278.48,-2145.17 268.65,-2141.22 268.33,-2148.21"/>
</g>
<!-- frc_robot_Robot&#45;&gt;com_ctre_phoenix6_configs_CANcoderConfiguration -->
<g id="edge4" class="edge">
<title>frc_robot_Robot&#45;&gt;com_ctre_phoenix6_configs_CANcoderConfiguration</title>
<path fill="none" stroke="black" d="M57.11,-1113.5C61.3,-1267 83.45,-1951.25 146.66,-2019.05 161.21,-2034.66 179.48,-2045.53 199.35,-2052.94"/>
<polygon fill="black" stroke="black" points="198.17,-2056.24 208.77,-2056.12 200.41,-2049.6 198.17,-2056.24"/>
</g>
<!-- frc_robot_Robot&#45;&gt;com_ctre_phoenix6_configs_Pigeon2Configuration -->
<g id="edge5" class="edge">
<title>frc_robot_Robot&#45;&gt;com_ctre_phoenix6_configs_Pigeon2Configuration</title>
<path fill="none" stroke="black" d="M57.39,-1113.58C62.73,-1259.29 88.75,-1879.47 146.66,-1941.05 163.62,-1959.09 185.55,-1970.78 209.15,-1978.11"/>
<polygon fill="black" stroke="black" points="208.07,-1981.44 218.64,-1980.78 209.96,-1974.7 208.07,-1981.44"/>
</g>
<!-- frc_robot_Robot&#45;&gt;com_ctre_phoenix6_configs_TalonFXConfiguration -->
<g id="edge6" class="edge">
<title>frc_robot_Robot&#45;&gt;com_ctre_phoenix6_configs_TalonFXConfiguration</title>
<path fill="none" stroke="black" d="M57.73,-1113.51C64.29,-1250.79 94.01,-1807.65 146.66,-1863.05 163.66,-1880.93 185.54,-1892.56 209.06,-1899.88"/>
<polygon fill="black" stroke="black" points="207.94,-1903.2 218.52,-1902.54 209.84,-1896.46 207.94,-1903.2"/>
</g>
<!-- frc_robot_Robot&#45;&gt;com_ctre_phoenix6_hardware_CANcoder -->
<g id="edge7" class="edge">
<title>frc_robot_Robot&#45;&gt;com_ctre_phoenix6_hardware_CANcoder</title>
<path fill="none" stroke="black" d="M58.13,-1113.44C66.02,-1241.87 99.26,-1735.81 146.66,-1785.05 175.46,-1814.97 217.96,-1827.3 258.77,-1831.29"/>
<polygon fill="black" stroke="black" points="258.47,-1834.77 268.71,-1832.08 259.02,-1827.8 258.47,-1834.77"/>
</g>
<!-- frc_robot_Robot&#45;&gt;com_ctre_phoenix6_hardware_Pigeon2 -->
<g id="edge8" class="edge">
<title>frc_robot_Robot&#45;&gt;com_ctre_phoenix6_hardware_Pigeon2</title>
<path fill="none" stroke="black" d="M56.2,-1113.4C56.35,-1226.52 62.96,-1621.45 146.66,-1707.05 177.79,-1738.89 224.45,-1750.71 267.82,-1753.78"/>
<polygon fill="black" stroke="black" points="267.37,-1757.26 277.55,-1754.31 267.75,-1750.27 267.37,-1757.26"/>
</g>
<!-- frc_robot_Robot&#45;&gt;com_ctre_phoenix6_hardware_TalonFX -->
<g id="edge9" class="edge">
<title>frc_robot_Robot&#45;&gt;com_ctre_phoenix6_hardware_TalonFX</title>
<path fill="none" stroke="black" d="M56.89,-1113.5C59.45,-1217.39 73.37,-1555.6 146.66,-1629.05 177.91,-1660.37 224.23,-1672.2 267.31,-1675.4"/>
<polygon fill="black" stroke="black" points="267.08,-1678.9 277.26,-1675.98 267.48,-1671.91 267.08,-1678.9"/>
</g>
<!-- frc_robot_Robot&#45;&gt;com_ctre_phoenix6_signals_InvertedValue -->
<g id="edge15" class="edge">
<title>frc_robot_Robot&#45;&gt;com_ctre_phoenix6_signals_InvertedValue</title>
<path fill="none" stroke="black" d="M57.8,-1113.35C62.99,-1207.05 83.66,-1489.58 146.66,-1551.05 174.19,-1577.92 212.84,-1590.31 250.74,-1595.24"/>
<polygon fill="black" stroke="black" points="250.1,-1598.69 260.43,-1596.32 250.88,-1591.74 250.1,-1598.69"/>
</g>
<!-- frc_robot_Robot&#45;&gt;com_ctre_phoenix6_signals_SensorDirectionValue -->
<g id="edge14" class="edge">
<title>frc_robot_Robot&#45;&gt;com_ctre_phoenix6_signals_SensorDirectionValue</title>
<path fill="none" stroke="black" d="M59.08,-1113.52C67.22,-1196.48 93.94,-1423.48 146.66,-1473.05 164.38,-1489.71 186.39,-1500.74 209.75,-1507.85"/>
<polygon fill="black" stroke="black" points="208.54,-1511.14 219.11,-1510.44 210.41,-1504.4 208.54,-1511.14"/>
</g>
<!-- frc_robot_Robot&#45;&gt;com_ctre_phoenix6_sim_CANcoderSimState -->
<g id="edge10" class="edge">
<title>frc_robot_Robot&#45;&gt;com_ctre_phoenix6_sim_CANcoderSimState</title>
<path fill="none" stroke="black" d="M60.93,-1113.26C72.32,-1183.96 104.02,-1357.08 146.66,-1395.05 172.07,-1417.68 205.48,-1429.72 239.03,-1435.67"/>
<polygon fill="black" stroke="black" points="238.48,-1439.13 248.9,-1437.23 239.57,-1432.21 238.48,-1439.13"/>
</g>
<!-- frc_robot_Robot&#45;&gt;com_ctre_phoenix6_sim_ChassisReference -->
<g id="edge11" class="edge">
<title>frc_robot_Robot&#45;&gt;com_ctre_phoenix6_sim_ChassisReference</title>
<path fill="none" stroke="black" d="M58.68,-1113.26C64.35,-1163.9 83.39,-1265.44 146.66,-1317.05 174.76,-1339.97 211.25,-1351.7 246.97,-1357.24"/>
<polygon fill="black" stroke="black" points="246.13,-1360.66 256.52,-1358.56 247.09,-1353.72 246.13,-1360.66"/>
</g>
<!-- frc_robot_Robot&#45;&gt;com_ctre_phoenix6_sim_Pigeon2SimState -->
<g id="edge12" class="edge">
<title>frc_robot_Robot&#45;&gt;com_ctre_phoenix6_sim_Pigeon2SimState</title>
<path fill="none" stroke="black" d="M64.94,-1112.83C77,-1148.86 102.55,-1208.48 146.66,-1239.05 176.39,-1259.65 213.29,-1270.68 248.88,-1276.29"/>
<polygon fill="black" stroke="black" points="247.98,-1279.69 258.38,-1277.64 248.97,-1272.76 247.98,-1279.69"/>
</g>
<!-- frc_robot_Robot&#45;&gt;com_ctre_phoenix6_sim_TalonFXSimState -->
<g id="edge13" class="edge">
<title>frc_robot_Robot&#45;&gt;com_ctre_phoenix6_sim_TalonFXSimState</title>
<path fill="none" stroke="black" d="M80.09,-1110.12C96.91,-1127.49 120.97,-1148.98 146.66,-1161.05 179.09,-1176.29 216.52,-1185.66 251.75,-1191.41"/>
<polygon fill="black" stroke="black" points="251.19,-1194.86 261.6,-1192.92 252.25,-1187.94 251.19,-1194.86"/>
</g>
<!-- frc_robot_Robot&#45;&gt;com_ctre_phoenix6_StatusCode -->
<g id="edge3" class="edge">
<title>frc_robot_Robot&#45;&gt;com_ctre_phoenix6_StatusCode</title>
<path fill="none" stroke="black" d="M109.64,-1089.49C153.63,-1094.81 217.43,-1102.51 271.92,-1109.09"/>
<polygon fill="black" stroke="black" points="271.19,-1112.53 281.54,-1110.26 272.03,-1105.58 271.19,-1112.53"/>
</g>
<!-- frc_robot_Robot&#45;&gt;edu_wpi_first_math_kinematics_DifferentialDriveOdometry -->
<g id="edge16" class="edge">
<title>frc_robot_Robot&#45;&gt;edu_wpi_first_math_kinematics_DifferentialDriveOdometry</title>
<path fill="none" stroke="black" d="M109.64,-1076.61C134.24,-1073.64 165.02,-1069.92 196.92,-1066.07"/>
<polygon fill="black" stroke="black" points="197.22,-1069.56 206.73,-1064.88 196.38,-1062.61 197.22,-1069.56"/>
</g>
<!-- frc_robot_Robot&#45;&gt;edu_wpi_first_math_system_plant_DCMotor -->
<g id="edge17" class="edge">
<title>frc_robot_Robot&#45;&gt;edu_wpi_first_math_system_plant_DCMotor</title>
<path fill="none" stroke="black" d="M80.09,-1055.98C96.91,-1038.61 120.97,-1017.12 146.66,-1005.05 171,-993.62 198.16,-985.48 225.09,-979.71"/>
<polygon fill="black" stroke="black" points="225.62,-983.17 234.72,-977.75 224.22,-976.31 225.62,-983.17"/>
</g>
<!-- frc_robot_Robot&#45;&gt;edu_wpi_first_units_measure_Angle -->
<g id="edge18" class="edge">
<title>frc_robot_Robot&#45;&gt;edu_wpi_first_units_measure_Angle</title>
<path fill="none" stroke="black" d="M64.94,-1053.28C77,-1017.25 102.55,-957.63 146.66,-927.05 177.61,-905.6 216.34,-894.53 253.26,-889.15"/>
<polygon fill="black" stroke="black" points="253.69,-892.63 263.15,-887.86 252.78,-885.69 253.69,-892.63"/>
</g>
<!-- frc_robot_Robot&#45;&gt;edu_wpi_first_units_measure_AngularVelocity -->
<g id="edge19" class="edge">
<title>frc_robot_Robot&#45;&gt;edu_wpi_first_units_measure_AngularVelocity</title>
<path fill="none" stroke="black" d="M58.68,-1052.84C64.35,-1002.2 83.39,-900.66 146.66,-849.05 163.76,-835.11 183.96,-825.31 205.2,-818.52"/>
<polygon fill="black" stroke="black" points="205.99,-821.94 214.6,-815.76 204.02,-815.22 205.99,-821.94"/>
</g>
<!-- frc_robot_Robot&#45;&gt;edu_wpi_first_units_measure_Distance -->
<g id="edge20" class="edge">
<title>frc_robot_Robot&#45;&gt;edu_wpi_first_units_measure_Distance</title>
<path fill="none" stroke="black" d="M60.93,-1052.84C72.32,-982.14 104.02,-809.02 146.66,-771.05 172,-748.49 205.3,-736.45 238.75,-730.48"/>
<polygon fill="black" stroke="black" points="239.27,-733.94 248.6,-728.92 238.18,-727.03 239.27,-733.94"/>
</g>
<!-- frc_robot_Robot&#45;&gt;edu_wpi_first_units_measure_LinearVelocity -->
<g id="edge21" class="edge">
<title>frc_robot_Robot&#45;&gt;edu_wpi_first_units_measure_LinearVelocity</title>
<path fill="none" stroke="black" d="M59.08,-1052.58C67.22,-969.63 93.94,-742.63 146.66,-693.05 164.5,-676.27 186.71,-665.21 210.26,-658.1"/>
<polygon fill="black" stroke="black" points="210.99,-661.53 219.71,-655.51 209.14,-654.78 210.99,-661.53"/>
</g>
<!-- frc_robot_Robot&#45;&gt;edu_wpi_first_units_Units -->
<g id="edge1" class="edge">
<title>frc_robot_Robot&#45;&gt;edu_wpi_first_units_Units</title>
<path fill="none" stroke="black" d="M57.8,-1052.76C62.99,-959.05 83.66,-676.53 146.66,-615.05 185.46,-577.19 246.34,-568.07 296.08,-568.08"/>
<polygon fill="black" stroke="black" points="295.92,-571.58 305.97,-568.22 296.02,-564.58 295.92,-571.58"/>
</g>
<!-- frc_robot_Robot&#45;&gt;edu_wpi_first_wpilibj_drive_DifferentialDrive -->
<g id="edge25" class="edge">
<title>frc_robot_Robot&#45;&gt;edu_wpi_first_wpilibj_drive_DifferentialDrive</title>
<path fill="none" stroke="black" d="M56.89,-1052.61C59.45,-948.71 73.37,-610.51 146.66,-537.05 163.32,-520.36 184.26,-509.2 206.71,-501.94"/>
<polygon fill="black" stroke="black" points="207.42,-505.37 216.03,-499.2 205.45,-498.66 207.42,-505.37"/>
</g>
<!-- frc_robot_Robot&#45;&gt;edu_wpi_first_wpilibj_RobotController -->
<g id="edge22" class="edge">
<title>frc_robot_Robot&#45;&gt;edu_wpi_first_wpilibj_RobotController</title>
<path fill="none" stroke="black" d="M56.2,-1052.7C56.35,-939.58 62.96,-544.65 146.66,-459.05 171.69,-433.46 206.75,-420.8 242.07,-415.22"/>
<polygon fill="black" stroke="black" points="242.1,-418.75 251.53,-413.92 241.15,-411.82 242.1,-418.75"/>
</g>
<!-- frc_robot_Robot&#45;&gt;edu_wpi_first_wpilibj_simulation_DifferentialDrivetrainSim -->
<g id="edge26" class="edge">
<title>frc_robot_Robot&#45;&gt;edu_wpi_first_wpilibj_simulation_DifferentialDrivetrainSim</title>
<path fill="none" stroke="black" d="M58.13,-1052.66C66.02,-924.24 99.26,-430.3 146.66,-381.05 153.22,-374.24 160.49,-368.34 168.29,-363.24"/>
<polygon fill="black" stroke="black" points="169.96,-366.32 176.75,-358.19 166.37,-360.31 169.96,-366.32"/>
</g>
<!-- frc_robot_Robot&#45;&gt;edu_wpi_first_wpilibj_smartdashboard_Field2d -->
<g id="edge27" class="edge">
<title>frc_robot_Robot&#45;&gt;edu_wpi_first_wpilibj_smartdashboard_Field2d</title>
<path fill="none" stroke="black" d="M57.73,-1052.59C64.29,-915.31 94.01,-358.45 146.66,-303.05 160.76,-288.22 178.22,-277.69 197.19,-270.36"/>
<polygon fill="black" stroke="black" points="198.17,-273.72 206.44,-267.1 195.85,-267.12 198.17,-273.72"/>
</g>
<!-- frc_robot_Robot&#45;&gt;edu_wpi_first_wpilibj_smartdashboard_SmartDashboard -->
<g id="edge28" class="edge">
<title>frc_robot_Robot&#45;&gt;edu_wpi_first_wpilibj_smartdashboard_SmartDashboard</title>
<path fill="none" stroke="black" d="M57.39,-1052.52C62.73,-906.81 88.75,-286.63 146.66,-225.05 154.15,-217.09 162.62,-210.36 171.76,-204.69"/>
<polygon fill="black" stroke="black" points="173.23,-207.89 180.21,-199.92 169.79,-201.79 173.23,-207.89"/>
</g>
<!-- frc_robot_Robot&#45;&gt;edu_wpi_first_wpilibj_TimedRobot -->
<g id="edge23" class="edge">
<title>frc_robot_Robot&#45;&gt;edu_wpi_first_wpilibj_TimedRobot</title>
<path fill="none" stroke="black" d="M57.11,-1052.6C61.3,-899.11 83.45,-214.85 146.66,-147.05 176.26,-115.31 221.22,-103.17 263.75,-99.84"/>
<polygon fill="black" stroke="black" points="263.8,-103.35 273.57,-99.24 263.38,-96.36 263.8,-103.35"/>
</g>
<!-- frc_robot_Robot&#45;&gt;edu_wpi_first_wpilibj_XboxController -->
<g id="edge24" class="edge">
<title>frc_robot_Robot&#45;&gt;edu_wpi_first_wpilibj_XboxController</title>
<path fill="none" stroke="black" d="M56.87,-1052.76C59.98,-892 78.12,-143.11 146.66,-69.05 172.6,-41.03 210.51,-28.25 248.23,-23.33"/>
<polygon fill="black" stroke="black" points="248.32,-26.84 257.87,-22.26 247.55,-19.88 248.32,-26.84"/>
</g>
</g>
</svg>
