<?xml version="1.0" encoding="UTF-8" standalone="no"?>
<!DOCTYPE svg PUBLIC "-//W3C//DTD SVG 1.1//EN"
 "http://www.w3.org/Graphics/SVG/1.1/DTD/svg11.dtd">
<!-- Generated by graphviz version 12.2.1 (0)
 -->
<!-- Title: TalonFXSGadgeteer Pages: 1 -->
<svg width="632pt" height="926pt"
 viewBox="0.00 0.00 632.31 926.10" xmlns="http://www.w3.org/2000/svg" xmlns:xlink="http://www.w3.org/1999/xlink">
<g id="graph0" class="graph" transform="scale(1 1) rotate(0) translate(4 922.1)">
<title>TalonFXSGadgeteer</title>
<polygon fill="white" stroke="none" points="-4,4 -4,-922.1 628.31,-922.1 628.31,4 -4,4"/>
<!-- com_ctre_phoenix6_configs_TalonFXSConfiguration -->
<g id="node1" class="node">
<title>com_ctre_phoenix6_configs_TalonFXSConfiguration</title>
<ellipse fill="none" stroke="black" cx="385.49" cy="-810.05" rx="166.7" ry="30.05"/>
<text text-anchor="middle" x="385.49" y="-814" font-family="Times,serif" font-size="14.00">com.ctre.phoenix6</text>
<text text-anchor="middle" x="385.49" y="-796.75" font-family="Times,serif" font-size="14.00">configs.TalonFXSConfiguration</text>
</g>
<!-- com_ctre_phoenix6_hardware_TalonFXS -->
<g id="node2" class="node">
<title>com_ctre_phoenix6_hardware_TalonFXS</title>
<ellipse fill="none" stroke="black" cx="385.49" cy="-732.05" rx="110.49" ry="30.05"/>
<text text-anchor="middle" x="385.49" y="-736" font-family="Times,serif" font-size="14.00">com.ctre.phoenix6</text>
<text text-anchor="middle" x="385.49" y="-718.75" font-family="Times,serif" font-size="14.00">hardware.TalonFXS</text>
</g>
<!-- com_ctre_phoenix6_signals_ExternalFeedbackSensorSourceValue -->
<g id="node3" class="node">
<title>com_ctre_phoenix6_signals_ExternalFeedbackSensorSourceValue</title>
<ellipse fill="none" stroke="black" cx="385.49" cy="-654.05" rx="238.83" ry="30.05"/>
<text text-anchor="middle" x="385.49" y="-658" font-family="Times,serif" font-size="14.00">com.ctre.phoenix6</text>
<text text-anchor="middle" x="385.49" y="-640.75" font-family="Times,serif" font-size="14.00">signals.ExternalFeedbackSensorSourceValue</text>
</g>
<!-- com_ctre_phoenix6_signals_MotorArrangementValue -->
<g id="node4" class="node">
<title>com_ctre_phoenix6_signals_MotorArrangementValue</title>
<ellipse fill="none" stroke="black" cx="385.49" cy="-576.05" rx="175.19" ry="30.05"/>
<text text-anchor="middle" x="385.49" y="-580" font-family="Times,serif" font-size="14.00">com.ctre.phoenix6</text>
<text text-anchor="middle" x="385.49" y="-562.75" font-family="Times,serif" font-size="14.00">signals.MotorArrangementValue</text>
</g>
<!-- com_ctre_phoenix6_StatusCode -->
<g id="node5" class="node">
<title>com_ctre_phoenix6_StatusCode</title>
<ellipse fill="none" stroke="black" cx="385.49" cy="-498.05" rx="104.65" ry="30.05"/>
<text text-anchor="middle" x="385.49" y="-502" font-family="Times,serif" font-size="14.00">com.ctre.phoenix6</text>
<text text-anchor="middle" x="385.49" y="-484.75" font-family="Times,serif" font-size="14.00">StatusCode</text>
</g>
<!-- com_ctre_phoenix6_StatusSignal -->
<g id="node6" class="node">
<title>com_ctre_phoenix6_StatusSignal</title>
<ellipse fill="none" stroke="black" cx="385.49" cy="-420.05" rx="104.65" ry="30.05"/>
<text text-anchor="middle" x="385.49" y="-424" font-family="Times,serif" font-size="14.00">com.ctre.phoenix6</text>
<text text-anchor="middle" x="385.49" y="-406.75" font-family="Times,serif" font-size="14.00">StatusSignal</text>
</g>
<!-- edu_wpi_first_units_measure_Angle -->
<g id="node7" class="node">
<title>edu_wpi_first_units_measure_Angle</title>
<ellipse fill="none" stroke="black" cx="385.49" cy="-342.05" rx="115.26" ry="30.05"/>
<text text-anchor="middle" x="385.49" y="-346" font-family="Times,serif" font-size="14.00">edu.wpi.first</text>
<text text-anchor="middle" x="385.49" y="-328.75" font-family="Times,serif" font-size="14.00">units.measure.Angle</text>
</g>
<!-- edu_wpi_first_units_measure_AngularVelocity -->
<g id="node8" class="node">
<title>edu_wpi_first_units_measure_AngularVelocity</title>
<ellipse fill="none" stroke="black" cx="385.49" cy="-264.05" rx="166.17" ry="30.05"/>
<text text-anchor="middle" x="385.49" y="-268" font-family="Times,serif" font-size="14.00">edu.wpi.first</text>
<text text-anchor="middle" x="385.49" y="-250.75" font-family="Times,serif" font-size="14.00">units.measure.AngularVelocity</text>
</g>
<!-- edu_wpi_first_units_Units_Hertz -->
<g id="node9" class="node">
<title>edu_wpi_first_units_Units_Hertz</title>
<ellipse fill="none" stroke="black" cx="385.49" cy="-186.05" rx="99.35" ry="30.05"/>
<text text-anchor="middle" x="385.49" y="-190" font-family="Times,serif" font-size="14.00">edu.wpi.first</text>
<text text-anchor="middle" x="385.49" y="-172.75" font-family="Times,serif" font-size="14.00">units.Units.Hertz</text>
</g>
<!-- edu_wpi_first_wpilibj_RobotBase -->
<g id="node10" class="node">
<title>edu_wpi_first_wpilibj_RobotBase</title>
<ellipse fill="none" stroke="black" cx="385.49" cy="-888.05" rx="102.53" ry="30.05"/>
<text text-anchor="middle" x="385.49" y="-892" font-family="Times,serif" font-size="14.00">edu.wpi.first</text>
<text text-anchor="middle" x="385.49" y="-874.75" font-family="Times,serif" font-size="14.00">wpilibj.RobotBase</text>
</g>
<!-- edu_wpi_first_wpilibj_smartdashboard_SmartDashboard -->
<g id="node11" class="node">
<title>edu_wpi_first_wpilibj_smartdashboard_SmartDashboard</title>
<ellipse fill="none" stroke="black" cx="385.49" cy="-108.05" rx="220.26" ry="30.05"/>
<text text-anchor="middle" x="385.49" y="-112" font-family="Times,serif" font-size="14.00">edu.wpi.first</text>
<text text-anchor="middle" x="385.49" y="-94.75" font-family="Times,serif" font-size="14.00">wpilibj.smartdashboard.SmartDashboard</text>
</g>
<!-- edu_wpi_first_wpilibj_TimedRobot -->
<g id="node12" class="node">
<title>edu_wpi_first_wpilibj_TimedRobot</title>
<ellipse fill="none" stroke="black" cx="385.49" cy="-30.05" rx="109.42" ry="30.05"/>
<text text-anchor="middle" x="385.49" y="-34" font-family="Times,serif" font-size="14.00">edu.wpi.first</text>
<text text-anchor="middle" x="385.49" y="-16.75" font-family="Times,serif" font-size="14.00">wpilibj.TimedRobot</text>
</g>
<!-- frc_robot_Main -->
<g id="node13" class="node">
<title>frc_robot_Main</title>
<ellipse fill="none" stroke="black" cx="55.33" cy="-888.05" rx="55.33" ry="30.05"/>
<text text-anchor="middle" x="55.33" y="-892" font-family="Times,serif" font-size="14.00">frc.robot</text>
<text text-anchor="middle" x="55.33" y="-874.75" font-family="Times,serif" font-size="14.00">Main</text>
</g>
<!-- frc_robot_Main&#45;&gt;edu_wpi_first_wpilibj_RobotBase -->
<g id="edge12" class="edge">
<title>frc_robot_Main&#45;&gt;edu_wpi_first_wpilibj_RobotBase</title>
<path fill="none" stroke="black" d="M110.89,-888.05C154.45,-888.05 216.96,-888.05 271.23,-888.05"/>
<polygon fill="black" stroke="black" points="271.17,-891.55 281.17,-888.05 271.17,-884.55 271.17,-891.55"/>
</g>
<!-- frc_robot_Robot -->
<g id="node14" class="node">
<title>frc_robot_Robot</title>
<ellipse fill="none" stroke="black" cx="55.33" cy="-420.05" rx="55.33" ry="30.05"/>
<text text-anchor="middle" x="55.33" y="-424" font-family="Times,serif" font-size="14.00">frc.robot</text>
<text text-anchor="middle" x="55.33" y="-406.75" font-family="Times,serif" font-size="14.00">Robot</text>
</g>
<!-- frc_robot_Robot&#45;&gt;com_ctre_phoenix6_configs_TalonFXSConfiguration -->
<g id="edge4" class="edge">
<title>frc_robot_Robot&#45;&gt;com_ctre_phoenix6_configs_TalonFXSConfiguration</title>
<path fill="none" stroke="black" d="M59.88,-450.27C69.56,-527.17 98.89,-727.37 146.66,-771.05 164.06,-786.96 185.31,-797.75 207.88,-804.91"/>
<polygon fill="black" stroke="black" points="206.66,-808.2 217.24,-807.63 208.61,-801.48 206.66,-808.2"/>
</g>
<!-- frc_robot_Robot&#45;&gt;com_ctre_phoenix6_hardware_TalonFXS -->
<g id="edge5" class="edge">
<title>frc_robot_Robot&#45;&gt;com_ctre_phoenix6_hardware_TalonFXS</title>
<path fill="none" stroke="black" d="M56.76,-450.59C59.33,-507.72 73.59,-630.64 146.66,-693.05 179.16,-720.81 223.58,-732.62 265.24,-736.8"/>
<polygon fill="black" stroke="black" points="264.85,-740.28 275.11,-737.64 265.44,-733.3 264.85,-740.28"/>
</g>
<!-- frc_robot_Robot&#45;&gt;com_ctre_phoenix6_signals_ExternalFeedbackSensorSourceValue -->
<g id="edge6" class="edge">
<title>frc_robot_Robot&#45;&gt;com_ctre_phoenix6_signals_ExternalFeedbackSensorSourceValue</title>
<path fill="none" stroke="black" d="M61.28,-450.3C70.13,-494.08 93.04,-574.31 146.66,-615.05 155.66,-621.89 165.4,-627.71 175.63,-632.67"/>
<polygon fill="black" stroke="black" points="174.08,-635.81 184.64,-636.72 176.95,-629.43 174.08,-635.81"/>
</g>
<!-- frc_robot_Robot&#45;&gt;com_ctre_phoenix6_signals_MotorArrangementValue -->
<g id="edge7" class="edge">
<title>frc_robot_Robot&#45;&gt;com_ctre_phoenix6_signals_MotorArrangementValue</title>
<path fill="none" stroke="black" d="M70.6,-449.23C85.59,-476.58 111.84,-516.28 146.66,-537.05 165.88,-548.52 187.46,-556.9 209.56,-562.98"/>
<polygon fill="black" stroke="black" points="208.42,-566.3 218.98,-565.4 210.17,-559.52 208.42,-566.3"/>
</g>
<!-- frc_robot_Robot&#45;&gt;com_ctre_phoenix6_StatusCode -->
<g id="edge2" class="edge">
<title>frc_robot_Robot&#45;&gt;com_ctre_phoenix6_StatusCode</title>
<path fill="none" stroke="black" d="M96.92,-440.09C112.21,-446.97 129.94,-454.15 146.66,-459.05 188.04,-471.18 234.65,-479.86 275.57,-485.91"/>
<polygon fill="black" stroke="black" points="275.06,-489.37 285.45,-487.33 276.05,-482.44 275.06,-489.37"/>
</g>
<!-- frc_robot_Robot&#45;&gt;com_ctre_phoenix6_StatusSignal -->
<g id="edge3" class="edge">
<title>frc_robot_Robot&#45;&gt;com_ctre_phoenix6_StatusSignal</title>
<path fill="none" stroke="black" d="M110.89,-420.05C153.85,-420.05 215.25,-420.05 269,-420.05"/>
<polygon fill="black" stroke="black" points="268.83,-423.55 278.83,-420.05 268.83,-416.55 268.83,-423.55"/>
</g>
<!-- frc_robot_Robot&#45;&gt;edu_wpi_first_units_measure_Angle -->
<g id="edge8" class="edge">
<title>frc_robot_Robot&#45;&gt;edu_wpi_first_units_measure_Angle</title>
<path fill="none" stroke="black" d="M96.92,-400.01C112.21,-393.14 129.94,-385.95 146.66,-381.05 185.31,-369.73 228.51,-361.41 267.38,-355.43"/>
<polygon fill="black" stroke="black" points="267.89,-358.89 277.26,-353.95 266.86,-351.97 267.89,-358.89"/>
</g>
<!-- frc_robot_Robot&#45;&gt;edu_wpi_first_units_measure_AngularVelocity -->
<g id="edge9" class="edge">
<title>frc_robot_Robot&#45;&gt;edu_wpi_first_units_measure_AngularVelocity</title>
<path fill="none" stroke="black" d="M70.6,-390.87C85.59,-363.52 111.84,-323.83 146.66,-303.05 167.54,-290.6 191.19,-281.79 215.28,-275.61"/>
<polygon fill="black" stroke="black" points="215.99,-279.04 224.9,-273.3 214.36,-272.23 215.99,-279.04"/>
</g>
<!-- frc_robot_Robot&#45;&gt;edu_wpi_first_units_Units_Hertz -->
<g id="edge1" class="edge">
<title>frc_robot_Robot&#45;&gt;edu_wpi_first_units_Units_Hertz</title>
<path fill="none" stroke="black" d="M61.28,-389.81C70.13,-346.03 93.04,-265.8 146.66,-225.05 183.06,-197.4 231.69,-186.25 275.5,-182.54"/>
<polygon fill="black" stroke="black" points="275.58,-186.05 285.31,-181.85 275.09,-179.06 275.58,-186.05"/>
</g>
<!-- frc_robot_Robot&#45;&gt;edu_wpi_first_wpilibj_smartdashboard_SmartDashboard -->
<g id="edge11" class="edge">
<title>frc_robot_Robot&#45;&gt;edu_wpi_first_wpilibj_smartdashboard_SmartDashboard</title>
<path fill="none" stroke="black" d="M56.76,-389.51C59.33,-332.38 73.59,-209.47 146.66,-147.05 156.16,-138.94 166.68,-132.19 177.85,-126.59"/>
<polygon fill="black" stroke="black" points="179.3,-129.77 186.91,-122.4 176.37,-123.42 179.3,-129.77"/>
</g>
<!-- frc_robot_Robot&#45;&gt;edu_wpi_first_wpilibj_TimedRobot -->
<g id="edge10" class="edge">
<title>frc_robot_Robot&#45;&gt;edu_wpi_first_wpilibj_TimedRobot</title>
<path fill="none" stroke="black" d="M59.88,-389.84C69.56,-312.93 98.89,-112.73 146.66,-69.05 178.98,-39.5 224.61,-27.6 267.28,-23.85"/>
<polygon fill="black" stroke="black" points="267.4,-27.35 277.13,-23.14 266.9,-20.36 267.4,-27.35"/>
</g>
</g>
</svg>
