<?xml version="1.0" encoding="UTF-8" standalone="no"?>
<!DOCTYPE svg PUBLIC "-//W3C//DTD SVG 1.1//EN"
 "http://www.w3.org/Graphics/SVG/1.1/DTD/svg11.dtd">
<!-- Generated by graphviz version 12.2.1 (0)
 -->
<!-- Title: VelocityClosedLoop Pages: 1 -->
<svg width="1112pt" height="1666pt"
 viewBox="0.00 0.00 1112.02 1666.10" xmlns="http://www.w3.org/2000/svg" xmlns:xlink="http://www.w3.org/1999/xlink">
<g id="graph0" class="graph" transform="scale(1 1) rotate(0) translate(4 1662.1)">
<title>VelocityClosedLoop</title>
<polygon fill="white" stroke="none" points="-4,4 -4,-1662.1 1108.02,-1662.1 1108.02,4 -4,4"/>
<!-- com_ctre_phoenix6_CANBus -->
<g id="node1" class="node">
<title>com_ctre_phoenix6_CANBus</title>
<ellipse fill="none" stroke="black" cx="437.46" cy="-732.05" rx="104.65" ry="30.05"/>
<text text-anchor="middle" x="437.46" y="-736" font-family="Times,serif" font-size="14.00">com.ctre.phoenix6</text>
<text text-anchor="middle" x="437.46" y="-718.75" font-family="Times,serif" font-size="14.00">CANBus</text>
</g>
<!-- com_ctre_phoenix6_configs_TalonFXConfiguration -->
<g id="node2" class="node">
<title>com_ctre_phoenix6_configs_TalonFXConfiguration</title>
<ellipse fill="none" stroke="black" cx="437.46" cy="-1550.05" rx="159.81" ry="30.05"/>
<text text-anchor="middle" x="437.46" y="-1554" font-family="Times,serif" font-size="14.00">com.ctre.phoenix6</text>
<text text-anchor="middle" x="437.46" y="-1536.75" font-family="Times,serif" font-size="14.00">configs.TalonFXConfiguration</text>
</g>
<!-- com_ctre_phoenix6_controls_Follower -->
<g id="node3" class="node">
<title>com_ctre_phoenix6_controls_Follower</title>
<ellipse fill="none" stroke="black" cx="437.46" cy="-1472.05" rx="104.65" ry="30.05"/>
<text text-anchor="middle" x="437.46" y="-1476" font-family="Times,serif" font-size="14.00">com.ctre.phoenix6</text>
<text text-anchor="middle" x="437.46" y="-1458.75" font-family="Times,serif" font-size="14.00">controls.Follower</text>
</g>
<!-- com_ctre_phoenix6_controls_NeutralOut -->
<g id="node4" class="node">
<title>com_ctre_phoenix6_controls_NeutralOut</title>
<ellipse fill="none" stroke="black" cx="437.46" cy="-1394.05" rx="112.61" ry="30.05"/>
<text text-anchor="middle" x="437.46" y="-1398" font-family="Times,serif" font-size="14.00">com.ctre.phoenix6</text>
<text text-anchor="middle" x="437.46" y="-1380.75" font-family="Times,serif" font-size="14.00">controls.NeutralOut</text>
</g>
<!-- com_ctre_phoenix6_controls_VelocityTorqueCurrentFOC -->
<g id="node5" class="node">
<title>com_ctre_phoenix6_controls_VelocityTorqueCurrentFOC</title>
<ellipse fill="none" stroke="black" cx="437.46" cy="-1316.05" rx="192.16" ry="30.05"/>
<text text-anchor="middle" x="437.46" y="-1320" font-family="Times,serif" font-size="14.00">com.ctre.phoenix6</text>
<text text-anchor="middle" x="437.46" y="-1302.75" font-family="Times,serif" font-size="14.00">controls.VelocityTorqueCurrentFOC</text>
</g>
<!-- com_ctre_phoenix6_controls_VelocityVoltage -->
<g id="node6" class="node">
<title>com_ctre_phoenix6_controls_VelocityVoltage</title>
<ellipse fill="none" stroke="black" cx="437.46" cy="-1238.05" rx="132.76" ry="30.05"/>
<text text-anchor="middle" x="437.46" y="-1242" font-family="Times,serif" font-size="14.00">com.ctre.phoenix6</text>
<text text-anchor="middle" x="437.46" y="-1224.75" font-family="Times,serif" font-size="14.00">controls.VelocityVoltage</text>
</g>
<!-- com_ctre_phoenix6_hardware_TalonFX -->
<g id="node7" class="node">
<title>com_ctre_phoenix6_hardware_TalonFX</title>
<ellipse fill="none" stroke="black" cx="915.05" cy="-1122.05" rx="104.65" ry="30.05"/>
<text text-anchor="middle" x="915.05" y="-1126" font-family="Times,serif" font-size="14.00">com.ctre.phoenix6</text>
<text text-anchor="middle" x="915.05" y="-1108.75" font-family="Times,serif" font-size="14.00">hardware.TalonFX</text>
</g>
<!-- com_ctre_phoenix6_sim_TalonFXSimState -->
<g id="node8" class="node">
<title>com_ctre_phoenix6_sim_TalonFXSimState</title>
<ellipse fill="none" stroke="black" cx="915.05" cy="-810.05" rx="120.03" ry="30.05"/>
<text text-anchor="middle" x="915.05" y="-814" font-family="Times,serif" font-size="14.00">com.ctre.phoenix6</text>
<text text-anchor="middle" x="915.05" y="-796.75" font-family="Times,serif" font-size="14.00">sim.TalonFXSimState</text>
</g>
<!-- com_ctre_phoenix6_StatusCode -->
<g id="node9" class="node">
<title>com_ctre_phoenix6_StatusCode</title>
<ellipse fill="none" stroke="black" cx="437.46" cy="-1044.05" rx="104.65" ry="30.05"/>
<text text-anchor="middle" x="437.46" y="-1048" font-family="Times,serif" font-size="14.00">com.ctre.phoenix6</text>
<text text-anchor="middle" x="437.46" y="-1030.75" font-family="Times,serif" font-size="14.00">StatusCode</text>
</g>
<!-- com_ctre_phoenix6_StatusSignal -->
<g id="node10" class="node">
<title>com_ctre_phoenix6_StatusSignal</title>
<ellipse fill="none" stroke="black" cx="437.46" cy="-186.05" rx="104.65" ry="30.05"/>
<text text-anchor="middle" x="437.46" y="-190" font-family="Times,serif" font-size="14.00">com.ctre.phoenix6</text>
<text text-anchor="middle" x="437.46" y="-172.75" font-family="Times,serif" font-size="14.00">StatusSignal</text>
</g>
<!-- com_ctre_phoenix6_Utils -->
<g id="node11" class="node">
<title>com_ctre_phoenix6_Utils</title>
<ellipse fill="none" stroke="black" cx="915.05" cy="-1278.05" rx="104.65" ry="30.05"/>
<text text-anchor="middle" x="915.05" y="-1282" font-family="Times,serif" font-size="14.00">com.ctre.phoenix6</text>
<text text-anchor="middle" x="915.05" y="-1264.75" font-family="Times,serif" font-size="14.00">Utils</text>
</g>
<!-- edu_wpi_first_math_system_plant_DCMotor -->
<g id="node12" class="node">
<title>edu_wpi_first_math_system_plant_DCMotor</title>
<ellipse fill="none" stroke="black" cx="915.05" cy="-732.05" rx="155.03" ry="30.05"/>
<text text-anchor="middle" x="915.05" y="-736" font-family="Times,serif" font-size="14.00">edu.wpi.first</text>
<text text-anchor="middle" x="915.05" y="-718.75" font-family="Times,serif" font-size="14.00">math.system.plant.DCMotor</text>
</g>
<!-- edu_wpi_first_math_system_plant_LinearSystemId -->
<g id="node13" class="node">
<title>edu_wpi_first_math_system_plant_LinearSystemId</title>
<ellipse fill="none" stroke="black" cx="915.05" cy="-654.05" rx="188.97" ry="30.05"/>
<text text-anchor="middle" x="915.05" y="-658" font-family="Times,serif" font-size="14.00">edu.wpi.first</text>
<text text-anchor="middle" x="915.05" y="-640.75" font-family="Times,serif" font-size="14.00">math.system.plant.LinearSystemId</text>
</g>
<!-- edu_wpi_first_math_util_Units -->
<g id="node14" class="node">
<title>edu_wpi_first_math_util_Units</title>
<ellipse fill="none" stroke="black" cx="915.05" cy="-1044.05" rx="88.21" ry="30.05"/>
<text text-anchor="middle" x="915.05" y="-1048" font-family="Times,serif" font-size="14.00">edu.wpi.first</text>
<text text-anchor="middle" x="915.05" y="-1030.75" font-family="Times,serif" font-size="14.00">math.util.Units</text>
</g>
<!-- edu_wpi_first_units_measure_Angle -->
<g id="node15" class="node">
<title>edu_wpi_first_units_measure_Angle</title>
<ellipse fill="none" stroke="black" cx="437.46" cy="-108.05" rx="115.26" ry="30.05"/>
<text text-anchor="middle" x="437.46" y="-112" font-family="Times,serif" font-size="14.00">edu.wpi.first</text>
<text text-anchor="middle" x="437.46" y="-94.75" font-family="Times,serif" font-size="14.00">units.measure.Angle</text>
</g>
<!-- edu_wpi_first_units_measure_AngularVelocity -->
<g id="node16" class="node">
<title>edu_wpi_first_units_measure_AngularVelocity</title>
<ellipse fill="none" stroke="black" cx="437.46" cy="-30.05" rx="166.17" ry="30.05"/>
<text text-anchor="middle" x="437.46" y="-34" font-family="Times,serif" font-size="14.00">edu.wpi.first</text>
<text text-anchor="middle" x="437.46" y="-16.75" font-family="Times,serif" font-size="14.00">units.measure.AngularVelocity</text>
</g>
<!-- edu_wpi_first_units_Units -->
<g id="node17" class="node">
<title>edu_wpi_first_units_Units</title>
<ellipse fill="none" stroke="black" cx="437.46" cy="-654.05" rx="74.95" ry="30.05"/>
<text text-anchor="middle" x="437.46" y="-658" font-family="Times,serif" font-size="14.00">edu.wpi.first</text>
<text text-anchor="middle" x="437.46" y="-640.75" font-family="Times,serif" font-size="14.00">units.Units</text>
</g>
<!-- edu_wpi_first_wpilibj_RobotBase -->
<g id="node18" class="node">
<title>edu_wpi_first_wpilibj_RobotBase</title>
<ellipse fill="none" stroke="black" cx="437.46" cy="-1628.05" rx="102.53" ry="30.05"/>
<text text-anchor="middle" x="437.46" y="-1632" font-family="Times,serif" font-size="14.00">edu.wpi.first</text>
<text text-anchor="middle" x="437.46" y="-1614.75" font-family="Times,serif" font-size="14.00">wpilibj.RobotBase</text>
</g>
<!-- edu_wpi_first_wpilibj_simulation_DCMotorSim -->
<g id="node19" class="node">
<title>edu_wpi_first_wpilibj_simulation_DCMotorSim</title>
<ellipse fill="none" stroke="black" cx="915.05" cy="-966.05" rx="170.41" ry="30.05"/>
<text text-anchor="middle" x="915.05" y="-970" font-family="Times,serif" font-size="14.00">edu.wpi.first</text>
<text text-anchor="middle" x="915.05" y="-952.75" font-family="Times,serif" font-size="14.00">wpilibj.simulation.DCMotorSim</text>
</g>
<!-- edu_wpi_first_wpilibj_smartdashboard_Mechanism2d -->
<g id="node20" class="node">
<title>edu_wpi_first_wpilibj_smartdashboard_Mechanism2d</title>
<ellipse fill="none" stroke="black" cx="437.46" cy="-576.05" rx="204.88" ry="30.05"/>
<text text-anchor="middle" x="437.46" y="-580" font-family="Times,serif" font-size="14.00">edu.wpi.first</text>
<text text-anchor="middle" x="437.46" y="-562.75" font-family="Times,serif" font-size="14.00">wpilibj.smartdashboard.Mechanism2d</text>
</g>
<!-- edu_wpi_first_wpilibj_smartdashboard_MechanismLigament2d -->
<g id="node21" class="node">
<title>edu_wpi_first_wpilibj_smartdashboard_MechanismLigament2d</title>
<ellipse fill="none" stroke="black" cx="437.46" cy="-498.05" rx="252.61" ry="30.05"/>
<text text-anchor="middle" x="437.46" y="-502" font-family="Times,serif" font-size="14.00">edu.wpi.first</text>
<text text-anchor="middle" x="437.46" y="-484.75" font-family="Times,serif" font-size="14.00">wpilibj.smartdashboard.MechanismLigament2d</text>
</g>
<!-- edu_wpi_first_wpilibj_smartdashboard_SmartDashboard -->
<g id="node22" class="node">
<title>edu_wpi_first_wpilibj_smartdashboard_SmartDashboard</title>
<ellipse fill="none" stroke="black" cx="437.46" cy="-420.05" rx="220.26" ry="30.05"/>
<text text-anchor="middle" x="437.46" y="-424" font-family="Times,serif" font-size="14.00">edu.wpi.first</text>
<text text-anchor="middle" x="437.46" y="-406.75" font-family="Times,serif" font-size="14.00">wpilibj.smartdashboard.SmartDashboard</text>
</g>
<!-- edu_wpi_first_wpilibj_TimedRobot -->
<g id="node23" class="node">
<title>edu_wpi_first_wpilibj_TimedRobot</title>
<ellipse fill="none" stroke="black" cx="437.46" cy="-888.05" rx="109.42" ry="30.05"/>
<text text-anchor="middle" x="437.46" y="-892" font-family="Times,serif" font-size="14.00">edu.wpi.first</text>
<text text-anchor="middle" x="437.46" y="-874.75" font-family="Times,serif" font-size="14.00">wpilibj.TimedRobot</text>
</g>
<!-- edu_wpi_first_wpilibj_util_Color -->
<g id="node24" class="node">
<title>edu_wpi_first_wpilibj_util_Color</title>
<ellipse fill="none" stroke="black" cx="437.46" cy="-342.05" rx="95.64" ry="30.05"/>
<text text-anchor="middle" x="437.46" y="-346" font-family="Times,serif" font-size="14.00">edu.wpi.first</text>
<text text-anchor="middle" x="437.46" y="-328.75" font-family="Times,serif" font-size="14.00">wpilibj.util.Color</text>
</g>
<!-- edu_wpi_first_wpilibj_util_Color8Bit -->
<g id="node25" class="node">
<title>edu_wpi_first_wpilibj_util_Color8Bit</title>
<ellipse fill="none" stroke="black" cx="437.46" cy="-264.05" rx="116.85" ry="30.05"/>
<text text-anchor="middle" x="437.46" y="-268" font-family="Times,serif" font-size="14.00">edu.wpi.first</text>
<text text-anchor="middle" x="437.46" y="-250.75" font-family="Times,serif" font-size="14.00">wpilibj.util.Color8Bit</text>
</g>
<!-- edu_wpi_first_wpilibj_XboxController -->
<g id="node26" class="node">
<title>edu_wpi_first_wpilibj_XboxController</title>
<ellipse fill="none" stroke="black" cx="437.46" cy="-810.05" rx="124.8" ry="30.05"/>
<text text-anchor="middle" x="437.46" y="-814" font-family="Times,serif" font-size="14.00">edu.wpi.first</text>
<text text-anchor="middle" x="437.46" y="-796.75" font-family="Times,serif" font-size="14.00">wpilibj.XboxController</text>
</g>
<!-- frc_robot_Main -->
<g id="node27" class="node">
<title>frc_robot_Main</title>
<ellipse fill="none" stroke="black" cx="74.42" cy="-1628.05" rx="55.33" ry="30.05"/>
<text text-anchor="middle" x="74.42" y="-1632" font-family="Times,serif" font-size="14.00">frc.robot</text>
<text text-anchor="middle" x="74.42" y="-1614.75" font-family="Times,serif" font-size="14.00">Main</text>
</g>
<!-- frc_robot_Main&#45;&gt;edu_wpi_first_wpilibj_RobotBase -->
<g id="edge32" class="edge">
<title>frc_robot_Main&#45;&gt;edu_wpi_first_wpilibj_RobotBase</title>
<path fill="none" stroke="black" d="M129.86,-1628.05C180.88,-1628.05 258.71,-1628.05 323.19,-1628.05"/>
<polygon fill="black" stroke="black" points="323.14,-1631.55 333.14,-1628.05 323.14,-1624.55 323.14,-1631.55"/>
</g>
<!-- frc_robot_Mechanisms -->
<g id="node28" class="node">
<title>frc_robot_Mechanisms</title>
<ellipse fill="none" stroke="black" cx="74.42" cy="-342.05" rx="74.42" ry="30.05"/>
<text text-anchor="middle" x="74.42" y="-346" font-family="Times,serif" font-size="14.00">frc.robot</text>
<text text-anchor="middle" x="74.42" y="-328.75" font-family="Times,serif" font-size="14.00">Mechanisms</text>
</g>
<!-- frc_robot_Mechanisms&#45;&gt;com_ctre_phoenix6_StatusSignal -->
<g id="edge14" class="edge">
<title>frc_robot_Mechanisms&#45;&gt;com_ctre_phoenix6_StatusSignal</title>
<path fill="none" stroke="black" d="M94.17,-312.77C113.42,-285.34 146,-245.59 184.85,-225.05 226.28,-203.15 276.54,-192.7 321.22,-187.97"/>
<polygon fill="black" stroke="black" points="321.33,-191.48 330.95,-187.04 320.66,-184.51 321.33,-191.48"/>
</g>
<!-- frc_robot_Mechanisms&#45;&gt;edu_wpi_first_units_measure_Angle -->
<g id="edge15" class="edge">
<title>frc_robot_Mechanisms&#45;&gt;edu_wpi_first_units_measure_Angle</title>
<path fill="none" stroke="black" d="M83.23,-311.96C96.32,-268 127.12,-187.11 184.85,-147.05 221.43,-121.67 268.18,-110.22 311.43,-105.67"/>
<polygon fill="black" stroke="black" points="311.5,-109.18 321.13,-104.78 310.85,-102.21 311.5,-109.18"/>
</g>
<!-- frc_robot_Mechanisms&#45;&gt;edu_wpi_first_units_measure_AngularVelocity -->
<g id="edge16" class="edge">
<title>frc_robot_Mechanisms&#45;&gt;edu_wpi_first_units_measure_AngularVelocity</title>
<path fill="none" stroke="black" d="M78.03,-311.73C84.68,-254.4 107.7,-130.38 184.85,-69.05 206.61,-51.75 232.87,-40.59 260.1,-33.61"/>
<polygon fill="black" stroke="black" points="260.59,-37.09 269.52,-31.39 258.98,-30.28 260.59,-37.09"/>
</g>
<!-- frc_robot_Mechanisms&#45;&gt;edu_wpi_first_units_Units -->
<g id="edge13" class="edge">
<title>frc_robot_Mechanisms&#45;&gt;edu_wpi_first_units_Units</title>
<path fill="none" stroke="black" d="M78.03,-372.37C84.68,-429.7 107.7,-553.73 184.85,-615.05 231.67,-652.28 299.3,-661.05 352.65,-661.04"/>
<polygon fill="black" stroke="black" points="352.68,-664.54 362.64,-660.92 352.6,-657.54 352.68,-664.54"/>
</g>
<!-- frc_robot_Mechanisms&#45;&gt;edu_wpi_first_wpilibj_smartdashboard_Mechanism2d -->
<g id="edge17" class="edge">
<title>frc_robot_Mechanisms&#45;&gt;edu_wpi_first_wpilibj_smartdashboard_Mechanism2d</title>
<path fill="none" stroke="black" d="M83.23,-372.14C96.32,-416.1 127.12,-497 184.85,-537.05 200.03,-547.58 216.96,-555.72 234.66,-561.95"/>
<polygon fill="black" stroke="black" points="233.14,-565.14 243.73,-564.94 235.32,-558.49 233.14,-565.14"/>
</g>
<!-- frc_robot_Mechanisms&#45;&gt;edu_wpi_first_wpilibj_smartdashboard_MechanismLigament2d -->
<g id="edge18" class="edge">
<title>frc_robot_Mechanisms&#45;&gt;edu_wpi_first_wpilibj_smartdashboard_MechanismLigament2d</title>
<path fill="none" stroke="black" d="M94.17,-371.33C113.42,-398.76 146,-438.51 184.85,-459.05 197.61,-465.8 211.22,-471.46 225.25,-476.21"/>
<polygon fill="black" stroke="black" points="224.01,-479.49 234.6,-479.2 226.14,-472.82 224.01,-479.49"/>
</g>
<!-- frc_robot_Mechanisms&#45;&gt;edu_wpi_first_wpilibj_smartdashboard_SmartDashboard -->
<g id="edge19" class="edge">
<title>frc_robot_Mechanisms&#45;&gt;edu_wpi_first_wpilibj_smartdashboard_SmartDashboard</title>
<path fill="none" stroke="black" d="M128.23,-363.14C146,-369.63 166.08,-376.3 184.85,-381.05 209.87,-387.39 236.58,-392.87 262.89,-397.55"/>
<polygon fill="black" stroke="black" points="262.2,-400.98 272.65,-399.24 263.4,-394.08 262.2,-400.98"/>
</g>
<!-- frc_robot_Mechanisms&#45;&gt;edu_wpi_first_wpilibj_util_Color -->
<g id="edge20" class="edge">
<title>frc_robot_Mechanisms&#45;&gt;edu_wpi_first_wpilibj_util_Color</title>
<path fill="none" stroke="black" d="M148.92,-342.05C201.01,-342.05 271.71,-342.05 329.97,-342.05"/>
<polygon fill="black" stroke="black" points="329.93,-345.55 339.93,-342.05 329.93,-338.55 329.93,-345.55"/>
</g>
<!-- frc_robot_Mechanisms&#45;&gt;edu_wpi_first_wpilibj_util_Color8Bit -->
<g id="edge21" class="edge">
<title>frc_robot_Mechanisms&#45;&gt;edu_wpi_first_wpilibj_util_Color8Bit</title>
<path fill="none" stroke="black" d="M128.23,-320.96C146,-314.48 166.08,-307.81 184.85,-303.05 227.92,-292.14 275.96,-283.79 318.42,-277.66"/>
<polygon fill="black" stroke="black" points="318.76,-281.15 328.17,-276.29 317.78,-274.22 318.76,-281.15"/>
</g>
<!-- frc_robot_Robot -->
<g id="node29" class="node">
<title>frc_robot_Robot</title>
<ellipse fill="none" stroke="black" cx="74.42" cy="-1131.05" rx="55.33" ry="30.05"/>
<text text-anchor="middle" x="74.42" y="-1135" font-family="Times,serif" font-size="14.00">frc.robot</text>
<text text-anchor="middle" x="74.42" y="-1117.75" font-family="Times,serif" font-size="14.00">Robot</text>
</g>
<!-- frc_robot_Robot&#45;&gt;com_ctre_phoenix6_CANBus -->
<g id="edge2" class="edge">
<title>frc_robot_Robot&#45;&gt;com_ctre_phoenix6_CANBus</title>
<path fill="none" stroke="black" d="M74.67,-1100.52C74.75,-1030.39 85.56,-857.22 184.85,-771.05 222.79,-738.13 276.62,-726.75 324.77,-724.27"/>
<polygon fill="black" stroke="black" points="324.85,-727.77 334.71,-723.9 324.59,-720.78 324.85,-727.77"/>
</g>
<!-- frc_robot_Robot&#45;&gt;com_ctre_phoenix6_configs_TalonFXConfiguration -->
<g id="edge4" class="edge">
<title>frc_robot_Robot&#45;&gt;com_ctre_phoenix6_configs_TalonFXConfiguration</title>
<path fill="none" stroke="black" d="M79.92,-1161.44C92.61,-1243.03 131.33,-1463.92 184.85,-1511.05 207.82,-1531.28 236.77,-1543.42 266.79,-1550.37"/>
<polygon fill="black" stroke="black" points="265.9,-1553.76 276.41,-1552.39 267.34,-1546.91 265.9,-1553.76"/>
</g>
<!-- frc_robot_Robot&#45;&gt;com_ctre_phoenix6_controls_Follower -->
<g id="edge5" class="edge">
<title>frc_robot_Robot&#45;&gt;com_ctre_phoenix6_controls_Follower</title>
<path fill="none" stroke="black" d="M76.69,-1161.13C81.04,-1222.76 100.23,-1363.43 184.85,-1433.05 223.24,-1464.64 276.47,-1476 324.09,-1478.81"/>
<polygon fill="black" stroke="black" points="323.76,-1482.3 333.91,-1479.26 324.08,-1475.31 323.76,-1482.3"/>
</g>
<!-- frc_robot_Robot&#45;&gt;com_ctre_phoenix6_controls_NeutralOut -->
<g id="edge6" class="edge">
<title>frc_robot_Robot&#45;&gt;com_ctre_phoenix6_controls_NeutralOut</title>
<path fill="none" stroke="black" d="M80.87,-1161.03C91.49,-1210.17 119.87,-1307.17 184.85,-1355.05 221.83,-1382.31 270.27,-1393.86 314.75,-1397.97"/>
<polygon fill="black" stroke="black" points="314.21,-1401.44 324.46,-1398.74 314.76,-1394.46 314.21,-1401.44"/>
</g>
<!-- frc_robot_Robot&#45;&gt;com_ctre_phoenix6_controls_VelocityTorqueCurrentFOC -->
<g id="edge7" class="edge">
<title>frc_robot_Robot&#45;&gt;com_ctre_phoenix6_controls_VelocityTorqueCurrentFOC</title>
<path fill="none" stroke="black" d="M88.69,-1160.33C105.77,-1194.37 138.81,-1249.42 184.85,-1277.05 203.49,-1288.24 224.26,-1296.58 245.64,-1302.73"/>
<polygon fill="black" stroke="black" points="244.5,-1306.05 255.07,-1305.28 246.33,-1299.29 244.5,-1306.05"/>
</g>
<!-- frc_robot_Robot&#45;&gt;com_ctre_phoenix6_controls_VelocityVoltage -->
<g id="edge8" class="edge">
<title>frc_robot_Robot&#45;&gt;com_ctre_phoenix6_controls_VelocityVoltage</title>
<path fill="none" stroke="black" d="M107.14,-1155.57C128.08,-1170.49 156.74,-1188.64 184.85,-1199.05 220.97,-1212.44 261.66,-1221.23 299.61,-1227.01"/>
<polygon fill="black" stroke="black" points="298.87,-1230.43 309.27,-1228.41 299.88,-1223.51 298.87,-1230.43"/>
</g>
<!-- frc_robot_Robot&#45;&gt;com_ctre_phoenix6_hardware_TalonFX -->
<g id="edge9" class="edge">
<title>frc_robot_Robot&#45;&gt;com_ctre_phoenix6_hardware_TalonFX</title>
<path fill="none" stroke="black" d="M129.06,-1125.17C146.8,-1123.48 166.65,-1121.88 184.85,-1121.05 409.16,-1110.82 465.53,-1120.55 690.07,-1121.05 725.42,-1121.13 763.91,-1121.28 798.85,-1121.44"/>
<polygon fill="black" stroke="black" points="798.53,-1124.94 808.55,-1121.48 798.57,-1117.94 798.53,-1124.94"/>
</g>
<!-- frc_robot_Robot&#45;&gt;com_ctre_phoenix6_StatusCode -->
<g id="edge3" class="edge">
<title>frc_robot_Robot&#45;&gt;com_ctre_phoenix6_StatusCode</title>
<path fill="none" stroke="black" d="M117.87,-1112.06C137.87,-1103.72 162.25,-1094.4 184.85,-1088.05 231.68,-1074.9 284.58,-1064.94 329.75,-1057.85"/>
<polygon fill="black" stroke="black" points="330.21,-1061.32 339.56,-1056.34 329.15,-1054.4 330.21,-1061.32"/>
</g>
<!-- frc_robot_Robot&#45;&gt;edu_wpi_first_units_Units -->
<g id="edge1" class="edge">
<title>frc_robot_Robot&#45;&gt;edu_wpi_first_units_Units</title>
<path fill="none" stroke="black" d="M78.68,-1100.7C88.96,-1010.82 123.7,-748.87 184.85,-693.05 229.8,-652.01 299.2,-643.84 353.73,-645.05"/>
<polygon fill="black" stroke="black" points="353.5,-648.54 363.62,-645.39 353.74,-641.55 353.5,-648.54"/>
</g>
<!-- frc_robot_Robot&#45;&gt;edu_wpi_first_wpilibj_TimedRobot -->
<g id="edge10" class="edge">
<title>frc_robot_Robot&#45;&gt;edu_wpi_first_wpilibj_TimedRobot</title>
<path fill="none" stroke="black" d="M82.4,-1101.12C94.7,-1055.54 124.82,-969.55 184.85,-927.05 222.93,-900.09 272.38,-888.73 317.36,-884.69"/>
<polygon fill="black" stroke="black" points="317.47,-888.19 327.17,-883.93 316.94,-881.21 317.47,-888.19"/>
</g>
<!-- frc_robot_Robot&#45;&gt;edu_wpi_first_wpilibj_XboxController -->
<g id="edge11" class="edge">
<title>frc_robot_Robot&#45;&gt;edu_wpi_first_wpilibj_XboxController</title>
<path fill="none" stroke="black" d="M77.6,-1100.68C83.55,-1041.92 105.45,-912.89 184.85,-849.05 217.9,-822.47 261.53,-810.34 303.15,-805.56"/>
<polygon fill="black" stroke="black" points="303.43,-809.05 313.04,-804.57 302.74,-802.08 303.43,-809.05"/>
</g>
<!-- frc_robot_sim_PhysicsSim -->
<g id="node30" class="node">
<title>frc_robot_sim_PhysicsSim</title>
<ellipse fill="none" stroke="black" cx="437.46" cy="-1160.05" rx="90.33" ry="30.05"/>
<text text-anchor="middle" x="437.46" y="-1164" font-family="Times,serif" font-size="14.00">frc.robot</text>
<text text-anchor="middle" x="437.46" y="-1146.75" font-family="Times,serif" font-size="14.00">sim.PhysicsSim</text>
</g>
<!-- frc_robot_Robot&#45;&gt;frc_robot_sim_PhysicsSim -->
<g id="edge12" class="edge">
<title>frc_robot_Robot&#45;&gt;frc_robot_sim_PhysicsSim</title>
<path fill="none" stroke="black" d="M129.47,-1135.39C184.42,-1139.81 270.79,-1146.74 337.94,-1152.14"/>
<polygon fill="black" stroke="black" points="337.63,-1155.63 347.88,-1152.94 338.19,-1148.65 337.63,-1155.63"/>
</g>
<!-- frc_robot_sim_PhysicsSim&#45;&gt;com_ctre_phoenix6_hardware_TalonFX -->
<g id="edge24" class="edge">
<title>frc_robot_sim_PhysicsSim&#45;&gt;com_ctre_phoenix6_hardware_TalonFX</title>
<path fill="none" stroke="black" d="M525.69,-1153.08C603.5,-1146.87 717.85,-1137.73 802.33,-1130.98"/>
<polygon fill="black" stroke="black" points="802.58,-1134.47 812.27,-1130.18 802.03,-1127.49 802.58,-1134.47"/>
</g>
<!-- frc_robot_sim_PhysicsSim&#45;&gt;com_ctre_phoenix6_Utils -->
<g id="edge23" class="edge">
<title>frc_robot_sim_PhysicsSim&#45;&gt;com_ctre_phoenix6_Utils</title>
<path fill="none" stroke="black" d="M528.13,-1159.43C578.39,-1162.53 640.7,-1172.34 690.07,-1199.05 711.11,-1210.43 705.33,-1227.14 726.07,-1239.05 749.57,-1252.55 777.1,-1261.4 803.73,-1267.21"/>
<polygon fill="black" stroke="black" points="802.7,-1270.57 813.2,-1269.13 804.1,-1263.71 802.7,-1270.57"/>
</g>
<!-- java_util_ArrayList -->
<g id="node33" class="node">
<title>java_util_ArrayList</title>
<ellipse fill="none" stroke="black" cx="915.05" cy="-1200.05" rx="58.51" ry="30.05"/>
<text text-anchor="middle" x="915.05" y="-1204" font-family="Times,serif" font-size="14.00">java.util</text>
<text text-anchor="middle" x="915.05" y="-1186.75" font-family="Times,serif" font-size="14.00">ArrayList</text>
</g>
<!-- frc_robot_sim_PhysicsSim&#45;&gt;java_util_ArrayList -->
<g id="edge22" class="edge">
<title>frc_robot_sim_PhysicsSim&#45;&gt;java_util_ArrayList</title>
<path fill="none" stroke="black" d="M525.41,-1167.37C617.54,-1175.11 761.11,-1187.19 845.54,-1194.29"/>
<polygon fill="black" stroke="black" points="845.03,-1197.76 855.29,-1195.11 845.62,-1190.78 845.03,-1197.76"/>
</g>
<!-- frc_robot_sim_PhysicsSim_SimProfile -->
<g id="node31" class="node">
<title>frc_robot_sim_PhysicsSim_SimProfile</title>
<ellipse fill="none" stroke="black" cx="915.05" cy="-888.05" rx="146.02" ry="30.05"/>
<text text-anchor="middle" x="915.05" y="-892" font-family="Times,serif" font-size="14.00">frc.robot</text>
<text text-anchor="middle" x="915.05" y="-874.75" font-family="Times,serif" font-size="14.00">sim.PhysicsSim.SimProfile</text>
</g>
<!-- frc_robot_sim_TalonFXSimProfile -->
<g id="node32" class="node">
<title>frc_robot_sim_TalonFXSimProfile</title>
<ellipse fill="none" stroke="black" cx="437.46" cy="-966.05" rx="125.87" ry="30.05"/>
<text text-anchor="middle" x="437.46" y="-970" font-family="Times,serif" font-size="14.00">frc.robot</text>
<text text-anchor="middle" x="437.46" y="-952.75" font-family="Times,serif" font-size="14.00">sim.TalonFXSimProfile</text>
</g>
<!-- frc_robot_sim_TalonFXSimProfile&#45;&gt;com_ctre_phoenix6_hardware_TalonFX -->
<g id="edge25" class="edge">
<title>frc_robot_sim_TalonFXSimProfile&#45;&gt;com_ctre_phoenix6_hardware_TalonFX</title>
<path fill="none" stroke="black" d="M562.34,-961.88C606.35,-966.09 653.9,-977.77 690.07,-1005.05 720.56,-1028.04 696.18,-1059.3 726.07,-1083.05 747.08,-1099.74 773.46,-1109.8 799.76,-1115.73"/>
<polygon fill="black" stroke="black" points="799.03,-1119.15 809.53,-1117.73 800.43,-1112.3 799.03,-1119.15"/>
</g>
<!-- frc_robot_sim_TalonFXSimProfile&#45;&gt;com_ctre_phoenix6_sim_TalonFXSimState -->
<g id="edge26" class="edge">
<title>frc_robot_sim_TalonFXSimProfile&#45;&gt;com_ctre_phoenix6_sim_TalonFXSimState</title>
<path fill="none" stroke="black" d="M562.34,-970.23C606.35,-966.02 653.9,-954.33 690.07,-927.05 720.56,-904.06 696.18,-872.81 726.07,-849.05 743.6,-835.13 764.86,-825.82 786.7,-819.68"/>
<polygon fill="black" stroke="black" points="787.52,-823.08 796.34,-817.2 785.78,-816.3 787.52,-823.08"/>
</g>
<!-- frc_robot_sim_TalonFXSimProfile&#45;&gt;edu_wpi_first_math_system_plant_DCMotor -->
<g id="edge27" class="edge">
<title>frc_robot_sim_TalonFXSimProfile&#45;&gt;edu_wpi_first_math_system_plant_DCMotor</title>
<path fill="none" stroke="black" d="M558.77,-974.59C605.09,-971.52 655.19,-959.48 690.07,-927.05 742.19,-878.61 675.2,-820.8 726.07,-771.05 736.04,-761.31 747.76,-753.7 760.41,-747.8"/>
<polygon fill="black" stroke="black" points="761.5,-751.15 769.34,-744.02 758.76,-744.7 761.5,-751.15"/>
</g>
<!-- frc_robot_sim_TalonFXSimProfile&#45;&gt;edu_wpi_first_math_system_plant_LinearSystemId -->
<g id="edge28" class="edge">
<title>frc_robot_sim_TalonFXSimProfile&#45;&gt;edu_wpi_first_math_system_plant_LinearSystemId</title>
<path fill="none" stroke="black" d="M556.78,-976.05C604.19,-973.55 655.63,-961.53 690.07,-927.05 764.44,-852.61 653.63,-769.36 726.07,-693.05 732.29,-686.51 739.29,-680.91 746.84,-676.14"/>
<polygon fill="black" stroke="black" points="748.42,-679.27 755.37,-671.27 744.95,-673.19 748.42,-679.27"/>
</g>
<!-- frc_robot_sim_TalonFXSimProfile&#45;&gt;edu_wpi_first_math_util_Units -->
<g id="edge29" class="edge">
<title>frc_robot_sim_TalonFXSimProfile&#45;&gt;edu_wpi_first_math_util_Units</title>
<path fill="none" stroke="black" d="M544.74,-982.08C589.62,-988.96 642.42,-997.21 690.07,-1005.05 734.48,-1012.36 783.77,-1020.89 824.77,-1028.11"/>
<polygon fill="black" stroke="black" points="824.16,-1031.56 834.62,-1029.85 825.38,-1024.67 824.16,-1031.56"/>
</g>
<!-- frc_robot_sim_TalonFXSimProfile&#45;&gt;edu_wpi_first_wpilibj_simulation_DCMotorSim -->
<g id="edge30" class="edge">
<title>frc_robot_sim_TalonFXSimProfile&#45;&gt;edu_wpi_first_wpilibj_simulation_DCMotorSim</title>
<path fill="none" stroke="black" d="M563.73,-966.05C615.59,-966.05 676.72,-966.05 733.29,-966.05"/>
<polygon fill="black" stroke="black" points="733.02,-969.55 743.02,-966.05 733.02,-962.55 733.02,-969.55"/>
</g>
<!-- frc_robot_sim_TalonFXSimProfile&#45;&gt;frc_robot_sim_PhysicsSim_SimProfile -->
<g id="edge31" class="edge">
<title>frc_robot_sim_TalonFXSimProfile&#45;&gt;frc_robot_sim_PhysicsSim_SimProfile</title>
<path fill="none" stroke="black" d="M544.74,-950.03C589.62,-943.14 642.42,-934.89 690.07,-927.05 723.23,-921.6 759.1,-915.46 792.21,-909.69"/>
<polygon fill="black" stroke="black" points="792.59,-913.18 801.84,-908.01 791.38,-906.28 792.59,-913.18"/>
</g>
</g>
</svg>
