<?xml version="1.0" encoding="UTF-8" standalone="no"?>
<!DOCTYPE svg PUBLIC "-//W3C//DTD SVG 1.1//EN"
 "http://www.w3.org/Graphics/SVG/1.1/DTD/svg11.dtd">
<!-- Generated by graphviz version 12.2.1 (0)
 -->
<!-- Title: WaitForAll Pages: 1 -->
<svg width="487pt" height="770pt"
 viewBox="0.00 0.00 487.00 770.10" xmlns="http://www.w3.org/2000/svg" xmlns:xlink="http://www.w3.org/1999/xlink">
<g id="graph0" class="graph" transform="scale(1 1) rotate(0) translate(4 766.1)">
<title>WaitForAll</title>
<polygon fill="white" stroke="none" points="-4,4 -4,-766.1 483,-766.1 483,4 -4,4"/>
<!-- com_ctre_phoenix6_BaseStatusSignal -->
<g id="node1" class="node">
<title>com_ctre_phoenix6_BaseStatusSignal</title>
<ellipse fill="none" stroke="black" cx="312.83" cy="-654.05" rx="104.65" ry="30.05"/>
<text text-anchor="middle" x="312.83" y="-658" font-family="Times,serif" font-size="14.00">com.ctre.phoenix6</text>
<text text-anchor="middle" x="312.83" y="-640.75" font-family="Times,serif" font-size="14.00">BaseStatusSignal</text>
</g>
<!-- com_ctre_phoenix6_hardware_Pigeon2 -->
<g id="node2" class="node">
<title>com_ctre_phoenix6_hardware_Pigeon2</title>
<ellipse fill="none" stroke="black" cx="312.83" cy="-576.05" rx="104.65" ry="30.05"/>
<text text-anchor="middle" x="312.83" y="-580" font-family="Times,serif" font-size="14.00">com.ctre.phoenix6</text>
<text text-anchor="middle" x="312.83" y="-562.75" font-family="Times,serif" font-size="14.00">hardware.Pigeon2</text>
</g>
<!-- com_ctre_phoenix6_hardware_TalonFX -->
<g id="node3" class="node">
<title>com_ctre_phoenix6_hardware_TalonFX</title>
<ellipse fill="none" stroke="black" cx="312.83" cy="-498.05" rx="104.65" ry="30.05"/>
<text text-anchor="middle" x="312.83" y="-502" font-family="Times,serif" font-size="14.00">com.ctre.phoenix6</text>
<text text-anchor="middle" x="312.83" y="-484.75" font-family="Times,serif" font-size="14.00">hardware.TalonFX</text>
</g>
<!-- com_ctre_phoenix6_signals_ControlModeValue -->
<g id="node4" class="node">
<title>com_ctre_phoenix6_signals_ControlModeValue</title>
<ellipse fill="none" stroke="black" cx="312.83" cy="-420.05" rx="143.37" ry="30.05"/>
<text text-anchor="middle" x="312.83" y="-424" font-family="Times,serif" font-size="14.00">com.ctre.phoenix6</text>
<text text-anchor="middle" x="312.83" y="-406.75" font-family="Times,serif" font-size="14.00">signals.ControlModeValue</text>
</g>
<!-- com_ctre_phoenix6_StatusSignal -->
<g id="node5" class="node">
<title>com_ctre_phoenix6_StatusSignal</title>
<ellipse fill="none" stroke="black" cx="312.83" cy="-342.05" rx="104.65" ry="30.05"/>
<text text-anchor="middle" x="312.83" y="-346" font-family="Times,serif" font-size="14.00">com.ctre.phoenix6</text>
<text text-anchor="middle" x="312.83" y="-328.75" font-family="Times,serif" font-size="14.00">StatusSignal</text>
</g>
<!-- edu_wpi_first_units_measure_Angle -->
<g id="node6" class="node">
<title>edu_wpi_first_units_measure_Angle</title>
<ellipse fill="none" stroke="black" cx="312.83" cy="-264.05" rx="115.26" ry="30.05"/>
<text text-anchor="middle" x="312.83" y="-268" font-family="Times,serif" font-size="14.00">edu.wpi.first</text>
<text text-anchor="middle" x="312.83" y="-250.75" font-family="Times,serif" font-size="14.00">units.measure.Angle</text>
</g>
<!-- edu_wpi_first_units_measure_AngularVelocity -->
<g id="node7" class="node">
<title>edu_wpi_first_units_measure_AngularVelocity</title>
<ellipse fill="none" stroke="black" cx="312.83" cy="-186.05" rx="166.17" ry="30.05"/>
<text text-anchor="middle" x="312.83" y="-190" font-family="Times,serif" font-size="14.00">edu.wpi.first</text>
<text text-anchor="middle" x="312.83" y="-172.75" font-family="Times,serif" font-size="14.00">units.measure.AngularVelocity</text>
</g>
<!-- edu_wpi_first_wpilibj_RobotBase -->
<g id="node8" class="node">
<title>edu_wpi_first_wpilibj_RobotBase</title>
<ellipse fill="none" stroke="black" cx="312.83" cy="-732.05" rx="102.53" ry="30.05"/>
<text text-anchor="middle" x="312.83" y="-736" font-family="Times,serif" font-size="14.00">edu.wpi.first</text>
<text text-anchor="middle" x="312.83" y="-718.75" font-family="Times,serif" font-size="14.00">wpilibj.RobotBase</text>
</g>
<!-- edu_wpi_first_wpilibj_TimedRobot -->
<g id="node9" class="node">
<title>edu_wpi_first_wpilibj_TimedRobot</title>
<ellipse fill="none" stroke="black" cx="312.83" cy="-108.05" rx="109.42" ry="30.05"/>
<text text-anchor="middle" x="312.83" y="-112" font-family="Times,serif" font-size="14.00">edu.wpi.first</text>
<text text-anchor="middle" x="312.83" y="-94.75" font-family="Times,serif" font-size="14.00">wpilibj.TimedRobot</text>
</g>
<!-- edu_wpi_first_wpilibj_XboxController -->
<g id="node10" class="node">
<title>edu_wpi_first_wpilibj_XboxController</title>
<ellipse fill="none" stroke="black" cx="312.83" cy="-30.05" rx="124.8" ry="30.05"/>
<text text-anchor="middle" x="312.83" y="-34" font-family="Times,serif" font-size="14.00">edu.wpi.first</text>
<text text-anchor="middle" x="312.83" y="-16.75" font-family="Times,serif" font-size="14.00">wpilibj.XboxController</text>
</g>
<!-- frc_robot_Main -->
<g id="node11" class="node">
<title>frc_robot_Main</title>
<ellipse fill="none" stroke="black" cx="55.33" cy="-732.05" rx="55.33" ry="30.05"/>
<text text-anchor="middle" x="55.33" y="-736" font-family="Times,serif" font-size="14.00">frc.robot</text>
<text text-anchor="middle" x="55.33" y="-718.75" font-family="Times,serif" font-size="14.00">Main</text>
</g>
<!-- frc_robot_Main&#45;&gt;edu_wpi_first_wpilibj_RobotBase -->
<g id="edge10" class="edge">
<title>frc_robot_Main&#45;&gt;edu_wpi_first_wpilibj_RobotBase</title>
<path fill="none" stroke="black" d="M111.14,-732.05C136.8,-732.05 168.37,-732.05 198.81,-732.05"/>
<polygon fill="black" stroke="black" points="198.44,-735.55 208.44,-732.05 198.44,-728.55 198.44,-735.55"/>
</g>
<!-- frc_robot_Robot -->
<g id="node12" class="node">
<title>frc_robot_Robot</title>
<ellipse fill="none" stroke="black" cx="55.33" cy="-342.05" rx="55.33" ry="30.05"/>
<text text-anchor="middle" x="55.33" y="-346" font-family="Times,serif" font-size="14.00">frc.robot</text>
<text text-anchor="middle" x="55.33" y="-328.75" font-family="Times,serif" font-size="14.00">Robot</text>
</g>
<!-- frc_robot_Robot&#45;&gt;com_ctre_phoenix6_BaseStatusSignal -->
<g id="edge1" class="edge">
<title>frc_robot_Robot&#45;&gt;com_ctre_phoenix6_BaseStatusSignal</title>
<path fill="none" stroke="black" d="M57.19,-372.57C60.51,-429.12 75.98,-550.31 146.66,-615.05 161.6,-628.74 180.43,-637.88 199.99,-643.94"/>
<polygon fill="black" stroke="black" points="198.88,-647.27 209.45,-646.59 200.76,-640.53 198.88,-647.27"/>
</g>
<!-- frc_robot_Robot&#45;&gt;com_ctre_phoenix6_hardware_Pigeon2 -->
<g id="edge3" class="edge">
<title>frc_robot_Robot&#45;&gt;com_ctre_phoenix6_hardware_Pigeon2</title>
<path fill="none" stroke="black" d="M61.73,-372.18C71.11,-415.44 94.63,-494.59 146.66,-537.05 162.36,-549.86 181.54,-558.6 201.2,-564.54"/>
<polygon fill="black" stroke="black" points="200.13,-567.87 210.7,-567.15 201.99,-561.12 200.13,-567.87"/>
</g>
<!-- frc_robot_Robot&#45;&gt;com_ctre_phoenix6_hardware_TalonFX -->
<g id="edge4" class="edge">
<title>frc_robot_Robot&#45;&gt;com_ctre_phoenix6_hardware_TalonFX</title>
<path fill="none" stroke="black" d="M71.22,-371.22C86.5,-398.16 112.8,-437.22 146.66,-459.05 163.98,-470.22 184.16,-478.19 204.35,-483.89"/>
<polygon fill="black" stroke="black" points="203.2,-487.2 213.76,-486.36 204.97,-480.43 203.2,-487.2"/>
</g>
<!-- frc_robot_Robot&#45;&gt;com_ctre_phoenix6_signals_ControlModeValue -->
<g id="edge5" class="edge">
<title>frc_robot_Robot&#45;&gt;com_ctre_phoenix6_signals_ControlModeValue</title>
<path fill="none" stroke="black" d="M97.56,-361.67C112.77,-368.42 130.28,-375.63 146.66,-381.05 163.34,-386.57 181.21,-391.64 198.81,-396.16"/>
<polygon fill="black" stroke="black" points="197.7,-399.49 208.25,-398.54 199.41,-392.7 197.7,-399.49"/>
</g>
<!-- frc_robot_Robot&#45;&gt;com_ctre_phoenix6_StatusSignal -->
<g id="edge2" class="edge">
<title>frc_robot_Robot&#45;&gt;com_ctre_phoenix6_StatusSignal</title>
<path fill="none" stroke="black" d="M111.14,-342.05C136.17,-342.05 166.82,-342.05 196.55,-342.05"/>
<polygon fill="black" stroke="black" points="196.38,-345.55 206.38,-342.05 196.38,-338.55 196.38,-345.55"/>
</g>
<!-- frc_robot_Robot&#45;&gt;edu_wpi_first_units_measure_Angle -->
<g id="edge6" class="edge">
<title>frc_robot_Robot&#45;&gt;edu_wpi_first_units_measure_Angle</title>
<path fill="none" stroke="black" d="M97.56,-322.44C112.77,-315.69 130.28,-308.47 146.66,-303.05 166.91,-296.35 188.91,-290.32 210.06,-285.12"/>
<polygon fill="black" stroke="black" points="210.65,-288.57 219.55,-282.83 209.01,-281.77 210.65,-288.57"/>
</g>
<!-- frc_robot_Robot&#45;&gt;edu_wpi_first_units_measure_AngularVelocity -->
<g id="edge7" class="edge">
<title>frc_robot_Robot&#45;&gt;edu_wpi_first_units_measure_AngularVelocity</title>
<path fill="none" stroke="black" d="M71.22,-312.89C86.5,-285.94 112.8,-246.88 146.66,-225.05 155.86,-219.13 165.86,-214.1 176.24,-209.83"/>
<polygon fill="black" stroke="black" points="177.23,-213.2 185.31,-206.36 174.72,-206.66 177.23,-213.2"/>
</g>
<!-- frc_robot_Robot&#45;&gt;edu_wpi_first_wpilibj_TimedRobot -->
<g id="edge8" class="edge">
<title>frc_robot_Robot&#45;&gt;edu_wpi_first_wpilibj_TimedRobot</title>
<path fill="none" stroke="black" d="M61.73,-311.92C71.11,-268.67 94.63,-189.51 146.66,-147.05 161.45,-134.98 179.33,-126.53 197.8,-120.62"/>
<polygon fill="black" stroke="black" points="198.64,-124.02 207.26,-117.86 196.68,-117.3 198.64,-124.02"/>
</g>
<!-- frc_robot_Robot&#45;&gt;edu_wpi_first_wpilibj_XboxController -->
<g id="edge9" class="edge">
<title>frc_robot_Robot&#45;&gt;edu_wpi_first_wpilibj_XboxController</title>
<path fill="none" stroke="black" d="M57.19,-311.54C60.51,-254.99 75.98,-133.79 146.66,-69.05 158.03,-58.64 171.64,-50.86 186.11,-45.06"/>
<polygon fill="black" stroke="black" points="187.16,-48.41 195.36,-41.7 184.77,-41.83 187.16,-48.41"/>
</g>
</g>
</svg>
