<?xml version="1.0" encoding="UTF-8" standalone="no"?>
<!DOCTYPE svg PUBLIC "-//W3C//DTD SVG 1.1//EN"
 "http://www.w3.org/Graphics/SVG/1.1/DTD/svg11.dtd">
<!-- Generated by graphviz version 12.2.1 (0)
 -->
<!-- Title: G Pages: 1 -->
<svg width="414pt" height="260pt"
 viewBox="0.00 0.00 413.55 260.00" xmlns="http://www.w3.org/2000/svg" xmlns:xlink="http://www.w3.org/1999/xlink">
<g id="graph0" class="graph" transform="scale(1 1) rotate(0) translate(4 256)">
<title>G</title>
<polygon fill="white" stroke="none" points="-4,4 -4,-256 409.55,-256 409.55,4 -4,4"/>
<!-- wpilog -->
<g id="node1" class="node">
<title>wpilog</title>
<ellipse fill="none" stroke="black" cx="216.46" cy="-126" rx="44.37" ry="18"/>
<text text-anchor="middle" x="216.46" y="-121.33" font-family="Times,serif" font-size="14.00">wpilog</text>
</g>
<!-- csvTable -->
<g id="node2" class="node">
<title>csvTable</title>
<ellipse fill="none" stroke="black" cx="351.19" cy="-180" rx="54.36" ry="18"/>
<text text-anchor="middle" x="351.19" y="-175.32" font-family="Times,serif" font-size="14.00">csvTable</text>
</g>
<!-- wpilog&#45;&gt;csvTable -->
<g id="edge1" class="edge">
<title>wpilog&#45;&gt;csvTable</title>
<path fill="none" stroke="black" d="M248.58,-138.66C265.49,-145.54 286.7,-154.17 305.36,-161.76"/>
<polygon fill="black" stroke="black" points="304.02,-164.99 314.6,-165.52 306.66,-158.51 304.02,-164.99"/>
</g>
<!-- csvLog -->
<g id="node3" class="node">
<title>csvLog</title>
<ellipse fill="none" stroke="black" cx="351.19" cy="-126" rx="45.95" ry="18"/>
<text text-anchor="middle" x="351.19" y="-121.33" font-family="Times,serif" font-size="14.00">csvLog</text>
</g>
<!-- wpilog&#45;&gt;csvLog -->
<g id="edge2" class="edge">
<title>wpilog&#45;&gt;csvLog</title>
<path fill="none" stroke="black" d="M261.29,-126C271.71,-126 282.98,-126 293.87,-126"/>
<polygon fill="black" stroke="black" points="293.53,-129.5 303.53,-126 293.53,-122.5 293.53,-129.5"/>
</g>
<!-- mcap -->
<g id="node4" class="node">
<title>mcap</title>
<ellipse fill="none" stroke="black" cx="351.19" cy="-72" rx="38.06" ry="18"/>
<text text-anchor="middle" x="351.19" y="-67.33" font-family="Times,serif" font-size="14.00">mcap</text>
</g>
<!-- wpilog&#45;&gt;mcap -->
<g id="edge3" class="edge">
<title>wpilog&#45;&gt;mcap</title>
<path fill="none" stroke="black" d="M248.58,-113.34C267.2,-105.76 291.03,-96.07 310.93,-87.97"/>
<polygon fill="black" stroke="black" points="312.19,-91.24 320.13,-84.23 309.55,-84.76 312.19,-91.24"/>
</g>
<!-- dslog -->
<g id="node5" class="node">
<title>dslog</title>
<ellipse fill="none" stroke="black" cx="68.04" cy="-234" rx="38.06" ry="18"/>
<text text-anchor="middle" x="68.04" y="-229.32" font-family="Times,serif" font-size="14.00">dslog</text>
</g>
<!-- dslog&#45;&gt;wpilog -->
<g id="edge4" class="edge">
<title>dslog&#45;&gt;wpilog</title>
<path fill="none" stroke="black" d="M100.75,-224.29C112.39,-219.96 125.34,-214.18 136.09,-207 158.81,-191.81 180.22,-169.28 195.07,-151.84"/>
<polygon fill="black" stroke="black" points="197.54,-154.34 201.24,-144.41 192.16,-149.86 197.54,-154.34"/>
</g>
<!-- dsevents -->
<g id="node6" class="node">
<title>dsevents</title>
<ellipse fill="none" stroke="black" cx="68.04" cy="-180" rx="55.94" ry="18"/>
<text text-anchor="middle" x="68.04" y="-175.32" font-family="Times,serif" font-size="14.00">dsevents</text>
</g>
<!-- dsevents&#45;&gt;wpilog -->
<g id="edge5" class="edge">
<title>dsevents&#45;&gt;wpilog</title>
<path fill="none" stroke="black" d="M105.99,-166.37C126.19,-158.92 151.31,-149.66 172.4,-141.88"/>
<polygon fill="black" stroke="black" points="173.42,-145.24 181.59,-138.49 170.99,-138.67 173.42,-145.24"/>
</g>
<!-- hoot -->
<g id="node7" class="node">
<title>hoot</title>
<ellipse fill="none" stroke="black" cx="68.04" cy="-126" rx="33.32" ry="18"/>
<text text-anchor="middle" x="68.04" y="-121.33" font-family="Times,serif" font-size="14.00">hoot</text>
</g>
<!-- hoot&#45;&gt;wpilog -->
<g id="edge6" class="edge">
<title>hoot&#45;&gt;wpilog</title>
<path fill="none" stroke="black" d="M101.54,-126C118.79,-126 140.47,-126 160.27,-126"/>
<polygon fill="black" stroke="black" points="160.15,-129.5 170.15,-126 160.15,-122.5 160.15,-129.5"/>
</g>
<!-- roadrunner -->
<g id="node8" class="node">
<title>roadrunner</title>
<ellipse fill="none" stroke="black" cx="68.04" cy="-72" rx="68.04" ry="18"/>
<text text-anchor="middle" x="68.04" y="-67.33" font-family="Times,serif" font-size="14.00">roadrunner</text>
</g>
<!-- roadrunner&#45;&gt;wpilog -->
<g id="edge7" class="edge">
<title>roadrunner&#45;&gt;wpilog</title>
<path fill="none" stroke="black" d="M109.05,-86.76C128.63,-93.98 152.22,-102.68 172.21,-110.05"/>
<polygon fill="black" stroke="black" points="170.88,-113.29 181.47,-113.47 173.3,-106.72 170.88,-113.29"/>
</g>
<!-- rlog -->
<g id="node9" class="node">
<title>rlog</title>
<ellipse fill="none" stroke="black" cx="68.04" cy="-18" rx="31.22" ry="18"/>
<text text-anchor="middle" x="68.04" y="-13.32" font-family="Times,serif" font-size="14.00">rlog</text>
</g>
<!-- rlog&#45;&gt;wpilog -->
<g id="edge8" class="edge">
<title>rlog&#45;&gt;wpilog</title>
<path fill="none" stroke="black" d="M96.41,-26.14C109.09,-30.61 123.99,-36.91 136.09,-45 158.81,-60.19 180.22,-82.72 195.07,-100.16"/>
<polygon fill="black" stroke="black" points="192.16,-102.14 201.24,-107.59 197.54,-97.66 192.16,-102.14"/>
</g>
</g>
</svg>
