<?xml version="1.0" encoding="UTF-8" standalone="no"?>
<!DOCTYPE svg PUBLIC "-//W3C//DTD SVG 1.1//EN"
 "http://www.w3.org/Graphics/SVG/1.1/DTD/svg11.dtd">
<!-- Generated by graphviz version 7.0.1 (20221109.1506)
 -->
<!-- Title: Protobuf UML class diagram Pages: 1 -->
<svg width="757pt" height="221pt"
 viewBox="0.00 0.00 757.00 221.00" xmlns="http://www.w3.org/2000/svg" xmlns:xlink="http://www.w3.org/1999/xlink">
<g id="graph0" class="graph" transform="scale(1 1) rotate(0) translate(4 217)">
<title>Protobuf UML class diagram</title>
<polygon fill="white" stroke="none" points="-4,4 -4,-217 753,-217 753,4 -4,4"/>
<!-- wpi.proto.ProtobufTranslation2d -->
<g id="node1" class="node">
<title>wpi.proto.ProtobufTranslation2d</title>
<polygon fill="#f2f2f2" stroke="black" points="241.5,-0.5 241.5,-43.5 423.5,-43.5 423.5,-0.5 241.5,-0.5"/>
<text text-anchor="middle" x="332.5" y="-33.1" font-family="Bitstream Vera Sans" font-size="8.00">wpi.proto.ProtobufTranslation2d</text>
<polyline fill="none" stroke="black" points="241.5,-26.5 423.5,-26.5"/>
<text text-anchor="middle" x="332.5" y="-16.1" font-family="Bitstream Vera Sans" font-size="8.00">+ wpi.proto.ProtobufTranslation2d.x:double</text>
<text text-anchor="middle" x="332.5" y="-7.1" font-family="Bitstream Vera Sans" font-size="8.00">+ wpi.proto.ProtobufTranslation2d.y:double</text>
</g>
<!-- wpi.proto.ProtobufRotation2d -->
<g id="node2" class="node">
<title>wpi.proto.ProtobufRotation2d</title>
<polygon fill="#f2f2f2" stroke="black" points="470.5,-4 470.5,-40 658.5,-40 658.5,-4 470.5,-4"/>
<text text-anchor="middle" x="564.5" y="-29.1" font-family="Bitstream Vera Sans" font-size="8.00">wpi.proto.ProtobufRotation2d</text>
<polyline fill="none" stroke="black" points="470.5,-22 658.5,-22"/>
<text text-anchor="middle" x="564.5" y="-11.1" font-family="Bitstream Vera Sans" font-size="8.00">+ wpi.proto.ProtobufRotation2d.value:double</text>
</g>
<!-- wpi.proto.ProtobufPose2d -->
<g id="node3" class="node">
<title>wpi.proto.ProtobufPose2d</title>
<polygon fill="#f2f2f2" stroke="black" points="129.5,-80.5 129.5,-123.5 419.5,-123.5 419.5,-80.5 129.5,-80.5"/>
<text text-anchor="middle" x="274.5" y="-113.1" font-family="Bitstream Vera Sans" font-size="8.00">wpi.proto.ProtobufPose2d</text>
<polyline fill="none" stroke="black" points="129.5,-106.5 419.5,-106.5"/>
<text text-anchor="middle" x="274.5" y="-96.1" font-family="Bitstream Vera Sans" font-size="8.00">+ wpi.proto.ProtobufPose2d.translation:wpi.proto.ProtobufTranslation2d</text>
<text text-anchor="middle" x="274.5" y="-87.1" font-family="Bitstream Vera Sans" font-size="8.00">+ wpi.proto.ProtobufPose2d.rotation:wpi.proto.ProtobufRotation2d</text>
</g>
<!-- wpi.proto.ProtobufPose2d&#45;&gt;wpi.proto.ProtobufTranslation2d -->
<g id="edge1" class="edge">
<title>wpi.proto.ProtobufPose2d&#45;&gt;wpi.proto.ProtobufTranslation2d</title>
<path fill="none" stroke="black" d="M289.74,-80.51C298.26,-69.04 308.85,-54.8 317.36,-43.36"/>
<text text-anchor="middle" x="314.86" y="-45.96" font-family="Bitstream Vera Sans" font-size="8.00">1</text>
<text text-anchor="middle" x="287.24" y="-74.11" font-family="Bitstream Vera Sans" font-size="8.00">1</text>
</g>
<!-- wpi.proto.ProtobufPose2d&#45;&gt;wpi.proto.ProtobufRotation2d -->
<g id="edge2" class="edge">
<title>wpi.proto.ProtobufPose2d&#45;&gt;wpi.proto.ProtobufRotation2d</title>
<path fill="none" stroke="black" d="M350.69,-80.51C397.68,-67.87 457.22,-51.85 501.53,-39.94"/>
<text text-anchor="middle" x="499.03" y="-42.54" font-family="Bitstream Vera Sans" font-size="8.00">1</text>
<text text-anchor="middle" x="348.19" y="-74.11" font-family="Bitstream Vera Sans" font-size="8.00">1</text>
</g>
<!-- wpi.proto.ProtobufTransform2d -->
<g id="node4" class="node">
<title>wpi.proto.ProtobufTransform2d</title>
<polygon fill="#f2f2f2" stroke="black" points="438,-80.5 438,-123.5 749,-123.5 749,-80.5 438,-80.5"/>
<text text-anchor="middle" x="593.5" y="-113.1" font-family="Bitstream Vera Sans" font-size="8.00">wpi.proto.ProtobufTransform2d</text>
<polyline fill="none" stroke="black" points="438,-106.5 749,-106.5"/>
<text text-anchor="middle" x="593.5" y="-96.1" font-family="Bitstream Vera Sans" font-size="8.00">+ wpi.proto.ProtobufTransform2d.translation:wpi.proto.ProtobufTranslation2d</text>
<text text-anchor="middle" x="593.5" y="-87.1" font-family="Bitstream Vera Sans" font-size="8.00">+ wpi.proto.ProtobufTransform2d.rotation:wpi.proto.ProtobufRotation2d</text>
</g>
<!-- wpi.proto.ProtobufTransform2d&#45;&gt;wpi.proto.ProtobufTranslation2d -->
<g id="edge3" class="edge">
<title>wpi.proto.ProtobufTransform2d&#45;&gt;wpi.proto.ProtobufTranslation2d</title>
<path fill="none" stroke="black" d="M524.93,-80.51C486.71,-69.09 439.28,-54.91 401.07,-43.49"/>
<text text-anchor="middle" x="398.57" y="-46.09" font-family="Bitstream Vera Sans" font-size="8.00">1</text>
<text text-anchor="middle" x="522.43" y="-74.11" font-family="Bitstream Vera Sans" font-size="8.00">1</text>
</g>
<!-- wpi.proto.ProtobufTransform2d&#45;&gt;wpi.proto.ProtobufRotation2d -->
<g id="edge4" class="edge">
<title>wpi.proto.ProtobufTransform2d&#45;&gt;wpi.proto.ProtobufRotation2d</title>
<path fill="none" stroke="black" d="M585.88,-80.51C581.18,-67.87 575.23,-51.85 570.8,-39.94"/>
<text text-anchor="middle" x="568.3" y="-42.54" font-family="Bitstream Vera Sans" font-size="8.00">1</text>
<text text-anchor="middle" x="583.38" y="-74.11" font-family="Bitstream Vera Sans" font-size="8.00">1</text>
</g>
<!-- wpi.proto.ProtobufTwist2d -->
<g id="node5" class="node">
<title>wpi.proto.ProtobufTwist2d</title>
<polygon fill="#f2f2f2" stroke="black" points="562,-160.5 562,-212.5 743,-212.5 743,-160.5 562,-160.5"/>
<text text-anchor="middle" x="652.5" y="-202.1" font-family="Bitstream Vera Sans" font-size="8.00">wpi.proto.ProtobufTwist2d</text>
<polyline fill="none" stroke="black" points="562,-195.5 743,-195.5"/>
<text text-anchor="middle" x="652.5" y="-185.1" font-family="Bitstream Vera Sans" font-size="8.00">+ wpi.proto.ProtobufTwist2d.dx:double</text>
<text text-anchor="middle" x="652.5" y="-176.1" font-family="Bitstream Vera Sans" font-size="8.00">+ wpi.proto.ProtobufTwist2d.dy:double</text>
<text text-anchor="middle" x="652.5" y="-167.1" font-family="Bitstream Vera Sans" font-size="8.00">+ wpi.proto.ProtobufTwist2d.dtheta:double</text>
</g>
<!-- wpi.proto.ProtobufRectangle2d -->
<g id="node6" class="node">
<title>wpi.proto.ProtobufRectangle2d</title>
<polygon fill="#f2f2f2" stroke="black" points="0,-160.5 0,-212.5 269,-212.5 269,-160.5 0,-160.5"/>
<text text-anchor="middle" x="134.5" y="-202.1" font-family="Bitstream Vera Sans" font-size="8.00">wpi.proto.ProtobufRectangle2d</text>
<polyline fill="none" stroke="black" points="0,-195.5 269,-195.5"/>
<text text-anchor="middle" x="134.5" y="-185.1" font-family="Bitstream Vera Sans" font-size="8.00">+ wpi.proto.ProtobufRectangle2d.center:wpi.proto.ProtobufPose2d</text>
<text text-anchor="middle" x="134.5" y="-176.1" font-family="Bitstream Vera Sans" font-size="8.00">+ wpi.proto.ProtobufRectangle2d.xWidth:double</text>
<text text-anchor="middle" x="134.5" y="-167.1" font-family="Bitstream Vera Sans" font-size="8.00">+ wpi.proto.ProtobufRectangle2d.yWidth:double</text>
</g>
<!-- wpi.proto.ProtobufRectangle2d&#45;&gt;wpi.proto.ProtobufPose2d -->
<g id="edge5" class="edge">
<title>wpi.proto.ProtobufRectangle2d&#45;&gt;wpi.proto.ProtobufPose2d</title>
<path fill="none" stroke="black" d="M176.88,-160.52C197,-148.67 220.75,-134.67 239.78,-123.46"/>
<text text-anchor="middle" x="237.28" y="-126.06" font-family="Bitstream Vera Sans" font-size="8.00">1</text>
<text text-anchor="middle" x="174.38" y="-154.12" font-family="Bitstream Vera Sans" font-size="8.00">1</text>
</g>
<!-- wpi.proto.ProtobufEllipse2d -->
<g id="node7" class="node">
<title>wpi.proto.ProtobufEllipse2d</title>
<polygon fill="#f2f2f2" stroke="black" points="287.5,-160.5 287.5,-212.5 543.5,-212.5 543.5,-160.5 287.5,-160.5"/>
<text text-anchor="middle" x="415.5" y="-202.1" font-family="Bitstream Vera Sans" font-size="8.00">wpi.proto.ProtobufEllipse2d</text>
<polyline fill="none" stroke="black" points="287.5,-195.5 543.5,-195.5"/>
<text text-anchor="middle" x="415.5" y="-185.1" font-family="Bitstream Vera Sans" font-size="8.00">+ wpi.proto.ProtobufEllipse2d.center:wpi.proto.ProtobufPose2d</text>
<text text-anchor="middle" x="415.5" y="-176.1" font-family="Bitstream Vera Sans" font-size="8.00">+ wpi.proto.ProtobufEllipse2d.xSemiAxis:double</text>
<text text-anchor="middle" x="415.5" y="-167.1" font-family="Bitstream Vera Sans" font-size="8.00">+ wpi.proto.ProtobufEllipse2d.ySemiAxis:double</text>
</g>
<!-- wpi.proto.ProtobufEllipse2d&#45;&gt;wpi.proto.ProtobufPose2d -->
<g id="edge6" class="edge">
<title>wpi.proto.ProtobufEllipse2d&#45;&gt;wpi.proto.ProtobufPose2d</title>
<path fill="none" stroke="black" d="M372.81,-160.52C352.55,-148.67 328.63,-134.67 309.47,-123.46"/>
<text text-anchor="middle" x="306.97" y="-126.06" font-family="Bitstream Vera Sans" font-size="8.00">1</text>
<text text-anchor="middle" x="370.31" y="-154.12" font-family="Bitstream Vera Sans" font-size="8.00">1</text>
</g>
</g>
</svg>
