<?xml version="1.0" encoding="UTF-8" standalone="no"?>
<!DOCTYPE svg PUBLIC "-//W3C//DTD SVG 1.1//EN"
 "http://www.w3.org/Graphics/SVG/1.1/DTD/svg11.dtd">
<!-- Generated by graphviz version 12.2.1 (0)
 -->
<!-- Title: G Pages: 1 -->
<svg width="810pt" height="277pt"
 viewBox="0.00 0.00 809.90 276.52" xmlns="http://www.w3.org/2000/svg" xmlns:xlink="http://www.w3.org/1999/xlink">
<g id="graph0" class="graph" transform="scale(1 1) rotate(0) translate(4 272.52)">
<title>G</title>
<polygon fill="white" stroke="none" points="-4,4 -4,-272.52 805.9,-272.52 805.9,4 -4,4"/>
<!-- Nm -->
<g id="node1" class="node">
<title>Nm</title>
<polygon fill="white" stroke="black" points="54,-160.46 0,-160.46 0,-124.46 54,-124.46 54,-160.46"/>
<text text-anchor="middle" x="27" y="-137.79" font-family="Times,serif" font-size="14.00">Nm</text>
</g>
<!-- getCurrent\n(torque) -->
<g id="node5" class="node">
<title>getCurrent\n(torque)</title>
<ellipse fill="palegreen" stroke="black" cx="157.53" cy="-238.46" rx="67.53" ry="30.05"/>
<text text-anchor="middle" x="157.53" y="-242.41" font-family="Times,serif" font-size="14.00">getCurrent</text>
<text text-anchor="middle" x="157.53" y="-225.16" font-family="Times,serif" font-size="14.00">(torque)</text>
</g>
<!-- Nm&#45;&gt;getCurrent\n(torque) -->
<g id="edge4" class="edge">
<title>Nm&#45;&gt;getCurrent\n(torque)</title>
<path fill="none" stroke="seagreen" d="M48.75,-160.88C60.57,-171.12 75.81,-183.88 90,-194.46 95.89,-198.86 102.2,-203.33 108.5,-207.64"/>
<polygon fill="seagreen" stroke="seagreen" points="106.17,-210.29 116.42,-212.99 110.08,-204.49 106.17,-210.29"/>
</g>
<!-- getSpeed\n(torque) -->
<g id="node8" class="node">
<title>getSpeed\n(torque)</title>
<ellipse fill="palegreen" stroke="black" cx="157.53" cy="-84.46" rx="59.04" ry="30.05"/>
<text text-anchor="middle" x="157.53" y="-88.41" font-family="Times,serif" font-size="14.00">getSpeed</text>
<text text-anchor="middle" x="157.53" y="-71.16" font-family="Times,serif" font-size="14.00">(torque)</text>
</g>
<!-- Nm&#45;&gt;getSpeed\n(torque) -->
<g id="edge6" class="edge">
<title>Nm&#45;&gt;getSpeed\n(torque)</title>
<path fill="none" stroke="seagreen" d="M54.32,-130.59C68.19,-124.33 85.73,-116.42 102.34,-108.92"/>
<polygon fill="seagreen" stroke="seagreen" points="103.47,-112.25 111.15,-104.94 100.6,-105.87 103.47,-112.25"/>
</g>
<!-- getVoltage\n(torque, rad/s) -->
<g id="node9" class="node">
<title>getVoltage\n(torque, rad/s)</title>
<ellipse fill="palegreen" stroke="black" cx="442.03" cy="-150.46" rx="83.97" ry="30.05"/>
<text text-anchor="middle" x="442.03" y="-154.41" font-family="Times,serif" font-size="14.00">getVoltage</text>
<text text-anchor="middle" x="442.03" y="-137.16" font-family="Times,serif" font-size="14.00">(torque, rad/s)</text>
</g>
<!-- Nm&#45;&gt;getVoltage\n(torque, rad/s) -->
<g id="edge11" class="edge">
<title>Nm&#45;&gt;getVoltage\n(torque, rad/s)</title>
<path fill="none" stroke="seagreen" d="M54.46,-142.98C112.21,-144.1 251.9,-146.8 346.56,-148.63"/>
<polygon fill="seagreen" stroke="seagreen" points="346.29,-152.13 356.35,-148.82 346.42,-145.13 346.29,-152.13"/>
</g>
<!-- A -->
<g id="node2" class="node">
<title>A</title>
<polygon fill="white" stroke="black" points="318.56,-250.46 264.56,-250.46 264.56,-214.46 318.56,-214.46 318.56,-250.46"/>
<text text-anchor="middle" x="291.56" y="-227.79" font-family="Times,serif" font-size="14.00">A</text>
</g>
<!-- getTorque\n(amps) -->
<g id="node6" class="node">
<title>getTorque\n(amps)</title>
<ellipse fill="palegreen" stroke="black" cx="442.03" cy="-229.46" rx="62.76" ry="30.05"/>
<text text-anchor="middle" x="442.03" y="-233.41" font-family="Times,serif" font-size="14.00">getTorque</text>
<text text-anchor="middle" x="442.03" y="-216.16" font-family="Times,serif" font-size="14.00">(amps)</text>
</g>
<!-- A&#45;&gt;getTorque\n(amps) -->
<g id="edge3" class="edge">
<title>A&#45;&gt;getTorque\n(amps)</title>
<path fill="none" stroke="seagreen" d="M318.76,-231.94C332.48,-231.66 350.05,-231.3 367.56,-230.95"/>
<polygon fill="seagreen" stroke="seagreen" points="367.58,-234.45 377.5,-230.75 367.43,-227.45 367.58,-234.45"/>
</g>
<!-- V -->
<g id="node3" class="node">
<title>V</title>
<polygon fill="white" stroke="black" points="616,-110.46 562,-110.46 562,-74.46 616,-74.46 616,-110.46"/>
<text text-anchor="middle" x="589" y="-87.79" font-family="Times,serif" font-size="14.00">V</text>
</g>
<!-- getCurrent\n(rad/s, volts) -->
<g id="node7" class="node">
<title>getCurrent\n(rad/s, volts)</title>
<ellipse fill="palegreen" stroke="black" cx="726.95" cy="-46.46" rx="74.95" ry="30.05"/>
<text text-anchor="middle" x="726.95" y="-50.41" font-family="Times,serif" font-size="14.00">getCurrent</text>
<text text-anchor="middle" x="726.95" y="-33.16" font-family="Times,serif" font-size="14.00">(rad/s, volts)</text>
</g>
<!-- V&#45;&gt;getCurrent\n(rad/s, volts) -->
<g id="edge9" class="edge">
<title>V&#45;&gt;getCurrent\n(rad/s, volts)</title>
<path fill="none" stroke="seagreen" d="M616.21,-83.6C628.25,-79.52 643.16,-74.48 658.05,-69.44"/>
<polygon fill="seagreen" stroke="seagreen" points="659.07,-72.79 667.42,-66.27 656.83,-66.16 659.07,-72.79"/>
</g>
<!-- V&#45;&gt;getSpeed\n(torque) -->
<g id="edge7" class="edge">
<title>V&#45;&gt;getSpeed\n(torque)</title>
<path fill="none" stroke="seagreen" d="M561.87,-91.98C496.75,-90.77 325.48,-87.57 228.36,-85.77"/>
<polygon fill="seagreen" stroke="seagreen" points="228.47,-82.27 218.41,-85.58 228.34,-89.27 228.47,-82.27"/>
</g>
<!-- radspersec -->
<g id="node4" class="node">
<title>radspersec</title>
<polygon fill="white" stroke="black" points="322.06,-64.46 261.06,-64.46 261.06,-28.46 322.06,-28.46 322.06,-64.46"/>
<text text-anchor="middle" x="291.56" y="-41.79" font-family="Times,serif" font-size="14.00">rad / s</text>
</g>
<!-- radspersec&#45;&gt;getCurrent\n(rad/s, volts) -->
<g id="edge10" class="edge">
<title>radspersec&#45;&gt;getCurrent\n(rad/s, volts)</title>
<path fill="none" stroke="seagreen" d="M322.35,-46.46C387.01,-46.46 542.28,-46.46 640.28,-46.46"/>
<polygon fill="seagreen" stroke="seagreen" points="640.13,-49.96 650.13,-46.46 640.13,-42.96 640.13,-49.96"/>
</g>
<!-- radspersec&#45;&gt;getVoltage\n(torque, rad/s) -->
<g id="edge12" class="edge">
<title>radspersec&#45;&gt;getVoltage\n(torque, rad/s)</title>
<path fill="none" stroke="seagreen" d="M318.76,-64.82C339.35,-79.24 368.59,-99.73 393.31,-117.04"/>
<polygon fill="seagreen" stroke="seagreen" points="391.1,-119.77 401.3,-122.64 395.12,-114.03 391.1,-119.77"/>
</g>
<!-- getCurrent\n(torque)&#45;&gt;A -->
<g id="edge1" class="edge">
<title>getCurrent\n(torque)&#45;&gt;A</title>
<path fill="none" stroke="darkorange" stroke-width="2" d="M224.93,-235.45C234.01,-235.03 243.07,-234.62 251.45,-234.24"/>
<polygon fill="darkorange" stroke="darkorange" stroke-width="2" points="251.48,-237.74 261.31,-233.79 251.17,-230.75 251.48,-237.74"/>
</g>
<!-- getTorque\n(amps)&#45;&gt;Nm -->
<g id="edge2" class="edge">
<title>getTorque\n(amps)&#45;&gt;Nm</title>
<path fill="none" stroke="darkorange" stroke-width="2" d="M383.78,-217.91C285.22,-198 93.6,-159.29 90,-158.46 82.5,-156.74 74.53,-154.78 66.89,-152.84"/>
<polygon fill="darkorange" stroke="darkorange" stroke-width="2" points="67.96,-149.5 57.41,-150.38 66.21,-156.28 67.96,-149.5"/>
</g>
<!-- getCurrent\n(rad/s, volts)&#45;&gt;Nm -->
<g id="edge5" class="edge">
<title>getCurrent\n(rad/s, volts)&#45;&gt;Nm</title>
<path fill="none" stroke="darkorange" stroke-width="2" d="M663.22,-30.31C606.2,-17.06 519.54,-0.46 443.03,-0.46 290.56,-0.46 290.56,-0.46 290.56,-0.46 199.2,-0.46 164.8,6.97 90,-45.46 66.5,-61.94 49.85,-90.46 39.77,-112.32"/>
<polygon fill="darkorange" stroke="darkorange" stroke-width="2" points="36.69,-110.63 35.92,-121.2 43.11,-113.42 36.69,-110.63"/>
</g>
<!-- getSpeed\n(torque)&#45;&gt;radspersec -->
<g id="edge8" class="edge">
<title>getSpeed\n(torque)&#45;&gt;radspersec</title>
<path fill="none" stroke="darkorange" stroke-width="2" d="M209.57,-69.77C222.39,-66.08 236,-62.17 248.34,-58.62"/>
<polygon fill="darkorange" stroke="darkorange" stroke-width="2" points="249.09,-62.04 257.73,-55.91 247.15,-55.32 249.09,-62.04"/>
</g>
<!-- getVoltage\n(torque, rad/s)&#45;&gt;V -->
<g id="edge13" class="edge">
<title>getVoltage\n(torque, rad/s)&#45;&gt;V</title>
<path fill="none" stroke="darkorange" stroke-width="2" d="M499.08,-128.04C516.05,-121.25 534.29,-113.95 549.81,-107.74"/>
<polygon fill="darkorange" stroke="darkorange" stroke-width="2" points="550.8,-111.12 558.79,-104.15 548.2,-104.62 550.8,-111.12"/>
</g>
</g>
</svg>
