<svg xmlns="http://www.w3.org/2000/svg" xmlns:xlink="http://www.w3.org/1999/xlink" contentStyleType="text/css" height="249px" preserveAspectRatio="none" style="width:3285px;height:249px;" version="1.1" viewBox="0 0 3285 249" width="3285px" zoomAndPan="magnify"><defs/><g><!--class edu.wpi.first.wpilibj--><a href="edu/wpi/first/wpilibj/package-summary.html" target="_top" title="edu/wpi/first/wpilibj/package-summary.html" xlink:actuate="onRequest" xlink:href="edu/wpi/first/wpilibj/package-summary.html" xlink:show="new" xlink:title="edu/wpi/first/wpilibj/package-summary.html" xlink:type="simple"><g id="elem_edu.wpi.first.wpilibj"><rect codeLine="64" fill="#F1F1F1" height="26.2969" id="edu.wpi.first.wpilibj" rx="2.5" ry="2.5" style="stroke:#181818;stroke-width:0.5;" width="142.0898" x="2039.8636" y="74"/><text fill="#000000" font-family="sans-serif" font-size="14" lengthAdjust="spacing" textLength="136.0898" x="2042.8636" y="91.9951">edu.wpi.first.wpilibj</text></g></a><!--class edu.wpi.first.util.sendable--><g id="elem_edu.wpi.first.util.sendable"><rect fill="#F1F1F1" height="26.2969" id="edu.wpi.first.util.sendable" rx="2.5" ry="2.5" style="stroke:#181818;stroke-width:0.5;" width="187.5352" x="2939.8636" y="198"/><text fill="#000000" font-family="sans-serif" font-size="14" lengthAdjust="spacing" textLength="181.5352" x="2942.8636" y="215.9951">edu.wpi.first.util.sendable</text></g><!--class edu.wpi.first.hal--><g id="elem_edu.wpi.first.hal"><rect fill="#F1F1F1" height="26.2969" id="edu.wpi.first.hal" rx="2.5" ry="2.5" style="stroke:#181818;stroke-width:0.5;" width="118.6494" x="1732.3636" y="136"/><text fill="#000000" font-family="sans-serif" font-size="14" lengthAdjust="spacing" textLength="112.6494" x="1735.3636" y="153.9951">edu.wpi.first.hal</text></g><!--class edu.wpi.first.units.measure--><g id="elem_edu.wpi.first.units.measure"><rect fill="#F1F1F1" height="26.2969" id="edu.wpi.first.units.measure" rx="2.5" ry="2.5" style="stroke:#181818;stroke-width:0.5;" width="197.543" x="864.8636" y="198"/><text fill="#000000" font-family="sans-serif" font-size="14" lengthAdjust="spacing" textLength="191.543" x="867.8636" y="215.9951">edu.wpi.first.units.measure</text></g><!--class edu.wpi.first.math.geometry--><g id="elem_edu.wpi.first.math.geometry"><rect fill="#F1F1F1" height="26.2969" id="edu.wpi.first.math.geometry" rx="2.5" ry="2.5" style="stroke:#181818;stroke-width:0.5;" width="206.1836" x="1320.8636" y="136"/><text fill="#000000" font-family="sans-serif" font-size="14" lengthAdjust="spacing" textLength="200.1836" x="1323.8636" y="153.9951">edu.wpi.first.math.geometry</text></g><!--class edu.wpi.first.wpilibj.motorcontrol--><a href="edu/wpi/first/wpilibj/motorcontrol/package-summary.html" target="_top" title="edu/wpi/first/wpilibj/motorcontrol/package-summary.html" xlink:actuate="onRequest" xlink:href="edu/wpi/first/wpilibj/motorcontrol/package-summary.html" xlink:show="new" xlink:title="edu/wpi/first/wpilibj/motorcontrol/package-summary.html" xlink:type="simple"><g id="elem_edu.wpi.first.wpilibj.motorcontrol"><rect codeLine="66" fill="#F1F1F1" height="26.2969" id="edu.wpi.first.wpilibj.motorcontrol" rx="2.5" ry="2.5" style="stroke:#181818;stroke-width:0.5;" width="237.3896" x="1869.3636" y="136"/><text fill="#000000" font-family="sans-serif" font-size="14" lengthAdjust="spacing" textLength="231.3896" x="1872.3636" y="153.9951">edu.wpi.first.wpilibj.motorcontrol</text></g></a><!--class edu.wpi.first.networktables--><g id="elem_edu.wpi.first.networktables"><rect fill="#F1F1F1" height="26.2969" id="edu.wpi.first.networktables" rx="2.5" ry="2.5" style="stroke:#181818;stroke-width:0.5;" width="196.9141" x="1634.3636" y="198"/><text fill="#000000" font-family="sans-serif" font-size="14" lengthAdjust="spacing" textLength="190.9141" x="1637.3636" y="215.9951">edu.wpi.first.networktables</text></g><!--class edu.wpi.first.wpilibj.util--><a href="edu/wpi/first/wpilibj/util/package-summary.html" target="_top" title="edu/wpi/first/wpilibj/util/package-summary.html" xlink:actuate="onRequest" xlink:href="edu/wpi/first/wpilibj/util/package-summary.html" xlink:show="new" xlink:title="edu/wpi/first/wpilibj/util/package-summary.html" xlink:type="simple"><g id="elem_edu.wpi.first.wpilibj.util"><rect codeLine="68" fill="#F1F1F1" height="26.2969" id="edu.wpi.first.wpilibj.util" rx="2.5" ry="2.5" style="stroke:#181818;stroke-width:0.5;" width="168.6816" x="1545.3636" y="136"/><text fill="#000000" font-family="sans-serif" font-size="14" lengthAdjust="spacing" textLength="162.6816" x="1548.3636" y="153.9951">edu.wpi.first.wpilibj.util</text></g></a><!--class edu.wpi.first.hal.util--><g id="elem_edu.wpi.first.hal.util"><rect fill="#F1F1F1" height="26.2969" id="edu.wpi.first.hal.util" rx="2.5" ry="2.5" style="stroke:#181818;stroke-width:0.5;" width="145.2412" x="2618.3636" y="136"/><text fill="#000000" font-family="sans-serif" font-size="14" lengthAdjust="spacing" textLength="139.2412" x="2621.3636" y="153.9951">edu.wpi.first.hal.util</text></g><!--class edu.wpi.first.hal.can--><g id="elem_edu.wpi.first.hal.can"><rect fill="#F1F1F1" height="26.2969" id="edu.wpi.first.hal.can" rx="2.5" ry="2.5" style="stroke:#181818;stroke-width:0.5;" width="148.249" x="3023.8636" y="136"/><text fill="#000000" font-family="sans-serif" font-size="14" lengthAdjust="spacing" textLength="142.249" x="3026.8636" y="153.9951">edu.wpi.first.hal.can</text></g><!--class edu.wpi.first.wpilibj.event--><a href="edu/wpi/first/wpilibj/event/package-summary.html" target="_top" title="edu/wpi/first/wpilibj/event/package-summary.html" xlink:actuate="onRequest" xlink:href="edu/wpi/first/wpilibj/event/package-summary.html" xlink:show="new" xlink:title="edu/wpi/first/wpilibj/event/package-summary.html" xlink:type="simple"><g id="elem_edu.wpi.first.wpilibj.event"><rect codeLine="70" fill="#F1F1F1" height="26.2969" id="edu.wpi.first.wpilibj.event" rx="2.5" ry="2.5" style="stroke:#181818;stroke-width:0.5;" width="186.4141" x="2781.8636" y="136"/><text fill="#000000" font-family="sans-serif" font-size="14" lengthAdjust="spacing" textLength="180.4141" x="2784.8636" y="153.9951">edu.wpi.first.wpilibj.event</text></g></a><!--class edu.wpi.first.util.datalog--><g id="elem_edu.wpi.first.util.datalog"><rect fill="#F1F1F1" height="26.2969" id="edu.wpi.first.util.datalog" rx="2.5" ry="2.5" style="stroke:#181818;stroke-width:0.5;" width="176.7754" x="1087.3636" y="136"/><text fill="#000000" font-family="sans-serif" font-size="14" lengthAdjust="spacing" textLength="170.7754" x="1090.3636" y="153.9951">edu.wpi.first.util.datalog</text></g><!--class edu.wpi.first.util--><g id="elem_edu.wpi.first.util"><rect fill="#F1F1F1" height="26.2969" id="edu.wpi.first.util" rx="2.5" ry="2.5" style="stroke:#181818;stroke-width:0.5;" width="119.4492" x="2481.3636" y="136"/><text fill="#000000" font-family="sans-serif" font-size="14" lengthAdjust="spacing" textLength="113.4492" x="2484.3636" y="153.9951">edu.wpi.first.util</text></g><!--class edu.wpi.first.math.filter--><g id="elem_edu.wpi.first.math.filter"><rect fill="#F1F1F1" height="26.2969" id="edu.wpi.first.math.filter" rx="2.5" ry="2.5" style="stroke:#181818;stroke-width:0.5;" width="170.9033" x="2750.3636" y="198"/><text fill="#000000" font-family="sans-serif" font-size="14" lengthAdjust="spacing" textLength="164.9033" x="2753.3636" y="215.9951">edu.wpi.first.math.filter</text></g><!--class edu.wpi.first.wpilibj.shuffleboard--><a href="edu/wpi/first/wpilibj/shuffleboard/package-summary.html" target="_top" title="edu/wpi/first/wpilibj/shuffleboard/package-summary.html" xlink:actuate="onRequest" xlink:href="edu/wpi/first/wpilibj/shuffleboard/package-summary.html" xlink:show="new" xlink:title="edu/wpi/first/wpilibj/shuffleboard/package-summary.html" xlink:type="simple"><g id="elem_edu.wpi.first.wpilibj.shuffleboard"><rect codeLine="72" fill="#F1F1F1" height="26.2969" id="edu.wpi.first.wpilibj.shuffleboard" rx="2.5" ry="2.5" style="stroke:#181818;stroke-width:0.5;" width="234.6143" x="1207.3636" y="12"/><text fill="#000000" font-family="sans-serif" font-size="14" lengthAdjust="spacing" textLength="228.6143" x="1210.3636" y="29.9951">edu.wpi.first.wpilibj.shuffleboard</text></g></a><!--class edu.wpi.first.cscore--><g id="elem_edu.wpi.first.cscore"><rect fill="#F1F1F1" height="26.2969" id="edu.wpi.first.cscore" rx="2.5" ry="2.5" style="stroke:#181818;stroke-width:0.5;" width="142.9307" x="1550.3636" y="74"/><text fill="#000000" font-family="sans-serif" font-size="14" lengthAdjust="spacing" textLength="136.9307" x="1553.3636" y="91.9951">edu.wpi.first.cscore</text></g><!--class edu.wpi.first.util.function--><g id="elem_edu.wpi.first.util.function"><rect fill="#F1F1F1" height="26.2969" id="edu.wpi.first.util.function" rx="2.5" ry="2.5" style="stroke:#181818;stroke-width:0.5;" width="181.0889" x="663.3636" y="136"/><text fill="#000000" font-family="sans-serif" font-size="14" lengthAdjust="spacing" textLength="175.0889" x="666.3636" y="153.9951">edu.wpi.first.util.function</text></g><!--class edu.wpi.first.wpilibj.smartdashboard--><a href="edu/wpi/first/wpilibj/smartdashboard/package-summary.html" target="_top" title="edu/wpi/first/wpilibj/smartdashboard/package-summary.html" xlink:actuate="onRequest" xlink:href="edu/wpi/first/wpilibj/smartdashboard/package-summary.html" xlink:show="new" xlink:title="edu/wpi/first/wpilibj/smartdashboard/package-summary.html" xlink:type="simple"><g id="elem_edu.wpi.first.wpilibj.smartdashboard"><rect codeLine="74" fill="#F1F1F1" height="26.2969" id="edu.wpi.first.wpilibj.smartdashboard" rx="2.5" ry="2.5" style="stroke:#181818;stroke-width:0.5;" width="261.6025" x="1193.8636" y="74"/><text fill="#000000" font-family="sans-serif" font-size="14" lengthAdjust="spacing" textLength="255.6025" x="1196.8636" y="91.9951">edu.wpi.first.wpilibj.smartdashboard</text></g></a><!--class edu.wpi.first.wpilibj.sysid--><a href="edu/wpi/first/wpilibj/sysid/package-summary.html" target="_top" title="edu/wpi/first/wpilibj/sysid/package-summary.html" xlink:actuate="onRequest" xlink:href="edu/wpi/first/wpilibj/sysid/package-summary.html" xlink:show="new" xlink:title="edu/wpi/first/wpilibj/sysid/package-summary.html" xlink:type="simple"><g id="elem_edu.wpi.first.wpilibj.sysid"><rect codeLine="76" fill="#F1F1F1" height="26.2969" id="edu.wpi.first.wpilibj.sysid" rx="2.5" ry="2.5" style="stroke:#181818;stroke-width:0.5;" width="182.1895" x="172.8636" y="74"/><text fill="#000000" font-family="sans-serif" font-size="14" lengthAdjust="spacing" textLength="176.1895" x="175.8636" y="91.9951">edu.wpi.first.wpilibj.sysid</text></g></a><!--class edu.wpi.first.wpilibj.drive--><a href="edu/wpi/first/wpilibj/drive/package-summary.html" target="_top" title="edu/wpi/first/wpilibj/drive/package-summary.html" xlink:actuate="onRequest" xlink:href="edu/wpi/first/wpilibj/drive/package-summary.html" xlink:show="new" xlink:title="edu/wpi/first/wpilibj/drive/package-summary.html" xlink:type="simple"><g id="elem_edu.wpi.first.wpilibj.drive"><rect codeLine="78" fill="#F1F1F1" height="26.2969" id="edu.wpi.first.wpilibj.drive" rx="2.5" ry="2.5" style="stroke:#181818;stroke-width:0.5;" width="181.9707" x="1963.8636" y="12"/><text fill="#000000" font-family="sans-serif" font-size="14" lengthAdjust="spacing" textLength="175.9707" x="1966.8636" y="29.9951">edu.wpi.first.wpilibj.drive</text></g></a><!--class edu.wpi.first.wpilibj.simulation--><a href="edu/wpi/first/wpilibj/simulation/package-summary.html" target="_top" title="edu/wpi/first/wpilibj/simulation/package-summary.html" xlink:actuate="onRequest" xlink:href="edu/wpi/first/wpilibj/simulation/package-summary.html" xlink:show="new" xlink:title="edu/wpi/first/wpilibj/simulation/package-summary.html" xlink:type="simple"><g id="elem_edu.wpi.first.wpilibj.simulation"><rect codeLine="80" fill="#F1F1F1" height="26.2969" id="edu.wpi.first.wpilibj.simulation" rx="2.5" ry="2.5" style="stroke:#181818;stroke-width:0.5;" width="219.5205" x="742.8636" y="12"/><text fill="#000000" font-family="sans-serif" font-size="14" lengthAdjust="spacing" textLength="213.5205" x="745.8636" y="29.9951">edu.wpi.first.wpilibj.simulation</text></g></a><!--class edu.wpi.first.hal.simulation--><g id="elem_edu.wpi.first.hal.simulation"><rect fill="#F1F1F1" height="26.2969" id="edu.wpi.first.hal.simulation" rx="2.5" ry="2.5" style="stroke:#181818;stroke-width:0.5;" width="196.0801" x="372.8636" y="74"/><text fill="#000000" font-family="sans-serif" font-size="14" lengthAdjust="spacing" textLength="190.0801" x="375.8636" y="91.9951">edu.wpi.first.hal.simulation</text></g><!--class edu.wpi.first.math.system.plant--><g id="elem_edu.wpi.first.math.system.plant"><rect fill="#F1F1F1" height="26.2969" id="edu.wpi.first.math.system.plant" rx="2.5" ry="2.5" style="stroke:#181818;stroke-width:0.5;" width="229.1182" x="625.3636" y="74"/><text fill="#000000" font-family="sans-serif" font-size="14" lengthAdjust="spacing" textLength="223.1182" x="628.3636" y="91.9951">edu.wpi.first.math.system.plant</text></g><!--class edu.wpi.first.math.system--><g id="elem_edu.wpi.first.math.system"><rect fill="#F1F1F1" height="26.2969" id="edu.wpi.first.math.system" rx="2.5" ry="2.5" style="stroke:#181818;stroke-width:0.5;" width="188.9502" x="872.3636" y="74"/><text fill="#000000" font-family="sans-serif" font-size="14" lengthAdjust="spacing" textLength="182.9502" x="875.3636" y="91.9951">edu.wpi.first.math.system</text></g><!--class edu.wpi.first.math--><g id="elem_edu.wpi.first.math"><rect fill="#F1F1F1" height="26.2969" id="edu.wpi.first.math" rx="2.5" ry="2.5" style="stroke:#181818;stroke-width:0.5;" width="133.8867" x="20.8636" y="74"/><text fill="#000000" font-family="sans-serif" font-size="14" lengthAdjust="spacing" textLength="127.8867" x="23.8636" y="91.9951">edu.wpi.first.math</text></g><!--class edu.wpi.first.wpilibj.livewindow--><a href="edu/wpi/first/wpilibj/livewindow/package-summary.html" target="_top" title="edu/wpi/first/wpilibj/livewindow/package-summary.html" xlink:actuate="onRequest" xlink:href="edu/wpi/first/wpilibj/livewindow/package-summary.html" xlink:show="new" xlink:title="edu/wpi/first/wpilibj/livewindow/package-summary.html" xlink:type="simple"><g id="elem_edu.wpi.first.wpilibj.livewindow"><rect codeLine="82" fill="#F1F1F1" height="26.2969" id="edu.wpi.first.wpilibj.livewindow" rx="2.5" ry="2.5" style="stroke:#181818;stroke-width:0.5;" width="224.333" x="2200.8636" y="136"/><text fill="#000000" font-family="sans-serif" font-size="14" lengthAdjust="spacing" textLength="218.333" x="2203.8636" y="153.9951">edu.wpi.first.wpilibj.livewindow</text></g></a><!--class edu.wpi.first.wpilibj.counter--><a href="edu/wpi/first/wpilibj/counter/package-summary.html" target="_top" title="edu/wpi/first/wpilibj/counter/package-summary.html" xlink:actuate="onRequest" xlink:href="edu/wpi/first/wpilibj/counter/package-summary.html" xlink:show="new" xlink:title="edu/wpi/first/wpilibj/counter/package-summary.html" xlink:type="simple"><g id="elem_edu.wpi.first.wpilibj.counter"><rect codeLine="84" fill="#F1F1F1" height="26.2969" id="edu.wpi.first.wpilibj.counter" rx="2.5" ry="2.5" style="stroke:#181818;stroke-width:0.5;" width="200.4072" x="2702.8636" y="12"/><text fill="#000000" font-family="sans-serif" font-size="14" lengthAdjust="spacing" textLength="194.4072" x="2705.8636" y="29.9951">edu.wpi.first.wpilibj.counter</text></g></a><!--class edu.wpi.first.math.trajectory--><g id="elem_edu.wpi.first.math.trajectory"><rect fill="#F1F1F1" height="26.2969" id="edu.wpi.first.math.trajectory" rx="2.5" ry="2.5" style="stroke:#181818;stroke-width:0.5;" width="206.457" x="862.8636" y="136"/><text fill="#000000" font-family="sans-serif" font-size="14" lengthAdjust="spacing" textLength="200.457" x="865.8636" y="153.9951">edu.wpi.first.math.trajectory</text></g><polygon fill="#181818" points="3028.6036,197.9041,3028.3379,188.0588,3026.4504,193.3914,3021.1177,191.5039,3028.6036,197.9041" style="stroke:#181818;stroke-width:1.0;"/><path d="M2182.0707,88.5656 C2376.6476,90.5832 2907.4233,99.4142 2976.8636,136 C3002.6885,149.6062 3017.7932,175.248 3026.0198,192.4889 " fill="none" style="stroke:#181818;stroke-width:1.0;"/><polygon fill="#181818" points="1851.6187,136.7608,1861.203,139.0283,1856.5325,135.8366,1859.7242,131.1661,1851.6187,136.7608" style="stroke:#181818;stroke-width:1.0;"/><path d="M2046.693,100.0697 C1989.7458,110.7808 1913.0867,125.1994 1857.5153,135.6517 " fill="none" style="stroke:#181818;stroke-width:1.0;"/><polygon fill="#181818" points="1063.187,207.6709,1072.2815,211.4512,1068.1855,207.5495,1072.0872,203.4535,1063.187,207.6709" style="stroke:#181818;stroke-width:1.0;"/><path d="M2116.2749,100.0965 C2122.6807,116.4815 2130.6274,145.5652 2114.8636,162 C2096.7578,180.8767 1345.249,200.8182 1069.1852,207.5252 " fill="none" style="stroke:#181818;stroke-width:1.0;"/><polygon fill="#181818" points="1526.9913,136.8586,1536.339,139.9602,1531.9674,136.3702,1535.5574,131.9985,1526.9913,136.8586" style="stroke:#181818;stroke-width:1.0;"/><path d="M2039.551,93.4124 C1930.8252,101.7867 1717.108,118.7279 1535.8636,136 C1532.9435,136.2783 1535.9524,135.979 1532.9626,136.2725 " fill="none" style="stroke:#181818;stroke-width:1.0;"/><polygon fill="#181818" points="2007.1716,135.8762,2016.9983,135.2151,2011.5941,133.5434,2013.2658,128.1392,2007.1716,135.8762" style="stroke:#181818;stroke-width:1.0;"/><path d="M2080.4241,100.1419 C2057.4814,110.5516 2032.2032,122.6723 2012.4786,133.0768 " fill="none" style="stroke:#181818;stroke-width:1.0;"/><polygon fill="#181818" points="1831.3734,205.4116,1840.581,208.9073,1836.3657,205.1348,1840.1382,200.9196,1831.3734,205.4116" style="stroke:#181818;stroke-width:1.0;"/><path d="M2125.2087,100.1391 C2142.0197,115.7958 2165.5834,143.2402 2148.8636,162 C2128.0789,185.3209 1953.678,198.6315 1837.3642,205.0795 " fill="none" style="stroke:#181818;stroke-width:1.0;"/><polygon fill="#181818" points="1714.5083,137.059,1723.9408,139.8924,1719.4684,136.4286,1722.9322,131.9562,1714.5083,137.059" style="stroke:#181818;stroke-width:1.0;"/><path d="M2039.6937,96.6912 C1961.8657,106.2219 1833.468,122.0228 1722.8636,136 C1720.1179,136.347 1723.2789,135.9443 1720.4604,136.3025 " fill="none" style="stroke:#181818;stroke-width:1.0;"/><polygon fill="#181818" points="2618.0111,137.1487,2609.5993,132.0259,2613.0525,136.5065,2608.5719,139.9597,2618.0111,137.1487" style="stroke:#181818;stroke-width:1.0;"/><path d="M2181.9057,93.7402 C2278.631,101.8083 2457.104,117.5932 2608.8636,136 C2611.8631,136.3638 2608.9719,135.9781 2612.0608,136.3781 " fill="none" style="stroke:#181818;stroke-width:1.0;"/><polygon fill="#181818" points="3023.4962,137.4217,3015.0013,132.4379,3018.5277,136.8611,3014.1045,140.3875,3023.4962,137.4217" style="stroke:#181818;stroke-width:1.0;"/><path d="M2182.1006,89.8141 C2334.3372,94.1278 2702.5491,106.8922 3009.8636,136 C3014.3153,136.4216 3012.9254,136.2291 3017.534,136.749 " fill="none" style="stroke:#181818;stroke-width:1.0;"/><polygon fill="#181818" points="2781.6849,136.9603,2773.1315,132.0778,2776.7101,136.4588,2772.3291,140.0375,2781.6849,136.9603" style="stroke:#181818;stroke-width:1.0;"/><path d="M2181.8669,92.1398 C2303.0147,99.4306 2557.3714,115.7271 2771.8636,136 C2775.0898,136.3049 2772.4017,136.0245 2775.7152,136.3585 " fill="none" style="stroke:#181818;stroke-width:1.0;"/><polygon fill="#181818" points="1264.7194,139.799,1274.0282,143.0156,1269.7011,139.3719,1273.3448,135.0449,1264.7194,139.799" style="stroke:#181818;stroke-width:1.0;"/><path d="M2039.7377,91.603 C1900.1146,98.8241 1580.3721,116.0926 1311.8636,136 C1296.6172,137.1304 1286.3982,137.9404 1270.6975,139.2865 " fill="none" style="stroke:#181818;stroke-width:1.0;"/><polygon fill="#181818" points="2481.1105,138.1697,2472.8326,132.8334,2476.17,137.4009,2471.6025,140.7382,2481.1105,138.1697" style="stroke:#181818;stroke-width:1.0;"/><path d="M2181.8644,97.0052 C2253.7748,106.2593 2368.1619,121.3458 2466.8636,136 C2471.4983,136.6881 2470.3641,136.4974 2475.1819,137.2471 " fill="none" style="stroke:#181818;stroke-width:1.0;"/><polygon fill="#181818" points="1831.4962,207.7368,1840.596,211.5042,1836.4946,207.6083,1840.3905,203.5069,1831.4962,207.7368" style="stroke:#181818;stroke-width:1.0;"/><path d="M2781.6946,161.1499 C2778.3784,161.4527 2775.0935,161.7376 2771.8636,162 C2426.9747,190.0229 2022.25,202.834 1837.4943,207.5826 " fill="none" style="stroke:#181818;stroke-width:1.0;"/><polygon fill="#181818" points="2843.7441,197.8762,2852.0028,192.5101,2846.4691,193.6839,2845.2953,188.1502,2843.7441,197.8762" style="stroke:#181818;stroke-width:1.0;"/><path d="M2866.9714,162.1419 C2860.2051,172.5516 2853.777,182.441 2847.0141,192.8455 " fill="none" style="stroke:#181818;stroke-width:1.0;"/><polygon fill="#181818" points="1063.0542,205.9826,1072.2151,209.5991,1068.0498,205.7715,1071.8773,201.6062,1063.0542,205.9826" style="stroke:#181818;stroke-width:1.0;"/><path d="M1869.3246,161.2811 C1866.1382,161.5303 1862.98,161.7705 1859.8636,162 C1570.7035,183.2912 1234.3781,198.7424 1069.0489,205.7293 " fill="none" style="stroke:#181818;stroke-width:1.0;"/><polygon fill="#181818" points="2091.5214,100.1419,2081.6947,100.8024,2087.0988,102.4744,2085.4268,107.8785,2091.5214,100.1419" style="stroke:#181818;stroke-width:1.0;"/><path d="M2018.2634,135.8762 C2041.1972,125.4717 2066.4771,113.3507 2086.2143,102.9409 " fill="none" style="stroke:#181818;stroke-width:1.0;"/><polygon fill="#181818" points="2939.7885,198.8629,2931.1905,194.0592,2934.8093,198.4071,2930.4613,202.0259,2939.7885,198.8629" style="stroke:#181818;stroke-width:1.0;"/><path d="M2106.5114,157.1806 C2134.4986,158.8186 2164.2309,160.5133 2191.8636,162 C2519.7794,179.6421 2602.5719,171.1646 2929.8636,198 C2933.1243,198.2673 2930.4655,198.0095 2933.8134,198.316 " fill="none" style="stroke:#181818;stroke-width:1.0;"/><polygon fill="#181818" points="1634.1164,207.4024,1625.2284,203.1593,1629.1182,207.2665,1625.011,211.1564,1634.1164,207.4024" style="stroke:#181818;stroke-width:1.0;"/><path d="M1225.6111,38.0252 C1186.4355,45.1844 1141.813,56.4411 1103.8636,74 C1086.5991,81.9882 1087.6022,93.1283 1069.8636,100 C895.5547,167.5248 524.654,26.9146 653.8636,162 C670.6928,179.5945 1364.807,200.0806 1628.1186,207.2394 " fill="none" style="stroke:#181818;stroke-width:1.0;"/><polygon fill="#181818" points="3106.2468,197.943,3115.9063,199.8648,3111.1242,196.8429,3114.1462,192.0609,3106.2468,197.943" style="stroke:#181818;stroke-width:1.0;"/><path d="M1442.5399,32.2543 C1609.1415,41.17 1923.3005,58.2068 2190.8636,74 C2410.9116,86.9886 3029.9452,-24.6656 3180.8636,136 C3209.7175,166.7174 3162.3746,185.2838 3112.0997,196.6229 " fill="none" style="stroke:#181818;stroke-width:1.0;"/><polygon fill="#181818" points="1562.214,73.9496,1554.1843,68.2466,1557.313,72.9595,1552.6001,76.0882,1562.214,73.9496" style="stroke:#181818;stroke-width:1.0;"/><path d="M1384.6088,38.0697 C1436.2734,48.507 1504.6961,62.3298 1556.3328,72.7614 " fill="none" style="stroke:#181818;stroke-width:1.0;"/><polygon fill="#181818" points="844.4642,136.4669,853.9014,139.2845,849.4232,135.8282,852.8795,131.35,844.4642,136.4669" style="stroke:#181818;stroke-width:1.0;"/><path d="M1289.8289,38.1318 C1232.3007,57.9923 1122.332,95.6816 1103.8636,100 C1079.1164,105.7866 945.6438,123.4354 850.415,135.7004 " fill="none" style="stroke:#181818;stroke-width:1.0;"/><polygon fill="#181818" points="1324.8636,73.8762,1328.8636,64.8762,1324.8636,68.8762,1320.8636,64.8762,1324.8636,73.8762" style="stroke:#181818;stroke-width:1.0;"/><path d="M1324.8636,38.1419 C1324.8636,48.5516 1324.8636,57.4717 1324.8636,67.8762 " fill="none" style="stroke:#181818;stroke-width:1.0;"/><polygon fill="#181818" points="864.766,200.3337,856.2395,195.4044,859.7941,199.8049,855.3935,203.3595,864.766,200.3337" style="stroke:#181818;stroke-width:1.0;"/><path d="M308.992,100.012 C370.5215,116.0345 484.36,144.4177 582.8636,162 C678.0292,178.9865 781.6545,191.4951 858.7997,199.6992 " fill="none" style="stroke:#181818;stroke-width:1.0;"/><polygon fill="#181818" points="1087.2196,136.8577,1078.6461,132.0105,1082.2428,136.3767,1077.8766,139.9734,1087.2196,136.8577" style="stroke:#181818;stroke-width:1.0;"/><path d="M355.1226,99.2145 C358.0693,99.4924 360.9889,99.7553 363.8636,100 C680.4556,126.9444 761.3045,108.6735 1077.8636,136 C1080.9376,136.2654 1078.0916,135.9756 1081.2474,136.2806 " fill="none" style="stroke:#181818;stroke-width:1.0;"/><polygon fill="#181818" points="3116.3695,197.9373,3125.9609,200.1746,3121.2804,196.9976,3124.4574,192.3171,3116.3695,197.9373" style="stroke:#181818;stroke-width:1.0;"/><path d="M2146.0796,28.1056 C2416.3692,34.5589 3195.4334,54.7906 3213.8636,74 C3240.9411,102.2221 3237.6915,130.9853 3213.8636,162 C3201.4502,178.1575 3163.5445,188.9103 3122.2626,196.8097 " fill="none" style="stroke:#181818;stroke-width:1.0;"/><polygon fill="#181818" points="1994.5058,135.9053,2002.3442,129.9421,1996.9127,131.5227,1995.3321,126.0911,1994.5058,135.9053" style="stroke:#181818;stroke-width:1.0;"/><path d="M2048.1945,38.1439 C2035.3519,61.5288 2010.2153,107.3 1997.394,130.6461 " fill="none" style="stroke:#181818;stroke-width:1.0;"/><polygon fill="#181818" points="1497.7434,135.9806,1507.2766,138.4539,1502.676,135.1624,1505.9676,130.5618,1497.7434,135.9806" style="stroke:#181818;stroke-width:1.0;"/><path d="M2000.559,38.012 C1931.3514,53.1758 1807.9581,79.7271 1701.8636,100 C1632.8292,113.1914 1559.7568,125.6944 1503.6625,134.9988 " fill="none" style="stroke:#181818;stroke-width:1.0;"/><polygon fill="#181818" points="2099.5481,73.8762,2096.3314,64.5674,2096.1365,70.2209,2090.483,70.0259,2099.5481,73.8762" style="stroke:#181818;stroke-width:1.0;"/><path d="M2066.1961,38.1419 C2075.9118,48.5516 2085.7433,59.0853 2095.4542,69.4898 " fill="none" style="stroke:#181818;stroke-width:1.0;"/><polygon fill="#181818" points="1732.0285,137.5702,1723.8363,132.1031,1727.1008,136.723,1722.4809,139.9875,1732.0285,137.5702" style="stroke:#181818;stroke-width:1.0;"/><path d="M962.904,28.5485 C1113.2268,33.0701 1374.4357,44.9285 1464.8636,74 C1486.125,80.8353 1486.9221,92.24 1507.8636,100 C1598.7128,133.6646 1627.3589,119.6997 1722.8636,136 C1725.8601,136.5114 1723.016,136.0208 1726.1152,136.5536 " fill="none" style="stroke:#181818;stroke-width:1.0;"/><polygon fill="#181818" points="2039.6324,82.6026,2030.8331,78.1784,2034.638,82.3644,2030.452,86.1693,2039.6324,82.6026" style="stroke:#181818;stroke-width:1.0;"/><path d="M963.1253,31.2589 C1215.6531,43.3032 1824.2587,72.3304 2033.6392,82.3168 " fill="none" style="stroke:#181818;stroke-width:1.0;"/><polygon fill="#181818" points="547.5847,73.9496,557.0964,76.5046,552.5242,73.1737,555.8551,68.6015,547.5847,73.9496" style="stroke:#181818;stroke-width:1.0;"/><path d="M776.0198,38.0697 C709.5689,48.507 619.927,62.5869 553.5121,73.0186 " fill="none" style="stroke:#181818;stroke-width:1.0;"/><polygon fill="#181818" points="762.6969,73.8762,772.5217,73.1883,767.113,71.5313,768.77,66.1226,762.6969,73.8762" style="stroke:#181818;stroke-width:1.0;"/><path d="M829.9964,38.1419 C810.3914,48.5516 787.5913,60.6579 767.9962,71.0624 " fill="none" style="stroke:#181818;stroke-width:1.0;"/><polygon fill="#181818" points="943.8284,73.8762,937.7271,66.1448,939.4038,71.5474,934.0011,73.2241,943.8284,73.8762" style="stroke:#181818;stroke-width:1.0;"/><path d="M875.9332,38.1419 C895.7117,48.5516 918.7503,60.6772 938.5188,71.0817 " fill="none" style="stroke:#181818;stroke-width:1.0;"/><polygon fill="#181818" points="864.6134,205.9601,855.8029,201.5584,859.6185,205.7347,855.4423,209.5503,864.6134,205.9601" style="stroke:#181818;stroke-width:1.0;"/><path d="M742.5363,28.3216 C520.0546,33.5443 36.5609,47.8529 11.8636,74 C3.9288,82.4006 4.2787,91.2823 11.8636,100 C67.2189,163.6221 626.0419,195.195 858.6195,205.6896 " fill="none" style="stroke:#181818;stroke-width:1.0;"/><polygon fill="#181818" points="154.9573,75.0818,164.3942,77.9003,159.9164,74.4436,163.3731,69.9658,154.9573,75.0818" style="stroke:#181818;stroke-width:1.0;"/><path d="M742.8106,30.7092 C606.5748,37.2192 367.5968,50.8636 163.8636,74 C160.9437,74.3316 163.9152,73.929 160.9082,74.316 " fill="none" style="stroke:#181818;stroke-width:1.0;"/><polygon fill="#181818" points="1361.8792,135.9775,1353.8171,130.3204,1356.9727,135.0153,1352.2777,138.1709,1361.8792,135.9775" style="stroke:#181818;stroke-width:1.0;"/><path d="M907.7275,38.0618 C951.6083,47.7268 1014.7004,61.6632 1069.8636,74 C1121.0015,85.4365 1133.6167,89.0624 1184.8636,100 C1244.8783,112.8089 1307.6948,125.3523 1355.9913,134.8229 " fill="none" style="stroke:#181818;stroke-width:1.0;"/><polygon fill="#181818" points="1869.2009,136.6366,1860.6311,131.7829,1864.2245,136.1519,1859.8555,139.7453,1869.2009,136.6366" style="stroke:#181818;stroke-width:1.0;"/><path d="M962.991,31.1651 C1134.6059,39.6639 1451.3903,57.3214 1500.8636,74 C1520.9559,80.7736 1520.886,92.8955 1540.8636,100 C1556.2263,105.4633 1736.0655,123.6688 1863.2292,136.0549 " fill="none" style="stroke:#181818;stroke-width:1.0;"/><polygon fill="#181818" points="1634.157,208.9288,1625.2076,204.8169,1629.1574,208.8665,1625.1078,212.8163,1634.157,208.9288" style="stroke:#181818;stroke-width:1.0;"/><path d="M742.6001,34.9704 C688.9137,41.864 632.4073,53.7699 615.8636,74 C600.4442,92.8555 613.3803,148.2257 629.8636,162 C668.0587,193.9176 1364.6649,205.568 1628.1575,208.854 " fill="none" style="stroke:#181818;stroke-width:1.0;"/><polygon fill="#181818" points="1831.6667,199.779,1841.0305,202.8317,1836.6401,199.2645,1840.2073,194.8741,1831.6667,199.779" style="stroke:#181818;stroke-width:1.0;"/><path d="M2200.6901,161.6042 C2093.6658,172.6756 1939.9802,188.5741 1837.6348,199.1616 " fill="none" style="stroke:#181818;stroke-width:1.0;"/><polygon fill="#181818" points="2939.7794,198.9661,2931.2237,194.0876,2934.8043,198.467,2930.425,202.0477,2939.7794,198.9661" style="stroke:#181818;stroke-width:1.0;"/><path d="M2425.1732,160.8212 C2429.7971,161.2271 2434.3749,161.6217 2438.8636,162 C2656.8988,180.3736 2712.0223,177.4552 2929.8636,198 C2933.1208,198.3072 2930.464,198.0315 2933.8093,198.3672 " fill="none" style="stroke:#181818;stroke-width:1.0;"/><polygon fill="#181818" points="3127.9534,200.9542,3137.4158,203.686,3132.9064,200.2705,3136.3219,195.7611,3127.9534,200.9542" style="stroke:#181818;stroke-width:1.0;"/><path d="M2902.9213,29.7386 C3028.1122,35.4646 3228.9692,48.5276 3251.8636,74 C3278.0082,103.0885 3276.3662,131.5155 3251.8636,162 C3235.9915,181.7472 3185.4092,193.0237 3133.897,200.1338 " fill="none" style="stroke:#181818;stroke-width:1.0;"/><polygon fill="#181818" points="2182.1505,79.8191,2191.4624,83.0267,2187.1318,79.3872,2190.7713,75.0566,2182.1505,79.8191" style="stroke:#181818;stroke-width:1.0;"/><path d="M2702.6107,34.6925 C2561.0226,46.9689 2311.9386,68.5658 2188.1281,79.3008 " fill="none" style="stroke:#181818;stroke-width:1.0;"/><polygon fill="#181818" points="1634.1996,205.5519,1625.4278,201.0737,1629.2069,205.283,1624.9975,209.0621,1634.1996,205.5519" style="stroke:#181818;stroke-width:1.0;"/><path d="M1317.3701,100.1451 C1308.4543,116.3184 1296.5774,144.8719 1311.8636,162 C1332.9721,185.6519 1510.5386,198.8921 1628.2083,205.2293 " fill="none" style="stroke:#181818;stroke-width:1.0;"/><polygon fill="#181818" points="1403.8593,135.8762,1398.2357,127.7907,1399.5833,133.2847,1394.0893,134.6322,1403.8593,135.8762" style="stroke:#181818;stroke-width:1.0;"/><path d="M1344.8978,100.1419 C1362.0738,110.5516 1381.5607,122.3618 1398.7281,132.7664 " fill="none" style="stroke:#181818;stroke-width:1.0;"/><polygon fill="#181818" points="2939.7772,198.9883,2931.2307,194.0938,2934.8032,198.4798,2930.4171,202.0523,2939.7772,198.9883" style="stroke:#181818;stroke-width:1.0;"/><path d="M1455.9195,95.6012 C1483.9458,97.137 1513.3841,98.6829 1540.8636,100 C1640.0526,104.7543 2339.6072,104.7465 2433.8636,136 C2453.2875,142.4405 2452.5662,155.1902 2471.8636,162 C2568.1367,195.9737 2828.2485,188.1473 2929.8636,198 C2933.1199,198.3157 2930.4636,198.0362 2933.8084,198.3781 " fill="none" style="stroke:#181818;stroke-width:1.0;"/><polygon fill="#181818" points="1568.6073,135.9496,1560.5486,130.2876,1563.7013,134.9845,1559.0044,138.1371,1568.6073,135.9496" style="stroke:#181818;stroke-width:1.0;"/><path d="M1386.2181,100.0697 C1439.2743,110.507 1509.6925,124.3598 1562.7201,134.7914 " fill="none" style="stroke:#181818;stroke-width:1.0;"/><polygon fill="#181818" points="844.6064,137.0392,854,139.9989,849.5745,136.4754,853.098,132.05,844.6064,137.0392" style="stroke:#181818;stroke-width:1.0;"/><path d="M1200.8399,100.029 C1105.8243,109.3924 971.5017,122.9485 853.8636,136 C850.8223,136.3374 853.6912,136.0083 850.5682,136.3627 " fill="none" style="stroke:#181818;stroke-width:1.0;"/><polygon fill="#181818" points="1037.9654,135.9496,1047.5016,138.4112,1042.897,135.1253,1046.1829,130.5207,1037.9654,135.9496" style="stroke:#181818;stroke-width:1.0;"/><path d="M1252.6465,100.0697 C1190.1966,110.507 1106.2994,124.5288 1043.8833,134.9605 " fill="none" style="stroke:#181818;stroke-width:1.0;"/><text fill="#888888" font-family="sans-serif" font-size="10" lengthAdjust="spacing" textLength="3.1787" x="1576.4106" y="227.2822">&#160;</text><a href="https://github.com/talsma-ict/umldoclet" target="_top" title="https://github.com/talsma-ict/umldoclet" xlink:actuate="onRequest" xlink:href="https://github.com/talsma-ict/umldoclet" xlink:show="new" xlink:title="https://github.com/talsma-ict/umldoclet" xlink:type="simple"><text fill="#888888" font-family="sans-serif" font-size="10" lengthAdjust="spacing" textLength="82.3096" x="1536.8452" y="238.9229">UMLDoclet 2.2.1</text></a><!--SRC=[jLXHZzCu47xdLnZkuK2YJjlRXGKXfDMUn84M2K5veTS7rvacfewTivsjejNzTyPkjjkkIECqK5Lguvdvlfd9s6ER44B-95Uwh8t8SaUS9YuNbdpzU4sOIaa62Wnpa19Hi0miMOBKAhDRHI2iShasHA_24zV6W2srIeNAo0TsmuZLbU5WwQD7953Dxj0tpEwXBsi_-BVc4XnvUlLipwNfUF9YD1rFpycCILimylvgHXkqUvifdT89GMmfE2YBa9LAmGItBal6yUTwAtbERi1OeHNQZ1iS7ohNoZ6XB2cPSTQ7z4aovRol4uhyP_GbUNhvvVhGj_6huDjpScaKgrBoMVzNxS9zN1gMeSUIrRfon1RWc691PDT28H4ho9BnTMOqkikrn5mwmvH54IYtrSJe52imhup35_163jMKLX3akKWnyy9W6kwVeIXTJLO2P6eVZg8NkSRXC0vfHJUbe2jXhFF_f5X-9wFHsmUIoWb9BQYKBHkUMCkSoNvCIZXB2s2sClsO2kPoce7604tToxAHq49ZQdqX6DtFQGLkeytQ-UpOawXzWllczJGZpjH97iBDNKdsAfgKEIPrrjkmtM3hoUbleTK-5D1AI0VcYFL-aPnUlrqmZTe0F-9cBBLvjLf9M6fcqW4vxO3vHTvmYpq61hgngXHts01EXzcf5TWhKcRpe7WChxOY7L0ihVPHCuocHjp0WBVIPjzltMo5YLoukzmubZzHL9BvbzwtGnqt7Swyft0gIaWVLeY3WfP-p_8BW4w5Y2xeBZy6nH1HIp6lDRQkZsB5Bg0IQtiZLAetlmiaThPpt8nY2_mj214Jvc1D7TAHke2YIwKBABgvTG75RGOZ7OffSr4fmXF9T-0u4-gxKzmdFBFWSH0FMsgzVGLSCcl9av_IF27pEGeIV4o286a4IRd56TcgG4zgchj2BXRaDa3-tmbyC3_RMVQr1bFwrBPJUUbWYh0zRUS8ui4a-pkSTgvzhU6K1zLsXFH0RpYjtpiTOVFYmIHXQz9E4iJ38zdrcIFXx7G6qzqtatQwUvt1T4tJQETg5Bg8miyRwse9RyD__rbfxHlIxMx0V_wfIp3Nk8PTXPkNFov-BltgRv9mgODPBlXQ0OOmtcbk0tkJxF4rNF-g-JnthhIlaoGJBg-M66AHk72BDHBS9LKXq-trrOEBhCMYMMZVxMx8_2tJQ7mschoSJSUl_vhYbrvSJ5wzE1-VdN-Rl_iuM_m0]--></g></svg>