<?xml version="1.0" encoding="UTF-8" standalone="no"?>
<!DOCTYPE svg PUBLIC "-//W3C//DTD SVG 1.1//EN"
 "http://www.w3.org/Graphics/SVG/1.1/DTD/svg11.dtd">
<!-- Generated by graphviz version 12.2.1 (0)
 -->
<!-- Title: d Pages: 1 -->
<svg width="892pt" height="116pt"
 viewBox="0.00 0.00 891.62 116.00" xmlns="http://www.w3.org/2000/svg" xmlns:xlink="http://www.w3.org/1999/xlink">
<g id="graph0" class="graph" transform="scale(1 1) rotate(0) translate(4 112)">
<title>d</title>
<polygon fill="white" stroke="none" points="-4,4 -4,-112 887.62,-112 887.62,4 -4,4"/>
<!-- kinematics -->
<g id="node1" class="node">
<title>kinematics</title>
<ellipse fill="none" stroke="black" cx="65.41" cy="-90" rx="65.41" ry="18"/>
<text text-anchor="middle" x="65.41" y="-85.33" font-family="Times,serif" font-size="14.00">kinematics</text>
</g>
<!-- geometry2d -->
<g id="node2" class="node">
<title>geometry2d</title>
<ellipse fill="none" stroke="black" cx="132.41" cy="-18" rx="71.73" ry="18"/>
<text text-anchor="middle" x="132.41" y="-13.32" font-family="Times,serif" font-size="14.00">geometry2d</text>
</g>
<!-- kinematics&#45;&gt;geometry2d -->
<g id="edge1" class="edge">
<title>kinematics&#45;&gt;geometry2d</title>
<path fill="none" stroke="black" d="M81.29,-72.41C89.35,-63.99 99.31,-53.58 108.29,-44.2"/>
<polygon fill="black" stroke="black" points="110.75,-46.69 115.14,-37.05 105.69,-41.85 110.75,-46.69"/>
</g>
<!-- trajectory -->
<g id="node3" class="node">
<title>trajectory</title>
<ellipse fill="none" stroke="black" cx="209.41" cy="-90" rx="60.68" ry="18"/>
<text text-anchor="middle" x="209.41" y="-85.33" font-family="Times,serif" font-size="14.00">trajectory</text>
</g>
<!-- trajectory&#45;&gt;geometry2d -->
<g id="edge2" class="edge">
<title>trajectory&#45;&gt;geometry2d</title>
<path fill="none" stroke="black" d="M191.17,-72.41C181.65,-63.76 169.82,-53 159.27,-43.42"/>
<polygon fill="black" stroke="black" points="161.67,-40.87 151.92,-36.73 156.96,-46.05 161.67,-40.87"/>
</g>
<!-- system -->
<g id="node4" class="node">
<title>system</title>
<ellipse fill="none" stroke="black" cx="344.41" cy="-90" rx="47" ry="18"/>
<text text-anchor="middle" x="344.41" y="-85.33" font-family="Times,serif" font-size="14.00">system</text>
</g>
<!-- wpimath -->
<g id="node5" class="node">
<title>wpimath</title>
<ellipse fill="none" stroke="black" cx="344.41" cy="-18" rx="54.89" ry="18"/>
<text text-anchor="middle" x="344.41" y="-13.32" font-family="Times,serif" font-size="14.00">wpimath</text>
</g>
<!-- system&#45;&gt;wpimath -->
<g id="edge3" class="edge">
<title>system&#45;&gt;wpimath</title>
<path fill="none" stroke="black" d="M344.41,-71.7C344.41,-64.41 344.41,-55.73 344.41,-47.54"/>
<polygon fill="black" stroke="black" points="347.91,-47.62 344.41,-37.62 340.91,-47.62 347.91,-47.62"/>
</g>
<!-- geometry3d -->
<g id="node6" class="node">
<title>geometry3d</title>
<ellipse fill="none" stroke="black" cx="481.41" cy="-90" rx="71.73" ry="18"/>
<text text-anchor="middle" x="481.41" y="-85.33" font-family="Times,serif" font-size="14.00">geometry3d</text>
</g>
<!-- controller -->
<g id="node7" class="node">
<title>controller</title>
<ellipse fill="none" stroke="black" cx="631.41" cy="-90" rx="60.15" ry="18"/>
<text text-anchor="middle" x="631.41" y="-85.33" font-family="Times,serif" font-size="14.00">controller</text>
</g>
<!-- plant -->
<g id="node8" class="node">
<title>plant</title>
<ellipse fill="none" stroke="black" cx="746.41" cy="-90" rx="37" ry="18"/>
<text text-anchor="middle" x="746.41" y="-85.33" font-family="Times,serif" font-size="14.00">plant</text>
</g>
<!-- spline -->
<g id="node9" class="node">
<title>spline</title>
<ellipse fill="none" stroke="black" cx="842.41" cy="-90" rx="41.21" ry="18"/>
<text text-anchor="middle" x="842.41" y="-85.33" font-family="Times,serif" font-size="14.00">spline</text>
</g>
</g>
</svg>
