<svg xmlns="http://www.w3.org/2000/svg" xmlns:xlink="http://www.w3.org/1999/xlink" contentStyleType="text/css" data-diagram-type="CLASS" height="499px" preserveAspectRatio="none" style="width:903px;height:499px;background:#FFFFFF;" version="1.1" viewBox="0 0 903 499" width="903px" zoomAndPan="magnify"><defs/><g><!--class edu.wpi.first.wpilibj.xrp.XRPGyro--><g class="entity" data-entity="edu.wpi.first.wpilibj.xrp.XRPGyro" data-source-line="9" data-uid="ent0002" id="entity_edu.wpi.first.wpilibj.xrp.XRPGyro"><rect fill="#F1F1F1" height="260.435" rx="2.5" ry="2.5" style="stroke:#181818;stroke-width:0.5;" width="208.3353" x="8" y="12"/><ellipse cx="52.9777" cy="33.344" fill="#ADD1B2" rx="11" ry="11" style="stroke:#181818;stroke-width:1;"/><path d="M52.4465,40.2658 Q50.6965,40.2658 49.5558,39.5315 Q48.4308,38.7815 47.8683,37.4377 Q47.3215,36.0783 47.3215,34.2815 Q47.3215,32.2502 47.9777,30.7971 Q48.634,29.344 49.9152,28.5627 Q51.1965,27.7815 53.0715,27.7815 Q53.9621,27.7815 54.634,27.969 Q55.3058,28.1408 55.9933,28.4846 L55.1808,30.5002 Q54.5558,30.1877 54.009,30.0627 Q53.4777,29.9377 52.9933,29.9377 Q51.8215,29.9377 51.1183,30.469 Q50.4152,31.0002 50.1183,31.9533 Q49.8215,32.9065 49.8215,34.1721 Q49.8215,36.1877 50.5402,37.1565 Q51.259,38.1096 52.8527,38.1096 Q53.4465,38.1096 54.0715,37.9533 Q54.6965,37.7971 55.5246,37.4221 L55.5246,39.6408 Q54.7902,39.9533 53.9933,40.1096 Q53.2121,40.2658 52.4465,40.2658 Z " fill="#000000"/><text fill="#000000" font-family="sans-serif" font-size="14" lengthAdjust="spacing" textLength="56.9658" x="99.9348" y="31.9659">XRPGyro</text><text fill="#000000" font-family="sans-serif" font-size="10" lengthAdjust="spacing" textLength="109.8799" x="73.4777" y="46.7579">edu.wpi.first.wpilibj.xrp</text><line style="stroke:#181818;stroke-width:0.5;" x1="9" x2="215.3353" y1="54.6879" y2="54.6879"/><ellipse cx="19" cy="69.7219" fill="#84BE84" rx="3" ry="3" style="stroke:#038048;stroke-width:1;"/><text fill="#000000" font-family="sans-serif" font-size="14" lengthAdjust="spacing" textLength="120.9175" x="28" y="73.6538">getRateX(): double</text><ellipse cx="19" cy="88.7898" fill="#84BE84" rx="3" ry="3" style="stroke:#038048;stroke-width:1;"/><text fill="#000000" font-family="sans-serif" font-size="14" lengthAdjust="spacing" textLength="120.6375" x="28" y="92.7218">getRateY(): double</text><ellipse cx="19" cy="107.8577" fill="#84BE84" rx="3" ry="3" style="stroke:#038048;stroke-width:1;"/><text fill="#000000" font-family="sans-serif" font-size="14" lengthAdjust="spacing" textLength="120.7215" x="28" y="111.7897">getRateZ(): double</text><ellipse cx="19" cy="126.9256" fill="#84BE84" rx="3" ry="3" style="stroke:#038048;stroke-width:1;"/><text fill="#000000" font-family="sans-serif" font-size="14" lengthAdjust="spacing" textLength="129.1215" x="28" y="130.8576">getAngleX(): double</text><ellipse cx="19" cy="145.9935" fill="#84BE84" rx="3" ry="3" style="stroke:#038048;stroke-width:1;"/><text fill="#000000" font-family="sans-serif" font-size="14" lengthAdjust="spacing" textLength="128.8415" x="28" y="149.9255">getAngleY(): double</text><ellipse cx="19" cy="165.0614" fill="#84BE84" rx="3" ry="3" style="stroke:#038048;stroke-width:1;"/><text fill="#000000" font-family="sans-serif" font-size="14" lengthAdjust="spacing" textLength="128.9255" x="28" y="168.9934">getAngleZ(): double</text><ellipse cx="19" cy="184.1294" fill="#84BE84" rx="3" ry="3" style="stroke:#038048;stroke-width:1;"/><text fill="#000000" font-family="sans-serif" font-size="14" lengthAdjust="spacing" textLength="76.9297" x="28" y="188.0613">reset(): void</text><ellipse cx="19" cy="203.1973" fill="#84BE84" rx="3" ry="3" style="stroke:#038048;stroke-width:1;"/><text fill="#000000" font-family="sans-serif" font-size="14" lengthAdjust="spacing" textLength="120.9175" x="28" y="207.1293">getAngle(): double</text><ellipse cx="19" cy="222.2652" fill="#84BE84" rx="3" ry="3" style="stroke:#038048;stroke-width:1;"/><text fill="#000000" font-family="sans-serif" font-size="14" lengthAdjust="spacing" textLength="182.3353" x="28" y="226.1972">getRotation2d(): Rotation2d</text><ellipse cx="19" cy="241.3331" fill="#84BE84" rx="3" ry="3" style="stroke:#038048;stroke-width:1;"/><text fill="#000000" font-family="sans-serif" font-size="14" lengthAdjust="spacing" textLength="112.7136" x="28" y="245.2651">getRate(): double</text><ellipse cx="19" cy="260.401" fill="#84BE84" rx="3" ry="3" style="stroke:#038048;stroke-width:1;"/><text fill="#000000" font-family="sans-serif" font-size="14" lengthAdjust="spacing" textLength="76.9997" x="28" y="264.333">close(): void</text></g><!--class edu.wpi.first.wpilibj.xrp.XRPMotor--><g class="entity" data-entity="edu.wpi.first.wpilibj.xrp.XRPMotor" data-source-line="23" data-uid="ent0003" id="entity_edu.wpi.first.wpilibj.xrp.XRPMotor"><rect fill="#F1F1F1" height="184.1633" rx="2.5" ry="2.5" style="stroke:#181818;stroke-width:0.5;" width="198.5633" x="697.5" y="308"/><ellipse cx="738.0076" cy="329.344" fill="#ADD1B2" rx="11" ry="11" style="stroke:#181818;stroke-width:1;"/><path d="M737.4763,336.2658 Q735.7263,336.2658 734.5857,335.5315 Q733.4607,334.7815 732.8982,333.4377 Q732.3513,332.0783 732.3513,330.2815 Q732.3513,328.2502 733.0076,326.7971 Q733.6638,325.344 734.9451,324.5627 Q736.2263,323.7815 738.1013,323.7815 Q738.9919,323.7815 739.6638,323.969 Q740.3357,324.1408 741.0232,324.4846 L740.2107,326.5002 Q739.5857,326.1877 739.0388,326.0627 Q738.5076,325.9377 738.0232,325.9377 Q736.8513,325.9377 736.1482,326.469 Q735.4451,327.0002 735.1482,327.9533 Q734.8513,328.9065 734.8513,330.1721 Q734.8513,332.1877 735.5701,333.1565 Q736.2888,334.1096 737.8826,334.1096 Q738.4763,334.1096 739.1013,333.9533 Q739.7263,333.7971 740.5544,333.4221 L740.5544,335.6408 Q739.8201,335.9533 739.0232,336.1096 Q738.2419,336.2658 737.4763,336.2658 Z " fill="#000000"/><text fill="#000000" font-family="sans-serif" font-size="14" lengthAdjust="spacing" textLength="65.8558" x="779.688" y="327.9659">XRPMotor</text><text fill="#000000" font-family="sans-serif" font-size="10" lengthAdjust="spacing" textLength="109.8799" x="757.6759" y="342.7579">edu.wpi.first.wpilibj.xrp</text><line style="stroke:#181818;stroke-width:0.5;" x1="698.5" x2="895.0633" y1="350.6879" y2="350.6879"/><ellipse cx="708.5" cy="365.7219" fill="#84BE84" rx="3" ry="3" style="stroke:#038048;stroke-width:1;"/><text fill="#000000" font-family="sans-serif" font-size="14" lengthAdjust="spacing" textLength="91.5737" x="717.5" y="369.6538">XRPMotor(int)</text><ellipse cx="708.5" cy="384.7898" fill="#84BE84" rx="3" ry="3" style="stroke:#038048;stroke-width:1;"/><text fill="#000000" font-family="sans-serif" font-size="14" lengthAdjust="spacing" textLength="109.1016" x="717.5" y="388.7218">set(double): void</text><ellipse cx="708.5" cy="403.8577" fill="#84BE84" rx="3" ry="3" style="stroke:#038048;stroke-width:1;"/><text fill="#000000" font-family="sans-serif" font-size="14" lengthAdjust="spacing" textLength="83.2017" x="717.5" y="407.7897">get(): double</text><ellipse cx="708.5" cy="422.9256" fill="#84BE84" rx="3" ry="3" style="stroke:#038048;stroke-width:1;"/><text fill="#000000" font-family="sans-serif" font-size="14" lengthAdjust="spacing" textLength="172.5633" x="717.5" y="426.8576">setInverted(boolean): void</text><ellipse cx="708.5" cy="441.9935" fill="#84BE84" rx="3" ry="3" style="stroke:#038048;stroke-width:1;"/><text fill="#000000" font-family="sans-serif" font-size="14" lengthAdjust="spacing" textLength="146.6634" x="717.5" y="445.9255">getInverted(): boolean</text><ellipse cx="708.5" cy="461.0614" fill="#84BE84" rx="3" ry="3" style="stroke:#038048;stroke-width:1;"/><text fill="#000000" font-family="sans-serif" font-size="14" lengthAdjust="spacing" textLength="90.4957" x="717.5" y="464.9934">disable(): void</text><ellipse cx="708.5" cy="480.1294" fill="#84BE84" rx="3" ry="3" style="stroke:#038048;stroke-width:1;"/><text fill="#000000" font-family="sans-serif" font-size="14" lengthAdjust="spacing" textLength="112.9096" x="717.5" y="484.0613">stopMotor(): void</text></g><!--class edu.wpi.first.wpilibj.motorcontrol.MotorController--><g class="entity" data-entity="edu.wpi.first.wpilibj.motorcontrol.MotorController" data-source-line="33" data-uid="ent0004" id="entity_edu.wpi.first.wpilibj.motorcontrol.MotorController"><rect fill="#F1F1F1" height="165.0954" rx="2.5" ry="2.5" style="stroke:#181818;stroke-width:0.5;" width="187.1674" x="703.5" y="59.5"/><ellipse cx="721.8649" cy="80.844" fill="#B4A7E5" rx="11" ry="11" style="stroke:#181818;stroke-width:1;"/><path d="M717.8962,87.344 L717.8962,85.6408 L720.2555,85.3752 L720.2555,77.1721 L717.8962,76.9065 L717.8962,75.2033 L725.0368,75.2033 L725.0368,76.9065 L722.6149,77.1721 L722.6149,85.3752 L725.0368,85.6408 L725.0368,87.344 L717.8962,87.344 Z " fill="#000000"/><text fill="#000000" font-family="sans-serif" font-size="14" font-style="italic" lengthAdjust="spacing" textLength="99.8476" x="760.5338" y="79.4659">MotorController</text><text fill="#000000" font-family="sans-serif" font-size="10" font-style="italic" lengthAdjust="spacing" textLength="147.6898" x="736.6127" y="94.2579">edu.wpi.first.wpilibj.motorcontrol</text><line style="stroke:#181818;stroke-width:0.5;" x1="704.5" x2="889.6674" y1="102.1879" y2="102.1879"/><ellipse cx="714.5" cy="117.2219" fill="#84BE84" rx="3" ry="3" style="stroke:#038048;stroke-width:1;"/><text fill="#000000" font-family="sans-serif" font-size="14" font-style="italic" lengthAdjust="spacing" textLength="101.9616" x="723.5" y="121.1538">set(double): void</text><ellipse cx="714.5" cy="136.2898" fill="#84BE84" rx="3" ry="3" style="stroke:#038048;stroke-width:1;"/><text fill="#000000" font-family="sans-serif" font-size="14" font-style="italic" lengthAdjust="spacing" textLength="77.8817" x="723.5" y="140.2218">get(): double</text><ellipse cx="714.5" cy="155.3577" fill="#84BE84" rx="3" ry="3" style="stroke:#038048;stroke-width:1;"/><text fill="#000000" font-family="sans-serif" font-size="14" font-style="italic" lengthAdjust="spacing" textLength="161.1674" x="723.5" y="159.2897">setInverted(boolean): void</text><ellipse cx="714.5" cy="174.4256" fill="#84BE84" rx="3" ry="3" style="stroke:#038048;stroke-width:1;"/><text fill="#000000" font-family="sans-serif" font-size="14" font-style="italic" lengthAdjust="spacing" textLength="137.0875" x="723.5" y="178.3576">getInverted(): boolean</text><ellipse cx="714.5" cy="193.4935" fill="#84BE84" rx="3" ry="3" style="stroke:#038048;stroke-width:1;"/><text fill="#000000" font-family="sans-serif" font-size="14" font-style="italic" lengthAdjust="spacing" textLength="85.9037" x="723.5" y="197.4255">disable(): void</text><ellipse cx="714.5" cy="212.5614" fill="#84BE84" rx="3" ry="3" style="stroke:#038048;stroke-width:1;"/><text fill="#000000" font-family="sans-serif" font-size="14" font-style="italic" lengthAdjust="spacing" textLength="105.9236" x="723.5" y="216.4934">stopMotor(): void</text></g><!--class edu.wpi.first.wpilibj.xrp.XRPServo--><g class="entity" data-entity="edu.wpi.first.wpilibj.xrp.XRPServo" data-source-line="44" data-uid="ent0006" id="entity_edu.wpi.first.wpilibj.xrp.XRPServo"><rect fill="#F1F1F1" height="146.0275" rx="2.5" ry="2.5" style="stroke:#181818;stroke-width:0.5;" width="188.1474" x="234" y="69"/><ellipse cx="269.8204" cy="90.344" fill="#ADD1B2" rx="11" ry="11" style="stroke:#181818;stroke-width:1;"/><path d="M269.2891,97.2658 Q267.5391,97.2658 266.3985,96.5315 Q265.2735,95.7815 264.711,94.4377 Q264.1641,93.0783 264.1641,91.2815 Q264.1641,89.2502 264.8204,87.7971 Q265.4766,86.344 266.7579,85.5627 Q268.0391,84.7815 269.9141,84.7815 Q270.8048,84.7815 271.4766,84.969 Q272.1485,85.1408 272.836,85.4846 L272.0235,87.5002 Q271.3985,87.1877 270.8516,87.0627 Q270.3204,86.9377 269.836,86.9377 Q268.6641,86.9377 267.961,87.469 Q267.2579,88.0002 266.961,88.9533 Q266.6641,89.9065 266.6641,91.1721 Q266.6641,93.1877 267.3829,94.1565 Q268.1016,95.1096 269.6954,95.1096 Q270.2891,95.1096 270.9141,94.9533 Q271.5391,94.7971 272.3673,94.4221 L272.3673,96.6408 Q271.6329,96.9533 270.836,97.1096 Q270.0548,97.2658 269.2891,97.2658 Z " fill="#000000"/><text fill="#000000" font-family="sans-serif" font-size="14" lengthAdjust="spacing" textLength="62.3278" x="312.2232" y="88.9659">XRPServo</text><text fill="#000000" font-family="sans-serif" font-size="10" lengthAdjust="spacing" textLength="109.8799" x="288.4471" y="103.7579">edu.wpi.first.wpilibj.xrp</text><line style="stroke:#181818;stroke-width:0.5;" x1="235" x2="421.1474" y1="111.6879" y2="111.6879"/><ellipse cx="245" cy="126.7219" fill="#84BE84" rx="3" ry="3" style="stroke:#038048;stroke-width:1;"/><text fill="#000000" font-family="sans-serif" font-size="14" lengthAdjust="spacing" textLength="88.0457" x="254" y="130.6538">XRPServo(int)</text><ellipse cx="245" cy="145.7898" fill="#84BE84" rx="3" ry="3" style="stroke:#038048;stroke-width:1;"/><text fill="#000000" font-family="sans-serif" font-size="14" lengthAdjust="spacing" textLength="146.8174" x="254" y="149.7218">setAngle(double): void</text><ellipse cx="245" cy="164.8577" fill="#84BE84" rx="3" ry="3" style="stroke:#038048;stroke-width:1;"/><text fill="#000000" font-family="sans-serif" font-size="14" lengthAdjust="spacing" textLength="120.9175" x="254" y="168.7897">getAngle(): double</text><ellipse cx="245" cy="183.9256" fill="#84BE84" rx="3" ry="3" style="stroke:#038048;stroke-width:1;"/><text fill="#000000" font-family="sans-serif" font-size="14" lengthAdjust="spacing" textLength="162.1474" x="254" y="187.8576">setPosition(double): void</text><ellipse cx="245" cy="202.9935" fill="#84BE84" rx="3" ry="3" style="stroke:#038048;stroke-width:1;"/><text fill="#000000" font-family="sans-serif" font-size="14" lengthAdjust="spacing" textLength="136.2475" x="254" y="206.9255">getPosition(): double</text></g><!--class edu.wpi.first.wpilibj.xrp.XRPOnBoardIO--><g class="entity" data-entity="edu.wpi.first.wpilibj.xrp.XRPOnBoardIO" data-source-line="52" data-uid="ent0007" id="entity_edu.wpi.first.wpilibj.xrp.XRPOnBoardIO"><rect fill="#F1F1F1" height="107.8917" rx="2.5" ry="2.5" style="stroke:#181818;stroke-width:0.5;" width="244.5812" x="440.5" y="88"/><ellipse cx="503.6006" cy="109.344" fill="#ADD1B2" rx="11" ry="11" style="stroke:#181818;stroke-width:1;"/><path d="M503.0694,116.2658 Q501.3194,116.2658 500.1788,115.5315 Q499.0538,114.7815 498.4913,113.4377 Q497.9444,112.0783 497.9444,110.2815 Q497.9444,108.2502 498.6006,106.7971 Q499.2569,105.344 500.5381,104.5627 Q501.8194,103.7815 503.6944,103.7815 Q504.585,103.7815 505.2569,103.969 Q505.9288,104.1408 506.6163,104.4846 L505.8038,106.5002 Q505.1788,106.1877 504.6319,106.0627 Q504.1006,105.9377 503.6163,105.9377 Q502.4444,105.9377 501.7413,106.469 Q501.0381,107.0002 500.7413,107.9533 Q500.4444,108.9065 500.4444,110.1721 Q500.4444,112.1877 501.1631,113.1565 Q501.8819,114.1096 503.4756,114.1096 Q504.0694,114.1096 504.6944,113.9533 Q505.3194,113.7971 506.1475,113.4221 L506.1475,115.6408 Q505.4131,115.9533 504.6163,116.1096 Q503.835,116.2658 503.0694,116.2658 Z " fill="#000000"/><text fill="#000000" font-family="sans-serif" font-size="14" lengthAdjust="spacing" textLength="100.4636" x="528.8088" y="107.9659">XRPOnBoardIO</text><text fill="#000000" font-family="sans-serif" font-size="10" lengthAdjust="spacing" textLength="109.8799" x="524.1006" y="122.7579">edu.wpi.first.wpilibj.xrp</text><line style="stroke:#181818;stroke-width:0.5;" x1="441.5" x2="684.0812" y1="130.6879" y2="130.6879"/><ellipse cx="451.5" cy="145.7219" fill="#84BE84" rx="3" ry="3" style="stroke:#038048;stroke-width:1;"/><text fill="#000000" font-family="sans-serif" font-size="14" lengthAdjust="spacing" textLength="218.5812" x="460.5" y="149.6538">getUserButtonPressed(): boolean</text><ellipse cx="451.5" cy="164.7898" fill="#84BE84" rx="3" ry="3" style="stroke:#038048;stroke-width:1;"/><text fill="#000000" font-family="sans-serif" font-size="14" lengthAdjust="spacing" textLength="140.6575" x="460.5" y="168.7218">setLed(boolean): void</text><ellipse cx="451.5" cy="183.8577" fill="#84BE84" rx="3" ry="3" style="stroke:#038048;stroke-width:1;"/><text fill="#000000" font-family="sans-serif" font-size="14" lengthAdjust="spacing" textLength="114.7576" x="460.5" y="187.7897">getLed(): boolean</text></g><!--class edu.wpi.first.wpilibj.xrp.XRPRangefinder--><g class="entity" data-entity="edu.wpi.first.wpilibj.xrp.XRPRangefinder" data-source-line="58" data-uid="ent0008" id="entity_edu.wpi.first.wpilibj.xrp.XRPRangefinder"><rect fill="#F1F1F1" height="88.8237" rx="2.5" ry="2.5" style="stroke:#181818;stroke-width:0.5;" width="211.9473" x="6" y="355.5"/><ellipse cx="52.7837" cy="376.844" fill="#ADD1B2" rx="11" ry="11" style="stroke:#181818;stroke-width:1;"/><path d="M52.2524,383.7658 Q50.5024,383.7658 49.3618,383.0315 Q48.2368,382.2815 47.6743,380.9377 Q47.1274,379.5783 47.1274,377.7815 Q47.1274,375.7502 47.7837,374.2971 Q48.4399,372.844 49.7212,372.0627 Q51.0024,371.2815 52.8774,371.2815 Q53.7681,371.2815 54.4399,371.469 Q55.1118,371.6408 55.7993,371.9846 L54.9868,374.0002 Q54.3618,373.6877 53.8149,373.5627 Q53.2837,373.4377 52.7993,373.4377 Q51.6274,373.4377 50.9243,373.969 Q50.2212,374.5002 49.9243,375.4533 Q49.6274,376.4065 49.6274,377.6721 Q49.6274,379.6877 50.3462,380.6565 Q51.0649,381.6096 52.6587,381.6096 Q53.2524,381.6096 53.8774,381.4533 Q54.5024,381.2971 55.3306,380.9221 L55.3306,383.1408 Q54.5962,383.4533 53.7993,383.6096 Q53.0181,383.7658 52.2524,383.7658 Z " fill="#000000"/><text fill="#000000" font-family="sans-serif" font-size="14" lengthAdjust="spacing" textLength="106.4696" x="74.9889" y="375.4659">XRPRangefinder</text><text fill="#000000" font-family="sans-serif" font-size="10" lengthAdjust="spacing" textLength="109.8799" x="73.2837" y="390.2579">edu.wpi.first.wpilibj.xrp</text><line style="stroke:#181818;stroke-width:0.5;" x1="7" x2="216.9473" y1="398.1879" y2="398.1879"/><ellipse cx="17" cy="413.2219" fill="#84BE84" rx="3" ry="3" style="stroke:#038048;stroke-width:1;"/><text fill="#000000" font-family="sans-serif" font-size="14" lengthAdjust="spacing" textLength="185.9473" x="26" y="417.1538">getDistanceMeters(): double</text><ellipse cx="17" cy="432.2898" fill="#84BE84" rx="3" ry="3" style="stroke:#038048;stroke-width:1;"/><text fill="#000000" font-family="sans-serif" font-size="14" lengthAdjust="spacing" textLength="183.2873" x="26" y="436.2218">getDistanceInches(): double</text></g><!--class edu.wpi.first.wpilibj.xrp.XRPReflectanceSensor--><g class="entity" data-entity="edu.wpi.first.wpilibj.xrp.XRPReflectanceSensor" data-source-line="63" data-uid="ent0009" id="entity_edu.wpi.first.wpilibj.xrp.XRPReflectanceSensor"><rect fill="#F1F1F1" height="88.8237" rx="2.5" ry="2.5" style="stroke:#181818;stroke-width:0.5;" width="256.0751" x="236" y="355.5"/><ellipse cx="286.5888" cy="376.844" fill="#ADD1B2" rx="11" ry="11" style="stroke:#181818;stroke-width:1;"/><path d="M286.0576,383.7658 Q284.3076,383.7658 283.167,383.0315 Q282.042,382.2815 281.4795,380.9377 Q280.9326,379.5783 280.9326,377.7815 Q280.9326,375.7502 281.5888,374.2971 Q282.2451,372.844 283.5263,372.0627 Q284.8076,371.2815 286.6826,371.2815 Q287.5732,371.2815 288.2451,371.469 Q288.917,371.6408 289.6045,371.9846 L288.792,374.0002 Q288.167,373.6877 287.6201,373.5627 Q287.0888,373.4377 286.6045,373.4377 Q285.4326,373.4377 284.7295,373.969 Q284.0263,374.5002 283.7295,375.4533 Q283.4326,376.4065 283.4326,377.6721 Q283.4326,379.6877 284.1513,380.6565 Q284.8701,381.6096 286.4638,381.6096 Q287.0576,381.6096 287.6826,381.4533 Q288.3076,381.2971 289.1357,380.9221 L289.1357,383.1408 Q288.4013,383.4533 287.6045,383.6096 Q286.8232,383.7658 286.0576,383.7658 Z " fill="#000000"/><text fill="#000000" font-family="sans-serif" font-size="14" lengthAdjust="spacing" textLength="146.3974" x="307.0888" y="375.4659">XRPReflectanceSensor</text><text fill="#000000" font-family="sans-serif" font-size="10" lengthAdjust="spacing" textLength="109.8799" x="325.3476" y="390.2579">edu.wpi.first.wpilibj.xrp</text><line style="stroke:#181818;stroke-width:0.5;" x1="237" x2="491.0751" y1="398.1879" y2="398.1879"/><ellipse cx="247" cy="413.2219" fill="#84BE84" rx="3" ry="3" style="stroke:#038048;stroke-width:1;"/><text fill="#000000" font-family="sans-serif" font-size="14" lengthAdjust="spacing" textLength="220.5411" x="256" y="417.1538">getLeftReflectanceValue(): double</text><ellipse cx="247" cy="432.2898" fill="#84BE84" rx="3" ry="3" style="stroke:#038048;stroke-width:1;"/><text fill="#000000" font-family="sans-serif" font-size="14" lengthAdjust="spacing" textLength="230.0751" x="256" y="436.2218">getRightReflectanceValue(): double</text></g><g class="link" data-entity-1="edu.wpi.first.wpilibj.motorcontrol.MotorController" data-entity-2="edu.wpi.first.wpilibj.xrp.XRPMotor" data-uid="lnk5" id="link_edu.wpi.first.wpilibj.motorcontrol.MotorController_edu.wpi.first.wpilibj.xrp.XRPMotor"><polygon fill="none" points="797,224.7039,791,242.7039,803,242.7039,797,224.7039" style="stroke:#181818;stroke-width:1;"/><path d="M797,242.7039 C797,269.1893 797,280.7311 797,307.8583" fill="none" style="stroke:#181818;stroke-width:1;stroke-dasharray:7.0,7.0;"/></g><!--SRC=[hLLHQzim47xthz3wb38mQ-bJAOLrWn58QKZOQCTUpjRPqP0bevFJPLt- -sGxTMLRQSVmc_NTfyztd-_Exqe3UG5CmavNbb615XH44Q5b2Wga4b9SOma6h3PCQONHHd1aM9HsnpA1afEFE86DTb2KIY1Y9rSaVkFbsSNr_MhvPMVq3tL0FbmZh-B7KiIPC6Jh9ocId_4lKvum87Oq6X-Ks5F4sFiSxGeitizEBndNLIBHGn-2wFSH-b7bCY3Hm0zXU21Yq3bMGrijkCyRPw0jMA7LEQz3BoSlmVwTL6h2JdeVTFPMkwypZRMDLEljysacb3sjWRh6Dh5-fVs47MkkjcWiybcYjKHGVNeNTV21K4Uu84Wa-YwIrMMRWbU_omPDvlhIyw0XVTBA6Yqblcr5KVFJbl-A9puj7hoZyUW94h86KhiFk-F7XqODxXxtR20IjiydZPtilIjawd_KV_KdZl-Xbu8DkqQpdMWND59TmpOdls7RAGnrRM0-7N-fITGJ6RpI1LzkXGVoJjreC7n-DqsDdLotzBuIcflAMgsMRlVGQ9XS9OjZyxVeiyCLh43bc0d5SQB5uWbsLNmMvFutATwY6saQxShdy5ob6wGtJLzX9Z5jRgnHqLGRSIJRfR_0p7hHRo2hmC8N-UOrrlul]--></g></svg>