<?xml version="1.0" encoding="UTF-8" standalone="no"?>
<!DOCTYPE svg PUBLIC "-//W3C//DTD SVG 1.1//EN"
 "http://www.w3.org/Graphics/SVG/1.1/DTD/svg11.dtd">
<!-- Generated by graphviz version 13.0.0 (0)
 -->
<!-- Title: G Pages: 1 -->
<svg width="676pt" height="137pt"
 viewBox="0.00 0.00 676.00 137.00" xmlns="http://www.w3.org/2000/svg" xmlns:xlink="http://www.w3.org/1999/xlink">
<g id="graph0" class="graph" transform="scale(1 1) rotate(0) translate(4 133)">
<title>G</title>
<polygon fill="white" stroke="none" points="-4,4 -4,-133 671.78,-133 671.78,4 -4,4"/>
<g id="clust1" class="cluster">
<title>cluster_doctor</title>
<polygon fill="none" stroke="black" points="8,-8 8,-85 149.56,-85 149.56,-8 8,-8"/>
<text xml:space="preserve" text-anchor="middle" x="78.78" y="-67.7" font-family="Times,serif" font-size="14.00">doctor</text>
</g>
<g id="clust2" class="cluster">
<title>cluster_patient</title>
<polygon fill="none" stroke="black" points="510.85,-8 510.85,-85 659.78,-85 659.78,-8 510.85,-8"/>
<text xml:space="preserve" text-anchor="middle" x="585.31" y="-67.7" font-family="Times,serif" font-size="14.00">patient</text>
</g>
<g id="clust3" class="cluster">
<title>cluster_gives</title>
<polygon fill="none" stroke="black" points="249.81,-8 249.81,-121 400.85,-121 400.85,-8 249.81,-8"/>
<text xml:space="preserve" text-anchor="middle" x="325.33" y="-103.7" font-family="Times,serif" font-size="14.00">gives</text>
</g>
<!-- drPerson -->
<g id="node1" class="node">
<title>drPerson</title>
<ellipse fill="none" stroke="black" cx="78.78" cy="-34" rx="62.78" ry="18"/>
<text xml:space="preserve" text-anchor="middle" x="78.78" y="-29.32" font-family="Times,serif" font-size="14.00">the doctor</text>
</g>
<!-- diagnosis -->
<g id="node3" class="node">
<title>diagnosis</title>
<ellipse fill="none" stroke="black" cx="325.33" cy="-34" rx="67.52" ry="18"/>
<text xml:space="preserve" text-anchor="middle" x="325.33" y="-29.32" font-family="Times,serif" font-size="14.00">a diagnosis</text>
</g>
<!-- drPerson&#45;&gt;diagnosis -->
<g id="edge1" class="edge">
<title>drPerson&#45;&gt;diagnosis</title>
<path fill="none" stroke="blue" d="M107.95,-50.25C122.78,-57.88 141.59,-66.13 159.56,-70 194.43,-77.5 204.87,-77.13 239.81,-70 254.88,-66.92 270.59,-61.06 284.32,-54.94"/>
<polygon fill="blue" stroke="blue" points="285.42,-58.29 293.01,-50.89 282.47,-51.94 285.42,-58.29"/>
<text xml:space="preserve" text-anchor="middle" x="199.69" y="-96.69" font-family="Times,serif" font-size="14.00">gives a</text>
<text xml:space="preserve" text-anchor="middle" x="199.69" y="-79.44" font-family="Times,serif" font-size="14.00">diagnosis</text>
</g>
<!-- drPerson&#45;&gt;diagnosis -->
<g id="edge2" class="edge">
<title>drPerson&#45;&gt;diagnosis</title>
<path fill="none" stroke="green" d="M149.56,-31.69C152.94,-31.61 156.29,-31.55 159.56,-31.5 195.23,-30.94 204.15,-30.97 239.81,-31.5 242.02,-31.53 244.25,-31.57 246.51,-31.61"/>
<polygon fill="green" stroke="green" points="238.08,-34.51 248.31,-31.74 238.58,-27.53 238.08,-34.51"/>
<text xml:space="preserve" text-anchor="middle" x="199.69" y="-52.7" font-family="Times,serif" font-size="14.00">can give</text>
<text xml:space="preserve" text-anchor="middle" x="199.69" y="-35.45" font-family="Times,serif" font-size="14.00">a diagnosis</text>
</g>
<!-- mrPatient -->
<g id="node2" class="node">
<title>mrPatient</title>
<ellipse fill="none" stroke="black" cx="585.31" cy="-34" rx="66.47" ry="18"/>
<text xml:space="preserve" text-anchor="middle" x="585.31" y="-29.32" font-family="Times,serif" font-size="14.00">the patient</text>
</g>
<!-- diagnosis&#45;&gt;drPerson -->
<g id="edge3" class="edge">
<title>diagnosis&#45;&gt;drPerson</title>
<path fill="none" stroke="red" d="M283.13,-19.69C269.52,-15.63 254.18,-11.77 239.81,-9.75 204.5,-4.78 194.84,-4.51 159.56,-9.75 149.68,-11.22 139.33,-13.66 129.48,-16.44"/>
<polygon fill="red" stroke="red" points="128.64,-13.03 120.07,-19.25 130.65,-19.74 128.64,-13.03"/>
<text xml:space="preserve" text-anchor="middle" x="199.69" y="-13.7" font-family="Times,serif" font-size="14.00">belongs to</text>
</g>
<!-- diagnosis&#45;&gt;mrPatient -->
<g id="edge5" class="edge">
<title>diagnosis&#45;&gt;mrPatient</title>
<path fill="none" stroke="blue" d="M356.28,-50.26C372.03,-57.89 391.94,-66.14 410.85,-70 450.04,-78 461.68,-78.09 500.85,-70 515.61,-66.95 530.96,-61.17 544.42,-55.12"/>
<polygon fill="blue" stroke="blue" points="545.84,-58.32 553.39,-50.9 542.86,-51.99 545.84,-58.32"/>
<text xml:space="preserve" text-anchor="middle" x="455.85" y="-97.23" font-family="Times,serif" font-size="14.00">gives a</text>
<text xml:space="preserve" text-anchor="middle" x="455.85" y="-79.98" font-family="Times,serif" font-size="14.00">diagnosis</text>
</g>
<!-- diagnosis&#45;&gt;mrPatient -->
<g id="edge6" class="edge">
<title>diagnosis&#45;&gt;mrPatient</title>
<path fill="none" stroke="green" d="M400.85,-31.67C404.23,-31.61 407.57,-31.55 410.85,-31.5 450.85,-30.91 460.85,-30.9 500.85,-31.5 503.17,-31.53 505.53,-31.57 507.91,-31.62"/>
<polygon fill="green" stroke="green" points="499.09,-34.41 509.34,-31.74 499.66,-27.43 499.09,-34.41"/>
<text xml:space="preserve" text-anchor="middle" x="455.85" y="-52.7" font-family="Times,serif" font-size="14.00">can be given</text>
<text xml:space="preserve" text-anchor="middle" x="455.85" y="-35.45" font-family="Times,serif" font-size="14.00">to a patient</text>
</g>
<!-- diagnosis&#45;&gt;mrPatient -->
<g id="edge7" class="edge">
<title>diagnosis&#45;&gt;mrPatient</title>
<path fill="none" stroke="red" d="M367.53,-19.69C381.15,-15.63 396.49,-11.77 410.85,-9.75 450.46,-4.18 461.25,-4.11 500.85,-9.75 511.27,-11.23 522.21,-13.71 532.61,-16.53"/>
<polygon fill="red" stroke="red" points="531.61,-19.88 542.19,-19.27 533.54,-13.15 531.61,-19.88"/>
<text xml:space="preserve" text-anchor="middle" x="455.85" y="-13.7" font-family="Times,serif" font-size="14.00">belongs to</text>
</g>
<!-- diagnosis&#45;&gt;diagnosis -->
<g id="edge4" class="edge">
<title>diagnosis&#45;&gt;diagnosis</title>
<path fill="none" stroke="purple" d="M302.9,-51.41C298.71,-61.09 306.19,-70 325.33,-70 336.4,-70 343.57,-67.02 346.83,-62.64"/>
<polygon fill="purple" stroke="purple" points="350.3,-63.17 347.64,-52.92 343.33,-62.6 350.3,-63.17"/>
<text xml:space="preserve" text-anchor="middle" x="325.33" y="-73.95" font-family="Times,serif" font-size="14.00">is given</text>
</g>
</g>
</svg>
