<svg xmlns="http://www.w3.org/2000/svg" xmlns:xlink="http://www.w3.org/1999/xlink" contentStyleType="text/css" data-diagram-type="JSON" height="223px" preserveAspectRatio="none" style="width:558px;height:223px;background:#FFFFFF;" version="1.1" viewBox="0 0 558 223" width="558px" zoomAndPan="magnify"><defs/><g><rect fill="#F1F1F1" height="81.1875" rx="5" ry="5" style="stroke:#F1F1F1;stroke-width:1.5;" width="291.9473" x="10" y="85.4063"/><text fill="#000000" font-family="sans-serif" font-size="14" font-weight="bold" lengthAdjust="spacing" textLength="37.7139" x="15" y="100.4014">hash</text><text fill="#000000" font-family="sans-serif" font-size="14" lengthAdjust="spacing" textLength="183.9824" x="102.4102" y="100.4014">sha256-Flmc3...LmSb0M=</text><line style="stroke:#000000;stroke-width:1;" x1="97.4102" x2="97.4102" y1="85.4063" y2="105.7031"/><line style="stroke:#000000;stroke-width:1;" x1="10" x2="301.9473" y1="105.7031" y2="105.7031"/><text fill="#000000" font-family="sans-serif" font-size="14" font-weight="bold" lengthAdjust="spacing" textLength="51.543" x="15" y="120.6982">locked</text><text fill="#000000" font-family="sans-serif" font-size="14" lengthAdjust="spacing" textLength="13.3506" x="102.4102" y="120.6982">&#160;&#160;&#160;</text><line style="stroke:#000000;stroke-width:1;" x1="97.4102" x2="97.4102" y1="105.7031" y2="126"/><line style="stroke:#000000;stroke-width:1;" x1="10" x2="301.9473" y1="126" y2="126"/><text fill="#000000" font-family="sans-serif" font-size="14" font-weight="bold" lengthAdjust="spacing" textLength="60.3545" x="15" y="140.9951">original</text><text fill="#000000" font-family="sans-serif" font-size="14" lengthAdjust="spacing" textLength="13.3506" x="102.4102" y="140.9951">&#160;&#160;&#160;</text><line style="stroke:#000000;stroke-width:1;" x1="97.4102" x2="97.4102" y1="126" y2="146.2969"/><line style="stroke:#000000;stroke-width:1;" x1="10" x2="301.9473" y1="146.2969" y2="146.2969"/><text fill="#000000" font-family="sans-serif" font-size="14" font-weight="bold" lengthAdjust="spacing" textLength="77.4102" x="15" y="161.292">storePath</text><text fill="#000000" font-family="sans-serif" font-size="14" lengthAdjust="spacing" textLength="194.5371" x="102.4102" y="161.292">/nix/store/0bh...-11q-source</text><line style="stroke:#000000;stroke-width:1;" x1="97.4102" x2="97.4102" y1="146.2969" y2="166.5938"/><rect fill="none" height="81.1875" rx="5" ry="5" style="stroke:#000000;stroke-width:1.5;" width="291.9473" x="10" y="85.4063"/><rect fill="#F1F1F1" height="121.7813" rx="5" ry="5" style="stroke:#F1F1F1;stroke-width:1.5;" width="207.1201" x="339" y="10"/><text fill="#000000" font-family="sans-serif" font-size="14" font-weight="bold" lengthAdjust="spacing" textLength="49.1025" x="344" y="24.9951">__final</text><text fill="#000000" font-family="sans-serif" font-size="14" lengthAdjust="spacing" textLength="45.7324" x="452.0479" y="24.9951">&#9745; true</text><line style="stroke:#000000;stroke-width:1;" x1="447.0479" x2="447.0479" y1="10" y2="30.2969"/><line style="stroke:#000000;stroke-width:1;" x1="339" x2="546.1201" y1="30.2969" y2="30.2969"/><text fill="#000000" font-family="sans-serif" font-size="14" font-weight="bold" lengthAdjust="spacing" textLength="98.0479" x="344" y="45.292">lastModified</text><text fill="#000000" font-family="sans-serif" font-size="14" lengthAdjust="spacing" textLength="89.0723" x="452.0479" y="45.292">1733146354</text><line style="stroke:#000000;stroke-width:1;" x1="447.0479" x2="447.0479" y1="30.2969" y2="50.5938"/><line style="stroke:#000000;stroke-width:1;" x1="339" x2="546.1201" y1="50.5938" y2="50.5938"/><text fill="#000000" font-family="sans-serif" font-size="14" font-weight="bold" lengthAdjust="spacing" textLength="48.918" x="344" y="65.5889">owner</text><text fill="#000000" font-family="sans-serif" font-size="14" lengthAdjust="spacing" textLength="57.0732" x="452.0479" y="65.5889">edolstra</text><line style="stroke:#000000;stroke-width:1;" x1="447.0479" x2="447.0479" y1="50.5938" y2="70.8906"/><line style="stroke:#000000;stroke-width:1;" x1="339" x2="546.1201" y1="70.8906" y2="70.8906"/><text fill="#000000" font-family="sans-serif" font-size="14" font-weight="bold" lengthAdjust="spacing" textLength="36.0391" x="344" y="85.8857">repo</text><text fill="#000000" font-family="sans-serif" font-size="14" lengthAdjust="spacing" textLength="51.8232" x="452.0479" y="85.8857">dwarffs</text><line style="stroke:#000000;stroke-width:1;" x1="447.0479" x2="447.0479" y1="70.8906" y2="91.1875"/><line style="stroke:#000000;stroke-width:1;" x1="339" x2="546.1201" y1="91.1875" y2="91.1875"/><text fill="#000000" font-family="sans-serif" font-size="14" font-weight="bold" lengthAdjust="spacing" textLength="25.5254" x="344" y="106.1826">rev</text><text fill="#000000" font-family="sans-serif" font-size="14" lengthAdjust="spacing" textLength="71.6816" x="452.0479" y="106.1826">09f5b6d...</text><line style="stroke:#000000;stroke-width:1;" x1="447.0479" x2="447.0479" y1="91.1875" y2="111.4844"/><line style="stroke:#000000;stroke-width:1;" x1="339" x2="546.1201" y1="111.4844" y2="111.4844"/><text fill="#000000" font-family="sans-serif" font-size="14" font-weight="bold" lengthAdjust="spacing" textLength="35.335" x="344" y="126.4795">type</text><text fill="#000000" font-family="sans-serif" font-size="14" lengthAdjust="spacing" textLength="44.8984" x="452.0479" y="126.4795">github</text><line style="stroke:#000000;stroke-width:1;" x1="447.0479" x2="447.0479" y1="111.4844" y2="131.7813"/><rect fill="none" height="121.7813" rx="5" ry="5" style="stroke:#000000;stroke-width:1.5;" width="207.1201" x="339" y="10"/><rect fill="#F1F1F1" height="60.8906" rx="5" ry="5" style="stroke:#F1F1F1;stroke-width:1.5;" width="125.9912" x="379.5" y="150.5"/><text fill="#000000" font-family="sans-serif" font-size="14" font-weight="bold" lengthAdjust="spacing" textLength="48.918" x="384.5" y="165.4951">owner</text><text fill="#000000" font-family="sans-serif" font-size="14" lengthAdjust="spacing" textLength="57.0732" x="443.418" y="165.4951">edolstra</text><line style="stroke:#000000;stroke-width:1;" x1="438.418" x2="438.418" y1="150.5" y2="170.7969"/><line style="stroke:#000000;stroke-width:1;" x1="379.5" x2="505.4912" y1="170.7969" y2="170.7969"/><text fill="#000000" font-family="sans-serif" font-size="14" font-weight="bold" lengthAdjust="spacing" textLength="36.0391" x="384.5" y="185.792">repo</text><text fill="#000000" font-family="sans-serif" font-size="14" lengthAdjust="spacing" textLength="51.8232" x="443.418" y="185.792">dwarffs</text><line style="stroke:#000000;stroke-width:1;" x1="438.418" x2="438.418" y1="170.7969" y2="191.0938"/><line style="stroke:#000000;stroke-width:1;" x1="379.5" x2="505.4912" y1="191.0938" y2="191.0938"/><text fill="#000000" font-family="sans-serif" font-size="14" font-weight="bold" lengthAdjust="spacing" textLength="35.335" x="384.5" y="206.0889">type</text><text fill="#000000" font-family="sans-serif" font-size="14" lengthAdjust="spacing" textLength="44.8984" x="443.418" y="206.0889">github</text><line style="stroke:#000000;stroke-width:1;" x1="438.418" x2="438.418" y1="191.0938" y2="211.3906"/><rect fill="none" height="60.8906" rx="5" ry="5" style="stroke:#000000;stroke-width:1.5;" width="125.9912" x="379.5" y="150.5"/><path d="M290,116 L303,116 C312.4069,116 322.0054,115.0556 331.5425,113.4405" fill="none" style="stroke:#000000;stroke-width:1;stroke-dasharray:3,3;"/><path d="M332.1161,116.4927 L333.8317,113.0103 L330.969,110.3882 L339.1732,112.0066 L332.1161,116.4927" fill="#000000"/><ellipse cx="290" cy="116" fill="#000000" rx="3" ry="3" style="stroke:#000000;stroke-width:1;"/><path d="M290,136 L303,136 C317.1452,136 345.3491,144.5416 372.6767,154.1821" fill="none" style="stroke:#000000;stroke-width:1;stroke-dasharray:3,3;"/><path d="M371.6345,157.0999 L374.865,154.9638 L373.7189,151.2643 L379.9711,156.7876 L371.6345,157.0999" fill="#000000"/><ellipse cx="290" cy="136" fill="#000000" rx="3" ry="3" style="stroke:#000000;stroke-width:1;"/><!--SRC=[dP5HRu8m58NV-ojkUD94451GIPQOJLtY93D3VJK52dJ3rhL5Pup_VGKrFkrbZ_tEkUUUt8wbma9zIixG6G4O1PQ54O0X2-nwlZahTqdFigp5BehjyCder9wI9ryarQvwGh-tsumoN6gWH4KwLrXYgKAUqemsLcVGwpbzl-VrRpe_CYBgJIJbfLG26pT1a3slUNh48ila0nzgQeyoB_PJNUakgDEUr4fELL75XeQNfYKNDB_LElzlvL_9Kd51bbWrX-eo-jDjIDUE2ztBT9nlK_9A9CH05uJ6XANDVT6on4ojmmKSY92KCt0irtOzgz-Ai89vnS0TWZq8x57WUZ2ThA2MswZrkbp0DH5IgelJk59wletc-83XesAAxaW0xtl2vfEtEu0fEr31sOumXUQRy67m- -OpLH0HePl09aGJak6gL7eYqL_6yW3MgvavH0lCyWhdEfimzC9rhZXfBVe5]--></g></svg>