<svg xmlns="http://www.w3.org/2000/svg" xmlns:xlink="http://www.w3.org/1999/xlink" contentStyleType="text/css" data-diagram-type="JSON" height="421px" preserveAspectRatio="none" style="width:1734px;height:421px;background:#FFFFFF;" version="1.1" viewBox="0 0 1734 421" width="1734px" zoomAndPan="magnify"><defs/><g><rect fill="#F1F1F1" height="243.5625" rx="5" ry="5" style="stroke:#F1F1F1;stroke-width:1.5;" width="729.9668" x="10" y="166"/><text fill="#000000" font-family="sans-serif" font-size="14" font-weight="bold" lengthAdjust="spacing" textLength="88.9492" x="15" y="180.9951">description</text><text fill="#000000" font-family="sans-serif" font-size="14" lengthAdjust="spacing" textLength="157.958" x="123.0479" y="180.9951">Home Manager for Nix</text><line style="stroke:#000000;stroke-width:1;" x1="118.0479" x2="118.0479" y1="166" y2="186.2969"/><line style="stroke:#000000;stroke-width:1;" x1="10" x2="739.9668" y1="186.2969" y2="186.2969"/><text fill="#000000" font-family="sans-serif" font-size="14" font-weight="bold" lengthAdjust="spacing" textLength="85.6611" x="15" y="201.292">fingerprint</text><text fill="#000000" font-family="sans-serif" font-size="14" lengthAdjust="spacing" textLength="132.8428" x="123.0479" y="201.292">c2f6136...7438d43</text><line style="stroke:#000000;stroke-width:1;" x1="118.0479" x2="118.0479" y1="186.2969" y2="206.5938"/><line style="stroke:#000000;stroke-width:1;" x1="10" x2="739.9668" y1="206.5938" y2="206.5938"/><text fill="#000000" font-family="sans-serif" font-size="14" font-weight="bold" lengthAdjust="spacing" textLength="98.0479" x="15" y="221.5889">lastModified</text><text fill="#000000" font-family="sans-serif" font-size="14" lengthAdjust="spacing" textLength="89.0723" x="123.0479" y="221.5889">1755229570</text><line style="stroke:#000000;stroke-width:1;" x1="118.0479" x2="118.0479" y1="206.5938" y2="226.8906"/><line style="stroke:#000000;stroke-width:1;" x1="10" x2="739.9668" y1="226.8906" y2="226.8906"/><text fill="#000000" font-family="sans-serif" font-size="14" font-weight="bold" lengthAdjust="spacing" textLength="51.543" x="15" y="241.8857">locked</text><text fill="#000000" font-family="sans-serif" font-size="14" lengthAdjust="spacing" textLength="13.3506" x="123.0479" y="241.8857">&#160;&#160;&#160;</text><line style="stroke:#000000;stroke-width:1;" x1="118.0479" x2="118.0479" y1="226.8906" y2="247.1875"/><line style="stroke:#000000;stroke-width:1;" x1="10" x2="739.9668" y1="247.1875" y2="247.1875"/><text fill="#000000" font-family="sans-serif" font-size="14" font-weight="bold" lengthAdjust="spacing" textLength="40.3594" x="15" y="262.1826">locks</text><text fill="#000000" font-family="sans-serif" font-size="14" lengthAdjust="spacing" textLength="13.3506" x="123.0479" y="262.1826">&#160;&#160;&#160;</text><line style="stroke:#000000;stroke-width:1;" x1="118.0479" x2="118.0479" y1="247.1875" y2="267.4844"/><line style="stroke:#000000;stroke-width:1;" x1="10" x2="739.9668" y1="267.4844" y2="267.4844"/><text fill="#000000" font-family="sans-serif" font-size="14" font-weight="bold" lengthAdjust="spacing" textLength="60.3545" x="15" y="282.4795">original</text><text fill="#000000" font-family="sans-serif" font-size="14" lengthAdjust="spacing" textLength="13.3506" x="123.0479" y="282.4795">&#160;&#160;&#160;</text><line style="stroke:#000000;stroke-width:1;" x1="118.0479" x2="118.0479" y1="267.4844" y2="287.7813"/><line style="stroke:#000000;stroke-width:1;" x1="10" x2="739.9668" y1="287.7813" y2="287.7813"/><text fill="#000000" font-family="sans-serif" font-size="14" font-weight="bold" lengthAdjust="spacing" textLength="83.4258" x="15" y="302.7764">originalUrl</text><text fill="#000000" font-family="sans-serif" font-size="14" lengthAdjust="spacing" textLength="146.501" x="123.0479" y="302.7764">flake:home-manager</text><line style="stroke:#000000;stroke-width:1;" x1="118.0479" x2="118.0479" y1="287.7813" y2="308.0781"/><line style="stroke:#000000;stroke-width:1;" x1="10" x2="739.9668" y1="308.0781" y2="308.0781"/><text fill="#000000" font-family="sans-serif" font-size="14" font-weight="bold" lengthAdjust="spacing" textLength="36.1279" x="15" y="323.0732">path</text><text fill="#000000" font-family="sans-serif" font-size="14" lengthAdjust="spacing" textLength="193.0264" x="123.0479" y="323.0732">/nix/store/mnc...-gin-source</text><line style="stroke:#000000;stroke-width:1;" x1="118.0479" x2="118.0479" y1="308.0781" y2="328.375"/><line style="stroke:#000000;stroke-width:1;" x1="10" x2="739.9668" y1="328.375" y2="328.375"/><text fill="#000000" font-family="sans-serif" font-size="14" font-weight="bold" lengthAdjust="spacing" textLength="67.792" x="15" y="343.3701">resolved</text><text fill="#000000" font-family="sans-serif" font-size="14" lengthAdjust="spacing" textLength="13.3506" x="123.0479" y="343.3701">&#160;&#160;&#160;</text><line style="stroke:#000000;stroke-width:1;" x1="118.0479" x2="118.0479" y1="328.375" y2="348.6719"/><line style="stroke:#000000;stroke-width:1;" x1="10" x2="739.9668" y1="348.6719" y2="348.6719"/><text fill="#000000" font-family="sans-serif" font-size="14" font-weight="bold" lengthAdjust="spacing" textLength="90.8633" x="15" y="363.667">resolvedUrl</text><text fill="#000000" font-family="sans-serif" font-size="14" lengthAdjust="spacing" textLength="267.0459" x="123.0479" y="363.667">github:nix-community/home-manager</text><line style="stroke:#000000;stroke-width:1;" x1="118.0479" x2="118.0479" y1="348.6719" y2="368.9688"/><line style="stroke:#000000;stroke-width:1;" x1="10" x2="739.9668" y1="368.9688" y2="368.9688"/><text fill="#000000" font-family="sans-serif" font-size="14" font-weight="bold" lengthAdjust="spacing" textLength="63.041" x="15" y="383.9639">revision</text><text fill="#000000" font-family="sans-serif" font-size="14" lengthAdjust="spacing" textLength="75.373" x="123.0479" y="383.9639">11626a4...</text><line style="stroke:#000000;stroke-width:1;" x1="118.0479" x2="118.0479" y1="368.9688" y2="389.2656"/><line style="stroke:#000000;stroke-width:1;" x1="10" x2="739.9668" y1="389.2656" y2="389.2656"/><text fill="#000000" font-family="sans-serif" font-size="14" font-weight="bold" lengthAdjust="spacing" textLength="21.6699" x="15" y="404.2607">url</text><text fill="#000000" font-family="sans-serif" font-size="14" lengthAdjust="spacing" textLength="611.9189" x="123.0479" y="404.2607">github:nix-community/home-manager/11626a4...12f3?narHash=sha256-so...RTBg%3D</text><line style="stroke:#000000;stroke-width:1;" x1="118.0479" x2="118.0479" y1="389.2656" y2="409.5625"/><rect fill="none" height="243.5625" rx="5" ry="5" style="stroke:#000000;stroke-width:1.5;" width="729.9668" x="10" y="166"/><rect fill="#F1F1F1" height="142.0781" rx="5" ry="5" style="stroke:#F1F1F1;stroke-width:1.5;" width="324.9102" x="777" y="41.9609"/><text fill="#000000" font-family="sans-serif" font-size="14" font-weight="bold" lengthAdjust="spacing" textLength="49.1025" x="782" y="56.9561">__final</text><text fill="#000000" font-family="sans-serif" font-size="14" lengthAdjust="spacing" textLength="45.7324" x="890.0479" y="56.9561">&#9745; true</text><line style="stroke:#000000;stroke-width:1;" x1="885.0479" x2="885.0479" y1="41.9609" y2="62.2578"/><line style="stroke:#000000;stroke-width:1;" x1="777" x2="1101.9102" y1="62.2578" y2="62.2578"/><text fill="#000000" font-family="sans-serif" font-size="14" font-weight="bold" lengthAdjust="spacing" textLength="98.0479" x="782" y="77.2529">lastModified</text><text fill="#000000" font-family="sans-serif" font-size="14" lengthAdjust="spacing" textLength="89.0723" x="890.0479" y="77.2529">1755229570</text><line style="stroke:#000000;stroke-width:1;" x1="885.0479" x2="885.0479" y1="62.2578" y2="82.5547"/><line style="stroke:#000000;stroke-width:1;" x1="777" x2="1101.9102" y1="82.5547" y2="82.5547"/><text fill="#000000" font-family="sans-serif" font-size="14" font-weight="bold" lengthAdjust="spacing" textLength="65.7822" x="782" y="97.5498">narHash</text><text fill="#000000" font-family="sans-serif" font-size="14" lengthAdjust="spacing" textLength="206.8623" x="890.0479" y="97.5498">sha256-soZegto0x.../VRTBg=</text><line style="stroke:#000000;stroke-width:1;" x1="885.0479" x2="885.0479" y1="82.5547" y2="102.8516"/><line style="stroke:#000000;stroke-width:1;" x1="777" x2="1101.9102" y1="102.8516" y2="102.8516"/><text fill="#000000" font-family="sans-serif" font-size="14" font-weight="bold" lengthAdjust="spacing" textLength="48.918" x="782" y="117.8467">owner</text><text fill="#000000" font-family="sans-serif" font-size="14" lengthAdjust="spacing" textLength="105.0479" x="890.0479" y="117.8467">nix-community</text><line style="stroke:#000000;stroke-width:1;" x1="885.0479" x2="885.0479" y1="102.8516" y2="123.1484"/><line style="stroke:#000000;stroke-width:1;" x1="777" x2="1101.9102" y1="123.1484" y2="123.1484"/><text fill="#000000" font-family="sans-serif" font-size="14" font-weight="bold" lengthAdjust="spacing" textLength="36.0391" x="782" y="138.1436">repo</text><text fill="#000000" font-family="sans-serif" font-size="14" lengthAdjust="spacing" textLength="107.666" x="890.0479" y="138.1436">home-manager</text><line style="stroke:#000000;stroke-width:1;" x1="885.0479" x2="885.0479" y1="123.1484" y2="143.4453"/><line style="stroke:#000000;stroke-width:1;" x1="777" x2="1101.9102" y1="143.4453" y2="143.4453"/><text fill="#000000" font-family="sans-serif" font-size="14" font-weight="bold" lengthAdjust="spacing" textLength="25.5254" x="782" y="158.4404">rev</text><text fill="#000000" font-family="sans-serif" font-size="14" lengthAdjust="spacing" textLength="75.373" x="890.0479" y="158.4404">11626a4...</text><line style="stroke:#000000;stroke-width:1;" x1="885.0479" x2="885.0479" y1="143.4453" y2="163.7422"/><line style="stroke:#000000;stroke-width:1;" x1="777" x2="1101.9102" y1="163.7422" y2="163.7422"/><text fill="#000000" font-family="sans-serif" font-size="14" font-weight="bold" lengthAdjust="spacing" textLength="35.335" x="782" y="178.7373">type</text><text fill="#000000" font-family="sans-serif" font-size="14" lengthAdjust="spacing" textLength="44.8984" x="890.0479" y="178.7373">github</text><line style="stroke:#000000;stroke-width:1;" x1="885.0479" x2="885.0479" y1="163.7422" y2="184.0391"/><rect fill="none" height="142.0781" rx="5" ry="5" style="stroke:#000000;stroke-width:1.5;" width="324.9102" x="777" y="41.9609"/><rect fill="#F1F1F1" height="60.8906" rx="5" ry="5" style="stroke:#F1F1F1;stroke-width:1.5;" width="106.6182" x="886" y="202.5"/><text fill="#000000" font-family="sans-serif" font-size="14" font-weight="bold" lengthAdjust="spacing" textLength="47.4346" x="891" y="217.4951">nodes</text><text fill="#000000" font-family="sans-serif" font-size="14" lengthAdjust="spacing" textLength="13.3506" x="959.2422" y="217.4951">&#160;&#160;&#160;</text><line style="stroke:#000000;stroke-width:1;" x1="954.2422" x2="954.2422" y1="202.5" y2="222.7969"/><line style="stroke:#000000;stroke-width:1;" x1="886" x2="992.6182" y1="222.7969" y2="222.7969"/><text fill="#000000" font-family="sans-serif" font-size="14" font-weight="bold" lengthAdjust="spacing" textLength="32.833" x="891" y="237.792">root</text><text fill="#000000" font-family="sans-serif" font-size="14" lengthAdjust="spacing" textLength="28.376" x="959.2422" y="237.792">root</text><line style="stroke:#000000;stroke-width:1;" x1="954.2422" x2="954.2422" y1="222.7969" y2="243.0938"/><line style="stroke:#000000;stroke-width:1;" x1="886" x2="992.6182" y1="243.0938" y2="243.0938"/><text fill="#000000" font-family="sans-serif" font-size="14" font-weight="bold" lengthAdjust="spacing" textLength="58.2422" x="891" y="258.0889">version</text><text fill="#000000" font-family="sans-serif" font-size="14" lengthAdjust="spacing" textLength="8.9072" x="959.2422" y="258.0889">7</text><line style="stroke:#000000;stroke-width:1;" x1="954.2422" x2="954.2422" y1="243.0938" y2="263.3906"/><rect fill="none" height="60.8906" rx="5" ry="5" style="stroke:#000000;stroke-width:1.5;" width="106.6182" x="886" y="202.5"/><rect fill="#F1F1F1" height="40.5938" rx="5" ry="5" style="stroke:#F1F1F1;stroke-width:1.5;" width="94.833" x="1139" y="192.5"/><text fill="#000000" font-family="sans-serif" font-size="14" font-weight="bold" lengthAdjust="spacing" textLength="61.4824" x="1144" y="207.4951">nixpkgs</text><text fill="#000000" font-family="sans-serif" font-size="14" lengthAdjust="spacing" textLength="13.3506" x="1215.4824" y="207.4951">&#160;&#160;&#160;</text><line style="stroke:#000000;stroke-width:1;" x1="1210.4824" x2="1210.4824" y1="192.5" y2="212.7969"/><line style="stroke:#000000;stroke-width:1;" x1="1139" x2="1233.833" y1="212.7969" y2="212.7969"/><text fill="#000000" font-family="sans-serif" font-size="14" font-weight="bold" lengthAdjust="spacing" textLength="32.833" x="1144" y="227.792">root</text><text fill="#000000" font-family="sans-serif" font-size="14" lengthAdjust="spacing" textLength="13.3506" x="1215.4824" y="227.792">&#160;&#160;&#160;</text><line style="stroke:#000000;stroke-width:1;" x1="1210.4824" x2="1210.4824" y1="212.7969" y2="233.0938"/><rect fill="none" height="40.5938" rx="5" ry="5" style="stroke:#000000;stroke-width:1.5;" width="94.833" x="1139" y="192.5"/><rect fill="#F1F1F1" height="40.5938" rx="5" ry="5" style="stroke:#F1F1F1;stroke-width:1.5;" width="93.7051" x="1271" y="160.5"/><text fill="#000000" font-family="sans-serif" font-size="14" font-weight="bold" lengthAdjust="spacing" textLength="51.543" x="1276" y="175.4951">locked</text><text fill="#000000" font-family="sans-serif" font-size="14" lengthAdjust="spacing" textLength="13.3506" x="1346.3545" y="175.4951">&#160;&#160;&#160;</text><line style="stroke:#000000;stroke-width:1;" x1="1341.3545" x2="1341.3545" y1="160.5" y2="180.7969"/><line style="stroke:#000000;stroke-width:1;" x1="1271" x2="1364.7051" y1="180.7969" y2="180.7969"/><text fill="#000000" font-family="sans-serif" font-size="14" font-weight="bold" lengthAdjust="spacing" textLength="60.3545" x="1276" y="195.792">original</text><text fill="#000000" font-family="sans-serif" font-size="14" lengthAdjust="spacing" textLength="13.3506" x="1346.3545" y="195.792">&#160;&#160;&#160;</text><line style="stroke:#000000;stroke-width:1;" x1="1341.3545" x2="1341.3545" y1="180.7969" y2="201.0938"/><rect fill="none" height="40.5938" rx="5" ry="5" style="stroke:#000000;stroke-width:1.5;" width="93.7051" x="1271" y="160.5"/><rect fill="#F1F1F1" height="121.7813" rx="5" ry="5" style="stroke:#F1F1F1;stroke-width:1.5;" width="320.9863" x="1402" y="10"/><text fill="#000000" font-family="sans-serif" font-size="14" font-weight="bold" lengthAdjust="spacing" textLength="98.0479" x="1407" y="24.9951">lastModified</text><text fill="#000000" font-family="sans-serif" font-size="14" lengthAdjust="spacing" textLength="89.0723" x="1515.0479" y="24.9951">1754725699</text><line style="stroke:#000000;stroke-width:1;" x1="1510.0479" x2="1510.0479" y1="10" y2="30.2969"/><line style="stroke:#000000;stroke-width:1;" x1="1402" x2="1722.9863" y1="30.2969" y2="30.2969"/><text fill="#000000" font-family="sans-serif" font-size="14" font-weight="bold" lengthAdjust="spacing" textLength="65.7822" x="1407" y="45.292">narHash</text><text fill="#000000" font-family="sans-serif" font-size="14" lengthAdjust="spacing" textLength="202.9385" x="1515.0479" y="45.292">sha256-iAcj9T/Y+...3CdP88=</text><line style="stroke:#000000;stroke-width:1;" x1="1510.0479" x2="1510.0479" y1="30.2969" y2="50.5938"/><line style="stroke:#000000;stroke-width:1;" x1="1402" x2="1722.9863" y1="50.5938" y2="50.5938"/><text fill="#000000" font-family="sans-serif" font-size="14" font-weight="bold" lengthAdjust="spacing" textLength="48.918" x="1407" y="65.5889">owner</text><text fill="#000000" font-family="sans-serif" font-size="14" lengthAdjust="spacing" textLength="42.5537" x="1515.0479" y="65.5889">NixOS</text><line style="stroke:#000000;stroke-width:1;" x1="1510.0479" x2="1510.0479" y1="50.5938" y2="70.8906"/><line style="stroke:#000000;stroke-width:1;" x1="1402" x2="1722.9863" y1="70.8906" y2="70.8906"/><text fill="#000000" font-family="sans-serif" font-size="14" font-weight="bold" lengthAdjust="spacing" textLength="36.0391" x="1407" y="85.8857">repo</text><text fill="#000000" font-family="sans-serif" font-size="14" lengthAdjust="spacing" textLength="54.2227" x="1515.0479" y="85.8857">nixpkgs</text><line style="stroke:#000000;stroke-width:1;" x1="1510.0479" x2="1510.0479" y1="70.8906" y2="91.1875"/><line style="stroke:#000000;stroke-width:1;" x1="1402" x2="1722.9863" y1="91.1875" y2="91.1875"/><text fill="#000000" font-family="sans-serif" font-size="14" font-weight="bold" lengthAdjust="spacing" textLength="25.5254" x="1407" y="106.1826">rev</text><text fill="#000000" font-family="sans-serif" font-size="14" lengthAdjust="spacing" textLength="70.4717" x="1515.0479" y="106.1826">85dbfc7...</text><line style="stroke:#000000;stroke-width:1;" x1="1510.0479" x2="1510.0479" y1="91.1875" y2="111.4844"/><line style="stroke:#000000;stroke-width:1;" x1="1402" x2="1722.9863" y1="111.4844" y2="111.4844"/><text fill="#000000" font-family="sans-serif" font-size="14" font-weight="bold" lengthAdjust="spacing" textLength="35.335" x="1407" y="126.4795">type</text><text fill="#000000" font-family="sans-serif" font-size="14" lengthAdjust="spacing" textLength="44.8984" x="1515.0479" y="126.4795">github</text><line style="stroke:#000000;stroke-width:1;" x1="1510.0479" x2="1510.0479" y1="111.4844" y2="131.7813"/><rect fill="none" height="121.7813" rx="5" ry="5" style="stroke:#000000;stroke-width:1.5;" width="320.9863" x="1402" y="10"/><rect fill="#F1F1F1" height="81.1875" rx="5" ry="5" style="stroke:#F1F1F1;stroke-width:1.5;" width="171.375" x="1477" y="150.4063"/><text fill="#000000" font-family="sans-serif" font-size="14" font-weight="bold" lengthAdjust="spacing" textLength="48.918" x="1482" y="165.4014">owner</text><text fill="#000000" font-family="sans-serif" font-size="14" lengthAdjust="spacing" textLength="42.5537" x="1540.918" y="165.4014">NixOS</text><line style="stroke:#000000;stroke-width:1;" x1="1535.918" x2="1535.918" y1="150.4063" y2="170.7031"/><line style="stroke:#000000;stroke-width:1;" x1="1477" x2="1648.375" y1="170.7031" y2="170.7031"/><text fill="#000000" font-family="sans-serif" font-size="14" font-weight="bold" lengthAdjust="spacing" textLength="22.4902" x="1482" y="185.6982">ref</text><text fill="#000000" font-family="sans-serif" font-size="14" lengthAdjust="spacing" textLength="102.457" x="1540.918" y="185.6982">nixos-unstable</text><line style="stroke:#000000;stroke-width:1;" x1="1535.918" x2="1535.918" y1="170.7031" y2="191"/><line style="stroke:#000000;stroke-width:1;" x1="1477" x2="1648.375" y1="191" y2="191"/><text fill="#000000" font-family="sans-serif" font-size="14" font-weight="bold" lengthAdjust="spacing" textLength="36.0391" x="1482" y="205.9951">repo</text><text fill="#000000" font-family="sans-serif" font-size="14" lengthAdjust="spacing" textLength="54.2227" x="1540.918" y="205.9951">nixpkgs</text><line style="stroke:#000000;stroke-width:1;" x1="1535.918" x2="1535.918" y1="191" y2="211.2969"/><line style="stroke:#000000;stroke-width:1;" x1="1477" x2="1648.375" y1="211.2969" y2="211.2969"/><text fill="#000000" font-family="sans-serif" font-size="14" font-weight="bold" lengthAdjust="spacing" textLength="35.335" x="1482" y="226.292">type</text><text fill="#000000" font-family="sans-serif" font-size="14" lengthAdjust="spacing" textLength="44.8984" x="1540.918" y="226.292">github</text><line style="stroke:#000000;stroke-width:1;" x1="1535.918" x2="1535.918" y1="211.2969" y2="231.5938"/><rect fill="none" height="81.1875" rx="5" ry="5" style="stroke:#000000;stroke-width:1.5;" width="171.375" x="1477" y="150.4063"/><rect fill="#F1F1F1" height="20.2969" rx="5" ry="5" style="stroke:#F1F1F1;stroke-width:1.5;" width="83.1299" x="1276.5" y="234.8516"/><text fill="#000000" font-family="sans-serif" font-size="14" font-weight="bold" lengthAdjust="spacing" textLength="49.7793" x="1281.5" y="249.8467">inputs</text><text fill="#000000" font-family="sans-serif" font-size="14" lengthAdjust="spacing" textLength="13.3506" x="1341.2793" y="249.8467">&#160;&#160;&#160;</text><line style="stroke:#000000;stroke-width:1;" x1="1336.2793" x2="1336.2793" y1="234.8516" y2="255.1484"/><rect fill="none" height="20.2969" rx="5" ry="5" style="stroke:#000000;stroke-width:1.5;" width="83.1299" x="1276.5" y="234.8516"/><rect fill="#F1F1F1" height="20.2969" rx="5" ry="5" style="stroke:#F1F1F1;stroke-width:1.5;" width="135.7051" x="1494.5" y="249.8516"/><text fill="#000000" font-family="sans-serif" font-size="14" font-weight="bold" lengthAdjust="spacing" textLength="61.4824" x="1499.5" y="264.8467">nixpkgs</text><text fill="#000000" font-family="sans-serif" font-size="14" lengthAdjust="spacing" textLength="54.2227" x="1570.9824" y="264.8467">nixpkgs</text><line style="stroke:#000000;stroke-width:1;" x1="1565.9824" x2="1565.9824" y1="249.8516" y2="270.1484"/><rect fill="none" height="20.2969" rx="5" ry="5" style="stroke:#000000;stroke-width:1.5;" width="135.7051" x="1494.5" y="249.8516"/><rect fill="#F1F1F1" height="40.5938" rx="5" ry="5" style="stroke:#F1F1F1;stroke-width:1.5;" width="163.001" x="858" y="281.5"/><text fill="#000000" font-family="sans-serif" font-size="14" font-weight="bold" lengthAdjust="spacing" textLength="14.8203" x="863" y="296.4951">id</text><text fill="#000000" font-family="sans-serif" font-size="14" lengthAdjust="spacing" textLength="107.666" x="908.335" y="296.4951">home-manager</text><line style="stroke:#000000;stroke-width:1;" x1="903.335" x2="903.335" y1="281.5" y2="301.7969"/><line style="stroke:#000000;stroke-width:1;" x1="858" x2="1021.001" y1="301.7969" y2="301.7969"/><text fill="#000000" font-family="sans-serif" font-size="14" font-weight="bold" lengthAdjust="spacing" textLength="35.335" x="863" y="316.792">type</text><text fill="#000000" font-family="sans-serif" font-size="14" lengthAdjust="spacing" textLength="53.0947" x="908.335" y="316.792">indirect</text><line style="stroke:#000000;stroke-width:1;" x1="903.335" x2="903.335" y1="301.7969" y2="322.0938"/><rect fill="none" height="40.5938" rx="5" ry="5" style="stroke:#000000;stroke-width:1.5;" width="163.001" x="858" y="281.5"/><rect fill="#F1F1F1" height="60.8906" rx="5" ry="5" style="stroke:#F1F1F1;stroke-width:1.5;" width="176.584" x="851" y="340.5"/><text fill="#000000" font-family="sans-serif" font-size="14" font-weight="bold" lengthAdjust="spacing" textLength="48.918" x="856" y="355.4951">owner</text><text fill="#000000" font-family="sans-serif" font-size="14" lengthAdjust="spacing" textLength="105.0479" x="914.918" y="355.4951">nix-community</text><line style="stroke:#000000;stroke-width:1;" x1="909.918" x2="909.918" y1="340.5" y2="360.7969"/><line style="stroke:#000000;stroke-width:1;" x1="851" x2="1027.584" y1="360.7969" y2="360.7969"/><text fill="#000000" font-family="sans-serif" font-size="14" font-weight="bold" lengthAdjust="spacing" textLength="36.0391" x="856" y="375.792">repo</text><text fill="#000000" font-family="sans-serif" font-size="14" lengthAdjust="spacing" textLength="107.666" x="914.918" y="375.792">home-manager</text><line style="stroke:#000000;stroke-width:1;" x1="909.918" x2="909.918" y1="360.7969" y2="381.0938"/><line style="stroke:#000000;stroke-width:1;" x1="851" x2="1027.584" y1="381.0938" y2="381.0938"/><text fill="#000000" font-family="sans-serif" font-size="14" font-weight="bold" lengthAdjust="spacing" textLength="35.335" x="856" y="396.0889">type</text><text fill="#000000" font-family="sans-serif" font-size="14" lengthAdjust="spacing" textLength="44.8984" x="914.918" y="396.0889">github</text><line style="stroke:#000000;stroke-width:1;" x1="909.918" x2="909.918" y1="381.0938" y2="401.3906"/><rect fill="none" height="60.8906" rx="5" ry="5" style="stroke:#000000;stroke-width:1.5;" width="176.584" x="851" y="340.5"/><path d="M728,237 L741,237 C765.9246,237 757.4436,209.4526 777,194 C779.2282,192.2394 781.5008,190.5021 783.8119,188.7889" fill="none" style="stroke:#000000;stroke-width:1;stroke-dasharray:3,3;"/><path d="M785.6034,191.2703 L785.673,187.4452 L782.0204,186.3075 L790.0154,184.3101 L785.6034,191.2703" fill="#000000"/><ellipse cx="728" cy="237" fill="#000000" rx="3" ry="3" style="stroke:#000000;stroke-width:1;"/><path d="M1353,171 L1366,171 C1386.8273,171 1384.2832,151.9496 1402,141 C1404.7565,139.2964 1407.5617,137.613 1410.4067,135.9512" fill="none" style="stroke:#000000;stroke-width:1;stroke-dasharray:3,3;"/><path d="M1411.9419,138.6338 L1412.4187,134.7998 L1408.8715,133.2686 L1417.1132,132.1132 L1411.9419,138.6338" fill="#000000"/><ellipse cx="1353" cy="171" fill="#000000" rx="3" ry="3" style="stroke:#000000;stroke-width:1;"/><path d="M1353,191 L1366,191 C1399.7074,191 1436.6756,191 1469.3341,191" fill="none" style="stroke:#000000;stroke-width:1;stroke-dasharray:3,3;"/><path d="M1469.3341,194.107 L1471.6644,191 L1469.3341,187.893 L1477.1017,191 L1469.3341,194.107" fill="#000000"/><ellipse cx="1353" cy="191" fill="#000000" rx="3" ry="3" style="stroke:#000000;stroke-width:1;"/><path d="M1222,203 L1235,203 C1244.4743,203 1254.3602,201.6287 1263.8616,199.5708" fill="none" style="stroke:#000000;stroke-width:1;stroke-dasharray:3,3;"/><path d="M1264.5754,202.5797 L1266.1183,199.0355 L1263.1478,196.5619 L1271.3839,197.7863 L1264.5754,202.5797" fill="#000000"/><ellipse cx="1222" cy="203" fill="#000000" rx="3" ry="3" style="stroke:#000000;stroke-width:1;"/><path d="M1347.5,245 L1360.5,245 C1402.5953,245 1449.5012,248.2959 1487.4582,251.7978" fill="none" style="stroke:#000000;stroke-width:1;stroke-dasharray:3,3;"/><path d="M1487.1774,254.785 L1489.6986,252.0085 L1487.7391,248.8106 L1494.9263,252.5 L1487.1774,254.785" fill="#000000"/><ellipse cx="1347.5" cy="245" fill="#000000" rx="3" ry="3" style="stroke:#000000;stroke-width:1;"/><path d="M1222,223 L1235,223 C1252.0701,223 1270.4765,227.4516 1285.5629,232.3499" fill="none" style="stroke:#000000;stroke-width:1;stroke-dasharray:3,3;"/><path d="M1284.5938,235.1975 L1287.6986,233.0768 L1286.5321,229.5023 L1292.6819,234.7729 L1284.5938,235.1975" fill="#000000"/><ellipse cx="1222" cy="223" fill="#000000" rx="3" ry="3" style="stroke:#000000;stroke-width:1;"/><path d="M981,213 L994,213 C1040.3685,213 1093.0359,213 1131.466,213" fill="none" style="stroke:#000000;stroke-width:1;stroke-dasharray:3,3;"/><path d="M1131.466,216.1908 L1133.8591,213 L1131.466,209.8092 L1139.443,213 L1131.466,216.1908" fill="#000000"/><ellipse cx="981" cy="213" fill="#000000" rx="3" ry="3" style="stroke:#000000;stroke-width:1;"/><path d="M728,257 L741,257 C787.4213,257 839.5226,250.4182 878.6243,244.1481" fill="none" style="stroke:#000000;stroke-width:1;stroke-dasharray:3,3;"/><path d="M879.1234,247.2047 L880.9167,243.7738 L878.1251,241.0915 L886.2657,242.9003 L879.1234,247.2047" fill="#000000"/><ellipse cx="728" cy="257" fill="#000000" rx="3" ry="3" style="stroke:#000000;stroke-width:1;"/><path d="M728,278 L741,278 C777.055,278 816.5364,281.9705 850.6921,286.6815" fill="none" style="stroke:#000000;stroke-width:1;stroke-dasharray:3,3;"/><path d="M850.2601,289.7433 L852.9885,287.0056 L851.1242,283.6197 L858.3466,287.7617 L850.2601,289.7433" fill="#000000"/><ellipse cx="728" cy="278" fill="#000000" rx="3" ry="3" style="stroke:#000000;stroke-width:1;"/><path d="M728,339 L741,339 C774.6873,339 811.1904,343.57 843.57,349.256" fill="none" style="stroke:#000000;stroke-width:1;stroke-dasharray:3,3;"/><path d="M843.0151,352.3378 L845.8813,349.6722 L844.1249,346.1742 L851.2744,350.6433 L843.0151,352.3378" fill="#000000"/><ellipse cx="728" cy="339" fill="#000000" rx="3" ry="3" style="stroke:#000000;stroke-width:1;"/><!--SRC=[dLHXJzim4FtkNs5PcWGQQTgqQTf8Q0ow3NLq85gGjY_8JPpKaDYHxNGWn7_VfKcQqeY9hL_It3k_l7jtvnDjg3BtMWhqZ30c8TE1ufdXKX0VatEPCZoZWiPCuKWg_8C_agCYCU82OfdYmXI9WHCDU_rXfzFn1lrHEEYNMGdLPYP37d4MGbhFSrt76RjUjqHbyB295v-6zxixOAK918pAsL4P_2i5u8AgSwfNXGYzeeuxjBJynM8Zku-WnhwzNfp6nwHAbhy5KqMgu8zM8DCq5zmyrQXYcIp05LHjfMNL3ROke5vlw0pf09Xhm3nbh41YRbRvaa3mPLkSRceJ4gpTlkADWkmXtWsr7QcZBGi67XGw7X_jPhMDu9-3-_72_laHvFRFmglHg3QYEhAr0zfwEN-DrMRKElV0ZHiZDrn6WTUuKS5jJyhVIvD5fE9nrUtdzskAAabIMxc0sLqcx1zalwaBxUaZIahpkZLSPBdH-sgRBcx_jbdH3dVDN3whs9efNMwSjvsVbZ-4XsyDPrqN5o5NB32anNAZ2Y8I9VI1-IqAab6p6HmRYh2raOhPgGYWhnQSXeNALL3w3FvgcQntj_R_T-gjrQc_KOakOVyLlTsk0MQILoxkhod9tybaDmTxJjJ_LEtKyVPc0Q2uK3xq9mIz87J2HBYvFD5LGeMvcLtWgfUurt6wZjiP7CofmTDSO6U4kvxV7VkEYxzC5hY03z71jwiBN1gCGwwDuikyk7qFqPIkARxEXU4fy_5bniHqyhqEu2zYpPKKAHC6JMzdJS9mO9roW-TCWH9yEqCJ5j4yCN0YW3j4n3w-MNorHkY2YZY7edtC13gJmAkU09l_0G00]--></g></svg>