<svg xmlns="http://www.w3.org/2000/svg" xmlns:xlink="http://www.w3.org/1999/xlink" contentStyleType="text/css" data-diagram-type="JSON" height="416px" preserveAspectRatio="none" style="width:1270px;height:416px;background:#FFFFFF;" version="1.1" viewBox="0 0 1270 416" width="1270px" zoomAndPan="magnify"><defs/><g><rect fill="#F1F1F1" height="40.5938" rx="5" ry="5" style="stroke:#F1F1F1;stroke-width:1.5;" width="264.3164" x="10" y="207"/><text fill="#000000" font-family="sans-serif" font-size="14" font-weight="bold" lengthAdjust="spacing" textLength="49.7793" x="15" y="221.9951">inputs</text><text fill="#000000" font-family="sans-serif" font-size="14" lengthAdjust="spacing" textLength="13.3506" x="74.7793" y="221.9951">&#160;&#160;&#160;</text><line style="stroke:#000000;stroke-width:1;" x1="69.7793" x2="69.7793" y1="207" y2="227.2969"/><line style="stroke:#000000;stroke-width:1;" x1="10" x2="274.3164" y1="227.2969" y2="227.2969"/><text fill="#000000" font-family="sans-serif" font-size="14" font-weight="bold" lengthAdjust="spacing" textLength="36.1279" x="15" y="242.292">path</text><text fill="#000000" font-family="sans-serif" font-size="14" lengthAdjust="spacing" textLength="194.5371" x="74.7793" y="242.292">/nix/store/0bh...-11q-source</text><line style="stroke:#000000;stroke-width:1;" x1="69.7793" x2="69.7793" y1="227.2969" y2="247.5938"/><rect fill="none" height="40.5938" rx="5" ry="5" style="stroke:#000000;stroke-width:1.5;" width="264.3164" x="10" y="207"/><rect fill="#F1F1F1" height="20.2969" rx="5" ry="5" style="stroke:#F1F1F1;stroke-width:1.5;" width="57.1465" x="311" y="207.3516"/><text fill="#000000" font-family="sans-serif" font-size="14" font-weight="bold" lengthAdjust="spacing" textLength="23.7959" x="316" y="222.3467">nix</text><text fill="#000000" font-family="sans-serif" font-size="14" lengthAdjust="spacing" textLength="13.3506" x="349.7959" y="222.3467">&#160;&#160;&#160;</text><line style="stroke:#000000;stroke-width:1;" x1="344.7959" x2="344.7959" y1="207.3516" y2="227.6484"/><rect fill="none" height="20.2969" rx="5" ry="5" style="stroke:#000000;stroke-width:1.5;" width="57.1465" x="311" y="207.3516"/><rect fill="#F1F1F1" height="40.5938" rx="5" ry="5" style="stroke:#F1F1F1;stroke-width:1.5;" width="262.1016" x="405" y="197"/><text fill="#000000" font-family="sans-serif" font-size="14" font-weight="bold" lengthAdjust="spacing" textLength="49.7793" x="410" y="211.9951">inputs</text><text fill="#000000" font-family="sans-serif" font-size="14" lengthAdjust="spacing" textLength="13.3506" x="469.7793" y="211.9951">&#160;&#160;&#160;</text><line style="stroke:#000000;stroke-width:1;" x1="464.7793" x2="464.7793" y1="197" y2="217.2969"/><line style="stroke:#000000;stroke-width:1;" x1="405" x2="667.1016" y1="217.2969" y2="217.2969"/><text fill="#000000" font-family="sans-serif" font-size="14" font-weight="bold" lengthAdjust="spacing" textLength="36.1279" x="410" y="232.292">path</text><text fill="#000000" font-family="sans-serif" font-size="14" lengthAdjust="spacing" textLength="192.3223" x="469.7793" y="232.292">/nix/store/nv1...-qs8-source</text><line style="stroke:#000000;stroke-width:1;" x1="464.7793" x2="464.7793" y1="217.2969" y2="237.5938"/><rect fill="none" height="40.5938" rx="5" ry="5" style="stroke:#000000;stroke-width:1.5;" width="262.1016" x="405" y="197"/><rect fill="#F1F1F1" height="142.0781" rx="5" ry="5" style="stroke:#F1F1F1;stroke-width:1.5;" width="184.5137" x="704" y="136.4609"/><text fill="#000000" font-family="sans-serif" font-size="14" font-weight="bold" lengthAdjust="spacing" textLength="103.6191" x="709" y="151.4561">flake-compat</text><text fill="#000000" font-family="sans-serif" font-size="14" lengthAdjust="spacing" textLength="13.3506" x="870.1631" y="151.4561">&#160;&#160;&#160;</text><line style="stroke:#000000;stroke-width:1;" x1="865.1631" x2="865.1631" y1="136.4609" y2="156.7578"/><line style="stroke:#000000;stroke-width:1;" x1="704" x2="888.5137" y1="156.7578" y2="156.7578"/><text fill="#000000" font-family="sans-serif" font-size="14" font-weight="bold" lengthAdjust="spacing" textLength="86.3516" x="709" y="171.7529">flake-parts</text><text fill="#000000" font-family="sans-serif" font-size="14" lengthAdjust="spacing" textLength="13.3506" x="870.1631" y="171.7529">&#160;&#160;&#160;</text><line style="stroke:#000000;stroke-width:1;" x1="865.1631" x2="865.1631" y1="156.7578" y2="177.0547"/><line style="stroke:#000000;stroke-width:1;" x1="704" x2="888.5137" y1="177.0547" y2="177.0547"/><text fill="#000000" font-family="sans-serif" font-size="14" font-weight="bold" lengthAdjust="spacing" textLength="103.7764" x="709" y="192.0498">git-hooks-nix</text><text fill="#000000" font-family="sans-serif" font-size="14" lengthAdjust="spacing" textLength="13.3506" x="870.1631" y="192.0498">&#160;&#160;&#160;</text><line style="stroke:#000000;stroke-width:1;" x1="865.1631" x2="865.1631" y1="177.0547" y2="197.3516"/><line style="stroke:#000000;stroke-width:1;" x1="704" x2="888.5137" y1="197.3516" y2="197.3516"/><text fill="#000000" font-family="sans-serif" font-size="14" font-weight="bold" lengthAdjust="spacing" textLength="50.873" x="709" y="212.3467">libgit2</text><text fill="#000000" font-family="sans-serif" font-size="14" lengthAdjust="spacing" textLength="13.3506" x="870.1631" y="212.3467">&#160;&#160;&#160;</text><line style="stroke:#000000;stroke-width:1;" x1="865.1631" x2="865.1631" y1="197.3516" y2="217.6484"/><line style="stroke:#000000;stroke-width:1;" x1="704" x2="888.5137" y1="217.6484" y2="217.6484"/><text fill="#000000" font-family="sans-serif" font-size="14" font-weight="bold" lengthAdjust="spacing" textLength="61.4824" x="709" y="232.6436">nixpkgs</text><text fill="#000000" font-family="sans-serif" font-size="14" lengthAdjust="spacing" textLength="13.3506" x="870.1631" y="232.6436">&#160;&#160;&#160;</text><line style="stroke:#000000;stroke-width:1;" x1="865.1631" x2="865.1631" y1="217.6484" y2="237.9453"/><line style="stroke:#000000;stroke-width:1;" x1="704" x2="888.5137" y1="237.9453" y2="237.9453"/><text fill="#000000" font-family="sans-serif" font-size="14" font-weight="bold" lengthAdjust="spacing" textLength="112.0684" x="709" y="252.9404">nixpkgs-23-11</text><text fill="#000000" font-family="sans-serif" font-size="14" lengthAdjust="spacing" textLength="13.3506" x="870.1631" y="252.9404">&#160;&#160;&#160;</text><line style="stroke:#000000;stroke-width:1;" x1="865.1631" x2="865.1631" y1="237.9453" y2="258.2422"/><line style="stroke:#000000;stroke-width:1;" x1="704" x2="888.5137" y1="258.2422" y2="258.2422"/><text fill="#000000" font-family="sans-serif" font-size="14" font-weight="bold" lengthAdjust="spacing" textLength="151.1631" x="709" y="273.2373">nixpkgs-regression</text><text fill="#000000" font-family="sans-serif" font-size="14" lengthAdjust="spacing" textLength="13.3506" x="870.1631" y="273.2373">&#160;&#160;&#160;</text><line style="stroke:#000000;stroke-width:1;" x1="865.1631" x2="865.1631" y1="258.2422" y2="278.5391"/><rect fill="none" height="142.0781" rx="5" ry="5" style="stroke:#000000;stroke-width:1.5;" width="184.5137" x="704" y="136.4609"/><rect fill="#F1F1F1" height="40.5938" rx="5" ry="5" style="stroke:#F1F1F1;stroke-width:1.5;" width="262.9287" x="927.5" y="10"/><text fill="#000000" font-family="sans-serif" font-size="14" font-weight="bold" lengthAdjust="spacing" textLength="49.7793" x="932.5" y="24.9951">inputs</text><text fill="#000000" font-family="sans-serif" font-size="14" lengthAdjust="spacing" textLength="13.3506" x="992.2793" y="24.9951">&#160;&#160;&#160;</text><line style="stroke:#000000;stroke-width:1;" x1="987.2793" x2="987.2793" y1="10" y2="30.2969"/><line style="stroke:#000000;stroke-width:1;" x1="927.5" x2="1190.4287" y1="30.2969" y2="30.2969"/><text fill="#000000" font-family="sans-serif" font-size="14" font-weight="bold" lengthAdjust="spacing" textLength="36.1279" x="932.5" y="45.292">path</text><text fill="#000000" font-family="sans-serif" font-size="14" lengthAdjust="spacing" textLength="193.1494" x="992.2793" y="45.292">/nix/store/8kp...-1bv-source</text><line style="stroke:#000000;stroke-width:1;" x1="987.2793" x2="987.2793" y1="30.2969" y2="50.5938"/><rect fill="none" height="40.5938" rx="5" ry="5" style="stroke:#000000;stroke-width:1.5;" width="262.9287" x="927.5" y="10"/><rect fill="#F1F1F1" height="15" rx="5" ry="5" style="stroke:#F1F1F1;stroke-width:1.5;" width="30" x="1229" y="13"/><rect fill="none" height="15" rx="5" ry="5" style="stroke:#000000;stroke-width:1.5;" width="30" x="1229" y="13"/><rect fill="#F1F1F1" height="40.5938" rx="5" ry="5" style="stroke:#F1F1F1;stroke-width:1.5;" width="263.7354" x="927" y="69"/><text fill="#000000" font-family="sans-serif" font-size="14" font-weight="bold" lengthAdjust="spacing" textLength="49.7793" x="932" y="83.9951">inputs</text><text fill="#000000" font-family="sans-serif" font-size="14" lengthAdjust="spacing" textLength="13.3506" x="991.7793" y="83.9951">&#160;&#160;&#160;</text><line style="stroke:#000000;stroke-width:1;" x1="986.7793" x2="986.7793" y1="69" y2="89.2969"/><line style="stroke:#000000;stroke-width:1;" x1="927" x2="1190.7354" y1="89.2969" y2="89.2969"/><text fill="#000000" font-family="sans-serif" font-size="14" font-weight="bold" lengthAdjust="spacing" textLength="36.1279" x="932" y="104.292">path</text><text fill="#000000" font-family="sans-serif" font-size="14" lengthAdjust="spacing" textLength="193.9561" x="991.7793" y="104.292">/nix/store/6n8...-58y-source</text><line style="stroke:#000000;stroke-width:1;" x1="986.7793" x2="986.7793" y1="89.2969" y2="109.5938"/><rect fill="none" height="40.5938" rx="5" ry="5" style="stroke:#000000;stroke-width:1.5;" width="263.7354" x="927" y="69"/><rect fill="#F1F1F1" height="15" rx="5" ry="5" style="stroke:#F1F1F1;stroke-width:1.5;" width="30" x="1229" y="72"/><rect fill="none" height="15" rx="5" ry="5" style="stroke:#000000;stroke-width:1.5;" width="30" x="1229" y="72"/><rect fill="#F1F1F1" height="40.5938" rx="5" ry="5" style="stroke:#F1F1F1;stroke-width:1.5;" width="263.7285" x="927" y="128"/><text fill="#000000" font-family="sans-serif" font-size="14" font-weight="bold" lengthAdjust="spacing" textLength="49.7793" x="932" y="142.9951">inputs</text><text fill="#000000" font-family="sans-serif" font-size="14" lengthAdjust="spacing" textLength="13.3506" x="991.7793" y="142.9951">&#160;&#160;&#160;</text><line style="stroke:#000000;stroke-width:1;" x1="986.7793" x2="986.7793" y1="128" y2="148.2969"/><line style="stroke:#000000;stroke-width:1;" x1="927" x2="1190.7285" y1="148.2969" y2="148.2969"/><text fill="#000000" font-family="sans-serif" font-size="14" font-weight="bold" lengthAdjust="spacing" textLength="36.1279" x="932" y="163.292">path</text><text fill="#000000" font-family="sans-serif" font-size="14" lengthAdjust="spacing" textLength="193.9492" x="991.7793" y="163.292">/nix/store/xq5...-2g5-source</text><line style="stroke:#000000;stroke-width:1;" x1="986.7793" x2="986.7793" y1="148.2969" y2="168.5938"/><rect fill="none" height="40.5938" rx="5" ry="5" style="stroke:#000000;stroke-width:1.5;" width="263.7285" x="927" y="128"/><rect fill="#F1F1F1" height="15" rx="5" ry="5" style="stroke:#F1F1F1;stroke-width:1.5;" width="30" x="1229" y="131"/><rect fill="none" height="15" rx="5" ry="5" style="stroke:#000000;stroke-width:1.5;" width="30" x="1229" y="131"/><rect fill="#F1F1F1" height="40.5938" rx="5" ry="5" style="stroke:#F1F1F1;stroke-width:1.5;" width="259.7021" x="929" y="187"/><text fill="#000000" font-family="sans-serif" font-size="14" font-weight="bold" lengthAdjust="spacing" textLength="49.7793" x="934" y="201.9951">inputs</text><text fill="#000000" font-family="sans-serif" font-size="14" lengthAdjust="spacing" textLength="13.3506" x="993.7793" y="201.9951">&#160;&#160;&#160;</text><line style="stroke:#000000;stroke-width:1;" x1="988.7793" x2="988.7793" y1="187" y2="207.2969"/><line style="stroke:#000000;stroke-width:1;" x1="929" x2="1188.7021" y1="207.2969" y2="207.2969"/><text fill="#000000" font-family="sans-serif" font-size="14" font-weight="bold" lengthAdjust="spacing" textLength="36.1279" x="934" y="222.292">path</text><text fill="#000000" font-family="sans-serif" font-size="14" lengthAdjust="spacing" textLength="189.9229" x="993.7793" y="222.292">/nix/store/fxn...-g8n-source</text><line style="stroke:#000000;stroke-width:1;" x1="988.7793" x2="988.7793" y1="207.2969" y2="227.5938"/><rect fill="none" height="40.5938" rx="5" ry="5" style="stroke:#000000;stroke-width:1.5;" width="259.7021" x="929" y="187"/><rect fill="#F1F1F1" height="15" rx="5" ry="5" style="stroke:#F1F1F1;stroke-width:1.5;" width="30" x="1229" y="190"/><rect fill="none" height="15" rx="5" ry="5" style="stroke:#000000;stroke-width:1.5;" width="30" x="1229" y="190"/><rect fill="#F1F1F1" height="40.5938" rx="5" ry="5" style="stroke:#F1F1F1;stroke-width:1.5;" width="259.3193" x="929.5" y="246"/><text fill="#000000" font-family="sans-serif" font-size="14" font-weight="bold" lengthAdjust="spacing" textLength="49.7793" x="934.5" y="260.9951">inputs</text><text fill="#000000" font-family="sans-serif" font-size="14" lengthAdjust="spacing" textLength="13.3506" x="994.2793" y="260.9951">&#160;&#160;&#160;</text><line style="stroke:#000000;stroke-width:1;" x1="989.2793" x2="989.2793" y1="246" y2="266.2969"/><line style="stroke:#000000;stroke-width:1;" x1="929.5" x2="1188.8193" y1="266.2969" y2="266.2969"/><text fill="#000000" font-family="sans-serif" font-size="14" font-weight="bold" lengthAdjust="spacing" textLength="36.1279" x="934.5" y="281.292">path</text><text fill="#000000" font-family="sans-serif" font-size="14" lengthAdjust="spacing" textLength="189.54" x="994.2793" y="281.292">/nix/store/7sp...-mri-source</text><line style="stroke:#000000;stroke-width:1;" x1="989.2793" x2="989.2793" y1="266.2969" y2="286.5938"/><rect fill="none" height="40.5938" rx="5" ry="5" style="stroke:#000000;stroke-width:1.5;" width="259.3193" x="929.5" y="246"/><rect fill="#F1F1F1" height="15" rx="5" ry="5" style="stroke:#F1F1F1;stroke-width:1.5;" width="30" x="1229" y="249"/><rect fill="none" height="15" rx="5" ry="5" style="stroke:#000000;stroke-width:1.5;" width="30" x="1229" y="249"/><rect fill="#F1F1F1" height="40.5938" rx="5" ry="5" style="stroke:#F1F1F1;stroke-width:1.5;" width="264.1934" x="927" y="305"/><text fill="#000000" font-family="sans-serif" font-size="14" font-weight="bold" lengthAdjust="spacing" textLength="49.7793" x="932" y="319.9951">inputs</text><text fill="#000000" font-family="sans-serif" font-size="14" lengthAdjust="spacing" textLength="13.3506" x="991.7793" y="319.9951">&#160;&#160;&#160;</text><line style="stroke:#000000;stroke-width:1;" x1="986.7793" x2="986.7793" y1="305" y2="325.2969"/><line style="stroke:#000000;stroke-width:1;" x1="927" x2="1191.1934" y1="325.2969" y2="325.2969"/><text fill="#000000" font-family="sans-serif" font-size="14" font-weight="bold" lengthAdjust="spacing" textLength="36.1279" x="932" y="340.292">path</text><text fill="#000000" font-family="sans-serif" font-size="14" lengthAdjust="spacing" textLength="194.4141" x="991.7793" y="340.292">/nix/store/2mx...-af7-source</text><line style="stroke:#000000;stroke-width:1;" x1="986.7793" x2="986.7793" y1="325.2969" y2="345.5938"/><rect fill="none" height="40.5938" rx="5" ry="5" style="stroke:#000000;stroke-width:1.5;" width="264.1934" x="927" y="305"/><rect fill="#F1F1F1" height="15" rx="5" ry="5" style="stroke:#F1F1F1;stroke-width:1.5;" width="30" x="1229" y="308"/><rect fill="none" height="15" rx="5" ry="5" style="stroke:#000000;stroke-width:1.5;" width="30" x="1229" y="308"/><rect fill="#F1F1F1" height="40.5938" rx="5" ry="5" style="stroke:#F1F1F1;stroke-width:1.5;" width="266.2305" x="926" y="364"/><text fill="#000000" font-family="sans-serif" font-size="14" font-weight="bold" lengthAdjust="spacing" textLength="49.7793" x="931" y="378.9951">inputs</text><text fill="#000000" font-family="sans-serif" font-size="14" lengthAdjust="spacing" textLength="13.3506" x="990.7793" y="378.9951">&#160;&#160;&#160;</text><line style="stroke:#000000;stroke-width:1;" x1="985.7793" x2="985.7793" y1="364" y2="384.2969"/><line style="stroke:#000000;stroke-width:1;" x1="926" x2="1192.2305" y1="384.2969" y2="384.2969"/><text fill="#000000" font-family="sans-serif" font-size="14" font-weight="bold" lengthAdjust="spacing" textLength="36.1279" x="931" y="399.292">path</text><text fill="#000000" font-family="sans-serif" font-size="14" lengthAdjust="spacing" textLength="196.4512" x="990.7793" y="399.292">/nix/store/8sm...-xyh-source</text><line style="stroke:#000000;stroke-width:1;" x1="985.7793" x2="985.7793" y1="384.2969" y2="404.5938"/><rect fill="none" height="40.5938" rx="5" ry="5" style="stroke:#000000;stroke-width:1.5;" width="266.2305" x="926" y="364"/><rect fill="#F1F1F1" height="15" rx="5" ry="5" style="stroke:#F1F1F1;stroke-width:1.5;" width="30" x="1229" y="367"/><rect fill="none" height="15" rx="5" ry="5" style="stroke:#000000;stroke-width:1.5;" width="30" x="1229" y="367"/><path d="M1178.5,20.5 L1191.5,20.5 C1201.6831,20.5 1213.1624,20.5 1221.9781,20.5" fill="none" style="stroke:#000000;stroke-width:1;stroke-dasharray:3,3;"/><path d="M1221.9781,23.5027 L1224.2301,20.5 L1221.9781,17.4973 L1229.4849,20.5 L1221.9781,23.5027" fill="#000000"/><ellipse cx="1178.5" cy="20.5" fill="#000000" rx="3" ry="3" style="stroke:#000000;stroke-width:1;"/><path d="M877,146.5 L890,146.5 C931.8463,146.5 893.9125,86.3608 926,59.5 C927.7351,58.0475 929.5267,56.6632 931.368,55.344" fill="none" style="stroke:#000000;stroke-width:1;stroke-dasharray:3,3;"/><path d="M933.0635,57.921 L933.3007,54.0724 L929.6724,52.7671 L937.8103,51.1052 L933.0635,57.921" fill="#000000"/><ellipse cx="877" cy="146.5" fill="#000000" rx="3" ry="3" style="stroke:#000000;stroke-width:1;"/><path d="M1179.5,79.5 L1192.5,79.5 C1202.2396,79.5 1213.1919,79.5 1221.733,79.5" fill="none" style="stroke:#000000;stroke-width:1;stroke-dasharray:3,3;"/><path d="M1221.733,82.5413 L1224.0139,79.5 L1221.733,76.4587 L1229.3361,79.5 L1221.733,82.5413" fill="#000000"/><ellipse cx="1179.5" cy="79.5" fill="#000000" rx="3" ry="3" style="stroke:#000000;stroke-width:1;"/><path d="M877,166.5 L890,166.5 C916.6667,166.5 903.5692,132.9212 926,118.5 C928.7297,116.745 931.5495,115.0949 934.4418,113.5435" fill="none" style="stroke:#000000;stroke-width:1;stroke-dasharray:3,3;"/><path d="M935.8193,116.2923 L936.5034,112.5104 L933.0643,110.7948 L941.3137,110.0999 L935.8193,116.2923" fill="#000000"/><ellipse cx="877" cy="166.5" fill="#000000" rx="3" ry="3" style="stroke:#000000;stroke-width:1;"/><path d="M1179.5,138.5 L1192.5,138.5 C1202.2396,138.5 1213.1919,138.5 1221.733,138.5" fill="none" style="stroke:#000000;stroke-width:1;stroke-dasharray:3,3;"/><path d="M1221.733,141.5413 L1224.0139,138.5 L1221.733,135.4587 L1229.3361,138.5 L1221.733,141.5413" fill="#000000"/><ellipse cx="1179.5" cy="138.5" fill="#000000" rx="3" ry="3" style="stroke:#000000;stroke-width:1;"/><path d="M877,187.5 L890,187.5 C906.6058,187.5 909.8829,181.499 926,177.5 C935.1973,175.218 944.7773,172.9368 954.3922,170.7125" fill="none" style="stroke:#000000;stroke-width:1;stroke-dasharray:3,3;"/><path d="M955.0678,173.654 L956.5983,170.2059 L953.7167,167.7711 L961.7459,169.0237 L955.0678,173.654" fill="#000000"/><ellipse cx="877" cy="187.5" fill="#000000" rx="3" ry="3" style="stroke:#000000;stroke-width:1;"/><path d="M1177.5,197.5 L1190.5,197.5 C1200.9094,197.5 1212.6438,197.5 1221.6554,197.5" fill="none" style="stroke:#000000;stroke-width:1;stroke-dasharray:3,3;"/><path d="M1221.6554,200.5694 L1223.9575,197.5 L1221.6554,194.4306 L1229.329,197.5 L1221.6554,200.5694" fill="#000000"/><ellipse cx="1177.5" cy="197.5" fill="#000000" rx="3" ry="3" style="stroke:#000000;stroke-width:1;"/><path d="M877,207.5 L890,207.5 C900.2399,207.5 910.8298,207.5 921.4825,207.5" fill="none" style="stroke:#000000;stroke-width:1;stroke-dasharray:3,3;"/><path d="M921.4825,210.6055 L923.8117,207.5 L921.4825,204.3945 L929.2464,207.5 L921.4825,210.6055" fill="#000000"/><ellipse cx="877" cy="207.5" fill="#000000" rx="3" ry="3" style="stroke:#000000;stroke-width:1;"/><path d="M1176.5,256.5 L1189.5,256.5 C1200.3703,256.5 1212.6547,256.5 1221.9379,256.5" fill="none" style="stroke:#000000;stroke-width:1;stroke-dasharray:3,3;"/><path d="M1221.9379,259.5219 L1224.2043,256.5 L1221.9379,253.4781 L1229.4927,256.5 L1221.9379,259.5219" fill="#000000"/><ellipse cx="1176.5" cy="256.5" fill="#000000" rx="3" ry="3" style="stroke:#000000;stroke-width:1;"/><path d="M877,227.5 L890,227.5 C906.4924,227.5 909.9564,232.6788 926,236.5 C936.7281,239.0552 947.9575,241.6778 959.1471,244.2579" fill="none" style="stroke:#000000;stroke-width:1;stroke-dasharray:3,3;"/><path d="M958.4718,247.1946 L961.3497,244.7644 L959.8224,241.3212 L966.4889,245.9461 L958.4718,247.1946" fill="#000000"/><ellipse cx="877" cy="227.5" fill="#000000" rx="3" ry="3" style="stroke:#000000;stroke-width:1;"/><path d="M1178.5,315.5 L1191.5,315.5 C1201.6831,315.5 1213.1624,315.5 1221.9781,315.5" fill="none" style="stroke:#000000;stroke-width:1;stroke-dasharray:3,3;"/><path d="M1221.9781,318.5027 L1224.2301,315.5 L1221.9781,312.4973 L1229.4849,315.5 L1221.9781,318.5027" fill="#000000"/><ellipse cx="1178.5" cy="315.5" fill="#000000" rx="3" ry="3" style="stroke:#000000;stroke-width:1;"/><path d="M877,248.5 L890,248.5 C916.6667,248.5 903.5692,282.0788 926,296.5 C928.7297,298.255 931.5495,299.9051 934.4418,301.4565" fill="none" style="stroke:#000000;stroke-width:1;stroke-dasharray:3,3;"/><path d="M933.0643,304.2052 L936.5034,302.4896 L935.8193,298.7077 L941.3137,304.9001 L933.0643,304.2052" fill="#000000"/><ellipse cx="877" cy="248.5" fill="#000000" rx="3" ry="3" style="stroke:#000000;stroke-width:1;"/><path d="M1179.5,374.5 L1192.5,374.5 C1202.2396,374.5 1213.1919,374.5 1221.733,374.5" fill="none" style="stroke:#000000;stroke-width:1;stroke-dasharray:3,3;"/><path d="M1221.733,377.5413 L1224.0139,374.5 L1221.733,371.4587 L1229.3361,374.5 L1221.733,377.5413" fill="#000000"/><ellipse cx="1179.5" cy="374.5" fill="#000000" rx="3" ry="3" style="stroke:#000000;stroke-width:1;"/><path d="M877,268.5 L890,268.5 C931.8463,268.5 893.9125,328.6392 926,355.5 C927.7351,356.9525 929.5267,358.3368 931.368,359.656" fill="none" style="stroke:#000000;stroke-width:1;stroke-dasharray:3,3;"/><path d="M929.6724,362.2329 L933.3007,360.9276 L933.0635,357.079 L937.8103,363.8948 L929.6724,362.2329" fill="#000000"/><ellipse cx="877" cy="268.5" fill="#000000" rx="3" ry="3" style="stroke:#000000;stroke-width:1;"/><path d="M654.5,207.5 L667.5,207.5 C677.011,207.5 686.9179,207.5 696.8252,207.5" fill="none" style="stroke:#000000;stroke-width:1;stroke-dasharray:3,3;"/><path d="M696.8252,210.5279 L699.0961,207.5 L696.8252,204.4721 L704.3948,207.5 L696.8252,210.5279" fill="#000000"/><ellipse cx="654.5" cy="207.5" fill="#000000" rx="3" ry="3" style="stroke:#000000;stroke-width:1;"/><path d="M356,217.5 L369,217.5 C378.2376,217.5 387.7634,217.5 397.3617,217.5" fill="none" style="stroke:#000000;stroke-width:1;stroke-dasharray:3,3;"/><path d="M397.3617,220.5836 L399.6744,217.5 L397.3617,214.4164 L405.0707,217.5 L397.3617,220.5836" fill="#000000"/><ellipse cx="356" cy="217.5" fill="#000000" rx="3" ry="3" style="stroke:#000000;stroke-width:1;"/><path d="M261.5,217.5 L274.5,217.5 C283.9482,217.5 294.175,217.5 303.6407,217.5" fill="none" style="stroke:#000000;stroke-width:1;stroke-dasharray:3,3;"/><path d="M303.6407,220.5954 L305.9623,217.5 L303.6407,214.4046 L311.3791,217.5 L303.6407,220.5954" fill="#000000"/><ellipse cx="261.5" cy="217.5" fill="#000000" rx="3" ry="3" style="stroke:#000000;stroke-width:1;"/><!--SRC=[fPDRJy8m583V-ojEUDB43ZQTp3qHHKqG8X7blK0P5NOwscuPCVvtswaeQWXcZ-VodQ_NZZPCcMSjaRmGW8R0B3Uw4OEBR8oYt0Q_orLklc9BJgSopPZPgUpqlvvypzlMXSqscdP-KnkfU3DQPfxdKNzIK2rpDUMDBV2D_R1bTj6wXkmS8oSBeyrUMI8CNKYvr7Jt7FwhAzUXqmL9k5Ut4XDh36g8vYKwKHBXNf45icLIvm3RkhgjL8b3H3GufRvVGnUafTEnUViWdUA9ubeBYNKUf4wTizmiVZl93_TVF1Q-uzSwsk4TMt5_CQt9ele4_dhBl1BIuJYhlYWPhXYQfq4V2gxSzi3tWbOGUcT78sQWboC44RJQSUiY3aAuxZw2An-JezjX7zudmaneeyGaDvO_9ZrMC7Z8qOYKnt2VSUnrxpuJS8s5K19JZeRqneElXlCpUYaCZBYoAu7nW7JvdEKhOucfd0bCOdXwlA4HwJDCSfROsHp9bRHprSRMHcy0]--></g></svg>