<?xml version="1.0" encoding="UTF-8" standalone="no"?>
<!DOCTYPE svg PUBLIC "-//W3C//DTD SVG 1.1//EN"
 "http://www.w3.org/Graphics/SVG/1.1/DTD/svg11.dtd">
<!-- Generated by graphviz version 12.2.1 (0)
 -->
<!-- Title: systemd Pages: 1 -->
<svg width="899pt" height="548pt"
 viewBox="0.00 0.00 898.95 548.00" xmlns="http://www.w3.org/2000/svg" xmlns:xlink="http://www.w3.org/1999/xlink">
<g id="graph0" class="graph" transform="scale(1 1) rotate(0) translate(4 544)">
<title>systemd</title>
<polygon fill="white" stroke="none" points="-4,4 -4,-544 894.95,-544 894.95,4 -4,4"/>
<!-- xdg&#45;desktop&#45;autostart.target -->
<g id="node1" class="node">
<title>xdg&#45;desktop&#45;autostart.target</title>
<ellipse fill="none" stroke="black" cx="631.86" cy="-522" rx="155.9" ry="18"/>
<text text-anchor="middle" x="631.86" y="-517.33" font-family="Times,serif" font-size="14.00">xdg&#45;desktop&#45;autostart.target</text>
</g>
<!-- wayland&#45;session&#45;xdg&#45;autostart@Hyprland.target -->
<g id="node2" class="node">
<title>wayland&#45;session&#45;xdg&#45;autostart@Hyprland.target</title>
<ellipse fill="none" stroke="black" cx="631.86" cy="-450" rx="254.81" ry="18"/>
<text text-anchor="middle" x="631.86" y="-445.32" font-family="Times,serif" font-size="14.00">wayland&#45;session&#45;xdg&#45;autostart@Hyprland.target</text>
</g>
<!-- xdg&#45;desktop&#45;autostart.target&#45;&gt;wayland&#45;session&#45;xdg&#45;autostart@Hyprland.target -->
<g id="edge1" class="edge">
<title>xdg&#45;desktop&#45;autostart.target&#45;&gt;wayland&#45;session&#45;xdg&#45;autostart@Hyprland.target</title>
<path fill="none" stroke="green" d="M625.94,-503.7C625.19,-496.41 624.94,-487.73 625.21,-479.54"/>
<polygon fill="green" stroke="green" points="628.7,-479.82 625.86,-469.61 621.71,-479.36 628.7,-479.82"/>
</g>
<!-- wayland&#45;session&#45;xdg&#45;autostart@Hyprland.target&#45;&gt;xdg&#45;desktop&#45;autostart.target -->
<g id="edge16" class="edge">
<title>wayland&#45;session&#45;xdg&#45;autostart@Hyprland.target&#45;&gt;xdg&#45;desktop&#45;autostart.target</title>
<path fill="none" stroke="gold" d="M637.75,-468.1C638.51,-475.37 638.76,-484.04 638.51,-492.24"/>
<polygon fill="gold" stroke="gold" points="635.02,-491.98 637.87,-502.19 642,-492.43 635.02,-491.98"/>
</g>
<!-- graphical&#45;session.target -->
<g id="node3" class="node">
<title>graphical&#45;session.target</title>
<ellipse fill="none" stroke="black" cx="313.86" cy="-306" rx="132.23" ry="18"/>
<text text-anchor="middle" x="313.86" y="-301.32" font-family="Times,serif" font-size="14.00">graphical&#45;session.target</text>
</g>
<!-- wayland&#45;session&#45;xdg&#45;autostart@Hyprland.target&#45;&gt;graphical&#45;session.target -->
<g id="edge14" class="edge">
<title>wayland&#45;session&#45;xdg&#45;autostart@Hyprland.target&#45;&gt;graphical&#45;session.target</title>
<path fill="none" stroke="green" d="M547.39,-432.6C512.77,-424.16 472.91,-412.17 438.86,-396 402.79,-378.87 366.12,-351.3 341.91,-331.38"/>
<polygon fill="green" stroke="green" points="344.34,-328.86 334.42,-325.13 339.85,-334.23 344.34,-328.86"/>
</g>
<!-- wayland&#45;session@Hyprland.target -->
<g id="node5" class="node">
<title>wayland&#45;session@Hyprland.target</title>
<ellipse fill="none" stroke="black" cx="631.86" cy="-378" rx="183.79" ry="18"/>
<text text-anchor="middle" x="631.86" y="-373.32" font-family="Times,serif" font-size="14.00">wayland&#45;session@Hyprland.target</text>
</g>
<!-- wayland&#45;session&#45;xdg&#45;autostart@Hyprland.target&#45;&gt;wayland&#45;session@Hyprland.target -->
<g id="edge15" class="edge">
<title>wayland&#45;session&#45;xdg&#45;autostart@Hyprland.target&#45;&gt;wayland&#45;session@Hyprland.target</title>
<path fill="none" stroke="green" d="M625.94,-431.7C625.19,-424.41 624.94,-415.73 625.21,-407.54"/>
<polygon fill="green" stroke="green" points="628.7,-407.82 625.86,-397.61 621.71,-407.36 628.7,-407.82"/>
</g>
<!-- graphical&#45;session&#45;pre.target -->
<g id="node4" class="node">
<title>graphical&#45;session&#45;pre.target</title>
<ellipse fill="none" stroke="black" cx="667.86" cy="-234" rx="152.22" ry="18"/>
<text text-anchor="middle" x="667.86" y="-229.32" font-family="Times,serif" font-size="14.00">graphical&#45;session&#45;pre.target</text>
</g>
<!-- graphical&#45;session.target&#45;&gt;graphical&#45;session&#45;pre.target -->
<g id="edge2" class="edge">
<title>graphical&#45;session.target&#45;&gt;graphical&#45;session&#45;pre.target</title>
<path fill="none" stroke="green" d="M386.78,-290.58C443.06,-279.45 521.12,-264.02 580.7,-252.23"/>
<polygon fill="green" stroke="green" points="581.36,-255.67 590.49,-250.3 580,-248.8 581.36,-255.67"/>
</g>
<!-- graphical&#45;session.target&#45;&gt;wayland&#45;session@Hyprland.target -->
<g id="edge3" class="edge">
<title>graphical&#45;session.target&#45;&gt;wayland&#45;session@Hyprland.target</title>
<path fill="none" stroke="green" d="M385.41,-321.52C435.32,-332.2 501.85,-346.82 553.24,-358.36"/>
<polygon fill="green" stroke="green" points="552.29,-361.74 562.81,-360.52 553.83,-354.91 552.29,-361.74"/>
</g>
<!-- basic.target -->
<g id="node6" class="node">
<title>basic.target</title>
<ellipse fill="none" stroke="black" cx="482.86" cy="-90" rx="71.2" ry="18"/>
<text text-anchor="middle" x="482.86" y="-85.33" font-family="Times,serif" font-size="14.00">basic.target</text>
</g>
<!-- graphical&#45;session.target&#45;&gt;basic.target -->
<g id="edge4" class="edge">
<title>graphical&#45;session.target&#45;&gt;basic.target</title>
<path fill="none" stroke="green" d="M345.13,-288.1C411.66,-255.16 560.62,-185.16 563.86,-180 572.36,-166.45 571.8,-157.89 563.86,-144 555.82,-129.94 542.43,-119.24 528.79,-111.26"/>
<polygon fill="green" stroke="green" points="530.68,-108.31 520.22,-106.65 527.37,-114.47 530.68,-108.31"/>
</g>
<!-- graphical&#45;session.target&#45;&gt;basic.target -->
<g id="edge5" class="edge">
<title>graphical&#45;session.target&#45;&gt;basic.target</title>
<path fill="none" stroke="black" d="M354.29,-288.47C428.51,-255.7 578.6,-185.18 581.86,-180 590.36,-166.45 589.8,-157.89 581.86,-144 572.84,-128.23 557.09,-116.68 540.72,-108.47"/>
<polygon fill="black" stroke="black" points="542.43,-105.4 531.88,-104.41 539.51,-111.76 542.43,-105.4"/>
</g>
<!-- hypridleSmartcard.service -->
<g id="node7" class="node">
<title>hypridleSmartcard.service</title>
<ellipse fill="none" stroke="black" cx="144.86" cy="-162" rx="144.86" ry="18"/>
<text text-anchor="middle" x="144.86" y="-157.32" font-family="Times,serif" font-size="14.00">hypridleSmartcard.service</text>
</g>
<!-- graphical&#45;session.target&#45;&gt;hypridleSmartcard.service -->
<g id="edge6" class="edge">
<title>graphical&#45;session.target&#45;&gt;hypridleSmartcard.service</title>
<path fill="none" stroke="#a8a8a8" d="M265.67,-288.88C245.15,-279.82 221.94,-267.26 203.86,-252 183.01,-234.41 164.6,-209.38 153.68,-190.34"/>
<polygon fill="#a8a8a8" stroke="#a8a8a8" points="156.79,-188.73 149.01,-181.54 150.61,-192.01 156.79,-188.73"/>
</g>
<!-- hypridle.service -->
<g id="node8" class="node">
<title>hypridle.service</title>
<ellipse fill="none" stroke="black" cx="313.86" cy="-234" rx="91.72" ry="18"/>
<text text-anchor="middle" x="313.86" y="-229.32" font-family="Times,serif" font-size="14.00">hypridle.service</text>
</g>
<!-- graphical&#45;session.target&#45;&gt;hypridle.service -->
<g id="edge7" class="edge">
<title>graphical&#45;session.target&#45;&gt;hypridle.service</title>
<path fill="none" stroke="#a8a8a8" d="M307.94,-287.7C307.19,-280.41 306.94,-271.73 307.21,-263.54"/>
<polygon fill="#a8a8a8" stroke="#a8a8a8" points="310.7,-263.82 307.86,-253.61 303.71,-263.36 310.7,-263.82"/>
</g>
<!-- graphical&#45;session&#45;pre.target&#45;&gt;basic.target -->
<g id="edge17" class="edge">
<title>graphical&#45;session&#45;pre.target&#45;&gt;basic.target</title>
<path fill="none" stroke="green" d="M656.99,-215.57C648.57,-195.69 636.33,-163.43 614.86,-144 595.18,-126.2 568.96,-114.18 545.02,-106.16"/>
<polygon fill="green" stroke="green" points="546.25,-102.88 535.66,-103.2 544.14,-109.55 546.25,-102.88"/>
</g>
<!-- graphical&#45;session&#45;pre.target&#45;&gt;basic.target -->
<g id="edge19" class="edge">
<title>graphical&#45;session&#45;pre.target&#45;&gt;basic.target</title>
<path fill="none" stroke="black" d="M669.9,-215.57C666.57,-195.69 654.33,-163.43 632.86,-144 610.77,-124.02 580.44,-111.32 552.76,-103.39"/>
<polygon fill="black" stroke="black" points="553.94,-100.08 543.37,-100.87 552.12,-106.84 553.94,-100.08"/>
</g>
<!-- wayland&#45;session&#45;pre@Hyprland.target -->
<g id="node12" class="node">
<title>wayland&#45;session&#45;pre@Hyprland.target</title>
<ellipse fill="none" stroke="black" cx="667.86" cy="-306" rx="203.78" ry="18"/>
<text text-anchor="middle" x="667.86" y="-301.32" font-family="Times,serif" font-size="14.00">wayland&#45;session&#45;pre@Hyprland.target</text>
</g>
<!-- graphical&#45;session&#45;pre.target&#45;&gt;wayland&#45;session&#45;pre@Hyprland.target -->
<g id="edge18" class="edge">
<title>graphical&#45;session&#45;pre.target&#45;&gt;wayland&#45;session&#45;pre@Hyprland.target</title>
<path fill="none" stroke="green" d="M673.75,-252.1C674.51,-259.37 674.76,-268.04 674.51,-276.24"/>
<polygon fill="green" stroke="green" points="671.02,-275.98 673.87,-286.19 678,-276.43 671.02,-275.98"/>
</g>
<!-- wayland&#45;session@Hyprland.target&#45;&gt;wayland&#45;session&#45;xdg&#45;autostart@Hyprland.target -->
<g id="edge32" class="edge">
<title>wayland&#45;session@Hyprland.target&#45;&gt;wayland&#45;session&#45;xdg&#45;autostart@Hyprland.target</title>
<path fill="none" stroke="#a8a8a8" d="M637.75,-396.1C638.51,-403.37 638.76,-412.04 638.51,-420.24"/>
<polygon fill="#a8a8a8" stroke="#a8a8a8" points="635.02,-419.98 637.87,-430.19 642,-420.43 635.02,-419.98"/>
</g>
<!-- wayland&#45;session@Hyprland.target&#45;&gt;graphical&#45;session.target -->
<g id="edge31" class="edge">
<title>wayland&#45;session@Hyprland.target&#45;&gt;graphical&#45;session.target</title>
<path fill="none" stroke="gold" d="M554.75,-361.29C504.2,-350.44 438.5,-336 388.46,-324.73"/>
<polygon fill="gold" stroke="gold" points="389.39,-321.36 378.86,-322.57 387.85,-328.18 389.39,-321.36"/>
</g>
<!-- wayland&#45;session@Hyprland.target&#45;&gt;graphical&#45;session&#45;pre.target -->
<g id="edge28" class="edge">
<title>wayland&#45;session@Hyprland.target&#45;&gt;graphical&#45;session&#45;pre.target</title>
<path fill="none" stroke="green" d="M759.34,-364.66C812.09,-356.67 864.73,-343.92 880.86,-324 914.23,-282.78 856.17,-260.39 792.3,-248.38"/>
<polygon fill="green" stroke="green" points="793.12,-244.97 782.66,-246.66 791.89,-251.86 793.12,-244.97"/>
</g>
<!-- wayland&#45;session@Hyprland.target&#45;&gt;wayland&#45;session&#45;pre@Hyprland.target -->
<g id="edge29" class="edge">
<title>wayland&#45;session@Hyprland.target&#45;&gt;wayland&#45;session&#45;pre@Hyprland.target</title>
<path fill="none" stroke="green" d="M634.84,-359.7C638.05,-351.9 642.65,-342.51 647.47,-333.83"/>
<polygon fill="green" stroke="green" points="650.37,-335.81 652.4,-325.41 644.33,-332.27 650.37,-335.81"/>
</g>
<!-- wayland&#45;session@Hyprland.target&#45;&gt;wayland&#45;session&#45;pre@Hyprland.target -->
<g id="edge30" class="edge">
<title>wayland&#45;session@Hyprland.target&#45;&gt;wayland&#45;session&#45;pre@Hyprland.target</title>
<path fill="none" stroke="black" d="M646.67,-359.7C651.38,-352.07 656.32,-342.92 660.37,-334.4"/>
<polygon fill="black" stroke="black" points="663.47,-336.05 664.34,-325.49 657.07,-333.2 663.47,-336.05"/>
</g>
<!-- sockets.target -->
<g id="node9" class="node">
<title>sockets.target</title>
<ellipse fill="none" stroke="black" cx="303.86" cy="-18" rx="82.77" ry="18"/>
<text text-anchor="middle" x="303.86" y="-13.32" font-family="Times,serif" font-size="14.00">sockets.target</text>
</g>
<!-- basic.target&#45;&gt;sockets.target -->
<g id="edge8" class="edge">
<title>basic.target&#45;&gt;sockets.target</title>
<path fill="none" stroke="green" d="M441.54,-75C413.83,-64.71 377.45,-50.57 349,-39.07"/>
<polygon fill="green" stroke="green" points="350.5,-35.9 339.92,-35.38 347.87,-42.39 350.5,-35.9"/>
</g>
<!-- basic.target&#45;&gt;sockets.target -->
<g id="edge11" class="edge">
<title>basic.target&#45;&gt;sockets.target</title>
<path fill="none" stroke="#a8a8a8" d="M449.69,-73.81C423.88,-63.21 387.65,-49 357.72,-37.7"/>
<polygon fill="#a8a8a8" stroke="#a8a8a8" points="359.02,-34.45 348.43,-34.21 356.56,-41 359.02,-34.45"/>
</g>
<!-- timers.target -->
<g id="node10" class="node">
<title>timers.target</title>
<ellipse fill="none" stroke="black" cx="482.86" cy="-18" rx="78.04" ry="18"/>
<text text-anchor="middle" x="482.86" y="-13.32" font-family="Times,serif" font-size="14.00">timers.target</text>
</g>
<!-- basic.target&#45;&gt;timers.target -->
<g id="edge9" class="edge">
<title>basic.target&#45;&gt;timers.target</title>
<path fill="none" stroke="green" d="M476.94,-71.7C476.19,-64.41 475.94,-55.73 476.21,-47.54"/>
<polygon fill="green" stroke="green" points="479.7,-47.82 476.86,-37.61 472.71,-47.36 479.7,-47.82"/>
</g>
<!-- basic.target&#45;&gt;timers.target -->
<g id="edge12" class="edge">
<title>basic.target&#45;&gt;timers.target</title>
<path fill="none" stroke="#a8a8a8" d="M488.77,-71.7C489.52,-64.41 489.77,-55.73 489.5,-47.54"/>
<polygon fill="#a8a8a8" stroke="#a8a8a8" points="493,-47.36 488.85,-37.61 486.01,-47.82 493,-47.36"/>
</g>
<!-- paths.target -->
<g id="node11" class="node">
<title>paths.target</title>
<ellipse fill="none" stroke="black" cx="651.86" cy="-18" rx="73.3" ry="18"/>
<text text-anchor="middle" x="651.86" y="-13.32" font-family="Times,serif" font-size="14.00">paths.target</text>
</g>
<!-- basic.target&#45;&gt;paths.target -->
<g id="edge10" class="edge">
<title>basic.target&#45;&gt;paths.target</title>
<path fill="none" stroke="green" d="M514.64,-73.46C538.99,-62.86 572.94,-48.75 601.02,-37.55"/>
<polygon fill="green" stroke="green" points="602.05,-40.91 610.06,-33.98 599.47,-34.4 602.05,-40.91"/>
</g>
<!-- basic.target&#45;&gt;paths.target -->
<g id="edge13" class="edge">
<title>basic.target&#45;&gt;paths.target</title>
<path fill="none" stroke="#a8a8a8" d="M522.6,-74.83C548.71,-64.58 582.73,-50.58 609.36,-39.16"/>
<polygon fill="#a8a8a8" stroke="#a8a8a8" points="610.72,-42.38 618.52,-35.21 607.95,-35.96 610.72,-42.38"/>
</g>
<!-- hypridleSmartcard.service&#45;&gt;graphical&#45;session.target -->
<g id="edge36" class="edge">
<title>hypridleSmartcard.service&#45;&gt;graphical&#45;session.target</title>
<path fill="none" stroke="green" d="M161.3,-180.2C175.66,-199.57 197.04,-231.06 221.86,-252 236.52,-264.37 254.55,-274.97 270.81,-283.37"/>
<polygon fill="green" stroke="green" points="268.8,-286.27 279.31,-287.63 271.94,-280.02 268.8,-286.27"/>
</g>
<!-- hypridleSmartcard.service&#45;&gt;basic.target -->
<g id="edge34" class="edge">
<title>hypridleSmartcard.service&#45;&gt;basic.target</title>
<path fill="none" stroke="green" d="M212.92,-145.72C272.08,-133.16 357.19,-115.56 415.99,-103.74"/>
<polygon fill="green" stroke="green" points="416.42,-107.22 425.53,-101.83 415.04,-100.36 416.42,-107.22"/>
</g>
<!-- hypridleSmartcard.service&#45;&gt;basic.target -->
<g id="edge38" class="edge">
<title>hypridleSmartcard.service&#45;&gt;basic.target</title>
<path fill="none" stroke="black" d="M221.33,-146.33C281.36,-134.21 363.84,-117.12 420.05,-105.16"/>
<polygon fill="black" stroke="black" points="420.75,-108.58 429.8,-103.07 419.29,-101.74 420.75,-108.58"/>
</g>
<!-- hypridleSmartcard.service&#45;&gt;hypridle.service -->
<g id="edge37" class="edge">
<title>hypridleSmartcard.service&#45;&gt;hypridle.service</title>
<path fill="none" stroke="green" d="M190.55,-179.51C215.28,-189.31 245.61,-201.82 270.04,-212.27"/>
<polygon fill="green" stroke="green" points="268.5,-215.42 279.07,-216.17 271.27,-208.99 268.5,-215.42"/>
</g>
<!-- hypridleSmartcard.service&#45;&gt;hypridle.service -->
<g id="edge40" class="edge">
<title>hypridleSmartcard.service&#45;&gt;hypridle.service</title>
<path fill="none" stroke="red" d="M200.88,-179.03C227.36,-188.63 257.66,-200.97 280.63,-211.43"/>
<polygon fill="red" stroke="red" points="279.04,-214.54 289.58,-215.59 281.99,-208.2 279.04,-214.54"/>
</g>
<!-- smartcard.target -->
<g id="node13" class="node">
<title>smartcard.target</title>
<ellipse fill="none" stroke="black" cx="144.86" cy="-90" rx="96.98" ry="18"/>
<text text-anchor="middle" x="144.86" y="-85.33" font-family="Times,serif" font-size="14.00">smartcard.target</text>
</g>
<!-- hypridleSmartcard.service&#45;&gt;smartcard.target -->
<g id="edge35" class="edge">
<title>hypridleSmartcard.service&#45;&gt;smartcard.target</title>
<path fill="none" stroke="green" d="M138.94,-143.7C138.19,-136.41 137.94,-127.73 138.21,-119.54"/>
<polygon fill="green" stroke="green" points="141.7,-119.82 138.86,-109.61 134.71,-119.36 141.7,-119.82"/>
</g>
<!-- hypridleSmartcard.service&#45;&gt;smartcard.target -->
<g id="edge39" class="edge">
<title>hypridleSmartcard.service&#45;&gt;smartcard.target</title>
<path fill="none" stroke="black" d="M150.77,-143.7C151.52,-136.41 151.77,-127.73 151.5,-119.54"/>
<polygon fill="black" stroke="black" points="155,-119.36 150.85,-109.61 148.01,-119.82 155,-119.36"/>
</g>
<!-- hypridle.service&#45;&gt;graphical&#45;session.target -->
<g id="edge20" class="edge">
<title>hypridle.service&#45;&gt;graphical&#45;session.target</title>
<path fill="none" stroke="green" d="M319.75,-252.1C320.51,-259.37 320.76,-268.04 320.51,-276.24"/>
<polygon fill="green" stroke="green" points="317.02,-275.98 319.87,-286.19 324,-276.43 317.02,-275.98"/>
</g>
<!-- hypridle.service&#45;&gt;basic.target -->
<g id="edge22" class="edge">
<title>hypridle.service&#45;&gt;basic.target</title>
<path fill="none" stroke="green" d="M319.92,-215.81C332.02,-196.74 357.37,-165.79 383.86,-144 399.31,-131.29 418.16,-119.69 435.33,-110.6"/>
<polygon fill="green" stroke="green" points="436.55,-113.91 443.86,-106.24 433.36,-107.68 436.55,-113.91"/>
</g>
<!-- hypridle.service&#45;&gt;basic.target -->
<g id="edge23" class="edge">
<title>hypridle.service&#45;&gt;basic.target</title>
<path fill="none" stroke="black" d="M332.7,-216.16C349.71,-197.12 375.21,-165.92 401.86,-144 416.08,-132.3 433.18,-121.54 448.08,-112.82"/>
<polygon fill="black" stroke="black" points="449.74,-115.9 456.66,-107.87 446.25,-109.83 449.74,-115.9"/>
</g>
<!-- hypridle.service&#45;&gt;hypridleSmartcard.service -->
<g id="edge21" class="edge">
<title>hypridle.service&#45;&gt;hypridleSmartcard.service</title>
<path fill="none" stroke="green" d="M262.54,-218.67C235.27,-208.94 203.06,-195.91 178.79,-184.9"/>
<polygon fill="green" stroke="green" points="180.5,-181.83 169.95,-180.8 177.55,-188.18 180.5,-181.83"/>
</g>
<!-- hypridle.service&#45;&gt;hypridleSmartcard.service -->
<g id="edge24" class="edge">
<title>hypridle.service&#45;&gt;hypridleSmartcard.service</title>
<path fill="none" stroke="red" d="M271.07,-217.64C246.35,-207.88 215.34,-195.12 190.21,-184.38"/>
<polygon fill="red" stroke="red" points="191.79,-181.25 181.22,-180.52 189.02,-187.68 191.79,-181.25"/>
</g>
<!-- hypridle.service&#45;&gt;smartcard.target -->
<g id="edge25" class="edge">
<title>hypridle.service&#45;&gt;smartcard.target</title>
<path fill="none" stroke="red" d="M315.79,-215.8C317.02,-196.13 315.88,-164.08 298.86,-144 282.21,-124.37 257.93,-111.99 233.55,-104.2"/>
<polygon fill="red" stroke="red" points="234.78,-100.91 224.2,-101.46 232.81,-107.63 234.78,-100.91"/>
</g>
<!-- wayland&#45;session&#45;pre@Hyprland.target&#45;&gt;graphical&#45;session&#45;pre.target -->
<g id="edge33" class="edge">
<title>wayland&#45;session&#45;pre@Hyprland.target&#45;&gt;graphical&#45;session&#45;pre.target</title>
<path fill="none" stroke="gold" d="M661.94,-287.7C661.19,-280.41 660.94,-271.73 661.21,-263.54"/>
<polygon fill="gold" stroke="gold" points="664.7,-263.82 661.86,-253.61 657.71,-263.36 664.7,-263.82"/>
</g>
<!-- default.target -->
<g id="node14" class="node">
<title>default.target</title>
<ellipse fill="none" stroke="black" cx="482.86" cy="-162" rx="80.67" ry="18"/>
<text text-anchor="middle" x="482.86" y="-157.32" font-family="Times,serif" font-size="14.00">default.target</text>
</g>
<!-- default.target&#45;&gt;basic.target -->
<g id="edge26" class="edge">
<title>default.target&#45;&gt;basic.target</title>
<path fill="none" stroke="green" d="M476.94,-143.7C476.19,-136.41 475.94,-127.73 476.21,-119.54"/>
<polygon fill="green" stroke="green" points="479.7,-119.82 476.86,-109.61 472.71,-119.36 479.7,-119.82"/>
</g>
<!-- default.target&#45;&gt;basic.target -->
<g id="edge27" class="edge">
<title>default.target&#45;&gt;basic.target</title>
<path fill="none" stroke="black" d="M488.77,-143.7C489.52,-136.41 489.77,-127.73 489.5,-119.54"/>
<polygon fill="black" stroke="black" points="493,-119.36 488.85,-109.61 486.01,-119.82 493,-119.36"/>
</g>
</g>
</svg>
