<?xml version="1.0" encoding="UTF-8" standalone="no"?>
<!DOCTYPE svg PUBLIC "-//W3C//DTD SVG 1.1//EN"
 "http://www.w3.org/Graphics/SVG/1.1/DTD/svg11.dtd">
<!-- Generated by graphviz version 12.2.1 (0)
 -->
<!-- Title: systemd Pages: 1 -->
<svg width="1270pt" height="116pt"
 viewBox="0.00 0.00 1269.98 116.00" xmlns="http://www.w3.org/2000/svg" xmlns:xlink="http://www.w3.org/1999/xlink">
<g id="graph0" class="graph" transform="scale(1 1) rotate(0) translate(4 112)">
<title>systemd</title>
<polygon fill="white" stroke="none" points="-4,4 -4,-112 1265.98,-112 1265.98,4 -4,4"/>
<!-- app&#45;graphical.slice -->
<g id="node1" class="node">
<title>app&#45;graphical.slice</title>
<ellipse fill="none" stroke="black" cx="209.05" cy="-90" rx="105.4" ry="18"/>
<text text-anchor="middle" x="209.05" y="-85.33" font-family="Times,serif" font-size="14.00">app&#45;graphical.slice</text>
</g>
<!-- graphical&#45;session.target -->
<g id="node2" class="node">
<title>graphical&#45;session.target</title>
<ellipse fill="none" stroke="black" cx="508.05" cy="-18" rx="132.23" ry="18"/>
<text text-anchor="middle" x="508.05" y="-13.32" font-family="Times,serif" font-size="14.00">graphical&#45;session.target</text>
</g>
<!-- app&#45;graphical.slice&#45;&gt;graphical&#45;session.target -->
<g id="edge1" class="edge">
<title>app&#45;graphical.slice&#45;&gt;graphical&#45;session.target</title>
<path fill="none" stroke="green" d="M269.56,-74.83C316.52,-63.84 381.89,-48.54 432.33,-36.73"/>
<polygon fill="green" stroke="green" points="433.08,-40.15 442.02,-34.46 431.49,-33.33 433.08,-40.15"/>
</g>
<!-- wayland&#45;session&#45;shutdown.target -->
<g id="node3" class="node">
<title>wayland&#45;session&#45;shutdown.target</title>
<ellipse fill="none" stroke="black" cx="179.05" cy="-18" rx="179.05" ry="18"/>
<text text-anchor="middle" x="179.05" y="-13.32" font-family="Times,serif" font-size="14.00">wayland&#45;session&#45;shutdown.target</text>
</g>
<!-- app&#45;graphical.slice&#45;&gt;wayland&#45;session&#45;shutdown.target -->
<g id="edge2" class="edge">
<title>app&#45;graphical.slice&#45;&gt;wayland&#45;session&#45;shutdown.target</title>
<path fill="none" stroke="red" d="M201.64,-71.7C198.4,-64.15 194.53,-55.12 190.92,-46.68"/>
<polygon fill="red" stroke="red" points="194.14,-45.31 186.98,-37.5 187.7,-48.07 194.14,-45.31"/>
</g>
<!-- shutdown.target -->
<g id="node4" class="node">
<title>shutdown.target</title>
<ellipse fill="none" stroke="black" cx="808.05" cy="-18" rx="94.35" ry="18"/>
<text text-anchor="middle" x="808.05" y="-13.32" font-family="Times,serif" font-size="14.00">shutdown.target</text>
</g>
<!-- app&#45;graphical.slice&#45;&gt;shutdown.target -->
<g id="edge3" class="edge">
<title>app&#45;graphical.slice&#45;&gt;shutdown.target</title>
<path fill="none" stroke="red" d="M285.34,-77.2C297.93,-75.38 310.85,-73.58 323.05,-72 360.96,-67.1 586.5,-42.77 716.25,-28.84"/>
<polygon fill="red" stroke="red" points="716.27,-32.35 725.84,-27.81 715.52,-25.39 716.27,-32.35"/>
</g>
<!-- user.slice -->
<g id="node5" class="node">
<title>user.slice</title>
<ellipse fill="none" stroke="black" cx="994.05" cy="-90" rx="58.05" ry="18"/>
<text text-anchor="middle" x="994.05" y="-85.33" font-family="Times,serif" font-size="14.00">user.slice</text>
</g>
<!-- user.slice&#45;&gt;shutdown.target -->
<g id="edge4" class="edge">
<title>user.slice&#45;&gt;shutdown.target</title>
<path fill="none" stroke="red" d="M958.19,-75.5C930.33,-65.02 891.31,-50.33 860.03,-38.56"/>
<polygon fill="red" stroke="red" points="861.33,-35.31 850.73,-35.06 858.86,-41.86 861.33,-35.31"/>
</g>
<!-- background.slice -->
<g id="node6" class="node">
<title>background.slice</title>
<ellipse fill="none" stroke="black" cx="1166.05" cy="-90" rx="95.93" ry="18"/>
<text text-anchor="middle" x="1166.05" y="-85.33" font-family="Times,serif" font-size="14.00">background.slice</text>
</g>
<!-- background.slice&#45;&gt;shutdown.target -->
<g id="edge5" class="edge">
<title>background.slice&#45;&gt;shutdown.target</title>
<path fill="none" stroke="red" d="M1101.22,-76.32C1039.89,-64.33 947.86,-46.34 883.32,-33.72"/>
<polygon fill="red" stroke="red" points="884.37,-30.36 873.89,-31.87 883.03,-37.23 884.37,-30.36"/>
</g>
<!-- session.slice -->
<g id="node7" class="node">
<title>session.slice</title>
<ellipse fill="none" stroke="black" cx="716.05" cy="-90" rx="73.83" ry="18"/>
<text text-anchor="middle" x="716.05" y="-85.33" font-family="Times,serif" font-size="14.00">session.slice</text>
</g>
<!-- session.slice&#45;&gt;shutdown.target -->
<g id="edge6" class="edge">
<title>session.slice&#45;&gt;shutdown.target</title>
<path fill="none" stroke="red" d="M737.86,-72.41C749.49,-63.56 764,-52.52 776.81,-42.77"/>
<polygon fill="red" stroke="red" points="778.72,-45.71 784.56,-36.87 774.49,-40.14 778.72,-45.71"/>
</g>
<!-- app.slice -->
<g id="node8" class="node">
<title>app.slice</title>
<ellipse fill="none" stroke="black" cx="863.05" cy="-90" rx="55.42" ry="18"/>
<text text-anchor="middle" x="863.05" y="-85.33" font-family="Times,serif" font-size="14.00">app.slice</text>
</g>
<!-- app.slice&#45;&gt;shutdown.target -->
<g id="edge7" class="edge">
<title>app.slice&#45;&gt;shutdown.target</title>
<path fill="none" stroke="red" d="M849.74,-72.05C843.42,-64.01 835.71,-54.2 828.66,-45.23"/>
<polygon fill="red" stroke="red" points="831.49,-43.17 822.56,-37.47 825.99,-47.49 831.49,-43.17"/>
</g>
<!-- background&#45;graphical.slice -->
<g id="node9" class="node">
<title>background&#45;graphical.slice</title>
<ellipse fill="none" stroke="black" cx="478.05" cy="-90" rx="145.91" ry="18"/>
<text text-anchor="middle" x="478.05" y="-85.33" font-family="Times,serif" font-size="14.00">background&#45;graphical.slice</text>
</g>
<!-- background&#45;graphical.slice&#45;&gt;graphical&#45;session.target -->
<g id="edge8" class="edge">
<title>background&#45;graphical.slice&#45;&gt;graphical&#45;session.target</title>
<path fill="none" stroke="green" d="M485.47,-71.7C488.7,-64.15 492.57,-55.12 496.19,-46.68"/>
<polygon fill="green" stroke="green" points="499.4,-48.07 500.13,-37.5 492.97,-45.31 499.4,-48.07"/>
</g>
<!-- background&#45;graphical.slice&#45;&gt;wayland&#45;session&#45;shutdown.target -->
<g id="edge9" class="edge">
<title>background&#45;graphical.slice&#45;&gt;wayland&#45;session&#45;shutdown.target</title>
<path fill="none" stroke="red" d="M412.07,-73.55C366.83,-62.96 306.58,-48.86 258.68,-37.64"/>
<polygon fill="red" stroke="red" points="259.73,-34.29 249.2,-35.42 258.14,-41.11 259.73,-34.29"/>
</g>
<!-- background&#45;graphical.slice&#45;&gt;shutdown.target -->
<g id="edge10" class="edge">
<title>background&#45;graphical.slice&#45;&gt;shutdown.target</title>
<path fill="none" stroke="red" d="M549.25,-73.9C604.29,-62.22 680.18,-46.12 735.55,-34.38"/>
<polygon fill="red" stroke="red" points="736.15,-37.83 745.21,-32.33 734.7,-30.98 736.15,-37.83"/>
</g>
</g>
</svg>
