<?xml version="1.0" encoding="UTF-8" standalone="no"?>
<!DOCTYPE svg PUBLIC "-//W3C//DTD SVG 1.1//EN"
 "http://www.w3.org/Graphics/SVG/1.1/DTD/svg11.dtd">
<!-- Generated by graphviz version 12.2.1 (0)
 -->
<!-- Title: systemd Pages: 1 -->
<svg width="938pt" height="404pt"
 viewBox="0.00 0.00 937.59 404.00" xmlns="http://www.w3.org/2000/svg" xmlns:xlink="http://www.w3.org/1999/xlink">
<g id="graph0" class="graph" transform="scale(1 1) rotate(0) translate(4 400)">
<title>systemd</title>
<polygon fill="white" stroke="none" points="-4,4 -4,-400 933.59,-400 933.59,4 -4,4"/>
<!-- basic.target -->
<g id="node1" class="node">
<title>basic.target</title>
<ellipse fill="none" stroke="black" cx="390.81" cy="-90" rx="71.2" ry="18"/>
<text text-anchor="middle" x="390.81" y="-85.33" font-family="Times,serif" font-size="14.00">basic.target</text>
</g>
<!-- paths.target -->
<g id="node2" class="node">
<title>paths.target</title>
<ellipse fill="none" stroke="black" cx="221.81" cy="-18" rx="73.3" ry="18"/>
<text text-anchor="middle" x="221.81" y="-13.32" font-family="Times,serif" font-size="14.00">paths.target</text>
</g>
<!-- basic.target&#45;&gt;paths.target -->
<g id="edge1" class="edge">
<title>basic.target&#45;&gt;paths.target</title>
<path fill="none" stroke="green" d="M351.06,-74.83C324.96,-64.58 290.94,-50.58 264.31,-39.16"/>
<polygon fill="green" stroke="green" points="265.72,-35.96 255.15,-35.21 262.94,-42.38 265.72,-35.96"/>
</g>
<!-- basic.target&#45;&gt;paths.target -->
<g id="edge4" class="edge">
<title>basic.target&#45;&gt;paths.target</title>
<path fill="none" stroke="#a8a8a8" d="M359.03,-73.46C334.67,-62.86 300.73,-48.75 272.65,-37.55"/>
<polygon fill="#a8a8a8" stroke="#a8a8a8" points="274.2,-34.4 263.61,-33.98 271.62,-40.91 274.2,-34.4"/>
</g>
<!-- timers.target -->
<g id="node3" class="node">
<title>timers.target</title>
<ellipse fill="none" stroke="black" cx="390.81" cy="-18" rx="78.04" ry="18"/>
<text text-anchor="middle" x="390.81" y="-13.32" font-family="Times,serif" font-size="14.00">timers.target</text>
</g>
<!-- basic.target&#45;&gt;timers.target -->
<g id="edge2" class="edge">
<title>basic.target&#45;&gt;timers.target</title>
<path fill="none" stroke="green" d="M384.9,-71.7C384.14,-64.41 383.9,-55.73 384.17,-47.54"/>
<polygon fill="green" stroke="green" points="387.65,-47.82 384.82,-37.61 380.67,-47.36 387.65,-47.82"/>
</g>
<!-- basic.target&#45;&gt;timers.target -->
<g id="edge5" class="edge">
<title>basic.target&#45;&gt;timers.target</title>
<path fill="none" stroke="#a8a8a8" d="M396.73,-71.7C397.48,-64.41 397.72,-55.73 397.46,-47.54"/>
<polygon fill="#a8a8a8" stroke="#a8a8a8" points="400.96,-47.36 396.81,-37.61 393.97,-47.82 400.96,-47.36"/>
</g>
<!-- sockets.target -->
<g id="node4" class="node">
<title>sockets.target</title>
<ellipse fill="none" stroke="black" cx="569.81" cy="-18" rx="82.77" ry="18"/>
<text text-anchor="middle" x="569.81" y="-13.32" font-family="Times,serif" font-size="14.00">sockets.target</text>
</g>
<!-- basic.target&#45;&gt;sockets.target -->
<g id="edge3" class="edge">
<title>basic.target&#45;&gt;sockets.target</title>
<path fill="none" stroke="green" d="M423.97,-73.81C449.79,-63.21 486.02,-49 515.95,-37.7"/>
<polygon fill="green" stroke="green" points="517.11,-41 525.24,-34.21 514.65,-34.45 517.11,-41"/>
</g>
<!-- basic.target&#45;&gt;sockets.target -->
<g id="edge6" class="edge">
<title>basic.target&#45;&gt;sockets.target</title>
<path fill="none" stroke="#a8a8a8" d="M432.13,-75C459.83,-64.71 496.21,-50.57 524.67,-39.07"/>
<polygon fill="#a8a8a8" stroke="#a8a8a8" points="525.8,-42.39 533.75,-35.38 523.16,-35.9 525.8,-42.39"/>
</g>
<!-- default.target -->
<g id="node5" class="node">
<title>default.target</title>
<ellipse fill="none" stroke="black" cx="272.81" cy="-162" rx="80.67" ry="18"/>
<text text-anchor="middle" x="272.81" y="-157.32" font-family="Times,serif" font-size="14.00">default.target</text>
</g>
<!-- default.target&#45;&gt;basic.target -->
<g id="edge7" class="edge">
<title>default.target&#45;&gt;basic.target</title>
<path fill="none" stroke="green" d="M295.22,-144.23C310.51,-134.54 331.09,-122.26 349.28,-111.94"/>
<polygon fill="green" stroke="green" points="350.76,-115.12 357.77,-107.17 347.33,-109.01 350.76,-115.12"/>
</g>
<!-- default.target&#45;&gt;basic.target -->
<g id="edge8" class="edge">
<title>default.target&#45;&gt;basic.target</title>
<path fill="none" stroke="black" d="M305.35,-145.12C322.23,-135.74 342.68,-123.73 359.39,-113.4"/>
<polygon fill="black" stroke="black" points="360.84,-116.62 367.46,-108.35 357.13,-110.69 360.84,-116.62"/>
</g>
<!-- graphical&#45;session&#45;pre.target -->
<g id="node6" class="node">
<title>graphical&#45;session&#45;pre.target</title>
<ellipse fill="none" stroke="black" cx="579.81" cy="-162" rx="152.22" ry="18"/>
<text text-anchor="middle" x="579.81" y="-157.32" font-family="Times,serif" font-size="14.00">graphical&#45;session&#45;pre.target</text>
</g>
<!-- graphical&#45;session&#45;pre.target&#45;&gt;basic.target -->
<g id="edge9" class="edge">
<title>graphical&#45;session&#45;pre.target&#45;&gt;basic.target</title>
<path fill="none" stroke="green" d="M529.68,-144.59C500.67,-134.27 464.52,-120.91 436.33,-110.11"/>
<polygon fill="green" stroke="green" points="437.95,-106.99 427.36,-106.66 435.43,-113.52 437.95,-106.99"/>
</g>
<!-- graphical&#45;session&#45;pre.target&#45;&gt;basic.target -->
<g id="edge11" class="edge">
<title>graphical&#45;session&#45;pre.target&#45;&gt;basic.target</title>
<path fill="none" stroke="black" d="M540.4,-144.23C512.45,-133.45 474.72,-119.47 444.1,-108.54"/>
<polygon fill="black" stroke="black" points="445.62,-105.36 435.02,-105.31 443.28,-111.96 445.62,-105.36"/>
</g>
<!-- wayland&#45;session&#45;pre@Hyprland.target -->
<g id="node7" class="node">
<title>wayland&#45;session&#45;pre@Hyprland.target</title>
<ellipse fill="none" stroke="black" cx="725.81" cy="-90" rx="203.78" ry="18"/>
<text text-anchor="middle" x="725.81" y="-85.33" font-family="Times,serif" font-size="14.00">wayland&#45;session&#45;pre@Hyprland.target</text>
</g>
<!-- graphical&#45;session&#45;pre.target&#45;&gt;wayland&#45;session&#45;pre@Hyprland.target -->
<g id="edge10" class="edge">
<title>graphical&#45;session&#45;pre.target&#45;&gt;wayland&#45;session&#45;pre@Hyprland.target</title>
<path fill="none" stroke="green" d="M609.63,-143.88C628.17,-134.52 652.41,-122.83 673.98,-112.83"/>
<polygon fill="green" stroke="green" points="675.33,-116.06 682.95,-108.7 672.4,-109.7 675.33,-116.06"/>
</g>
<!-- wayland&#45;session&#45;pre@Hyprland.target&#45;&gt;graphical&#45;session&#45;pre.target -->
<g id="edge25" class="edge">
<title>wayland&#45;session&#45;pre@Hyprland.target&#45;&gt;graphical&#45;session&#45;pre.target</title>
<path fill="none" stroke="gold" d="M696.01,-108.12C677.3,-117.56 652.78,-129.38 631.05,-139.45"/>
<polygon fill="gold" stroke="gold" points="629.64,-136.24 622.02,-143.6 632.57,-142.6 629.64,-136.24"/>
</g>
<!-- wayland&#45;session&#45;xdg&#45;autostart@Hyprland.target -->
<g id="node8" class="node">
<title>wayland&#45;session&#45;xdg&#45;autostart@Hyprland.target</title>
<ellipse fill="none" stroke="black" cx="254.81" cy="-306" rx="254.81" ry="18"/>
<text text-anchor="middle" x="254.81" y="-301.32" font-family="Times,serif" font-size="14.00">wayland&#45;session&#45;xdg&#45;autostart@Hyprland.target</text>
</g>
<!-- wayland&#45;session@Hyprland.target -->
<g id="node9" class="node">
<title>wayland&#45;session@Hyprland.target</title>
<ellipse fill="none" stroke="black" cx="546.81" cy="-378" rx="183.79" ry="18"/>
<text text-anchor="middle" x="546.81" y="-373.32" font-family="Times,serif" font-size="14.00">wayland&#45;session@Hyprland.target</text>
</g>
<!-- wayland&#45;session&#45;xdg&#45;autostart@Hyprland.target&#45;&gt;wayland&#45;session@Hyprland.target -->
<g id="edge12" class="edge">
<title>wayland&#45;session&#45;xdg&#45;autostart@Hyprland.target&#45;&gt;wayland&#45;session@Hyprland.target</title>
<path fill="none" stroke="green" d="M330.13,-323.65C374.22,-333.96 429.61,-347.22 473.38,-357.94"/>
<polygon fill="green" stroke="green" points="472.51,-361.33 483.06,-360.32 474.18,-354.53 472.51,-361.33"/>
</g>
<!-- graphical&#45;session.target -->
<g id="node10" class="node">
<title>graphical&#45;session.target</title>
<ellipse fill="none" stroke="black" cx="490.81" cy="-234" rx="132.23" ry="18"/>
<text text-anchor="middle" x="490.81" y="-229.32" font-family="Times,serif" font-size="14.00">graphical&#45;session.target</text>
</g>
<!-- wayland&#45;session&#45;xdg&#45;autostart@Hyprland.target&#45;&gt;graphical&#45;session.target -->
<g id="edge13" class="edge">
<title>wayland&#45;session&#45;xdg&#45;autostart@Hyprland.target&#45;&gt;graphical&#45;session.target</title>
<path fill="none" stroke="green" d="M311.94,-288.05C346.56,-277.79 390.8,-264.67 426.62,-254.04"/>
<polygon fill="green" stroke="green" points="427.4,-257.46 435.99,-251.26 425.41,-250.75 427.4,-257.46"/>
</g>
<!-- xdg&#45;desktop&#45;autostart.target -->
<g id="node11" class="node">
<title>xdg&#45;desktop&#45;autostart.target</title>
<ellipse fill="none" stroke="black" cx="184.81" cy="-234" rx="155.9" ry="18"/>
<text text-anchor="middle" x="184.81" y="-229.32" font-family="Times,serif" font-size="14.00">xdg&#45;desktop&#45;autostart.target</text>
</g>
<!-- wayland&#45;session&#45;xdg&#45;autostart@Hyprland.target&#45;&gt;xdg&#45;desktop&#45;autostart.target -->
<g id="edge14" class="edge">
<title>wayland&#45;session&#45;xdg&#45;autostart@Hyprland.target&#45;&gt;xdg&#45;desktop&#45;autostart.target</title>
<path fill="none" stroke="gold" d="M231.59,-287.7C222.52,-279.47 212.33,-269.48 203.71,-260.42"/>
<polygon fill="gold" stroke="gold" points="206.41,-258.18 197.05,-253.22 201.27,-262.93 206.41,-258.18"/>
</g>
<!-- wayland&#45;session@Hyprland.target&#45;&gt;graphical&#45;session&#45;pre.target -->
<g id="edge17" class="edge">
<title>wayland&#45;session@Hyprland.target&#45;&gt;graphical&#45;session&#45;pre.target</title>
<path fill="none" stroke="green" d="M563.61,-359.79C584.33,-337.22 618.46,-295.39 631.81,-252 636.52,-236.71 637.87,-230.81 631.81,-216 627.51,-205.46 619.98,-195.89 611.97,-187.86"/>
<polygon fill="green" stroke="green" points="614.39,-185.34 604.68,-181.12 609.64,-190.48 614.39,-185.34"/>
</g>
<!-- wayland&#45;session@Hyprland.target&#45;&gt;wayland&#45;session&#45;pre@Hyprland.target -->
<g id="edge16" class="edge">
<title>wayland&#45;session@Hyprland.target&#45;&gt;wayland&#45;session&#45;pre@Hyprland.target</title>
<path fill="none" stroke="green" d="M569.95,-359.67C612.59,-329.84 701.08,-263.83 731.81,-180 738.99,-160.42 734.65,-137.15 730.1,-119.31"/>
<polygon fill="green" stroke="green" points="733.48,-118.42 727.51,-109.67 726.72,-120.24 733.48,-118.42"/>
</g>
<!-- wayland&#45;session@Hyprland.target&#45;&gt;wayland&#45;session&#45;pre@Hyprland.target -->
<g id="edge18" class="edge">
<title>wayland&#45;session@Hyprland.target&#45;&gt;wayland&#45;session&#45;pre@Hyprland.target</title>
<path fill="none" stroke="black" d="M580.65,-359.91C630.12,-330.19 718.99,-264.05 749.81,-180 757.09,-160.14 752.53,-136.48 745.26,-118.55"/>
<polygon fill="black" stroke="black" points="748.49,-117.18 741.11,-109.58 742.14,-120.13 748.49,-117.18"/>
</g>
<!-- wayland&#45;session@Hyprland.target&#45;&gt;wayland&#45;session&#45;xdg&#45;autostart@Hyprland.target -->
<g id="edge20" class="edge">
<title>wayland&#45;session@Hyprland.target&#45;&gt;wayland&#45;session&#45;xdg&#45;autostart@Hyprland.target</title>
<path fill="none" stroke="#a8a8a8" d="M474.42,-361.03C430.57,-350.8 374.78,-337.45 330.38,-326.59"/>
<polygon fill="#a8a8a8" stroke="#a8a8a8" points="331.37,-323.22 320.82,-324.24 329.7,-330.02 331.37,-323.22"/>
</g>
<!-- wayland&#45;session@Hyprland.target&#45;&gt;graphical&#45;session.target -->
<g id="edge19" class="edge">
<title>wayland&#45;session@Hyprland.target&#45;&gt;graphical&#45;session.target</title>
<path fill="none" stroke="gold" d="M535.63,-359.61C528.45,-341.42 519.92,-312.22 509.81,-288 506.29,-279.55 501.87,-270.65 497.97,-262.6"/>
<polygon fill="gold" stroke="gold" points="501.18,-261.19 493.74,-253.65 494.85,-264.19 501.18,-261.19"/>
</g>
<!-- graphical&#45;session.target&#45;&gt;basic.target -->
<g id="edge21" class="edge">
<title>graphical&#45;session.target&#45;&gt;basic.target</title>
<path fill="none" stroke="green" d="M451.77,-216.39C436.59,-207.33 420.46,-194.9 409.81,-180 396.99,-162.05 389.88,-138.02 387.4,-119.45"/>
<polygon fill="green" stroke="green" points="390.9,-119.32 386.55,-109.66 383.93,-119.93 390.9,-119.32"/>
</g>
<!-- graphical&#45;session.target&#45;&gt;basic.target -->
<g id="edge24" class="edge">
<title>graphical&#45;session.target&#45;&gt;basic.target</title>
<path fill="none" stroke="black" d="M467.32,-215.93C454.05,-206.9 438.28,-194.65 427.81,-180 414.93,-161.97 407.82,-137.79 402.62,-119.18"/>
<polygon fill="black" stroke="black" points="406,-118.29 399.92,-109.61 399.26,-120.19 406,-118.29"/>
</g>
<!-- graphical&#45;session.target&#45;&gt;graphical&#45;session&#45;pre.target -->
<g id="edge23" class="edge">
<title>graphical&#45;session.target&#45;&gt;graphical&#45;session&#45;pre.target</title>
<path fill="none" stroke="green" d="M512.36,-216.05C523.34,-207.41 536.9,-196.75 548.97,-187.26"/>
<polygon fill="green" stroke="green" points="550.96,-190.14 556.66,-181.21 546.63,-184.64 550.96,-190.14"/>
</g>
<!-- graphical&#45;session.target&#45;&gt;wayland&#45;session@Hyprland.target -->
<g id="edge22" class="edge">
<title>graphical&#45;session.target&#45;&gt;wayland&#45;session@Hyprland.target</title>
<path fill="none" stroke="green" d="M508.84,-252.28C515.68,-262.46 522.68,-275.71 527.81,-288 536.03,-307.68 543.19,-330.65 547,-348.32"/>
<polygon fill="green" stroke="green" points="543.55,-348.91 548.79,-358.12 550.43,-347.65 543.55,-348.91"/>
</g>
<!-- xdg&#45;desktop&#45;autostart.target&#45;&gt;wayland&#45;session&#45;xdg&#45;autostart@Hyprland.target -->
<g id="edge15" class="edge">
<title>xdg&#45;desktop&#45;autostart.target&#45;&gt;wayland&#45;session&#45;xdg&#45;autostart@Hyprland.target</title>
<path fill="none" stroke="green" d="M207.81,-252.1C216.86,-260.3 227.06,-270.28 235.7,-279.36"/>
<polygon fill="green" stroke="green" points="233.03,-281.63 242.4,-286.59 238.17,-276.87 233.03,-281.63"/>
</g>
</g>
</svg>
