<?xml version="1.0" encoding="UTF-8" standalone="no"?>
<!DOCTYPE svg PUBLIC "-//W3C//DTD SVG 1.1//EN"
 "http://www.w3.org/Graphics/SVG/1.1/DTD/svg11.dtd">
<!-- Generated by graphviz version 12.2.1 (0)
 -->
<!-- Title: systemd Pages: 1 -->
<svg width="1368pt" height="1461pt"
 viewBox="0.00 0.00 1368.49 1460.75" xmlns="http://www.w3.org/2000/svg" xmlns:xlink="http://www.w3.org/1999/xlink">
<g id="graph0" class="graph" transform="scale(1 1) rotate(0) translate(4 1456.75)">
<title>systemd</title>
<polygon fill="white" stroke="none" points="-4,4 -4,-1456.75 1364.49,-1456.75 1364.49,4 -4,4"/>
<!-- flatpak&#45;session&#45;helper.service -->
<g id="node1" class="node">
<title>flatpak&#45;session&#45;helper.service</title>
<ellipse fill="none" stroke="black" cx="712.1" cy="-776" rx="158.53" ry="18"/>
<text text-anchor="middle" x="712.1" y="-771.33" font-family="Times,serif" font-size="14.00">flatpak&#45;session&#45;helper.service</text>
</g>
<!-- basic.target -->
<g id="node2" class="node">
<title>basic.target</title>
<ellipse fill="none" stroke="black" cx="1156.71" cy="-721" rx="71.2" ry="18"/>
<text text-anchor="middle" x="1156.71" y="-716.33" font-family="Times,serif" font-size="14.00">basic.target</text>
</g>
<!-- flatpak&#45;session&#45;helper.service&#45;&gt;basic.target -->
<g id="edge1" class="edge">
<title>flatpak&#45;session&#45;helper.service&#45;&gt;basic.target</title>
<path fill="none" stroke="green" d="M795.83,-760.32C875.72,-748.58 995.93,-733.65 1075.1,-725.67"/>
<polygon fill="green" stroke="green" points="1075.36,-729.16 1084.97,-724.69 1074.67,-722.19 1075.36,-729.16"/>
</g>
<!-- flatpak&#45;session&#45;helper.service&#45;&gt;basic.target -->
<g id="edge2" class="edge">
<title>flatpak&#45;session&#45;helper.service&#45;&gt;basic.target</title>
<path fill="none" stroke="black" d="M845,-765.84C925.52,-756.82 1025.01,-744.04 1089.38,-734.23"/>
<polygon fill="black" stroke="black" points="1089.74,-737.71 1099.09,-732.72 1088.67,-730.79 1089.74,-737.71"/>
</g>
<!-- obex.service -->
<g id="node3" class="node">
<title>obex.service</title>
<ellipse fill="none" stroke="black" cx="712.1" cy="-666" rx="73.83" ry="18"/>
<text text-anchor="middle" x="712.1" y="-661.33" font-family="Times,serif" font-size="14.00">obex.service</text>
</g>
<!-- obex.service&#45;&gt;basic.target -->
<g id="edge3" class="edge">
<title>obex.service&#45;&gt;basic.target</title>
<path fill="none" stroke="green" d="M784.71,-669.77C868.95,-678.03 1007.66,-695.31 1089.49,-707.79"/>
<polygon fill="green" stroke="green" points="1088.74,-711.22 1099.16,-709.29 1089.81,-704.3 1088.74,-711.22"/>
</g>
<!-- obex.service&#45;&gt;basic.target -->
<g id="edge4" class="edge">
<title>obex.service&#45;&gt;basic.target</title>
<path fill="none" stroke="black" d="M769.61,-677.71C847.08,-689.84 986.72,-707.42 1075.13,-716.34"/>
<polygon fill="black" stroke="black" points="1074.65,-719.81 1084.95,-717.31 1075.34,-712.84 1074.65,-719.81"/>
</g>
<!-- xdg&#45;permission&#45;store.service -->
<g id="node4" class="node">
<title>xdg&#45;permission&#45;store.service</title>
<ellipse fill="none" stroke="black" cx="712.1" cy="-1264" rx="155.9" ry="18"/>
<text text-anchor="middle" x="712.1" y="-1259.33" font-family="Times,serif" font-size="14.00">xdg&#45;permission&#45;store.service</text>
</g>
<!-- xdg&#45;permission&#45;store.service&#45;&gt;basic.target -->
<g id="edge5" class="edge">
<title>xdg&#45;permission&#45;store.service&#45;&gt;basic.target</title>
<path fill="none" stroke="green" d="M851.65,-1255.75C875.05,-1250.59 897.89,-1242.02 916.93,-1228 1083,-1105.76 1137.04,-839.43 1151.3,-750.45"/>
<polygon fill="green" stroke="green" points="1154.72,-751.25 1152.79,-740.83 1147.8,-750.18 1154.72,-751.25"/>
</g>
<!-- xdg&#45;permission&#45;store.service&#45;&gt;basic.target -->
<g id="edge7" class="edge">
<title>xdg&#45;permission&#45;store.service&#45;&gt;basic.target</title>
<path fill="none" stroke="black" d="M808.35,-1278.57C845.33,-1277.11 886.1,-1268.7 916.93,-1246 1087.73,-1120.28 1140.03,-842.13 1152.43,-750.64"/>
<polygon fill="black" stroke="black" points="1155.87,-751.34 1153.67,-740.98 1148.92,-750.45 1155.87,-751.34"/>
</g>
<!-- dbus&#45;broker.service -->
<g id="node5" class="node">
<title>dbus&#45;broker.service</title>
<ellipse fill="none" stroke="black" cx="1156.71" cy="-1318" rx="109.61" ry="18"/>
<text text-anchor="middle" x="1156.71" y="-1313.33" font-family="Times,serif" font-size="14.00">dbus&#45;broker.service</text>
</g>
<!-- xdg&#45;permission&#45;store.service&#45;&gt;dbus&#45;broker.service -->
<g id="edge6" class="edge">
<title>xdg&#45;permission&#45;store.service&#45;&gt;dbus&#45;broker.service</title>
<path fill="none" stroke="green" d="M844.4,-1273.79C918.45,-1281.92 1008.71,-1293.21 1072.94,-1302.5"/>
<polygon fill="green" stroke="green" points="1072.32,-1305.95 1082.72,-1303.93 1073.33,-1299.02 1072.32,-1305.95"/>
</g>
<!-- xdg&#45;permission&#45;store.service&#45;&gt;dbus&#45;broker.service -->
<g id="edge8" class="edge">
<title>xdg&#45;permission&#45;store.service&#45;&gt;dbus&#45;broker.service</title>
<path fill="none" stroke="black" d="M796.35,-1279.57C866.05,-1289.65 966.16,-1302.04 1043.02,-1310.22"/>
<polygon fill="black" stroke="black" points="1042.37,-1313.67 1052.68,-1311.24 1043.1,-1306.71 1042.37,-1313.67"/>
</g>
<!-- nixos&#45;activation.service -->
<g id="node6" class="node">
<title>nixos&#45;activation.service</title>
<ellipse fill="none" stroke="black" cx="712.1" cy="-884" rx="129.07" ry="18"/>
<text text-anchor="middle" x="712.1" y="-879.33" font-family="Times,serif" font-size="14.00">nixos&#45;activation.service</text>
</g>
<!-- nixos&#45;activation.service&#45;&gt;basic.target -->
<g id="edge9" class="edge">
<title>nixos&#45;activation.service&#45;&gt;basic.target</title>
<path fill="none" stroke="green" d="M804.61,-871.06C840.35,-866.71 881.24,-860.02 916.93,-848 992.12,-822.69 1070.39,-772.87 1116,-743.54"/>
<polygon fill="green" stroke="green" points="1117.71,-746.6 1124.23,-738.25 1113.92,-740.71 1117.71,-746.6"/>
</g>
<!-- nixos&#45;activation.service&#45;&gt;basic.target -->
<g id="edge10" class="edge">
<title>nixos&#45;activation.service&#45;&gt;basic.target</title>
<path fill="none" stroke="black" d="M841.5,-883.47C866.91,-879.68 893.08,-874.03 916.93,-866 1000.37,-837.91 1087.6,-779.65 1129.79,-745.94"/>
<polygon fill="black" stroke="black" points="1131.89,-748.74 1137.4,-739.69 1127.45,-743.33 1131.89,-748.74"/>
</g>
<!-- dconf.service -->
<g id="node7" class="node">
<title>dconf.service</title>
<ellipse fill="none" stroke="black" cx="712.1" cy="-830" rx="76.99" ry="18"/>
<text text-anchor="middle" x="712.1" y="-825.33" font-family="Times,serif" font-size="14.00">dconf.service</text>
</g>
<!-- dconf.service&#45;&gt;basic.target -->
<g id="edge11" class="edge">
<title>dconf.service&#45;&gt;basic.target</title>
<path fill="none" stroke="green" d="M770.76,-817.92C811.89,-812.45 868.29,-805.45 916.93,-794 979.27,-779.32 1048.24,-754.69 1095.96,-737.91"/>
<polygon fill="green" stroke="green" points="1097,-741.26 1105.28,-734.65 1094.69,-734.65 1097,-741.26"/>
</g>
<!-- dconf.service&#45;&gt;basic.target -->
<g id="edge12" class="edge">
<title>dconf.service&#45;&gt;basic.target</title>
<path fill="none" stroke="black" d="M789.26,-831.62C827.84,-828.36 875.24,-821.82 916.93,-812 989.96,-794.81 1072.08,-763.95 1118.49,-742.69"/>
<polygon fill="black" stroke="black" points="1119.73,-745.97 1127.29,-738.55 1116.75,-739.64 1119.73,-745.97"/>
</g>
<!-- xdg&#45;desktop&#45;portal&#45;gtk.service -->
<g id="node8" class="node">
<title>xdg&#45;desktop&#45;portal&#45;gtk.service</title>
<ellipse fill="none" stroke="black" cx="712.1" cy="-450" rx="163.8" ry="18"/>
<text text-anchor="middle" x="712.1" y="-445.32" font-family="Times,serif" font-size="14.00">xdg&#45;desktop&#45;portal&#45;gtk.service</text>
</g>
<!-- xdg&#45;desktop&#45;portal&#45;gtk.service&#45;&gt;basic.target -->
<g id="edge14" class="edge">
<title>xdg&#45;desktop&#45;portal&#45;gtk.service&#45;&gt;basic.target</title>
<path fill="none" stroke="green" d="M790.08,-433.75C831.94,-432.31 882.12,-439.24 916.93,-468 955.94,-500.22 922.28,-535.75 952.93,-576 996.89,-633.72 1072.72,-675.06 1118.15,-698.8"/>
<polygon fill="green" stroke="green" points="1116.36,-701.81 1126.84,-703.33 1119.59,-695.6 1116.36,-701.81"/>
</g>
<!-- xdg&#45;desktop&#45;portal&#45;gtk.service&#45;&gt;basic.target -->
<g id="edge15" class="edge">
<title>xdg&#45;desktop&#45;portal&#45;gtk.service&#45;&gt;basic.target</title>
<path fill="none" stroke="black" d="M859.55,-458.14C880.45,-463.63 900.42,-472.36 916.93,-486 955.94,-518.22 922.28,-553.75 952.93,-594 990.94,-643.9 1052.76,-681.55 1098.16,-702.71"/>
<polygon fill="black" stroke="black" points="1096.52,-705.81 1107.08,-706.72 1099.4,-699.42 1096.52,-705.81"/>
</g>
<!-- graphical&#45;session.target -->
<g id="node9" class="node">
<title>graphical&#45;session.target</title>
<ellipse fill="none" stroke="black" cx="1156.71" cy="-288" rx="132.23" ry="18"/>
<text text-anchor="middle" x="1156.71" y="-283.32" font-family="Times,serif" font-size="14.00">graphical&#45;session.target</text>
</g>
<!-- xdg&#45;desktop&#45;portal&#45;gtk.service&#45;&gt;graphical&#45;session.target -->
<g id="edge13" class="edge">
<title>xdg&#45;desktop&#45;portal&#45;gtk.service&#45;&gt;graphical&#45;session.target</title>
<path fill="none" stroke="green" d="M847.71,-439.6C871.15,-435.69 895.02,-430.34 916.93,-423 995.6,-396.66 1077.78,-343.65 1122.26,-312.46"/>
<polygon fill="green" stroke="green" points="1124.05,-315.48 1130.19,-306.85 1120.01,-309.77 1124.05,-315.48"/>
</g>
<!-- gpg&#45;agent.service -->
<g id="node10" class="node">
<title>gpg&#45;agent.service</title>
<ellipse fill="none" stroke="black" cx="712.1" cy="-558" rx="100.66" ry="18"/>
<text text-anchor="middle" x="712.1" y="-553.33" font-family="Times,serif" font-size="14.00">gpg&#45;agent.service</text>
</g>
<!-- gpg&#45;agent.service&#45;&gt;basic.target -->
<g id="edge16" class="edge">
<title>gpg&#45;agent.service&#45;&gt;basic.target</title>
<path fill="none" stroke="green" d="M811.78,-554.86C845.75,-558.2 883.61,-564.78 916.93,-576 1000.37,-604.09 1087.6,-662.35 1129.79,-696.06"/>
<polygon fill="green" stroke="green" points="1127.45,-698.67 1137.4,-702.31 1131.89,-693.26 1127.45,-698.67"/>
</g>
<!-- gpg&#45;agent.service&#45;&gt;basic.target -->
<g id="edge18" class="edge">
<title>gpg&#45;agent.service&#45;&gt;basic.target</title>
<path fill="none" stroke="black" d="M791.65,-569.43C830.19,-573.72 876.84,-580.5 916.93,-594 992.12,-619.31 1070.39,-669.13 1116,-698.46"/>
<polygon fill="black" stroke="black" points="1113.92,-701.29 1124.23,-703.75 1117.71,-695.4 1113.92,-701.29"/>
</g>
<!-- sockets.target -->
<g id="node11" class="node">
<title>sockets.target</title>
<ellipse fill="none" stroke="black" cx="1156.71" cy="-558" rx="82.77" ry="18"/>
<text text-anchor="middle" x="1156.71" y="-553.33" font-family="Times,serif" font-size="14.00">sockets.target</text>
</g>
<!-- gpg&#45;agent.service&#45;&gt;sockets.target -->
<g id="edge17" class="edge">
<title>gpg&#45;agent.service&#45;&gt;sockets.target</title>
<path fill="none" stroke="black" d="M813.26,-558C887.94,-558 989.21,-558 1062.24,-558"/>
<polygon fill="black" stroke="black" points="1062.19,-561.5 1072.19,-558 1062.19,-554.5 1062.19,-561.5"/>
</g>
<!-- xdg&#45;desktop&#45;portal&#45;hyprland.service -->
<g id="node12" class="node">
<title>xdg&#45;desktop&#45;portal&#45;hyprland.service</title>
<ellipse fill="none" stroke="black" cx="712.1" cy="-396" rx="192.21" ry="18"/>
<text text-anchor="middle" x="712.1" y="-391.32" font-family="Times,serif" font-size="14.00">xdg&#45;desktop&#45;portal&#45;hyprland.service</text>
</g>
<!-- xdg&#45;desktop&#45;portal&#45;hyprland.service&#45;&gt;basic.target -->
<g id="edge19" class="edge">
<title>xdg&#45;desktop&#45;portal&#45;hyprland.service&#45;&gt;basic.target</title>
<path fill="none" stroke="green" d="M783.34,-378.85C827.07,-375.75 881.54,-381.56 916.93,-414 971.3,-463.84 911.33,-515.1 952.93,-576 993.64,-635.59 1069.88,-676.06 1116.39,-699.15"/>
<polygon fill="green" stroke="green" points="1114.82,-702.27 1125.33,-703.55 1117.91,-695.99 1114.82,-702.27"/>
</g>
<!-- xdg&#45;desktop&#45;portal&#45;hyprland.service&#45;&gt;basic.target -->
<g id="edge21" class="edge">
<title>xdg&#45;desktop&#45;portal&#45;hyprland.service&#45;&gt;basic.target</title>
<path fill="none" stroke="black" d="M872.35,-406.25C888.77,-411.98 904.1,-420.24 916.93,-432 971.3,-481.84 911.33,-533.1 952.93,-594 988.09,-645.47 1049.77,-682.68 1095.89,-703.33"/>
<polygon fill="black" stroke="black" points="1094.41,-706.5 1104.98,-707.25 1097.18,-700.07 1094.41,-706.5"/>
</g>
<!-- xdg&#45;desktop&#45;portal&#45;hyprland.service&#45;&gt;graphical&#45;session.target -->
<g id="edge20" class="edge">
<title>xdg&#45;desktop&#45;portal&#45;hyprland.service&#45;&gt;graphical&#45;session.target</title>
<path fill="none" stroke="green" d="M843.73,-382.55C868.21,-378.94 893.47,-374.48 916.93,-369 981.99,-353.81 1054.34,-327.95 1102.17,-309.53"/>
<polygon fill="green" stroke="green" points="1103.41,-312.8 1111.47,-305.92 1100.88,-306.27 1103.41,-312.8"/>
</g>
<!-- app&#45;org.fcitx.Fcitx5@autostart.service -->
<g id="node13" class="node">
<title>app&#45;org.fcitx.Fcitx5@autostart.service</title>
<ellipse fill="none" stroke="black" cx="712.1" cy="-180" rx="204.83" ry="18"/>
<text text-anchor="middle" x="712.1" y="-175.32" font-family="Times,serif" font-size="14.00">app&#45;org.fcitx.Fcitx5@autostart.service</text>
</g>
<!-- app&#45;org.fcitx.Fcitx5@autostart.service&#45;&gt;basic.target -->
<g id="edge22" class="edge">
<title>app&#45;org.fcitx.Fcitx5@autostart.service&#45;&gt;basic.target</title>
<path fill="none" stroke="green" d="M774.57,-162.44C820.39,-157.02 881.01,-160.73 916.93,-198 975.49,-258.75 909.73,-503.52 952.93,-576 989.75,-637.78 1066.84,-677.41 1114.65,-699.73"/>
<polygon fill="green" stroke="green" points="1113.04,-702.84 1123.59,-703.86 1115.98,-696.49 1113.04,-702.84"/>
</g>
<!-- app&#45;org.fcitx.Fcitx5@autostart.service&#45;&gt;basic.target -->
<g id="edge25" class="edge">
<title>app&#45;org.fcitx.Fcitx5@autostart.service&#45;&gt;basic.target</title>
<path fill="none" stroke="black" d="M879,-190.77C893.16,-196.66 906.16,-204.82 916.93,-216 975.49,-276.75 909.73,-521.52 952.93,-594 984.81,-647.49 1046.87,-684.37 1093.98,-704.39"/>
<polygon fill="black" stroke="black" points="1092.41,-707.53 1102.99,-708.07 1095.05,-701.05 1092.41,-707.53"/>
</g>
<!-- app&#45;org.fcitx.Fcitx5@autostart.service&#45;&gt;graphical&#45;session.target -->
<g id="edge24" class="edge">
<title>app&#45;org.fcitx.Fcitx5@autostart.service&#45;&gt;graphical&#45;session.target</title>
<path fill="none" stroke="green" d="M847,-193.93C870.45,-197.45 894.51,-201.77 916.93,-207 981.99,-222.19 1054.34,-248.05 1102.17,-266.47"/>
<polygon fill="green" stroke="green" points="1100.88,-269.73 1111.47,-270.08 1103.41,-263.2 1100.88,-269.73"/>
</g>
<!-- xdg&#45;desktop&#45;autostart.target -->
<g id="node14" class="node">
<title>xdg&#45;desktop&#45;autostart.target</title>
<ellipse fill="none" stroke="black" cx="1156.71" cy="-180" rx="155.9" ry="18"/>
<text text-anchor="middle" x="1156.71" y="-175.32" font-family="Times,serif" font-size="14.00">xdg&#45;desktop&#45;autostart.target</text>
</g>
<!-- app&#45;org.fcitx.Fcitx5@autostart.service&#45;&gt;xdg&#45;desktop&#45;autostart.target -->
<g id="edge23" class="edge">
<title>app&#45;org.fcitx.Fcitx5@autostart.service&#45;&gt;xdg&#45;desktop&#45;autostart.target</title>
<path fill="none" stroke="green" d="M917.24,-180C941.3,-180 965.63,-180 989.09,-180"/>
<polygon fill="green" stroke="green" points="989.02,-183.5 999.02,-180 989.02,-176.5 989.02,-183.5"/>
</g>
<!-- flatpak&#45;portal.service -->
<g id="node15" class="node">
<title>flatpak&#45;portal.service</title>
<ellipse fill="none" stroke="black" cx="712.1" cy="-612" rx="117.5" ry="18"/>
<text text-anchor="middle" x="712.1" y="-607.33" font-family="Times,serif" font-size="14.00">flatpak&#45;portal.service</text>
</g>
<!-- flatpak&#45;portal.service&#45;&gt;basic.target -->
<g id="edge26" class="edge">
<title>flatpak&#45;portal.service&#45;&gt;basic.target</title>
<path fill="none" stroke="green" d="M828.9,-614.56C857.86,-618.21 888.7,-623.35 916.93,-630 989.96,-647.19 1072.08,-678.05 1118.49,-699.31"/>
<polygon fill="green" stroke="green" points="1116.75,-702.36 1127.29,-703.45 1119.73,-696.03 1116.75,-702.36"/>
</g>
<!-- flatpak&#45;portal.service&#45;&gt;basic.target -->
<g id="edge27" class="edge">
<title>flatpak&#45;portal.service&#45;&gt;basic.target</title>
<path fill="none" stroke="black" d="M786.86,-626.21C825.87,-631.36 874.37,-637.98 916.93,-648 979.27,-662.68 1048.24,-687.31 1095.96,-704.09"/>
<polygon fill="black" stroke="black" points="1094.69,-707.35 1105.28,-707.35 1097,-700.74 1094.69,-707.35"/>
</g>
<!-- wayland&#45;wm&#45;app&#45;daemon.service -->
<g id="node16" class="node">
<title>wayland&#45;wm&#45;app&#45;daemon.service</title>
<ellipse fill="none" stroke="black" cx="712.1" cy="-504" rx="176.95" ry="18"/>
<text text-anchor="middle" x="712.1" y="-499.32" font-family="Times,serif" font-size="14.00">wayland&#45;wm&#45;app&#45;daemon.service</text>
</g>
<!-- wayland&#45;wm&#45;app&#45;daemon.service&#45;&gt;basic.target -->
<g id="edge29" class="edge">
<title>wayland&#45;wm&#45;app&#45;daemon.service&#45;&gt;basic.target</title>
<path fill="none" stroke="green" d="M886.67,-507.27C897.27,-511.24 907.46,-516.1 916.93,-522 941.41,-537.25 932.56,-555.58 952.93,-576 1005.03,-628.24 1080.02,-672.31 1122.69,-698"/>
<polygon fill="green" stroke="green" points="1120.64,-700.85 1131.01,-703.04 1124.27,-694.86 1120.64,-700.85"/>
</g>
<!-- wayland&#45;wm&#45;app&#45;daemon.service&#45;&gt;basic.target -->
<g id="edge30" class="edge">
<title>wayland&#45;wm&#45;app&#45;daemon.service&#45;&gt;basic.target</title>
<path fill="none" stroke="black" d="M852.36,-515.25C875.11,-520.19 897.54,-527.92 916.93,-540 941.41,-555.25 932.56,-573.58 952.93,-594 998.1,-639.29 1060.48,-678.45 1104.08,-701.11"/>
<polygon fill="black" stroke="black" points="1102.34,-704.15 1112.84,-705.56 1105.51,-697.91 1102.34,-704.15"/>
</g>
<!-- wayland&#45;wm&#45;app&#45;daemon.service&#45;&gt;graphical&#45;session.target -->
<g id="edge28" class="edge">
<title>wayland&#45;wm&#45;app&#45;daemon.service&#45;&gt;graphical&#45;session.target</title>
<path fill="none" stroke="green" d="M860.94,-494.03C880.21,-489.96 899.35,-484.45 916.93,-477 1007.15,-438.79 1091.88,-356.86 1131.79,-314.53"/>
<polygon fill="green" stroke="green" points="1134.33,-316.94 1138.58,-307.23 1129.2,-312.17 1134.33,-316.94"/>
</g>
<!-- xdg&#45;document&#45;portal.service -->
<g id="node17" class="node">
<title>xdg&#45;document&#45;portal.service</title>
<ellipse fill="none" stroke="black" cx="712.1" cy="-1372" rx="154.33" ry="18"/>
<text text-anchor="middle" x="712.1" y="-1367.33" font-family="Times,serif" font-size="14.00">xdg&#45;document&#45;portal.service</text>
</g>
<!-- xdg&#45;document&#45;portal.service&#45;&gt;basic.target -->
<g id="edge31" class="edge">
<title>xdg&#45;document&#45;portal.service&#45;&gt;basic.target</title>
<path fill="none" stroke="green" d="M853.51,-1364.56C876.45,-1359.27 898.65,-1350.44 916.93,-1336 966.82,-1296.6 1106.37,-867.1 1145.43,-750.15"/>
<polygon fill="green" stroke="green" points="1148.75,-751.26 1148.61,-740.67 1142.11,-749.04 1148.75,-751.26"/>
</g>
<!-- xdg&#45;document&#45;portal.service&#45;&gt;basic.target -->
<g id="edge33" class="edge">
<title>xdg&#45;document&#45;portal.service&#45;&gt;basic.target</title>
<path fill="none" stroke="black" d="M793.08,-1387.75C834.08,-1388.51 882.48,-1381.21 916.93,-1354 967.75,-1313.86 1111.61,-868.92 1147.51,-749.98"/>
<polygon fill="black" stroke="black" points="1150.79,-751.25 1150.3,-740.66 1144.08,-749.24 1150.79,-751.25"/>
</g>
<!-- xdg&#45;document&#45;portal.service&#45;&gt;dbus&#45;broker.service -->
<g id="edge32" class="edge">
<title>xdg&#45;document&#45;portal.service&#45;&gt;dbus&#45;broker.service</title>
<path fill="none" stroke="green" d="M796.09,-1356.47C865.76,-1346.39 965.95,-1333.98 1042.89,-1325.79"/>
<polygon fill="green" stroke="green" points="1042.98,-1329.3 1052.56,-1324.78 1042.25,-1322.34 1042.98,-1329.3"/>
</g>
<!-- xdg&#45;document&#45;portal.service&#45;&gt;dbus&#45;broker.service -->
<g id="edge34" class="edge">
<title>xdg&#45;document&#45;portal.service&#45;&gt;dbus&#45;broker.service</title>
<path fill="none" stroke="black" d="M843.5,-1362.31C917.72,-1354.17 1008.43,-1342.83 1072.92,-1333.5"/>
<polygon fill="black" stroke="black" points="1073.35,-1336.98 1082.74,-1332.06 1072.34,-1330.05 1073.35,-1336.98"/>
</g>
<!-- yubikey&#45;touch&#45;detector.service -->
<g id="node18" class="node">
<title>yubikey&#45;touch&#45;detector.service</title>
<ellipse fill="none" stroke="black" cx="712.1" cy="-1156" rx="164.32" ry="18"/>
<text text-anchor="middle" x="712.1" y="-1151.33" font-family="Times,serif" font-size="14.00">yubikey&#45;touch&#45;detector.service</text>
</g>
<!-- yubikey&#45;touch&#45;detector.service&#45;&gt;basic.target -->
<g id="edge35" class="edge">
<title>yubikey&#45;touch&#45;detector.service&#45;&gt;basic.target</title>
<path fill="none" stroke="green" d="M851.11,-1146.1C874.43,-1141.09 897.38,-1132.99 916.93,-1120 1055.46,-1027.95 1124.3,-825.95 1146.98,-750.23"/>
<polygon fill="green" stroke="green" points="1150.33,-751.24 1149.79,-740.66 1143.61,-749.26 1150.33,-751.24"/>
</g>
<!-- yubikey&#45;touch&#45;detector.service&#45;&gt;basic.target -->
<g id="edge36" class="edge">
<title>yubikey&#45;touch&#45;detector.service&#45;&gt;basic.target</title>
<path fill="none" stroke="black" d="M876.61,-1157.13C890.9,-1152.45 904.59,-1146.2 916.93,-1138 1060.62,-1042.52 1129.34,-828.75 1149.32,-750.34"/>
<polygon fill="black" stroke="black" points="1152.67,-751.39 1151.65,-740.84 1145.87,-749.72 1152.67,-751.39"/>
</g>
<!-- doom.service -->
<g id="node19" class="node">
<title>doom.service</title>
<ellipse fill="none" stroke="black" cx="712.1" cy="-1102" rx="77.51" ry="18"/>
<text text-anchor="middle" x="712.1" y="-1097.33" font-family="Times,serif" font-size="14.00">doom.service</text>
</g>
<!-- doom.service&#45;&gt;basic.target -->
<g id="edge37" class="edge">
<title>doom.service&#45;&gt;basic.target</title>
<path fill="none" stroke="green" d="M788.31,-1098.55C829.12,-1096.54 878.85,-1089.59 916.93,-1066 1042.3,-988.35 1117.01,-817.63 1144.09,-749.59"/>
<polygon fill="green" stroke="green" points="1147.22,-751.21 1147.62,-740.62 1140.7,-748.64 1147.22,-751.21"/>
</g>
<!-- doom.service&#45;&gt;basic.target -->
<g id="edge38" class="edge">
<title>doom.service&#45;&gt;basic.target</title>
<path fill="none" stroke="black" d="M771.36,-1113.98C814.61,-1116.19 873.38,-1110.97 916.93,-1084 1047.68,-1003.02 1123.32,-820.82 1147.31,-749.84"/>
<polygon fill="black" stroke="black" points="1150.59,-751.09 1150.37,-740.49 1143.93,-748.91 1150.59,-751.09"/>
</g>
<!-- xdg&#45;desktop&#45;portal.service -->
<g id="node20" class="node">
<title>xdg&#45;desktop&#45;portal.service</title>
<ellipse fill="none" stroke="black" cx="712.1" cy="-1318" rx="144.33" ry="18"/>
<text text-anchor="middle" x="712.1" y="-1313.33" font-family="Times,serif" font-size="14.00">xdg&#45;desktop&#45;portal.service</text>
</g>
<!-- xdg&#45;desktop&#45;portal.service&#45;&gt;basic.target -->
<g id="edge40" class="edge">
<title>xdg&#45;desktop&#45;portal.service&#45;&gt;basic.target</title>
<path fill="none" stroke="green" d="M847.05,-1311.39C872.16,-1306.33 896.8,-1297.4 916.93,-1282 1096.96,-1144.32 1142.47,-845.75 1152.88,-750.61"/>
<polygon fill="green" stroke="green" points="1156.34,-751.12 1153.9,-740.81 1149.38,-750.39 1156.34,-751.12"/>
</g>
<!-- xdg&#45;desktop&#45;portal.service&#45;&gt;basic.target -->
<g id="edge42" class="edge">
<title>xdg&#45;desktop&#45;portal.service&#45;&gt;basic.target</title>
<path fill="none" stroke="black" d="M793.24,-1333.32C834.03,-1333.89 882.2,-1326.56 916.93,-1300 1101.64,-1158.74 1144.74,-848.12 1153.62,-750.69"/>
<polygon fill="black" stroke="black" points="1157.09,-751.16 1154.45,-740.9 1150.12,-750.56 1157.09,-751.16"/>
</g>
<!-- xdg&#45;desktop&#45;portal.service&#45;&gt;dbus&#45;broker.service -->
<g id="edge39" class="edge">
<title>xdg&#45;desktop&#45;portal.service&#45;&gt;dbus&#45;broker.service</title>
<path fill="none" stroke="green" d="M848.3,-1311.73C909.92,-1311.01 982.09,-1311.1 1041.02,-1312"/>
<polygon fill="green" stroke="green" points="1040.67,-1315.5 1050.72,-1312.16 1040.78,-1308.5 1040.67,-1315.5"/>
</g>
<!-- xdg&#45;desktop&#45;portal.service&#45;&gt;dbus&#45;broker.service -->
<g id="edge41" class="edge">
<title>xdg&#45;desktop&#45;portal.service&#45;&gt;dbus&#45;broker.service</title>
<path fill="none" stroke="black" d="M848.3,-1324.27C909.92,-1324.99 982.09,-1324.9 1041.02,-1324"/>
<polygon fill="black" stroke="black" points="1040.78,-1327.5 1050.72,-1323.84 1040.67,-1320.5 1040.78,-1327.5"/>
</g>
<!-- wayland&#45;session&#45;waitenv.service -->
<g id="node21" class="node">
<title>wayland&#45;session&#45;waitenv.service</title>
<ellipse fill="none" stroke="black" cx="712.1" cy="-342" rx="172.74" ry="18"/>
<text text-anchor="middle" x="712.1" y="-337.32" font-family="Times,serif" font-size="14.00">wayland&#45;session&#45;waitenv.service</text>
</g>
<!-- wayland&#45;session&#45;waitenv.service&#45;&gt;basic.target -->
<g id="edge43" class="edge">
<title>wayland&#45;session&#45;waitenv.service&#45;&gt;basic.target</title>
<path fill="none" stroke="green" d="M776.69,-324.87C821.77,-320.31 880.5,-324.76 916.93,-360 986.89,-427.66 900.2,-494.2 952.93,-576 992.01,-636.62 1068.71,-676.73 1115.76,-699.46"/>
<polygon fill="green" stroke="green" points="1114.01,-702.5 1124.54,-703.67 1117.03,-696.19 1114.01,-702.5"/>
</g>
<!-- wayland&#45;session&#45;waitenv.service&#45;&gt;basic.target -->
<g id="edge45" class="edge">
<title>wayland&#45;session&#45;waitenv.service&#45;&gt;basic.target</title>
<path fill="none" stroke="black" d="M868.18,-349.95C886.31,-355.82 903.2,-364.72 916.93,-378 986.89,-445.66 900.2,-512.2 952.93,-594 986.7,-646.39 1048.58,-683.47 1095.14,-703.83"/>
<polygon fill="black" stroke="black" points="1093.75,-707.04 1104.32,-707.7 1096.46,-700.59 1093.75,-707.04"/>
</g>
<!-- graphical&#45;session&#45;pre.target -->
<g id="node22" class="node">
<title>graphical&#45;session&#45;pre.target</title>
<ellipse fill="none" stroke="black" cx="1156.71" cy="-126" rx="152.22" ry="18"/>
<text text-anchor="middle" x="1156.71" y="-121.33" font-family="Times,serif" font-size="14.00">graphical&#45;session&#45;pre.target</text>
</g>
<!-- wayland&#45;session&#45;waitenv.service&#45;&gt;graphical&#45;session&#45;pre.target -->
<g id="edge44" class="edge">
<title>wayland&#45;session&#45;waitenv.service&#45;&gt;graphical&#45;session&#45;pre.target</title>
<path fill="none" stroke="green" d="M880.09,-337.78C893.58,-332.3 906.14,-324.89 916.93,-315 971.3,-265.16 898.58,-202.86 952.93,-153 964.79,-142.13 978.8,-134.25 993.83,-128.66"/>
<polygon fill="green" stroke="green" points="994.56,-132.11 1002.94,-125.63 992.35,-125.47 994.56,-132.11"/>
</g>
<!-- wayland&#45;wm@Hyprland.service -->
<g id="node23" class="node">
<title>wayland&#45;wm@Hyprland.service</title>
<ellipse fill="none" stroke="black" cx="712.1" cy="-72" rx="169.58" ry="18"/>
<text text-anchor="middle" x="712.1" y="-67.33" font-family="Times,serif" font-size="14.00">wayland&#45;wm@Hyprland.service</text>
</g>
<!-- wayland&#45;wm@Hyprland.service&#45;&gt;basic.target -->
<g id="edge47" class="edge">
<title>wayland&#45;wm@Hyprland.service&#45;&gt;basic.target</title>
<path fill="none" stroke="green" d="M771.03,-54.71C817.36,-48.52 880.42,-51.32 916.93,-90 991.27,-168.76 898.47,-482.4 952.93,-576 989.1,-638.16 1066.4,-677.67 1114.42,-699.86"/>
<polygon fill="green" stroke="green" points="1112.86,-702.99 1123.41,-703.97 1115.77,-696.63 1112.86,-702.99"/>
</g>
<!-- wayland&#45;wm@Hyprland.service&#45;&gt;basic.target -->
<g id="edge49" class="edge">
<title>wayland&#45;wm@Hyprland.service&#45;&gt;basic.target</title>
<path fill="none" stroke="black" d="M869.59,-78.89C887.45,-84.94 903.89,-94.18 916.93,-108 991.27,-186.76 898.47,-500.4 952.93,-594 984.15,-647.65 1046,-684.42 1093.22,-704.38"/>
<polygon fill="black" stroke="black" points="1091.68,-707.54 1102.26,-708.06 1094.31,-701.05 1091.68,-707.54"/>
</g>
<!-- wayland&#45;wm@Hyprland.service&#45;&gt;graphical&#45;session&#45;pre.target -->
<g id="edge48" class="edge">
<title>wayland&#45;wm@Hyprland.service&#45;&gt;graphical&#45;session&#45;pre.target</title>
<path fill="none" stroke="green" d="M825.65,-85.73C890.41,-93.63 971.72,-103.55 1037.42,-111.57"/>
<polygon fill="green" stroke="green" points="1036.81,-115.02 1047.16,-112.76 1037.66,-108.07 1036.81,-115.02"/>
</g>
<!-- wayland&#45;session&#45;pre@Hyprland.target -->
<g id="node24" class="node">
<title>wayland&#45;session&#45;pre@Hyprland.target</title>
<ellipse fill="none" stroke="black" cx="1156.71" cy="-72" rx="203.78" ry="18"/>
<text text-anchor="middle" x="1156.71" y="-67.33" font-family="Times,serif" font-size="14.00">wayland&#45;session&#45;pre@Hyprland.target</text>
</g>
<!-- wayland&#45;wm@Hyprland.service&#45;&gt;wayland&#45;session&#45;pre@Hyprland.target -->
<g id="edge46" class="edge">
<title>wayland&#45;wm@Hyprland.service&#45;&gt;wayland&#45;session&#45;pre@Hyprland.target</title>
<path fill="none" stroke="green" d="M871.33,-65.5C898.5,-65.28 927.05,-65.2 955.15,-65.28"/>
<polygon fill="green" stroke="green" points="954.78,-68.78 964.79,-65.31 954.81,-61.78 954.78,-68.78"/>
</g>
<!-- wayland&#45;wm@Hyprland.service&#45;&gt;wayland&#45;session&#45;pre@Hyprland.target -->
<g id="edge50" class="edge">
<title>wayland&#45;wm@Hyprland.service&#45;&gt;wayland&#45;session&#45;pre@Hyprland.target</title>
<path fill="none" stroke="black" d="M871.33,-78.5C898.5,-78.72 927.05,-78.8 955.15,-78.72"/>
<polygon fill="black" stroke="black" points="954.81,-82.22 964.79,-78.69 954.78,-75.22 954.81,-82.22"/>
</g>
<!-- wayland&#45;session@Hyprland.target -->
<g id="node25" class="node">
<title>wayland&#45;session@Hyprland.target</title>
<ellipse fill="none" stroke="black" cx="1156.71" cy="-18" rx="183.79" ry="18"/>
<text text-anchor="middle" x="1156.71" y="-13.32" font-family="Times,serif" font-size="14.00">wayland&#45;session@Hyprland.target</text>
</g>
<!-- wayland&#45;wm@Hyprland.service&#45;&gt;wayland&#45;session@Hyprland.target -->
<g id="edge51" class="edge">
<title>wayland&#45;wm@Hyprland.service&#45;&gt;wayland&#45;session@Hyprland.target</title>
<path fill="none" stroke="gold" d="M825.65,-58.27C887.26,-50.75 963.84,-41.41 1027.72,-33.62"/>
<polygon fill="gold" stroke="gold" points="1028.07,-37.1 1037.58,-32.41 1027.23,-30.15 1028.07,-37.1"/>
</g>
<!-- pipewire.service -->
<g id="node26" class="node">
<title>pipewire.service</title>
<ellipse fill="none" stroke="black" cx="377.45" cy="-1210" rx="93.82" ry="18"/>
<text text-anchor="middle" x="377.45" y="-1205.33" font-family="Times,serif" font-size="14.00">pipewire.service</text>
</g>
<!-- pipewire.service&#45;&gt;basic.target -->
<g id="edge52" class="edge">
<title>pipewire.service&#45;&gt;basic.target</title>
<path fill="none" stroke="green" d="M381.26,-1191.84C390.55,-1143.96 424.47,-1015.82 507.27,-958 657.93,-852.79 747.96,-974.24 916.93,-902 1003.98,-864.79 1085.84,-786.95 1127.35,-746.4"/>
<polygon fill="green" stroke="green" points="1129.56,-749.13 1134.26,-739.63 1124.67,-744.13 1129.56,-749.13"/>
</g>
<!-- pipewire.service&#45;&gt;basic.target -->
<g id="edge54" class="edge">
<title>pipewire.service&#45;&gt;basic.target</title>
<path fill="none" stroke="black" d="M383.26,-1191.75C394.91,-1146.48 429.56,-1030.27 507.27,-976 657.93,-870.79 747.96,-992.24 916.93,-920 1010.84,-879.85 1098.73,-792.42 1136.4,-747.85"/>
<polygon fill="black" stroke="black" points="1139.05,-750.13 1142.7,-740.19 1133.65,-745.69 1139.05,-750.13"/>
</g>
<!-- pipewire.service&#45;&gt;dbus&#45;broker.service -->
<g id="edge53" class="edge">
<title>pipewire.service&#45;&gt;dbus&#45;broker.service</title>
<path fill="none" stroke="black" d="M386.17,-1228.25C401.51,-1266.79 440.21,-1354.56 507.27,-1390 706.66,-1495.4 987.4,-1388.26 1102.91,-1339.33"/>
<polygon fill="black" stroke="black" points="1104.02,-1342.66 1111.85,-1335.52 1101.28,-1336.22 1104.02,-1342.66"/>
</g>
<!-- pipewire.service&#45;&gt;dbus&#45;broker.service -->
<g id="edge55" class="edge">
<title>pipewire.service&#45;&gt;dbus&#45;broker.service</title>
<path fill="none" stroke="gold" d="M382.9,-1228.44C395.41,-1270.2 434.77,-1369.68 507.27,-1408 716,-1518.33 1013.87,-1395.76 1118.03,-1341.2"/>
<polygon fill="gold" stroke="gold" points="1119.56,-1344.35 1126.73,-1336.54 1116.26,-1338.17 1119.56,-1344.35"/>
</g>
<!-- wireplumber.service -->
<g id="node27" class="node">
<title>wireplumber.service</title>
<ellipse fill="none" stroke="black" cx="712.1" cy="-1210" rx="113.29" ry="18"/>
<text text-anchor="middle" x="712.1" y="-1205.33" font-family="Times,serif" font-size="14.00">wireplumber.service</text>
</g>
<!-- pipewire.service&#45;&gt;wireplumber.service -->
<g id="edge56" class="edge">
<title>pipewire.service&#45;&gt;wireplumber.service</title>
<path fill="none" stroke="#a8a8a8" d="M451.45,-1198.6C499.29,-1196.18 562.36,-1195.85 614.36,-1197.61"/>
<polygon fill="#a8a8a8" stroke="#a8a8a8" points="613.98,-1201.1 624.11,-1197.97 614.25,-1194.1 613.98,-1201.1"/>
</g>
<!-- wireplumber.service&#45;&gt;basic.target -->
<g id="edge76" class="edge">
<title>wireplumber.service&#45;&gt;basic.target</title>
<path fill="none" stroke="green" d="M822.75,-1205.75C855.45,-1201.88 889.77,-1193.09 916.93,-1174 1069.19,-1066.96 1131.07,-832.74 1149.39,-750.27"/>
<polygon fill="green" stroke="green" points="1152.81,-751.01 1151.51,-740.5 1145.97,-749.53 1152.81,-751.01"/>
</g>
<!-- wireplumber.service&#45;&gt;basic.target -->
<g id="edge79" class="edge">
<title>wireplumber.service&#45;&gt;basic.target</title>
<path fill="none" stroke="black" d="M786.01,-1224.06C827.8,-1225.13 879.26,-1218.48 916.93,-1192 1074.09,-1081.52 1134.95,-835.56 1151.03,-750.46"/>
<polygon fill="black" stroke="black" points="1154.44,-751.28 1152.77,-740.82 1147.55,-750.04 1154.44,-751.28"/>
</g>
<!-- wireplumber.service&#45;&gt;dbus&#45;broker.service -->
<g id="edge78" class="edge">
<title>wireplumber.service&#45;&gt;dbus&#45;broker.service</title>
<path fill="none" stroke="green" d="M811.26,-1219.07C845.01,-1223.23 882.87,-1229.05 916.93,-1237 982.58,-1252.33 1055.66,-1278.53 1103.47,-1296.97"/>
<polygon fill="green" stroke="green" points="1102.17,-1300.22 1112.75,-1300.58 1104.7,-1293.7 1102.17,-1300.22"/>
</g>
<!-- wireplumber.service&#45;&gt;pipewire.service -->
<g id="edge77" class="edge">
<title>wireplumber.service&#45;&gt;pipewire.service</title>
<path fill="none" stroke="green" d="M598.51,-1210C561.08,-1210 519.58,-1210 482.8,-1210"/>
<polygon fill="green" stroke="green" points="483.06,-1206.5 473.06,-1210 483.06,-1213.5 483.06,-1206.5"/>
</g>
<!-- wireplumber.service&#45;&gt;pipewire.service -->
<g id="edge80" class="edge">
<title>wireplumber.service&#45;&gt;pipewire.service</title>
<path fill="none" stroke="gold" d="M625.62,-1221.97C575.6,-1224.03 512.68,-1224.01 462.84,-1221.92"/>
<polygon fill="gold" stroke="gold" points="463.11,-1218.43 452.96,-1221.47 462.79,-1225.43 463.11,-1218.43"/>
</g>
<!-- wayland&#45;wm&#45;env@Hyprland.service -->
<g id="node28" class="node">
<title>wayland&#45;wm&#45;env@Hyprland.service</title>
<ellipse fill="none" stroke="black" cx="712.1" cy="-234" rx="190.63" ry="18"/>
<text text-anchor="middle" x="712.1" y="-229.32" font-family="Times,serif" font-size="14.00">wayland&#45;wm&#45;env@Hyprland.service</text>
</g>
<!-- wayland&#45;wm&#45;env@Hyprland.service&#45;&gt;basic.target -->
<g id="edge57" class="edge">
<title>wayland&#45;wm&#45;env@Hyprland.service&#45;&gt;basic.target</title>
<path fill="none" stroke="green" d="M774.88,-216.55C820.55,-211.29 880.84,-215.14 916.93,-252 967.62,-303.76 915.36,-514.06 952.93,-576 990.24,-637.49 1067.17,-677.21 1114.81,-699.63"/>
<polygon fill="green" stroke="green" points="1113.17,-702.73 1123.72,-703.78 1116.13,-696.38 1113.17,-702.73"/>
</g>
<!-- wayland&#45;wm&#45;env@Hyprland.service&#45;&gt;basic.target -->
<g id="edge58" class="edge">
<title>wayland&#45;wm&#45;env@Hyprland.service&#45;&gt;basic.target</title>
<path fill="none" stroke="black" d="M875.37,-243.58C890.9,-249.52 905.19,-258.01 916.93,-270 967.62,-321.76 915.36,-532.06 952.93,-594 985.23,-647.23 1047.23,-684.15 1094.21,-704.25"/>
<polygon fill="black" stroke="black" points="1092.61,-707.38 1103.19,-707.95 1095.27,-700.91 1092.61,-707.38"/>
</g>
<!-- wayland&#45;wm&#45;env@Hyprland.service&#45;&gt;wayland&#45;session&#45;pre@Hyprland.target -->
<g id="edge59" class="edge">
<title>wayland&#45;wm&#45;env@Hyprland.service&#45;&gt;wayland&#45;session&#45;pre@Hyprland.target</title>
<path fill="none" stroke="gold" d="M885.01,-226.16C896.49,-221.24 907.3,-214.96 916.93,-207 955.94,-174.78 913.93,-131.23 952.93,-99 958.59,-94.32 964.66,-90.22 971.03,-86.64"/>
<polygon fill="gold" stroke="gold" points="972.61,-89.77 979.93,-82.12 969.43,-83.53 972.61,-89.77"/>
</g>
<!-- speech&#45;dispatcher.service -->
<g id="node29" class="node">
<title>speech&#45;dispatcher.service</title>
<ellipse fill="none" stroke="black" cx="712.1" cy="-1048" rx="140.12" ry="18"/>
<text text-anchor="middle" x="712.1" y="-1043.33" font-family="Times,serif" font-size="14.00">speech&#45;dispatcher.service</text>
</g>
<!-- speech&#45;dispatcher.service&#45;&gt;basic.target -->
<g id="edge60" class="edge">
<title>speech&#45;dispatcher.service&#45;&gt;basic.target</title>
<path fill="none" stroke="green" d="M833.35,-1038.65C862.12,-1034.18 891.77,-1026.24 916.93,-1012 1029.23,-948.43 1108.38,-809.1 1140.19,-749.12"/>
<polygon fill="green" stroke="green" points="1143.14,-751.02 1144.7,-740.54 1136.94,-747.77 1143.14,-751.02"/>
</g>
<!-- speech&#45;dispatcher.service&#45;&gt;basic.target -->
<g id="edge61" class="edge">
<title>speech&#45;dispatcher.service&#45;&gt;basic.target</title>
<path fill="none" stroke="black" d="M843.77,-1054.49C869.2,-1050.18 894.8,-1042.53 916.93,-1030 1034.97,-963.18 1116.38,-812.67 1144.69,-749.49"/>
<polygon fill="black" stroke="black" points="1147.83,-751.04 1148.61,-740.48 1141.41,-748.25 1147.83,-751.04"/>
</g>
<!-- pipewire&#45;pulse.service -->
<g id="node30" class="node">
<title>pipewire&#45;pulse.service</title>
<ellipse fill="none" stroke="black" cx="123.81" cy="-965" rx="123.81" ry="18"/>
<text text-anchor="middle" x="123.81" y="-960.33" font-family="Times,serif" font-size="14.00">pipewire&#45;pulse.service</text>
</g>
<!-- pipewire&#45;pulse.service&#45;&gt;basic.target -->
<g id="edge63" class="edge">
<title>pipewire&#45;pulse.service&#45;&gt;basic.target</title>
<path fill="none" stroke="green" d="M142.51,-946.82C194.58,-901.18 353.31,-784.04 507.27,-740 712.45,-681.3 968.94,-694.13 1088.53,-708.42"/>
<polygon fill="green" stroke="green" points="1087.81,-711.86 1098.17,-709.62 1088.68,-704.91 1087.81,-711.86"/>
</g>
<!-- pipewire&#45;pulse.service&#45;&gt;basic.target -->
<g id="edge64" class="edge">
<title>pipewire&#45;pulse.service&#45;&gt;basic.target</title>
<path fill="none" stroke="black" d="M153.38,-947.35C214.21,-904.96 362.84,-799.32 507.27,-758 704.77,-701.5 949.83,-711.27 1074.55,-718.33"/>
<polygon fill="black" stroke="black" points="1074.18,-721.81 1084.36,-718.89 1074.58,-714.82 1074.18,-721.81"/>
</g>
<!-- pipewire&#45;pulse.service&#45;&gt;pipewire.service -->
<g id="edge62" class="edge">
<title>pipewire&#45;pulse.service&#45;&gt;pipewire.service</title>
<path fill="none" stroke="green" d="M147.59,-983.09C195.5,-1026.18 306.25,-1134.01 353.93,-1184.02"/>
<polygon fill="green" stroke="green" points="351.11,-1186.12 360.51,-1191 356.2,-1181.32 351.11,-1186.12"/>
</g>
<!-- pipewire&#45;pulse.service&#45;&gt;pipewire.service -->
<g id="edge65" class="edge">
<title>pipewire&#45;pulse.service&#45;&gt;pipewire.service</title>
<path fill="none" stroke="#a8a8a8" d="M139.8,-983.01C180.07,-1026.22 291.26,-1134.88 345.66,-1184.64"/>
<polygon fill="#a8a8a8" stroke="#a8a8a8" points="343,-1186.95 352.76,-1191.08 347.71,-1181.77 343,-1186.95"/>
</g>
<!-- app&#45;blueman@autostart.service -->
<g id="node31" class="node">
<title>app&#45;blueman@autostart.service</title>
<ellipse fill="none" stroke="black" cx="712.1" cy="-126" rx="171.16" ry="18"/>
<text text-anchor="middle" x="712.1" y="-121.33" font-family="Times,serif" font-size="14.00">app&#45;blueman@autostart.service</text>
</g>
<!-- app&#45;blueman@autostart.service&#45;&gt;basic.target -->
<g id="edge68" class="edge">
<title>app&#45;blueman@autostart.service&#45;&gt;basic.target</title>
<path fill="none" stroke="green" d="M771.87,-108.68C818.06,-102.7 880.49,-105.75 916.93,-144 983.38,-213.75 904.1,-492.96 952.93,-576 989.39,-638 1066.59,-677.55 1114.52,-699.8"/>
<polygon fill="green" stroke="green" points="1112.94,-702.93 1123.49,-703.92 1115.86,-696.57 1112.94,-702.93"/>
</g>
<!-- app&#45;blueman@autostart.service&#45;&gt;basic.target -->
<g id="edge69" class="edge">
<title>app&#45;blueman@autostart.service&#45;&gt;basic.target</title>
<path fill="none" stroke="black" d="M869.98,-133.17C887.66,-139.2 903.94,-148.37 916.93,-162 983.38,-231.75 904.1,-510.96 952.93,-594 984.4,-647.5 1046.21,-684.3 1093.36,-704.3"/>
<polygon fill="black" stroke="black" points="1091.8,-707.45 1102.38,-707.98 1094.44,-700.97 1091.8,-707.45"/>
</g>
<!-- app&#45;blueman@autostart.service&#45;&gt;graphical&#45;session.target -->
<g id="edge67" class="edge">
<title>app&#45;blueman@autostart.service&#45;&gt;graphical&#45;session.target</title>
<path fill="none" stroke="green" d="M870.9,-133.01C887.15,-137.74 902.84,-144.22 916.93,-153 941.41,-168.25 930.53,-188.83 952.93,-207 989.07,-236.31 1037.18,-256.14 1077.46,-268.83"/>
<polygon fill="green" stroke="green" points="1076.29,-272.14 1086.88,-271.71 1078.34,-265.44 1076.29,-272.14"/>
</g>
<!-- app&#45;blueman@autostart.service&#45;&gt;xdg&#45;desktop&#45;autostart.target -->
<g id="edge66" class="edge">
<title>app&#45;blueman@autostart.service&#45;&gt;xdg&#45;desktop&#45;autostart.target</title>
<path fill="none" stroke="green" d="M826.22,-139.8C890.51,-147.64 970.94,-157.46 1036.24,-165.42"/>
<polygon fill="green" stroke="green" points="1035.57,-168.87 1045.92,-166.6 1036.42,-161.92 1035.57,-168.87"/>
</g>
<!-- podman.service -->
<g id="node32" class="node">
<title>podman.service</title>
<ellipse fill="none" stroke="black" cx="712.1" cy="-994" rx="90.14" ry="18"/>
<text text-anchor="middle" x="712.1" y="-989.33" font-family="Times,serif" font-size="14.00">podman.service</text>
</g>
<!-- podman.service&#45;&gt;basic.target -->
<g id="edge70" class="edge">
<title>podman.service&#45;&gt;basic.target</title>
<path fill="none" stroke="green" d="M791.18,-985.11C830.7,-980.97 878.35,-972.74 916.93,-953 1014.76,-902.95 1096.81,-797.86 1134.13,-748.01"/>
<polygon fill="green" stroke="green" points="1136.91,-750.13 1140.09,-740.02 1131.3,-745.95 1136.91,-750.13"/>
</g>
<!-- podman.service&#45;&gt;basic.target -->
<g id="edge71" class="edge">
<title>podman.service&#45;&gt;basic.target</title>
<path fill="none" stroke="black" d="M796.12,-1000.9C834.62,-998.27 879.94,-989.92 916.93,-971 1021.12,-917.7 1107.42,-801.96 1140.84,-748.6"/>
<polygon fill="black" stroke="black" points="1143.63,-750.75 1145.84,-740.39 1137.65,-747.11 1143.63,-750.75"/>
</g>
<!-- fumon.service -->
<g id="node33" class="node">
<title>fumon.service</title>
<ellipse fill="none" stroke="black" cx="712.1" cy="-288" rx="81.72" ry="18"/>
<text text-anchor="middle" x="712.1" y="-283.32" font-family="Times,serif" font-size="14.00">fumon.service</text>
</g>
<!-- fumon.service&#45;&gt;basic.target -->
<g id="edge72" class="edge">
<title>fumon.service&#45;&gt;basic.target</title>
<path fill="none" stroke="green" d="M759.25,-272.92C805.7,-265.17 876.15,-265.25 916.93,-306 1002.57,-391.57 889.01,-473.19 952.93,-576 991.01,-637.24 1068.04,-677.15 1115.43,-699.67"/>
<polygon fill="green" stroke="green" points="1113.73,-702.75 1124.27,-703.84 1116.72,-696.41 1113.73,-702.75"/>
</g>
<!-- fumon.service&#45;&gt;basic.target -->
<g id="edge74" class="edge">
<title>fumon.service&#45;&gt;basic.target</title>
<path fill="none" stroke="black" d="M793.3,-285.15C835.64,-285.23 885.24,-292.34 916.93,-324 1002.57,-409.57 889.01,-491.19 952.93,-594 985.81,-646.88 1047.72,-683.85 1094.52,-704.06"/>
<polygon fill="black" stroke="black" points="1092.89,-707.17 1103.46,-707.78 1095.57,-700.71 1092.89,-707.17"/>
</g>
<!-- fumon.service&#45;&gt;graphical&#45;session.target -->
<g id="edge73" class="edge">
<title>fumon.service&#45;&gt;graphical&#45;session.target</title>
<path fill="none" stroke="green" d="M790.7,-282.72C854.02,-281.18 944.99,-280.85 1020.27,-281.72"/>
<polygon fill="green" stroke="green" points="1020.18,-285.22 1030.22,-281.85 1020.27,-278.22 1020.18,-285.22"/>
</g>
<!-- fumon.service&#45;&gt;graphical&#45;session.target -->
<g id="edge75" class="edge">
<title>fumon.service&#45;&gt;graphical&#45;session.target</title>
<path fill="none" stroke="darkblue" d="M790.7,-293.28C854.02,-294.82 944.99,-295.15 1020.27,-294.28"/>
<polygon fill="darkblue" stroke="darkblue" points="1020.27,-297.78 1030.22,-294.15 1020.18,-290.78 1020.27,-297.78"/>
</g>
</g>
</svg>
