<?xml version="1.0" encoding="UTF-8" standalone="no"?>
<!DOCTYPE svg PUBLIC "-//W3C//DTD SVG 1.1//EN"
 "http://www.w3.org/Graphics/SVG/1.1/DTD/svg11.dtd">
<!-- Generated by graphviz version 12.2.1 (0)
 -->
<!-- Title: systemd Pages: 1 -->
<svg width="1764pt" height="476pt"
 viewBox="0.00 0.00 1764.21 476.00" xmlns="http://www.w3.org/2000/svg" xmlns:xlink="http://www.w3.org/1999/xlink">
<g id="graph0" class="graph" transform="scale(1 1) rotate(0) translate(4 472)">
<title>systemd</title>
<polygon fill="white" stroke="none" points="-4,4 -4,-472 1760.21,-472 1760.21,4 -4,4"/>
<!-- app&#45;graphical.slice -->
<g id="node1" class="node">
<title>app&#45;graphical.slice</title>
<ellipse fill="none" stroke="black" cx="819.31" cy="-378" rx="105.4" ry="18"/>
<text text-anchor="middle" x="819.31" y="-373.32" font-family="Times,serif" font-size="14.00">app&#45;graphical.slice</text>
</g>
<!-- graphical&#45;session.target -->
<g id="node2" class="node">
<title>graphical&#45;session.target</title>
<ellipse fill="none" stroke="black" cx="654.31" cy="-306" rx="132.23" ry="18"/>
<text text-anchor="middle" x="654.31" y="-301.32" font-family="Times,serif" font-size="14.00">graphical&#45;session.target</text>
</g>
<!-- app&#45;graphical.slice&#45;&gt;graphical&#45;session.target -->
<g id="edge1" class="edge">
<title>app&#45;graphical.slice&#45;&gt;graphical&#45;session.target</title>
<path fill="none" stroke="green" d="M781.04,-360.76C758.05,-351.01 728.55,-338.5 703.8,-328"/>
<polygon fill="green" stroke="green" points="705.48,-324.91 694.91,-324.22 702.75,-331.35 705.48,-324.91"/>
</g>
<!-- app.slice -->
<g id="node3" class="node">
<title>app.slice</title>
<ellipse fill="none" stroke="black" cx="1089.31" cy="-306" rx="55.42" ry="18"/>
<text text-anchor="middle" x="1089.31" y="-301.32" font-family="Times,serif" font-size="14.00">app.slice</text>
</g>
<!-- app&#45;graphical.slice&#45;&gt;app.slice -->
<g id="edge2" class="edge">
<title>app&#45;graphical.slice&#45;&gt;app.slice</title>
<path fill="none" stroke="green" d="M871.57,-361.98C918.37,-349.45 986.64,-331.78 1034.26,-319.88"/>
<polygon fill="green" stroke="green" points="1034.97,-323.31 1043.83,-317.5 1033.28,-316.52 1034.97,-323.31"/>
</g>
<!-- app&#45;graphical.slice&#45;&gt;app.slice -->
<g id="edge3" class="edge">
<title>app&#45;graphical.slice&#45;&gt;app.slice</title>
<path fill="none" stroke="black" d="M879.49,-362.83C927.24,-350.87 993.14,-333.78 1038.32,-321.67"/>
<polygon fill="black" stroke="black" points="1039.13,-325.08 1047.88,-319.1 1037.31,-318.32 1039.13,-325.08"/>
</g>
<!-- basic.target -->
<g id="node7" class="node">
<title>basic.target</title>
<ellipse fill="none" stroke="black" cx="461.31" cy="-90" rx="71.2" ry="18"/>
<text text-anchor="middle" x="461.31" y="-85.33" font-family="Times,serif" font-size="14.00">basic.target</text>
</g>
<!-- graphical&#45;session.target&#45;&gt;basic.target -->
<g id="edge40" class="edge">
<title>graphical&#45;session.target&#45;&gt;basic.target</title>
<path fill="none" stroke="green" d="M615.73,-288.41C576.22,-267.78 516.22,-229.19 481.31,-180 468.57,-162.06 461.2,-138.21 458.41,-119.72"/>
<polygon fill="green" stroke="green" points="461.91,-119.54 457.38,-109.96 454.94,-120.27 461.91,-119.54"/>
</g>
<!-- graphical&#45;session.target&#45;&gt;basic.target -->
<g id="edge43" class="edge">
<title>graphical&#45;session.target&#45;&gt;basic.target</title>
<path fill="none" stroke="black" d="M627.98,-288.04C593.51,-267.32 534.01,-228.9 499.31,-180 486.44,-161.87 479.04,-137.7 473.57,-119.12"/>
<polygon fill="black" stroke="black" points="476.93,-118.15 470.73,-109.56 470.22,-120.14 476.93,-118.15"/>
</g>
<!-- graphical&#45;session&#45;pre.target -->
<g id="node15" class="node">
<title>graphical&#45;session&#45;pre.target</title>
<ellipse fill="none" stroke="black" cx="651.31" cy="-162" rx="152.22" ry="18"/>
<text text-anchor="middle" x="651.31" y="-157.32" font-family="Times,serif" font-size="14.00">graphical&#45;session&#45;pre.target</text>
</g>
<!-- graphical&#45;session.target&#45;&gt;graphical&#45;session&#45;pre.target -->
<g id="edge42" class="edge">
<title>graphical&#45;session.target&#45;&gt;graphical&#45;session&#45;pre.target</title>
<path fill="none" stroke="green" d="M651.46,-287.87C649.89,-277.52 648.1,-264.04 647.31,-252 645.98,-231.91 647.04,-209.24 648.4,-191.8"/>
<polygon fill="green" stroke="green" points="651.88,-192.18 649.26,-181.91 644.91,-191.58 651.88,-192.18"/>
</g>
<!-- wayland&#45;session@Hyprland.target -->
<g id="node18" class="node">
<title>wayland&#45;session@Hyprland.target</title>
<ellipse fill="none" stroke="black" cx="840.31" cy="-234" rx="183.79" ry="18"/>
<text text-anchor="middle" x="840.31" y="-229.32" font-family="Times,serif" font-size="14.00">wayland&#45;session@Hyprland.target</text>
</g>
<!-- graphical&#45;session.target&#45;&gt;wayland&#45;session@Hyprland.target -->
<g id="edge41" class="edge">
<title>graphical&#45;session.target&#45;&gt;wayland&#45;session@Hyprland.target</title>
<path fill="none" stroke="green" d="M692.55,-288.41C717.57,-278.59 750.74,-266.06 779.33,-255.61"/>
<polygon fill="green" stroke="green" points="780.42,-258.94 788.62,-252.23 778.03,-252.36 780.42,-258.94"/>
</g>
<!-- &#45;.slice -->
<g id="node5" class="node">
<title>&#45;.slice</title>
<ellipse fill="none" stroke="black" cx="1220.31" cy="-234" rx="40.16" ry="18"/>
<text text-anchor="middle" x="1220.31" y="-229.32" font-family="Times,serif" font-size="14.00">&#45;.slice</text>
</g>
<!-- app.slice&#45;&gt;&#45;.slice -->
<g id="edge38" class="edge">
<title>app.slice&#45;&gt;&#45;.slice</title>
<path fill="none" stroke="green" d="M1112.96,-289.29C1132.26,-278.29 1159.69,-263.6 1182.06,-252.28"/>
<polygon fill="green" stroke="green" points="1183.52,-255.46 1190.9,-247.85 1180.39,-249.2 1183.52,-255.46"/>
</g>
<!-- app.slice&#45;&gt;&#45;.slice -->
<g id="edge39" class="edge">
<title>app.slice&#45;&gt;&#45;.slice</title>
<path fill="none" stroke="black" d="M1121.03,-291C1141.7,-280.69 1168.42,-266.53 1189,-255.03"/>
<polygon fill="black" stroke="black" points="1190.55,-258.17 1197.52,-250.2 1187.1,-252.08 1190.55,-258.17"/>
</g>
<!-- user.slice -->
<g id="node4" class="node">
<title>user.slice</title>
<ellipse fill="none" stroke="black" cx="1220.31" cy="-306" rx="58.05" ry="18"/>
<text text-anchor="middle" x="1220.31" y="-301.32" font-family="Times,serif" font-size="14.00">user.slice</text>
</g>
<!-- user.slice&#45;&gt;&#45;.slice -->
<g id="edge4" class="edge">
<title>user.slice&#45;&gt;&#45;.slice</title>
<path fill="none" stroke="green" d="M1214.39,-287.7C1213.64,-280.41 1213.39,-271.73 1213.66,-263.54"/>
<polygon fill="green" stroke="green" points="1217.15,-263.82 1214.31,-253.61 1210.16,-263.36 1217.15,-263.82"/>
</g>
<!-- user.slice&#45;&gt;&#45;.slice -->
<g id="edge5" class="edge">
<title>user.slice&#45;&gt;&#45;.slice</title>
<path fill="none" stroke="black" d="M1226.22,-287.7C1226.97,-280.41 1227.22,-271.73 1226.95,-263.54"/>
<polygon fill="black" stroke="black" points="1230.45,-263.36 1226.3,-253.61 1223.46,-263.82 1230.45,-263.36"/>
</g>
<!-- init.scope -->
<g id="node6" class="node">
<title>init.scope</title>
<ellipse fill="none" stroke="black" cx="1356.31" cy="-306" rx="59.63" ry="18"/>
<text text-anchor="middle" x="1356.31" y="-301.32" font-family="Times,serif" font-size="14.00">init.scope</text>
</g>
<!-- init.scope&#45;&gt;&#45;.slice -->
<g id="edge6" class="edge">
<title>init.scope&#45;&gt;&#45;.slice</title>
<path fill="none" stroke="green" d="M1322.89,-290.67C1301.36,-280.28 1273.66,-266.12 1252.41,-254.68"/>
<polygon fill="green" stroke="green" points="1254.34,-251.75 1243.88,-250.04 1250.99,-257.9 1254.34,-251.75"/>
</g>
<!-- init.scope&#45;&gt;&#45;.slice -->
<g id="edge7" class="edge">
<title>init.scope&#45;&gt;&#45;.slice</title>
<path fill="none" stroke="black" d="M1331.53,-289.29C1311.23,-278.17 1282.34,-263.28 1259.03,-251.91"/>
<polygon fill="black" stroke="black" points="1260.65,-248.81 1250.13,-247.61 1257.61,-255.11 1260.65,-248.81"/>
</g>
<!-- paths.target -->
<g id="node8" class="node">
<title>paths.target</title>
<ellipse fill="none" stroke="black" cx="292.31" cy="-18" rx="73.3" ry="18"/>
<text text-anchor="middle" x="292.31" y="-13.32" font-family="Times,serif" font-size="14.00">paths.target</text>
</g>
<!-- basic.target&#45;&gt;paths.target -->
<g id="edge8" class="edge">
<title>basic.target&#45;&gt;paths.target</title>
<path fill="none" stroke="green" d="M421.56,-74.83C395.45,-64.58 361.43,-50.58 334.8,-39.16"/>
<polygon fill="green" stroke="green" points="336.21,-35.96 325.64,-35.21 333.44,-42.38 336.21,-35.96"/>
</g>
<!-- basic.target&#45;&gt;paths.target -->
<g id="edge11" class="edge">
<title>basic.target&#45;&gt;paths.target</title>
<path fill="none" stroke="#a8a8a8" d="M429.52,-73.46C405.17,-62.86 371.22,-48.75 343.14,-37.55"/>
<polygon fill="#a8a8a8" stroke="#a8a8a8" points="344.69,-34.4 334.1,-33.98 342.11,-40.91 344.69,-34.4"/>
</g>
<!-- timers.target -->
<g id="node9" class="node">
<title>timers.target</title>
<ellipse fill="none" stroke="black" cx="461.31" cy="-18" rx="78.04" ry="18"/>
<text text-anchor="middle" x="461.31" y="-13.32" font-family="Times,serif" font-size="14.00">timers.target</text>
</g>
<!-- basic.target&#45;&gt;timers.target -->
<g id="edge9" class="edge">
<title>basic.target&#45;&gt;timers.target</title>
<path fill="none" stroke="green" d="M455.39,-71.7C454.64,-64.41 454.39,-55.73 454.66,-47.54"/>
<polygon fill="green" stroke="green" points="458.15,-47.82 455.31,-37.61 451.16,-47.36 458.15,-47.82"/>
</g>
<!-- basic.target&#45;&gt;timers.target -->
<g id="edge12" class="edge">
<title>basic.target&#45;&gt;timers.target</title>
<path fill="none" stroke="#a8a8a8" d="M467.22,-71.7C467.97,-64.41 468.22,-55.73 467.95,-47.54"/>
<polygon fill="#a8a8a8" stroke="#a8a8a8" points="471.45,-47.36 467.3,-37.61 464.46,-47.82 471.45,-47.36"/>
</g>
<!-- sockets.target -->
<g id="node10" class="node">
<title>sockets.target</title>
<ellipse fill="none" stroke="black" cx="640.31" cy="-18" rx="82.77" ry="18"/>
<text text-anchor="middle" x="640.31" y="-13.32" font-family="Times,serif" font-size="14.00">sockets.target</text>
</g>
<!-- basic.target&#45;&gt;sockets.target -->
<g id="edge10" class="edge">
<title>basic.target&#45;&gt;sockets.target</title>
<path fill="none" stroke="green" d="M494.47,-73.81C520.28,-63.21 556.51,-49 586.44,-37.7"/>
<polygon fill="green" stroke="green" points="587.6,-41 595.74,-34.21 585.14,-34.45 587.6,-41"/>
</g>
<!-- basic.target&#45;&gt;sockets.target -->
<g id="edge13" class="edge">
<title>basic.target&#45;&gt;sockets.target</title>
<path fill="none" stroke="#a8a8a8" d="M502.63,-75C530.33,-64.71 566.71,-50.57 595.16,-39.07"/>
<polygon fill="#a8a8a8" stroke="#a8a8a8" points="596.3,-42.39 604.24,-35.38 593.66,-35.9 596.3,-42.39"/>
</g>
<!-- app&#45;Hyprland&#45;hypridle&#45;802f54f9.scope -->
<g id="node11" class="node">
<title>app&#45;Hyprland&#45;hypridle&#45;802f54f9.scope</title>
<ellipse fill="none" stroke="black" cx="204.31" cy="-450" rx="204.31" ry="18"/>
<text text-anchor="middle" x="204.31" y="-445.32" font-family="Times,serif" font-size="14.00">app&#45;Hyprland&#45;hypridle&#45;802f54f9.scope</text>
</g>
<!-- app&#45;Hyprland&#45;hypridle&#45;802f54f9.scope&#45;&gt;app&#45;graphical.slice -->
<g id="edge14" class="edge">
<title>app&#45;Hyprland&#45;hypridle&#45;802f54f9.scope&#45;&gt;app&#45;graphical.slice</title>
<path fill="none" stroke="green" d="M336.27,-435.85C435.4,-425.98 574.4,-411.53 696.31,-396 706.62,-394.69 717.44,-393.21 728.22,-391.68"/>
<polygon fill="green" stroke="green" points="728.5,-395.17 737.91,-390.29 727.51,-388.24 728.5,-395.17"/>
</g>
<!-- app&#45;Hyprland&#45;hypridle&#45;802f54f9.scope&#45;&gt;app&#45;graphical.slice -->
<g id="edge15" class="edge">
<title>app&#45;Hyprland&#45;hypridle&#45;802f54f9.scope&#45;&gt;app&#45;graphical.slice</title>
<path fill="none" stroke="black" d="M344.27,-436.53C446.96,-426.65 589.58,-411.89 714.31,-396 721.42,-395.09 728.78,-394.11 736.16,-393.08"/>
<polygon fill="black" stroke="black" points="736.41,-396.58 745.82,-391.71 735.43,-389.65 736.41,-396.58"/>
</g>
<!-- background.slice -->
<g id="node12" class="node">
<title>background.slice</title>
<ellipse fill="none" stroke="black" cx="913.31" cy="-306" rx="95.93" ry="18"/>
<text text-anchor="middle" x="913.31" y="-301.32" font-family="Times,serif" font-size="14.00">background.slice</text>
</g>
<!-- background.slice&#45;&gt;&#45;.slice -->
<g id="edge16" class="edge">
<title>background.slice&#45;&gt;&#45;.slice</title>
<path fill="none" stroke="green" d="M969.17,-291C1027.61,-277.26 1118.2,-256.66 1173.17,-244.65"/>
<polygon fill="green" stroke="green" points="1173.83,-248.09 1182.86,-242.54 1172.34,-241.25 1173.83,-248.09"/>
</g>
<!-- background.slice&#45;&gt;&#45;.slice -->
<g id="edge17" class="edge">
<title>background.slice&#45;&gt;&#45;.slice</title>
<path fill="none" stroke="black" d="M975.72,-292C1034.96,-278.92 1122.45,-258.96 1175.21,-246.46"/>
<polygon fill="black" stroke="black" points="1175.85,-249.9 1184.77,-244.18 1174.23,-243.09 1175.85,-249.9"/>
</g>
<!-- session.slice -->
<g id="node13" class="node">
<title>session.slice</title>
<ellipse fill="none" stroke="black" cx="1507.31" cy="-306" rx="73.83" ry="18"/>
<text text-anchor="middle" x="1507.31" y="-301.32" font-family="Times,serif" font-size="14.00">session.slice</text>
</g>
<!-- session.slice&#45;&gt;&#45;.slice -->
<g id="edge18" class="edge">
<title>session.slice&#45;&gt;&#45;.slice</title>
<path fill="none" stroke="green" d="M1453.74,-293.2C1399.27,-280.42 1315.99,-260.11 1264.96,-247.18"/>
<polygon fill="green" stroke="green" points="1265.99,-243.82 1255.43,-244.75 1264.26,-250.61 1265.99,-243.82"/>
</g>
<!-- session.slice&#45;&gt;&#45;.slice -->
<g id="edge19" class="edge">
<title>session.slice&#45;&gt;&#45;.slice</title>
<path fill="none" stroke="black" d="M1459.38,-292C1405.91,-278.48 1320.15,-257.6 1267.13,-245.22"/>
<polygon fill="black" stroke="black" points="1268.01,-241.83 1257.48,-242.98 1266.43,-248.65 1268.01,-241.83"/>
</g>
<!-- default.target -->
<g id="node14" class="node">
<title>default.target</title>
<ellipse fill="none" stroke="black" cx="344.31" cy="-162" rx="80.67" ry="18"/>
<text text-anchor="middle" x="344.31" y="-157.32" font-family="Times,serif" font-size="14.00">default.target</text>
</g>
<!-- default.target&#45;&gt;basic.target -->
<g id="edge20" class="edge">
<title>default.target&#45;&gt;basic.target</title>
<path fill="none" stroke="green" d="M366.47,-144.23C381.56,-134.59 401.84,-122.37 419.82,-112.08"/>
<polygon fill="green" stroke="green" points="421.5,-115.15 428.48,-107.18 418.06,-109.06 421.5,-115.15"/>
</g>
<!-- default.target&#45;&gt;basic.target -->
<g id="edge21" class="edge">
<title>default.target&#45;&gt;basic.target</title>
<path fill="none" stroke="black" d="M376.62,-145.12C393.21,-135.83 413.26,-123.95 429.74,-113.69"/>
<polygon fill="black" stroke="black" points="431.61,-116.65 438.2,-108.36 427.87,-110.73 431.61,-116.65"/>
</g>
<!-- graphical&#45;session&#45;pre.target&#45;&gt;basic.target -->
<g id="edge22" class="edge">
<title>graphical&#45;session&#45;pre.target&#45;&gt;basic.target</title>
<path fill="none" stroke="green" d="M600.94,-144.59C571.69,-134.23 535.19,-120.82 506.8,-110"/>
<polygon fill="green" stroke="green" points="508.36,-106.85 497.77,-106.54 505.85,-113.39 508.36,-106.85"/>
</g>
<!-- graphical&#45;session&#45;pre.target&#45;&gt;basic.target -->
<g id="edge24" class="edge">
<title>graphical&#45;session&#45;pre.target&#45;&gt;basic.target</title>
<path fill="none" stroke="black" d="M611.66,-144.23C583.46,-133.42 545.36,-119.37 514.54,-108.43"/>
<polygon fill="black" stroke="black" points="515.98,-105.23 505.39,-105.2 513.65,-111.83 515.98,-105.23"/>
</g>
<!-- wayland&#45;session&#45;pre@Hyprland.target -->
<g id="node16" class="node">
<title>wayland&#45;session&#45;pre@Hyprland.target</title>
<ellipse fill="none" stroke="black" cx="754.31" cy="-90" rx="203.78" ry="18"/>
<text text-anchor="middle" x="754.31" y="-85.33" font-family="Times,serif" font-size="14.00">wayland&#45;session&#45;pre@Hyprland.target</text>
</g>
<!-- graphical&#45;session&#45;pre.target&#45;&gt;wayland&#45;session&#45;pre@Hyprland.target -->
<g id="edge23" class="edge">
<title>graphical&#45;session&#45;pre.target&#45;&gt;wayland&#45;session&#45;pre@Hyprland.target</title>
<path fill="none" stroke="green" d="M670.85,-143.7C683.03,-134.8 699.01,-123.82 713.77,-114.2"/>
<polygon fill="green" stroke="green" points="715.46,-117.28 721.97,-108.92 711.67,-111.39 715.46,-117.28"/>
</g>
<!-- wayland&#45;session&#45;pre@Hyprland.target&#45;&gt;graphical&#45;session&#45;pre.target -->
<g id="edge44" class="edge">
<title>wayland&#45;session&#45;pre@Hyprland.target&#45;&gt;graphical&#45;session&#45;pre.target</title>
<path fill="none" stroke="gold" d="M734.8,-108.28C722.56,-117.22 706.46,-128.27 691.63,-137.94"/>
<polygon fill="gold" stroke="gold" points="689.91,-134.88 683.39,-143.24 693.69,-140.77 689.91,-134.88"/>
</g>
<!-- wayland&#45;session&#45;xdg&#45;autostart@Hyprland.target -->
<g id="node17" class="node">
<title>wayland&#45;session&#45;xdg&#45;autostart@Hyprland.target</title>
<ellipse fill="none" stroke="black" cx="1132.31" cy="-162" rx="254.81" ry="18"/>
<text text-anchor="middle" x="1132.31" y="-157.32" font-family="Times,serif" font-size="14.00">wayland&#45;session&#45;xdg&#45;autostart@Hyprland.target</text>
</g>
<!-- wayland&#45;session&#45;xdg&#45;autostart@Hyprland.target&#45;&gt;graphical&#45;session.target -->
<g id="edge26" class="edge">
<title>wayland&#45;session&#45;xdg&#45;autostart@Hyprland.target&#45;&gt;graphical&#45;session.target</title>
<path fill="none" stroke="green" d="M1118.66,-180.4C1101.27,-201.22 1069.14,-235.32 1033.31,-252 1009.39,-263.13 869.32,-280.84 766.39,-292.69"/>
<polygon fill="green" stroke="green" points="766.02,-289.21 756.49,-293.83 766.82,-296.17 766.02,-289.21"/>
</g>
<!-- wayland&#45;session&#45;xdg&#45;autostart@Hyprland.target&#45;&gt;wayland&#45;session@Hyprland.target -->
<g id="edge25" class="edge">
<title>wayland&#45;session&#45;xdg&#45;autostart@Hyprland.target&#45;&gt;wayland&#45;session@Hyprland.target</title>
<path fill="none" stroke="green" d="M1067.77,-179.88C1025.37,-190.31 969.56,-203.7 923.8,-214.43"/>
<polygon fill="green" stroke="green" points="923.12,-211 914.18,-216.68 924.71,-217.81 923.12,-211"/>
</g>
<!-- xdg&#45;desktop&#45;autostart.target -->
<g id="node19" class="node">
<title>xdg&#45;desktop&#45;autostart.target</title>
<ellipse fill="none" stroke="black" cx="1132.31" cy="-90" rx="155.9" ry="18"/>
<text text-anchor="middle" x="1132.31" y="-85.33" font-family="Times,serif" font-size="14.00">xdg&#45;desktop&#45;autostart.target</text>
</g>
<!-- wayland&#45;session&#45;xdg&#45;autostart@Hyprland.target&#45;&gt;xdg&#45;desktop&#45;autostart.target -->
<g id="edge27" class="edge">
<title>wayland&#45;session&#45;xdg&#45;autostart@Hyprland.target&#45;&gt;xdg&#45;desktop&#45;autostart.target</title>
<path fill="none" stroke="gold" d="M1126.39,-143.7C1125.64,-136.41 1125.39,-127.73 1125.66,-119.54"/>
<polygon fill="gold" stroke="gold" points="1129.15,-119.82 1126.31,-109.61 1122.16,-119.36 1129.15,-119.82"/>
</g>
<!-- wayland&#45;session@Hyprland.target&#45;&gt;graphical&#45;session.target -->
<g id="edge36" class="edge">
<title>wayland&#45;session@Hyprland.target&#45;&gt;graphical&#45;session.target</title>
<path fill="none" stroke="gold" d="M801.12,-251.96C775.67,-261.94 742.11,-274.6 713.47,-285.05"/>
<polygon fill="gold" stroke="gold" points="712.39,-281.72 704.18,-288.42 714.78,-288.3 712.39,-281.72"/>
</g>
<!-- wayland&#45;session@Hyprland.target&#45;&gt;graphical&#45;session&#45;pre.target -->
<g id="edge34" class="edge">
<title>wayland&#45;session@Hyprland.target&#45;&gt;graphical&#45;session&#45;pre.target</title>
<path fill="none" stroke="green" d="M795.04,-216.23C768.5,-206.41 734.79,-193.92 706.68,-183.51"/>
<polygon fill="green" stroke="green" points="708.22,-180.35 697.63,-180.16 705.79,-186.91 708.22,-180.35"/>
</g>
<!-- wayland&#45;session@Hyprland.target&#45;&gt;wayland&#45;session&#45;pre@Hyprland.target -->
<g id="edge33" class="edge">
<title>wayland&#45;session@Hyprland.target&#45;&gt;wayland&#45;session&#45;pre@Hyprland.target</title>
<path fill="none" stroke="green" d="M831.06,-215.8C825.15,-196.99 817.67,-166.54 803.31,-144 796.71,-133.65 787.58,-124.03 778.91,-115.9"/>
<polygon fill="green" stroke="green" points="781.39,-113.42 771.62,-109.31 776.69,-118.61 781.39,-113.42"/>
</g>
<!-- wayland&#45;session@Hyprland.target&#45;&gt;wayland&#45;session&#45;pre@Hyprland.target -->
<g id="edge35" class="edge">
<title>wayland&#45;session@Hyprland.target&#45;&gt;wayland&#45;session&#45;pre@Hyprland.target</title>
<path fill="none" stroke="black" d="M844.24,-215.8C843.15,-196.99 835.67,-166.54 821.31,-144 814.51,-133.35 805.04,-123.46 795.29,-115.19"/>
<polygon fill="black" stroke="black" points="797.52,-112.49 787.51,-109 793.16,-117.97 797.52,-112.49"/>
</g>
<!-- wayland&#45;session@Hyprland.target&#45;&gt;wayland&#45;session&#45;xdg&#45;autostart@Hyprland.target -->
<g id="edge37" class="edge">
<title>wayland&#45;session@Hyprland.target&#45;&gt;wayland&#45;session&#45;xdg&#45;autostart@Hyprland.target</title>
<path fill="none" stroke="#a8a8a8" d="M902.59,-216.68C944.33,-206.39 999.81,-193.07 1045.82,-182.27"/>
<polygon fill="#a8a8a8" stroke="#a8a8a8" points="1046.58,-185.69 1055.52,-180 1044.98,-178.87 1046.58,-185.69"/>
</g>
<!-- xdg&#45;desktop&#45;autostart.target&#45;&gt;wayland&#45;session&#45;xdg&#45;autostart@Hyprland.target -->
<g id="edge32" class="edge">
<title>xdg&#45;desktop&#45;autostart.target&#45;&gt;wayland&#45;session&#45;xdg&#45;autostart@Hyprland.target</title>
<path fill="none" stroke="green" d="M1138.2,-108.1C1138.96,-115.37 1139.22,-124.04 1138.96,-132.24"/>
<polygon fill="green" stroke="green" points="1135.47,-131.98 1138.32,-142.19 1142.45,-132.43 1135.47,-131.98"/>
</g>
<!-- app&#45;Hyprland&#45;mako&#45;fadfde20.scope -->
<g id="node20" class="node">
<title>app&#45;Hyprland&#45;mako&#45;fadfde20.scope</title>
<ellipse fill="none" stroke="black" cx="615.31" cy="-450" rx="188.52" ry="18"/>
<text text-anchor="middle" x="615.31" y="-445.32" font-family="Times,serif" font-size="14.00">app&#45;Hyprland&#45;mako&#45;fadfde20.scope</text>
</g>
<!-- app&#45;Hyprland&#45;mako&#45;fadfde20.scope&#45;&gt;app&#45;graphical.slice -->
<g id="edge28" class="edge">
<title>app&#45;Hyprland&#45;mako&#45;fadfde20.scope&#45;&gt;app&#45;graphical.slice</title>
<path fill="none" stroke="green" d="M658.81,-432.05C687.9,-421.69 726.51,-408.43 758.6,-397.75"/>
<polygon fill="green" stroke="green" points="759.38,-401.18 767.77,-394.71 757.18,-394.54 759.38,-401.18"/>
</g>
<!-- app&#45;Hyprland&#45;mako&#45;fadfde20.scope&#45;&gt;app&#45;graphical.slice -->
<g id="edge29" class="edge">
<title>app&#45;Hyprland&#45;mako&#45;fadfde20.scope&#45;&gt;app&#45;graphical.slice</title>
<path fill="none" stroke="black" d="M669.76,-432.32C700.24,-422.24 737.96,-409.33 767.93,-398.74"/>
<polygon fill="black" stroke="black" points="768.92,-402.1 777.17,-395.46 766.58,-395.5 768.92,-402.1"/>
</g>
<!-- app&#45;Hyprland&#45;waybar&#45;f22c4d08.scope -->
<g id="node21" class="node">
<title>app&#45;Hyprland&#45;waybar&#45;f22c4d08.scope</title>
<ellipse fill="none" stroke="black" cx="1023.31" cy="-450" rx="201.15" ry="18"/>
<text text-anchor="middle" x="1023.31" y="-445.32" font-family="Times,serif" font-size="14.00">app&#45;Hyprland&#45;waybar&#45;f22c4d08.scope</text>
</g>
<!-- app&#45;Hyprland&#45;waybar&#45;f22c4d08.scope&#45;&gt;app&#45;graphical.slice -->
<g id="edge30" class="edge">
<title>app&#45;Hyprland&#45;waybar&#45;f22c4d08.scope&#45;&gt;app&#45;graphical.slice</title>
<path fill="none" stroke="green" d="M968.58,-432.23C938.21,-422.18 900.72,-409.35 870.86,-398.8"/>
<polygon fill="green" stroke="green" points="872.26,-395.58 861.67,-395.53 869.92,-402.18 872.26,-395.58"/>
</g>
<!-- app&#45;Hyprland&#45;waybar&#45;f22c4d08.scope&#45;&gt;app&#45;graphical.slice -->
<g id="edge31" class="edge">
<title>app&#45;Hyprland&#45;waybar&#45;f22c4d08.scope&#45;&gt;app&#45;graphical.slice</title>
<path fill="none" stroke="black" d="M979.55,-431.97C950.44,-421.6 911.9,-408.36 879.87,-397.71"/>
<polygon fill="black" stroke="black" points="881.31,-394.5 870.72,-394.68 879.11,-401.14 881.31,-394.5"/>
</g>
<!-- app&#45;Hyprland&#45;chromium&#45;26a0f7a1.scope -->
<g id="node22" class="node">
<title>app&#45;Hyprland&#45;chromium&#45;26a0f7a1.scope</title>
<ellipse fill="none" stroke="black" cx="1457.31" cy="-450" rx="214.83" ry="18"/>
<text text-anchor="middle" x="1457.31" y="-445.32" font-family="Times,serif" font-size="14.00">app&#45;Hyprland&#45;chromium&#45;26a0f7a1.scope</text>
</g>
<!-- app&#45;Hyprland&#45;chromium&#45;26a0f7a1.scope&#45;&gt;app&#45;graphical.slice -->
<g id="edge45" class="edge">
<title>app&#45;Hyprland&#45;chromium&#45;26a0f7a1.scope&#45;&gt;app&#45;graphical.slice</title>
<path fill="none" stroke="green" d="M1309.27,-436.6C1202.09,-426.84 1053.94,-412.21 924.31,-396 917.19,-395.11 909.82,-394.13 902.45,-393.12"/>
<polygon fill="green" stroke="green" points="903.17,-389.68 892.78,-391.76 902.2,-396.62 903.17,-389.68"/>
</g>
<!-- app&#45;Hyprland&#45;chromium&#45;26a0f7a1.scope&#45;&gt;app&#45;graphical.slice -->
<g id="edge46" class="edge">
<title>app&#45;Hyprland&#45;chromium&#45;26a0f7a1.scope&#45;&gt;app&#45;graphical.slice</title>
<path fill="none" stroke="black" d="M1317.26,-435.95C1213.62,-426.2 1069.1,-411.86 942.31,-396 931.99,-394.71 921.17,-393.24 910.39,-391.72"/>
<polygon fill="black" stroke="black" points="911.09,-388.29 900.7,-390.34 910.1,-395.22 911.09,-388.29"/>
</g>
<!-- app&#45;org.chromium.Chromium&#45;326682.scope -->
<g id="node23" class="node">
<title>app&#45;org.chromium.Chromium&#45;326682.scope</title>
<ellipse fill="none" stroke="black" cx="1174.31" cy="-378" rx="231.66" ry="18"/>
<text text-anchor="middle" x="1174.31" y="-373.32" font-family="Times,serif" font-size="14.00">app&#45;org.chromium.Chromium&#45;326682.scope</text>
</g>
<!-- app&#45;org.chromium.Chromium&#45;326682.scope&#45;&gt;app.slice -->
<g id="edge47" class="edge">
<title>app&#45;org.chromium.Chromium&#45;326682.scope&#45;&gt;app.slice</title>
<path fill="none" stroke="green" d="M1147.38,-359.7C1136.04,-351.09 1123.07,-340.55 1112.2,-331.17"/>
<polygon fill="green" stroke="green" points="1114.6,-328.62 1104.78,-324.62 1109.96,-333.86 1114.6,-328.62"/>
</g>
<!-- app&#45;org.chromium.Chromium&#45;326682.scope&#45;&gt;app.slice -->
<g id="edge48" class="edge">
<title>app&#45;org.chromium.Chromium&#45;326682.scope&#45;&gt;app.slice</title>
<path fill="none" stroke="black" d="M1159.21,-359.7C1149,-350.51 1135.31,-339.11 1122.69,-329.27"/>
<polygon fill="black" stroke="black" points="1125.03,-326.66 1114.96,-323.36 1120.77,-332.21 1125.03,-326.66"/>
</g>
<!-- background&#45;graphical.slice -->
<g id="node24" class="node">
<title>background&#45;graphical.slice</title>
<ellipse fill="none" stroke="black" cx="550.31" cy="-378" rx="145.91" ry="18"/>
<text text-anchor="middle" x="550.31" y="-373.32" font-family="Times,serif" font-size="14.00">background&#45;graphical.slice</text>
</g>
<!-- background&#45;graphical.slice&#45;&gt;graphical&#45;session.target -->
<g id="edge49" class="edge">
<title>background&#45;graphical.slice&#45;&gt;graphical&#45;session.target</title>
<path fill="none" stroke="green" d="M575.75,-359.88C588.94,-351 605.25,-340.02 619.58,-330.37"/>
<polygon fill="green" stroke="green" points="621.53,-333.28 627.87,-324.79 617.62,-327.47 621.53,-333.28"/>
</g>
<!-- background&#45;graphical.slice&#45;&gt;background.slice -->
<g id="edge50" class="edge">
<title>background&#45;graphical.slice&#45;&gt;background.slice</title>
<path fill="none" stroke="green" d="M622.52,-361.98C683.72,-349.89 771.25,-333.02 834.3,-321.16"/>
<polygon fill="green" stroke="green" points="834.71,-324.65 843.9,-319.36 833.42,-317.77 834.71,-324.65"/>
</g>
<!-- background&#45;graphical.slice&#45;&gt;background.slice -->
<g id="edge51" class="edge">
<title>background&#45;graphical.slice&#45;&gt;background.slice</title>
<path fill="none" stroke="black" d="M630.66,-362.58C693.24,-350.81 779.33,-334.21 840.03,-322.23"/>
<polygon fill="black" stroke="black" points="840.45,-325.71 849.58,-320.34 839.09,-318.84 840.45,-325.71"/>
</g>
<!-- podman&#45;pause&#45;467f0d8a.scope -->
<g id="node25" class="node">
<title>podman&#45;pause&#45;467f0d8a.scope</title>
<ellipse fill="none" stroke="black" cx="1590.31" cy="-378" rx="165.9" ry="18"/>
<text text-anchor="middle" x="1590.31" y="-373.32" font-family="Times,serif" font-size="14.00">podman&#45;pause&#45;467f0d8a.scope</text>
</g>
<!-- podman&#45;pause&#45;467f0d8a.scope&#45;&gt;user.slice -->
<g id="edge52" class="edge">
<title>podman&#45;pause&#45;467f0d8a.scope&#45;&gt;user.slice</title>
<path fill="none" stroke="green" d="M1492.5,-363.05C1430.7,-353.26 1349.46,-339.23 1278.31,-324 1275.83,-323.47 1273.3,-322.91 1270.76,-322.33"/>
<polygon fill="green" stroke="green" points="1271.6,-318.93 1261.06,-320.04 1269.99,-325.75 1271.6,-318.93"/>
</g>
<!-- podman&#45;pause&#45;467f0d8a.scope&#45;&gt;user.slice -->
<g id="edge53" class="edge">
<title>podman&#45;pause&#45;467f0d8a.scope&#45;&gt;user.slice</title>
<path fill="none" stroke="black" d="M1503.19,-362.29C1444.53,-352.54 1365.63,-338.84 1296.31,-324 1290.37,-322.73 1284.15,-321.3 1277.94,-319.81"/>
<polygon fill="black" stroke="black" points="1278.83,-316.43 1268.29,-317.48 1277.18,-323.23 1278.83,-316.43"/>
</g>
</g>
</svg>
