<?xml version="1.0" encoding="UTF-8" standalone="no"?>
<!DOCTYPE svg PUBLIC "-//W3C//DTD SVG 1.1//EN"
 "http://www.w3.org/Graphics/SVG/1.1/DTD/svg11.dtd">
<!-- Generated by graphviz version 12.2.1 (0)
 -->
<!-- Title: systemd Pages: 1 -->
<svg width="1253pt" height="260pt"
 viewBox="0.00 0.00 1253.23 260.00" xmlns="http://www.w3.org/2000/svg" xmlns:xlink="http://www.w3.org/1999/xlink">
<g id="graph0" class="graph" transform="scale(1 1) rotate(0) translate(4 256)">
<title>systemd</title>
<polygon fill="white" stroke="none" points="-4,4 -4,-256 1249.23,-256 1249.23,4 -4,4"/>
<!-- xdg&#45;document&#45;portal.service -->
<g id="node1" class="node">
<title>xdg&#45;document&#45;portal.service</title>
<ellipse fill="none" stroke="black" cx="154.33" cy="-90" rx="154.33" ry="18"/>
<text text-anchor="middle" x="154.33" y="-85.33" font-family="Times,serif" font-size="14.00">xdg&#45;document&#45;portal.service</text>
</g>
<!-- dbus&#45;broker.service -->
<g id="node2" class="node">
<title>dbus&#45;broker.service</title>
<ellipse fill="none" stroke="black" cx="495.33" cy="-18" rx="109.61" ry="18"/>
<text text-anchor="middle" x="495.33" y="-13.32" font-family="Times,serif" font-size="14.00">dbus&#45;broker.service</text>
</g>
<!-- xdg&#45;document&#45;portal.service&#45;&gt;dbus&#45;broker.service -->
<g id="edge1" class="edge">
<title>xdg&#45;document&#45;portal.service&#45;&gt;dbus&#45;broker.service</title>
<path fill="none" stroke="green" d="M223.87,-73.55C279.14,-61.92 356.47,-46.05 414.49,-34.42"/>
<polygon fill="green" stroke="green" points="414.85,-37.92 423.97,-32.53 413.48,-31.06 414.85,-37.92"/>
</g>
<!-- xdg&#45;document&#45;portal.service&#45;&gt;dbus&#45;broker.service -->
<g id="edge2" class="edge">
<title>xdg&#45;document&#45;portal.service&#45;&gt;dbus&#45;broker.service</title>
<path fill="none" stroke="black" d="M232.71,-74.07C289.29,-62.74 365.15,-47.18 420.82,-35.49"/>
<polygon fill="black" stroke="black" points="421.48,-38.93 430.54,-33.44 420.04,-32.08 421.48,-38.93"/>
</g>
<!-- hypridleSmartcard.service -->
<g id="node3" class="node">
<title>hypridleSmartcard.service</title>
<ellipse fill="none" stroke="black" cx="782.33" cy="-234" rx="144.86" ry="18"/>
<text text-anchor="middle" x="782.33" y="-229.32" font-family="Times,serif" font-size="14.00">hypridleSmartcard.service</text>
</g>
<!-- hypridle.service -->
<g id="node4" class="node">
<title>hypridle.service</title>
<ellipse fill="none" stroke="black" cx="782.33" cy="-162" rx="91.72" ry="18"/>
<text text-anchor="middle" x="782.33" y="-157.32" font-family="Times,serif" font-size="14.00">hypridle.service</text>
</g>
<!-- hypridleSmartcard.service&#45;&gt;hypridle.service -->
<g id="edge3" class="edge">
<title>hypridleSmartcard.service&#45;&gt;hypridle.service</title>
<path fill="none" stroke="green" d="M770.49,-215.7C768.97,-208.32 768.49,-199.52 769.05,-191.25"/>
<polygon fill="green" stroke="green" points="772.48,-191.98 770.34,-181.6 765.55,-191.06 772.48,-191.98"/>
</g>
<!-- hypridleSmartcard.service&#45;&gt;hypridle.service -->
<g id="edge4" class="edge">
<title>hypridleSmartcard.service&#45;&gt;hypridle.service</title>
<path fill="none" stroke="red" d="M782.33,-215.7C782.33,-208.41 782.33,-199.73 782.33,-191.54"/>
<polygon fill="red" stroke="red" points="785.83,-191.62 782.33,-181.62 778.83,-191.62 785.83,-191.62"/>
</g>
<!-- hypridle.service&#45;&gt;hypridleSmartcard.service -->
<g id="edge12" class="edge">
<title>hypridle.service&#45;&gt;hypridleSmartcard.service</title>
<path fill="none" stroke="red" d="M794.12,-180.1C795.66,-187.45 796.16,-196.24 795.61,-204.53"/>
<polygon fill="red" stroke="red" points="792.18,-203.83 794.35,-214.2 799.12,-204.73 792.18,-203.83"/>
</g>
<!-- pipewire&#45;pulse.service -->
<g id="node5" class="node">
<title>pipewire&#45;pulse.service</title>
<ellipse fill="none" stroke="black" cx="495.33" cy="-234" rx="123.81" ry="18"/>
<text text-anchor="middle" x="495.33" y="-229.32" font-family="Times,serif" font-size="14.00">pipewire&#45;pulse.service</text>
</g>
<!-- pipewire.service -->
<g id="node6" class="node">
<title>pipewire.service</title>
<ellipse fill="none" stroke="black" cx="495.33" cy="-162" rx="93.82" ry="18"/>
<text text-anchor="middle" x="495.33" y="-157.32" font-family="Times,serif" font-size="14.00">pipewire.service</text>
</g>
<!-- pipewire&#45;pulse.service&#45;&gt;pipewire.service -->
<g id="edge5" class="edge">
<title>pipewire&#45;pulse.service&#45;&gt;pipewire.service</title>
<path fill="none" stroke="green" d="M489.41,-215.7C488.66,-208.41 488.41,-199.73 488.68,-191.54"/>
<polygon fill="green" stroke="green" points="492.17,-191.82 489.33,-181.61 485.18,-191.36 492.17,-191.82"/>
</g>
<!-- pipewire&#45;pulse.service&#45;&gt;pipewire.service -->
<g id="edge6" class="edge">
<title>pipewire&#45;pulse.service&#45;&gt;pipewire.service</title>
<path fill="none" stroke="#a8a8a8" d="M501.24,-215.7C501.99,-208.41 502.24,-199.73 501.97,-191.54"/>
<polygon fill="#a8a8a8" stroke="#a8a8a8" points="505.47,-191.36 501.32,-181.61 498.48,-191.82 505.47,-191.36"/>
</g>
<!-- pipewire.service&#45;&gt;dbus&#45;broker.service -->
<g id="edge9" class="edge">
<title>pipewire.service&#45;&gt;dbus&#45;broker.service</title>
<path fill="none" stroke="black" d="M426.19,-149.46C402.3,-141.78 378.13,-129.05 364.33,-108 355.55,-94.62 355.55,-85.38 364.33,-72 375.39,-55.14 393.1,-43.61 411.99,-35.74"/>
<polygon fill="black" stroke="black" points="413.05,-39.09 421.16,-32.27 410.57,-32.54 413.05,-39.09"/>
</g>
<!-- pipewire.service&#45;&gt;dbus&#45;broker.service -->
<g id="edge10" class="edge">
<title>pipewire.service&#45;&gt;dbus&#45;broker.service</title>
<path fill="none" stroke="gold" d="M437.2,-147.46C416.38,-139.62 394.99,-127.31 382.33,-108 373.55,-94.62 373.55,-85.38 382.33,-72 392.45,-56.57 408.14,-45.61 424.66,-37.83"/>
<polygon fill="gold" stroke="gold" points="425.81,-41.14 433.62,-33.98 423.05,-34.71 425.81,-41.14"/>
</g>
<!-- wireplumber.service -->
<g id="node8" class="node">
<title>wireplumber.service</title>
<ellipse fill="none" stroke="black" cx="495.33" cy="-90" rx="113.29" ry="18"/>
<text text-anchor="middle" x="495.33" y="-85.33" font-family="Times,serif" font-size="14.00">wireplumber.service</text>
</g>
<!-- pipewire.service&#45;&gt;wireplumber.service -->
<g id="edge11" class="edge">
<title>pipewire.service&#45;&gt;wireplumber.service</title>
<path fill="none" stroke="#a8a8a8" d="M483.49,-143.7C481.97,-136.32 481.49,-127.52 482.05,-119.25"/>
<polygon fill="#a8a8a8" stroke="#a8a8a8" points="485.48,-119.98 483.34,-109.6 478.55,-119.06 485.48,-119.98"/>
</g>
<!-- xdg&#45;desktop&#45;portal.service -->
<g id="node7" class="node">
<title>xdg&#45;desktop&#45;portal.service</title>
<ellipse fill="none" stroke="black" cx="771.33" cy="-90" rx="144.33" ry="18"/>
<text text-anchor="middle" x="771.33" y="-85.33" font-family="Times,serif" font-size="14.00">xdg&#45;desktop&#45;portal.service</text>
</g>
<!-- xdg&#45;desktop&#45;portal.service&#45;&gt;dbus&#45;broker.service -->
<g id="edge7" class="edge">
<title>xdg&#45;desktop&#45;portal.service&#45;&gt;dbus&#45;broker.service</title>
<path fill="none" stroke="green" d="M705.06,-73.64C661.13,-62.83 603.84,-48.32 560.21,-36.97"/>
<polygon fill="green" stroke="green" points="561.16,-33.61 550.6,-34.47 559.4,-40.38 561.16,-33.61"/>
</g>
<!-- xdg&#45;desktop&#45;portal.service&#45;&gt;dbus&#45;broker.service -->
<g id="edge8" class="edge">
<title>xdg&#45;desktop&#45;portal.service&#45;&gt;dbus&#45;broker.service</title>
<path fill="none" stroke="black" d="M714.12,-73.03C671.74,-61.96 613.73,-47.24 568.06,-35.96"/>
<polygon fill="black" stroke="black" points="569.05,-32.59 558.5,-33.6 567.37,-39.39 569.05,-32.59"/>
</g>
<!-- wireplumber.service&#45;&gt;dbus&#45;broker.service -->
<g id="edge15" class="edge">
<title>wireplumber.service&#45;&gt;dbus&#45;broker.service</title>
<path fill="none" stroke="green" d="M495.33,-71.7C495.33,-64.41 495.33,-55.73 495.33,-47.54"/>
<polygon fill="green" stroke="green" points="498.83,-47.62 495.33,-37.62 491.83,-47.62 498.83,-47.62"/>
</g>
<!-- wireplumber.service&#45;&gt;pipewire.service -->
<g id="edge16" class="edge">
<title>wireplumber.service&#45;&gt;pipewire.service</title>
<path fill="none" stroke="green" d="M495.33,-108.1C495.33,-115.37 495.33,-124.04 495.33,-132.24"/>
<polygon fill="green" stroke="green" points="491.83,-132.18 495.33,-142.18 498.83,-132.18 491.83,-132.18"/>
</g>
<!-- wireplumber.service&#45;&gt;pipewire.service -->
<g id="edge17" class="edge">
<title>wireplumber.service&#45;&gt;pipewire.service</title>
<path fill="none" stroke="gold" d="M507.12,-108.1C508.66,-115.45 509.16,-124.24 508.61,-132.53"/>
<polygon fill="gold" stroke="gold" points="505.18,-131.83 507.35,-142.2 512.12,-132.73 505.18,-131.83"/>
</g>
<!-- xdg&#45;permission&#45;store.service -->
<g id="node9" class="node">
<title>xdg&#45;permission&#45;store.service</title>
<ellipse fill="none" stroke="black" cx="1089.33" cy="-90" rx="155.9" ry="18"/>
<text text-anchor="middle" x="1089.33" y="-85.33" font-family="Times,serif" font-size="14.00">xdg&#45;permission&#45;store.service</text>
</g>
<!-- xdg&#45;permission&#45;store.service&#45;&gt;dbus&#45;broker.service -->
<g id="edge13" class="edge">
<title>xdg&#45;permission&#45;store.service&#45;&gt;dbus&#45;broker.service</title>
<path fill="none" stroke="green" d="M980.25,-76.77C869.01,-63.89 698.15,-43.76 591.73,-30.98"/>
<polygon fill="green" stroke="green" points="592.21,-27.51 581.86,-29.79 591.37,-34.46 592.21,-27.51"/>
</g>
<!-- xdg&#45;permission&#45;store.service&#45;&gt;dbus&#45;broker.service -->
<g id="edge14" class="edge">
<title>xdg&#45;permission&#45;store.service&#45;&gt;dbus&#45;broker.service</title>
<path fill="none" stroke="black" d="M985.74,-76.16C875.91,-62.99 703.71,-42.71 595.28,-30.18"/>
<polygon fill="black" stroke="black" points="595.85,-26.72 585.51,-29.05 595.05,-33.67 595.85,-26.72"/>
</g>
</g>
</svg>
