<?xml version="1.0" encoding="UTF-8" standalone="no"?>
<!DOCTYPE svg PUBLIC "-//W3C//DTD SVG 1.1//EN"
 "http://www.w3.org/Graphics/SVG/1.1/DTD/svg11.dtd">
<!-- Generated by graphviz version 12.2.1 (0)
 -->
<!-- Title: systemd Pages: 1 -->
<svg width="1264pt" height="260pt"
 viewBox="0.00 0.00 1263.72 260.00" xmlns="http://www.w3.org/2000/svg" xmlns:xlink="http://www.w3.org/1999/xlink">
<g id="graph0" class="graph" transform="scale(1 1) rotate(0) translate(4 256)">
<title>systemd</title>
<polygon fill="white" stroke="none" points="-4,4 -4,-256 1259.72,-256 1259.72,4 -4,4"/>
<!-- xdg&#45;permission&#45;store.service -->
<g id="node1" class="node">
<title>xdg&#45;permission&#45;store.service</title>
<ellipse fill="none" stroke="black" cx="155.9" cy="-90" rx="155.9" ry="18"/>
<text text-anchor="middle" x="155.9" y="-85.33" font-family="Times,serif" font-size="14.00">xdg&#45;permission&#45;store.service</text>
</g>
<!-- dbus&#45;broker.service -->
<g id="node2" class="node">
<title>dbus&#45;broker.service</title>
<ellipse fill="none" stroke="black" cx="800.9" cy="-18" rx="109.61" ry="18"/>
<text text-anchor="middle" x="800.9" y="-13.32" font-family="Times,serif" font-size="14.00">dbus&#45;broker.service</text>
</g>
<!-- xdg&#45;permission&#45;store.service&#45;&gt;dbus&#45;broker.service -->
<g id="edge1" class="edge">
<title>xdg&#45;permission&#45;store.service&#45;&gt;dbus&#45;broker.service</title>
<path fill="none" stroke="green" d="M264.08,-76.69C385.21,-63.32 579.97,-42.19 698.64,-29.56"/>
<polygon fill="green" stroke="green" points="698.8,-33.06 708.38,-28.52 698.06,-26.1 698.8,-33.06"/>
</g>
<!-- xdg&#45;permission&#45;store.service&#45;&gt;dbus&#45;broker.service -->
<g id="edge2" class="edge">
<title>xdg&#45;permission&#45;store.service&#45;&gt;dbus&#45;broker.service</title>
<path fill="none" stroke="black" d="M269.05,-77.28C391.59,-64.21 585.05,-43.22 701.8,-30.31"/>
<polygon fill="black" stroke="black" points="702.15,-33.79 711.7,-29.22 701.38,-26.84 702.15,-33.79"/>
</g>
<!-- xdg&#45;document&#45;portal.service -->
<g id="node3" class="node">
<title>xdg&#45;document&#45;portal.service</title>
<ellipse fill="none" stroke="black" cx="483.9" cy="-90" rx="154.33" ry="18"/>
<text text-anchor="middle" x="483.9" y="-85.33" font-family="Times,serif" font-size="14.00">xdg&#45;document&#45;portal.service</text>
</g>
<!-- xdg&#45;document&#45;portal.service&#45;&gt;dbus&#45;broker.service -->
<g id="edge3" class="edge">
<title>xdg&#45;document&#45;portal.service&#45;&gt;dbus&#45;broker.service</title>
<path fill="none" stroke="green" d="M549.3,-73.29C599.69,-61.87 669.45,-46.46 722.77,-34.98"/>
<polygon fill="green" stroke="green" points="723.37,-38.43 732.41,-32.91 721.9,-31.59 723.37,-38.43"/>
</g>
<!-- xdg&#45;document&#45;portal.service&#45;&gt;dbus&#45;broker.service -->
<g id="edge4" class="edge">
<title>xdg&#45;document&#45;portal.service&#45;&gt;dbus&#45;broker.service</title>
<path fill="none" stroke="black" d="M558.37,-73.81C610.19,-62.67 678.83,-47.53 729.89,-35.98"/>
<polygon fill="black" stroke="black" points="730.37,-39.46 739.35,-33.84 728.82,-32.63 730.37,-39.46"/>
</g>
<!-- xdg&#45;desktop&#45;portal.service -->
<g id="node4" class="node">
<title>xdg&#45;desktop&#45;portal.service</title>
<ellipse fill="none" stroke="black" cx="800.9" cy="-90" rx="144.33" ry="18"/>
<text text-anchor="middle" x="800.9" y="-85.33" font-family="Times,serif" font-size="14.00">xdg&#45;desktop&#45;portal.service</text>
</g>
<!-- xdg&#45;desktop&#45;portal.service&#45;&gt;dbus&#45;broker.service -->
<g id="edge5" class="edge">
<title>xdg&#45;desktop&#45;portal.service&#45;&gt;dbus&#45;broker.service</title>
<path fill="none" stroke="green" d="M794.99,-71.7C794.24,-64.41 793.99,-55.73 794.26,-47.54"/>
<polygon fill="green" stroke="green" points="797.75,-47.82 794.91,-37.61 790.76,-47.36 797.75,-47.82"/>
</g>
<!-- xdg&#45;desktop&#45;portal.service&#45;&gt;dbus&#45;broker.service -->
<g id="edge6" class="edge">
<title>xdg&#45;desktop&#45;portal.service&#45;&gt;dbus&#45;broker.service</title>
<path fill="none" stroke="black" d="M806.82,-71.7C807.57,-64.41 807.82,-55.73 807.55,-47.54"/>
<polygon fill="black" stroke="black" points="811.05,-47.36 806.9,-37.61 804.06,-47.82 811.05,-47.36"/>
</g>
<!-- pipewire.service -->
<g id="node5" class="node">
<title>pipewire.service</title>
<ellipse fill="none" stroke="black" cx="1131.9" cy="-162" rx="93.82" ry="18"/>
<text text-anchor="middle" x="1131.9" y="-157.32" font-family="Times,serif" font-size="14.00">pipewire.service</text>
</g>
<!-- pipewire.service&#45;&gt;dbus&#45;broker.service -->
<g id="edge7" class="edge">
<title>pipewire.service&#45;&gt;dbus&#45;broker.service</title>
<path fill="none" stroke="black" d="M1085.21,-145.96C1059.63,-136.11 1027.89,-122.42 1000.9,-108 974.81,-94.06 971.52,-84.93 944.9,-72 917.35,-58.61 885.53,-47.01 858.76,-38.11"/>
<polygon fill="black" stroke="black" points="860.04,-34.85 849.44,-35.06 857.86,-41.5 860.04,-34.85"/>
</g>
<!-- pipewire.service&#45;&gt;dbus&#45;broker.service -->
<g id="edge8" class="edge">
<title>pipewire.service&#45;&gt;dbus&#45;broker.service</title>
<path fill="none" stroke="gold" d="M1098.07,-144.83C1075.24,-135.07 1044.87,-121.87 1018.9,-108 992.81,-94.06 989.52,-84.93 962.9,-72 933.98,-57.94 900.36,-45.87 871.21,-36.81"/>
<polygon fill="gold" stroke="gold" points="872.31,-33.48 861.72,-33.93 870.27,-40.18 872.31,-33.48"/>
</g>
<!-- wireplumber.service -->
<g id="node6" class="node">
<title>wireplumber.service</title>
<ellipse fill="none" stroke="black" cx="1131.9" cy="-90" rx="113.29" ry="18"/>
<text text-anchor="middle" x="1131.9" y="-85.33" font-family="Times,serif" font-size="14.00">wireplumber.service</text>
</g>
<!-- pipewire.service&#45;&gt;wireplumber.service -->
<g id="edge9" class="edge">
<title>pipewire.service&#45;&gt;wireplumber.service</title>
<path fill="none" stroke="#a8a8a8" d="M1120.07,-143.7C1118.55,-136.32 1118.07,-127.52 1118.63,-119.25"/>
<polygon fill="#a8a8a8" stroke="#a8a8a8" points="1122.06,-119.98 1119.91,-109.6 1115.12,-119.06 1122.06,-119.98"/>
</g>
<!-- wireplumber.service&#45;&gt;dbus&#45;broker.service -->
<g id="edge13" class="edge">
<title>wireplumber.service&#45;&gt;dbus&#45;broker.service</title>
<path fill="none" stroke="green" d="M1065.72,-75C1011.42,-63.52 934.49,-47.25 877.52,-35.2"/>
<polygon fill="green" stroke="green" points="878.4,-31.81 867.89,-33.17 876.95,-38.66 878.4,-31.81"/>
</g>
<!-- wireplumber.service&#45;&gt;pipewire.service -->
<g id="edge12" class="edge">
<title>wireplumber.service&#45;&gt;pipewire.service</title>
<path fill="none" stroke="green" d="M1131.9,-108.1C1131.9,-115.37 1131.9,-124.04 1131.9,-132.24"/>
<polygon fill="green" stroke="green" points="1128.4,-132.18 1131.9,-142.18 1135.4,-132.18 1128.4,-132.18"/>
</g>
<!-- wireplumber.service&#45;&gt;pipewire.service -->
<g id="edge14" class="edge">
<title>wireplumber.service&#45;&gt;pipewire.service</title>
<path fill="none" stroke="gold" d="M1143.69,-108.1C1145.23,-115.45 1145.73,-124.24 1145.19,-132.53"/>
<polygon fill="gold" stroke="gold" points="1141.75,-131.83 1143.93,-142.2 1148.7,-132.73 1141.75,-131.83"/>
</g>
<!-- pipewire&#45;pulse.service -->
<g id="node7" class="node">
<title>pipewire&#45;pulse.service</title>
<ellipse fill="none" stroke="black" cx="1131.9" cy="-234" rx="123.81" ry="18"/>
<text text-anchor="middle" x="1131.9" y="-229.32" font-family="Times,serif" font-size="14.00">pipewire&#45;pulse.service</text>
</g>
<!-- pipewire&#45;pulse.service&#45;&gt;pipewire.service -->
<g id="edge10" class="edge">
<title>pipewire&#45;pulse.service&#45;&gt;pipewire.service</title>
<path fill="none" stroke="green" d="M1125.99,-215.7C1125.24,-208.41 1124.99,-199.73 1125.26,-191.54"/>
<polygon fill="green" stroke="green" points="1128.75,-191.82 1125.91,-181.61 1121.76,-191.36 1128.75,-191.82"/>
</g>
<!-- pipewire&#45;pulse.service&#45;&gt;pipewire.service -->
<g id="edge11" class="edge">
<title>pipewire&#45;pulse.service&#45;&gt;pipewire.service</title>
<path fill="none" stroke="#a8a8a8" d="M1137.82,-215.7C1138.57,-208.41 1138.82,-199.73 1138.55,-191.54"/>
<polygon fill="#a8a8a8" stroke="#a8a8a8" points="1142.05,-191.36 1137.9,-181.61 1135.06,-191.82 1142.05,-191.36"/>
</g>
</g>
</svg>
