<svg xmlns="http://www.w3.org/2000/svg" xmlns:xlink="http://www.w3.org/1999/xlink" contentStyleType="text/css" data-diagram-type="JSON" height="383px" preserveAspectRatio="none" style="width:1438px;height:383px;background:#FFFFFF;" version="1.1" viewBox="0 0 1438 383" width="1438px" zoomAndPan="magnify"><defs/><g><rect fill="#F1F1F1" height="263.8594" rx="5" ry="5" style="stroke:#F1F1F1;stroke-width:1.5;" width="1143.5273" x="10" y="10"/><text fill="#000000" font-family="sans-serif" font-size="14" font-weight="bold" lengthAdjust="spacing" textLength="14.8203" x="15" y="24.9951">id</text><text fill="#000000" font-family="sans-serif" font-size="14" lengthAdjust="spacing" textLength="102.7031" x="255.624" y="24.9951">openai/gpt-4.1</text><line style="stroke:#000000;stroke-width:1;" x1="250.624" x2="250.624" y1="10" y2="30.2969"/><line style="stroke:#000000;stroke-width:1;" x1="10" x2="1153.5273" y1="30.2969" y2="30.2969"/><text fill="#000000" font-family="sans-serif" font-size="14" font-weight="bold" lengthAdjust="spacing" textLength="43.4971" x="15" y="45.292">name</text><text fill="#000000" font-family="sans-serif" font-size="14" lengthAdjust="spacing" textLength="110.708" x="255.624" y="45.292">OpenAI GPT-4.1</text><line style="stroke:#000000;stroke-width:1;" x1="250.624" x2="250.624" y1="30.2969" y2="50.5938"/><line style="stroke:#000000;stroke-width:1;" x1="10" x2="1153.5273" y1="50.5938" y2="50.5938"/><text fill="#000000" font-family="sans-serif" font-size="14" font-weight="bold" lengthAdjust="spacing" textLength="74.3066" x="15" y="65.5889">publisher</text><text fill="#000000" font-family="sans-serif" font-size="14" lengthAdjust="spacing" textLength="51.0986" x="255.624" y="65.5889">OpenAI</text><line style="stroke:#000000;stroke-width:1;" x1="250.624" x2="250.624" y1="50.5938" y2="70.8906"/><line style="stroke:#000000;stroke-width:1;" x1="10" x2="1153.5273" y1="70.8906" y2="70.8906"/><text fill="#000000" font-family="sans-serif" font-size="14" font-weight="bold" lengthAdjust="spacing" textLength="62.2754" x="15" y="85.8857">registry</text><text fill="#000000" font-family="sans-serif" font-size="14" lengthAdjust="spacing" textLength="91.6289" x="255.624" y="85.8857">azure-openai</text><line style="stroke:#000000;stroke-width:1;" x1="250.624" x2="250.624" y1="70.8906" y2="91.1875"/><line style="stroke:#000000;stroke-width:1;" x1="10" x2="1153.5273" y1="91.1875" y2="91.1875"/><text fill="#000000" font-family="sans-serif" font-size="14" font-weight="bold" lengthAdjust="spacing" textLength="72.9531" x="15" y="106.1826">summary</text><text fill="#000000" font-family="sans-serif" font-size="14" lengthAdjust="spacing" textLength="892.9033" x="255.624" y="106.1826">gpt-4.1 outperforms gpt-4o across the board, with major gains in coding, instruction following, and long-context understanding</text><line style="stroke:#000000;stroke-width:1;" x1="250.624" x2="250.624" y1="91.1875" y2="111.4844"/><line style="stroke:#000000;stroke-width:1;" x1="10" x2="1153.5273" y1="111.4844" y2="111.4844"/><text fill="#000000" font-family="sans-serif" font-size="14" font-weight="bold" lengthAdjust="spacing" textLength="64.7158" x="15" y="126.4795">html_url</text><text fill="#000000" font-family="sans-serif" font-size="14" lengthAdjust="spacing" textLength="429.8438" x="255.624" y="126.4795">https://github.com/marketplace/models/azure-openai/gpt-4-1</text><line style="stroke:#000000;stroke-width:1;" x1="250.624" x2="250.624" y1="111.4844" y2="131.7813"/><line style="stroke:#000000;stroke-width:1;" x1="10" x2="1153.5273" y1="131.7813" y2="131.7813"/><text fill="#000000" font-family="sans-serif" font-size="14" font-weight="bold" lengthAdjust="spacing" textLength="58.2422" x="15" y="146.7764">version</text><text fill="#000000" font-family="sans-serif" font-size="14" lengthAdjust="spacing" textLength="81.3613" x="255.624" y="146.7764">2025-04-14</text><line style="stroke:#000000;stroke-width:1;" x1="250.624" x2="250.624" y1="131.7813" y2="152.0781"/><line style="stroke:#000000;stroke-width:1;" x1="10" x2="1153.5273" y1="152.0781" y2="152.0781"/><text fill="#000000" font-family="sans-serif" font-size="14" font-weight="bold" lengthAdjust="spacing" textLength="90.9521" x="15" y="167.0732">capabilities</text><text fill="#000000" font-family="sans-serif" font-size="14" lengthAdjust="spacing" textLength="13.3506" x="255.624" y="167.0732">&#160;&#160;&#160;</text><line style="stroke:#000000;stroke-width:1;" x1="250.624" x2="250.624" y1="152.0781" y2="172.375"/><line style="stroke:#000000;stroke-width:1;" x1="10" x2="1153.5273" y1="172.375" y2="172.375"/><text fill="#000000" font-family="sans-serif" font-size="14" font-weight="bold" lengthAdjust="spacing" textLength="44.0098" x="15" y="187.3701">limits</text><text fill="#000000" font-family="sans-serif" font-size="14" lengthAdjust="spacing" textLength="13.3506" x="255.624" y="187.3701">&#160;&#160;&#160;</text><line style="stroke:#000000;stroke-width:1;" x1="250.624" x2="250.624" y1="172.375" y2="192.6719"/><line style="stroke:#000000;stroke-width:1;" x1="10" x2="1153.5273" y1="192.6719" y2="192.6719"/><text fill="#000000" font-family="sans-serif" font-size="14" font-weight="bold" lengthAdjust="spacing" textLength="110.1064" x="15" y="207.667">rate_limit_tier</text><text fill="#000000" font-family="sans-serif" font-size="14" lengthAdjust="spacing" textLength="30.5225" x="255.624" y="207.667">high</text><line style="stroke:#000000;stroke-width:1;" x1="250.624" x2="250.624" y1="192.6719" y2="212.9688"/><line style="stroke:#000000;stroke-width:1;" x1="10" x2="1153.5273" y1="212.9688" y2="212.9688"/><text fill="#000000" font-family="sans-serif" font-size="14" font-weight="bold" lengthAdjust="spacing" textLength="219.1123" x="15" y="227.9639">supported_input_modalities</text><text fill="#000000" font-family="sans-serif" font-size="14" lengthAdjust="spacing" textLength="13.3506" x="255.624" y="227.9639">&#160;&#160;&#160;</text><line style="stroke:#000000;stroke-width:1;" x1="250.624" x2="250.624" y1="212.9688" y2="233.2656"/><line style="stroke:#000000;stroke-width:1;" x1="10" x2="1153.5273" y1="233.2656" y2="233.2656"/><text fill="#000000" font-family="sans-serif" font-size="14" font-weight="bold" lengthAdjust="spacing" textLength="230.624" x="15" y="248.2607">supported_output_modalities</text><text fill="#000000" font-family="sans-serif" font-size="14" lengthAdjust="spacing" textLength="13.3506" x="255.624" y="248.2607">&#160;&#160;&#160;</text><line style="stroke:#000000;stroke-width:1;" x1="250.624" x2="250.624" y1="233.2656" y2="253.5625"/><line style="stroke:#000000;stroke-width:1;" x1="10" x2="1153.5273" y1="253.5625" y2="253.5625"/><text fill="#000000" font-family="sans-serif" font-size="14" font-weight="bold" lengthAdjust="spacing" textLength="34.4941" x="15" y="268.5576">tags</text><text fill="#000000" font-family="sans-serif" font-size="14" lengthAdjust="spacing" textLength="13.3506" x="255.624" y="268.5576">&#160;&#160;&#160;</text><line style="stroke:#000000;stroke-width:1;" x1="250.624" x2="250.624" y1="253.5625" y2="273.8594"/><rect fill="none" height="263.8594" rx="5" ry="5" style="stroke:#000000;stroke-width:1.5;" width="1143.5273" x="10" y="10"/><rect fill="#F1F1F1" height="40.5938" rx="5" ry="5" style="stroke:#F1F1F1;stroke-width:1.5;" width="87.2666" x="1265.5" y="74.5"/><text fill="#000000" font-family="sans-serif" font-size="14" lengthAdjust="spacing" textLength="71.0186" x="1270.5" y="89.4951">streaming</text><line style="stroke:#000000;stroke-width:1;" x1="1265.5" x2="1352.7666" y1="94.7969" y2="94.7969"/><text fill="#000000" font-family="sans-serif" font-size="14" lengthAdjust="spacing" textLength="77.2666" x="1270.5" y="109.792">tool-calling</text><rect fill="none" height="40.5938" rx="5" ry="5" style="stroke:#000000;stroke-width:1.5;" width="87.2666" x="1265.5" y="74.5"/><rect fill="#F1F1F1" height="40.5938" rx="5" ry="5" style="stroke:#F1F1F1;stroke-width:1.5;" width="235.79" x="1191" y="133.5"/><text fill="#000000" font-family="sans-serif" font-size="14" font-weight="bold" lengthAdjust="spacing" textLength="141.9277" x="1196" y="148.4951">max_input_tokens</text><text fill="#000000" font-family="sans-serif" font-size="14" lengthAdjust="spacing" textLength="62.3506" x="1359.4395" y="148.4951">1048576</text><line style="stroke:#000000;stroke-width:1;" x1="1354.4395" x2="1354.4395" y1="133.5" y2="153.7969"/><line style="stroke:#000000;stroke-width:1;" x1="1191" x2="1426.79" y1="153.7969" y2="153.7969"/><text fill="#000000" font-family="sans-serif" font-size="14" font-weight="bold" lengthAdjust="spacing" textLength="153.4395" x="1196" y="168.792">max_output_tokens</text><text fill="#000000" font-family="sans-serif" font-size="14" lengthAdjust="spacing" textLength="44.5361" x="1359.4395" y="168.792">32768</text><line style="stroke:#000000;stroke-width:1;" x1="1354.4395" x2="1354.4395" y1="153.7969" y2="174.0938"/><rect fill="none" height="40.5938" rx="5" ry="5" style="stroke:#000000;stroke-width:1.5;" width="235.79" x="1191" y="133.5"/><rect fill="#F1F1F1" height="60.8906" rx="5" ry="5" style="stroke:#F1F1F1;stroke-width:1.5;" width="53.6064" x="1282" y="192.5"/><text fill="#000000" font-family="sans-serif" font-size="14" lengthAdjust="spacing" textLength="27.877" x="1287" y="207.4951">text</text><line style="stroke:#000000;stroke-width:1;" x1="1282" x2="1335.6064" y1="212.7969" y2="212.7969"/><text fill="#000000" font-family="sans-serif" font-size="14" lengthAdjust="spacing" textLength="43.6064" x="1287" y="227.792">image</text><line style="stroke:#000000;stroke-width:1;" x1="1282" x2="1335.6064" y1="233.0938" y2="233.0938"/><text fill="#000000" font-family="sans-serif" font-size="14" lengthAdjust="spacing" textLength="38.7939" x="1287" y="248.0889">audio</text><rect fill="none" height="60.8906" rx="5" ry="5" style="stroke:#000000;stroke-width:1.5;" width="53.6064" x="1282" y="192.5"/><rect fill="#F1F1F1" height="20.2969" rx="5" ry="5" style="stroke:#F1F1F1;stroke-width:1.5;" width="37.877" x="1290" y="271.8516"/><text fill="#000000" font-family="sans-serif" font-size="14" lengthAdjust="spacing" textLength="27.877" x="1295" y="286.8467">text</text><rect fill="none" height="20.2969" rx="5" ry="5" style="stroke:#000000;stroke-width:1.5;" width="37.877" x="1290" y="271.8516"/><rect fill="#F1F1F1" height="60.8906" rx="5" ry="5" style="stroke:#F1F1F1;stroke-width:1.5;" width="102.6543" x="1257.5" y="310.5"/><text fill="#000000" font-family="sans-serif" font-size="14" lengthAdjust="spacing" textLength="92.6543" x="1262.5" y="325.4951">multipurpose</text><line style="stroke:#000000;stroke-width:1;" x1="1257.5" x2="1360.1543" y1="330.7969" y2="330.7969"/><text fill="#000000" font-family="sans-serif" font-size="14" lengthAdjust="spacing" textLength="82.6602" x="1262.5" y="345.792">multilingual</text><line style="stroke:#000000;stroke-width:1;" x1="1257.5" x2="1360.1543" y1="351.0938" y2="351.0938"/><text fill="#000000" font-family="sans-serif" font-size="14" lengthAdjust="spacing" textLength="79.3379" x="1262.5" y="366.0889">multimodal</text><rect fill="none" height="60.8906" rx="5" ry="5" style="stroke:#000000;stroke-width:1.5;" width="102.6543" x="1257.5" y="310.5"/><path d="M1142,162 L1155,162 C1178.2644,162 1170.8944,135.7046 1191,124 C1211.3854,112.1325 1236.4879,105.0966 1258.2499,100.9368" fill="none" style="stroke:#000000;stroke-width:1;stroke-dasharray:3,3;"/><path d="M1258.7918,103.9548 L1260.5134,100.5305 L1257.7081,97.9188 L1265.7949,99.5822 L1258.7918,103.9548" fill="#000000"/><ellipse cx="1142" cy="162" fill="#000000" rx="3" ry="3" style="stroke:#000000;stroke-width:1;"/><path d="M1142,183 L1155,183 C1177.2951,183 1201.1001,180.0096 1223.1463,175.9493" fill="none" style="stroke:#000000;stroke-width:1;stroke-dasharray:3,3;"/><path d="M1223.7123,178.911 L1225.3676,175.5247 L1222.5802,172.9875 L1230.5506,174.534 L1223.7123,178.911" fill="#000000"/><ellipse cx="1142" cy="183" fill="#000000" rx="3" ry="3" style="stroke:#000000;stroke-width:1;"/><path d="M1142,223 L1155,223 C1196.2731,223 1243.7886,223 1274.8874,223" fill="none" style="stroke:#000000;stroke-width:1;stroke-dasharray:3,3;"/><path d="M1274.8874,226.0156 L1277.1491,223 L1274.8874,219.9844 L1282.4264,223 L1274.8874,226.0156" fill="#000000"/><ellipse cx="1142" cy="223" fill="#000000" rx="3" ry="3" style="stroke:#000000;stroke-width:1;"/><path d="M1142,243 L1155,243 C1173.3033,243 1173.7064,257.0048 1191,263 C1221.3466,273.5203 1258.1573,278.2698 1282.3961,280.3779" fill="none" style="stroke:#000000;stroke-width:1;stroke-dasharray:3,3;"/><path d="M1282.1488,283.4621 L1284.7093,280.5633 L1282.6434,277.2936 L1290.1068,280.996 L1282.1488,283.4621" fill="#000000"/><ellipse cx="1142" cy="243" fill="#000000" rx="3" ry="3" style="stroke:#000000;stroke-width:1;"/><path d="M1142,264 L1155,264 C1177.9438,264 1171.6048,288.7425 1191,301 C1209.0894,312.4323 1230.8253,321.0141 1250.6568,327.2367" fill="none" style="stroke:#000000;stroke-width:1;stroke-dasharray:3,3;"/><path d="M1249.7821,330.1206 L1252.8197,327.8927 L1251.5314,324.3527 L1257.8666,329.4234 L1249.7821,330.1206" fill="#000000"/><ellipse cx="1142" cy="264" fill="#000000" rx="3" ry="3" style="stroke:#000000;stroke-width:1;"/><!--SRC=[TLBRJXin47tVhnZb2QHi4j90qZpH5egQWehAvQMgeidki6kmFIjxp5NyU-tTXD1AVRFFcJbpvdBe1PtSUhRPImRGKsLl3ZrkoA8QLetaay5UhvyOYuOIzoDodxx1oVdbbcl2IYjVazi6T8IZIdbnJmd7v-0exwGxrWTZi2FNfO23DEHks1aFBSQ0XMFlGMg25QCh-_2Wf0Q3j-oWGcKzA0i5byfM_VYCzK8XYYtSiDRyqC9eIz1igxnWA_Ge46n9BZPlKrfdfnQZby7fvASMQVnyEAnYgR0Q56o6qUeTIQEneA7XahGVlc-fcrQ-diXz58yMajHuDDxFHv6PT5I13QwKLgB8H_vNnD8in16QZPS82BFE2zGwOH7wtIPhPPIaj9Skok3ZKjaco5BuZcnYzaQJsVxqeByDI4Dz7_5XF3sOHVgrsn4ABLlTPRJKhh1MLRrPKTEm4ohNLMBZ-A_rDC-DQsMmeiq7GwbuwtshjJRqNx6t5C7g7MU25jK4rx1_gz5YQKO1zLzOAzugPQzPTaYsRAyyEzTevUhi5DOhWhr1sj1WidE10ejWOJo3qNG- -ZWVxyFnqIKaUZVREJa_1S_15GHbEcgr2kdAThC5tYFy33RMf3cayrySVTy0S6plbMDho4gsk3xR1XnCyizAu89ST0BNPzaHtM1q7ZEwOvx3rUNNV9QTOkgkYjfaioySTTrJv2x-0000]--></g></svg>