<?xml version="1.0" encoding="UTF-8" standalone="no"?>
<!DOCTYPE svg PUBLIC "-//W3C//DTD SVG 1.1//EN"
 "http://www.w3.org/Graphics/SVG/1.1/DTD/svg11.dtd">
<!-- Generated by graphviz version 12.2.1 (0)
 -->
<!-- Pages: 1 -->
<svg width="1511pt" height="118pt"
 viewBox="0.00 0.00 1510.50 118.00" xmlns="http://www.w3.org/2000/svg" xmlns:xlink="http://www.w3.org/1999/xlink">
<g id="graph0" class="graph" transform="scale(1 1) rotate(0) translate(4 114)">
<polygon fill="white" stroke="none" points="-4,4 -4,-114 1506.5,-114 1506.5,4 -4,4"/>
<!-- 824634647552 -->
<g id="node1" class="node">
<title>824634647552</title>
<path fill="lightblue" stroke="lightblue" d="M12,-73.5C12,-73.5 148,-73.5 148,-73.5 154,-73.5 160,-79.5 160,-85.5 160,-85.5 160,-97.5 160,-97.5 160,-103.5 154,-109.5 148,-109.5 148,-109.5 12,-109.5 12,-109.5 6,-109.5 0,-103.5 0,-97.5 0,-97.5 0,-85.5 0,-85.5 0,-79.5 6,-73.5 12,-73.5"/>
<text text-anchor="middle" x="80" y="-86.83" font-family="Times,serif" font-size="14.00">target&#45;sbc&#45;allwinner</text>
</g>
<!-- 824634647808 -->
<g id="node2" class="node">
<title>824634647808</title>
<path fill="lightblue" stroke="lightblue" d="M190,-73.5C190,-73.5 220,-73.5 220,-73.5 226,-73.5 232,-79.5 232,-85.5 232,-85.5 232,-97.5 232,-97.5 232,-103.5 226,-109.5 220,-109.5 220,-109.5 190,-109.5 190,-109.5 184,-109.5 178,-103.5 178,-97.5 178,-97.5 178,-85.5 178,-85.5 178,-79.5 184,-73.5 190,-73.5"/>
<text text-anchor="middle" x="204.62" y="-86.83" font-family="Times,serif" font-size="14.00">all</text>
</g>
<!-- 824634647680 -->
<g id="node3" class="node">
<title>824634647680</title>
<path fill="lightblue" stroke="lightblue" d="M161.38,-0.5C161.38,-0.5 248.62,-0.5 248.62,-0.5 254.62,-0.5 260.62,-6.5 260.62,-12.5 260.62,-12.5 260.62,-24.5 260.62,-24.5 260.62,-30.5 254.62,-36.5 248.62,-36.5 248.62,-36.5 161.38,-36.5 161.38,-36.5 155.38,-36.5 149.38,-30.5 149.38,-24.5 149.38,-24.5 149.38,-12.5 149.38,-12.5 149.38,-6.5 155.38,-0.5 161.38,-0.5"/>
<text text-anchor="middle" x="205" y="-13.82" font-family="Times,serif" font-size="14.00">sbc&#45;allwinner</text>
</g>
<!-- 824634647808&#45;&gt;824634647680 -->
<g id="edge1" class="edge">
<title>824634647808&#45;&gt;824634647680</title>
<path fill="none" stroke="black" d="M205,-73.31C205,-65.73 205,-56.6 205,-48.04"/>
<polygon fill="black" stroke="black" points="208.5,-48.04 205,-38.04 201.5,-48.04 208.5,-48.04"/>
</g>
<!-- 824634648448 -->
<g id="node4" class="node">
<title>824634648448</title>
<path fill="lightblue" stroke="lightblue" d="M261.88,-73.5C261.88,-73.5 316.12,-73.5 316.12,-73.5 322.12,-73.5 328.12,-79.5 328.12,-85.5 328.12,-85.5 328.12,-97.5 328.12,-97.5 328.12,-103.5 322.12,-109.5 316.12,-109.5 316.12,-109.5 261.88,-109.5 261.88,-109.5 255.88,-109.5 249.88,-103.5 249.88,-97.5 249.88,-97.5 249.88,-85.5 249.88,-85.5 249.88,-79.5 255.88,-73.5 261.88,-73.5"/>
<text text-anchor="middle" x="289" y="-86.83" font-family="Times,serif" font-size="14.00">target&#45;%</text>
</g>
<!-- 824634648960 -->
<g id="node5" class="node">
<title>824634648960</title>
<path fill="lightblue" stroke="lightblue" d="M358.12,-73.5C358.12,-73.5 497.88,-73.5 497.88,-73.5 503.88,-73.5 509.88,-79.5 509.88,-85.5 509.88,-85.5 509.88,-97.5 509.88,-97.5 509.88,-103.5 503.88,-109.5 497.88,-109.5 497.88,-109.5 358.12,-109.5 358.12,-109.5 352.12,-109.5 346.12,-103.5 346.12,-97.5 346.12,-97.5 346.12,-85.5 346.12,-85.5 346.12,-79.5 352.12,-73.5 358.12,-73.5"/>
<text text-anchor="middle" x="428" y="-86.83" font-family="Times,serif" font-size="14.00">docker&#45;sbc&#45;allwinner</text>
</g>
<!-- 824634647296 -->
<g id="node6" class="node">
<title>824634647296</title>
<path fill="lightblue" stroke="lightblue" d="M540.38,-73.5C540.38,-73.5 627.62,-73.5 627.62,-73.5 633.62,-73.5 639.62,-79.5 639.62,-85.5 639.62,-85.5 639.62,-97.5 639.62,-97.5 639.62,-103.5 633.62,-109.5 627.62,-109.5 627.62,-109.5 540.38,-109.5 540.38,-109.5 534.38,-109.5 528.38,-103.5 528.38,-97.5 528.38,-97.5 528.38,-85.5 528.38,-85.5 528.38,-79.5 534.38,-73.5 540.38,-73.5"/>
<text text-anchor="middle" x="584" y="-86.83" font-family="Times,serif" font-size="14.00">release&#45;notes</text>
</g>
<!-- 824634647040 -->
<g id="node7" class="node">
<title>824634647040</title>
<path fill="lightblue" stroke="lightblue" d="M569,-0.5C569,-0.5 599,-0.5 599,-0.5 605,-0.5 611,-6.5 611,-12.5 611,-12.5 611,-24.5 611,-24.5 611,-30.5 605,-36.5 599,-36.5 599,-36.5 569,-36.5 569,-36.5 563,-36.5 557,-30.5 557,-24.5 557,-24.5 557,-12.5 557,-12.5 557,-6.5 563,-0.5 569,-0.5"/>
<text text-anchor="middle" x="584" y="-13.82" font-family="Times,serif" font-size="14.00">_out</text>
</g>
<!-- 824634647296&#45;&gt;824634647040 -->
<g id="edge2" class="edge">
<title>824634647296&#45;&gt;824634647040</title>
<path fill="none" stroke="black" d="M584,-73.31C584,-65.73 584,-56.6 584,-48.04"/>
<polygon fill="black" stroke="black" points="587.5,-48.04 584,-38.04 580.5,-48.04 587.5,-48.04"/>
</g>
<!-- 824634647424 -->
<g id="node8" class="node">
<title>824634647424</title>
<path fill="lightblue" stroke="lightblue" d="M670,-73.5C670,-73.5 700,-73.5 700,-73.5 706,-73.5 712,-79.5 712,-85.5 712,-85.5 712,-97.5 712,-97.5 712,-103.5 706,-109.5 700,-109.5 700,-109.5 670,-109.5 670,-109.5 664,-109.5 658,-103.5 658,-97.5 658,-97.5 658,-85.5 658,-85.5 658,-79.5 664,-73.5 670,-73.5"/>
<text text-anchor="middle" x="684.75" y="-86.83" font-family="Times,serif" font-size="14.00">clean</text>
</g>
<!-- 824634648064 -->
<g id="node9" class="node">
<title>824634648064</title>
<path fill="lightblue" stroke="lightblue" d="M742.38,-73.5C742.38,-73.5 799.62,-73.5 799.62,-73.5 805.62,-73.5 811.62,-79.5 811.62,-85.5 811.62,-85.5 811.62,-97.5 811.62,-97.5 811.62,-103.5 805.62,-109.5 799.62,-109.5 799.62,-109.5 742.38,-109.5 742.38,-109.5 736.38,-109.5 730.38,-103.5 730.38,-97.5 730.38,-97.5 730.38,-85.5 730.38,-85.5 730.38,-79.5 736.38,-73.5 742.38,-73.5"/>
<text text-anchor="middle" x="771" y="-86.83" font-family="Times,serif" font-size="14.00">deps.png</text>
</g>
<!-- 824634648704 -->
<g id="node10" class="node">
<title>824634648704</title>
<path fill="lightblue" stroke="lightblue" d="M842,-73.5C842,-73.5 900,-73.5 900,-73.5 906,-73.5 912,-79.5 912,-85.5 912,-85.5 912,-97.5 912,-97.5 912,-103.5 906,-109.5 900,-109.5 900,-109.5 842,-109.5 842,-109.5 836,-109.5 830,-103.5 830,-97.5 830,-97.5 830,-85.5 830,-85.5 830,-79.5 836,-73.5 842,-73.5"/>
<text text-anchor="middle" x="871" y="-86.83" font-family="Times,serif" font-size="14.00">docker&#45;%</text>
</g>
<!-- 824634647936 -->
<g id="node11" class="node">
<title>824634647936</title>
<path fill="lightblue" stroke="lightblue" d="M942,-73.5C942,-73.5 972,-73.5 972,-73.5 978,-73.5 984,-79.5 984,-85.5 984,-85.5 984,-97.5 984,-97.5 984,-103.5 978,-109.5 972,-109.5 972,-109.5 942,-109.5 942,-109.5 936,-109.5 930,-103.5 930,-97.5 930,-97.5 930,-85.5 930,-85.5 930,-79.5 936,-73.5 942,-73.5"/>
<text text-anchor="middle" x="956.88" y="-86.83" font-family="Times,serif" font-size="14.00">help</text>
</g>
<!-- 824634648832 -->
<g id="node12" class="node">
<title>824634648832</title>
<path fill="lightblue" stroke="lightblue" d="M1014.25,-73.5C1014.25,-73.5 1199.75,-73.5 1199.75,-73.5 1205.75,-73.5 1211.75,-79.5 1211.75,-85.5 1211.75,-85.5 1211.75,-97.5 1211.75,-97.5 1211.75,-103.5 1205.75,-109.5 1199.75,-109.5 1199.75,-109.5 1014.25,-109.5 1014.25,-109.5 1008.25,-109.5 1002.25,-103.5 1002.25,-97.5 1002.25,-97.5 1002.25,-85.5 1002.25,-85.5 1002.25,-79.5 1008.25,-73.5 1014.25,-73.5"/>
<text text-anchor="middle" x="1107" y="-86.83" font-family="Times,serif" font-size="14.00">reproducibility&#45;test&#45;local&#45;%</text>
</g>
<!-- 824634647168 -->
<g id="node13" class="node">
<title>824634647168</title>
<path fill="lightblue" stroke="lightblue" d="M1242.12,-73.5C1242.12,-73.5 1279.88,-73.5 1279.88,-73.5 1285.88,-73.5 1291.88,-79.5 1291.88,-85.5 1291.88,-85.5 1291.88,-97.5 1291.88,-97.5 1291.88,-103.5 1285.88,-109.5 1279.88,-109.5 1279.88,-109.5 1242.12,-109.5 1242.12,-109.5 1236.12,-109.5 1230.12,-103.5 1230.12,-97.5 1230.12,-97.5 1230.12,-85.5 1230.12,-85.5 1230.12,-79.5 1236.12,-73.5 1242.12,-73.5"/>
<text text-anchor="middle" x="1261" y="-86.83" font-family="Times,serif" font-size="14.00">rekres</text>
</g>
<!-- 824634648192 -->
<g id="node14" class="node">
<title>824634648192</title>
<path fill="lightblue" stroke="lightblue" d="M1322.25,-73.5C1322.25,-73.5 1405.75,-73.5 1405.75,-73.5 1411.75,-73.5 1417.75,-79.5 1417.75,-85.5 1417.75,-85.5 1417.75,-97.5 1417.75,-97.5 1417.75,-103.5 1411.75,-109.5 1405.75,-109.5 1405.75,-109.5 1322.25,-109.5 1322.25,-109.5 1316.25,-109.5 1310.25,-103.5 1310.25,-97.5 1310.25,-97.5 1310.25,-85.5 1310.25,-85.5 1310.25,-79.5 1316.25,-73.5 1322.25,-73.5"/>
<text text-anchor="middle" x="1364" y="-86.83" font-family="Times,serif" font-size="14.00">conformance</text>
</g>
<!-- 824634648576 -->
<g id="node15" class="node">
<title>824634648576</title>
<path fill="lightblue" stroke="lightblue" d="M1447.5,-73.5C1447.5,-73.5 1490.5,-73.5 1490.5,-73.5 1496.5,-73.5 1502.5,-79.5 1502.5,-85.5 1502.5,-85.5 1502.5,-97.5 1502.5,-97.5 1502.5,-103.5 1496.5,-109.5 1490.5,-109.5 1490.5,-109.5 1447.5,-109.5 1447.5,-109.5 1441.5,-109.5 1435.5,-103.5 1435.5,-97.5 1435.5,-97.5 1435.5,-85.5 1435.5,-85.5 1435.5,-79.5 1441.5,-73.5 1447.5,-73.5"/>
<text text-anchor="middle" x="1469" y="-86.83" font-family="Times,serif" font-size="14.00">local&#45;%</text>
</g>
</g>
</svg>
