<svg xmlns="http://www.w3.org/2000/svg" xmlns:xlink="http://www.w3.org/1999/xlink" contentStyleType="text/css" data-diagram-type="JSON" height="541px" preserveAspectRatio="none" style="width:601px;height:541px;background:#FFFFFF;" version="1.1" viewBox="0 0 601 541" width="601px" zoomAndPan="magnify"><defs/><g><rect fill="#F1F1F1" height="46.1358" rx="5" ry="5" style="stroke:#F1F1F1;stroke-width:1.5;" width="200.8653" x="10" y="200.1358"/><text fill="#000000" font-family="sans-serif" font-size="14" font-weight="bold" lengthAdjust="spacing" textLength="39.4939" x="15" y="217.1018">name</text><text fill="#000000" font-family="sans-serif" font-size="14" lengthAdjust="spacing" textLength="93.9816" x="111.8837" y="217.1018">PS4 Controller</text><line style="stroke:#000000;stroke-width:1;" x1="106.8837" x2="106.8837" y1="200.1358" y2="223.2038"/><line style="stroke:#000000;stroke-width:1;" x1="10" x2="210.8653" y1="223.2038" y2="223.2038"/><text fill="#000000" font-family="sans-serif" font-size="14" font-weight="bold" lengthAdjust="spacing" textLength="86.8837" x="15" y="240.1697">components</text><text fill="#000000" font-family="sans-serif" font-size="14" lengthAdjust="spacing" textLength="10.92" x="111.8837" y="240.1697">&#160;&#160;&#160;</text><line style="stroke:#000000;stroke-width:1;" x1="106.8837" x2="106.8837" y1="223.2038" y2="246.2717"/><rect fill="none" height="46.1358" rx="5" ry="5" style="stroke:#000000;stroke-width:1.5;" width="200.8653" x="10" y="200.1358"/><rect fill="#F1F1F1" height="69.2038" rx="5" ry="5" style="stroke:#F1F1F1;stroke-width:1.5;" width="20.92" x="248" y="200.6019"/><text fill="#000000" font-family="sans-serif" font-size="14" lengthAdjust="spacing" textLength="10.92" x="253" y="217.5678">&#160;&#160;&#160;</text><line style="stroke:#000000;stroke-width:1;" x1="248" x2="268.92" y1="223.6698" y2="223.6698"/><text fill="#000000" font-family="sans-serif" font-size="14" lengthAdjust="spacing" textLength="10.92" x="253" y="240.6357">&#160;&#160;&#160;</text><line style="stroke:#000000;stroke-width:1;" x1="248" x2="268.92" y1="246.7377" y2="246.7377"/><text fill="#000000" font-family="sans-serif" font-size="14" lengthAdjust="spacing" textLength="10.92" x="253" y="263.7036">&#160;&#160;&#160;</text><rect fill="none" height="69.2038" rx="5" ry="5" style="stroke:#000000;stroke-width:1.5;" width="20.92" x="248" y="200.6019"/><rect fill="#F1F1F1" height="138.4075" rx="5" ry="5" style="stroke:#F1F1F1;stroke-width:1.5;" width="151.0535" x="332.5" y="10"/><text fill="#000000" font-family="sans-serif" font-size="14" font-weight="bold" lengthAdjust="spacing" textLength="31.2759" x="337.5" y="26.9659">type</text><text fill="#000000" font-family="sans-serif" font-size="14" lengthAdjust="spacing" textLength="44.4918" x="434.0617" y="26.9659">button</text><line style="stroke:#000000;stroke-width:1;" x1="429.0617" x2="429.0617" y1="10" y2="33.0679"/><line style="stroke:#000000;stroke-width:1;" x1="332.5" x2="483.5535" y1="33.0679" y2="33.0679"/><text fill="#000000" font-family="sans-serif" font-size="14" font-weight="bold" lengthAdjust="spacing" textLength="57.4138" x="337.5" y="50.0339">isYellow</text><text fill="#000000" font-family="sans-serif" font-size="14" lengthAdjust="spacing" textLength="43.5747" x="434.0617" y="50.0339">&#9745; true</text><line style="stroke:#000000;stroke-width:1;" x1="429.0617" x2="429.0617" y1="33.0679" y2="56.1358"/><line style="stroke:#000000;stroke-width:1;" x1="332.5" x2="483.5535" y1="56.1358" y2="56.1358"/><text fill="#000000" font-family="sans-serif" font-size="14" font-weight="bold" lengthAdjust="spacing" textLength="55.8178" x="337.5" y="73.1018">isEllipse</text><text fill="#000000" font-family="sans-serif" font-size="14" lengthAdjust="spacing" textLength="43.5747" x="434.0617" y="73.1018">&#9745; true</text><line style="stroke:#000000;stroke-width:1;" x1="429.0617" x2="429.0617" y1="56.1358" y2="79.2038"/><line style="stroke:#000000;stroke-width:1;" x1="332.5" x2="483.5535" y1="79.2038" y2="79.2038"/><text fill="#000000" font-family="sans-serif" font-size="14" font-weight="bold" lengthAdjust="spacing" textLength="62.1598" x="337.5" y="96.1697">centerPx</text><text fill="#000000" font-family="sans-serif" font-size="14" lengthAdjust="spacing" textLength="10.92" x="434.0617" y="96.1697">&#160;&#160;&#160;</text><line style="stroke:#000000;stroke-width:1;" x1="429.0617" x2="429.0617" y1="79.2038" y2="102.2717"/><line style="stroke:#000000;stroke-width:1;" x1="332.5" x2="483.5535" y1="102.2717" y2="102.2717"/><text fill="#000000" font-family="sans-serif" font-size="14" font-weight="bold" lengthAdjust="spacing" textLength="43.2598" x="337.5" y="119.2376">sizePx</text><text fill="#000000" font-family="sans-serif" font-size="14" lengthAdjust="spacing" textLength="10.92" x="434.0617" y="119.2376">&#160;&#160;&#160;</text><line style="stroke:#000000;stroke-width:1;" x1="429.0617" x2="429.0617" y1="102.2717" y2="125.3396"/><line style="stroke:#000000;stroke-width:1;" x1="332.5" x2="483.5535" y1="125.3396" y2="125.3396"/><text fill="#000000" font-family="sans-serif" font-size="14" font-weight="bold" lengthAdjust="spacing" textLength="86.5617" x="337.5" y="142.3055">sourceIndex</text><text fill="#000000" font-family="sans-serif" font-size="14" lengthAdjust="spacing" textLength="16.0159" x="434.0617" y="142.3055">13</text><line style="stroke:#000000;stroke-width:1;" x1="429.0617" x2="429.0617" y1="125.3396" y2="148.4075"/><rect fill="none" height="138.4075" rx="5" ry="5" style="stroke:#000000;stroke-width:1.5;" width="151.0535" x="332.5" y="10"/><rect fill="#F1F1F1" height="46.1358" rx="5" ry="5" style="stroke:#F1F1F1;stroke-width:1.5;" width="42.0319" x="547" y="30.1358"/><text fill="#000000" font-family="sans-serif" font-size="14" lengthAdjust="spacing" textLength="32.0319" x="552" y="47.1018">1422</text><line style="stroke:#000000;stroke-width:1;" x1="547" x2="589.0319" y1="53.2038" y2="53.2038"/><text fill="#000000" font-family="sans-serif" font-size="14" lengthAdjust="spacing" textLength="24.0239" x="552" y="70.1697">950</text><rect fill="none" height="46.1358" rx="5" ry="5" style="stroke:#000000;stroke-width:1.5;" width="42.0319" x="547" y="30.1358"/><rect fill="#F1F1F1" height="46.1358" rx="5" ry="5" style="stroke:#F1F1F1;stroke-width:1.5;" width="34.0239" x="551" y="94.1358"/><text fill="#000000" font-family="sans-serif" font-size="14" lengthAdjust="spacing" textLength="24.0239" x="556" y="111.1018">150</text><line style="stroke:#000000;stroke-width:1;" x1="551" x2="585.0239" y1="117.2038" y2="117.2038"/><text fill="#000000" font-family="sans-serif" font-size="14" lengthAdjust="spacing" textLength="24.0239" x="556" y="134.1697">150</text><rect fill="none" height="46.1358" rx="5" ry="5" style="stroke:#000000;stroke-width:1.5;" width="34.0239" x="551" y="94.1358"/><rect fill="#F1F1F1" height="138.4075" rx="5" ry="5" style="stroke:#F1F1F1;stroke-width:1.5;" width="157.6683" x="329" y="166"/><text fill="#000000" font-family="sans-serif" font-size="14" font-weight="bold" lengthAdjust="spacing" textLength="31.2759" x="334" y="182.9659">type</text><text fill="#000000" font-family="sans-serif" font-size="14" lengthAdjust="spacing" textLength="25.5779" x="434.5936" y="182.9659">axis</text><line style="stroke:#000000;stroke-width:1;" x1="429.5936" x2="429.5936" y1="166" y2="189.0679"/><line style="stroke:#000000;stroke-width:1;" x1="329" x2="486.6683" y1="189.0679" y2="189.0679"/><text fill="#000000" font-family="sans-serif" font-size="14" font-weight="bold" lengthAdjust="spacing" textLength="57.4138" x="334" y="206.0339">isYellow</text><text fill="#000000" font-family="sans-serif" font-size="14" lengthAdjust="spacing" textLength="47.0746" x="434.5936" y="206.0339">&#9744; false</text><line style="stroke:#000000;stroke-width:1;" x1="429.5936" x2="429.5936" y1="189.0679" y2="212.1358"/><line style="stroke:#000000;stroke-width:1;" x1="329" x2="486.6683" y1="212.1358" y2="212.1358"/><text fill="#000000" font-family="sans-serif" font-size="14" font-weight="bold" lengthAdjust="spacing" textLength="62.1598" x="334" y="229.1018">centerPx</text><text fill="#000000" font-family="sans-serif" font-size="14" lengthAdjust="spacing" textLength="10.92" x="434.5936" y="229.1018">&#160;&#160;&#160;</text><line style="stroke:#000000;stroke-width:1;" x1="429.5936" x2="429.5936" y1="212.1358" y2="235.2038"/><line style="stroke:#000000;stroke-width:1;" x1="329" x2="486.6683" y1="235.2038" y2="235.2038"/><text fill="#000000" font-family="sans-serif" font-size="14" font-weight="bold" lengthAdjust="spacing" textLength="43.2598" x="334" y="252.1697">sizePx</text><text fill="#000000" font-family="sans-serif" font-size="14" lengthAdjust="spacing" textLength="10.92" x="434.5936" y="252.1697">&#160;&#160;&#160;</text><line style="stroke:#000000;stroke-width:1;" x1="429.5936" x2="429.5936" y1="235.2038" y2="258.2717"/><line style="stroke:#000000;stroke-width:1;" x1="329" x2="486.6683" y1="258.2717" y2="258.2717"/><text fill="#000000" font-family="sans-serif" font-size="14" font-weight="bold" lengthAdjust="spacing" textLength="86.5617" x="334" y="275.2376">sourceIndex</text><text fill="#000000" font-family="sans-serif" font-size="14" lengthAdjust="spacing" textLength="8.008" x="434.5936" y="275.2376">3</text><line style="stroke:#000000;stroke-width:1;" x1="429.5936" x2="429.5936" y1="258.2717" y2="281.3396"/><line style="stroke:#000000;stroke-width:1;" x1="329" x2="486.6683" y1="281.3396" y2="281.3396"/><text fill="#000000" font-family="sans-serif" font-size="14" font-weight="bold" lengthAdjust="spacing" textLength="90.5936" x="334" y="298.3055">sourceRange</text><text fill="#000000" font-family="sans-serif" font-size="14" lengthAdjust="spacing" textLength="10.92" x="434.5936" y="298.3055">&#160;&#160;&#160;</text><line style="stroke:#000000;stroke-width:1;" x1="429.5936" x2="429.5936" y1="281.3396" y2="304.4075"/><rect fill="none" height="138.4075" rx="5" ry="5" style="stroke:#000000;stroke-width:1.5;" width="157.6683" x="329" y="166"/><rect fill="#F1F1F1" height="46.1358" rx="5" ry="5" style="stroke:#F1F1F1;stroke-width:1.5;" width="34.0239" x="551" y="160.1358"/><text fill="#000000" font-family="sans-serif" font-size="14" lengthAdjust="spacing" textLength="24.0239" x="556" y="177.1018">260</text><line style="stroke:#000000;stroke-width:1;" x1="551" x2="585.0239" y1="183.2038" y2="183.2038"/><text fill="#000000" font-family="sans-serif" font-size="14" lengthAdjust="spacing" textLength="24.0239" x="556" y="200.1697">260</text><rect fill="none" height="46.1358" rx="5" ry="5" style="stroke:#000000;stroke-width:1.5;" width="34.0239" x="551" y="160.1358"/><rect fill="#F1F1F1" height="46.1358" rx="5" ry="5" style="stroke:#F1F1F1;stroke-width:1.5;" width="34.0239" x="551" y="224.1358"/><text fill="#000000" font-family="sans-serif" font-size="14" lengthAdjust="spacing" textLength="24.0239" x="556" y="241.1018">140</text><line style="stroke:#000000;stroke-width:1;" x1="551" x2="585.0239" y1="247.2038" y2="247.2038"/><text fill="#000000" font-family="sans-serif" font-size="14" lengthAdjust="spacing" textLength="24.0239" x="556" y="264.1697">400</text><rect fill="none" height="46.1358" rx="5" ry="5" style="stroke:#000000;stroke-width:1.5;" width="34.0239" x="551" y="224.1358"/><rect fill="#F1F1F1" height="46.1358" rx="5" ry="5" style="stroke:#F1F1F1;stroke-width:1.5;" width="18.008" x="559" y="288.1358"/><text fill="#000000" font-family="sans-serif" font-size="14" lengthAdjust="spacing" textLength="8.008" x="564" y="305.1018">0</text><line style="stroke:#000000;stroke-width:1;" x1="559" x2="577.008" y1="311.2038" y2="311.2038"/><text fill="#000000" font-family="sans-serif" font-size="14" lengthAdjust="spacing" textLength="8.008" x="564" y="328.1697">1</text><rect fill="none" height="46.1358" rx="5" ry="5" style="stroke:#000000;stroke-width:1.5;" width="18.008" x="559" y="288.1358"/><rect fill="#F1F1F1" height="207.6113" rx="5" ry="5" style="stroke:#F1F1F1;stroke-width:1.5;" width="203.9873" x="306" y="322.2038"/><text fill="#000000" font-family="sans-serif" font-size="14" font-weight="bold" lengthAdjust="spacing" textLength="31.2759" x="311" y="339.1697">type</text><text fill="#000000" font-family="sans-serif" font-size="14" lengthAdjust="spacing" textLength="48.7898" x="456.1975" y="339.1697">joystick</text><line style="stroke:#000000;stroke-width:1;" x1="451.1975" x2="451.1975" y1="322.2038" y2="345.2717"/><line style="stroke:#000000;stroke-width:1;" x1="306" x2="509.9873" y1="345.2717" y2="345.2717"/><text fill="#000000" font-family="sans-serif" font-size="14" font-weight="bold" lengthAdjust="spacing" textLength="57.4138" x="311" y="362.2376">isYellow</text><text fill="#000000" font-family="sans-serif" font-size="14" lengthAdjust="spacing" textLength="43.5747" x="456.1975" y="362.2376">&#9745; true</text><line style="stroke:#000000;stroke-width:1;" x1="451.1975" x2="451.1975" y1="345.2717" y2="368.3396"/><line style="stroke:#000000;stroke-width:1;" x1="306" x2="509.9873" y1="368.3396" y2="368.3396"/><text fill="#000000" font-family="sans-serif" font-size="14" font-weight="bold" lengthAdjust="spacing" textLength="62.1598" x="311" y="385.3055">centerPx</text><text fill="#000000" font-family="sans-serif" font-size="14" lengthAdjust="spacing" textLength="10.92" x="456.1975" y="385.3055">&#160;&#160;&#160;</text><line style="stroke:#000000;stroke-width:1;" x1="451.1975" x2="451.1975" y1="368.3396" y2="391.4075"/><line style="stroke:#000000;stroke-width:1;" x1="306" x2="509.9873" y1="391.4075" y2="391.4075"/><text fill="#000000" font-family="sans-serif" font-size="14" font-weight="bold" lengthAdjust="spacing" textLength="60.5918" x="311" y="408.3734">radiusPx</text><text fill="#000000" font-family="sans-serif" font-size="14" lengthAdjust="spacing" textLength="24.0239" x="456.1975" y="408.3734">150</text><line style="stroke:#000000;stroke-width:1;" x1="451.1975" x2="451.1975" y1="391.4075" y2="414.4754"/><line style="stroke:#000000;stroke-width:1;" x1="306" x2="509.9873" y1="414.4754" y2="414.4754"/><text fill="#000000" font-family="sans-serif" font-size="14" font-weight="bold" lengthAdjust="spacing" textLength="95.3396" x="311" y="431.4414">xSourceIndex</text><text fill="#000000" font-family="sans-serif" font-size="14" lengthAdjust="spacing" textLength="8.008" x="456.1975" y="431.4414">0</text><line style="stroke:#000000;stroke-width:1;" x1="451.1975" x2="451.1975" y1="414.4754" y2="437.5433"/><line style="stroke:#000000;stroke-width:1;" x1="306" x2="509.9873" y1="437.5433" y2="437.5433"/><text fill="#000000" font-family="sans-serif" font-size="14" font-weight="bold" lengthAdjust="spacing" textLength="115.9336" x="311" y="454.5093">xSourceInverted</text><text fill="#000000" font-family="sans-serif" font-size="14" lengthAdjust="spacing" textLength="47.0746" x="456.1975" y="454.5093">&#9744; false</text><line style="stroke:#000000;stroke-width:1;" x1="451.1975" x2="451.1975" y1="437.5433" y2="460.6113"/><line style="stroke:#000000;stroke-width:1;" x1="306" x2="509.9873" y1="460.6113" y2="460.6113"/><text fill="#000000" font-family="sans-serif" font-size="14" font-weight="bold" lengthAdjust="spacing" textLength="95.2416" x="311" y="477.5772">ySourceIndex</text><text fill="#000000" font-family="sans-serif" font-size="14" lengthAdjust="spacing" textLength="8.008" x="456.1975" y="477.5772">1</text><line style="stroke:#000000;stroke-width:1;" x1="451.1975" x2="451.1975" y1="460.6113" y2="483.6792"/><line style="stroke:#000000;stroke-width:1;" x1="306" x2="509.9873" y1="483.6792" y2="483.6792"/><text fill="#000000" font-family="sans-serif" font-size="14" font-weight="bold" lengthAdjust="spacing" textLength="115.8356" x="311" y="500.6451">ySourceInverted</text><text fill="#000000" font-family="sans-serif" font-size="14" lengthAdjust="spacing" textLength="43.5747" x="456.1975" y="500.6451">&#9745; true</text><line style="stroke:#000000;stroke-width:1;" x1="451.1975" x2="451.1975" y1="483.6792" y2="506.7471"/><line style="stroke:#000000;stroke-width:1;" x1="306" x2="509.9873" y1="506.7471" y2="506.7471"/><text fill="#000000" font-family="sans-serif" font-size="14" font-weight="bold" lengthAdjust="spacing" textLength="135.1975" x="311" y="523.713">buttonSourceIndex</text><text fill="#000000" font-family="sans-serif" font-size="14" lengthAdjust="spacing" textLength="16.0159" x="456.1975" y="523.713">11</text><line style="stroke:#000000;stroke-width:1;" x1="451.1975" x2="451.1975" y1="506.7471" y2="529.815"/><rect fill="none" height="207.6113" rx="5" ry="5" style="stroke:#000000;stroke-width:1.5;" width="203.9873" x="306" y="322.2038"/><rect fill="#F1F1F1" height="46.1358" rx="5" ry="5" style="stroke:#F1F1F1;stroke-width:1.5;" width="42.0319" x="547" y="357.1358"/><text fill="#000000" font-family="sans-serif" font-size="14" lengthAdjust="spacing" textLength="32.0319" x="552" y="374.1018">1040</text><line style="stroke:#000000;stroke-width:1;" x1="547" x2="589.0319" y1="380.2038" y2="380.2038"/><text fill="#000000" font-family="sans-serif" font-size="14" lengthAdjust="spacing" textLength="24.0239" x="552" y="397.1697">945</text><rect fill="none" height="46.1358" rx="5" ry="5" style="stroke:#000000;stroke-width:1.5;" width="42.0319" x="547" y="357.1358"/><path d="M471.5,91.2038 L484.5,91.2038 C504.6073,91.2038 525.1709,81.87 540.7996,72.4542" fill="none" style="stroke:#000000;stroke-width:1;stroke-dasharray:3.0,3.0;"/><path d="M542.405,75.0063 L542.7137,71.2502 L539.1943,69.9022 L547.1798,68.4409 L542.405,75.0063" fill="#000000"/><ellipse cx="471.5" cy="91.2038" fill="#000000" rx="3" ry="3" style="stroke:#000000;stroke-width:1;"/><path d="M471.5,114.2038 L484.5,114.2038 C504.4502,114.2038 527.0802,115.0801 543.6658,115.8855" fill="none" style="stroke:#000000;stroke-width:1;stroke-dasharray:3.0,3.0;"/><path d="M543.5116,118.9327 L545.9513,116.0011 L543.82,112.8382 L551.284,116.271 L543.5116,118.9327" fill="#000000"/><ellipse cx="471.5" cy="114.2038" fill="#000000" rx="3" ry="3" style="stroke:#000000;stroke-width:1;"/><path d="M257,212.2038 L270,212.2038 C299.2153,212.2038 286.1377,178.6285 306,157.2038 C312.5016,150.1907 319.6853,143.3314 327.1381,136.7724" fill="none" style="stroke:#000000;stroke-width:1;stroke-dasharray:3.0,3.0;"/><path d="M329.12,139.0703 L328.8616,135.286 L325.1562,134.4745 L332.883,131.8177 L329.12,139.0703" fill="#000000"/><ellipse cx="257" cy="212.2038" fill="#000000" rx="3" ry="3" style="stroke:#000000;stroke-width:1;"/><path d="M475.5,223.2038 L488.5,223.2038 C509.3499,223.2038 530.2809,211.9769 545.3552,201.4188" fill="none" style="stroke:#000000;stroke-width:1;stroke-dasharray:3.0,3.0;"/><path d="M547.1349,203.8526 L547.1806,200.084 L543.5755,198.985 L551.4397,196.9695 L547.1349,203.8526" fill="#000000"/><ellipse cx="475.5" cy="223.2038" fill="#000000" rx="3" ry="3" style="stroke:#000000;stroke-width:1;"/><path d="M475.5,247.2038 L488.5,247.2038 C507.0703,247.2038 528.096,247.2038 543.785,247.2038" fill="none" style="stroke:#000000;stroke-width:1;stroke-dasharray:3.0,3.0;"/><path d="M543.785,250.2744 L546.088,247.2038 L543.785,244.1331 L551.4617,247.2038 L543.785,250.2744" fill="#000000"/><ellipse cx="475.5" cy="247.2038" fill="#000000" rx="3" ry="3" style="stroke:#000000;stroke-width:1;"/><path d="M475.5,293.2038 L488.5,293.2038 C511.02,293.2038 536.2691,300.2432 552.0267,305.5177" fill="none" style="stroke:#000000;stroke-width:1;stroke-dasharray:3.0,3.0;"/><path d="M551.0064,308.4418 L554.2198,306.2829 L553.047,302.5936 L559.337,308.0684 L551.0064,308.4418" fill="#000000"/><ellipse cx="475.5" cy="293.2038" fill="#000000" rx="3" ry="3" style="stroke:#000000;stroke-width:1;"/><path d="M257,235.2038 L270,235.2038 C286.6644,235.2038 304.4648,235.2038 321.5426,235.2038" fill="none" style="stroke:#000000;stroke-width:1;stroke-dasharray:3.0,3.0;"/><path d="M321.5426,238.3194 L323.8792,235.2038 L321.5426,232.0882 L329.3315,235.2038 L321.5426,238.3194" fill="#000000"/><ellipse cx="257" cy="235.2038" fill="#000000" rx="3" ry="3" style="stroke:#000000;stroke-width:1;"/><path d="M498,380.2038 L511,380.2038 C520.3316,380.2038 530.5301,380.2038 539.6626,380.2038" fill="none" style="stroke:#000000;stroke-width:1;stroke-dasharray:3.0,3.0;"/><path d="M539.6626,383.2848 L541.9734,380.2038 L539.6626,377.1227 L547.3651,380.2038 L539.6626,383.2848" fill="#000000"/><ellipse cx="498" cy="380.2038" fill="#000000" rx="3" ry="3" style="stroke:#000000;stroke-width:1;"/><path d="M259,258.2038 L259,271.2038 C259,304.6375 277.2379,333.6738 300.9308,357.2887" fill="none" style="stroke:#000000;stroke-width:1;stroke-dasharray:3.0,3.0;"/><path d="M298.825,359.4743 L302.57,358.8681 L303.0366,355.1032 L306.3946,362.5533 L298.825,359.4743" fill="#000000"/><ellipse cx="259" cy="258.2038" fill="#000000" rx="3" ry="3" style="stroke:#000000;stroke-width:1;"/><path d="M199,235.2038 L212,235.2038 C221.5621,235.2038 232.2423,235.2038 240.903,235.2038" fill="none" style="stroke:#000000;stroke-width:1;stroke-dasharray:3.0,3.0;"/><path d="M240.903,238.2367 L243.1776,235.2038 L240.903,232.1708 L248.4852,235.2038 L240.903,238.2367" fill="#000000"/><ellipse cx="199" cy="235.2038" fill="#000000" rx="3" ry="3" style="stroke:#000000;stroke-width:1;"/><!--SRC=[RLB1JkCm4BtxAqOv5IcW94tO9IUqj8iehROYW8HG3zvagCowuyfsIWlgl-yaBPHMjUGStfjvxyqubyvBwr-T8V4XW4z0SeP13i6uIE7AaBT6QxH1k65BCviRGlAEQvvRZCy717urRzl-rjuR2a88b7j2hSqRezxMs29zhTNSuGugMGhjUDcenMcIX72HHHCcd7h7BPn58SHRrDIsn1kgiA7YBgp38ndaKhc312zIkqE_v9o5-NDWbpAQHaVikb_8dQHfu_JS99iS3_5gLiwhyj_nLUpD7JMM5sdMM5fPgTgrH3jui2psGkn12xGUgs_ZhVQBu-_GL_4smkQb3XfYM4_4MeXBfAhzAyHOI_8Feo5mlrE683vBeYGxwtQAcc30DueXIlFiHvwaqE_TGqEVYCxrU0YRTK6bdBUA3Rd_H0paGi9TJLxDC8S_SwH1x_OJW3ujb3KqumM9mUDeLt2UdlvI7Wgqd0GUHwA7BxBMdZjAKocQvl1m__lqfnZowzHoojf8uigmhbqnL_m7]--></g></svg>