<svg xmlns="http://www.w3.org/2000/svg" xmlns:xlink="http://www.w3.org/1999/xlink" contentStyleType="text/css" data-diagram-type="JSON" height="449px" preserveAspectRatio="none" style="width:1091px;height:449px;background:#FFFFFF;" version="1.1" viewBox="0 0 1091 449" width="1091px" zoomAndPan="magnify"><defs/><g><rect fill="#F1F1F1" height="69.2038" rx="5" ry="5" style="stroke:#F1F1F1;stroke-width:1.5;" width="115.3676" x="10" y="149.0679"/><text fill="#000000" font-family="sans-serif" font-size="14" font-weight="bold" lengthAdjust="spacing" textLength="34.0759" x="15" y="166.0339">hubs</text><text fill="#000000" font-family="sans-serif" font-size="14" lengthAdjust="spacing" textLength="10.92" x="88.8398" y="166.0339">&#160;&#160;&#160;</text><line style="stroke:#000000;stroke-width:1;" x1="83.8398" x2="83.8398" y1="149.0679" y2="172.1358"/><line style="stroke:#000000;stroke-width:1;" x1="10" x2="125.3676" y1="172.1358" y2="172.1358"/><text fill="#000000" font-family="sans-serif" font-size="14" font-weight="bold" lengthAdjust="spacing" textLength="63.8398" x="15" y="189.1018">satellites</text><text fill="#000000" font-family="sans-serif" font-size="14" lengthAdjust="spacing" textLength="10.92" x="88.8398" y="189.1018">&#160;&#160;&#160;</text><line style="stroke:#000000;stroke-width:1;" x1="83.8398" x2="83.8398" y1="172.1358" y2="195.2038"/><line style="stroke:#000000;stroke-width:1;" x1="10" x2="125.3676" y1="195.2038" y2="195.2038"/><text fill="#000000" font-family="sans-serif" font-size="14" font-weight="bold" lengthAdjust="spacing" textLength="51.6738" x="15" y="212.1697">version</text><text fill="#000000" font-family="sans-serif" font-size="14" lengthAdjust="spacing" textLength="31.5279" x="88.8398" y="212.1697">4.1.5</text><line style="stroke:#000000;stroke-width:1;" x1="83.8398" x2="83.8398" y1="195.2038" y2="218.2717"/><rect fill="none" height="69.2038" rx="5" ry="5" style="stroke:#000000;stroke-width:1.5;" width="115.3676" x="10" y="149.0679"/><rect fill="#F1F1F1" height="23.0679" rx="5" ry="5" style="stroke:#F1F1F1;stroke-width:1.5;" width="20.92" x="162" y="108.1358"/><text fill="#000000" font-family="sans-serif" font-size="14" lengthAdjust="spacing" textLength="10.92" x="167" y="125.1018">&#160;&#160;&#160;</text><rect fill="none" height="23.0679" rx="5" ry="5" style="stroke:#000000;stroke-width:1.5;" width="20.92" x="162" y="108.1358"/><rect fill="#F1F1F1" height="115.3396" rx="5" ry="5" style="stroke:#F1F1F1;stroke-width:1.5;" width="97.6997" x="335" y="10"/><text fill="#000000" font-family="sans-serif" font-size="14" font-weight="bold" lengthAdjust="spacing" textLength="8.092" x="340" y="26.9659">x</text><text fill="#000000" font-family="sans-serif" font-size="14" lengthAdjust="spacing" textLength="32.0319" x="395.6678" y="26.9659">1427</text><line style="stroke:#000000;stroke-width:1;" x1="390.6678" x2="390.6678" y1="10" y2="33.0679"/><line style="stroke:#000000;stroke-width:1;" x1="335" x2="432.6997" y1="33.0679" y2="33.0679"/><text fill="#000000" font-family="sans-serif" font-size="14" font-weight="bold" lengthAdjust="spacing" textLength="7.994" x="340" y="50.0339">y</text><text fill="#000000" font-family="sans-serif" font-size="14" lengthAdjust="spacing" textLength="32.0319" x="395.6678" y="50.0339">1732</text><line style="stroke:#000000;stroke-width:1;" x1="390.6678" x2="390.6678" y1="33.0679" y2="56.1358"/><line style="stroke:#000000;stroke-width:1;" x1="335" x2="432.6997" y1="56.1358" y2="56.1358"/><text fill="#000000" font-family="sans-serif" font-size="14" font-weight="bold" lengthAdjust="spacing" textLength="40.1938" x="340" y="73.1018">width</text><text fill="#000000" font-family="sans-serif" font-size="14" lengthAdjust="spacing" textLength="32.0319" x="395.6678" y="73.1018">1100</text><line style="stroke:#000000;stroke-width:1;" x1="390.6678" x2="390.6678" y1="56.1358" y2="79.2038"/><line style="stroke:#000000;stroke-width:1;" x1="335" x2="432.6997" y1="79.2038" y2="79.2038"/><text fill="#000000" font-family="sans-serif" font-size="14" font-weight="bold" lengthAdjust="spacing" textLength="45.6678" x="340" y="96.1697">height</text><text fill="#000000" font-family="sans-serif" font-size="14" lengthAdjust="spacing" textLength="24.0239" x="395.6678" y="96.1697">650</text><line style="stroke:#000000;stroke-width:1;" x1="390.6678" x2="390.6678" y1="79.2038" y2="102.2717"/><line style="stroke:#000000;stroke-width:1;" x1="335" x2="432.6997" y1="102.2717" y2="102.2717"/><text fill="#000000" font-family="sans-serif" font-size="14" font-weight="bold" lengthAdjust="spacing" textLength="35.9239" x="340" y="119.2376">state</text><text fill="#000000" font-family="sans-serif" font-size="14" lengthAdjust="spacing" textLength="10.92" x="395.6678" y="119.2376">&#160;&#160;&#160;</text><line style="stroke:#000000;stroke-width:1;" x1="390.6678" x2="390.6678" y1="102.2717" y2="125.3396"/><rect fill="none" height="115.3396" rx="5" ry="5" style="stroke:#000000;stroke-width:1.5;" width="97.6997" x="335" y="10"/><rect fill="#F1F1F1" height="46.1358" rx="5" ry="5" style="stroke:#F1F1F1;stroke-width:1.5;" width="82.8318" x="592" y="90.6019"/><text fill="#000000" font-family="sans-serif" font-size="14" font-weight="bold" lengthAdjust="spacing" textLength="51.9118" x="597" y="107.5678">sidebar</text><text fill="#000000" font-family="sans-serif" font-size="14" lengthAdjust="spacing" textLength="10.92" x="658.9118" y="107.5678">&#160;&#160;&#160;</text><line style="stroke:#000000;stroke-width:1;" x1="653.9118" x2="653.9118" y1="90.6019" y2="113.6698"/><line style="stroke:#000000;stroke-width:1;" x1="592" x2="674.8318" y1="113.6698" y2="113.6698"/><text fill="#000000" font-family="sans-serif" font-size="14" font-weight="bold" lengthAdjust="spacing" textLength="30.3379" x="597" y="130.6357">tabs</text><text fill="#000000" font-family="sans-serif" font-size="14" lengthAdjust="spacing" textLength="10.92" x="658.9118" y="130.6357">&#160;&#160;&#160;</text><line style="stroke:#000000;stroke-width:1;" x1="653.9118" x2="653.9118" y1="113.6698" y2="136.7377"/><rect fill="none" height="46.1358" rx="5" ry="5" style="stroke:#000000;stroke-width:1.5;" width="82.8318" x="592" y="90.6019"/><rect fill="#F1F1F1" height="46.1358" rx="5" ry="5" style="stroke:#F1F1F1;stroke-width:1.5;" width="112.8616" x="735" y="18.6019"/><text fill="#000000" font-family="sans-serif" font-size="14" font-weight="bold" lengthAdjust="spacing" textLength="40.1938" x="740" y="35.5678">width</text><text fill="#000000" font-family="sans-serif" font-size="14" lengthAdjust="spacing" textLength="24.0239" x="818.8377" y="35.5678">300</text><line style="stroke:#000000;stroke-width:1;" x1="813.8377" x2="813.8377" y1="18.6019" y2="41.6698"/><line style="stroke:#000000;stroke-width:1;" x1="735" x2="847.8616" y1="41.6698" y2="41.6698"/><text fill="#000000" font-family="sans-serif" font-size="14" font-weight="bold" lengthAdjust="spacing" textLength="68.8377" x="740" y="58.6357">expanded</text><text fill="#000000" font-family="sans-serif" font-size="14" lengthAdjust="spacing" textLength="10.92" x="818.8377" y="58.6357">&#160;&#160;&#160;</text><line style="stroke:#000000;stroke-width:1;" x1="813.8377" x2="813.8377" y1="41.6698" y2="64.7377"/><rect fill="none" height="46.1358" rx="5" ry="5" style="stroke:#000000;stroke-width:1.5;" width="112.8616" x="735" y="18.6019"/><rect fill="#F1F1F1" height="15" rx="5" ry="5" style="stroke:#F1F1F1;stroke-width:1.5;" width="30" x="982" y="25.1698"/><rect fill="none" height="15" rx="5" ry="5" style="stroke:#000000;stroke-width:1.5;" width="30" x="982" y="25.1698"/><rect fill="#F1F1F1" height="46.1358" rx="5" ry="5" style="stroke:#F1F1F1;stroke-width:1.5;" width="89.3417" x="747" y="103.6019"/><text fill="#000000" font-family="sans-serif" font-size="14" font-weight="bold" lengthAdjust="spacing" textLength="58.4218" x="752" y="120.5678">selected</text><text fill="#000000" font-family="sans-serif" font-size="14" lengthAdjust="spacing" textLength="8.008" x="820.4218" y="120.5678">6</text><line style="stroke:#000000;stroke-width:1;" x1="815.4218" x2="815.4218" y1="103.6019" y2="126.6698"/><line style="stroke:#000000;stroke-width:1;" x1="747" x2="836.3417" y1="126.6698" y2="126.6698"/><text fill="#000000" font-family="sans-serif" font-size="14" font-weight="bold" lengthAdjust="spacing" textLength="30.3379" x="752" y="143.6357">tabs</text><text fill="#000000" font-family="sans-serif" font-size="14" lengthAdjust="spacing" textLength="10.92" x="820.4218" y="143.6357">&#160;&#160;&#160;</text><line style="stroke:#000000;stroke-width:1;" x1="815.4218" x2="815.4218" y1="126.6698" y2="149.7377"/><rect fill="none" height="46.1358" rx="5" ry="5" style="stroke:#000000;stroke-width:1.5;" width="89.3417" x="747" y="103.6019"/><rect fill="#F1F1F1" height="161.4754" rx="5" ry="5" style="stroke:#F1F1F1;stroke-width:1.5;" width="82.2257" x="949" y="57.9321"/><text fill="#000000" font-family="sans-serif" font-size="14" lengthAdjust="spacing" textLength="3.64" x="954" y="74.898">&#160;</text><line style="stroke:#000000;stroke-width:1;" x1="949" x2="1031.2257" y1="81" y2="81"/><text fill="#000000" font-family="sans-serif" font-size="14" lengthAdjust="spacing" textLength="72.2257" x="954" y="97.9659">Line Graph</text><line style="stroke:#000000;stroke-width:1;" x1="949" x2="1031.2257" y1="104.0679" y2="104.0679"/><text fill="#000000" font-family="sans-serif" font-size="14" lengthAdjust="spacing" textLength="66.9758" x="954" y="121.0339">Odometry</text><line style="stroke:#000000;stroke-width:1;" x1="949" x2="1031.2257" y1="127.1358" y2="127.1358"/><text fill="#000000" font-family="sans-serif" font-size="14" lengthAdjust="spacing" textLength="52.8638" x="954" y="144.1018">3D Field</text><line style="stroke:#000000;stroke-width:1;" x1="949" x2="1031.2257" y1="150.2038" y2="150.2038"/><text fill="#000000" font-family="sans-serif" font-size="14" lengthAdjust="spacing" textLength="35.7559" x="954" y="167.1697">Table</text><line style="stroke:#000000;stroke-width:1;" x1="949" x2="1031.2257" y1="173.2717" y2="173.2717"/><text fill="#000000" font-family="sans-serif" font-size="14" lengthAdjust="spacing" textLength="55.7058" x="954" y="190.2376">Joysticks</text><line style="stroke:#000000;stroke-width:1;" x1="949" x2="1031.2257" y1="196.3396" y2="196.3396"/><text fill="#000000" font-family="sans-serif" font-size="14" lengthAdjust="spacing" textLength="58.0578" x="954" y="213.3055">Statistics</text><rect fill="none" height="161.4754" rx="5" ry="5" style="stroke:#000000;stroke-width:1.5;" width="82.2257" x="949" y="57.9321"/><rect fill="#F1F1F1" height="46.1358" rx="5" ry="5" style="stroke:#F1F1F1;stroke-width:1.5;" width="20.92" x="162" y="201.6019"/><text fill="#000000" font-family="sans-serif" font-size="14" lengthAdjust="spacing" textLength="10.92" x="167" y="218.5678">&#160;&#160;&#160;</text><line style="stroke:#000000;stroke-width:1;" x1="162" x2="182.92" y1="224.6698" y2="224.6698"/><text fill="#000000" font-family="sans-serif" font-size="14" lengthAdjust="spacing" textLength="10.92" x="167" y="241.6357">&#160;&#160;&#160;</text><rect fill="none" height="46.1358" rx="5" ry="5" style="stroke:#000000;stroke-width:1.5;" width="20.92" x="162" y="201.6019"/><rect fill="#F1F1F1" height="138.4075" rx="5" ry="5" style="stroke:#F1F1F1;stroke-width:1.5;" width="327.6207" x="220" y="143.466"/><text fill="#000000" font-family="sans-serif" font-size="14" font-weight="bold" lengthAdjust="spacing" textLength="8.092" x="225" y="160.432">x</text><text fill="#000000" font-family="sans-serif" font-size="14" lengthAdjust="spacing" textLength="32.0319" x="280.6678" y="160.432">1149</text><line style="stroke:#000000;stroke-width:1;" x1="275.6678" x2="275.6678" y1="143.466" y2="166.534"/><line style="stroke:#000000;stroke-width:1;" x1="220" x2="547.6207" y1="166.534" y2="166.534"/><text fill="#000000" font-family="sans-serif" font-size="14" font-weight="bold" lengthAdjust="spacing" textLength="7.994" x="225" y="183.4999">y</text><text fill="#000000" font-family="sans-serif" font-size="14" lengthAdjust="spacing" textLength="32.0319" x="280.6678" y="183.4999">2151</text><line style="stroke:#000000;stroke-width:1;" x1="275.6678" x2="275.6678" y1="166.534" y2="189.6019"/><line style="stroke:#000000;stroke-width:1;" x1="220" x2="547.6207" y1="189.6019" y2="189.6019"/><text fill="#000000" font-family="sans-serif" font-size="14" font-weight="bold" lengthAdjust="spacing" textLength="40.1938" x="225" y="206.5678">width</text><text fill="#000000" font-family="sans-serif" font-size="14" lengthAdjust="spacing" textLength="24.0239" x="280.6678" y="206.5678">900</text><line style="stroke:#000000;stroke-width:1;" x1="275.6678" x2="275.6678" y1="189.6019" y2="212.6698"/><line style="stroke:#000000;stroke-width:1;" x1="220" x2="547.6207" y1="212.6698" y2="212.6698"/><text fill="#000000" font-family="sans-serif" font-size="14" font-weight="bold" lengthAdjust="spacing" textLength="45.6678" x="225" y="229.6357">height</text><text fill="#000000" font-family="sans-serif" font-size="14" lengthAdjust="spacing" textLength="24.0239" x="280.6678" y="229.6357">500</text><line style="stroke:#000000;stroke-width:1;" x1="275.6678" x2="275.6678" y1="212.6698" y2="235.7377"/><line style="stroke:#000000;stroke-width:1;" x1="220" x2="547.6207" y1="235.7377" y2="235.7377"/><text fill="#000000" font-family="sans-serif" font-size="14" font-weight="bold" lengthAdjust="spacing" textLength="35.9239" x="225" y="252.7036">state</text><text fill="#000000" font-family="sans-serif" font-size="14" lengthAdjust="spacing" textLength="10.92" x="280.6678" y="252.7036">&#160;&#160;&#160;</text><line style="stroke:#000000;stroke-width:1;" x1="275.6678" x2="275.6678" y1="235.7377" y2="258.8056"/><line style="stroke:#000000;stroke-width:1;" x1="220" x2="547.6207" y1="258.8056" y2="258.8056"/><text fill="#000000" font-family="sans-serif" font-size="14" font-weight="bold" lengthAdjust="spacing" textLength="31.2339" x="225" y="275.7716">uuid</text><text fill="#000000" font-family="sans-serif" font-size="14" lengthAdjust="spacing" textLength="261.9529" x="280.6678" y="275.7716">wwmbynk825fuuw0k591pbf150d32i817</text><line style="stroke:#000000;stroke-width:1;" x1="275.6678" x2="275.6678" y1="258.8056" y2="281.8735"/><rect fill="none" height="138.4075" rx="5" ry="5" style="stroke:#000000;stroke-width:1.5;" width="327.6207" x="220" y="143.466"/><rect fill="#F1F1F1" height="46.1358" rx="5" ry="5" style="stroke:#F1F1F1;stroke-width:1.5;" width="97.4897" x="585" y="224.6019"/><text fill="#000000" font-family="sans-serif" font-size="14" font-weight="bold" lengthAdjust="spacing" textLength="31.2759" x="590" y="241.5678">type</text><text fill="#000000" font-family="sans-serif" font-size="14" lengthAdjust="spacing" textLength="8.008" x="666.5698" y="241.5678">3</text><line style="stroke:#000000;stroke-width:1;" x1="661.5698" x2="661.5698" y1="224.6019" y2="247.6698"/><line style="stroke:#000000;stroke-width:1;" x1="585" x2="682.4897" y1="247.6698" y2="247.6698"/><text fill="#000000" font-family="sans-serif" font-size="14" font-weight="bold" lengthAdjust="spacing" textLength="66.5698" x="590" y="264.6357">visualizer</text><text fill="#000000" font-family="sans-serif" font-size="14" lengthAdjust="spacing" textLength="10.92" x="666.5698" y="264.6357">&#160;&#160;&#160;</text><line style="stroke:#000000;stroke-width:1;" x1="661.5698" x2="661.5698" y1="247.6698" y2="270.7377"/><rect fill="none" height="46.1358" rx="5" ry="5" style="stroke:#000000;stroke-width:1.5;" width="97.4897" x="585" y="224.6019"/><rect fill="#F1F1F1" height="92.2717" rx="5" ry="5" style="stroke:#F1F1F1;stroke-width:1.5;" width="145.0475" x="719" y="213.534"/><text fill="#000000" font-family="sans-serif" font-size="14" font-weight="bold" lengthAdjust="spacing" textLength="92.1057" x="724" y="230.4999">cameraIndex</text><text fill="#000000" font-family="sans-serif" font-size="14" lengthAdjust="spacing" textLength="12.5159" x="843.0316" y="230.4999">-1</text><line style="stroke:#000000;stroke-width:1;" x1="838.0316" x2="838.0316" y1="213.534" y2="236.6019"/><line style="stroke:#000000;stroke-width:1;" x1="719" x2="864.0475" y1="236.6019" y2="236.6019"/><text fill="#000000" font-family="sans-serif" font-size="14" font-weight="bold" lengthAdjust="spacing" textLength="58.5478" x="724" y="253.5678">orbitFov</text><text fill="#000000" font-family="sans-serif" font-size="14" lengthAdjust="spacing" textLength="16.0159" x="843.0316" y="253.5678">50</text><line style="stroke:#000000;stroke-width:1;" x1="838.0316" x2="838.0316" y1="236.6019" y2="259.6698"/><line style="stroke:#000000;stroke-width:1;" x1="719" x2="864.0475" y1="259.6698" y2="259.6698"/><text fill="#000000" font-family="sans-serif" font-size="14" font-weight="bold" lengthAdjust="spacing" textLength="109.0316" x="724" y="276.6357">cameraPosition</text><text fill="#000000" font-family="sans-serif" font-size="14" lengthAdjust="spacing" textLength="10.92" x="843.0316" y="276.6357">&#160;&#160;&#160;</text><line style="stroke:#000000;stroke-width:1;" x1="838.0316" x2="838.0316" y1="259.6698" y2="282.7377"/><line style="stroke:#000000;stroke-width:1;" x1="719" x2="864.0475" y1="282.7377" y2="282.7377"/><text fill="#000000" font-family="sans-serif" font-size="14" font-weight="bold" lengthAdjust="spacing" textLength="98.2656" x="724" y="299.7036">cameraTarget</text><text fill="#000000" font-family="sans-serif" font-size="14" lengthAdjust="spacing" textLength="10.92" x="843.0316" y="299.7036">&#160;&#160;&#160;</text><line style="stroke:#000000;stroke-width:1;" x1="838.0316" x2="838.0316" y1="282.7377" y2="305.8056"/><rect fill="none" height="92.2717" rx="5" ry="5" style="stroke:#000000;stroke-width:1.5;" width="145.0475" x="719" y="213.534"/><rect fill="#F1F1F1" height="69.2038" rx="5" ry="5" style="stroke:#F1F1F1;stroke-width:1.5;" width="178.1953" x="901" y="237.0679"/><text fill="#000000" font-family="sans-serif" font-size="14" lengthAdjust="spacing" textLength="168.1953" x="906" y="254.0339">1.4695761589768238E-15</text><line style="stroke:#000000;stroke-width:1;" x1="901" x2="1079.1953" y1="260.1358" y2="260.1358"/><text fill="#000000" font-family="sans-serif" font-size="14" lengthAdjust="spacing" textLength="131.8794" x="906" y="277.1018">5.999999999999999</text><line style="stroke:#000000;stroke-width:1;" x1="901" x2="1079.1953" y1="283.2038" y2="283.2038"/><text fill="#000000" font-family="sans-serif" font-size="14" lengthAdjust="spacing" textLength="20.5239" x="906" y="300.1697">-12</text><rect fill="none" height="69.2038" rx="5" ry="5" style="stroke:#000000;stroke-width:1.5;" width="178.1953" x="901" y="237.0679"/><rect fill="#F1F1F1" height="69.2038" rx="5" ry="5" style="stroke:#F1F1F1;stroke-width:1.5;" width="29.7679" x="975" y="324.0679"/><text fill="#000000" font-family="sans-serif" font-size="14" lengthAdjust="spacing" textLength="8.008" x="980" y="341.0339">0</text><line style="stroke:#000000;stroke-width:1;" x1="975" x2="1004.7679" y1="347.1358" y2="347.1358"/><text fill="#000000" font-family="sans-serif" font-size="14" lengthAdjust="spacing" textLength="19.7679" x="980" y="364.1018">0.5</text><line style="stroke:#000000;stroke-width:1;" x1="975" x2="1004.7679" y1="370.2038" y2="370.2038"/><text fill="#000000" font-family="sans-serif" font-size="14" lengthAdjust="spacing" textLength="8.008" x="980" y="387.1697">0</text><rect fill="none" height="69.2038" rx="5" ry="5" style="stroke:#000000;stroke-width:1.5;" width="29.7679" x="975" y="324.0679"/><rect fill="#F1F1F1" height="138.4075" rx="5" ry="5" style="stroke:#F1F1F1;stroke-width:1.5;" width="309.2248" x="229.5" y="299.466"/><text fill="#000000" font-family="sans-serif" font-size="14" font-weight="bold" lengthAdjust="spacing" textLength="8.092" x="234.5" y="316.432">x</text><text fill="#000000" font-family="sans-serif" font-size="14" lengthAdjust="spacing" textLength="32.0319" x="290.1678" y="316.432">1218</text><line style="stroke:#000000;stroke-width:1;" x1="285.1678" x2="285.1678" y1="299.466" y2="322.534"/><line style="stroke:#000000;stroke-width:1;" x1="229.5" x2="538.7248" y1="322.534" y2="322.534"/><text fill="#000000" font-family="sans-serif" font-size="14" font-weight="bold" lengthAdjust="spacing" textLength="7.994" x="234.5" y="339.4999">y</text><text fill="#000000" font-family="sans-serif" font-size="14" lengthAdjust="spacing" textLength="32.0319" x="290.1678" y="339.4999">2022</text><line style="stroke:#000000;stroke-width:1;" x1="285.1678" x2="285.1678" y1="322.534" y2="345.6019"/><line style="stroke:#000000;stroke-width:1;" x1="229.5" x2="538.7248" y1="345.6019" y2="345.6019"/><text fill="#000000" font-family="sans-serif" font-size="14" font-weight="bold" lengthAdjust="spacing" textLength="40.1938" x="234.5" y="362.5678">width</text><text fill="#000000" font-family="sans-serif" font-size="14" lengthAdjust="spacing" textLength="24.0239" x="290.1678" y="362.5678">900</text><line style="stroke:#000000;stroke-width:1;" x1="285.1678" x2="285.1678" y1="345.6019" y2="368.6698"/><line style="stroke:#000000;stroke-width:1;" x1="229.5" x2="538.7248" y1="368.6698" y2="368.6698"/><text fill="#000000" font-family="sans-serif" font-size="14" font-weight="bold" lengthAdjust="spacing" textLength="45.6678" x="234.5" y="385.6357">height</text><text fill="#000000" font-family="sans-serif" font-size="14" lengthAdjust="spacing" textLength="24.0239" x="290.1678" y="385.6357">500</text><line style="stroke:#000000;stroke-width:1;" x1="285.1678" x2="285.1678" y1="368.6698" y2="391.7377"/><line style="stroke:#000000;stroke-width:1;" x1="229.5" x2="538.7248" y1="391.7377" y2="391.7377"/><text fill="#000000" font-family="sans-serif" font-size="14" font-weight="bold" lengthAdjust="spacing" textLength="35.9239" x="234.5" y="408.7036">state</text><text fill="#000000" font-family="sans-serif" font-size="14" lengthAdjust="spacing" textLength="10.92" x="290.1678" y="408.7036">&#160;&#160;&#160;</text><line style="stroke:#000000;stroke-width:1;" x1="285.1678" x2="285.1678" y1="391.7377" y2="414.8056"/><line style="stroke:#000000;stroke-width:1;" x1="229.5" x2="538.7248" y1="414.8056" y2="414.8056"/><text fill="#000000" font-family="sans-serif" font-size="14" font-weight="bold" lengthAdjust="spacing" textLength="31.2339" x="234.5" y="431.7716">uuid</text><text fill="#000000" font-family="sans-serif" font-size="14" lengthAdjust="spacing" textLength="243.557" x="290.1678" y="431.7716">sokiqgtn927tu2ui0i02nqh86nzbwo8k</text><line style="stroke:#000000;stroke-width:1;" x1="285.1678" x2="285.1678" y1="414.8056" y2="437.8735"/><rect fill="none" height="138.4075" rx="5" ry="5" style="stroke:#000000;stroke-width:1.5;" width="309.2248" x="229.5" y="299.466"/><rect fill="#F1F1F1" height="46.1358" rx="5" ry="5" style="stroke:#F1F1F1;stroke-width:1.5;" width="94.7729" x="586" y="380.6019"/><text fill="#000000" font-family="sans-serif" font-size="14" font-weight="bold" lengthAdjust="spacing" textLength="31.2759" x="591" y="397.5678">type</text><text fill="#000000" font-family="sans-serif" font-size="14" lengthAdjust="spacing" textLength="8.008" x="667.5698" y="397.5678">6</text><line style="stroke:#000000;stroke-width:1;" x1="662.5698" x2="662.5698" y1="380.6019" y2="403.6698"/><line style="stroke:#000000;stroke-width:1;" x1="586" x2="680.7729" y1="403.6698" y2="403.6698"/><text fill="#000000" font-family="sans-serif" font-size="14" font-weight="bold" lengthAdjust="spacing" textLength="66.5698" x="591" y="420.6357">visualizer</text><text fill="#000000" font-family="sans-serif" font-size="14" lengthAdjust="spacing" textLength="8.2031" x="667.5698" y="420.6357">&#9216;</text><line style="stroke:#000000;stroke-width:1;" x1="662.5698" x2="662.5698" y1="403.6698" y2="426.7377"/><rect fill="none" height="46.1358" rx="5" ry="5" style="stroke:#000000;stroke-width:1.5;" width="94.7729" x="586" y="380.6019"/><path d="M836,53.6698 L849,53.6698 C873.3473,53.6698 943.7104,41.1788 974.6287,35.4639" fill="none" style="stroke:#000000;stroke-width:1;stroke-dasharray:3.0,3.0;"/><path d="M975.1952,38.5053 L976.9098,35.039 L974.0623,32.4224 L982.2323,34.0477 L975.1952,38.5053" fill="#000000"/><ellipse cx="836" cy="53.6698" fill="#000000" rx="3" ry="3" style="stroke:#000000;stroke-width:1;"/><path d="M663,101.6698 L676,101.6698 C706.1293,101.6698 736.1769,85.2813 757.9987,69.6346" fill="none" style="stroke:#000000;stroke-width:1;stroke-dasharray:3.0,3.0;"/><path d="M759.8368,72.1202 L759.8628,68.256 L756.1605,67.149 L764.2126,65.0392 L759.8368,72.1202" fill="#000000"/><ellipse cx="663" cy="101.6698" fill="#000000" rx="3" ry="3" style="stroke:#000000;stroke-width:1;"/><path d="M824,138.6698 L837,138.6698 C871.9976,138.6698 911.5129,138.6698 941.5493,138.6698" fill="none" style="stroke:#000000;stroke-width:1;stroke-dasharray:3.0,3.0;"/><path d="M941.5493,141.7959 L943.8938,138.6698 L941.5493,135.5437 L949.3645,138.6698 L941.5493,141.7959" fill="#000000"/><ellipse cx="824" cy="138.6698" fill="#000000" rx="3" ry="3" style="stroke:#000000;stroke-width:1;"/><path d="M663,125.6698 L676,125.6698 C696.799,125.6698 719.7131,125.8354 739.5771,126.0318" fill="none" style="stroke:#000000;stroke-width:1;stroke-dasharray:3.0,3.0;"/><path d="M739.5452,129.1266 L741.8982,126.0556 L739.6089,122.937 L747.3141,126.1113 L739.5452,129.1266" fill="#000000"/><ellipse cx="663" cy="125.6698" fill="#000000" rx="3" ry="3" style="stroke:#000000;stroke-width:1;"/><path d="M421.5,113.6698 L434.5,113.6698 C485.7081,113.6698 544.347,113.6698 584.5376,113.6698" fill="none" style="stroke:#000000;stroke-width:1;stroke-dasharray:3.0,3.0;"/><path d="M584.5376,116.7836 L586.873,113.6698 L584.5376,110.556 L592.3221,113.6698 L584.5376,116.7836" fill="#000000"/><ellipse cx="421.5" cy="113.6698" fill="#000000" rx="3" ry="3" style="stroke:#000000;stroke-width:1;"/><path d="M171.1075,120.1373 L183.7281,117.0196 C209.8664,110.5626 278.3257,93.6511 327.8247,81.4233" fill="none" style="stroke:#000000;stroke-width:1;stroke-dasharray:3.0,3.0;"/><path d="M328.5623,84.4093 L330.0641,80.8701 L327.0871,78.4374 L335.2896,79.5793 L328.5623,84.4093" fill="#000000"/><ellipse cx="171.1075" cy="120.1373" fill="#000000" rx="3" ry="3" style="stroke:#000000;stroke-width:1;"/><path d="M113,160.6698 L126,160.6698 C140.845,160.6698 153.1122,148.6231 161.2345,137.5896" fill="none" style="stroke:#000000;stroke-width:1;stroke-dasharray:3.0,3.0;"/><path d="M163.7467,139.3062 L162.5219,135.7055 L158.7223,135.873 L165.5259,131.3091 L163.7467,139.3062" fill="#000000"/><ellipse cx="113" cy="160.6698" fill="#000000" rx="3" ry="3" style="stroke:#000000;stroke-width:1;"/><path d="M852,271.6698 L865,271.6698 C874.2951,271.6698 883.9806,271.6698 893.663,271.6698" fill="none" style="stroke:#000000;stroke-width:1;stroke-dasharray:3.0,3.0;"/><path d="M893.663,274.7726 L895.99,271.6698 L893.663,268.567 L901.4199,271.6698 L893.663,274.7726" fill="#000000"/><ellipse cx="852" cy="271.6698" fill="#000000" rx="3" ry="3" style="stroke:#000000;stroke-width:1;"/><path d="M852,294.6698 L865,294.6698 C883.5233,294.6698 884.6579,306.9493 901,315.6698 C923.5496,327.7027 949.9723,340.3589 968.0375,348.7993" fill="none" style="stroke:#000000;stroke-width:1;stroke-dasharray:3.0,3.0;"/><path d="M966.6994,351.6773 L970.196,349.8029 L969.3755,345.9214 L975.2324,352.1444 L966.6994,351.6773" fill="#000000"/><ellipse cx="852" cy="294.6698" fill="#000000" rx="3" ry="3" style="stroke:#000000;stroke-width:1;"/><path d="M670,259.6698 L683,259.6698 C692.2468,259.6698 701.939,259.6698 711.5617,259.6698" fill="none" style="stroke:#000000;stroke-width:1;stroke-dasharray:3.0,3.0;"/><path d="M711.5617,262.7468 L713.8695,259.6698 L711.5617,256.5928 L719.2543,259.6698 L711.5617,262.7468" fill="#000000"/><ellipse cx="670" cy="259.6698" fill="#000000" rx="3" ry="3" style="stroke:#000000;stroke-width:1;"/><path d="M536,247.6698 L549,247.6698 C558.3208,247.6698 568.2234,247.6698 577.8362,247.6698" fill="none" style="stroke:#000000;stroke-width:1;stroke-dasharray:3.0,3.0;"/><path d="M577.8362,250.722 L580.1254,247.6698 L577.8362,244.6176 L585.4668,247.6698 L577.8362,250.722" fill="#000000"/><ellipse cx="536" cy="247.6698" fill="#000000" rx="3" ry="3" style="stroke:#000000;stroke-width:1;"/><path d="M171,212.6698 L184,212.6698 C193.453,212.6698 203.158,212.6698 212.9538,212.6698" fill="none" style="stroke:#000000;stroke-width:1;stroke-dasharray:3.0,3.0;"/><path d="M212.9538,215.6722 L215.2056,212.6698 L212.9538,209.6674 L220.4597,212.6698 L212.9538,215.6722" fill="#000000"/><ellipse cx="171" cy="212.6698" fill="#000000" rx="3" ry="3" style="stroke:#000000;stroke-width:1;"/><path d="M526.5,403.6698 L539.5,403.6698 C552.1361,403.6698 565.7328,403.6698 578.5375,403.6698" fill="none" style="stroke:#000000;stroke-width:1;stroke-dasharray:3.0,3.0;"/><path d="M578.5375,406.8117 L580.8939,403.6698 L578.5375,400.5279 L586.3922,403.6698 L578.5375,406.8117" fill="#000000"/><ellipse cx="526.5" cy="403.6698" fill="#000000" rx="3" ry="3" style="stroke:#000000;stroke-width:1;"/><path d="M171,236.6698 L184,236.6698 C212.8444,236.6698 198.2002,271.7815 220,290.6698 C221.5079,291.9763 223.0414,293.2659 224.5984,294.5387" fill="none" style="stroke:#000000;stroke-width:1;stroke-dasharray:3.0,3.0;"/><path d="M222.668,296.9856 L226.4336,295.9865 L226.5288,292.0918 L230.7156,299.3647 L222.668,296.9856" fill="#000000"/><ellipse cx="171" cy="236.6698" fill="#000000" rx="3" ry="3" style="stroke:#000000;stroke-width:1;"/><path d="M113,183.6698 L126,183.6698 C138.9344,183.6698 149.9119,192.8152 157.8958,202.4674" fill="none" style="stroke:#000000;stroke-width:1;stroke-dasharray:3.0,3.0;"/><path d="M155.4966,204.2974 L159.2683,204.2668 L160.2951,200.6374 L162.4708,208.4655 L155.4966,204.2974" fill="#000000"/><ellipse cx="113" cy="183.6698" fill="#000000" rx="3" ry="3" style="stroke:#000000;stroke-width:1;"/><!--SRC=[hPJBJkCm58RtVWehAv1ePJjnBbsXcGAQJX5eMjWW5avZMazJk_ZIKX3lFaw1Dac1rKJAxJlsV-ppd-JKMARjNwCaU04G1ZENcw07x_mpX2_RgwTF7k6892SVO5E192Gxi1Q5dLKG8xI3CowcC-jfJFVG9xJSim_n2ec2vqmtO4qpt4jkENzQCbdmebhd_IxmkXyJMBRTHKFDy99Fx7PMt91x7tnNOvu69ytteP0SNcYsdBKZLuLQSAitRHxsuRdWPT7cOvQNl0q7QcEicCnDEp3ovH9Lo0IrG6tRe7wlhlULGc1ybSjIMFwLdJZA6dOIJF61dTbdRbBqhPjsiwn8MFDZ9OnZfNZc1nvFs89hzilRMIsgWnlEA9qBUwvMsvmdXzEkbH5MA7dW7kv6SKQJ6DCqI-AKXEbP1zDcPMatQnxDS0UJUhq_oJvcUihjGMxKr47TLbxqlOsxoZedgbuDrkj5lf7pbD07vzPeJZEyp1ymHKL8H8gJjxPudzUqcE2qQJ4Yv7zQ77zbiNHb-UM6Z9gBnwcL6Kci8quWWOXydAMnVCxNAfq7hKvUSMtUJ0wYBkxI0Bm2SCfbiVrhWUkIINjpEOJluxpvVf-q6nwDd8G3Vo8CKTIZIOz4yAm_hif0Zy7HnVKG6kNqXCF2Vs5QvAvgfcCmO2i6_pXfnOBtuDMIoq7_zmU0Pt8bj98BBYqOt5xk1yHHvuUmSCIrNmcylGHz_i1SQVsCYIg4dFRWpVYyau8XarF7fbwRI_1JULszyR7HFm00]--></g></svg>