<svg xmlns="http://www.w3.org/2000/svg" xmlns:xlink="http://www.w3.org/1999/xlink" contentStyleType="text/css" data-diagram-type="JSON" height="856px" preserveAspectRatio="none" style="width:678px;height:856px;background:#FFFFFF;" version="1.1" viewBox="0 0 678 856" width="678px" zoomAndPan="magnify"><defs/><g><rect fill="#F1F1F1" height="138.4075" rx="5" ry="5" style="stroke:#F1F1F1;stroke-width:1.5;" width="153.9583" x="10" y="182.8642"/><text fill="#000000" font-family="sans-serif" font-size="14" font-weight="bold" lengthAdjust="spacing" textLength="39.4939" x="15" y="199.8301">name</text><text fill="#000000" font-family="sans-serif" font-size="14" lengthAdjust="spacing" textLength="39.9559" x="111.8837" y="199.8301">KitBot</text><line style="stroke:#000000;stroke-width:1;" x1="106.8837" x2="106.8837" y1="182.8642" y2="205.9321"/><line style="stroke:#000000;stroke-width:1;" x1="10" x2="163.9583" y1="205.9321" y2="205.9321"/><text fill="#000000" font-family="sans-serif" font-size="14" font-weight="bold" lengthAdjust="spacing" textLength="35.9659" x="15" y="222.898">isFTC</text><text fill="#000000" font-family="sans-serif" font-size="14" lengthAdjust="spacing" textLength="47.0746" x="111.8837" y="222.898">&#9744; false</text><line style="stroke:#000000;stroke-width:1;" x1="106.8837" x2="106.8837" y1="205.9321" y2="229"/><line style="stroke:#000000;stroke-width:1;" x1="10" x2="163.9583" y1="229" y2="229"/><text fill="#000000" font-family="sans-serif" font-size="14" font-weight="bold" lengthAdjust="spacing" textLength="64.6098" x="15" y="245.9659">rotations</text><text fill="#000000" font-family="sans-serif" font-size="14" lengthAdjust="spacing" textLength="10.92" x="111.8837" y="245.9659">&#160;&#160;&#160;</text><line style="stroke:#000000;stroke-width:1;" x1="106.8837" x2="106.8837" y1="229" y2="252.0679"/><line style="stroke:#000000;stroke-width:1;" x1="10" x2="163.9583" y1="252.0679" y2="252.0679"/><text fill="#000000" font-family="sans-serif" font-size="14" font-weight="bold" lengthAdjust="spacing" textLength="56.9238" x="15" y="269.0339">position</text><text fill="#000000" font-family="sans-serif" font-size="14" lengthAdjust="spacing" textLength="10.92" x="111.8837" y="269.0339">&#160;&#160;&#160;</text><line style="stroke:#000000;stroke-width:1;" x1="106.8837" x2="106.8837" y1="252.0679" y2="275.1358"/><line style="stroke:#000000;stroke-width:1;" x1="10" x2="163.9583" y1="275.1358" y2="275.1358"/><text fill="#000000" font-family="sans-serif" font-size="14" font-weight="bold" lengthAdjust="spacing" textLength="59.2898" x="15" y="292.1018">cameras</text><text fill="#000000" font-family="sans-serif" font-size="14" lengthAdjust="spacing" textLength="10.92" x="111.8837" y="292.1018">&#160;&#160;&#160;</text><line style="stroke:#000000;stroke-width:1;" x1="106.8837" x2="106.8837" y1="275.1358" y2="298.2038"/><line style="stroke:#000000;stroke-width:1;" x1="10" x2="163.9583" y1="298.2038" y2="298.2038"/><text fill="#000000" font-family="sans-serif" font-size="14" font-weight="bold" lengthAdjust="spacing" textLength="86.8837" x="15" y="315.1697">components</text><text fill="#000000" font-family="sans-serif" font-size="14" lengthAdjust="spacing" textLength="10.92" x="111.8837" y="315.1697">&#160;&#160;&#160;</text><line style="stroke:#000000;stroke-width:1;" x1="106.8837" x2="106.8837" y1="298.2038" y2="321.2717"/><rect fill="none" height="138.4075" rx="5" ry="5" style="stroke:#000000;stroke-width:1.5;" width="153.9583" x="10" y="182.8642"/><rect fill="#F1F1F1" height="23.0679" rx="5" ry="5" style="stroke:#F1F1F1;stroke-width:1.5;" width="20.92" x="209.5" y="95.534"/><text fill="#000000" font-family="sans-serif" font-size="14" lengthAdjust="spacing" textLength="10.92" x="214.5" y="112.4999">&#160;&#160;&#160;</text><rect fill="none" height="23.0679" rx="5" ry="5" style="stroke:#000000;stroke-width:1.5;" width="20.92" x="209.5" y="95.534"/><rect fill="#F1F1F1" height="46.1358" rx="5" ry="5" style="stroke:#F1F1F1;stroke-width:1.5;" width="92.0717" x="321" y="28"/><text fill="#000000" font-family="sans-serif" font-size="14" font-weight="bold" lengthAdjust="spacing" textLength="27.6919" x="326" y="44.9659">axis</text><text fill="#000000" font-family="sans-serif" font-size="14" lengthAdjust="spacing" textLength="6.58" x="392.0558" y="44.9659">z</text><line style="stroke:#000000;stroke-width:1;" x1="387.0558" x2="387.0558" y1="28" y2="51.0679"/><line style="stroke:#000000;stroke-width:1;" x1="321" x2="413.0717" y1="51.0679" y2="51.0679"/><text fill="#000000" font-family="sans-serif" font-size="14" font-weight="bold" lengthAdjust="spacing" textLength="56.0558" x="326" y="68.0339">degrees</text><text fill="#000000" font-family="sans-serif" font-size="14" lengthAdjust="spacing" textLength="16.0159" x="392.0558" y="68.0339">90</text><line style="stroke:#000000;stroke-width:1;" x1="387.0558" x2="387.0558" y1="51.0679" y2="74.1358"/><rect fill="none" height="46.1358" rx="5" ry="5" style="stroke:#000000;stroke-width:1.5;" width="92.0717" x="321" y="28"/><rect fill="#F1F1F1" height="69.2038" rx="5" ry="5" style="stroke:#F1F1F1;stroke-width:1.5;" width="37.7759" x="201" y="191.466"/><text fill="#000000" font-family="sans-serif" font-size="14" lengthAdjust="spacing" textLength="27.7759" x="206" y="208.432">0.12</text><line style="stroke:#000000;stroke-width:1;" x1="201" x2="238.7759" y1="214.534" y2="214.534"/><text fill="#000000" font-family="sans-serif" font-size="14" lengthAdjust="spacing" textLength="27.7759" x="206" y="231.4999">3.17</text><line style="stroke:#000000;stroke-width:1;" x1="201" x2="238.7759" y1="237.6019" y2="237.6019"/><text fill="#000000" font-family="sans-serif" font-size="14" lengthAdjust="spacing" textLength="8.008" x="206" y="254.5678">0</text><rect fill="none" height="69.2038" rx="5" ry="5" style="stroke:#000000;stroke-width:1.5;" width="37.7759" x="201" y="191.466"/><rect fill="#F1F1F1" height="92.2717" rx="5" ry="5" style="stroke:#F1F1F1;stroke-width:1.5;" width="20.92" x="209.5" y="278.9321"/><text fill="#000000" font-family="sans-serif" font-size="14" lengthAdjust="spacing" textLength="10.92" x="214.5" y="295.898">&#160;&#160;&#160;</text><line style="stroke:#000000;stroke-width:1;" x1="209.5" x2="230.42" y1="302" y2="302"/><text fill="#000000" font-family="sans-serif" font-size="14" lengthAdjust="spacing" textLength="10.92" x="214.5" y="318.9659">&#160;&#160;&#160;</text><line style="stroke:#000000;stroke-width:1;" x1="209.5" x2="230.42" y1="325.0679" y2="325.0679"/><text fill="#000000" font-family="sans-serif" font-size="14" lengthAdjust="spacing" textLength="10.92" x="214.5" y="342.0339">&#160;&#160;&#160;</text><line style="stroke:#000000;stroke-width:1;" x1="209.5" x2="230.42" y1="348.1358" y2="348.1358"/><text fill="#000000" font-family="sans-serif" font-size="14" lengthAdjust="spacing" textLength="10.92" x="214.5" y="365.1018">&#160;&#160;&#160;</text><rect fill="none" height="92.2717" rx="5" ry="5" style="stroke:#000000;stroke-width:1.5;" width="20.92" x="209.5" y="278.9321"/><rect fill="#F1F1F1" height="115.3396" rx="5" ry="5" style="stroke:#F1F1F1;stroke-width:1.5;" width="181.9654" x="276" y="92.3981"/><text fill="#000000" font-family="sans-serif" font-size="14" font-weight="bold" lengthAdjust="spacing" textLength="39.4939" x="281" y="109.3641">name</text><text fill="#000000" font-family="sans-serif" font-size="14" lengthAdjust="spacing" textLength="90.1877" x="362.7777" y="109.3641">Front Camera</text><line style="stroke:#000000;stroke-width:1;" x1="357.7777" x2="357.7777" y1="92.3981" y2="115.466"/><line style="stroke:#000000;stroke-width:1;" x1="276" x2="457.9654" y1="115.466" y2="115.466"/><text fill="#000000" font-family="sans-serif" font-size="14" font-weight="bold" lengthAdjust="spacing" textLength="64.6098" x="281" y="132.432">rotations</text><text fill="#000000" font-family="sans-serif" font-size="14" lengthAdjust="spacing" textLength="10.92" x="362.7777" y="132.432">&#160;&#160;&#160;</text><line style="stroke:#000000;stroke-width:1;" x1="357.7777" x2="357.7777" y1="115.466" y2="138.534"/><line style="stroke:#000000;stroke-width:1;" x1="276" x2="457.9654" y1="138.534" y2="138.534"/><text fill="#000000" font-family="sans-serif" font-size="14" font-weight="bold" lengthAdjust="spacing" textLength="56.9238" x="281" y="155.4999">position</text><text fill="#000000" font-family="sans-serif" font-size="14" lengthAdjust="spacing" textLength="10.92" x="362.7777" y="155.4999">&#160;&#160;&#160;</text><line style="stroke:#000000;stroke-width:1;" x1="357.7777" x2="357.7777" y1="138.534" y2="161.6019"/><line style="stroke:#000000;stroke-width:1;" x1="276" x2="457.9654" y1="161.6019" y2="161.6019"/><text fill="#000000" font-family="sans-serif" font-size="14" font-weight="bold" lengthAdjust="spacing" textLength="71.7777" x="281" y="178.5678">resolution</text><text fill="#000000" font-family="sans-serif" font-size="14" lengthAdjust="spacing" textLength="10.92" x="362.7777" y="178.5678">&#160;&#160;&#160;</text><line style="stroke:#000000;stroke-width:1;" x1="357.7777" x2="357.7777" y1="161.6019" y2="184.6698"/><line style="stroke:#000000;stroke-width:1;" x1="276" x2="457.9654" y1="184.6698" y2="184.6698"/><text fill="#000000" font-family="sans-serif" font-size="14" font-weight="bold" lengthAdjust="spacing" textLength="22.1619" x="281" y="201.6357">fov</text><text fill="#000000" font-family="sans-serif" font-size="14" lengthAdjust="spacing" textLength="24.0239" x="362.7777" y="201.6357">100</text><line style="stroke:#000000;stroke-width:1;" x1="357.7777" x2="357.7777" y1="184.6698" y2="207.7377"/><rect fill="none" height="115.3396" rx="5" ry="5" style="stroke:#000000;stroke-width:1.5;" width="181.9654" x="276" y="92.3981"/><rect fill="#F1F1F1" height="23.0679" rx="5" ry="5" style="stroke:#F1F1F1;stroke-width:1.5;" width="20.92" x="501.5" y="21.534"/><text fill="#000000" font-family="sans-serif" font-size="14" lengthAdjust="spacing" textLength="10.92" x="506.5" y="38.4999">&#160;&#160;&#160;</text><rect fill="none" height="23.0679" rx="5" ry="5" style="stroke:#000000;stroke-width:1.5;" width="20.92" x="501.5" y="21.534"/><rect fill="#F1F1F1" height="46.1358" rx="5" ry="5" style="stroke:#F1F1F1;stroke-width:1.5;" width="92.0717" x="570" y="10"/><text fill="#000000" font-family="sans-serif" font-size="14" font-weight="bold" lengthAdjust="spacing" textLength="27.6919" x="575" y="26.9659">axis</text><text fill="#000000" font-family="sans-serif" font-size="14" lengthAdjust="spacing" textLength="7.14" x="641.0558" y="26.9659">y</text><line style="stroke:#000000;stroke-width:1;" x1="636.0558" x2="636.0558" y1="10" y2="33.0679"/><line style="stroke:#000000;stroke-width:1;" x1="570" x2="662.0717" y1="33.0679" y2="33.0679"/><text fill="#000000" font-family="sans-serif" font-size="14" font-weight="bold" lengthAdjust="spacing" textLength="56.0558" x="575" y="50.0339">degrees</text><text fill="#000000" font-family="sans-serif" font-size="14" lengthAdjust="spacing" textLength="16.0159" x="641.0558" y="50.0339">20</text><line style="stroke:#000000;stroke-width:1;" x1="636.0558" x2="636.0558" y1="33.0679" y2="56.1358"/><rect fill="none" height="46.1358" rx="5" ry="5" style="stroke:#000000;stroke-width:1.5;" width="92.0717" x="570" y="10"/><rect fill="#F1F1F1" height="69.2038" rx="5" ry="5" style="stroke:#F1F1F1;stroke-width:1.5;" width="29.7679" x="497" y="62.466"/><text fill="#000000" font-family="sans-serif" font-size="14" lengthAdjust="spacing" textLength="19.7679" x="502" y="79.432">0.2</text><line style="stroke:#000000;stroke-width:1;" x1="497" x2="526.7679" y1="85.534" y2="85.534"/><text fill="#000000" font-family="sans-serif" font-size="14" lengthAdjust="spacing" textLength="8.008" x="502" y="102.4999">0</text><line style="stroke:#000000;stroke-width:1;" x1="497" x2="526.7679" y1="108.6019" y2="108.6019"/><text fill="#000000" font-family="sans-serif" font-size="14" lengthAdjust="spacing" textLength="19.7679" x="502" y="125.5678">0.8</text><rect fill="none" height="69.2038" rx="5" ry="5" style="stroke:#000000;stroke-width:1.5;" width="29.7679" x="497" y="62.466"/><rect fill="#F1F1F1" height="46.1358" rx="5" ry="5" style="stroke:#F1F1F1;stroke-width:1.5;" width="34.0239" x="495" y="150"/><text fill="#000000" font-family="sans-serif" font-size="14" lengthAdjust="spacing" textLength="24.0239" x="500" y="166.9659">960</text><line style="stroke:#000000;stroke-width:1;" x1="495" x2="529.0239" y1="173.0679" y2="173.0679"/><text fill="#000000" font-family="sans-serif" font-size="14" lengthAdjust="spacing" textLength="24.0239" x="500" y="190.0339">720</text><rect fill="none" height="46.1358" rx="5" ry="5" style="stroke:#000000;stroke-width:1.5;" width="34.0239" x="495" y="150"/><rect fill="#F1F1F1" height="115.3396" rx="5" ry="5" style="stroke:#F1F1F1;stroke-width:1.5;" width="177.8914" x="278" y="255.3981"/><text fill="#000000" font-family="sans-serif" font-size="14" font-weight="bold" lengthAdjust="spacing" textLength="39.4939" x="283" y="272.3641">name</text><text fill="#000000" font-family="sans-serif" font-size="14" lengthAdjust="spacing" textLength="86.1137" x="364.7777" y="272.3641">Back Camera</text><line style="stroke:#000000;stroke-width:1;" x1="359.7777" x2="359.7777" y1="255.3981" y2="278.466"/><line style="stroke:#000000;stroke-width:1;" x1="278" x2="455.8914" y1="278.466" y2="278.466"/><text fill="#000000" font-family="sans-serif" font-size="14" font-weight="bold" lengthAdjust="spacing" textLength="64.6098" x="283" y="295.432">rotations</text><text fill="#000000" font-family="sans-serif" font-size="14" lengthAdjust="spacing" textLength="10.92" x="364.7777" y="295.432">&#160;&#160;&#160;</text><line style="stroke:#000000;stroke-width:1;" x1="359.7777" x2="359.7777" y1="278.466" y2="301.534"/><line style="stroke:#000000;stroke-width:1;" x1="278" x2="455.8914" y1="301.534" y2="301.534"/><text fill="#000000" font-family="sans-serif" font-size="14" font-weight="bold" lengthAdjust="spacing" textLength="56.9238" x="283" y="318.4999">position</text><text fill="#000000" font-family="sans-serif" font-size="14" lengthAdjust="spacing" textLength="10.92" x="364.7777" y="318.4999">&#160;&#160;&#160;</text><line style="stroke:#000000;stroke-width:1;" x1="359.7777" x2="359.7777" y1="301.534" y2="324.6019"/><line style="stroke:#000000;stroke-width:1;" x1="278" x2="455.8914" y1="324.6019" y2="324.6019"/><text fill="#000000" font-family="sans-serif" font-size="14" font-weight="bold" lengthAdjust="spacing" textLength="71.7777" x="283" y="341.5678">resolution</text><text fill="#000000" font-family="sans-serif" font-size="14" lengthAdjust="spacing" textLength="10.92" x="364.7777" y="341.5678">&#160;&#160;&#160;</text><line style="stroke:#000000;stroke-width:1;" x1="359.7777" x2="359.7777" y1="324.6019" y2="347.6698"/><line style="stroke:#000000;stroke-width:1;" x1="278" x2="455.8914" y1="347.6698" y2="347.6698"/><text fill="#000000" font-family="sans-serif" font-size="14" font-weight="bold" lengthAdjust="spacing" textLength="22.1619" x="283" y="364.6357">fov</text><text fill="#000000" font-family="sans-serif" font-size="14" lengthAdjust="spacing" textLength="24.0239" x="364.7777" y="364.6357">100</text><line style="stroke:#000000;stroke-width:1;" x1="359.7777" x2="359.7777" y1="347.6698" y2="370.7377"/><rect fill="none" height="115.3396" rx="5" ry="5" style="stroke:#000000;stroke-width:1.5;" width="177.8914" x="278" y="255.3981"/><rect fill="#F1F1F1" height="46.1358" rx="5" ry="5" style="stroke:#F1F1F1;stroke-width:1.5;" width="20.92" x="501.5" y="214"/><text fill="#000000" font-family="sans-serif" font-size="14" lengthAdjust="spacing" textLength="10.92" x="506.5" y="230.9659">&#160;&#160;&#160;</text><line style="stroke:#000000;stroke-width:1;" x1="501.5" x2="522.42" y1="237.0679" y2="237.0679"/><text fill="#000000" font-family="sans-serif" font-size="14" lengthAdjust="spacing" textLength="10.92" x="506.5" y="254.0339">&#160;&#160;&#160;</text><rect fill="none" height="46.1358" rx="5" ry="5" style="stroke:#000000;stroke-width:1.5;" width="20.92" x="501.5" y="214"/><rect fill="#F1F1F1" height="46.1358" rx="5" ry="5" style="stroke:#F1F1F1;stroke-width:1.5;" width="92.0717" x="570" y="182"/><text fill="#000000" font-family="sans-serif" font-size="14" font-weight="bold" lengthAdjust="spacing" textLength="27.6919" x="575" y="198.9659">axis</text><text fill="#000000" font-family="sans-serif" font-size="14" lengthAdjust="spacing" textLength="7.14" x="641.0558" y="198.9659">y</text><line style="stroke:#000000;stroke-width:1;" x1="636.0558" x2="636.0558" y1="182" y2="205.0679"/><line style="stroke:#000000;stroke-width:1;" x1="570" x2="662.0717" y1="205.0679" y2="205.0679"/><text fill="#000000" font-family="sans-serif" font-size="14" font-weight="bold" lengthAdjust="spacing" textLength="56.0558" x="575" y="222.0339">degrees</text><text fill="#000000" font-family="sans-serif" font-size="14" lengthAdjust="spacing" textLength="16.0159" x="641.0558" y="222.0339">20</text><line style="stroke:#000000;stroke-width:1;" x1="636.0558" x2="636.0558" y1="205.0679" y2="228.1358"/><rect fill="none" height="46.1358" rx="5" ry="5" style="stroke:#000000;stroke-width:1.5;" width="92.0717" x="570" y="182"/><rect fill="#F1F1F1" height="46.1358" rx="5" ry="5" style="stroke:#F1F1F1;stroke-width:1.5;" width="100.0797" x="566" y="246"/><text fill="#000000" font-family="sans-serif" font-size="14" font-weight="bold" lengthAdjust="spacing" textLength="27.6919" x="571" y="262.9659">axis</text><text fill="#000000" font-family="sans-serif" font-size="14" lengthAdjust="spacing" textLength="6.58" x="637.0558" y="262.9659">z</text><line style="stroke:#000000;stroke-width:1;" x1="632.0558" x2="632.0558" y1="246" y2="269.0679"/><line style="stroke:#000000;stroke-width:1;" x1="566" x2="666.0797" y1="269.0679" y2="269.0679"/><text fill="#000000" font-family="sans-serif" font-size="14" font-weight="bold" lengthAdjust="spacing" textLength="56.0558" x="571" y="286.0339">degrees</text><text fill="#000000" font-family="sans-serif" font-size="14" lengthAdjust="spacing" textLength="24.0239" x="637.0558" y="286.0339">180</text><line style="stroke:#000000;stroke-width:1;" x1="632.0558" x2="632.0558" y1="269.0679" y2="292.1358"/><rect fill="none" height="46.1358" rx="5" ry="5" style="stroke:#000000;stroke-width:1.5;" width="100.0797" x="566" y="246"/><rect fill="#F1F1F1" height="69.2038" rx="5" ry="5" style="stroke:#F1F1F1;stroke-width:1.5;" width="34.2759" x="495" y="278.466"/><text fill="#000000" font-family="sans-serif" font-size="14" lengthAdjust="spacing" textLength="24.2759" x="500" y="295.432">-0.2</text><line style="stroke:#000000;stroke-width:1;" x1="495" x2="529.2759" y1="301.534" y2="301.534"/><text fill="#000000" font-family="sans-serif" font-size="14" lengthAdjust="spacing" textLength="8.008" x="500" y="318.4999">0</text><line style="stroke:#000000;stroke-width:1;" x1="495" x2="529.2759" y1="324.6019" y2="324.6019"/><text fill="#000000" font-family="sans-serif" font-size="14" lengthAdjust="spacing" textLength="19.7679" x="500" y="341.5678">0.8</text><rect fill="none" height="69.2038" rx="5" ry="5" style="stroke:#000000;stroke-width:1.5;" width="34.2759" x="495" y="278.466"/><rect fill="#F1F1F1" height="46.1358" rx="5" ry="5" style="stroke:#F1F1F1;stroke-width:1.5;" width="34.0239" x="495" y="366"/><text fill="#000000" font-family="sans-serif" font-size="14" lengthAdjust="spacing" textLength="24.0239" x="500" y="382.9659">960</text><line style="stroke:#000000;stroke-width:1;" x1="495" x2="529.0239" y1="389.0679" y2="389.0679"/><text fill="#000000" font-family="sans-serif" font-size="14" lengthAdjust="spacing" textLength="24.0239" x="500" y="406.0339">720</text><rect fill="none" height="46.1358" rx="5" ry="5" style="stroke:#000000;stroke-width:1.5;" width="34.0239" x="495" y="366"/><rect fill="#F1F1F1" height="115.3396" rx="5" ry="5" style="stroke:#F1F1F1;stroke-width:1.5;" width="171.8434" x="281" y="445.3981"/><text fill="#000000" font-family="sans-serif" font-size="14" font-weight="bold" lengthAdjust="spacing" textLength="39.4939" x="286" y="462.3641">name</text><text fill="#000000" font-family="sans-serif" font-size="14" lengthAdjust="spacing" textLength="80.0657" x="367.7777" y="462.3641">Left Camera</text><line style="stroke:#000000;stroke-width:1;" x1="362.7777" x2="362.7777" y1="445.3981" y2="468.466"/><line style="stroke:#000000;stroke-width:1;" x1="281" x2="452.8434" y1="468.466" y2="468.466"/><text fill="#000000" font-family="sans-serif" font-size="14" font-weight="bold" lengthAdjust="spacing" textLength="64.6098" x="286" y="485.432">rotations</text><text fill="#000000" font-family="sans-serif" font-size="14" lengthAdjust="spacing" textLength="10.92" x="367.7777" y="485.432">&#160;&#160;&#160;</text><line style="stroke:#000000;stroke-width:1;" x1="362.7777" x2="362.7777" y1="468.466" y2="491.534"/><line style="stroke:#000000;stroke-width:1;" x1="281" x2="452.8434" y1="491.534" y2="491.534"/><text fill="#000000" font-family="sans-serif" font-size="14" font-weight="bold" lengthAdjust="spacing" textLength="56.9238" x="286" y="508.4999">position</text><text fill="#000000" font-family="sans-serif" font-size="14" lengthAdjust="spacing" textLength="10.92" x="367.7777" y="508.4999">&#160;&#160;&#160;</text><line style="stroke:#000000;stroke-width:1;" x1="362.7777" x2="362.7777" y1="491.534" y2="514.6019"/><line style="stroke:#000000;stroke-width:1;" x1="281" x2="452.8434" y1="514.6019" y2="514.6019"/><text fill="#000000" font-family="sans-serif" font-size="14" font-weight="bold" lengthAdjust="spacing" textLength="71.7777" x="286" y="531.5678">resolution</text><text fill="#000000" font-family="sans-serif" font-size="14" lengthAdjust="spacing" textLength="10.92" x="367.7777" y="531.5678">&#160;&#160;&#160;</text><line style="stroke:#000000;stroke-width:1;" x1="362.7777" x2="362.7777" y1="514.6019" y2="537.6698"/><line style="stroke:#000000;stroke-width:1;" x1="281" x2="452.8434" y1="537.6698" y2="537.6698"/><text fill="#000000" font-family="sans-serif" font-size="14" font-weight="bold" lengthAdjust="spacing" textLength="22.1619" x="286" y="554.6357">fov</text><text fill="#000000" font-family="sans-serif" font-size="14" lengthAdjust="spacing" textLength="16.0159" x="367.7777" y="554.6357">90</text><line style="stroke:#000000;stroke-width:1;" x1="362.7777" x2="362.7777" y1="537.6698" y2="560.7377"/><rect fill="none" height="115.3396" rx="5" ry="5" style="stroke:#000000;stroke-width:1.5;" width="171.8434" x="281" y="445.3981"/><rect fill="#F1F1F1" height="46.1358" rx="5" ry="5" style="stroke:#F1F1F1;stroke-width:1.5;" width="20.92" x="501.5" y="430"/><text fill="#000000" font-family="sans-serif" font-size="14" lengthAdjust="spacing" textLength="10.92" x="506.5" y="446.9659">&#160;&#160;&#160;</text><line style="stroke:#000000;stroke-width:1;" x1="501.5" x2="522.42" y1="453.0679" y2="453.0679"/><text fill="#000000" font-family="sans-serif" font-size="14" lengthAdjust="spacing" textLength="10.92" x="506.5" y="470.0339">&#160;&#160;&#160;</text><rect fill="none" height="46.1358" rx="5" ry="5" style="stroke:#000000;stroke-width:1.5;" width="20.92" x="501.5" y="430"/><rect fill="#F1F1F1" height="46.1358" rx="5" ry="5" style="stroke:#F1F1F1;stroke-width:1.5;" width="92.0717" x="570" y="398"/><text fill="#000000" font-family="sans-serif" font-size="14" font-weight="bold" lengthAdjust="spacing" textLength="27.6919" x="575" y="414.9659">axis</text><text fill="#000000" font-family="sans-serif" font-size="14" lengthAdjust="spacing" textLength="7.14" x="641.0558" y="414.9659">y</text><line style="stroke:#000000;stroke-width:1;" x1="636.0558" x2="636.0558" y1="398" y2="421.0679"/><line style="stroke:#000000;stroke-width:1;" x1="570" x2="662.0717" y1="421.0679" y2="421.0679"/><text fill="#000000" font-family="sans-serif" font-size="14" font-weight="bold" lengthAdjust="spacing" textLength="56.0558" x="575" y="438.0339">degrees</text><text fill="#000000" font-family="sans-serif" font-size="14" lengthAdjust="spacing" textLength="16.0159" x="641.0558" y="438.0339">20</text><line style="stroke:#000000;stroke-width:1;" x1="636.0558" x2="636.0558" y1="421.0679" y2="444.1358"/><rect fill="none" height="46.1358" rx="5" ry="5" style="stroke:#000000;stroke-width:1.5;" width="92.0717" x="570" y="398"/><rect fill="#F1F1F1" height="46.1358" rx="5" ry="5" style="stroke:#F1F1F1;stroke-width:1.5;" width="92.0717" x="570" y="462"/><text fill="#000000" font-family="sans-serif" font-size="14" font-weight="bold" lengthAdjust="spacing" textLength="27.6919" x="575" y="478.9659">axis</text><text fill="#000000" font-family="sans-serif" font-size="14" lengthAdjust="spacing" textLength="6.58" x="641.0558" y="478.9659">z</text><line style="stroke:#000000;stroke-width:1;" x1="636.0558" x2="636.0558" y1="462" y2="485.0679"/><line style="stroke:#000000;stroke-width:1;" x1="570" x2="662.0717" y1="485.0679" y2="485.0679"/><text fill="#000000" font-family="sans-serif" font-size="14" font-weight="bold" lengthAdjust="spacing" textLength="56.0558" x="575" y="502.0339">degrees</text><text fill="#000000" font-family="sans-serif" font-size="14" lengthAdjust="spacing" textLength="16.0159" x="641.0558" y="502.0339">90</text><line style="stroke:#000000;stroke-width:1;" x1="636.0558" x2="636.0558" y1="485.0679" y2="508.1358"/><rect fill="none" height="46.1358" rx="5" ry="5" style="stroke:#000000;stroke-width:1.5;" width="92.0717" x="570" y="462"/><rect fill="#F1F1F1" height="69.2038" rx="5" ry="5" style="stroke:#F1F1F1;stroke-width:1.5;" width="29.7679" x="497" y="494.466"/><text fill="#000000" font-family="sans-serif" font-size="14" lengthAdjust="spacing" textLength="8.008" x="502" y="511.432">0</text><line style="stroke:#000000;stroke-width:1;" x1="497" x2="526.7679" y1="517.534" y2="517.534"/><text fill="#000000" font-family="sans-serif" font-size="14" lengthAdjust="spacing" textLength="19.7679" x="502" y="534.4999">0.2</text><line style="stroke:#000000;stroke-width:1;" x1="497" x2="526.7679" y1="540.6019" y2="540.6019"/><text fill="#000000" font-family="sans-serif" font-size="14" lengthAdjust="spacing" textLength="19.7679" x="502" y="557.5678">0.8</text><rect fill="none" height="69.2038" rx="5" ry="5" style="stroke:#000000;stroke-width:1.5;" width="29.7679" x="497" y="494.466"/><rect fill="#F1F1F1" height="46.1358" rx="5" ry="5" style="stroke:#F1F1F1;stroke-width:1.5;" width="34.0239" x="495" y="582"/><text fill="#000000" font-family="sans-serif" font-size="14" lengthAdjust="spacing" textLength="24.0239" x="500" y="598.9659">960</text><line style="stroke:#000000;stroke-width:1;" x1="495" x2="529.0239" y1="605.0679" y2="605.0679"/><text fill="#000000" font-family="sans-serif" font-size="14" lengthAdjust="spacing" textLength="24.0239" x="500" y="622.0339">720</text><rect fill="none" height="46.1358" rx="5" ry="5" style="stroke:#000000;stroke-width:1.5;" width="34.0239" x="495" y="582"/><rect fill="#F1F1F1" height="115.3396" rx="5" ry="5" style="stroke:#F1F1F1;stroke-width:1.5;" width="181.3774" x="276.5" y="661.3981"/><text fill="#000000" font-family="sans-serif" font-size="14" font-weight="bold" lengthAdjust="spacing" textLength="39.4939" x="281.5" y="678.3641">name</text><text fill="#000000" font-family="sans-serif" font-size="14" lengthAdjust="spacing" textLength="89.5997" x="363.2777" y="678.3641">Right Camera</text><line style="stroke:#000000;stroke-width:1;" x1="358.2777" x2="358.2777" y1="661.3981" y2="684.466"/><line style="stroke:#000000;stroke-width:1;" x1="276.5" x2="457.8774" y1="684.466" y2="684.466"/><text fill="#000000" font-family="sans-serif" font-size="14" font-weight="bold" lengthAdjust="spacing" textLength="64.6098" x="281.5" y="701.432">rotations</text><text fill="#000000" font-family="sans-serif" font-size="14" lengthAdjust="spacing" textLength="10.92" x="363.2777" y="701.432">&#160;&#160;&#160;</text><line style="stroke:#000000;stroke-width:1;" x1="358.2777" x2="358.2777" y1="684.466" y2="707.534"/><line style="stroke:#000000;stroke-width:1;" x1="276.5" x2="457.8774" y1="707.534" y2="707.534"/><text fill="#000000" font-family="sans-serif" font-size="14" font-weight="bold" lengthAdjust="spacing" textLength="56.9238" x="281.5" y="724.4999">position</text><text fill="#000000" font-family="sans-serif" font-size="14" lengthAdjust="spacing" textLength="10.92" x="363.2777" y="724.4999">&#160;&#160;&#160;</text><line style="stroke:#000000;stroke-width:1;" x1="358.2777" x2="358.2777" y1="707.534" y2="730.6019"/><line style="stroke:#000000;stroke-width:1;" x1="276.5" x2="457.8774" y1="730.6019" y2="730.6019"/><text fill="#000000" font-family="sans-serif" font-size="14" font-weight="bold" lengthAdjust="spacing" textLength="71.7777" x="281.5" y="747.5678">resolution</text><text fill="#000000" font-family="sans-serif" font-size="14" lengthAdjust="spacing" textLength="10.92" x="363.2777" y="747.5678">&#160;&#160;&#160;</text><line style="stroke:#000000;stroke-width:1;" x1="358.2777" x2="358.2777" y1="730.6019" y2="753.6698"/><line style="stroke:#000000;stroke-width:1;" x1="276.5" x2="457.8774" y1="753.6698" y2="753.6698"/><text fill="#000000" font-family="sans-serif" font-size="14" font-weight="bold" lengthAdjust="spacing" textLength="22.1619" x="281.5" y="770.6357">fov</text><text fill="#000000" font-family="sans-serif" font-size="14" lengthAdjust="spacing" textLength="16.0159" x="363.2777" y="770.6357">90</text><line style="stroke:#000000;stroke-width:1;" x1="358.2777" x2="358.2777" y1="753.6698" y2="776.7377"/><rect fill="none" height="115.3396" rx="5" ry="5" style="stroke:#000000;stroke-width:1.5;" width="181.3774" x="276.5" y="661.3981"/><rect fill="#F1F1F1" height="46.1358" rx="5" ry="5" style="stroke:#F1F1F1;stroke-width:1.5;" width="20.92" x="501.5" y="646"/><text fill="#000000" font-family="sans-serif" font-size="14" lengthAdjust="spacing" textLength="10.92" x="506.5" y="662.9659">&#160;&#160;&#160;</text><line style="stroke:#000000;stroke-width:1;" x1="501.5" x2="522.42" y1="669.0679" y2="669.0679"/><text fill="#000000" font-family="sans-serif" font-size="14" lengthAdjust="spacing" textLength="10.92" x="506.5" y="686.0339">&#160;&#160;&#160;</text><rect fill="none" height="46.1358" rx="5" ry="5" style="stroke:#000000;stroke-width:1.5;" width="20.92" x="501.5" y="646"/><rect fill="#F1F1F1" height="46.1358" rx="5" ry="5" style="stroke:#F1F1F1;stroke-width:1.5;" width="92.0717" x="570" y="614"/><text fill="#000000" font-family="sans-serif" font-size="14" font-weight="bold" lengthAdjust="spacing" textLength="27.6919" x="575" y="630.9659">axis</text><text fill="#000000" font-family="sans-serif" font-size="14" lengthAdjust="spacing" textLength="7.14" x="641.0558" y="630.9659">y</text><line style="stroke:#000000;stroke-width:1;" x1="636.0558" x2="636.0558" y1="614" y2="637.0679"/><line style="stroke:#000000;stroke-width:1;" x1="570" x2="662.0717" y1="637.0679" y2="637.0679"/><text fill="#000000" font-family="sans-serif" font-size="14" font-weight="bold" lengthAdjust="spacing" textLength="56.0558" x="575" y="654.0339">degrees</text><text fill="#000000" font-family="sans-serif" font-size="14" lengthAdjust="spacing" textLength="16.0159" x="641.0558" y="654.0339">20</text><line style="stroke:#000000;stroke-width:1;" x1="636.0558" x2="636.0558" y1="637.0679" y2="660.1358"/><rect fill="none" height="46.1358" rx="5" ry="5" style="stroke:#000000;stroke-width:1.5;" width="92.0717" x="570" y="614"/><rect fill="#F1F1F1" height="46.1358" rx="5" ry="5" style="stroke:#F1F1F1;stroke-width:1.5;" width="96.5797" x="567.5" y="678"/><text fill="#000000" font-family="sans-serif" font-size="14" font-weight="bold" lengthAdjust="spacing" textLength="27.6919" x="572.5" y="694.9659">axis</text><text fill="#000000" font-family="sans-serif" font-size="14" lengthAdjust="spacing" textLength="6.58" x="638.5558" y="694.9659">z</text><line style="stroke:#000000;stroke-width:1;" x1="633.5558" x2="633.5558" y1="678" y2="701.0679"/><line style="stroke:#000000;stroke-width:1;" x1="567.5" x2="664.0797" y1="701.0679" y2="701.0679"/><text fill="#000000" font-family="sans-serif" font-size="14" font-weight="bold" lengthAdjust="spacing" textLength="56.0558" x="572.5" y="718.0339">degrees</text><text fill="#000000" font-family="sans-serif" font-size="14" lengthAdjust="spacing" textLength="20.5239" x="638.5558" y="718.0339">-90</text><line style="stroke:#000000;stroke-width:1;" x1="633.5558" x2="633.5558" y1="701.0679" y2="724.1358"/><rect fill="none" height="46.1358" rx="5" ry="5" style="stroke:#000000;stroke-width:1.5;" width="96.5797" x="567.5" y="678"/><rect fill="#F1F1F1" height="69.2038" rx="5" ry="5" style="stroke:#F1F1F1;stroke-width:1.5;" width="34.2759" x="495" y="710.466"/><text fill="#000000" font-family="sans-serif" font-size="14" lengthAdjust="spacing" textLength="8.008" x="500" y="727.432">0</text><line style="stroke:#000000;stroke-width:1;" x1="495" x2="529.2759" y1="733.534" y2="733.534"/><text fill="#000000" font-family="sans-serif" font-size="14" lengthAdjust="spacing" textLength="24.2759" x="500" y="750.4999">-0.2</text><line style="stroke:#000000;stroke-width:1;" x1="495" x2="529.2759" y1="756.6019" y2="756.6019"/><text fill="#000000" font-family="sans-serif" font-size="14" lengthAdjust="spacing" textLength="19.7679" x="500" y="773.5678">0.8</text><rect fill="none" height="69.2038" rx="5" ry="5" style="stroke:#000000;stroke-width:1.5;" width="34.2759" x="495" y="710.466"/><rect fill="#F1F1F1" height="46.1358" rx="5" ry="5" style="stroke:#F1F1F1;stroke-width:1.5;" width="34.0239" x="495" y="798"/><text fill="#000000" font-family="sans-serif" font-size="14" lengthAdjust="spacing" textLength="24.0239" x="500" y="814.9659">960</text><line style="stroke:#000000;stroke-width:1;" x1="495" x2="529.0239" y1="821.0679" y2="821.0679"/><text fill="#000000" font-family="sans-serif" font-size="14" lengthAdjust="spacing" textLength="24.0239" x="500" y="838.0339">720</text><rect fill="none" height="46.1358" rx="5" ry="5" style="stroke:#000000;stroke-width:1.5;" width="34.0239" x="495" y="798"/><rect fill="#F1F1F1" height="15" rx="5" ry="5" style="stroke:#F1F1F1;stroke-width:1.5;" width="30" x="212" y="389.5679"/><rect fill="none" height="15" rx="5" ry="5" style="stroke:#000000;stroke-width:1.5;" width="30" x="212" y="389.5679"/><path d="M219.2007,107.5967 L231.0502,102.2499 C242.1493,97.2416 260.1693,89.2812 276,83.0679 C288.1898,78.2836 301.423,73.4214 313.9104,68.98" fill="none" style="stroke:#000000;stroke-width:1;stroke-dasharray:3.0,3.0;"/><path d="M314.9355,71.8811 L316.0863,68.2112 L312.8854,66.0789 L321.1632,66.4173 L314.9355,71.8811" fill="#000000"/><ellipse cx="219.2007" cy="107.5967" fill="#000000" rx="3" ry="3" style="stroke:#000000;stroke-width:1;"/><path d="M152,240.0679 L165,240.0679 C177.1725,240.0679 202.4505,162.8034 213.7847,126.0551" fill="none" style="stroke:#000000;stroke-width:1;stroke-dasharray:3.0,3.0;"/><path d="M216.6584,126.934 L214.4439,123.8998 L210.911,125.1762 L215.9819,118.8708 L216.6584,126.934" fill="#000000"/><ellipse cx="152" cy="240.0679" fill="#000000" rx="3" ry="3" style="stroke:#000000;stroke-width:1;"/><path d="M152,264.0679 L165,264.0679 C176.2463,264.0679 186.8315,258.5559 195.6279,251.7304" fill="none" style="stroke:#000000;stroke-width:1;stroke-dasharray:3.0,3.0;"/><path d="M197.5813,254.0465 L197.365,250.2653 L193.6745,249.4143 L201.4181,246.8468 L197.5813,254.0465" fill="#000000"/><ellipse cx="152" cy="264.0679" fill="#000000" rx="3" ry="3" style="stroke:#000000;stroke-width:1;"/><path d="M510.1349,33.0679 L523.1349,33.0679 C532.6766,33.0679 547.4418,33.0679 562.3881,33.0679" fill="none" style="stroke:#000000;stroke-width:1;stroke-dasharray:3.0,3.0;"/><path d="M562.3881,36.1902 L564.7298,33.0679 L562.3881,29.9456 L570.1939,33.0679 L562.3881,36.1902" fill="#000000"/><ellipse cx="510.1349" cy="33.0679" fill="#000000" rx="3" ry="3" style="stroke:#000000;stroke-width:1;"/><path d="M446,127.0679 L459,127.0679 C495.5743,127.0679 475.2237,83.8344 495,53.0679 C495.7028,51.9745 496.457,50.8734 497.242,49.7801" fill="none" style="stroke:#000000;stroke-width:1;stroke-dasharray:3.0,3.0;"/><path d="M499.6686,51.6563 L498.6491,47.9601 L494.8154,47.9039 L501.9324,43.7136 L499.6686,51.6563" fill="#000000"/><ellipse cx="446" cy="127.0679" fill="#000000" rx="3" ry="3" style="stroke:#000000;stroke-width:1;"/><path d="M446,150.0679 L459,150.0679 C472.8783,150.0679 484.3368,140.7819 492.9695,129.9837" fill="none" style="stroke:#000000;stroke-width:1;stroke-dasharray:3.0,3.0;"/><path d="M495.4116,131.7847 L494.3203,128.1521 L490.5274,128.1826 L497.4722,123.8785 L495.4116,131.7847" fill="#000000"/><ellipse cx="446" cy="150.0679" fill="#000000" rx="3" ry="3" style="stroke:#000000;stroke-width:1;"/><path d="M446,173.0679 L459,173.0679 C468.4464,173.0679 478.8489,173.0679 487.8851,173.0679" fill="none" style="stroke:#000000;stroke-width:1;stroke-dasharray:3.0,3.0;"/><path d="M487.8851,176.0802 L490.1443,173.0679 L487.8851,170.0556 L495.4159,173.0679 L487.8851,176.0802" fill="#000000"/><ellipse cx="446" cy="173.0679" fill="#000000" rx="3" ry="3" style="stroke:#000000;stroke-width:1;"/><path d="M220.5,291.0679 L220.5,278.0679 C220.5,268.7003 232.1345,275.1559 240,270.0679 C264.6152,254.1449 288.7103,233.0957 309.1559,213.0777" fill="none" style="stroke:#000000;stroke-width:1;stroke-dasharray:3.0,3.0;"/><path d="M311.2909,215.2343 L310.7734,211.4765 L307.0209,210.9211 L314.5474,207.7402 L311.2909,215.2343" fill="#000000"/><ellipse cx="220.5" cy="291.0679" fill="#000000" rx="3" ry="3" style="stroke:#000000;stroke-width:1;"/><path d="M511.5,225.0679 L524.5,225.0679 C536.9578,225.0679 550.156,223.2578 562.5216,220.7267" fill="none" style="stroke:#000000;stroke-width:1;stroke-dasharray:3.0,3.0;"/><path d="M563.1853,223.7577 L564.7949,220.2288 L561.8578,217.6956 L570.0992,219.0673 L563.1853,223.7577" fill="#000000"/><ellipse cx="511.5" cy="225.0679" fill="#000000" rx="3" ry="3" style="stroke:#000000;stroke-width:1;"/><path d="M511.5,249.0679 L524.5,249.0679 C535.7787,249.0679 547.6644,250.5516 558.9895,252.7108" fill="none" style="stroke:#000000;stroke-width:1;stroke-dasharray:3.0,3.0;"/><path d="M558.3865,255.6505 L561.1943,253.1631 L559.5926,249.7711 L566.3389,254.2184 L558.3865,255.6505" fill="#000000"/><ellipse cx="511.5" cy="249.0679" fill="#000000" rx="3" ry="3" style="stroke:#000000;stroke-width:1;"/><path d="M444.5,290.0679 L457.5,290.0679 C474.659,290.0679 488.3665,276.2689 497.6773,262.7528" fill="none" style="stroke:#000000;stroke-width:1;stroke-dasharray:3.0,3.0;"/><path d="M500.2975,264.4382 L498.9413,260.7876 L495.057,261.0675 L501.8907,256.2021 L500.2975,264.4382" fill="#000000"/><ellipse cx="444.5" cy="290.0679" fill="#000000" rx="3" ry="3" style="stroke:#000000;stroke-width:1;"/><path d="M444.5,313.0679 L457.5,313.0679 C467.4609,313.0679 478.4554,313.0679 487.9097,313.0679" fill="none" style="stroke:#000000;stroke-width:1;stroke-dasharray:3.0,3.0;"/><path d="M487.9097,316.077 L490.1665,313.0679 L487.9097,310.0588 L495.4325,313.0679 L487.9097,316.077" fill="#000000"/><ellipse cx="444.5" cy="313.0679" fill="#000000" rx="3" ry="3" style="stroke:#000000;stroke-width:1;"/><path d="M444.5,336.0679 L457.5,336.0679 C473.0488,336.0679 485.7635,347.3987 494.9407,359.5821" fill="none" style="stroke:#000000;stroke-width:1;stroke-dasharray:3.0,3.0;"/><path d="M492.3834,361.3713 L496.2826,361.5001 L497.4981,357.7929 L499.4137,365.9755 L492.3834,361.3713" fill="#000000"/><ellipse cx="444.5" cy="336.0679" fill="#000000" rx="3" ry="3" style="stroke:#000000;stroke-width:1;"/><path d="M219.5,313.0679 L232.5,313.0679 C244.8489,313.0679 257.838,313.0679 270.6709,313.0679" fill="none" style="stroke:#000000;stroke-width:1;stroke-dasharray:3.0,3.0;"/><path d="M270.6709,316.0806 L272.9304,313.0679 L270.6709,310.0552 L278.2026,313.0679 L270.6709,316.0806" fill="#000000"/><ellipse cx="219.5" cy="313.0679" fill="#000000" rx="3" ry="3" style="stroke:#000000;stroke-width:1;"/><path d="M511.5,441.0679 L524.5,441.0679 C536.9578,441.0679 550.156,439.2578 562.5216,436.7267" fill="none" style="stroke:#000000;stroke-width:1;stroke-dasharray:3.0,3.0;"/><path d="M563.1853,439.7577 L564.7949,436.2288 L561.8578,433.6956 L570.0992,435.0673 L563.1853,439.7577" fill="#000000"/><ellipse cx="511.5" cy="441.0679" fill="#000000" rx="3" ry="3" style="stroke:#000000;stroke-width:1;"/><path d="M511.5,465.0679 L524.5,465.0679 C536.9578,465.0679 550.156,466.878 562.5216,469.4092" fill="none" style="stroke:#000000;stroke-width:1;stroke-dasharray:3.0,3.0;"/><path d="M561.8578,472.4402 L564.7949,469.907 L563.1853,466.3781 L570.0992,471.0686 L561.8578,472.4402" fill="#000000"/><ellipse cx="511.5" cy="465.0679" fill="#000000" rx="3" ry="3" style="stroke:#000000;stroke-width:1;"/><path d="M441.5,480.0679 L454.5,480.0679 C469.3713,480.0679 484.5062,472.4688 495.4395,465.3335" fill="none" style="stroke:#000000;stroke-width:1;stroke-dasharray:3.0,3.0;"/><path d="M497.1638,467.8233 L497.3069,464.0403 L493.7153,462.8436 L501.6642,461.0228 L497.1638,467.8233" fill="#000000"/><ellipse cx="441.5" cy="480.0679" fill="#000000" rx="3" ry="3" style="stroke:#000000;stroke-width:1;"/><path d="M441.5,503.0679 L454.5,503.0679 C467.3481,503.0679 480.4754,508.6037 490.8887,514.5665" fill="none" style="stroke:#000000;stroke-width:1;stroke-dasharray:3.0,3.0;"/><path d="M489.3182,517.1349 L492.815,515.7444 L492.4592,511.9981 L497.3096,518.4927 L489.3182,517.1349" fill="#000000"/><ellipse cx="441.5" cy="503.0679" fill="#000000" rx="3" ry="3" style="stroke:#000000;stroke-width:1;"/><path d="M441.5,526.0679 L454.5,526.0679 C460.8112,526.0679 479.1409,552.9255 493.3283,575.321" fill="none" style="stroke:#000000;stroke-width:1;stroke-dasharray:3.0,3.0;"/><path d="M490.7397,576.9469 L494.5477,577.2625 L495.9169,573.6951 L497.3931,581.7926 L490.7397,576.9469" fill="#000000"/><ellipse cx="441.5" cy="526.0679" fill="#000000" rx="3" ry="3" style="stroke:#000000;stroke-width:1;"/><path d="M219.5,337.0679 L232.5,337.0679 C239.3233,337.0679 282.704,392.0881 318.2872,438.7766" fill="none" style="stroke:#000000;stroke-width:1;stroke-dasharray:3.0,3.0;"/><path d="M315.7942,440.6733 L319.7097,440.6464 L320.7802,436.88 L323.0289,445.0092 L315.7942,440.6733" fill="#000000"/><ellipse cx="219.5" cy="337.0679" fill="#000000" rx="3" ry="3" style="stroke:#000000;stroke-width:1;"/><path d="M511.5,657.0679 L524.5,657.0679 C536.9578,657.0679 550.156,655.2578 562.5216,652.7267" fill="none" style="stroke:#000000;stroke-width:1;stroke-dasharray:3.0,3.0;"/><path d="M563.1853,655.7577 L564.7949,652.2288 L561.8578,649.6956 L570.0992,651.0673 L563.1853,655.7577" fill="#000000"/><ellipse cx="511.5" cy="657.0679" fill="#000000" rx="3" ry="3" style="stroke:#000000;stroke-width:1;"/><path d="M511.5,681.0679 L524.5,681.0679 C536.1768,681.0679 548.5041,682.6582 560.1865,684.9419" fill="none" style="stroke:#000000;stroke-width:1;stroke-dasharray:3.0,3.0;"/><path d="M559.5501,687.9701 L562.4577,685.4192 L560.823,681.9137 L567.7571,686.533 L559.5501,687.9701" fill="#000000"/><ellipse cx="511.5" cy="681.0679" fill="#000000" rx="3" ry="3" style="stroke:#000000;stroke-width:1;"/><path d="M445.5,696.0679 L458.5,696.0679 C471.9246,696.0679 485.3821,689.1053 495.3773,682.2515" fill="none" style="stroke:#000000;stroke-width:1;stroke-dasharray:3.0,3.0;"/><path d="M497.2335,684.781 L497.2744,680.8593 L493.521,679.7221 L501.7009,677.6109 L497.2335,684.781" fill="#000000"/><ellipse cx="445.5" cy="696.0679" fill="#000000" rx="3" ry="3" style="stroke:#000000;stroke-width:1;"/><path d="M445.5,719.0679 L458.5,719.0679 C469.1173,719.0679 479.8206,723.3255 488.8017,728.3948" fill="none" style="stroke:#000000;stroke-width:1;stroke-dasharray:3.0,3.0;"/><path d="M487.2106,730.9957 L490.7523,729.5882 L490.3928,725.7939 L495.3039,732.3726 L487.2106,730.9957" fill="#000000"/><ellipse cx="445.5" cy="719.0679" fill="#000000" rx="3" ry="3" style="stroke:#000000;stroke-width:1;"/><path d="M445.5,742.0679 L458.5,742.0679 C464.6367,742.0679 481.5119,768.6954 494.5884,791.0324" fill="none" style="stroke:#000000;stroke-width:1;stroke-dasharray:3.0,3.0;"/><path d="M491.8843,792.6005 L495.7644,793.0605 L497.2924,789.4643 L498.5085,797.7926 L491.8843,792.6005" fill="#000000"/><ellipse cx="445.5" cy="742.0679" fill="#000000" rx="3" ry="3" style="stroke:#000000;stroke-width:1;"/><path d="M220.5,359.0679 L220.5,372.0679 C220.5,381.4356 234.0779,372.8097 240,380.0679 C294.3341,446.6612 245.1976,489.8303 276,570.0679 C287.2495,599.3717 304.2373,629.3867 320.4677,654.7272" fill="none" style="stroke:#000000;stroke-width:1;stroke-dasharray:3.0,3.0;"/><path d="M317.9323,656.3696 L321.6995,656.6287 L323.0031,653.0847 L324.5738,661.0657 L317.9323,656.3696" fill="#000000"/><ellipse cx="220.5" cy="359.0679" fill="#000000" rx="3" ry="3" style="stroke:#000000;stroke-width:1;"/><path d="M152,287.0679 L165,287.0679 C180.2348,287.0679 194.2564,297.1829 204.2615,306.9756" fill="none" style="stroke:#000000;stroke-width:1;stroke-dasharray:3.0,3.0;"/><path d="M202.0016,309.1378 L205.8831,308.6705 L206.5213,304.8134 L209.6669,312.6253 L202.0016,309.1378" fill="#000000"/><ellipse cx="152" cy="287.0679" fill="#000000" rx="3" ry="3" style="stroke:#000000;stroke-width:1;"/><path d="M152,310.0679 L165,310.0679 C199.9843,310.0679 179.7913,352.2454 201,380.0679 C202.6395,382.2187 204.57,384.3248 206.5543,386.2817" fill="none" style="stroke:#000000;stroke-width:1;stroke-dasharray:3.0,3.0;"/><path d="M204.4268,388.6328 L208.3176,387.8774 L208.6819,383.9307 L212.4319,391.6005 L204.4268,388.6328" fill="#000000"/><ellipse cx="152" cy="310.0679" fill="#000000" rx="3" ry="3" style="stroke:#000000;stroke-width:1;"/><!--SRC=[pLLTJo8n57tlhxWPNpGoayw80lDa-38Yg07qPKCsNRZCTXTQqdQ87-6_soawWw8cPZ_2mpGtf_USdfuqTqwrOShyqbAGlSDww-pyylkWtm23TuOy4W1Fi3bwCNWNtDIbyKePndLxsB3WbCqqEaH9mmoNGblqcmK07jrgjzWTpr3lmN4TDC548MPeZJfiPTUH4rf8pJEXN8S6ORGc7WLXPLtHl7ritIdspgaljjjA2WCDrrOOsBQxINvb-pvdlR4UqHnVFLUZ_82jQwol4XLQTACCgbi22hMSfLiIjPCDNYMtKF2cSca98NtEjVH-AdKs_ltFGobzhl7maKPO_NAo_kv4syMfsTbeQrz_iwKFdkzV3xRsUQvzdlpStM3zFqhM_q_H5cDJpXTIe30kjn5PsU7Vkcncev-GKnGJzqCWrpCcp4sl2qjKsfuDOH3Hw3WusX-a0Zhseo7GSdnSYQCoj9f3oBOFoFxPTHUqJDKOOSArKVo7ytv0Ecp9e9yAm-SOmzK2HQTvyG90IoovdTTpQunqRdj5mqdPhtC30rJM2TpsI1EdB9qPonZB2HT933V3jbybNIQIb2LM6mLfIAkhxktUu0a0]--></g></svg>