<svg xmlns="http://www.w3.org/2000/svg" xmlns:xlink="http://www.w3.org/1999/xlink" contentStyleType="text/css" data-diagram-type="JSON" height="487px" preserveAspectRatio="none" style="width:765px;height:487px;background:#FFFFFF;" version="1.1" viewBox="0 0 765 487" width="765px" zoomAndPan="magnify"><defs/><g><rect fill="#F1F1F1" height="138.4075" rx="5" ry="5" style="stroke:#F1F1F1;stroke-width:1.5;" width="233.2471" x="10" y="97.8642"/><text fill="#000000" font-family="sans-serif" font-size="14" font-weight="bold" lengthAdjust="spacing" textLength="39.4939" x="15" y="114.8301">name</text><text fill="#000000" font-family="sans-serif" font-size="14" lengthAdjust="spacing" textLength="126.3635" x="111.8837" y="114.8301">Drive Base (Simple)</text><line style="stroke:#000000;stroke-width:1;" x1="106.8837" x2="106.8837" y1="97.8642" y2="120.9321"/><line style="stroke:#000000;stroke-width:1;" x1="10" x2="243.2471" y1="120.9321" y2="120.9321"/><text fill="#000000" font-family="sans-serif" font-size="14" font-weight="bold" lengthAdjust="spacing" textLength="35.9659" x="15" y="137.898">isFTC</text><text fill="#000000" font-family="sans-serif" font-size="14" lengthAdjust="spacing" textLength="43.5747" x="111.8837" y="137.898">&#9745; true</text><line style="stroke:#000000;stroke-width:1;" x1="106.8837" x2="106.8837" y1="120.9321" y2="144"/><line style="stroke:#000000;stroke-width:1;" x1="10" x2="243.2471" y1="144" y2="144"/><text fill="#000000" font-family="sans-serif" font-size="14" font-weight="bold" lengthAdjust="spacing" textLength="64.6098" x="15" y="160.9659">rotations</text><text fill="#000000" font-family="sans-serif" font-size="14" lengthAdjust="spacing" textLength="10.92" x="111.8837" y="160.9659">&#160;&#160;&#160;</text><line style="stroke:#000000;stroke-width:1;" x1="106.8837" x2="106.8837" y1="144" y2="167.0679"/><line style="stroke:#000000;stroke-width:1;" x1="10" x2="243.2471" y1="167.0679" y2="167.0679"/><text fill="#000000" font-family="sans-serif" font-size="14" font-weight="bold" lengthAdjust="spacing" textLength="56.9238" x="15" y="184.0339">position</text><text fill="#000000" font-family="sans-serif" font-size="14" lengthAdjust="spacing" textLength="10.92" x="111.8837" y="184.0339">&#160;&#160;&#160;</text><line style="stroke:#000000;stroke-width:1;" x1="106.8837" x2="106.8837" y1="167.0679" y2="190.1358"/><line style="stroke:#000000;stroke-width:1;" x1="10" x2="243.2471" y1="190.1358" y2="190.1358"/><text fill="#000000" font-family="sans-serif" font-size="14" font-weight="bold" lengthAdjust="spacing" textLength="59.2898" x="15" y="207.1018">cameras</text><text fill="#000000" font-family="sans-serif" font-size="14" lengthAdjust="spacing" textLength="10.92" x="111.8837" y="207.1018">&#160;&#160;&#160;</text><line style="stroke:#000000;stroke-width:1;" x1="106.8837" x2="106.8837" y1="190.1358" y2="213.2038"/><line style="stroke:#000000;stroke-width:1;" x1="10" x2="243.2471" y1="213.2038" y2="213.2038"/><text fill="#000000" font-family="sans-serif" font-size="14" font-weight="bold" lengthAdjust="spacing" textLength="86.8837" x="15" y="230.1697">components</text><text fill="#000000" font-family="sans-serif" font-size="14" lengthAdjust="spacing" textLength="10.92" x="111.8837" y="230.1697">&#160;&#160;&#160;</text><line style="stroke:#000000;stroke-width:1;" x1="106.8837" x2="106.8837" y1="213.2038" y2="236.2717"/><rect fill="none" height="138.4075" rx="5" ry="5" style="stroke:#000000;stroke-width:1.5;" width="233.2471" x="10" y="97.8642"/><rect fill="#F1F1F1" height="46.1358" rx="5" ry="5" style="stroke:#F1F1F1;stroke-width:1.5;" width="20.92" x="292.5" y="54"/><text fill="#000000" font-family="sans-serif" font-size="14" lengthAdjust="spacing" textLength="10.92" x="297.5" y="70.9659">&#160;&#160;&#160;</text><line style="stroke:#000000;stroke-width:1;" x1="292.5" x2="313.42" y1="77.0679" y2="77.0679"/><text fill="#000000" font-family="sans-serif" font-size="14" lengthAdjust="spacing" textLength="10.92" x="297.5" y="94.0339">&#160;&#160;&#160;</text><rect fill="none" height="46.1358" rx="5" ry="5" style="stroke:#000000;stroke-width:1.5;" width="20.92" x="292.5" y="54"/><rect fill="#F1F1F1" height="46.1358" rx="5" ry="5" style="stroke:#F1F1F1;stroke-width:1.5;" width="92.0717" x="408" y="10"/><text fill="#000000" font-family="sans-serif" font-size="14" font-weight="bold" lengthAdjust="spacing" textLength="27.6919" x="413" y="26.9659">axis</text><text fill="#000000" font-family="sans-serif" font-size="14" lengthAdjust="spacing" textLength="7.406" x="479.0558" y="26.9659">x</text><line style="stroke:#000000;stroke-width:1;" x1="474.0558" x2="474.0558" y1="10" y2="33.0679"/><line style="stroke:#000000;stroke-width:1;" x1="408" x2="500.0717" y1="33.0679" y2="33.0679"/><text fill="#000000" font-family="sans-serif" font-size="14" font-weight="bold" lengthAdjust="spacing" textLength="56.0558" x="413" y="50.0339">degrees</text><text fill="#000000" font-family="sans-serif" font-size="14" lengthAdjust="spacing" textLength="16.0159" x="479.0558" y="50.0339">90</text><line style="stroke:#000000;stroke-width:1;" x1="474.0558" x2="474.0558" y1="33.0679" y2="56.1358"/><rect fill="none" height="46.1358" rx="5" ry="5" style="stroke:#000000;stroke-width:1.5;" width="92.0717" x="408" y="10"/><rect fill="#F1F1F1" height="46.1358" rx="5" ry="5" style="stroke:#F1F1F1;stroke-width:1.5;" width="92.0717" x="408" y="74"/><text fill="#000000" font-family="sans-serif" font-size="14" font-weight="bold" lengthAdjust="spacing" textLength="27.6919" x="413" y="90.9659">axis</text><text fill="#000000" font-family="sans-serif" font-size="14" lengthAdjust="spacing" textLength="6.58" x="479.0558" y="90.9659">z</text><line style="stroke:#000000;stroke-width:1;" x1="474.0558" x2="474.0558" y1="74" y2="97.0679"/><line style="stroke:#000000;stroke-width:1;" x1="408" x2="500.0717" y1="97.0679" y2="97.0679"/><text fill="#000000" font-family="sans-serif" font-size="14" font-weight="bold" lengthAdjust="spacing" textLength="56.0558" x="413" y="114.0339">degrees</text><text fill="#000000" font-family="sans-serif" font-size="14" lengthAdjust="spacing" textLength="16.0159" x="479.0558" y="114.0339">90</text><line style="stroke:#000000;stroke-width:1;" x1="474.0558" x2="474.0558" y1="97.0679" y2="120.1358"/><rect fill="none" height="46.1358" rx="5" ry="5" style="stroke:#000000;stroke-width:1.5;" width="92.0717" x="408" y="74"/><rect fill="#F1F1F1" height="69.2038" rx="5" ry="5" style="stroke:#F1F1F1;stroke-width:1.5;" width="45.7838" x="280" y="118.466"/><text fill="#000000" font-family="sans-serif" font-size="14" lengthAdjust="spacing" textLength="8.008" x="285" y="135.432">0</text><line style="stroke:#000000;stroke-width:1;" x1="280" x2="325.7838" y1="141.534" y2="141.534"/><text fill="#000000" font-family="sans-serif" font-size="14" lengthAdjust="spacing" textLength="8.008" x="285" y="158.4999">0</text><line style="stroke:#000000;stroke-width:1;" x1="280" x2="325.7838" y1="164.6019" y2="164.6019"/><text fill="#000000" font-family="sans-serif" font-size="14" lengthAdjust="spacing" textLength="35.7838" x="285" y="181.5678">0.037</text><rect fill="none" height="69.2038" rx="5" ry="5" style="stroke:#000000;stroke-width:1.5;" width="45.7838" x="280" y="118.466"/><rect fill="#F1F1F1" height="46.1358" rx="5" ry="5" style="stroke:#F1F1F1;stroke-width:1.5;" width="20.92" x="292.5" y="206"/><text fill="#000000" font-family="sans-serif" font-size="14" lengthAdjust="spacing" textLength="10.92" x="297.5" y="222.9659">&#160;&#160;&#160;</text><line style="stroke:#000000;stroke-width:1;" x1="292.5" x2="313.42" y1="229.0679" y2="229.0679"/><text fill="#000000" font-family="sans-serif" font-size="14" lengthAdjust="spacing" textLength="10.92" x="297.5" y="246.0339">&#160;&#160;&#160;</text><rect fill="none" height="46.1358" rx="5" ry="5" style="stroke:#000000;stroke-width:1.5;" width="20.92" x="292.5" y="206"/><rect fill="#F1F1F1" height="115.3396" rx="5" ry="5" style="stroke:#F1F1F1;stroke-width:1.5;" width="181.9654" x="363" y="152.3981"/><text fill="#000000" font-family="sans-serif" font-size="14" font-weight="bold" lengthAdjust="spacing" textLength="39.4939" x="368" y="169.3641">name</text><text fill="#000000" font-family="sans-serif" font-size="14" lengthAdjust="spacing" textLength="90.1877" x="449.7777" y="169.3641">Front Camera</text><line style="stroke:#000000;stroke-width:1;" x1="444.7777" x2="444.7777" y1="152.3981" y2="175.466"/><line style="stroke:#000000;stroke-width:1;" x1="363" x2="544.9654" y1="175.466" y2="175.466"/><text fill="#000000" font-family="sans-serif" font-size="14" font-weight="bold" lengthAdjust="spacing" textLength="64.6098" x="368" y="192.432">rotations</text><text fill="#000000" font-family="sans-serif" font-size="14" lengthAdjust="spacing" textLength="10.92" x="449.7777" y="192.432">&#160;&#160;&#160;</text><line style="stroke:#000000;stroke-width:1;" x1="444.7777" x2="444.7777" y1="175.466" y2="198.534"/><line style="stroke:#000000;stroke-width:1;" x1="363" x2="544.9654" y1="198.534" y2="198.534"/><text fill="#000000" font-family="sans-serif" font-size="14" font-weight="bold" lengthAdjust="spacing" textLength="56.9238" x="368" y="215.4999">position</text><text fill="#000000" font-family="sans-serif" font-size="14" lengthAdjust="spacing" textLength="10.92" x="449.7777" y="215.4999">&#160;&#160;&#160;</text><line style="stroke:#000000;stroke-width:1;" x1="444.7777" x2="444.7777" y1="198.534" y2="221.6019"/><line style="stroke:#000000;stroke-width:1;" x1="363" x2="544.9654" y1="221.6019" y2="221.6019"/><text fill="#000000" font-family="sans-serif" font-size="14" font-weight="bold" lengthAdjust="spacing" textLength="71.7777" x="368" y="238.5678">resolution</text><text fill="#000000" font-family="sans-serif" font-size="14" lengthAdjust="spacing" textLength="10.92" x="449.7777" y="238.5678">&#160;&#160;&#160;</text><line style="stroke:#000000;stroke-width:1;" x1="444.7777" x2="444.7777" y1="221.6019" y2="244.6698"/><line style="stroke:#000000;stroke-width:1;" x1="363" x2="544.9654" y1="244.6698" y2="244.6698"/><text fill="#000000" font-family="sans-serif" font-size="14" font-weight="bold" lengthAdjust="spacing" textLength="22.1619" x="368" y="261.6357">fov</text><text fill="#000000" font-family="sans-serif" font-size="14" lengthAdjust="spacing" textLength="27.7759" x="449.7777" y="261.6357">54.5</text><line style="stroke:#000000;stroke-width:1;" x1="444.7777" x2="444.7777" y1="244.6698" y2="267.7377"/><rect fill="none" height="115.3396" rx="5" ry="5" style="stroke:#000000;stroke-width:1.5;" width="181.9654" x="363" y="152.3981"/><rect fill="#F1F1F1" height="15" rx="5" ry="5" style="stroke:#F1F1F1;stroke-width:1.5;" width="30" x="591" y="115.5679"/><rect fill="none" height="15" rx="5" ry="5" style="stroke:#000000;stroke-width:1.5;" width="30" x="591" y="115.5679"/><rect fill="#F1F1F1" height="69.2038" rx="5" ry="5" style="stroke:#F1F1F1;stroke-width:1.5;" width="29.7679" x="584" y="148.466"/><text fill="#000000" font-family="sans-serif" font-size="14" lengthAdjust="spacing" textLength="19.7679" x="589" y="165.432">0.2</text><line style="stroke:#000000;stroke-width:1;" x1="584" x2="613.7679" y1="171.534" y2="171.534"/><text fill="#000000" font-family="sans-serif" font-size="14" lengthAdjust="spacing" textLength="8.008" x="589" y="188.4999">0</text><line style="stroke:#000000;stroke-width:1;" x1="584" x2="613.7679" y1="194.6019" y2="194.6019"/><text fill="#000000" font-family="sans-serif" font-size="14" lengthAdjust="spacing" textLength="19.7679" x="589" y="211.5678">0.2</text><rect fill="none" height="69.2038" rx="5" ry="5" style="stroke:#000000;stroke-width:1.5;" width="29.7679" x="584" y="148.466"/><rect fill="#F1F1F1" height="46.1358" rx="5" ry="5" style="stroke:#F1F1F1;stroke-width:1.5;" width="34.0239" x="582" y="236"/><text fill="#000000" font-family="sans-serif" font-size="14" lengthAdjust="spacing" textLength="24.0239" x="587" y="252.9659">640</text><line style="stroke:#000000;stroke-width:1;" x1="582" x2="616.0239" y1="259.0679" y2="259.0679"/><text fill="#000000" font-family="sans-serif" font-size="14" lengthAdjust="spacing" textLength="24.0239" x="587" y="276.0339">480</text><rect fill="none" height="46.1358" rx="5" ry="5" style="stroke:#000000;stroke-width:1.5;" width="34.0239" x="582" y="236"/><rect fill="#F1F1F1" height="115.3396" rx="5" ry="5" style="stroke:#F1F1F1;stroke-width:1.5;" width="177.8914" x="365" y="315.3981"/><text fill="#000000" font-family="sans-serif" font-size="14" font-weight="bold" lengthAdjust="spacing" textLength="39.4939" x="370" y="332.3641">name</text><text fill="#000000" font-family="sans-serif" font-size="14" lengthAdjust="spacing" textLength="86.1137" x="451.7777" y="332.3641">Back Camera</text><line style="stroke:#000000;stroke-width:1;" x1="446.7777" x2="446.7777" y1="315.3981" y2="338.466"/><line style="stroke:#000000;stroke-width:1;" x1="365" x2="542.8914" y1="338.466" y2="338.466"/><text fill="#000000" font-family="sans-serif" font-size="14" font-weight="bold" lengthAdjust="spacing" textLength="64.6098" x="370" y="355.432">rotations</text><text fill="#000000" font-family="sans-serif" font-size="14" lengthAdjust="spacing" textLength="10.92" x="451.7777" y="355.432">&#160;&#160;&#160;</text><line style="stroke:#000000;stroke-width:1;" x1="446.7777" x2="446.7777" y1="338.466" y2="361.534"/><line style="stroke:#000000;stroke-width:1;" x1="365" x2="542.8914" y1="361.534" y2="361.534"/><text fill="#000000" font-family="sans-serif" font-size="14" font-weight="bold" lengthAdjust="spacing" textLength="56.9238" x="370" y="378.4999">position</text><text fill="#000000" font-family="sans-serif" font-size="14" lengthAdjust="spacing" textLength="10.92" x="451.7777" y="378.4999">&#160;&#160;&#160;</text><line style="stroke:#000000;stroke-width:1;" x1="446.7777" x2="446.7777" y1="361.534" y2="384.6019"/><line style="stroke:#000000;stroke-width:1;" x1="365" x2="542.8914" y1="384.6019" y2="384.6019"/><text fill="#000000" font-family="sans-serif" font-size="14" font-weight="bold" lengthAdjust="spacing" textLength="71.7777" x="370" y="401.5678">resolution</text><text fill="#000000" font-family="sans-serif" font-size="14" lengthAdjust="spacing" textLength="10.92" x="451.7777" y="401.5678">&#160;&#160;&#160;</text><line style="stroke:#000000;stroke-width:1;" x1="446.7777" x2="446.7777" y1="384.6019" y2="407.6698"/><line style="stroke:#000000;stroke-width:1;" x1="365" x2="542.8914" y1="407.6698" y2="407.6698"/><text fill="#000000" font-family="sans-serif" font-size="14" font-weight="bold" lengthAdjust="spacing" textLength="22.1619" x="370" y="424.6357">fov</text><text fill="#000000" font-family="sans-serif" font-size="14" lengthAdjust="spacing" textLength="27.7759" x="451.7777" y="424.6357">54.5</text><line style="stroke:#000000;stroke-width:1;" x1="446.7777" x2="446.7777" y1="407.6698" y2="430.7377"/><rect fill="none" height="115.3396" rx="5" ry="5" style="stroke:#000000;stroke-width:1.5;" width="177.8914" x="365" y="315.3981"/><rect fill="#F1F1F1" height="23.0679" rx="5" ry="5" style="stroke:#F1F1F1;stroke-width:1.5;" width="20.92" x="588.5" y="300.534"/><text fill="#000000" font-family="sans-serif" font-size="14" lengthAdjust="spacing" textLength="10.92" x="593.5" y="317.4999">&#160;&#160;&#160;</text><rect fill="none" height="23.0679" rx="5" ry="5" style="stroke:#000000;stroke-width:1.5;" width="20.92" x="588.5" y="300.534"/><rect fill="#F1F1F1" height="46.1358" rx="5" ry="5" style="stroke:#F1F1F1;stroke-width:1.5;" width="100.0797" x="653" y="289"/><text fill="#000000" font-family="sans-serif" font-size="14" font-weight="bold" lengthAdjust="spacing" textLength="27.6919" x="658" y="305.9659">axis</text><text fill="#000000" font-family="sans-serif" font-size="14" lengthAdjust="spacing" textLength="6.58" x="724.0558" y="305.9659">z</text><line style="stroke:#000000;stroke-width:1;" x1="719.0558" x2="719.0558" y1="289" y2="312.0679"/><line style="stroke:#000000;stroke-width:1;" x1="653" x2="753.0797" y1="312.0679" y2="312.0679"/><text fill="#000000" font-family="sans-serif" font-size="14" font-weight="bold" lengthAdjust="spacing" textLength="56.0558" x="658" y="329.0339">degrees</text><text fill="#000000" font-family="sans-serif" font-size="14" lengthAdjust="spacing" textLength="24.0239" x="724.0558" y="329.0339">180</text><line style="stroke:#000000;stroke-width:1;" x1="719.0558" x2="719.0558" y1="312.0679" y2="335.1358"/><rect fill="none" height="46.1358" rx="5" ry="5" style="stroke:#000000;stroke-width:1.5;" width="100.0797" x="653" y="289"/><rect fill="#F1F1F1" height="69.2038" rx="5" ry="5" style="stroke:#F1F1F1;stroke-width:1.5;" width="34.2759" x="582" y="341.466"/><text fill="#000000" font-family="sans-serif" font-size="14" lengthAdjust="spacing" textLength="24.2759" x="587" y="358.432">-0.2</text><line style="stroke:#000000;stroke-width:1;" x1="582" x2="616.2759" y1="364.534" y2="364.534"/><text fill="#000000" font-family="sans-serif" font-size="14" lengthAdjust="spacing" textLength="8.008" x="587" y="381.4999">0</text><line style="stroke:#000000;stroke-width:1;" x1="582" x2="616.2759" y1="387.6019" y2="387.6019"/><text fill="#000000" font-family="sans-serif" font-size="14" lengthAdjust="spacing" textLength="19.7679" x="587" y="404.5678">0.2</text><rect fill="none" height="69.2038" rx="5" ry="5" style="stroke:#000000;stroke-width:1.5;" width="34.2759" x="582" y="341.466"/><rect fill="#F1F1F1" height="46.1358" rx="5" ry="5" style="stroke:#F1F1F1;stroke-width:1.5;" width="34.0239" x="582" y="429"/><text fill="#000000" font-family="sans-serif" font-size="14" lengthAdjust="spacing" textLength="24.0239" x="587" y="445.9659">640</text><line style="stroke:#000000;stroke-width:1;" x1="582" x2="616.0239" y1="452.0679" y2="452.0679"/><text fill="#000000" font-family="sans-serif" font-size="14" lengthAdjust="spacing" textLength="24.0239" x="587" y="469.0339">480</text><rect fill="none" height="46.1358" rx="5" ry="5" style="stroke:#000000;stroke-width:1.5;" width="34.0239" x="582" y="429"/><rect fill="#F1F1F1" height="15" rx="5" ry="5" style="stroke:#F1F1F1;stroke-width:1.5;" width="30" x="295" y="270.5679"/><rect fill="none" height="15" rx="5" ry="5" style="stroke:#000000;stroke-width:1.5;" width="30" x="295" y="270.5679"/><path d="M302.5,65.0679 L315.5,65.0679 C344.264,65.0679 375.5489,58.389 401.0479,51.1337" fill="none" style="stroke:#000000;stroke-width:1;stroke-dasharray:3.0,3.0;"/><path d="M401.9117,54.0833 L403.2601,50.4858 L400.1841,48.1841 L408.422,48.9742 L401.9117,54.0833" fill="#000000"/><ellipse cx="302.5" cy="65.0679" fill="#000000" rx="3" ry="3" style="stroke:#000000;stroke-width:1;"/><path d="M302.5,89.0679 L315.5,89.0679 C343.6646,89.0679 375.0083,90.7492 400.6972,92.5703" fill="none" style="stroke:#000000;stroke-width:1;stroke-dasharray:3.0,3.0;"/><path d="M400.4701,95.6827 L403.0316,92.7407 L400.9244,89.4578 L408.4783,93.1382 L400.4701,95.6827" fill="#000000"/><ellipse cx="302.5" cy="89.0679" fill="#000000" rx="3" ry="3" style="stroke:#000000;stroke-width:1;"/><path d="M231,155.0679 L244,155.0679 C245.8277,155.0679 271.8296,119.5465 288.5462,96.4459" fill="none" style="stroke:#000000;stroke-width:1;stroke-dasharray:3.0,3.0;"/><path d="M291.0048,98.2223 L289.8785,94.602 L286.0877,94.6695 L292.9872,90.2996 L291.0048,98.2223" fill="#000000"/><ellipse cx="231" cy="155.0679" fill="#000000" rx="3" ry="3" style="stroke:#000000;stroke-width:1;"/><path d="M231,179.0679 L244,179.0679 C254.1851,179.0679 264.5746,175.7362 273.7171,171.4581" fill="none" style="stroke:#000000;stroke-width:1;stroke-dasharray:3.0,3.0;"/><path d="M275.0837,174.1477 L275.7343,170.4331 L272.3505,168.7684 L280.4413,168.0416 L275.0837,174.1477" fill="#000000"/><ellipse cx="231" cy="179.0679" fill="#000000" rx="3" ry="3" style="stroke:#000000;stroke-width:1;"/><path d="M533,187.0679 L546,187.0679 C572.6667,187.0679 564.3735,159.0784 582,139.0679 C583.1572,137.7542 584.4024,136.4208 585.6715,135.1131" fill="none" style="stroke:#000000;stroke-width:1;stroke-dasharray:3.0,3.0;"/><path d="M587.8426,137.3198 L587.3265,133.4847 L583.5003,132.9064 L591.1883,129.6852 L587.8426,137.3198" fill="#000000"/><ellipse cx="533" cy="187.0679" fill="#000000" rx="3" ry="3" style="stroke:#000000;stroke-width:1;"/><path d="M533,210.0679 L546,210.0679 C557.3815,210.0679 568.7675,204.9875 578.0125,199.2343" fill="none" style="stroke:#000000;stroke-width:1;stroke-dasharray:3.0,3.0;"/><path d="M579.7105,201.7634 L579.9093,197.9607 L576.3144,196.7052 L584.3352,194.9891 L579.7105,201.7634" fill="#000000"/><ellipse cx="533" cy="210.0679" fill="#000000" rx="3" ry="3" style="stroke:#000000;stroke-width:1;"/><path d="M533,233.0679 L546,233.0679 C556.5366,233.0679 567.1426,237.3255 576.0365,242.3948" fill="none" style="stroke:#000000;stroke-width:1;stroke-dasharray:3.0,3.0;"/><path d="M574.4454,244.97 L577.9679,243.5882 L577.6276,239.8197 L582.4745,246.3726 L574.4454,244.97" fill="#000000"/><ellipse cx="533" cy="233.0679" fill="#000000" rx="3" ry="3" style="stroke:#000000;stroke-width:1;"/><path d="M302.5,217.0679 L315.5,217.0679 C328.5553,217.0679 342.2965,216.7516 355.8419,216.2534" fill="none" style="stroke:#000000;stroke-width:1;stroke-dasharray:3.0,3.0;"/><path d="M355.9597,219.2532 L358.0917,216.165 L355.724,213.2536 L363.3414,215.9587 L355.9597,219.2532" fill="#000000"/><ellipse cx="302.5" cy="217.0679" fill="#000000" rx="3" ry="3" style="stroke:#000000;stroke-width:1;"/><path d="M597.1349,312.0679 L610.1349,312.0679 C618.8952,312.0679 632.0584,312.0679 645.7224,312.0679" fill="none" style="stroke:#000000;stroke-width:1;stroke-dasharray:3.0,3.0;"/><path d="M645.7224,315.1151 L648.0078,312.0679 L645.7224,309.0208 L653.3403,312.0679 L645.7224,315.1151" fill="#000000"/><ellipse cx="597.1349" cy="312.0679" fill="#000000" rx="3" ry="3" style="stroke:#000000;stroke-width:1;"/><path d="M531.5,350.0679 L544.5,350.0679 C560.0242,350.0679 574.235,339.4343 584.1778,329.4172" fill="none" style="stroke:#000000;stroke-width:1;stroke-dasharray:3.0,3.0;"/><path d="M586.4744,331.5527 L585.7794,327.6948 L581.8811,327.2818 L589.5164,323.6756 L586.4744,331.5527" fill="#000000"/><ellipse cx="531.5" cy="350.0679" fill="#000000" rx="3" ry="3" style="stroke:#000000;stroke-width:1;"/><path d="M531.5,373.0679 L544.5,373.0679 C554.4763,373.0679 565.4734,373.5847 574.9254,374.1893" fill="none" style="stroke:#000000;stroke-width:1;stroke-dasharray:3.0,3.0;"/><path d="M574.7178,377.1973 L577.1814,374.345 L575.1331,371.1813 L582.4455,374.7084 L574.7178,377.1973" fill="#000000"/><ellipse cx="531.5" cy="373.0679" fill="#000000" rx="3" ry="3" style="stroke:#000000;stroke-width:1;"/><path d="M531.5,396.0679 L544.5,396.0679 C561.0976,396.0679 574.2039,408.9725 583.3461,422.3923" fill="none" style="stroke:#000000;stroke-width:1;stroke-dasharray:3.0,3.0;"/><path d="M580.7161,424.0593 L584.5963,424.3648 L585.976,420.7253 L587.5135,428.9673 L580.7161,424.0593" fill="#000000"/><ellipse cx="531.5" cy="396.0679" fill="#000000" rx="3" ry="3" style="stroke:#000000;stroke-width:1;"/><path d="M303.5,240.0679 L303.5,253.0679 C303.5,264.101 317.4606,255.5247 327,261.0679 C349.9677,274.4142 372.5159,292.3337 392.0673,309.9206" fill="none" style="stroke:#000000;stroke-width:1;stroke-dasharray:3.0,3.0;"/><path d="M389.9898,312.2005 L393.7772,311.4787 L394.1448,307.6407 L397.7671,315.1143 L389.9898,312.2005" fill="#000000"/><ellipse cx="303.5" cy="240.0679" fill="#000000" rx="3" ry="3" style="stroke:#000000;stroke-width:1;"/><path d="M231,202.0679 L244,202.0679 C259.377,202.0679 275.1083,209.8535 286.3793,217.0632" fill="none" style="stroke:#000000;stroke-width:1;stroke-dasharray:3.0,3.0;"/><path d="M284.6434,219.6225 L288.2988,218.3651 L288.1152,214.5038 L292.7777,221.403 L284.6434,219.6225" fill="#000000"/><ellipse cx="231" cy="202.0679" fill="#000000" rx="3" ry="3" style="stroke:#000000;stroke-width:1;"/><path d="M231,225.0679 L244,225.0679 C266.6274,225.0679 262.9323,246.2121 280,261.0679 C282.742,263.4546 285.7862,265.8868 288.7266,268.1375" fill="none" style="stroke:#000000;stroke-width:1;stroke-dasharray:3.0,3.0;"/><path d="M286.8005,270.7302 L290.6711,269.5821 L290.6526,265.5449 L295.2082,272.9526 L286.8005,270.7302" fill="#000000"/><ellipse cx="231" cy="225.0679" fill="#000000" rx="3" ry="3" style="stroke:#000000;stroke-width:1;"/><!--SRC=[nLDDR-8m4BtxLupI2sW32ZIqtPmg25JBGhTgQ2zLLNbXYhnBR6Gx4ItgV-_4B4afKQzxYEEycJTlld9fBDVsZr6IdNph3wz-N3ybjmEmkB5iom0yoLFq8l1YBNA4FZS8ZKIawnKsFRzm46Oq6v27rHawG2lBhL3I4FX00C3MdMJY6r6WtiPH7RJ0fKOiqE-1mzxyUixhLnmw7vtuMXbHY9VQWN_mQWUdvwNpd6hJl2RFVT4ZhQI5WNEhv0yAV2pX8-cTODUlFloF-Bzx5K2ZKQliACHP-84NNWH7l6UL4w4Njdkr3TmNq-Vplr_NKgfiorlj03uDeLFcj9l4ONQrRMdzZxvKSrVfMacKTZT1zaQxFxoEYyrdx1BbmlqFx6R5fRsRJY17RKWTEkrkqEsrJnj99c5CJz2188nwvr4tX64yWyBSP8shcmaObUavma8OgyLlbtsJZNdEuJQJLgGOmQyrod7ySm_0KEQ25YwbnDZuVbevd8Mjlh2GeAPCu7xAOdpcsSeIOwuMGYuZk9kDMXTimkKouqkAZP8D5CNLBsHBtW40]--></g></svg>