<?xml version="1.0" encoding="UTF-8" standalone="no"?>
<!DOCTYPE svg PUBLIC "-//W3C//DTD SVG 1.1//EN"
 "http://www.w3.org/Graphics/SVG/1.1/DTD/svg11.dtd">
<!-- Generated by graphviz version 9.0.0 (0)
 -->
<!-- Title: Guix reverse&#45;package Pages: 1 -->
<svg width="818pt" height="188pt"
 viewBox="0.00 0.00 817.88 188.00" xmlns="http://www.w3.org/2000/svg" xmlns:xlink="http://www.w3.org/1999/xlink">
<g id="graph0" class="graph" transform="scale(1 1) rotate(0) translate(4 184)">
<title>Guix reverse&#45;package</title>
<polygon fill="white" stroke="none" points="-4,4 -4,-184 813.88,-184 813.88,4 -4,4"/>
<!-- 140536404175264 -->
<g id="node1" class="node">
<title>140536404175264</title>
<polygon fill="none" stroke="black" points="406,-180 306.75,-180 306.75,-144 406,-144 406,-180"/>
<text text-anchor="middle" x="356.38" y="-158.45" font-family="sans" font-size="14.00">emacs@28.2</text>
</g>
<!-- 140536423213472 -->
<g id="node2" class="node">
<title>140536423213472</title>
<polygon fill="none" stroke="black" points="130.75,-108 0,-108 0,-72 130.75,-72 130.75,-108"/>
<text text-anchor="middle" x="65.38" y="-86.45" font-family="sans" font-size="14.00">emacspeak@53.0</text>
</g>
<!-- 140536404175264&#45;&gt;140536423213472 -->
<g id="edge1" class="edge">
<title>140536404175264&#45;&gt;140536423213472</title>
<path fill="none" stroke="darkviolet" d="M306.35,-148.97C261.23,-138.11 194.19,-121.99 142.27,-109.5"/>
<polygon fill="darkviolet" stroke="darkviolet" points="143.11,-106.1 132.57,-107.16 141.47,-112.91 143.11,-106.1"/>
</g>
<!-- 140536423302176 -->
<g id="node3" class="node">
<title>140536423302176</title>
<polygon fill="none" stroke="black" points="231.75,-108 149,-108 149,-72 231.75,-72 231.75,-108"/>
<text text-anchor="middle" x="190.38" y="-86.45" font-family="sans" font-size="14.00">eless@0.7</text>
</g>
<!-- 140536404175264&#45;&gt;140536423302176 -->
<g id="edge2" class="edge">
<title>140536404175264&#45;&gt;140536423302176</title>
<path fill="none" stroke="darkviolet" d="M314.91,-143.52C292.85,-134.21 265.5,-122.68 242.06,-112.79"/>
<polygon fill="darkviolet" stroke="darkviolet" points="243.56,-109.63 232.99,-108.97 240.84,-116.08 243.56,-109.63"/>
</g>
<!-- 140536425558016 -->
<g id="node4" class="node">
<title>140536425558016</title>
<polygon fill="none" stroke="black" points="463,-108 249.75,-108 249.75,-72 463,-72 463,-108"/>
<text text-anchor="middle" x="356.38" y="-86.45" font-family="sans" font-size="14.00">guile&#45;studio@0.1.1&#45;1.dd0ad42</text>
</g>
<!-- 140536404175264&#45;&gt;140536425558016 -->
<g id="edge3" class="edge">
<title>140536404175264&#45;&gt;140536425558016</title>
<path fill="none" stroke="darkviolet" d="M356.38,-143.7C356.38,-136.41 356.38,-127.73 356.38,-119.54"/>
<polygon fill="darkviolet" stroke="darkviolet" points="359.88,-119.62 356.38,-109.62 352.88,-119.62 359.88,-119.62"/>
</g>
<!-- 140536438499216 -->
<g id="node5" class="node">
<title>140536438499216</title>
<polygon fill="none" stroke="black" points="682,-108 480.75,-108 480.75,-72 682,-72 682,-108"/>
<text text-anchor="middle" x="581.38" y="-86.45" font-family="sans" font-size="14.00">emacs&#45;mew@6.9&#45;1.35772ee</text>
</g>
<!-- 140536404175264&#45;&gt;140536438499216 -->
<g id="edge4" class="edge">
<title>140536404175264&#45;&gt;140536438499216</title>
<path fill="none" stroke="darkviolet" d="M406.31,-145.46C438.09,-135.58 479.63,-122.66 514.27,-111.88"/>
<polygon fill="darkviolet" stroke="darkviolet" points="515.3,-115.22 523.81,-108.91 513.22,-108.54 515.3,-115.22"/>
</g>
<!-- 140536463788800 -->
<g id="node6" class="node">
<title>140536463788800</title>
<polygon fill="none" stroke="black" points="798.25,-108 700.5,-108 700.5,-72 798.25,-72 798.25,-108"/>
<text text-anchor="middle" x="749.38" y="-86.45" font-family="sans" font-size="14.00">bigloo@4.3g</text>
</g>
<!-- 140536404175264&#45;&gt;140536463788800 -->
<g id="edge5" class="edge">
<title>140536404175264&#45;&gt;140536463788800</title>
<path fill="none" stroke="darkviolet" d="M406.42,-155.12C469.98,-147.2 583.19,-131.61 688.93,-108.39"/>
<polygon fill="darkviolet" stroke="darkviolet" points="689.65,-111.82 698.65,-106.23 688.13,-104.99 689.65,-111.82"/>
</g>
<!-- 140536463788624 -->
<g id="node7" class="node">
<title>140536463788624</title>
<polygon fill="none" stroke="black" points="809.88,-36 688.88,-36 688.88,0 809.88,0 809.88,-36"/>
<text text-anchor="middle" x="749.38" y="-14.45" font-family="sans" font-size="14.00">hop@3.2.0&#45;pre1</text>
</g>
<!-- 140536463788800&#45;&gt;140536463788624 -->
<g id="edge6" class="edge">
<title>140536463788800&#45;&gt;140536463788624</title>
<path fill="none" stroke="dimgrey" d="M749.38,-71.7C749.38,-64.41 749.38,-55.73 749.38,-47.54"/>
<polygon fill="dimgrey" stroke="dimgrey" points="752.88,-47.62 749.38,-37.62 745.88,-47.62 752.88,-47.62"/>
</g>
</g>
</svg>
