<?xml version="1.0" encoding="UTF-8" standalone="no"?>
<!DOCTYPE svg PUBLIC "-//W3C//DTD SVG 1.1//EN"
 "http://www.w3.org/Graphics/SVG/1.1/DTD/svg11.dtd">
<!-- Generated by graphviz version 12.2.1 (0)
 -->
<!-- Title: Guix reverse&#45;package Pages: 1 -->
<svg width="815pt" height="260pt"
 viewBox="0.00 0.00 814.62 260.00" xmlns="http://www.w3.org/2000/svg" xmlns:xlink="http://www.w3.org/1999/xlink">
<g id="graph0" class="graph" transform="scale(1 1) rotate(0) translate(4 256)">
<title>Guix reverse&#45;package</title>
<polygon fill="white" stroke="none" points="-4,4 -4,-256 810.62,-256 810.62,4 -4,4"/>
<!-- 140028601402752 -->
<g id="node1" class="node">
<title>140028601402752</title>
<polygon fill="none" stroke="black" points="440.38,-108 229.38,-108 229.38,-72 440.38,-72 440.38,-108"/>
<text text-anchor="middle" x="334.88" y="-85.33" font-family="sans" font-size="14.00">rocm&#45;bandwidth&#45;test@6.4.2</text>
</g>
<!-- 140028601404160 -->
<g id="node2" class="node">
<title>140028601404160</title>
<polygon fill="none" stroke="black" points="603.38,-252 452.38,-252 452.38,-216 603.38,-216 603.38,-252"/>
<text text-anchor="middle" x="527.88" y="-229.32" font-family="sans" font-size="14.00">rocm&#45;cmake@6.4.2</text>
</g>
<!-- 140028601403632 -->
<g id="node3" class="node">
<title>140028601403632</title>
<polygon fill="none" stroke="black" points="185,-180 34.75,-180 34.75,-144 185,-144 185,-180"/>
<text text-anchor="middle" x="109.88" y="-157.32" font-family="sans" font-size="14.00">rocm&#45;comgr@6.4.2</text>
</g>
<!-- 140028601403104 -->
<g id="node4" class="node">
<title>140028601403104</title>
<polygon fill="none" stroke="black" points="211.75,-108 0,-108 0,-72 211.75,-72 211.75,-108"/>
<text text-anchor="middle" x="105.88" y="-85.33" font-family="sans" font-size="14.00">rocm&#45;opencl&#45;runtime@6.4.2</text>
</g>
<!-- 140028601403632&#45;&gt;140028601403104 -->
<g id="edge1" class="edge">
<title>140028601403632&#45;&gt;140028601403104</title>
<path fill="none" stroke="darkseagreen" d="M108.89,-143.7C108.47,-136.41 107.97,-127.73 107.51,-119.54"/>
<polygon fill="darkseagreen" stroke="darkseagreen" points="111,-119.4 106.94,-109.62 104.02,-119.8 111,-119.4"/>
</g>
<!-- 140028636752288 -->
<g id="node5" class="node">
<title>140028636752288</title>
<polygon fill="none" stroke="black" points="190.75,-36 21,-36 21,0 190.75,0 190.75,-36"/>
<text text-anchor="middle" x="105.88" y="-13.32" font-family="sans" font-size="14.00">adaptivecpp@25.10.0</text>
</g>
<!-- 140028601403104&#45;&gt;140028636752288 -->
<g id="edge2" class="edge">
<title>140028601403104&#45;&gt;140028636752288</title>
<path fill="none" stroke="#00cdcd" d="M105.88,-71.7C105.88,-64.41 105.88,-55.73 105.88,-47.54"/>
<polygon fill="#00cdcd" stroke="#00cdcd" points="109.38,-47.62 105.88,-37.62 102.38,-47.62 109.38,-47.62"/>
</g>
<!-- 140028601403984 -->
<g id="node6" class="node">
<title>140028601403984</title>
<polygon fill="none" stroke="black" points="209,-252 28.75,-252 28.75,-216 209,-216 209,-252"/>
<text text-anchor="middle" x="118.88" y="-229.32" font-family="sans" font-size="14.00">rocm&#45;device&#45;libs@6.4.2</text>
</g>
<!-- 140028601403984&#45;&gt;140028601403632 -->
<g id="edge3" class="edge">
<title>140028601403984&#45;&gt;140028601403632</title>
<path fill="none" stroke="dimgrey" d="M116.65,-215.7C115.7,-208.32 114.57,-199.52 113.51,-191.25"/>
<polygon fill="dimgrey" stroke="dimgrey" points="117.01,-191.08 112.27,-181.61 110.07,-191.97 117.01,-191.08"/>
</g>
<!-- 140028601403280 -->
<g id="node7" class="node">
<title>140028601403280</title>
<polygon fill="none" stroke="black" points="407.75,-180 256,-180 256,-144 407.75,-144 407.75,-180"/>
<text text-anchor="middle" x="331.88" y="-157.32" font-family="sans" font-size="14.00">rocr&#45;runtime@6.4.2</text>
</g>
<!-- 140028601403984&#45;&gt;140028601403280 -->
<g id="edge4" class="edge">
<title>140028601403984&#45;&gt;140028601403280</title>
<path fill="none" stroke="dimgrey" d="M172.07,-215.52C201.28,-205.92 237.7,-193.95 268.39,-183.86"/>
<polygon fill="dimgrey" stroke="dimgrey" points="269.14,-187.3 277.55,-180.85 266.95,-180.65 269.14,-187.3"/>
</g>
<!-- 140028601403280&#45;&gt;140028601402752 -->
<g id="edge6" class="edge">
<title>140028601403280&#45;&gt;140028601402752</title>
<path fill="none" stroke="darkgoldenrod" d="M332.62,-143.7C332.93,-136.41 333.3,-127.73 333.65,-119.54"/>
<polygon fill="darkgoldenrod" stroke="darkgoldenrod" points="337.15,-119.76 334.08,-109.62 330.15,-119.46 337.15,-119.76"/>
</g>
<!-- 140028601403280&#45;&gt;140028601403104 -->
<g id="edge7" class="edge">
<title>140028601403280&#45;&gt;140028601403104</title>
<path fill="none" stroke="darkgoldenrod" d="M275.43,-143.52C244.3,-133.88 205.46,-121.84 172.81,-111.73"/>
<polygon fill="darkgoldenrod" stroke="darkgoldenrod" points="174.03,-108.44 163.44,-108.83 171.96,-115.13 174.03,-108.44"/>
</g>
<!-- 140028601402928 -->
<g id="node8" class="node">
<title>140028601402928</title>
<polygon fill="none" stroke="black" points="585.38,-108 458.38,-108 458.38,-72 585.38,-72 585.38,-108"/>
<text text-anchor="middle" x="521.88" y="-85.33" font-family="sans" font-size="14.00">rocminfo@6.4.2</text>
</g>
<!-- 140028601403280&#45;&gt;140028601402928 -->
<g id="edge5" class="edge">
<title>140028601403280&#45;&gt;140028601402928</title>
<path fill="none" stroke="darkgoldenrod" d="M379.33,-143.52C405.04,-134.04 437.02,-122.26 464.17,-112.26"/>
<polygon fill="darkgoldenrod" stroke="darkgoldenrod" points="465.1,-115.65 473.28,-108.9 462.68,-109.08 465.1,-115.65"/>
</g>
<!-- 140028601403808 -->
<g id="node9" class="node">
<title>140028601403808</title>
<polygon fill="none" stroke="black" points="806.62,-252 621.12,-252 621.12,-216 806.62,-216 806.62,-252"/>
<text text-anchor="middle" x="713.88" y="-229.32" font-family="sans" font-size="14.00">rocm&#45;hip&#45;cpu@0.1.4142</text>
</g>
<!-- 140028601403456 -->
<g id="node10" class="node">
<title>140028601403456</title>
<polygon fill="none" stroke="black" points="434.38,-252 229.38,-252 229.38,-216 434.38,-216 434.38,-252"/>
<text text-anchor="middle" x="331.88" y="-229.32" font-family="sans" font-size="14.00">roct&#45;thunk&#45;interface@6.2.4</text>
</g>
<!-- 140028601403456&#45;&gt;140028601403280 -->
<g id="edge8" class="edge">
<title>140028601403456&#45;&gt;140028601403280</title>
<path fill="none" stroke="#00cdcd" d="M331.88,-215.7C331.88,-208.41 331.88,-199.73 331.88,-191.54"/>
<polygon fill="#00cdcd" stroke="#00cdcd" points="335.38,-191.62 331.88,-181.62 328.38,-191.62 335.38,-191.62"/>
</g>
</g>
</svg>
