<?xml version="1.0" encoding="UTF-8" standalone="no"?>
<!DOCTYPE svg PUBLIC "-//W3C//DTD SVG 1.1//EN"
 "http://www.w3.org/Graphics/SVG/1.1/DTD/svg11.dtd">
<!-- Generated by graphviz version 12.2.1 (0)
 -->
<!-- Title: structs Pages: 1 -->
<svg width="893pt" height="1150pt"
 viewBox="0.00 0.00 893.24 1150.25" xmlns="http://www.w3.org/2000/svg" xmlns:xlink="http://www.w3.org/1999/xlink">
<g id="graph0" class="graph" transform="scale(1 1) rotate(0) translate(4 1146.25)">
<title>structs</title>
<polygon fill="white" stroke="none" points="-4,4 -4,-1146.25 889.24,-1146.25 889.24,4 -4,4"/>
<!-- n_association_scan_category -->
<g id="node1" class="node">
<title>n_association_scan_category</title>
<polygon fill="none" stroke="black" points="8,-536.25 8,-559.5 236.75,-559.5 236.75,-536.25 8,-536.25"/>
<text text-anchor="start" x="11" y="-544.2" font-family="Times,serif" font-weight="bold" font-size="14.00">n_association_scan_category</text>
<polygon fill="none" stroke="black" points="8,-513 8,-536.25 93.5,-536.25 93.5,-513 8,-513"/>
<text text-anchor="start" x="48.5" y="-519.95" font-family="Times,serif" font-size="14.00"> </text>
<polygon fill="none" stroke="black" points="93.5,-513 93.5,-536.25 236.75,-536.25 236.75,-513 93.5,-513"/>
<text text-anchor="start" x="149" y="-519.95" font-family="Times,serif" font-size="14.00">scan</text>
<polygon fill="none" stroke="black" points="8,-489.75 8,-513 93.5,-513 93.5,-489.75 8,-489.75"/>
<text text-anchor="start" x="48.5" y="-496.7" font-family="Times,serif" font-size="14.00"> </text>
<polygon fill="none" stroke="black" points="93.5,-489.75 93.5,-513 236.75,-513 236.75,-489.75 93.5,-489.75"/>
<text text-anchor="start" x="134" y="-496.7" font-family="Times,serif" font-size="14.00">category</text>
</g>
<!-- n_category -->
<g id="node3" class="node">
<title>n_category</title>
<polygon fill="none" stroke="black" points="236,-143.5 236,-166.75 326.75,-166.75 326.75,-143.5 236,-143.5"/>
<text text-anchor="start" x="239" y="-151.45" font-family="Times,serif" font-weight="bold" font-size="14.00">n_category</text>
<polygon fill="none" stroke="black" points="236,-120.25 236,-143.5 270.5,-143.5 270.5,-120.25 236,-120.25"/>
<text text-anchor="start" x="244.62" y="-127.2" font-family="Times,serif" font-size="14.00">🔑</text>
<polygon fill="none" stroke="black" points="270.5,-120.25 270.5,-143.5 326.75,-143.5 326.75,-120.25 270.5,-120.25"/>
<text text-anchor="start" x="291.88" y="-127.2" font-family="Times,serif" font-size="14.00">id</text>
<polygon fill="none" stroke="black" points="236,-97 236,-120.25 270.5,-120.25 270.5,-97 236,-97"/>
<text text-anchor="start" x="251" y="-103.95" font-family="Times,serif" font-size="14.00"> </text>
<polygon fill="none" stroke="black" points="270.5,-97 270.5,-120.25 326.75,-120.25 326.75,-97 270.5,-97"/>
<text text-anchor="start" x="279.12" y="-103.95" font-family="Times,serif" font-size="14.00">name</text>
</g>
<!-- n_association_scan_category&#45;&gt;n_category -->
<g id="edge3" class="edge">
<title>n_association_scan_category:e&#45;&gt;n_category:w</title>
<path fill="none" stroke="black" d="M237.75,-501.38C275.2,-501.38 207.89,-193.97 226.92,-139.94"/>
<polygon fill="black" stroke="black" points="229.32,-142.49 233.93,-132.94 224.38,-137.53 229.32,-142.49"/>
</g>
<!-- n_scan -->
<g id="node7" class="node">
<title>n_scan</title>
<polygon fill="none" stroke="black" points="445.75,-236.5 445.75,-259.75 589,-259.75 589,-236.5 445.75,-236.5"/>
<text text-anchor="start" x="490.75" y="-244.45" font-family="Times,serif" font-weight="bold" font-size="14.00">n_scan</text>
<polygon fill="none" stroke="black" points="445.75,-213.25 445.75,-236.5 469,-236.5 469,-213.25 445.75,-213.25"/>
<text text-anchor="start" x="448.75" y="-220.2" font-family="Times,serif" font-size="14.00">🔑</text>
<polygon fill="none" stroke="black" points="469,-213.25 469,-236.5 589,-236.5 589,-213.25 469,-213.25"/>
<text text-anchor="start" x="522.25" y="-220.2" font-family="Times,serif" font-size="14.00">id</text>
<polygon fill="none" stroke="black" points="445.75,-190 445.75,-213.25 469,-213.25 469,-190 445.75,-190"/>
<text text-anchor="start" x="455.12" y="-196.95" font-family="Times,serif" font-size="14.00"> </text>
<polygon fill="none" stroke="black" points="469,-190 469,-213.25 589,-213.25 589,-190 469,-190"/>
<text text-anchor="start" x="512.5" y="-196.95" font-family="Times,serif" font-size="14.00">addr</text>
<polygon fill="none" stroke="black" points="445.75,-166.75 445.75,-190 469,-190 469,-166.75 445.75,-166.75"/>
<text text-anchor="start" x="455.12" y="-173.7" font-family="Times,serif" font-size="14.00"> </text>
<polygon fill="none" stroke="black" points="469,-166.75 469,-190 589,-190 589,-166.75 469,-166.75"/>
<text text-anchor="start" x="515.5" y="-173.7" font-family="Times,serif" font-size="14.00">info</text>
<polygon fill="none" stroke="black" points="445.75,-143.5 445.75,-166.75 469,-166.75 469,-143.5 445.75,-143.5"/>
<text text-anchor="start" x="455.12" y="-150.45" font-family="Times,serif" font-size="14.00"> </text>
<polygon fill="none" stroke="black" points="469,-143.5 469,-166.75 589,-166.75 589,-143.5 469,-143.5"/>
<text text-anchor="start" x="492.25" y="-150.45" font-family="Times,serif" font-size="14.00">time_start</text>
<polygon fill="none" stroke="black" points="445.75,-120.25 445.75,-143.5 469,-143.5 469,-120.25 445.75,-120.25"/>
<text text-anchor="start" x="455.12" y="-127.2" font-family="Times,serif" font-size="14.00"> </text>
<polygon fill="none" stroke="black" points="469,-120.25 469,-143.5 589,-143.5 589,-120.25 469,-120.25"/>
<text text-anchor="start" x="494.12" y="-127.2" font-family="Times,serif" font-size="14.00">time_stop</text>
<polygon fill="none" stroke="black" points="445.75,-97 445.75,-120.25 469,-120.25 469,-97 445.75,-97"/>
<text text-anchor="start" x="455.12" y="-103.95" font-family="Times,serif" font-size="14.00"> </text>
<polygon fill="none" stroke="black" points="469,-97 469,-120.25 589,-120.25 589,-97 469,-97"/>
<text text-anchor="start" x="511" y="-103.95" font-family="Times,serif" font-size="14.00">state</text>
<polygon fill="none" stroke="black" points="445.75,-73.75 445.75,-97 469,-97 469,-73.75 445.75,-73.75"/>
<text text-anchor="start" x="455.12" y="-80.7" font-family="Times,serif" font-size="14.00"> </text>
<polygon fill="none" stroke="black" points="469,-73.75 469,-97 589,-97 589,-73.75 469,-73.75"/>
<text text-anchor="start" x="483.62" y="-80.7" font-family="Times,serif" font-size="14.00">state_reason</text>
<polygon fill="none" stroke="black" points="445.75,-50.5 445.75,-73.75 469,-73.75 469,-50.5 445.75,-50.5"/>
<text text-anchor="start" x="455.12" y="-57.45" font-family="Times,serif" font-size="14.00"> </text>
<polygon fill="none" stroke="black" points="469,-50.5 469,-73.75 589,-73.75 589,-50.5 469,-50.5"/>
<text text-anchor="start" x="472" y="-57.45" font-family="Times,serif" font-size="14.00">state_reason_ttl</text>
<polygon fill="none" stroke="black" points="445.75,-27.25 445.75,-50.5 469,-50.5 469,-27.25 445.75,-27.25"/>
<text text-anchor="start" x="455.12" y="-34.2" font-family="Times,serif" font-size="14.00"> </text>
<polygon fill="none" stroke="black" points="469,-27.25 469,-50.5 589,-50.5 589,-27.25 469,-27.25"/>
<text text-anchor="start" x="472.38" y="-34.2" font-family="Times,serif" font-size="14.00">schema_version</text>
<polygon fill="none" stroke="black" points="445.75,-4 445.75,-27.25 469,-27.25 469,-4 445.75,-4"/>
<text text-anchor="start" x="455.12" y="-10.95" font-family="Times,serif" font-size="14.00"> </text>
<polygon fill="none" stroke="black" points="469,-4 469,-27.25 589,-27.25 589,-4 469,-4"/>
<text text-anchor="start" x="505.38" y="-10.95" font-family="Times,serif" font-size="14.00">source</text>
</g>
<!-- n_association_scan_category&#45;&gt;n_scan -->
<g id="edge2" class="edge">
<title>n_association_scan_category:e&#45;&gt;n_scan:w</title>
<path fill="none" stroke="black" d="M237.75,-524.62C262.8,-524.62 238.55,-319.93 253.38,-299.75 254.1,-298.76 393.86,-244.17 434.06,-228.84"/>
<polygon fill="black" stroke="black" points="435.17,-232.16 443.33,-225.4 432.74,-225.6 435.17,-232.16"/>
</g>
<!-- n_association_scan_hostname -->
<g id="node2" class="node">
<title>n_association_scan_hostname</title>
<polygon fill="none" stroke="black" points="76.75,-975.5 76.75,-998.75 316,-998.75 316,-975.5 76.75,-975.5"/>
<text text-anchor="start" x="79.75" y="-983.45" font-family="Times,serif" font-weight="bold" font-size="14.00">n_association_scan_hostname</text>
<polygon fill="none" stroke="black" points="76.75,-952.25 76.75,-975.5 163.75,-975.5 163.75,-952.25 76.75,-952.25"/>
<text text-anchor="start" x="118" y="-959.2" font-family="Times,serif" font-size="14.00"> </text>
<polygon fill="none" stroke="black" points="163.75,-952.25 163.75,-975.5 316,-975.5 316,-952.25 163.75,-952.25"/>
<text text-anchor="start" x="223.75" y="-959.2" font-family="Times,serif" font-size="14.00">scan</text>
<polygon fill="none" stroke="black" points="76.75,-929 76.75,-952.25 163.75,-952.25 163.75,-929 76.75,-929"/>
<text text-anchor="start" x="118" y="-935.95" font-family="Times,serif" font-size="14.00"> </text>
<polygon fill="none" stroke="black" points="163.75,-929 163.75,-952.25 316,-952.25 316,-929 163.75,-929"/>
<text text-anchor="start" x="205" y="-935.95" font-family="Times,serif" font-size="14.00">hostname</text>
</g>
<!-- n_hostname -->
<g id="node5" class="node">
<title>n_hostname</title>
<polygon fill="none" stroke="black" points="270.75,-571.12 270.75,-594.38 372,-594.38 372,-571.12 270.75,-571.12"/>
<text text-anchor="start" x="273.75" y="-579.08" font-family="Times,serif" font-weight="bold" font-size="14.00">n_hostname</text>
<polygon fill="none" stroke="black" points="270.75,-547.88 270.75,-571.12 300,-571.12 300,-547.88 270.75,-547.88"/>
<text text-anchor="start" x="276.75" y="-554.83" font-family="Times,serif" font-size="14.00">🔑</text>
<polygon fill="none" stroke="black" points="300,-547.88 300,-571.12 372,-571.12 372,-547.88 300,-547.88"/>
<text text-anchor="start" x="329.25" y="-554.83" font-family="Times,serif" font-size="14.00">id</text>
<polygon fill="none" stroke="black" points="270.75,-524.62 270.75,-547.88 300,-547.88 300,-524.62 270.75,-524.62"/>
<text text-anchor="start" x="283.12" y="-531.58" font-family="Times,serif" font-size="14.00"> </text>
<polygon fill="none" stroke="black" points="300,-524.62 300,-547.88 372,-547.88 372,-524.62 300,-524.62"/>
<text text-anchor="start" x="319.88" y="-531.58" font-family="Times,serif" font-size="14.00">scan</text>
<polygon fill="none" stroke="black" points="270.75,-501.38 270.75,-524.62 300,-524.62 300,-501.38 270.75,-501.38"/>
<text text-anchor="start" x="283.12" y="-508.32" font-family="Times,serif" font-size="14.00"> </text>
<polygon fill="none" stroke="black" points="300,-501.38 300,-524.62 372,-524.62 372,-501.38 300,-501.38"/>
<text text-anchor="start" x="306" y="-508.32" font-family="Times,serif" font-size="14.00">domains</text>
<polygon fill="none" stroke="black" points="270.75,-478.12 270.75,-501.38 300,-501.38 300,-478.12 270.75,-478.12"/>
<text text-anchor="start" x="283.12" y="-485.07" font-family="Times,serif" font-size="14.00"> </text>
<polygon fill="none" stroke="black" points="300,-478.12 300,-501.38 372,-501.38 372,-478.12 300,-478.12"/>
<text text-anchor="start" x="316.5" y="-485.07" font-family="Times,serif" font-size="14.00">name</text>
<polygon fill="none" stroke="black" points="270.75,-454.88 270.75,-478.12 300,-478.12 300,-454.88 270.75,-454.88"/>
<text text-anchor="start" x="283.12" y="-461.82" font-family="Times,serif" font-size="14.00"> </text>
<polygon fill="none" stroke="black" points="300,-454.88 300,-478.12 372,-478.12 372,-454.88 300,-454.88"/>
<text text-anchor="start" x="320.25" y="-461.82" font-family="Times,serif" font-size="14.00">type</text>
</g>
<!-- n_association_scan_hostname&#45;&gt;n_hostname -->
<g id="edge6" class="edge">
<title>n_association_scan_hostname:e&#45;&gt;n_hostname:w</title>
<path fill="none" stroke="black" d="M317,-940.62C355.84,-940.62 249.49,-624.91 262.24,-568.18"/>
<polygon fill="black" stroke="black" points="264.86,-570.5 268.76,-560.64 259.57,-565.91 264.86,-570.5"/>
</g>
<!-- n_association_scan_hostname&#45;&gt;n_scan -->
<g id="edge5" class="edge">
<title>n_association_scan_hostname:e&#45;&gt;n_scan:w</title>
<path fill="none" stroke="black" d="M317,-963.88C398.38,-963.88 321.56,-858.08 358.38,-785.5 367.93,-766.67 381,-768.88 389.38,-749.5 411.18,-699.06 389.25,-282.1 434.72,-230.18"/>
<polygon fill="black" stroke="black" points="436.21,-233.35 443.41,-225.58 432.94,-227.16 436.21,-233.35"/>
</g>
<!-- n_hop -->
<g id="node4" class="node">
<title>n_hop</title>
<polygon fill="none" stroke="black" points="375.75,-1033.62 375.75,-1056.88 465,-1056.88 465,-1033.62 375.75,-1033.62"/>
<text text-anchor="start" x="397.12" y="-1041.58" font-family="Times,serif" font-weight="bold" font-size="14.00">n_hop</text>
<polygon fill="none" stroke="black" points="375.75,-1010.38 375.75,-1033.62 399,-1033.62 399,-1010.38 375.75,-1010.38"/>
<text text-anchor="start" x="378.75" y="-1017.33" font-family="Times,serif" font-size="14.00">🔑</text>
<polygon fill="none" stroke="black" points="399,-1010.38 399,-1033.62 465,-1033.62 465,-1010.38 399,-1010.38"/>
<text text-anchor="start" x="425.25" y="-1017.33" font-family="Times,serif" font-size="14.00">id</text>
<polygon fill="none" stroke="black" points="375.75,-987.12 375.75,-1010.38 399,-1010.38 399,-987.12 375.75,-987.12"/>
<text text-anchor="start" x="385.12" y="-994.08" font-family="Times,serif" font-size="14.00"> </text>
<polygon fill="none" stroke="black" points="399,-987.12 399,-1010.38 465,-1010.38 465,-987.12 399,-987.12"/>
<text text-anchor="start" x="413.62" y="-994.08" font-family="Times,serif" font-size="14.00">trace</text>
<polygon fill="none" stroke="black" points="375.75,-963.88 375.75,-987.12 399,-987.12 399,-963.88 375.75,-963.88"/>
<text text-anchor="start" x="385.12" y="-970.83" font-family="Times,serif" font-size="14.00"> </text>
<polygon fill="none" stroke="black" points="399,-963.88 399,-987.12 465,-987.12 465,-963.88 399,-963.88"/>
<text text-anchor="start" x="408.75" y="-970.83" font-family="Times,serif" font-size="14.00">ipaddr</text>
<polygon fill="none" stroke="black" points="375.75,-940.62 375.75,-963.88 399,-963.88 399,-940.62 375.75,-940.62"/>
<text text-anchor="start" x="385.12" y="-947.58" font-family="Times,serif" font-size="14.00"> </text>
<polygon fill="none" stroke="black" points="399,-940.62 399,-963.88 465,-963.88 465,-940.62 399,-940.62"/>
<text text-anchor="start" x="423.75" y="-947.58" font-family="Times,serif" font-size="14.00">ttl</text>
<polygon fill="none" stroke="black" points="375.75,-917.38 375.75,-940.62 399,-940.62 399,-917.38 375.75,-917.38"/>
<text text-anchor="start" x="385.12" y="-924.33" font-family="Times,serif" font-size="14.00"> </text>
<polygon fill="none" stroke="black" points="399,-917.38 399,-940.62 465,-940.62 465,-917.38 399,-917.38"/>
<text text-anchor="start" x="422.62" y="-924.33" font-family="Times,serif" font-size="14.00">rtt</text>
<polygon fill="none" stroke="black" points="375.75,-894.12 375.75,-917.38 399,-917.38 399,-894.12 375.75,-894.12"/>
<text text-anchor="start" x="385.12" y="-901.08" font-family="Times,serif" font-size="14.00"> </text>
<polygon fill="none" stroke="black" points="399,-894.12 399,-917.38 465,-917.38 465,-894.12 399,-894.12"/>
<text text-anchor="start" x="416.62" y="-901.08" font-family="Times,serif" font-size="14.00">host</text>
<polygon fill="none" stroke="black" points="375.75,-870.88 375.75,-894.12 399,-894.12 399,-870.88 375.75,-870.88"/>
<text text-anchor="start" x="385.12" y="-877.83" font-family="Times,serif" font-size="14.00"> </text>
<polygon fill="none" stroke="black" points="399,-870.88 399,-894.12 465,-894.12 465,-870.88 399,-870.88"/>
<text text-anchor="start" x="402" y="-877.83" font-family="Times,serif" font-size="14.00">domains</text>
</g>
<!-- n_hop&#45;&gt;n_scan -->
<g id="edge7" class="edge">
<title>n_hop:e&#45;&gt;n_scan:w</title>
<path fill="none" stroke="black" d="M466,-975.5C485.99,-975.5 431.86,-306.63 441.43,-212.56"/>
<polygon fill="black" stroke="black" points="444.75,-213.66 444.31,-203.07 438.05,-211.62 444.75,-213.66"/>
</g>
<!-- n_trace -->
<g id="node10" class="node">
<title>n_trace</title>
<polygon fill="none" stroke="black" points="482.5,-559.5 482.5,-582.75 570.25,-582.75 570.25,-559.5 482.5,-559.5"/>
<text text-anchor="start" x="497.5" y="-567.45" font-family="Times,serif" font-weight="bold" font-size="14.00">n_trace</text>
<polygon fill="none" stroke="black" points="482.5,-536.25 482.5,-559.5 505.75,-559.5 505.75,-536.25 482.5,-536.25"/>
<text text-anchor="start" x="485.5" y="-543.2" font-family="Times,serif" font-size="14.00">🔑</text>
<polygon fill="none" stroke="black" points="505.75,-536.25 505.75,-559.5 570.25,-559.5 570.25,-536.25 505.75,-536.25"/>
<text text-anchor="start" x="531.25" y="-543.2" font-family="Times,serif" font-size="14.00">id</text>
<polygon fill="none" stroke="black" points="482.5,-513 482.5,-536.25 505.75,-536.25 505.75,-513 482.5,-513"/>
<text text-anchor="start" x="491.88" y="-519.95" font-family="Times,serif" font-size="14.00"> </text>
<polygon fill="none" stroke="black" points="505.75,-513 505.75,-536.25 570.25,-536.25 570.25,-513 505.75,-513"/>
<text text-anchor="start" x="521.88" y="-519.95" font-family="Times,serif" font-size="14.00">scan</text>
<polygon fill="none" stroke="black" points="482.5,-489.75 482.5,-513 505.75,-513 505.75,-489.75 482.5,-489.75"/>
<text text-anchor="start" x="491.88" y="-496.7" font-family="Times,serif" font-size="14.00"> </text>
<polygon fill="none" stroke="black" points="505.75,-489.75 505.75,-513 570.25,-513 570.25,-489.75 505.75,-489.75"/>
<text text-anchor="start" x="523" y="-496.7" font-family="Times,serif" font-size="14.00">port</text>
<polygon fill="none" stroke="black" points="482.5,-466.5 482.5,-489.75 505.75,-489.75 505.75,-466.5 482.5,-466.5"/>
<text text-anchor="start" x="491.88" y="-473.45" font-family="Times,serif" font-size="14.00"> </text>
<polygon fill="none" stroke="black" points="505.75,-466.5 505.75,-489.75 570.25,-489.75 570.25,-466.5 505.75,-466.5"/>
<text text-anchor="start" x="508.75" y="-473.45" font-family="Times,serif" font-size="14.00">protocol</text>
</g>
<!-- n_hop&#45;&gt;n_trace -->
<g id="edge8" class="edge">
<title>n_hop:e&#45;&gt;n_trace:w</title>
<path fill="none" stroke="black" d="M466,-998.75C512.41,-998.75 443.21,-612.32 472.46,-554.96"/>
<polygon fill="black" stroke="black" points="474.59,-557.73 480.31,-548.81 470.28,-552.22 474.59,-557.73"/>
</g>
<!-- n_hostname&#45;&gt;n_scan -->
<g id="edge9" class="edge">
<title>n_hostname:e&#45;&gt;n_scan:w</title>
<path fill="none" stroke="black" d="M373,-536.25C399.38,-536.25 385.55,-324.61 394.38,-299.75 406.38,-265.94 405.12,-232.7 433.43,-226.07"/>
<polygon fill="black" stroke="black" points="433.67,-229.56 443.24,-225.03 432.93,-222.6 433.67,-229.56"/>
</g>
<!-- n_port -->
<g id="node6" class="node">
<title>n_port</title>
<polygon fill="none" stroke="black" points="604.25,-722.25 604.25,-745.5 768.5,-745.5 768.5,-722.25 604.25,-722.25"/>
<text text-anchor="start" x="661.25" y="-730.2" font-family="Times,serif" font-weight="bold" font-size="14.00">n_port</text>
<polygon fill="none" stroke="black" points="604.25,-699 604.25,-722.25 627.5,-722.25 627.5,-699 604.25,-699"/>
<text text-anchor="start" x="607.25" y="-705.95" font-family="Times,serif" font-size="14.00">🔑</text>
<polygon fill="none" stroke="black" points="627.5,-699 627.5,-722.25 768.5,-722.25 768.5,-699 627.5,-699"/>
<text text-anchor="start" x="691.25" y="-705.95" font-family="Times,serif" font-size="14.00">id</text>
<polygon fill="none" stroke="black" points="604.25,-675.75 604.25,-699 627.5,-699 627.5,-675.75 604.25,-675.75"/>
<text text-anchor="start" x="613.62" y="-682.7" font-family="Times,serif" font-size="14.00"> </text>
<polygon fill="none" stroke="black" points="627.5,-675.75 627.5,-699 768.5,-699 768.5,-675.75 627.5,-675.75"/>
<text text-anchor="start" x="681.88" y="-682.7" font-family="Times,serif" font-size="14.00">scan</text>
<polygon fill="none" stroke="black" points="604.25,-652.5 604.25,-675.75 627.5,-675.75 627.5,-652.5 604.25,-652.5"/>
<text text-anchor="start" x="613.62" y="-659.45" font-family="Times,serif" font-size="14.00"> </text>
<polygon fill="none" stroke="black" points="627.5,-652.5 627.5,-675.75 768.5,-675.75 768.5,-652.5 627.5,-652.5"/>
<text text-anchor="start" x="683" y="-659.45" font-family="Times,serif" font-size="14.00">port</text>
<polygon fill="none" stroke="black" points="604.25,-629.25 604.25,-652.5 627.5,-652.5 627.5,-629.25 604.25,-629.25"/>
<text text-anchor="start" x="613.62" y="-636.2" font-family="Times,serif" font-size="14.00"> </text>
<polygon fill="none" stroke="black" points="627.5,-629.25 627.5,-652.5 768.5,-652.5 768.5,-629.25 627.5,-629.25"/>
<text text-anchor="start" x="668.75" y="-636.2" font-family="Times,serif" font-size="14.00">protocol</text>
<polygon fill="none" stroke="black" points="604.25,-606 604.25,-629.25 627.5,-629.25 627.5,-606 604.25,-606"/>
<text text-anchor="start" x="613.62" y="-612.95" font-family="Times,serif" font-size="14.00"> </text>
<polygon fill="none" stroke="black" points="627.5,-606 627.5,-629.25 768.5,-629.25 768.5,-606 627.5,-606"/>
<text text-anchor="start" x="680" y="-612.95" font-family="Times,serif" font-size="14.00">state</text>
<polygon fill="none" stroke="black" points="604.25,-582.75 604.25,-606 627.5,-606 627.5,-582.75 604.25,-582.75"/>
<text text-anchor="start" x="613.62" y="-589.7" font-family="Times,serif" font-size="14.00"> </text>
<polygon fill="none" stroke="black" points="627.5,-582.75 627.5,-606 768.5,-606 768.5,-582.75 627.5,-582.75"/>
<text text-anchor="start" x="652.62" y="-589.7" font-family="Times,serif" font-size="14.00">state_reason</text>
<polygon fill="none" stroke="black" points="604.25,-559.5 604.25,-582.75 627.5,-582.75 627.5,-559.5 604.25,-559.5"/>
<text text-anchor="start" x="613.62" y="-566.45" font-family="Times,serif" font-size="14.00"> </text>
<polygon fill="none" stroke="black" points="627.5,-559.5 627.5,-582.75 768.5,-582.75 768.5,-559.5 627.5,-559.5"/>
<text text-anchor="start" x="642.5" y="-566.45" font-family="Times,serif" font-size="14.00">state_reason_ip</text>
<polygon fill="none" stroke="black" points="604.25,-536.25 604.25,-559.5 627.5,-559.5 627.5,-536.25 604.25,-536.25"/>
<text text-anchor="start" x="613.62" y="-543.2" font-family="Times,serif" font-size="14.00"> </text>
<polygon fill="none" stroke="black" points="627.5,-536.25 627.5,-559.5 768.5,-559.5 768.5,-536.25 627.5,-536.25"/>
<text text-anchor="start" x="641" y="-543.2" font-family="Times,serif" font-size="14.00">state_reason_ttl</text>
<polygon fill="none" stroke="black" points="604.25,-513 604.25,-536.25 627.5,-536.25 627.5,-513 604.25,-513"/>
<text text-anchor="start" x="613.62" y="-519.95" font-family="Times,serif" font-size="14.00"> </text>
<polygon fill="none" stroke="black" points="627.5,-513 627.5,-536.25 768.5,-536.25 768.5,-513 627.5,-513"/>
<text text-anchor="start" x="649.62" y="-519.95" font-family="Times,serif" font-size="14.00">service_name</text>
<polygon fill="none" stroke="black" points="604.25,-489.75 604.25,-513 627.5,-513 627.5,-489.75 604.25,-489.75"/>
<text text-anchor="start" x="613.62" y="-496.7" font-family="Times,serif" font-size="14.00"> </text>
<polygon fill="none" stroke="black" points="627.5,-489.75 627.5,-513 768.5,-513 768.5,-489.75 627.5,-489.75"/>
<text text-anchor="start" x="646.25" y="-496.7" font-family="Times,serif" font-size="14.00">service_tunnel</text>
<polygon fill="none" stroke="black" points="604.25,-466.5 604.25,-489.75 627.5,-489.75 627.5,-466.5 604.25,-466.5"/>
<text text-anchor="start" x="613.62" y="-473.45" font-family="Times,serif" font-size="14.00"> </text>
<polygon fill="none" stroke="black" points="627.5,-466.5 627.5,-489.75 768.5,-489.75 768.5,-466.5 627.5,-466.5"/>
<text text-anchor="start" x="641.38" y="-473.45" font-family="Times,serif" font-size="14.00">service_product</text>
<polygon fill="none" stroke="black" points="604.25,-443.25 604.25,-466.5 627.5,-466.5 627.5,-443.25 604.25,-443.25"/>
<text text-anchor="start" x="613.62" y="-450.2" font-family="Times,serif" font-size="14.00"> </text>
<polygon fill="none" stroke="black" points="627.5,-443.25 627.5,-466.5 768.5,-466.5 768.5,-443.25 627.5,-443.25"/>
<text text-anchor="start" x="642.88" y="-450.2" font-family="Times,serif" font-size="14.00">service_version</text>
<polygon fill="none" stroke="black" points="604.25,-420 604.25,-443.25 627.5,-443.25 627.5,-420 604.25,-420"/>
<text text-anchor="start" x="613.62" y="-426.95" font-family="Times,serif" font-size="14.00"> </text>
<polygon fill="none" stroke="black" points="627.5,-420 627.5,-443.25 768.5,-443.25 768.5,-420 627.5,-420"/>
<text text-anchor="start" x="654.12" y="-426.95" font-family="Times,serif" font-size="14.00">service_conf</text>
<polygon fill="none" stroke="black" points="604.25,-396.75 604.25,-420 627.5,-420 627.5,-396.75 604.25,-396.75"/>
<text text-anchor="start" x="613.62" y="-403.7" font-family="Times,serif" font-size="14.00"> </text>
<polygon fill="none" stroke="black" points="627.5,-396.75 627.5,-420 768.5,-420 768.5,-396.75 627.5,-396.75"/>
<text text-anchor="start" x="630.5" y="-403.7" font-family="Times,serif" font-size="14.00">service_devicetype</text>
<polygon fill="none" stroke="black" points="604.25,-373.5 604.25,-396.75 627.5,-396.75 627.5,-373.5 604.25,-373.5"/>
<text text-anchor="start" x="613.62" y="-380.45" font-family="Times,serif" font-size="14.00"> </text>
<polygon fill="none" stroke="black" points="627.5,-373.5 627.5,-396.75 768.5,-396.75 768.5,-373.5 627.5,-373.5"/>
<text text-anchor="start" x="636.88" y="-380.45" font-family="Times,serif" font-size="14.00">service_extrainfo</text>
<polygon fill="none" stroke="black" points="604.25,-350.25 604.25,-373.5 627.5,-373.5 627.5,-350.25 604.25,-350.25"/>
<text text-anchor="start" x="613.62" y="-357.2" font-family="Times,serif" font-size="14.00"> </text>
<polygon fill="none" stroke="black" points="627.5,-350.25 627.5,-373.5 768.5,-373.5 768.5,-350.25 627.5,-350.25"/>
<text text-anchor="start" x="634.25" y="-357.2" font-family="Times,serif" font-size="14.00">service_hostname</text>
<polygon fill="none" stroke="black" points="604.25,-327 604.25,-350.25 627.5,-350.25 627.5,-327 604.25,-327"/>
<text text-anchor="start" x="613.62" y="-333.95" font-family="Times,serif" font-size="14.00"> </text>
<polygon fill="none" stroke="black" points="627.5,-327 627.5,-350.25 768.5,-350.25 768.5,-327 627.5,-327"/>
<text text-anchor="start" x="645.5" y="-333.95" font-family="Times,serif" font-size="14.00">service_ostype</text>
<polygon fill="none" stroke="black" points="604.25,-303.75 604.25,-327 627.5,-327 627.5,-303.75 604.25,-303.75"/>
<text text-anchor="start" x="613.62" y="-310.7" font-family="Times,serif" font-size="14.00"> </text>
<polygon fill="none" stroke="black" points="627.5,-303.75 627.5,-327 768.5,-327 768.5,-303.75 627.5,-303.75"/>
<text text-anchor="start" x="662" y="-310.7" font-family="Times,serif" font-size="14.00">service_fp</text>
</g>
<!-- n_port&#45;&gt;n_scan -->
<g id="edge10" class="edge">
<title>n_port:e&#45;&gt;n_scan:w</title>
<path fill="none" stroke="black" d="M769.5,-687.38C791.03,-687.38 782.88,-315.78 768.5,-299.75 720.31,-246.03 494.56,-316.91 445.75,-263.75 437.62,-254.9 431.96,-239.56 435.07,-231.04"/>
<polygon fill="black" stroke="black" points="436.92,-234.01 443.47,-225.69 433.16,-228.11 436.92,-234.01"/>
</g>
<!-- n_script -->
<g id="node8" class="node">
<title>n_script</title>
<polygon fill="none" stroke="black" points="535.88,-998.75 535.88,-1022 604.88,-1022 604.88,-998.75 535.88,-998.75"/>
<text text-anchor="start" x="538.88" y="-1006.7" font-family="Times,serif" font-weight="bold" font-size="14.00">n_script</text>
<polygon fill="none" stroke="black" points="535.88,-975.5 535.88,-998.75 549,-998.75 549,-975.5 535.88,-975.5"/>
<text text-anchor="start" x="540.19" y="-982.45" font-family="Times,serif" font-size="14.00"> </text>
<polygon fill="none" stroke="black" points="549,-975.5 549,-998.75 604.88,-998.75 604.88,-975.5 549,-975.5"/>
<text text-anchor="start" x="561.94" y="-982.45" font-family="Times,serif" font-size="14.00">port</text>
<polygon fill="none" stroke="black" points="535.88,-952.25 535.88,-975.5 549,-975.5 549,-952.25 535.88,-952.25"/>
<text text-anchor="start" x="540.19" y="-959.2" font-family="Times,serif" font-size="14.00"> </text>
<polygon fill="none" stroke="black" points="549,-952.25 549,-975.5 604.88,-975.5 604.88,-952.25 549,-952.25"/>
<text text-anchor="start" x="557.44" y="-959.2" font-family="Times,serif" font-size="14.00">name</text>
<polygon fill="none" stroke="black" points="535.88,-929 535.88,-952.25 549,-952.25 549,-929 535.88,-929"/>
<text text-anchor="start" x="540.19" y="-935.95" font-family="Times,serif" font-size="14.00"> </text>
<polygon fill="none" stroke="black" points="549,-929 549,-952.25 604.88,-952.25 604.88,-929 549,-929"/>
<text text-anchor="start" x="553.31" y="-935.95" font-family="Times,serif" font-size="14.00">output</text>
<polygon fill="none" stroke="black" points="535.88,-905.75 535.88,-929 549,-929 549,-905.75 535.88,-905.75"/>
<text text-anchor="start" x="540.19" y="-912.7" font-family="Times,serif" font-size="14.00"> </text>
<polygon fill="none" stroke="black" points="549,-905.75 549,-929 604.88,-929 604.88,-905.75 549,-905.75"/>
<text text-anchor="start" x="561.19" y="-912.7" font-family="Times,serif" font-size="14.00">data</text>
</g>
<!-- n_script&#45;&gt;n_port -->
<g id="edge11" class="edge">
<title>n_script:e&#45;&gt;n_port:w</title>
<path fill="none" stroke="black" d="M605.88,-987.12C633.3,-987.12 585.2,-766.84 596.4,-719.51"/>
<polygon fill="black" stroke="black" points="598.99,-721.88 602.33,-711.82 593.45,-717.6 598.99,-721.88"/>
</g>
<!-- n_tag -->
<g id="node9" class="node">
<title>n_tag</title>
<polygon fill="none" stroke="black" points="802.62,-571.12 802.62,-594.38 870.12,-594.38 870.12,-571.12 802.62,-571.12"/>
<text text-anchor="start" x="815" y="-579.08" font-family="Times,serif" font-weight="bold" font-size="14.00">n_tag</text>
<polygon fill="none" stroke="black" points="802.62,-547.88 802.62,-571.12 825.88,-571.12 825.88,-547.88 802.62,-547.88"/>
<text text-anchor="start" x="805.62" y="-554.83" font-family="Times,serif" font-size="14.00">🔑</text>
<polygon fill="none" stroke="black" points="825.88,-547.88 825.88,-571.12 870.12,-571.12 870.12,-547.88 825.88,-547.88"/>
<text text-anchor="start" x="841.25" y="-554.83" font-family="Times,serif" font-size="14.00">id</text>
<polygon fill="none" stroke="black" points="802.62,-524.62 802.62,-547.88 825.88,-547.88 825.88,-524.62 802.62,-524.62"/>
<text text-anchor="start" x="812" y="-531.58" font-family="Times,serif" font-size="14.00"> </text>
<polygon fill="none" stroke="black" points="825.88,-524.62 825.88,-547.88 870.12,-547.88 870.12,-524.62 825.88,-524.62"/>
<text text-anchor="start" x="831.88" y="-531.58" font-family="Times,serif" font-size="14.00">scan</text>
<polygon fill="none" stroke="black" points="802.62,-501.38 802.62,-524.62 825.88,-524.62 825.88,-501.38 802.62,-501.38"/>
<text text-anchor="start" x="812" y="-508.32" font-family="Times,serif" font-size="14.00"> </text>
<polygon fill="none" stroke="black" points="825.88,-501.38 825.88,-524.62 870.12,-524.62 870.12,-501.38 825.88,-501.38"/>
<text text-anchor="start" x="828.88" y="-508.32" font-family="Times,serif" font-size="14.00">value</text>
<polygon fill="none" stroke="black" points="802.62,-478.12 802.62,-501.38 825.88,-501.38 825.88,-478.12 802.62,-478.12"/>
<text text-anchor="start" x="812" y="-485.07" font-family="Times,serif" font-size="14.00"> </text>
<polygon fill="none" stroke="black" points="825.88,-478.12 825.88,-501.38 870.12,-501.38 870.12,-478.12 825.88,-478.12"/>
<text text-anchor="start" x="832.25" y="-485.07" font-family="Times,serif" font-size="14.00">type</text>
<polygon fill="none" stroke="black" points="802.62,-454.88 802.62,-478.12 825.88,-478.12 825.88,-454.88 802.62,-454.88"/>
<text text-anchor="start" x="812" y="-461.82" font-family="Times,serif" font-size="14.00"> </text>
<polygon fill="none" stroke="black" points="825.88,-454.88 825.88,-478.12 870.12,-478.12 870.12,-454.88 825.88,-454.88"/>
<text text-anchor="start" x="834.5" y="-461.82" font-family="Times,serif" font-size="14.00">info</text>
</g>
<!-- n_tag&#45;&gt;n_scan -->
<g id="edge1" class="edge">
<title>n_tag:e&#45;&gt;n_scan:w</title>
<path fill="none" stroke="black" d="M871.12,-536.25C915.32,-536.25 843.3,-337.92 785.38,-299.75 722,-257.99 497.23,-319.52 445.75,-263.75 437.6,-254.92 431.94,-239.57 435.06,-231.04"/>
<polygon fill="black" stroke="black" points="436.92,-234.01 443.47,-225.69 433.16,-228.11 436.92,-234.01"/>
</g>
<!-- n_trace&#45;&gt;n_scan -->
<g id="edge4" class="edge">
<title>n_trace:e&#45;&gt;n_scan:w</title>
<path fill="none" stroke="black" d="M571.25,-524.62C598.86,-524.62 578.09,-488.98 570.25,-462.5 554.75,-410.16 412.84,-254.97 434.16,-228.68"/>
<polygon fill="black" stroke="black" points="435.1,-232.06 443.33,-225.39 432.73,-225.47 435.1,-232.06"/>
</g>
<!-- passive -->
<g id="node11" class="node">
<title>passive</title>
<polygon fill="none" stroke="black" points="639.12,-1115 639.12,-1138.25 781.62,-1138.25 781.62,-1115 639.12,-1115"/>
<text text-anchor="start" x="681.5" y="-1122.95" font-family="Times,serif" font-weight="bold" font-size="14.00">passive</text>
<polygon fill="none" stroke="black" points="639.12,-1091.75 639.12,-1115 662.38,-1115 662.38,-1091.75 639.12,-1091.75"/>
<text text-anchor="start" x="642.12" y="-1098.7" font-family="Times,serif" font-size="14.00">🔑</text>
<polygon fill="none" stroke="black" points="662.38,-1091.75 662.38,-1115 781.62,-1115 781.62,-1091.75 662.38,-1091.75"/>
<text text-anchor="start" x="715.25" y="-1098.7" font-family="Times,serif" font-size="14.00">id</text>
<polygon fill="none" stroke="black" points="639.12,-1068.5 639.12,-1091.75 662.38,-1091.75 662.38,-1068.5 639.12,-1068.5"/>
<text text-anchor="start" x="648.5" y="-1075.45" font-family="Times,serif" font-size="14.00"> </text>
<polygon fill="none" stroke="black" points="662.38,-1068.5 662.38,-1091.75 781.62,-1091.75 781.62,-1068.5 662.38,-1068.5"/>
<text text-anchor="start" x="705.5" y="-1075.45" font-family="Times,serif" font-size="14.00">addr</text>
<polygon fill="none" stroke="black" points="639.12,-1045.25 639.12,-1068.5 662.38,-1068.5 662.38,-1045.25 639.12,-1045.25"/>
<text text-anchor="start" x="648.5" y="-1052.2" font-family="Times,serif" font-size="14.00"> </text>
<polygon fill="none" stroke="black" points="662.38,-1045.25 662.38,-1068.5 781.62,-1068.5 781.62,-1045.25 662.38,-1045.25"/>
<text text-anchor="start" x="698.38" y="-1052.2" font-family="Times,serif" font-size="14.00">sensor</text>
<polygon fill="none" stroke="black" points="639.12,-1022 639.12,-1045.25 662.38,-1045.25 662.38,-1022 639.12,-1022"/>
<text text-anchor="start" x="648.5" y="-1028.95" font-family="Times,serif" font-size="14.00"> </text>
<polygon fill="none" stroke="black" points="662.38,-1022 662.38,-1045.25 781.62,-1045.25 781.62,-1022 662.38,-1022"/>
<text text-anchor="start" x="702.12" y="-1028.95" font-family="Times,serif" font-size="14.00">count</text>
<polygon fill="none" stroke="black" points="639.12,-998.75 639.12,-1022 662.38,-1022 662.38,-998.75 639.12,-998.75"/>
<text text-anchor="start" x="648.5" y="-1005.7" font-family="Times,serif" font-size="14.00"> </text>
<polygon fill="none" stroke="black" points="662.38,-998.75 662.38,-1022 781.62,-1022 781.62,-998.75 662.38,-998.75"/>
<text text-anchor="start" x="690.88" y="-1005.7" font-family="Times,serif" font-size="14.00">firstseen</text>
<polygon fill="none" stroke="black" points="639.12,-975.5 639.12,-998.75 662.38,-998.75 662.38,-975.5 639.12,-975.5"/>
<text text-anchor="start" x="648.5" y="-982.45" font-family="Times,serif" font-size="14.00"> </text>
<polygon fill="none" stroke="black" points="662.38,-975.5 662.38,-998.75 781.62,-998.75 781.62,-975.5 662.38,-975.5"/>
<text text-anchor="start" x="692.38" y="-982.45" font-family="Times,serif" font-size="14.00">lastseen</text>
<polygon fill="none" stroke="black" points="639.12,-952.25 639.12,-975.5 662.38,-975.5 662.38,-952.25 639.12,-952.25"/>
<text text-anchor="start" x="648.5" y="-959.2" font-family="Times,serif" font-size="14.00"> </text>
<polygon fill="none" stroke="black" points="662.38,-952.25 662.38,-975.5 781.62,-975.5 781.62,-952.25 662.38,-952.25"/>
<text text-anchor="start" x="707" y="-959.2" font-family="Times,serif" font-size="14.00">port</text>
<polygon fill="none" stroke="black" points="639.12,-929 639.12,-952.25 662.38,-952.25 662.38,-929 639.12,-929"/>
<text text-anchor="start" x="648.5" y="-935.95" font-family="Times,serif" font-size="14.00"> </text>
<polygon fill="none" stroke="black" points="662.38,-929 662.38,-952.25 781.62,-952.25 781.62,-929 662.38,-929"/>
<text text-anchor="start" x="686.38" y="-935.95" font-family="Times,serif" font-size="14.00">recontype</text>
<polygon fill="none" stroke="black" points="639.12,-905.75 639.12,-929 662.38,-929 662.38,-905.75 639.12,-905.75"/>
<text text-anchor="start" x="648.5" y="-912.7" font-family="Times,serif" font-size="14.00"> </text>
<polygon fill="none" stroke="black" points="662.38,-905.75 662.38,-929 781.62,-929 781.62,-905.75 662.38,-905.75"/>
<text text-anchor="start" x="698.38" y="-912.7" font-family="Times,serif" font-size="14.00">source</text>
<polygon fill="none" stroke="black" points="639.12,-882.5 639.12,-905.75 662.38,-905.75 662.38,-882.5 639.12,-882.5"/>
<text text-anchor="start" x="648.5" y="-889.45" font-family="Times,serif" font-size="14.00"> </text>
<polygon fill="none" stroke="black" points="662.38,-882.5 662.38,-905.75 781.62,-905.75 781.62,-882.5 662.38,-882.5"/>
<text text-anchor="start" x="689.38" y="-889.45" font-family="Times,serif" font-size="14.00">targetval</text>
<polygon fill="none" stroke="black" points="639.12,-859.25 639.12,-882.5 662.38,-882.5 662.38,-859.25 639.12,-859.25"/>
<text text-anchor="start" x="648.5" y="-866.2" font-family="Times,serif" font-size="14.00"> </text>
<polygon fill="none" stroke="black" points="662.38,-859.25 662.38,-882.5 781.62,-882.5 781.62,-859.25 662.38,-859.25"/>
<text text-anchor="start" x="702.88" y="-866.2" font-family="Times,serif" font-size="14.00">value</text>
<polygon fill="none" stroke="black" points="639.12,-836 639.12,-859.25 662.38,-859.25 662.38,-836 639.12,-836"/>
<text text-anchor="start" x="648.5" y="-842.95" font-family="Times,serif" font-size="14.00"> </text>
<polygon fill="none" stroke="black" points="662.38,-836 662.38,-859.25 781.62,-859.25 781.62,-836 662.38,-836"/>
<text text-anchor="start" x="708.5" y="-842.95" font-family="Times,serif" font-size="14.00">info</text>
<polygon fill="none" stroke="black" points="639.12,-812.75 639.12,-836 662.38,-836 662.38,-812.75 639.12,-812.75"/>
<text text-anchor="start" x="648.5" y="-819.7" font-family="Times,serif" font-size="14.00"> </text>
<polygon fill="none" stroke="black" points="662.38,-812.75 662.38,-836 781.62,-836 781.62,-812.75 662.38,-812.75"/>
<text text-anchor="start" x="690.12" y="-819.7" font-family="Times,serif" font-size="14.00">moreinfo</text>
<polygon fill="none" stroke="black" points="639.12,-789.5 639.12,-812.75 662.38,-812.75 662.38,-789.5 639.12,-789.5"/>
<text text-anchor="start" x="648.5" y="-796.45" font-family="Times,serif" font-size="14.00"> </text>
<polygon fill="none" stroke="black" points="662.38,-789.5 662.38,-812.75 781.62,-812.75 781.62,-789.5 662.38,-789.5"/>
<text text-anchor="start" x="665.38" y="-796.45" font-family="Times,serif" font-size="14.00">schema_version</text>
</g>
</g>
</svg>
