<?xml version="1.0" encoding="UTF-8" standalone="no"?>
<!DOCTYPE svg PUBLIC "-//W3C//DTD SVG 1.1//EN"
 "http://www.w3.org/Graphics/SVG/1.1/DTD/svg11.dtd">
<!-- Generated by graphviz version 12.2.1 (0)
 -->
<!-- Title: Life Pages: 1 -->
<svg width="1276pt" height="700pt"
 viewBox="0.00 0.00 1276.28 699.58" xmlns="http://www.w3.org/2000/svg" xmlns:xlink="http://www.w3.org/1999/xlink">
<g id="graph0" class="graph" transform="scale(1 1) rotate(0) translate(4 695.58)">
<title>Life</title>
<polygon fill="white" stroke="none" points="-4,4 -4,-695.58 1272.28,-695.58 1272.28,4 -4,4"/>
<!-- Shame -->
<g id="node1" class="node">
<title>Shame</title>
<ellipse fill="none" stroke="black" cx="898.63" cy="-521.68" rx="67.53" ry="42.25"/>
<text text-anchor="middle" x="898.63" y="-534.26" font-family="Times,serif" font-size="14.00">Shame</text>
<text text-anchor="middle" x="898.63" y="-517.01" font-family="Times,serif" font-size="14.00">(Externally</text>
<text text-anchor="middle" x="898.63" y="-499.76" font-family="Times,serif" font-size="14.00">Imposed!)</text>
</g>
<!-- Aimlessness -->
<g id="node11" class="node">
<title>Aimlessness</title>
<ellipse fill="none" stroke="black" cx="1012.46" cy="-361.14" rx="72.78" ry="18"/>
<text text-anchor="middle" x="1012.46" y="-356.46" font-family="Times,serif" font-size="14.00">Aimlessness</text>
</g>
<!-- Shame&#45;&gt;Aimlessness -->
<g id="edge6" class="edge">
<title>Shame&#45;&gt;Aimlessness</title>
<path fill="none" stroke="black" d="M926.19,-482.82C946.96,-453.52 974.91,-414.1 993.3,-388.17"/>
<polygon fill="black" stroke="black" points="996.03,-390.36 998.96,-380.18 990.32,-386.31 996.03,-390.36"/>
</g>
<!-- Help -->
<g id="node2" class="node">
<title>Help</title>
<ellipse fill="none" stroke="black" cx="111.1" cy="-106.48" rx="35.18" ry="30.05"/>
<text text-anchor="middle" x="111.1" y="-110.43" font-family="Times,serif" font-size="14.00">No</text>
<text text-anchor="middle" x="111.1" y="-93.18" font-family="Times,serif" font-size="14.00">Help</text>
</g>
<!-- Friction -->
<g id="node17" class="node">
<title>Friction</title>
<ellipse fill="none" stroke="black" cx="50.68" cy="-272.67" rx="50.68" ry="18"/>
<text text-anchor="middle" x="50.68" y="-267.99" font-family="Times,serif" font-size="14.00">Friction</text>
</g>
<!-- Help&#45;&gt;Friction -->
<g id="edge17" class="edge">
<title>Help&#45;&gt;Friction</title>
<path fill="none" stroke="black" d="M100.58,-135.43C89.54,-165.77 72.31,-213.18 61.26,-243.58"/>
<polygon fill="black" stroke="black" points="57.99,-242.31 57.87,-252.91 64.57,-244.7 57.99,-242.31"/>
</g>
<!-- Support -->
<g id="node3" class="node">
<title>Support</title>
<ellipse fill="none" stroke="black" cx="169.61" cy="-216.68" rx="52.15" ry="30.05"/>
<text text-anchor="middle" x="169.61" y="-220.63" font-family="Times,serif" font-size="14.00">No</text>
<text text-anchor="middle" x="169.61" y="-203.38" font-family="Times,serif" font-size="14.00">Support</text>
</g>
<!-- Support&#45;&gt;Friction -->
<g id="edge18" class="edge">
<title>Support&#45;&gt;Friction</title>
<path fill="none" stroke="black" d="M129.01,-235.79C117.04,-241.43 103.94,-247.6 91.92,-253.25"/>
<polygon fill="black" stroke="black" points="90.64,-249.99 83.08,-257.42 93.62,-256.32 90.64,-249.99"/>
</g>
<!-- Options -->
<g id="node4" class="node">
<title>Options</title>
<ellipse fill="none" stroke="black" cx="148.32" cy="-428.92" rx="50.56" ry="30.05"/>
<text text-anchor="middle" x="148.32" y="-432.87" font-family="Times,serif" font-size="14.00">No</text>
<text text-anchor="middle" x="148.32" y="-415.62" font-family="Times,serif" font-size="14.00">Options</text>
</g>
<!-- Dread -->
<g id="node18" class="node">
<title>Dread</title>
<ellipse fill="none" stroke="black" cx="307.61" cy="-370.34" rx="41.74" ry="18"/>
<text text-anchor="middle" x="307.61" y="-365.67" font-family="Times,serif" font-size="14.00">Dread</text>
</g>
<!-- Options&#45;&gt;Dread -->
<g id="edge20" class="edge">
<title>Options&#45;&gt;Dread</title>
<path fill="none" stroke="black" d="M191.43,-413.07C214.15,-404.71 241.94,-394.49 264.65,-386.14"/>
<polygon fill="black" stroke="black" points="265.74,-389.47 273.92,-382.73 263.32,-382.9 265.74,-389.47"/>
</g>
<!-- SmallFailure -->
<g id="node19" class="node">
<title>SmallFailure</title>
<ellipse fill="none" stroke="black" cx="233.13" cy="-571.36" rx="74.88" ry="18"/>
<text text-anchor="middle" x="233.13" y="-566.69" font-family="Times,serif" font-size="14.00">SmallFailure</text>
</g>
<!-- Options&#45;&gt;SmallFailure -->
<g id="edge22" class="edge">
<title>Options&#45;&gt;SmallFailure</title>
<path fill="none" stroke="black" d="M165.28,-457.41C180.17,-482.41 201.7,-518.57 216.49,-543.42"/>
<polygon fill="black" stroke="black" points="213.48,-545.2 221.61,-552 219.5,-541.62 213.48,-545.2"/>
</g>
<!-- Compensation -->
<g id="node5" class="node">
<title>Compensation</title>
<ellipse fill="none" stroke="black" cx="1184.85" cy="-307.2" rx="83.44" ry="30.05"/>
<text text-anchor="middle" x="1184.85" y="-311.15" font-family="Times,serif" font-size="14.00">Over</text>
<text text-anchor="middle" x="1184.85" y="-293.9" font-family="Times,serif" font-size="14.00">Compensation</text>
</g>
<!-- Goals -->
<g id="node6" class="node">
<title>Goals</title>
<ellipse fill="none" stroke="black" cx="1157.52" cy="-164.14" rx="65.41" ry="30.05"/>
<text text-anchor="middle" x="1157.52" y="-168.09" font-family="Times,serif" font-size="14.00">Identify</text>
<text text-anchor="middle" x="1157.52" y="-150.84" font-family="Times,serif" font-size="14.00">New Goals</text>
</g>
<!-- Compensation&#45;&gt;Goals -->
<g id="edge8" class="edge">
<title>Compensation&#45;&gt;Goals</title>
<path fill="none" stroke="black" d="M1179.05,-276.86C1175.08,-256.09 1169.77,-228.3 1165.42,-205.5"/>
<polygon fill="black" stroke="black" points="1168.91,-205.09 1163.59,-195.93 1162.03,-206.4 1168.91,-205.09"/>
</g>
<!-- Learn -->
<g id="node12" class="node">
<title>Learn</title>
<ellipse fill="none" stroke="black" cx="995.03" cy="-171.68" rx="40.16" ry="18"/>
<text text-anchor="middle" x="995.03" y="-167.01" font-family="Times,serif" font-size="14.00">Learn</text>
</g>
<!-- Goals&#45;&gt;Learn -->
<g id="edge9" class="edge">
<title>Goals&#45;&gt;Learn</title>
<path fill="none" stroke="black" d="M1092.37,-167.17C1077.18,-167.87 1061.21,-168.61 1046.7,-169.29"/>
<polygon fill="black" stroke="black" points="1046.76,-165.78 1036.93,-169.74 1047.08,-172.77 1046.76,-165.78"/>
</g>
<!-- Failure -->
<g id="node7" class="node">
<title>Failure</title>
<ellipse fill="none" stroke="black" cx="781.83" cy="-661.52" rx="46.85" ry="30.05"/>
<text text-anchor="middle" x="781.83" y="-665.47" font-family="Times,serif" font-size="14.00">Large</text>
<text text-anchor="middle" x="781.83" y="-648.22" font-family="Times,serif" font-size="14.00">Failure</text>
</g>
<!-- Failure&#45;&gt;Shame -->
<g id="edge4" class="edge">
<title>Failure&#45;&gt;Shame</title>
<path fill="none" stroke="black" d="M804.08,-634.89C819.85,-616 841.43,-590.16 860,-567.94"/>
<polygon fill="black" stroke="black" points="862.51,-570.39 866.24,-560.47 857.14,-565.9 862.51,-570.39"/>
</g>
<!-- Procrastination -->
<g id="node8" class="node">
<title>Procrastination</title>
<ellipse fill="none" stroke="black" cx="412.64" cy="-537.94" rx="88.56" ry="18"/>
<text text-anchor="middle" x="412.64" y="-533.27" font-family="Times,serif" font-size="14.00">Procrastination</text>
</g>
<!-- Anxiety -->
<g id="node9" class="node">
<title>Anxiety</title>
<ellipse fill="none" stroke="black" cx="605.67" cy="-605.74" rx="49.1" ry="18"/>
<text text-anchor="middle" x="605.67" y="-601.07" font-family="Times,serif" font-size="14.00">Anxiety</text>
</g>
<!-- Procrastination&#45;&gt;Anxiety -->
<g id="edge1" class="edge">
<title>Procrastination&#45;&gt;Anxiety</title>
<path fill="none" stroke="black" d="M457.89,-553.84C488.26,-564.5 528.17,-578.52 558.86,-589.3"/>
<polygon fill="black" stroke="black" points="557.69,-592.6 568.28,-592.61 560.01,-585.99 557.69,-592.6"/>
</g>
<!-- Procrastination&#45;&gt;Dread -->
<g id="edge24" class="edge">
<title>Procrastination&#45;&gt;Dread</title>
<path fill="none" stroke="black" d="M401.2,-519.69C382.71,-490.19 346.18,-431.89 324.63,-397.5"/>
<polygon fill="black" stroke="black" points="327.8,-395.97 319.52,-389.35 321.87,-399.68 327.8,-395.97"/>
</g>
<!-- Anxiety&#45;&gt;Failure -->
<g id="edge2" class="edge">
<title>Anxiety&#45;&gt;Failure</title>
<path fill="none" stroke="black" d="M643.46,-617.71C668.36,-625.59 701.33,-636.03 728.83,-644.74"/>
<polygon fill="black" stroke="black" points="727.44,-647.97 738.03,-647.65 729.55,-641.3 727.44,-647.97"/>
</g>
<!-- Disruption -->
<g id="node10" class="node">
<title>Disruption</title>
<ellipse fill="none" stroke="black" cx="741.84" cy="-525.82" rx="64.36" ry="18"/>
<text text-anchor="middle" x="741.84" y="-521.15" font-family="Times,serif" font-size="14.00">Disruption</text>
</g>
<!-- Anxiety&#45;&gt;Disruption -->
<g id="edge3" class="edge">
<title>Anxiety&#45;&gt;Disruption</title>
<path fill="none" stroke="black" d="M632.25,-590.14C652.74,-578.11 681.35,-561.32 704.2,-547.91"/>
<polygon fill="black" stroke="black" points="705.76,-551.05 712.62,-542.97 702.22,-545.01 705.76,-551.05"/>
</g>
<!-- Disruption&#45;&gt;Shame -->
<g id="edge5" class="edge">
<title>Disruption&#45;&gt;Shame</title>
<path fill="none" stroke="black" d="M806.06,-524.13C810.5,-524.01 815.01,-523.89 819.51,-523.77"/>
<polygon fill="black" stroke="black" points="819.27,-527.28 829.17,-523.51 819.09,-520.28 819.27,-527.28"/>
</g>
<!-- Aimlessness&#45;&gt;Compensation -->
<g id="edge7" class="edge">
<title>Aimlessness&#45;&gt;Compensation</title>
<path fill="none" stroke="black" d="M1058.2,-346.83C1074.23,-341.81 1092.67,-336.04 1110.42,-330.49"/>
<polygon fill="black" stroke="black" points="1111.42,-333.84 1119.92,-327.52 1109.33,-327.16 1111.42,-333.84"/>
</g>
<!-- Learn&#45;&gt;Aimlessness -->
<g id="edge10" class="edge">
<title>Learn&#45;&gt;Aimlessness</title>
<path fill="none" stroke="black" d="M996.7,-189.85C999.71,-222.58 1006.08,-291.75 1009.73,-331.45"/>
<polygon fill="black" stroke="black" points="1006.23,-331.61 1010.63,-341.24 1013.2,-330.96 1006.23,-331.61"/>
</g>
<!-- Plan -->
<g id="node13" class="node">
<title>Plan</title>
<ellipse fill="none" stroke="black" cx="838.94" cy="-58.86" rx="33.32" ry="18"/>
<text text-anchor="middle" x="838.94" y="-54.19" font-family="Times,serif" font-size="14.00">Plan</text>
</g>
<!-- Learn&#45;&gt;Plan -->
<g id="edge11" class="edge">
<title>Learn&#45;&gt;Plan</title>
<path fill="none" stroke="black" d="M973.65,-156.23C946.38,-136.52 899.07,-102.33 868.4,-80.16"/>
<polygon fill="black" stroke="black" points="870.45,-77.32 860.29,-74.3 866.35,-83 870.45,-77.32"/>
</g>
<!-- Schedule -->
<g id="node14" class="node">
<title>Schedule</title>
<ellipse fill="none" stroke="black" cx="656.02" cy="-18" rx="57" ry="18"/>
<text text-anchor="middle" x="656.02" y="-13.32" font-family="Times,serif" font-size="14.00">Schedule</text>
</g>
<!-- Plan&#45;&gt;Schedule -->
<g id="edge12" class="edge">
<title>Plan&#45;&gt;Schedule</title>
<path fill="none" stroke="black" d="M807.91,-51.93C782.31,-46.21 745.27,-37.94 714.18,-30.99"/>
<polygon fill="black" stroke="black" points="715.03,-27.6 704.51,-28.83 713.5,-34.43 715.03,-27.6"/>
</g>
<!-- BarterForTime -->
<g id="node15" class="node">
<title>BarterForTime</title>
<ellipse fill="none" stroke="black" cx="468.79" cy="-56.41" rx="85.41" ry="18"/>
<text text-anchor="middle" x="468.79" y="-51.74" font-family="Times,serif" font-size="14.00">BarterForTime</text>
</g>
<!-- Schedule&#45;&gt;BarterForTime -->
<g id="edge13" class="edge">
<title>Schedule&#45;&gt;BarterForTime</title>
<path fill="none" stroke="black" d="M607.8,-27.89C587.78,-32 564.1,-36.86 542.02,-41.39"/>
<polygon fill="black" stroke="black" points="541.56,-37.91 532.47,-43.35 542.97,-44.77 541.56,-37.91"/>
</g>
<!-- Poverty -->
<g id="node16" class="node">
<title>Poverty</title>
<ellipse fill="none" stroke="black" cx="295.23" cy="-163.57" rx="49.63" ry="18"/>
<text text-anchor="middle" x="295.23" y="-158.9" font-family="Times,serif" font-size="14.00">Poverty</text>
</g>
<!-- BarterForTime&#45;&gt;Poverty -->
<g id="edge14" class="edge">
<title>BarterForTime&#45;&gt;Poverty</title>
<path fill="none" stroke="black" d="M440.52,-73.87C410.49,-92.41 362.96,-121.76 330.5,-141.8"/>
<polygon fill="black" stroke="black" points="328.9,-138.67 322.23,-146.9 332.58,-144.63 328.9,-138.67"/>
</g>
<!-- Poverty&#45;&gt;Help -->
<g id="edge15" class="edge">
<title>Poverty&#45;&gt;Help</title>
<path fill="none" stroke="black" d="M257.08,-151.74C227.53,-142.58 186.53,-129.87 155.51,-120.25"/>
<polygon fill="black" stroke="black" points="156.6,-116.92 146.01,-117.31 154.53,-123.61 156.6,-116.92"/>
</g>
<!-- Poverty&#45;&gt;Support -->
<g id="edge16" class="edge">
<title>Poverty&#45;&gt;Support</title>
<path fill="none" stroke="black" d="M262.55,-177.39C250.27,-182.58 235.98,-188.62 222.33,-194.39"/>
<polygon fill="black" stroke="black" points="221.31,-191.02 213.46,-198.14 224.04,-197.47 221.31,-191.02"/>
</g>
<!-- Friction&#45;&gt;Options -->
<g id="edge19" class="edge">
<title>Friction&#45;&gt;Options</title>
<path fill="none" stroke="black" d="M61.88,-290.59C77.09,-314.93 104.65,-359.04 124.57,-390.92"/>
<polygon fill="black" stroke="black" points="121.42,-392.48 129.69,-399.1 127.35,-388.77 121.42,-392.48"/>
</g>
<!-- Dread&#45;&gt;Poverty -->
<g id="edge21" class="edge">
<title>Dread&#45;&gt;Poverty</title>
<path fill="none" stroke="black" d="M306.51,-351.99C304.37,-316.2 299.61,-236.79 297.02,-193.36"/>
<polygon fill="black" stroke="black" points="300.51,-193.16 296.42,-183.39 293.52,-193.58 300.51,-193.16"/>
</g>
<!-- SmallFailure&#45;&gt;Procrastination -->
<g id="edge23" class="edge">
<title>SmallFailure&#45;&gt;Procrastination</title>
<path fill="none" stroke="black" d="M292.91,-560.23C306.42,-557.72 320.97,-555.01 335.1,-552.38"/>
<polygon fill="black" stroke="black" points="335.64,-555.84 344.83,-550.57 334.36,-548.96 335.64,-555.84"/>
</g>
</g>
</svg>
