<?xml version="1.0" encoding="UTF-8" standalone="no"?>
<!DOCTYPE svg PUBLIC "-//W3C//DTD SVG 1.1//EN"
 "http://www.w3.org/Graphics/SVG/1.1/DTD/svg11.dtd">
<!-- Generated by graphviz version 7.0.1 (20221109.1506)
 -->
<!-- Title:  UML class diagram Pages: 1 -->
<svg width="796pt" height="79pt"
 viewBox="0.00 0.00 795.50 79.00" xmlns="http://www.w3.org/2000/svg" xmlns:xlink="http://www.w3.org/1999/xlink">
<g id="graph0" class="graph" transform="scale(1 1) rotate(0) translate(4 75)">
<title> UML class diagram</title>
<polygon fill="white" fill-opacity="0" stroke="none" points="-4,4 -4,-75 791.5,-75 791.5,4 -4,4"/>
<!-- ArmFeedforward -->
<g id="node1" class="node">
<title>ArmFeedforward</title>
<polygon fill="#f2f2f2" stroke="black" points="0,-0.5 0,-70.5 113,-70.5 113,-0.5 0,-0.5"/>
<text text-anchor="middle" x="56.5" y="-60.1" font-family="Bitstream Vera Sans" font-size="8.00">ArmFeedforward</text>
<polyline fill="none" stroke="black" points="0,-53.5 113,-53.5"/>
<text text-anchor="middle" x="56.5" y="-43.1" font-family="Bitstream Vera Sans" font-size="8.00">+ ks:double</text>
<text text-anchor="middle" x="56.5" y="-34.1" font-family="Bitstream Vera Sans" font-size="8.00">+ kg:double</text>
<text text-anchor="middle" x="56.5" y="-25.1" font-family="Bitstream Vera Sans" font-size="8.00">+ kv:double</text>
<text text-anchor="middle" x="56.5" y="-16.1" font-family="Bitstream Vera Sans" font-size="8.00">+ ka:double</text>
<text text-anchor="middle" x="56.5" y="-7.1" font-family="Bitstream Vera Sans" font-size="8.00">+ dt:double</text>
</g>
<!-- DifferentialDriveFeedforward -->
<g id="node2" class="node">
<title>DifferentialDriveFeedforward</title>
<polygon fill="#f2f2f2" stroke="black" points="131.5,-5 131.5,-66 291.5,-66 291.5,-5 131.5,-5"/>
<text text-anchor="middle" x="211.5" y="-55.6" font-family="Bitstream Vera Sans" font-size="8.00">DifferentialDriveFeedforward</text>
<polyline fill="none" stroke="black" points="131.5,-49 291.5,-49"/>
<text text-anchor="middle" x="211.5" y="-38.6" font-family="Bitstream Vera Sans" font-size="8.00">+ kv_linear:double</text>
<text text-anchor="middle" x="211.5" y="-29.6" font-family="Bitstream Vera Sans" font-size="8.00">+ ka_linear:double</text>
<text text-anchor="middle" x="211.5" y="-20.6" font-family="Bitstream Vera Sans" font-size="8.00">+ kv_angular:double</text>
<text text-anchor="middle" x="211.5" y="-11.6" font-family="Bitstream Vera Sans" font-size="8.00">+ ka_angular:double</text>
</g>
<!-- ElevatorFeedforward -->
<g id="node3" class="node">
<title>ElevatorFeedforward</title>
<polygon fill="#f2f2f2" stroke="black" points="309.5,-0.5 309.5,-70.5 437.5,-70.5 437.5,-0.5 309.5,-0.5"/>
<text text-anchor="middle" x="373.5" y="-60.1" font-family="Bitstream Vera Sans" font-size="8.00">ElevatorFeedforward</text>
<polyline fill="none" stroke="black" points="309.5,-53.5 437.5,-53.5"/>
<text text-anchor="middle" x="373.5" y="-43.1" font-family="Bitstream Vera Sans" font-size="8.00">+ ks:double</text>
<text text-anchor="middle" x="373.5" y="-34.1" font-family="Bitstream Vera Sans" font-size="8.00">+ kg:double</text>
<text text-anchor="middle" x="373.5" y="-25.1" font-family="Bitstream Vera Sans" font-size="8.00">+ kv:double</text>
<text text-anchor="middle" x="373.5" y="-16.1" font-family="Bitstream Vera Sans" font-size="8.00">+ ka:double</text>
<text text-anchor="middle" x="373.5" y="-7.1" font-family="Bitstream Vera Sans" font-size="8.00">+ dt:double</text>
</g>
<!-- SimpleMotorFeedforward -->
<g id="node4" class="node">
<title>SimpleMotorFeedforward</title>
<polygon fill="#f2f2f2" stroke="black" points="455.5,-5 455.5,-66 601.5,-66 601.5,-5 455.5,-5"/>
<text text-anchor="middle" x="528.5" y="-55.6" font-family="Bitstream Vera Sans" font-size="8.00">SimpleMotorFeedforward</text>
<polyline fill="none" stroke="black" points="455.5,-49 601.5,-49"/>
<text text-anchor="middle" x="528.5" y="-38.6" font-family="Bitstream Vera Sans" font-size="8.00">+ ks:double</text>
<text text-anchor="middle" x="528.5" y="-29.6" font-family="Bitstream Vera Sans" font-size="8.00">+ kv:double</text>
<text text-anchor="middle" x="528.5" y="-20.6" font-family="Bitstream Vera Sans" font-size="8.00">+ ka:double</text>
<text text-anchor="middle" x="528.5" y="-11.6" font-family="Bitstream Vera Sans" font-size="8.00">+ dt:double</text>
</g>
<!-- DifferentialDriveWheelVoltages -->
<g id="node5" class="node">
<title>DifferentialDriveWheelVoltages</title>
<polygon fill="#f2f2f2" stroke="black" points="619.5,-14 619.5,-57 787.5,-57 787.5,-14 619.5,-14"/>
<text text-anchor="middle" x="703.5" y="-46.6" font-family="Bitstream Vera Sans" font-size="8.00">DifferentialDriveWheelVoltages</text>
<polyline fill="none" stroke="black" points="619.5,-40 787.5,-40"/>
<text text-anchor="middle" x="703.5" y="-29.6" font-family="Bitstream Vera Sans" font-size="8.00">+ left:double</text>
<text text-anchor="middle" x="703.5" y="-20.6" font-family="Bitstream Vera Sans" font-size="8.00">+ right:double</text>
</g>
</g>
</svg>
