<?xml version="1.0" encoding="UTF-8" standalone="no"?>
<!DOCTYPE svg PUBLIC "-//W3C//DTD SVG 1.1//EN"
 "http://www.w3.org/Graphics/SVG/1.1/DTD/svg11.dtd">
<!-- Generated by graphviz version 7.0.1 (20221109.1506)
 -->
<!-- Title:  UML class diagram Pages: 1 -->
<svg width="428pt" height="275pt"
 viewBox="0.00 0.00 427.50 275.00" xmlns="http://www.w3.org/2000/svg" xmlns:xlink="http://www.w3.org/1999/xlink">
<g id="graph0" class="graph" transform="scale(1 1) rotate(0) translate(4 271)">
<title> UML class diagram</title>
<polygon fill="white" fill-opacity="0" stroke="none" points="-4,4 -4,-271 423.5,-271 423.5,4 -4,4"/>
<!-- Translation3d -->
<g id="node1" class="node">
<title>Translation3d</title>
<polygon fill="#f2f2f2" stroke="black" points="49.5,-98.5 49.5,-150.5 150.5,-150.5 150.5,-98.5 49.5,-98.5"/>
<text text-anchor="middle" x="100" y="-140.1" font-family="Bitstream Vera Sans" font-size="8.00">Translation3d</text>
<polyline fill="none" stroke="black" points="49.5,-133.5 150.5,-133.5"/>
<text text-anchor="middle" x="100" y="-123.1" font-family="Bitstream Vera Sans" font-size="8.00">+ x:double</text>
<text text-anchor="middle" x="100" y="-114.1" font-family="Bitstream Vera Sans" font-size="8.00">+ y:double</text>
<text text-anchor="middle" x="100" y="-105.1" font-family="Bitstream Vera Sans" font-size="8.00">+ z:double</text>
</g>
<!-- Quaternion -->
<g id="node2" class="node">
<title>Quaternion</title>
<polygon fill="#f2f2f2" stroke="black" points="187.5,-0.5 187.5,-61.5 280.5,-61.5 280.5,-0.5 187.5,-0.5"/>
<text text-anchor="middle" x="234" y="-51.1" font-family="Bitstream Vera Sans" font-size="8.00">Quaternion</text>
<polyline fill="none" stroke="black" points="187.5,-44.5 280.5,-44.5"/>
<text text-anchor="middle" x="234" y="-34.1" font-family="Bitstream Vera Sans" font-size="8.00">+ w:double</text>
<text text-anchor="middle" x="234" y="-25.1" font-family="Bitstream Vera Sans" font-size="8.00">+ x:double</text>
<text text-anchor="middle" x="234" y="-16.1" font-family="Bitstream Vera Sans" font-size="8.00">+ y:double</text>
<text text-anchor="middle" x="234" y="-7.1" font-family="Bitstream Vera Sans" font-size="8.00">+ z:double</text>
</g>
<!-- Rotation3d -->
<g id="node3" class="node">
<title>Rotation3d</title>
<polygon fill="#f2f2f2" stroke="black" points="180.5,-106.5 180.5,-142.5 287.5,-142.5 287.5,-106.5 180.5,-106.5"/>
<text text-anchor="middle" x="234" y="-131.6" font-family="Bitstream Vera Sans" font-size="8.00">Rotation3d</text>
<polyline fill="none" stroke="black" points="180.5,-124.5 287.5,-124.5"/>
<text text-anchor="middle" x="234" y="-113.6" font-family="Bitstream Vera Sans" font-size="8.00">+ q:Quaternion</text>
</g>
<!-- Rotation3d&#45;&gt;Quaternion -->
<g id="edge1" class="edge">
<title>Rotation3d&#45;&gt;Quaternion</title>
<path fill="none" stroke="black" d="M234,-106.72C234,-94.03 234,-76.28 234,-61.27"/>
<text text-anchor="middle" x="231.5" y="-63.87" font-family="Bitstream Vera Sans" font-size="8.00">1</text>
<text text-anchor="middle" x="231.5" y="-100.32" font-family="Bitstream Vera Sans" font-size="8.00">1</text>
</g>
<!-- Pose3d -->
<g id="node4" class="node">
<title>Pose3d</title>
<polygon fill="#f2f2f2" stroke="black" points="0,-205.5 0,-248.5 152,-248.5 152,-205.5 0,-205.5"/>
<text text-anchor="middle" x="76" y="-238.1" font-family="Bitstream Vera Sans" font-size="8.00">Pose3d</text>
<polyline fill="none" stroke="black" points="0,-231.5 152,-231.5"/>
<text text-anchor="middle" x="76" y="-221.1" font-family="Bitstream Vera Sans" font-size="8.00">+ translation:Translation3d</text>
<text text-anchor="middle" x="76" y="-212.1" font-family="Bitstream Vera Sans" font-size="8.00">+ rotation:Rotation3d</text>
</g>
<!-- Pose3d&#45;&gt;Translation3d -->
<g id="edge2" class="edge">
<title>Pose3d&#45;&gt;Translation3d</title>
<path fill="none" stroke="black" d="M80.86,-205.66C84.66,-189.72 89.98,-167.45 94.05,-150.44"/>
<text text-anchor="middle" x="91.55" y="-153.04" font-family="Bitstream Vera Sans" font-size="8.00">1</text>
<text text-anchor="middle" x="78.36" y="-199.26" font-family="Bitstream Vera Sans" font-size="8.00">1</text>
</g>
<!-- Pose3d&#45;&gt;Rotation3d -->
<g id="edge3" class="edge">
<title>Pose3d&#45;&gt;Rotation3d</title>
<path fill="none" stroke="black" d="M107.97,-205.66C137.19,-187.08 179.9,-159.91 207.32,-142.47"/>
<text text-anchor="middle" x="204.82" y="-145.07" font-family="Bitstream Vera Sans" font-size="8.00">1</text>
<text text-anchor="middle" x="105.47" y="-199.26" font-family="Bitstream Vera Sans" font-size="8.00">1</text>
</g>
<!-- Transform3d -->
<g id="node5" class="node">
<title>Transform3d</title>
<polygon fill="#f2f2f2" stroke="black" points="170,-205.5 170,-248.5 322,-248.5 322,-205.5 170,-205.5"/>
<text text-anchor="middle" x="246" y="-238.1" font-family="Bitstream Vera Sans" font-size="8.00">Transform3d</text>
<polyline fill="none" stroke="black" points="170,-231.5 322,-231.5"/>
<text text-anchor="middle" x="246" y="-221.1" font-family="Bitstream Vera Sans" font-size="8.00">+ translation:Translation3d</text>
<text text-anchor="middle" x="246" y="-212.1" font-family="Bitstream Vera Sans" font-size="8.00">+ rotation:Rotation3d</text>
</g>
<!-- Transform3d&#45;&gt;Translation3d -->
<g id="edge4" class="edge">
<title>Transform3d&#45;&gt;Translation3d</title>
<path fill="none" stroke="black" d="M216.45,-205.66C193.29,-189.72 160.95,-167.45 136.22,-150.44"/>
<text text-anchor="middle" x="133.72" y="-153.04" font-family="Bitstream Vera Sans" font-size="8.00">1</text>
<text text-anchor="middle" x="213.95" y="-199.26" font-family="Bitstream Vera Sans" font-size="8.00">1</text>
</g>
<!-- Transform3d&#45;&gt;Rotation3d -->
<g id="edge5" class="edge">
<title>Transform3d&#45;&gt;Rotation3d</title>
<path fill="none" stroke="black" d="M243.57,-205.66C241.35,-187.08 238.11,-159.91 236.03,-142.47"/>
<text text-anchor="middle" x="233.53" y="-145.07" font-family="Bitstream Vera Sans" font-size="8.00">1</text>
<text text-anchor="middle" x="241.07" y="-199.26" font-family="Bitstream Vera Sans" font-size="8.00">1</text>
</g>
<!-- Twist3d -->
<g id="node6" class="node">
<title>Twist3d</title>
<polygon fill="#f2f2f2" stroke="black" points="340.5,-187.5 340.5,-266.5 419.5,-266.5 419.5,-187.5 340.5,-187.5"/>
<text text-anchor="middle" x="380" y="-256.1" font-family="Bitstream Vera Sans" font-size="8.00">Twist3d</text>
<polyline fill="none" stroke="black" points="340.5,-249.5 419.5,-249.5"/>
<text text-anchor="middle" x="380" y="-239.1" font-family="Bitstream Vera Sans" font-size="8.00">+ dx:double</text>
<text text-anchor="middle" x="380" y="-230.1" font-family="Bitstream Vera Sans" font-size="8.00">+ dy:double</text>
<text text-anchor="middle" x="380" y="-221.1" font-family="Bitstream Vera Sans" font-size="8.00">+ dz:double</text>
<text text-anchor="middle" x="380" y="-212.1" font-family="Bitstream Vera Sans" font-size="8.00">+ rx:double</text>
<text text-anchor="middle" x="380" y="-203.1" font-family="Bitstream Vera Sans" font-size="8.00">+ ry:double</text>
<text text-anchor="middle" x="380" y="-194.1" font-family="Bitstream Vera Sans" font-size="8.00">+ rz:double</text>
</g>
</g>
</svg>
