<?xml version="1.0" encoding="UTF-8" standalone="no"?>
<!DOCTYPE svg PUBLIC "-//W3C//DTD SVG 1.1//EN"
 "http://www.w3.org/Graphics/SVG/1.1/DTD/svg11.dtd">
<!-- Generated by graphviz version 7.0.1 (20221109.1506)
 -->
<!-- Title:  UML class diagram Pages: 1 -->
<svg width="373pt" height="221pt"
 viewBox="0.00 0.00 373.00 221.00" xmlns="http://www.w3.org/2000/svg" xmlns:xlink="http://www.w3.org/1999/xlink">
<g id="graph0" class="graph" transform="scale(1 1) rotate(0) translate(4 217)">
<title> UML class diagram</title>
<polygon fill="white" fill-opacity="0" stroke="none" points="-4,4 -4,-217 369,-217 369,4 -4,4"/>
<!-- Translation2d -->
<g id="node1" class="node">
<title>Translation2d</title>
<polygon fill="#f2f2f2" stroke="black" points="95.5,-0.5 95.5,-43.5 196.5,-43.5 196.5,-0.5 95.5,-0.5"/>
<text text-anchor="middle" x="146" y="-33.1" font-family="Bitstream Vera Sans" font-size="8.00">Translation2d</text>
<polyline fill="none" stroke="black" points="95.5,-26.5 196.5,-26.5"/>
<text text-anchor="middle" x="146" y="-16.1" font-family="Bitstream Vera Sans" font-size="8.00">+ x:double</text>
<text text-anchor="middle" x="146" y="-7.1" font-family="Bitstream Vera Sans" font-size="8.00">+ y:double</text>
</g>
<!-- Rotation2d -->
<g id="node2" class="node">
<title>Rotation2d</title>
<polygon fill="#f2f2f2" stroke="black" points="229,-4 229,-40 321,-40 321,-4 229,-4"/>
<text text-anchor="middle" x="275" y="-29.1" font-family="Bitstream Vera Sans" font-size="8.00">Rotation2d</text>
<polyline fill="none" stroke="black" points="229,-22 321,-22"/>
<text text-anchor="middle" x="275" y="-11.1" font-family="Bitstream Vera Sans" font-size="8.00">+ value:double</text>
</g>
<!-- Pose2d -->
<g id="node3" class="node">
<title>Pose2d</title>
<polygon fill="#f2f2f2" stroke="black" points="43,-80.5 43,-123.5 195,-123.5 195,-80.5 43,-80.5"/>
<text text-anchor="middle" x="119" y="-113.1" font-family="Bitstream Vera Sans" font-size="8.00">Pose2d</text>
<polyline fill="none" stroke="black" points="43,-106.5 195,-106.5"/>
<text text-anchor="middle" x="119" y="-96.1" font-family="Bitstream Vera Sans" font-size="8.00">+ translation:Translation2d</text>
<text text-anchor="middle" x="119" y="-87.1" font-family="Bitstream Vera Sans" font-size="8.00">+ rotation:Rotation2d</text>
</g>
<!-- Pose2d&#45;&gt;Translation2d -->
<g id="edge1" class="edge">
<title>Pose2d&#45;&gt;Translation2d</title>
<path fill="none" stroke="black" d="M126.09,-80.51C130.06,-69.04 134.99,-54.8 138.95,-43.36"/>
<text text-anchor="middle" x="136.45" y="-45.96" font-family="Bitstream Vera Sans" font-size="8.00">1</text>
<text text-anchor="middle" x="123.59" y="-74.11" font-family="Bitstream Vera Sans" font-size="8.00">1</text>
</g>
<!-- Pose2d&#45;&gt;Rotation2d -->
<g id="edge2" class="edge">
<title>Pose2d&#45;&gt;Rotation2d</title>
<path fill="none" stroke="black" d="M159.99,-80.51C185.26,-67.87 217.29,-51.85 241.13,-39.94"/>
<text text-anchor="middle" x="238.63" y="-42.54" font-family="Bitstream Vera Sans" font-size="8.00">1</text>
<text text-anchor="middle" x="157.49" y="-74.11" font-family="Bitstream Vera Sans" font-size="8.00">1</text>
</g>
<!-- Transform2d -->
<g id="node4" class="node">
<title>Transform2d</title>
<polygon fill="#f2f2f2" stroke="black" points="213,-80.5 213,-123.5 365,-123.5 365,-80.5 213,-80.5"/>
<text text-anchor="middle" x="289" y="-113.1" font-family="Bitstream Vera Sans" font-size="8.00">Transform2d</text>
<polyline fill="none" stroke="black" points="213,-106.5 365,-106.5"/>
<text text-anchor="middle" x="289" y="-96.1" font-family="Bitstream Vera Sans" font-size="8.00">+ translation:Translation2d</text>
<text text-anchor="middle" x="289" y="-87.1" font-family="Bitstream Vera Sans" font-size="8.00">+ rotation:Rotation2d</text>
</g>
<!-- Transform2d&#45;&gt;Translation2d -->
<g id="edge3" class="edge">
<title>Transform2d&#45;&gt;Translation2d</title>
<path fill="none" stroke="black" d="M251.43,-80.51C230.41,-69.04 204.3,-54.8 183.32,-43.36"/>
<text text-anchor="middle" x="180.82" y="-45.96" font-family="Bitstream Vera Sans" font-size="8.00">1</text>
<text text-anchor="middle" x="248.93" y="-74.11" font-family="Bitstream Vera Sans" font-size="8.00">1</text>
</g>
<!-- Transform2d&#45;&gt;Rotation2d -->
<g id="edge4" class="edge">
<title>Transform2d&#45;&gt;Rotation2d</title>
<path fill="none" stroke="black" d="M285.32,-80.51C283.05,-67.87 280.18,-51.85 278.04,-39.94"/>
<text text-anchor="middle" x="275.54" y="-42.54" font-family="Bitstream Vera Sans" font-size="8.00">1</text>
<text text-anchor="middle" x="282.82" y="-74.11" font-family="Bitstream Vera Sans" font-size="8.00">1</text>
</g>
<!-- Twist2d -->
<g id="node5" class="node">
<title>Twist2d</title>
<polygon fill="#f2f2f2" stroke="black" points="256.5,-160.5 256.5,-212.5 335.5,-212.5 335.5,-160.5 256.5,-160.5"/>
<text text-anchor="middle" x="296" y="-202.1" font-family="Bitstream Vera Sans" font-size="8.00">Twist2d</text>
<polyline fill="none" stroke="black" points="256.5,-195.5 335.5,-195.5"/>
<text text-anchor="middle" x="296" y="-185.1" font-family="Bitstream Vera Sans" font-size="8.00">+ dx:double</text>
<text text-anchor="middle" x="296" y="-176.1" font-family="Bitstream Vera Sans" font-size="8.00">+ dy:double</text>
<text text-anchor="middle" x="296" y="-167.1" font-family="Bitstream Vera Sans" font-size="8.00">+ dtheta:double</text>
</g>
<!-- Rectangle2d -->
<g id="node6" class="node">
<title>Rectangle2d</title>
<polygon fill="#f2f2f2" stroke="black" points="0,-160.5 0,-212.5 110,-212.5 110,-160.5 0,-160.5"/>
<text text-anchor="middle" x="55" y="-202.1" font-family="Bitstream Vera Sans" font-size="8.00">Rectangle2d</text>
<polyline fill="none" stroke="black" points="0,-195.5 110,-195.5"/>
<text text-anchor="middle" x="55" y="-185.1" font-family="Bitstream Vera Sans" font-size="8.00">+ center:Pose2d</text>
<text text-anchor="middle" x="55" y="-176.1" font-family="Bitstream Vera Sans" font-size="8.00">+ xWidth:double</text>
<text text-anchor="middle" x="55" y="-167.1" font-family="Bitstream Vera Sans" font-size="8.00">+ yWidth:double</text>
</g>
<!-- Rectangle2d&#45;&gt;Pose2d -->
<g id="edge5" class="edge">
<title>Rectangle2d&#45;&gt;Pose2d</title>
<path fill="none" stroke="black" d="M74.2,-160.75C83.48,-148.79 94.48,-134.61 103.25,-123.3"/>
<text text-anchor="middle" x="100.75" y="-125.9" font-family="Bitstream Vera Sans" font-size="8.00">1</text>
<text text-anchor="middle" x="71.7" y="-154.35" font-family="Bitstream Vera Sans" font-size="8.00">1</text>
</g>
<!-- Ellipse2d -->
<g id="node7" class="node">
<title>Ellipse2d</title>
<polygon fill="#f2f2f2" stroke="black" points="128,-160.5 128,-212.5 238,-212.5 238,-160.5 128,-160.5"/>
<text text-anchor="middle" x="183" y="-202.1" font-family="Bitstream Vera Sans" font-size="8.00">Ellipse2d</text>
<polyline fill="none" stroke="black" points="128,-195.5 238,-195.5"/>
<text text-anchor="middle" x="183" y="-185.1" font-family="Bitstream Vera Sans" font-size="8.00">+ center:Pose2d</text>
<text text-anchor="middle" x="183" y="-176.1" font-family="Bitstream Vera Sans" font-size="8.00">+ xSemiAxis:double</text>
<text text-anchor="middle" x="183" y="-167.1" font-family="Bitstream Vera Sans" font-size="8.00">+ ySemiAxis:double</text>
</g>
<!-- Ellipse2d&#45;&gt;Pose2d -->
<g id="edge6" class="edge">
<title>Ellipse2d&#45;&gt;Pose2d</title>
<path fill="none" stroke="black" d="M163.8,-160.75C154.52,-148.79 143.52,-134.61 134.75,-123.3"/>
<text text-anchor="middle" x="132.25" y="-125.9" font-family="Bitstream Vera Sans" font-size="8.00">1</text>
<text text-anchor="middle" x="161.3" y="-154.35" font-family="Bitstream Vera Sans" font-size="8.00">1</text>
</g>
</g>
</svg>
