<?xml version="1.0" encoding="UTF-8" standalone="no"?>
<!DOCTYPE svg PUBLIC "-//W3C//DTD SVG 1.1//EN"
 "http://www.w3.org/Graphics/SVG/1.1/DTD/svg11.dtd">
<!-- Generated by graphviz version 7.0.1 (20221109.1506)
 -->
<!-- Title:  UML class diagram Pages: 1 -->
<svg width="1483pt" height="216pt"
 viewBox="0.00 0.00 1482.50 216.00" xmlns="http://www.w3.org/2000/svg" xmlns:xlink="http://www.w3.org/1999/xlink">
<g id="graph0" class="graph" transform="scale(1 1) rotate(0) translate(4 212)">
<title> UML class diagram</title>
<polygon fill="white" stroke="none" points="-4,4 -4,-212 1478.5,-212 1478.5,4 -4,4"/>
<!-- ChassisSpeeds -->
<g id="node1" class="node">
<title>ChassisSpeeds</title>
<polygon fill="#f2f2f2" stroke="black" points="0,-151 0,-203 106,-203 106,-151 0,-151"/>
<text text-anchor="middle" x="53" y="-192.6" font-family="Bitstream Vera Sans" font-size="8.00">ChassisSpeeds</text>
<polyline fill="none" stroke="black" points="0,-186 106,-186"/>
<text text-anchor="middle" x="53" y="-175.6" font-family="Bitstream Vera Sans" font-size="8.00">+ vx:double</text>
<text text-anchor="middle" x="53" y="-166.6" font-family="Bitstream Vera Sans" font-size="8.00">+ vy:double</text>
<text text-anchor="middle" x="53" y="-157.6" font-family="Bitstream Vera Sans" font-size="8.00">+ omega:double</text>
</g>
<!-- DifferentialDriveKinematics -->
<g id="node2" class="node">
<title>DifferentialDriveKinematics</title>
<polygon fill="#f2f2f2" stroke="black" points="124,-159 124,-195 278,-195 278,-159 124,-159"/>
<text text-anchor="middle" x="201" y="-184.1" font-family="Bitstream Vera Sans" font-size="8.00">DifferentialDriveKinematics</text>
<polyline fill="none" stroke="black" points="124,-177 278,-177"/>
<text text-anchor="middle" x="201" y="-166.1" font-family="Bitstream Vera Sans" font-size="8.00">+ track_width:double</text>
</g>
<!-- DifferentialDriveWheelSpeeds -->
<g id="node3" class="node">
<title>DifferentialDriveWheelSpeeds</title>
<polygon fill="#f2f2f2" stroke="black" points="296,-155.5 296,-198.5 460,-198.5 460,-155.5 296,-155.5"/>
<text text-anchor="middle" x="378" y="-188.1" font-family="Bitstream Vera Sans" font-size="8.00">DifferentialDriveWheelSpeeds</text>
<polyline fill="none" stroke="black" points="296,-181.5 460,-181.5"/>
<text text-anchor="middle" x="378" y="-171.1" font-family="Bitstream Vera Sans" font-size="8.00">+ left:double</text>
<text text-anchor="middle" x="378" y="-162.1" font-family="Bitstream Vera Sans" font-size="8.00">+ right:double</text>
</g>
<!-- DifferentialDriveWheelPositions -->
<g id="node4" class="node">
<title>DifferentialDriveWheelPositions</title>
<polygon fill="#f2f2f2" stroke="black" points="478,-155.5 478,-198.5 648,-198.5 648,-155.5 478,-155.5"/>
<text text-anchor="middle" x="563" y="-188.1" font-family="Bitstream Vera Sans" font-size="8.00">DifferentialDriveWheelPositions</text>
<polyline fill="none" stroke="black" points="478,-181.5 648,-181.5"/>
<text text-anchor="middle" x="563" y="-171.1" font-family="Bitstream Vera Sans" font-size="8.00">+ left:double</text>
<text text-anchor="middle" x="563" y="-162.1" font-family="Bitstream Vera Sans" font-size="8.00">+ right:double</text>
</g>
<!-- MecanumDriveKinematics -->
<g id="node5" class="node">
<title>MecanumDriveKinematics</title>
<polygon fill="#f2f2f2" stroke="black" points="666,-146.5 666,-207.5 818,-207.5 818,-146.5 666,-146.5"/>
<text text-anchor="middle" x="742" y="-197.1" font-family="Bitstream Vera Sans" font-size="8.00">MecanumDriveKinematics</text>
<polyline fill="none" stroke="black" points="666,-190.5 818,-190.5"/>
<text text-anchor="middle" x="742" y="-180.1" font-family="Bitstream Vera Sans" font-size="8.00">+ front_left:Translation2d</text>
<text text-anchor="middle" x="742" y="-171.1" font-family="Bitstream Vera Sans" font-size="8.00">+ front_right:Translation2d</text>
<text text-anchor="middle" x="742" y="-162.1" font-family="Bitstream Vera Sans" font-size="8.00">+ rear_left:Translation2d</text>
<text text-anchor="middle" x="742" y="-153.1" font-family="Bitstream Vera Sans" font-size="8.00">+ rear_right:Translation2d</text>
</g>
<!-- Translation2d -->
<g id="node11" class="node">
<title>Translation2d</title>
<polygon fill="#f2f2f2" stroke="black" points="691.5,-73.5 691.5,-109.5 792.5,-109.5 792.5,-73.5 691.5,-73.5"/>
<text text-anchor="middle" x="742" y="-89.6" font-family="Bitstream Vera Sans" font-size="8.00">Translation2d</text>
</g>
<!-- MecanumDriveKinematics&#45;&gt;Translation2d -->
<g id="edge1" class="edge">
<title>MecanumDriveKinematics&#45;&gt;Translation2d</title>
<path fill="none" stroke="black" d="M722.59,-146.8C720.86,-134.19 721.81,-119.91 725.44,-109.15"/>
<text text-anchor="middle" x="722.94" y="-111.75" font-family="Bitstream Vera Sans" font-size="8.00">1</text>
<text text-anchor="middle" x="720.09" y="-140.4" font-family="Bitstream Vera Sans" font-size="8.00">1</text>
</g>
<!-- MecanumDriveKinematics&#45;&gt;Translation2d -->
<g id="edge2" class="edge">
<title>MecanumDriveKinematics&#45;&gt;Translation2d</title>
<path fill="none" stroke="black" d="M735.53,-146.8C734.95,-134.19 735.27,-119.91 736.48,-109.15"/>
<text text-anchor="middle" x="733.98" y="-111.75" font-family="Bitstream Vera Sans" font-size="8.00">1</text>
<text text-anchor="middle" x="733.03" y="-140.4" font-family="Bitstream Vera Sans" font-size="8.00">1</text>
</g>
<!-- MecanumDriveKinematics&#45;&gt;Translation2d -->
<g id="edge3" class="edge">
<title>MecanumDriveKinematics&#45;&gt;Translation2d</title>
<path fill="none" stroke="black" d="M748.47,-146.8C749.05,-134.19 748.73,-119.91 747.52,-109.15"/>
<text text-anchor="middle" x="745.02" y="-111.75" font-family="Bitstream Vera Sans" font-size="8.00">1</text>
<text text-anchor="middle" x="745.97" y="-140.4" font-family="Bitstream Vera Sans" font-size="8.00">1</text>
</g>
<!-- MecanumDriveKinematics&#45;&gt;Translation2d -->
<g id="edge4" class="edge">
<title>MecanumDriveKinematics&#45;&gt;Translation2d</title>
<path fill="none" stroke="black" d="M761.41,-146.8C763.14,-134.19 762.19,-119.91 758.56,-109.15"/>
<text text-anchor="middle" x="756.06" y="-111.75" font-family="Bitstream Vera Sans" font-size="8.00">1</text>
<text text-anchor="middle" x="758.91" y="-140.4" font-family="Bitstream Vera Sans" font-size="8.00">1</text>
</g>
<!-- MecanumDriveWheelPositions -->
<g id="node6" class="node">
<title>MecanumDriveWheelPositions</title>
<polygon fill="#f2f2f2" stroke="black" points="836.5,-146.5 836.5,-207.5 1001.5,-207.5 1001.5,-146.5 836.5,-146.5"/>
<text text-anchor="middle" x="919" y="-197.1" font-family="Bitstream Vera Sans" font-size="8.00">MecanumDriveWheelPositions</text>
<polyline fill="none" stroke="black" points="836.5,-190.5 1001.5,-190.5"/>
<text text-anchor="middle" x="919" y="-180.1" font-family="Bitstream Vera Sans" font-size="8.00">+ front_left:double</text>
<text text-anchor="middle" x="919" y="-171.1" font-family="Bitstream Vera Sans" font-size="8.00">+ front_right:double</text>
<text text-anchor="middle" x="919" y="-162.1" font-family="Bitstream Vera Sans" font-size="8.00">+ rear_left:double</text>
<text text-anchor="middle" x="919" y="-153.1" font-family="Bitstream Vera Sans" font-size="8.00">+ rear_right:double</text>
</g>
<!-- MecanumDriveWheelSpeeds -->
<g id="node7" class="node">
<title>MecanumDriveWheelSpeeds</title>
<polygon fill="#f2f2f2" stroke="black" points="1019.5,-146.5 1019.5,-207.5 1178.5,-207.5 1178.5,-146.5 1019.5,-146.5"/>
<text text-anchor="middle" x="1099" y="-197.1" font-family="Bitstream Vera Sans" font-size="8.00">MecanumDriveWheelSpeeds</text>
<polyline fill="none" stroke="black" points="1019.5,-190.5 1178.5,-190.5"/>
<text text-anchor="middle" x="1099" y="-180.1" font-family="Bitstream Vera Sans" font-size="8.00">+ front_left:double</text>
<text text-anchor="middle" x="1099" y="-171.1" font-family="Bitstream Vera Sans" font-size="8.00">+ front_right:double</text>
<text text-anchor="middle" x="1099" y="-162.1" font-family="Bitstream Vera Sans" font-size="8.00">+ rear_left:double</text>
<text text-anchor="middle" x="1099" y="-153.1" font-family="Bitstream Vera Sans" font-size="8.00">+ rear_right:double</text>
</g>
<!-- SwerveDriveKinematics -->
<g id="node8" class="node">
<title>SwerveDriveKinematics</title>
<polygon fill="#f2f2f2" stroke="black" points="670.5,-0.5 670.5,-36.5 813.5,-36.5 813.5,-0.5 670.5,-0.5"/>
<text text-anchor="middle" x="742" y="-25.6" font-family="Bitstream Vera Sans" font-size="8.00">SwerveDriveKinematics</text>
<polyline fill="none" stroke="black" points="670.5,-18.5 813.5,-18.5"/>
<text text-anchor="middle" x="742" y="-7.6" font-family="Bitstream Vera Sans" font-size="8.00">+ modules:Translation2d</text>
</g>
<!-- SwerveModulePosition -->
<g id="node9" class="node">
<title>SwerveModulePosition</title>
<polygon fill="#f2f2f2" stroke="black" points="1196.5,-155.5 1196.5,-198.5 1331.5,-198.5 1331.5,-155.5 1196.5,-155.5"/>
<text text-anchor="middle" x="1264" y="-188.1" font-family="Bitstream Vera Sans" font-size="8.00">SwerveModulePosition</text>
<polyline fill="none" stroke="black" points="1196.5,-181.5 1331.5,-181.5"/>
<text text-anchor="middle" x="1264" y="-171.1" font-family="Bitstream Vera Sans" font-size="8.00">+ distance:double</text>
<text text-anchor="middle" x="1264" y="-162.1" font-family="Bitstream Vera Sans" font-size="8.00">+ angle:Rotation2d</text>
</g>
<!-- Rotation2d -->
<g id="node12" class="node">
<title>Rotation2d</title>
<polygon fill="#f2f2f2" stroke="black" points="1292,-73.5 1292,-109.5 1384,-109.5 1384,-73.5 1292,-73.5"/>
<text text-anchor="middle" x="1338" y="-89.6" font-family="Bitstream Vera Sans" font-size="8.00">Rotation2d</text>
</g>
<!-- SwerveModulePosition&#45;&gt;Rotation2d -->
<g id="edge6" class="edge">
<title>SwerveModulePosition&#45;&gt;Rotation2d</title>
<path fill="none" stroke="black" d="M1281.91,-155.79C1294.49,-141.6 1311.12,-122.84 1322.99,-109.43"/>
<text text-anchor="middle" x="1320.49" y="-112.03" font-family="Bitstream Vera Sans" font-size="8.00">1</text>
<text text-anchor="middle" x="1279.41" y="-149.39" font-family="Bitstream Vera Sans" font-size="8.00">1</text>
</g>
<!-- SwerveModuleState -->
<g id="node10" class="node">
<title>SwerveModuleState</title>
<polygon fill="#f2f2f2" stroke="black" points="1349.5,-155.5 1349.5,-198.5 1474.5,-198.5 1474.5,-155.5 1349.5,-155.5"/>
<text text-anchor="middle" x="1412" y="-188.1" font-family="Bitstream Vera Sans" font-size="8.00">SwerveModuleState</text>
<polyline fill="none" stroke="black" points="1349.5,-181.5 1474.5,-181.5"/>
<text text-anchor="middle" x="1412" y="-171.1" font-family="Bitstream Vera Sans" font-size="8.00">+ speed:double</text>
<text text-anchor="middle" x="1412" y="-162.1" font-family="Bitstream Vera Sans" font-size="8.00">+ angle:Rotation2d</text>
</g>
<!-- SwerveModuleState&#45;&gt;Rotation2d -->
<g id="edge7" class="edge">
<title>SwerveModuleState&#45;&gt;Rotation2d</title>
<path fill="none" stroke="black" d="M1394.09,-155.79C1381.51,-141.6 1364.88,-122.84 1353.01,-109.43"/>
<text text-anchor="middle" x="1350.51" y="-112.03" font-family="Bitstream Vera Sans" font-size="8.00">1</text>
<text text-anchor="middle" x="1391.59" y="-149.39" font-family="Bitstream Vera Sans" font-size="8.00">1</text>
</g>
<!-- Translation2d&#45;&gt;SwerveDriveKinematics -->
<g id="edge5" class="edge">
<title>Translation2d&#45;&gt;SwerveDriveKinematics</title>
<path fill="none" stroke="black" d="M742,-73.67C742,-66.33 742,-57.51 742,-49.13"/>
<polygon fill="none" stroke="black" points="742,-49.11 738,-43.11 742,-37.11 746,-43.11 742,-49.11"/>
<text text-anchor="middle" x="739.5" y="-38.81" font-family="Bitstream Vera Sans" font-size="8.00">1</text>
<text text-anchor="middle" x="735" y="-67.27" font-family="Bitstream Vera Sans" font-size="8.00">0..*</text>
</g>
</g>
</svg>
