<?xml version="1.0" encoding="UTF-8" standalone="no"?>
<!DOCTYPE svg PUBLIC "-//W3C//DTD SVG 1.1//EN"
 "http://www.w3.org/Graphics/SVG/1.1/DTD/svg11.dtd">
<!-- Generated by graphviz version 7.0.1 (20221109.1506)
 -->
<!-- Title:  UML class diagram Pages: 1 -->
<svg width="284pt" height="70pt"
 viewBox="0.00 0.00 284.00 70.00" xmlns="http://www.w3.org/2000/svg" xmlns:xlink="http://www.w3.org/1999/xlink">
<g id="graph0" class="graph" transform="scale(1 1) rotate(0) translate(4 66)">
<title> UML class diagram</title>
<polygon fill="white" stroke="none" points="-4,4 -4,-66 280,-66 280,4 -4,4"/>
<!-- CubicHermiteSpline -->
<g id="node1" class="node">
<title>CubicHermiteSpline</title>
<polygon fill="#f2f2f2" stroke="black" points="0,-0.5 0,-61.5 126,-61.5 126,-0.5 0,-0.5"/>
<text text-anchor="middle" x="63" y="-51.1" font-family="Bitstream Vera Sans" font-size="8.00">CubicHermiteSpline</text>
<polyline fill="none" stroke="black" points="0,-44.5 126,-44.5"/>
<text text-anchor="middle" x="63" y="-34.1" font-family="Bitstream Vera Sans" font-size="8.00">+ x_initial:double</text>
<text text-anchor="middle" x="63" y="-25.1" font-family="Bitstream Vera Sans" font-size="8.00">+ x_final:double</text>
<text text-anchor="middle" x="63" y="-16.1" font-family="Bitstream Vera Sans" font-size="8.00">+ y_initial:double</text>
<text text-anchor="middle" x="63" y="-7.1" font-family="Bitstream Vera Sans" font-size="8.00">+ y_final:double</text>
</g>
<!-- QuinticHermiteSpline -->
<g id="node2" class="node">
<title>QuinticHermiteSpline</title>
<polygon fill="#f2f2f2" stroke="black" points="144,-0.5 144,-61.5 276,-61.5 276,-0.5 144,-0.5"/>
<text text-anchor="middle" x="210" y="-51.1" font-family="Bitstream Vera Sans" font-size="8.00">QuinticHermiteSpline</text>
<polyline fill="none" stroke="black" points="144,-44.5 276,-44.5"/>
<text text-anchor="middle" x="210" y="-34.1" font-family="Bitstream Vera Sans" font-size="8.00">+ x_initial:double</text>
<text text-anchor="middle" x="210" y="-25.1" font-family="Bitstream Vera Sans" font-size="8.00">+ x_final:double</text>
<text text-anchor="middle" x="210" y="-16.1" font-family="Bitstream Vera Sans" font-size="8.00">+ y_initial:double</text>
<text text-anchor="middle" x="210" y="-7.1" font-family="Bitstream Vera Sans" font-size="8.00">+ y_final:double</text>
</g>
</g>
</svg>
