<?xml version="1.0" encoding="UTF-8" standalone="no"?>
<!DOCTYPE svg PUBLIC "-//W3C//DTD SVG 1.1//EN"
 "http://www.w3.org/Graphics/SVG/1.1/DTD/svg11.dtd">
<!-- Generated by graphviz version 7.0.1 (20221109.1506)
 -->
<!-- Title:  UML class diagram Pages: 1 -->
<svg width="110pt" height="170pt"
 viewBox="0.00 0.00 110.00 170.00" xmlns="http://www.w3.org/2000/svg" xmlns:xlink="http://www.w3.org/1999/xlink">
<g id="graph0" class="graph" transform="scale(1 1) rotate(0) translate(4 166)">
<title> UML class diagram</title>
<polygon fill="white" fill-opacity="0" stroke="none" points="-4,4 -4,-166 106,-166 106,4 -4,4"/>
<!-- LinearSystem -->
<g id="node1" class="node">
<title>LinearSystem</title>
<polygon fill="#f2f2f2" stroke="black" points="0,-73.5 0,-161.5 102,-161.5 102,-73.5 0,-73.5"/>
<text text-anchor="middle" x="51" y="-151.1" font-family="Bitstream Vera Sans" font-size="8.00">LinearSystem</text>
<polyline fill="none" stroke="black" points="0,-144.5 102,-144.5"/>
<text text-anchor="middle" x="51" y="-134.1" font-family="Bitstream Vera Sans" font-size="8.00">+ num_states:uint32</text>
<text text-anchor="middle" x="51" y="-125.1" font-family="Bitstream Vera Sans" font-size="8.00">+ num_inputs:uint32</text>
<text text-anchor="middle" x="51" y="-116.1" font-family="Bitstream Vera Sans" font-size="8.00">+ num_outputs:uint32</text>
<text text-anchor="middle" x="51" y="-107.1" font-family="Bitstream Vera Sans" font-size="8.00">+ a:Matrix</text>
<text text-anchor="middle" x="51" y="-98.1" font-family="Bitstream Vera Sans" font-size="8.00">+ b:Matrix</text>
<text text-anchor="middle" x="51" y="-89.1" font-family="Bitstream Vera Sans" font-size="8.00">+ c:Matrix</text>
<text text-anchor="middle" x="51" y="-80.1" font-family="Bitstream Vera Sans" font-size="8.00">+ d:Matrix</text>
</g>
<!-- Matrix -->
<g id="node2" class="node">
<title>Matrix</title>
<polygon fill="#f2f2f2" stroke="black" points="14,-0.5 14,-36.5 88,-36.5 88,-0.5 14,-0.5"/>
<text text-anchor="middle" x="51" y="-16.6" font-family="Bitstream Vera Sans" font-size="8.00">Matrix</text>
</g>
<!-- LinearSystem&#45;&gt;Matrix -->
<g id="edge1" class="edge">
<title>LinearSystem&#45;&gt;Matrix</title>
<path fill="none" stroke="black" d="M30.87,-73.67C30.3,-60.48 31.74,-46.71 35.21,-36.36"/>
<text text-anchor="middle" x="32.71" y="-38.96" font-family="Bitstream Vera Sans" font-size="8.00">1</text>
<text text-anchor="middle" x="28.37" y="-67.27" font-family="Bitstream Vera Sans" font-size="8.00">1</text>
</g>
<!-- LinearSystem&#45;&gt;Matrix -->
<g id="edge2" class="edge">
<title>LinearSystem&#45;&gt;Matrix</title>
<path fill="none" stroke="black" d="M44.29,-73.67C44.1,-60.48 44.58,-46.71 45.74,-36.36"/>
<text text-anchor="middle" x="43.24" y="-38.96" font-family="Bitstream Vera Sans" font-size="8.00">1</text>
<text text-anchor="middle" x="41.79" y="-67.27" font-family="Bitstream Vera Sans" font-size="8.00">1</text>
</g>
<!-- LinearSystem&#45;&gt;Matrix -->
<g id="edge3" class="edge">
<title>LinearSystem&#45;&gt;Matrix</title>
<path fill="none" stroke="black" d="M57.71,-73.67C57.9,-60.48 57.42,-46.71 56.26,-36.36"/>
<text text-anchor="middle" x="53.76" y="-38.96" font-family="Bitstream Vera Sans" font-size="8.00">1</text>
<text text-anchor="middle" x="55.21" y="-67.27" font-family="Bitstream Vera Sans" font-size="8.00">1</text>
</g>
<!-- LinearSystem&#45;&gt;Matrix -->
<g id="edge4" class="edge">
<title>LinearSystem&#45;&gt;Matrix</title>
<path fill="none" stroke="black" d="M71.13,-73.67C71.7,-60.48 70.26,-46.71 66.79,-36.36"/>
<text text-anchor="middle" x="64.29" y="-38.96" font-family="Bitstream Vera Sans" font-size="8.00">1</text>
<text text-anchor="middle" x="68.63" y="-67.27" font-family="Bitstream Vera Sans" font-size="8.00">1</text>
</g>
</g>
</svg>
