<?xml version="1.0" encoding="UTF-8" standalone="no"?>
<!DOCTYPE svg PUBLIC "-//W3C//DTD SVG 1.1//EN"
 "http://www.w3.org/Graphics/SVG/1.1/DTD/svg11.dtd">
<!-- Generated by graphviz version 12.2.1 (0)
 -->
<!-- Title: systemd Pages: 1 -->
<svg width="1678pt" height="692pt"
 viewBox="0.00 0.00 1677.62 692.00" xmlns="http://www.w3.org/2000/svg" xmlns:xlink="http://www.w3.org/1999/xlink">
<g id="graph0" class="graph" transform="scale(1 1) rotate(0) translate(4 688)">
<title>systemd</title>
<polygon fill="white" stroke="none" points="-4,4 -4,-688 1673.62,-688 1673.62,4 -4,4"/>
<!-- smartcard.target -->
<g id="node1" class="node">
<title>smartcard.target</title>
<ellipse fill="none" stroke="black" cx="855" cy="-666" rx="96.98" ry="18"/>
<text text-anchor="middle" x="855" y="-661.33" font-family="Times,serif" font-size="14.00">smartcard.target</text>
</g>
<!-- shutdown.target -->
<g id="node2" class="node">
<title>shutdown.target</title>
<ellipse fill="none" stroke="black" cx="855" cy="-594" rx="94.35" ry="18"/>
<text text-anchor="middle" x="855" y="-589.33" font-family="Times,serif" font-size="14.00">shutdown.target</text>
</g>
<!-- smartcard.target&#45;&gt;shutdown.target -->
<g id="edge1" class="edge">
<title>smartcard.target&#45;&gt;shutdown.target</title>
<path fill="none" stroke="red" d="M849.08,-647.7C848.33,-640.41 848.09,-631.73 848.35,-623.54"/>
<polygon fill="red" stroke="red" points="851.84,-623.82 849.01,-613.61 844.86,-623.36 851.84,-623.82"/>
</g>
<!-- shutdown.target&#45;&gt;smartcard.target -->
<g id="edge38" class="edge">
<title>shutdown.target&#45;&gt;smartcard.target</title>
<path fill="none" stroke="green" d="M860.9,-612.1C861.66,-619.37 861.91,-628.04 861.65,-636.24"/>
<polygon fill="green" stroke="green" points="858.16,-635.98 861.01,-646.19 865.15,-636.43 858.16,-635.98"/>
</g>
<!-- default.target -->
<g id="node4" class="node">
<title>default.target</title>
<ellipse fill="none" stroke="black" cx="973" cy="-450" rx="80.67" ry="18"/>
<text text-anchor="middle" x="973" y="-445.32" font-family="Times,serif" font-size="14.00">default.target</text>
</g>
<!-- shutdown.target&#45;&gt;default.target -->
<g id="edge44" class="edge">
<title>shutdown.target&#45;&gt;default.target</title>
<path fill="none" stroke="green" d="M864.65,-575.87C882.69,-551 920.89,-504.75 946.9,-476.05"/>
<polygon fill="green" stroke="green" points="949.31,-478.59 953.51,-468.86 944.16,-473.85 949.31,-478.59"/>
</g>
<!-- basic.target -->
<g id="node5" class="node">
<title>basic.target</title>
<ellipse fill="none" stroke="black" cx="917" cy="-90" rx="71.2" ry="18"/>
<text text-anchor="middle" x="917" y="-85.33" font-family="Times,serif" font-size="14.00">basic.target</text>
</g>
<!-- shutdown.target&#45;&gt;basic.target -->
<g id="edge35" class="edge">
<title>shutdown.target&#45;&gt;basic.target</title>
<path fill="none" stroke="green" d="M854.46,-575.72C858.39,-501.8 893.98,-211.78 910.15,-119.41"/>
<polygon fill="green" stroke="green" points="913.57,-120.16 911.94,-109.7 906.69,-118.9 913.57,-120.16"/>
</g>
<!-- sound.target -->
<g id="node6" class="node">
<title>sound.target</title>
<ellipse fill="none" stroke="black" cx="1212" cy="-522" rx="75.41" ry="18"/>
<text text-anchor="middle" x="1212" y="-517.33" font-family="Times,serif" font-size="14.00">sound.target</text>
</g>
<!-- shutdown.target&#45;&gt;sound.target -->
<g id="edge41" class="edge">
<title>shutdown.target&#45;&gt;sound.target</title>
<path fill="none" stroke="green" d="M916.33,-579.92C979.09,-567.25 1076.35,-548.19 1142.06,-535.67"/>
<polygon fill="green" stroke="green" points="1142.47,-539.15 1151.64,-533.85 1141.17,-532.27 1142.47,-539.15"/>
</g>
<!-- xdg&#45;desktop&#45;autostart.target -->
<g id="node7" class="node">
<title>xdg&#45;desktop&#45;autostart.target</title>
<ellipse fill="none" stroke="black" cx="606" cy="-522" rx="155.9" ry="18"/>
<text text-anchor="middle" x="606" y="-517.33" font-family="Times,serif" font-size="14.00">xdg&#45;desktop&#45;autostart.target</text>
</g>
<!-- shutdown.target&#45;&gt;xdg&#45;desktop&#45;autostart.target -->
<g id="edge37" class="edge">
<title>shutdown.target&#45;&gt;xdg&#45;desktop&#45;autostart.target</title>
<path fill="none" stroke="green" d="M799.68,-579C761.05,-568.54 709.48,-554.09 669.23,-542.5"/>
<polygon fill="green" stroke="green" points="670.23,-539.14 659.65,-539.73 668.28,-545.87 670.23,-539.14"/>
</g>
<!-- wayland&#45;session&#45;xdg&#45;autostart@Hyprland.target -->
<g id="node8" class="node">
<title>wayland&#45;session&#45;xdg&#45;autostart@Hyprland.target</title>
<ellipse fill="none" stroke="black" cx="451" cy="-450" rx="254.81" ry="18"/>
<text text-anchor="middle" x="451" y="-445.32" font-family="Times,serif" font-size="14.00">wayland&#45;session&#45;xdg&#45;autostart@Hyprland.target</text>
</g>
<!-- shutdown.target&#45;&gt;wayland&#45;session&#45;xdg&#45;autostart@Hyprland.target -->
<g id="edge46" class="edge">
<title>shutdown.target&#45;&gt;wayland&#45;session&#45;xdg&#45;autostart@Hyprland.target</title>
<path fill="none" stroke="green" d="M765.55,-588.14C647.84,-580.6 453.45,-564.38 432,-540 417.44,-523.46 422.07,-497.95 430.63,-478.47"/>
<polygon fill="green" stroke="green" points="433.66,-480.23 435.01,-469.72 427.41,-477.09 433.66,-480.23"/>
</g>
<!-- graphical&#45;session.target -->
<g id="node9" class="node">
<title>graphical&#45;session.target</title>
<ellipse fill="none" stroke="black" cx="748" cy="-234" rx="132.23" ry="18"/>
<text text-anchor="middle" x="748" y="-229.32" font-family="Times,serif" font-size="14.00">graphical&#45;session.target</text>
</g>
<!-- shutdown.target&#45;&gt;graphical&#45;session.target -->
<g id="edge39" class="edge">
<title>shutdown.target&#45;&gt;graphical&#45;session.target</title>
<path fill="none" stroke="green" d="M837.58,-575.93C817.99,-550.09 790,-498.97 790,-451 790,-451 790,-451 790,-377 790,-335.14 770.13,-290.22 757.38,-262.36"/>
<polygon fill="green" stroke="green" points="760.72,-261.23 753.38,-253.59 754.35,-264.14 760.72,-261.23"/>
</g>
<!-- graphical&#45;session&#45;pre.target -->
<g id="node10" class="node">
<title>graphical&#45;session&#45;pre.target</title>
<ellipse fill="none" stroke="black" cx="555" cy="-162" rx="152.22" ry="18"/>
<text text-anchor="middle" x="555" y="-157.32" font-family="Times,serif" font-size="14.00">graphical&#45;session&#45;pre.target</text>
</g>
<!-- shutdown.target&#45;&gt;graphical&#45;session&#45;pre.target -->
<g id="edge40" class="edge">
<title>shutdown.target&#45;&gt;graphical&#45;session&#45;pre.target</title>
<path fill="none" stroke="green" d="M762.35,-590.35C576.67,-584.34 172.2,-567.97 116,-540 68.91,-516.56 38,-503.6 38,-451 38,-451 38,-451 38,-305 38,-261.63 42.97,-241.57 78,-216 126.54,-180.56 273.66,-168.35 391.84,-164.37"/>
<polygon fill="green" stroke="green" points="391.79,-167.87 401.67,-164.06 391.57,-160.88 391.79,-167.87"/>
</g>
<!-- wayland&#45;session@Hyprland.target -->
<g id="node11" class="node">
<title>wayland&#45;session@Hyprland.target</title>
<ellipse fill="none" stroke="black" cx="324" cy="-306" rx="183.79" ry="18"/>
<text text-anchor="middle" x="324" y="-301.32" font-family="Times,serif" font-size="14.00">wayland&#45;session@Hyprland.target</text>
</g>
<!-- shutdown.target&#45;&gt;wayland&#45;session@Hyprland.target -->
<g id="edge36" class="edge">
<title>shutdown.target&#45;&gt;wayland&#45;session@Hyprland.target</title>
<path fill="none" stroke="green" d="M761.74,-590.65C592.47,-584.1 246.1,-559.52 178,-468 139.46,-416.2 218.6,-359.55 274.79,-329.19"/>
<polygon fill="green" stroke="green" points="276.08,-332.47 283.3,-324.72 272.82,-326.28 276.08,-332.47"/>
</g>
<!-- wayland&#45;session&#45;pre@Hyprland.target -->
<g id="node12" class="node">
<title>wayland&#45;session&#45;pre@Hyprland.target</title>
<ellipse fill="none" stroke="black" cx="300" cy="-234" rx="203.78" ry="18"/>
<text text-anchor="middle" x="300" y="-229.32" font-family="Times,serif" font-size="14.00">wayland&#45;session&#45;pre@Hyprland.target</text>
</g>
<!-- shutdown.target&#45;&gt;wayland&#45;session&#45;pre@Hyprland.target -->
<g id="edge47" class="edge">
<title>shutdown.target&#45;&gt;wayland&#45;session&#45;pre@Hyprland.target</title>
<path fill="none" stroke="green" d="M761.37,-591.16C609.58,-587.14 317.29,-574.92 221,-540 156.21,-516.5 94,-519.92 94,-451 94,-451 94,-451 94,-377 94,-335.53 92.67,-317.31 122,-288 137.98,-272.03 158.71,-260.86 180.36,-253.06"/>
<polygon fill="green" stroke="green" points="181.24,-256.45 189.61,-249.97 179.02,-249.81 181.24,-256.45"/>
</g>
<!-- bluetooth.target -->
<g id="node13" class="node">
<title>bluetooth.target</title>
<ellipse fill="none" stroke="black" cx="1399" cy="-522" rx="93.3" ry="18"/>
<text text-anchor="middle" x="1399" y="-517.33" font-family="Times,serif" font-size="14.00">bluetooth.target</text>
</g>
<!-- shutdown.target&#45;&gt;bluetooth.target -->
<g id="edge43" class="edge">
<title>shutdown.target&#45;&gt;bluetooth.target</title>
<path fill="none" stroke="green" d="M933.77,-583.85C1020.47,-574.07 1163.71,-557.57 1287,-540 1296.29,-538.68 1306.03,-537.19 1315.73,-535.67"/>
<polygon fill="green" stroke="green" points="1316.26,-539.13 1325.59,-534.11 1315.16,-532.22 1316.26,-539.13"/>
</g>
<!-- printer.target -->
<g id="node15" class="node">
<title>printer.target</title>
<ellipse fill="none" stroke="black" cx="1590" cy="-522" rx="79.62" ry="18"/>
<text text-anchor="middle" x="1590" y="-517.33" font-family="Times,serif" font-size="14.00">printer.target</text>
</g>
<!-- shutdown.target&#45;&gt;printer.target -->
<g id="edge45" class="edge">
<title>shutdown.target&#45;&gt;printer.target</title>
<path fill="none" stroke="green" d="M945.22,-588.31C1068.95,-581.43 1297.85,-566.43 1492,-540 1500.44,-538.85 1509.29,-537.43 1518.08,-535.9"/>
<polygon fill="green" stroke="green" points="1518.44,-539.39 1527.67,-534.18 1517.21,-532.5 1518.44,-539.39"/>
</g>
<!-- paths.target -->
<g id="node16" class="node">
<title>paths.target</title>
<ellipse fill="none" stroke="black" cx="973" cy="-18" rx="73.3" ry="18"/>
<text text-anchor="middle" x="973" y="-13.32" font-family="Times,serif" font-size="14.00">paths.target</text>
</g>
<!-- shutdown.target&#45;&gt;paths.target -->
<g id="edge34" class="edge">
<title>shutdown.target&#45;&gt;paths.target</title>
<path fill="none" stroke="green" d="M893.08,-577.2C937.91,-558.31 1011.24,-522.28 1054,-468 1079.66,-435.43 1082,-420.47 1082,-379 1082,-379 1082,-379 1082,-161 1082,-109.8 1036.06,-67.21 1003.7,-42.42"/>
<polygon fill="green" stroke="green" points="1005.89,-39.69 995.78,-36.51 1001.7,-45.3 1005.89,-39.69"/>
</g>
<!-- sockets.target -->
<g id="node17" class="node">
<title>sockets.target</title>
<ellipse fill="none" stroke="black" cx="1147" cy="-18" rx="82.77" ry="18"/>
<text text-anchor="middle" x="1147" y="-13.32" font-family="Times,serif" font-size="14.00">sockets.target</text>
</g>
<!-- shutdown.target&#45;&gt;sockets.target -->
<g id="edge42" class="edge">
<title>shutdown.target&#45;&gt;sockets.target</title>
<path fill="none" stroke="green" d="M915.01,-579.75C946.55,-571.5 984.91,-558.79 1016,-540 1092.83,-493.55 1138,-468.78 1138,-379 1138,-379 1138,-379 1138,-161 1138,-121.52 1138,-75.88 1140.2,-47.22"/>
<polygon fill="green" stroke="green" points="1143.66,-47.85 1141.14,-37.56 1136.69,-47.17 1143.66,-47.85"/>
</g>
<!-- timers.target -->
<g id="node3" class="node">
<title>timers.target</title>
<ellipse fill="none" stroke="black" cx="804" cy="-18" rx="78.04" ry="18"/>
<text text-anchor="middle" x="804" y="-13.32" font-family="Times,serif" font-size="14.00">timers.target</text>
</g>
<!-- timers.target&#45;&gt;shutdown.target -->
<g id="edge2" class="edge">
<title>timers.target&#45;&gt;shutdown.target</title>
<path fill="none" stroke="red" d="M730.16,-24.3C531.4,-39.56 0,-87.25 0,-161 0,-451 0,-451 0,-451 0,-499.46 20.72,-516.31 63,-540 121.45,-572.76 548.15,-586.33 749.88,-590.96"/>
<polygon fill="red" stroke="red" points="749.78,-594.46 759.85,-591.19 749.94,-587.46 749.78,-594.46"/>
</g>
<!-- default.target&#45;&gt;shutdown.target -->
<g id="edge5" class="edge">
<title>default.target&#45;&gt;shutdown.target</title>
<path fill="none" stroke="red" d="M963.31,-468.19C945.34,-492.96 907.44,-538.86 881.46,-567.56"/>
<polygon fill="red" stroke="red" points="879.03,-565.03 874.84,-574.76 884.19,-569.76 879.03,-565.03"/>
</g>
<!-- default.target&#45;&gt;basic.target -->
<g id="edge3" class="edge">
<title>default.target&#45;&gt;basic.target</title>
<path fill="none" stroke="green" d="M967.29,-431.95C964,-405.29 964,-352.11 964,-307 964,-307 964,-307 964,-233 964,-190.65 942.18,-145.85 927.97,-118.15"/>
<polygon fill="green" stroke="green" points="931.17,-116.71 923.48,-109.42 924.94,-119.91 931.17,-116.71"/>
</g>
<!-- default.target&#45;&gt;basic.target -->
<g id="edge4" class="edge">
<title>default.target&#45;&gt;basic.target</title>
<path fill="none" stroke="black" d="M978.71,-431.95C982,-405.29 982,-352.11 982,-307 982,-307 982,-307 982,-233 982,-190.04 959.55,-144.56 940.79,-116.96"/>
<polygon fill="black" stroke="black" points="943.66,-114.95 934.98,-108.87 937.97,-119.04 943.66,-114.95"/>
</g>
<!-- basic.target&#45;&gt;shutdown.target -->
<g id="edge54" class="edge">
<title>basic.target&#45;&gt;shutdown.target</title>
<path fill="none" stroke="red" d="M917.53,-108.47C913.56,-182.66 878.02,-472.14 861.86,-564.51"/>
<polygon fill="red" stroke="red" points="858.44,-563.76 860.08,-574.23 865.32,-565.03 858.44,-563.76"/>
</g>
<!-- basic.target&#45;&gt;timers.target -->
<g id="edge49" class="edge">
<title>basic.target&#45;&gt;timers.target</title>
<path fill="none" stroke="green" d="M886.2,-73.46C870.13,-64.19 850.63,-52.25 834.6,-41.91"/>
<polygon fill="green" stroke="green" points="836.68,-39.08 826.39,-36.54 832.85,-44.94 836.68,-39.08"/>
</g>
<!-- basic.target&#45;&gt;timers.target -->
<g id="edge51" class="edge">
<title>basic.target&#45;&gt;timers.target</title>
<path fill="none" stroke="#a8a8a8" d="M896.06,-72.41C881.72,-62.88 862.37,-50.8 845.07,-40.55"/>
<polygon fill="#a8a8a8" stroke="#a8a8a8" points="846.87,-37.55 836.47,-35.51 843.33,-43.59 846.87,-37.55"/>
</g>
<!-- basic.target&#45;&gt;paths.target -->
<g id="edge48" class="edge">
<title>basic.target&#45;&gt;paths.target</title>
<path fill="none" stroke="green" d="M924.93,-71.7C930.74,-63.35 938.68,-53.18 946.49,-44.02"/>
<polygon fill="green" stroke="green" points="948.89,-46.58 952.86,-36.76 943.63,-41.96 948.89,-46.58"/>
</g>
<!-- basic.target&#45;&gt;paths.target -->
<g id="edge53" class="edge">
<title>basic.target&#45;&gt;paths.target</title>
<path fill="none" stroke="#a8a8a8" d="M936.11,-72.41C943.53,-64.25 951.79,-54.22 958.7,-45.07"/>
<polygon fill="#a8a8a8" stroke="#a8a8a8" points="961.38,-47.33 964.42,-37.18 955.72,-43.22 961.38,-47.33"/>
</g>
<!-- basic.target&#45;&gt;sockets.target -->
<g id="edge50" class="edge">
<title>basic.target&#45;&gt;sockets.target</title>
<path fill="none" stroke="green" d="M958,-74.83C993.54,-63.56 1045.36,-47.76 1085.8,-35.84"/>
<polygon fill="green" stroke="green" points="1086.55,-39.27 1095.16,-33.09 1084.58,-32.55 1086.55,-39.27"/>
</g>
<!-- basic.target&#45;&gt;sockets.target -->
<g id="edge52" class="edge">
<title>basic.target&#45;&gt;sockets.target</title>
<path fill="none" stroke="#a8a8a8" d="M964.55,-76.16C1001.99,-65.25 1054.08,-49.47 1093.06,-37.25"/>
<polygon fill="#a8a8a8" stroke="#a8a8a8" points="1094.01,-40.62 1102.5,-34.27 1091.91,-33.94 1094.01,-40.62"/>
</g>
<!-- sound.target&#45;&gt;shutdown.target -->
<g id="edge6" class="edge">
<title>sound.target&#45;&gt;shutdown.target</title>
<path fill="none" stroke="red" d="M1157.22,-534.76C1097.18,-546.92 1000.5,-565.89 932.66,-578.86"/>
<polygon fill="red" stroke="red" points="932.27,-575.37 923.1,-580.68 933.58,-582.25 932.27,-575.37"/>
</g>
<!-- xdg&#45;desktop&#45;autostart.target&#45;&gt;shutdown.target -->
<g id="edge8" class="edge">
<title>xdg&#45;desktop&#45;autostart.target&#45;&gt;shutdown.target</title>
<path fill="none" stroke="red" d="M668.25,-538.88C707.55,-549.58 757.92,-563.72 796.48,-574.86"/>
<polygon fill="red" stroke="red" points="795.5,-578.22 806.08,-577.65 797.45,-571.5 795.5,-578.22"/>
</g>
<!-- xdg&#45;desktop&#45;autostart.target&#45;&gt;wayland&#45;session&#45;xdg&#45;autostart@Hyprland.target -->
<g id="edge7" class="edge">
<title>xdg&#45;desktop&#45;autostart.target&#45;&gt;wayland&#45;session&#45;xdg&#45;autostart@Hyprland.target</title>
<path fill="none" stroke="green" d="M563.01,-504.23C541.3,-494.88 515.11,-483.12 493.48,-473.04"/>
<polygon fill="green" stroke="green" points="495.17,-469.97 484.63,-468.88 492.19,-476.3 495.17,-469.97"/>
</g>
<!-- wayland&#45;session&#45;xdg&#45;autostart@Hyprland.target&#45;&gt;shutdown.target -->
<g id="edge23" class="edge">
<title>wayland&#45;session&#45;xdg&#45;autostart@Hyprland.target&#45;&gt;shutdown.target</title>
<path fill="none" stroke="red" d="M448.61,-468.37C442.44,-488.19 432.74,-520.39 450,-540 470.11,-562.84 642.08,-578.53 755.42,-586.61"/>
<polygon fill="red" stroke="red" points="755.15,-590.1 765.37,-587.31 755.64,-583.12 755.15,-590.1"/>
</g>
<!-- wayland&#45;session&#45;xdg&#45;autostart@Hyprland.target&#45;&gt;xdg&#45;desktop&#45;autostart.target -->
<g id="edge21" class="edge">
<title>wayland&#45;session&#45;xdg&#45;autostart@Hyprland.target&#45;&gt;xdg&#45;desktop&#45;autostart.target</title>
<path fill="none" stroke="gold" d="M494.88,-468.15C516.65,-477.54 542.75,-489.27 564.23,-499.29"/>
<polygon fill="gold" stroke="gold" points="562.45,-502.32 572.99,-503.41 565.43,-495.99 562.45,-502.32"/>
</g>
<!-- wayland&#45;session&#45;xdg&#45;autostart@Hyprland.target&#45;&gt;graphical&#45;session.target -->
<g id="edge19" class="edge">
<title>wayland&#45;session&#45;xdg&#45;autostart@Hyprland.target&#45;&gt;graphical&#45;session.target</title>
<path fill="none" stroke="green" d="M611.21,-435.61C664.78,-427.72 715.39,-415.33 733,-396 765.7,-360.11 761.06,-299.23 754.61,-263.51"/>
<polygon fill="green" stroke="green" points="758.09,-263.04 752.7,-253.91 751.22,-264.41 758.09,-263.04"/>
</g>
<!-- wayland&#45;session&#45;xdg&#45;autostart@Hyprland.target&#45;&gt;wayland&#45;session@Hyprland.target -->
<g id="edge20" class="edge">
<title>wayland&#45;session&#45;xdg&#45;autostart@Hyprland.target&#45;&gt;wayland&#45;session@Hyprland.target</title>
<path fill="none" stroke="green" d="M398.42,-432.01C380.26,-423.45 361.25,-411.54 348,-396 333.28,-378.74 324.85,-354.31 321.6,-335.41"/>
<polygon fill="green" stroke="green" points="325.1,-335.2 320.4,-325.7 318.15,-336.05 325.1,-335.2"/>
</g>
<!-- wayland&#45;session&#45;shutdown.target -->
<g id="node14" class="node">
<title>wayland&#45;session&#45;shutdown.target</title>
<ellipse fill="none" stroke="black" cx="545" cy="-378" rx="179.05" ry="18"/>
<text text-anchor="middle" x="545" y="-373.32" font-family="Times,serif" font-size="14.00">wayland&#45;session&#45;shutdown.target</text>
</g>
<!-- wayland&#45;session&#45;xdg&#45;autostart@Hyprland.target&#45;&gt;wayland&#45;session&#45;shutdown.target -->
<g id="edge22" class="edge">
<title>wayland&#45;session&#45;xdg&#45;autostart@Hyprland.target&#45;&gt;wayland&#45;session&#45;shutdown.target</title>
<path fill="none" stroke="red" d="M468.32,-431.7C479.25,-422.88 493.65,-412.03 507.06,-402.47"/>
<polygon fill="red" stroke="red" points="508.72,-405.58 514.9,-396.97 504.7,-399.86 508.72,-405.58"/>
</g>
<!-- graphical&#45;session.target&#45;&gt;shutdown.target -->
<g id="edge13" class="edge">
<title>graphical&#45;session.target&#45;&gt;shutdown.target</title>
<path fill="none" stroke="red" d="M764.39,-252.21C782.51,-278.23 808,-329.59 808,-377 808,-451 808,-451 808,-451 808,-493.35 829.82,-538.15 844.03,-565.85"/>
<polygon fill="red" stroke="red" points="840.83,-567.29 848.52,-574.58 847.06,-564.09 840.83,-567.29"/>
</g>
<!-- graphical&#45;session.target&#45;&gt;basic.target -->
<g id="edge10" class="edge">
<title>graphical&#45;session.target&#45;&gt;basic.target</title>
<path fill="none" stroke="green" d="M763.8,-215.87C791.38,-190.44 848.09,-142.63 884.34,-114.12"/>
<polygon fill="green" stroke="green" points="886.15,-117.15 891.9,-108.24 881.85,-111.62 886.15,-117.15"/>
</g>
<!-- graphical&#45;session.target&#45;&gt;basic.target -->
<g id="edge12" class="edge">
<title>graphical&#45;session.target&#45;&gt;basic.target</title>
<path fill="none" stroke="black" d="M772.97,-215.87C805.47,-190.79 861.44,-143.95 893.3,-115.31"/>
<polygon fill="black" stroke="black" points="895.45,-118.09 900.49,-108.77 890.74,-112.91 895.45,-118.09"/>
</g>
<!-- graphical&#45;session.target&#45;&gt;graphical&#45;session&#45;pre.target -->
<g id="edge9" class="edge">
<title>graphical&#45;session.target&#45;&gt;graphical&#45;session&#45;pre.target</title>
<path fill="none" stroke="green" d="M703.24,-216.76C675.86,-206.84 640.61,-194.05 611.34,-183.44"/>
<polygon fill="green" stroke="green" points="612.88,-180.27 602.28,-180.15 610.49,-186.85 612.88,-180.27"/>
</g>
<!-- graphical&#45;session.target&#45;&gt;wayland&#45;session@Hyprland.target -->
<g id="edge11" class="edge">
<title>graphical&#45;session.target&#45;&gt;wayland&#45;session@Hyprland.target</title>
<path fill="none" stroke="green" d="M669.39,-248.89C602.13,-260.25 504.78,-276.34 430.53,-288.38"/>
<polygon fill="green" stroke="green" points="430.1,-284.9 420.79,-289.96 431.22,-291.81 430.1,-284.9"/>
</g>
<!-- graphical&#45;session&#45;pre.target&#45;&gt;shutdown.target -->
<g id="edge17" class="edge">
<title>graphical&#45;session&#45;pre.target&#45;&gt;shutdown.target</title>
<path fill="none" stroke="red" d="M403.77,-164.46C289.4,-168.54 144.17,-180.83 96,-216 60.97,-241.57 56,-261.63 56,-305 56,-451 56,-451 56,-451 56,-503.6 86.91,-516.56 134,-540 188.08,-566.91 564.55,-583.09 750.97,-589.63"/>
<polygon fill="red" stroke="red" points="750.8,-593.12 760.92,-589.97 751.04,-586.13 750.8,-593.12"/>
</g>
<!-- graphical&#45;session&#45;pre.target&#45;&gt;basic.target -->
<g id="edge15" class="edge">
<title>graphical&#45;session&#45;pre.target&#45;&gt;basic.target</title>
<path fill="none" stroke="green" d="M627.87,-145.81C692.42,-133.03 785.86,-114.99 848.92,-103.15"/>
<polygon fill="green" stroke="green" points="849.27,-106.64 858.46,-101.36 847.98,-99.76 849.27,-106.64"/>
</g>
<!-- graphical&#45;session&#45;pre.target&#45;&gt;basic.target -->
<g id="edge16" class="edge">
<title>graphical&#45;session&#45;pre.target&#45;&gt;basic.target</title>
<path fill="none" stroke="black" d="M636.05,-146.41C701.51,-134.06 792.31,-116.49 852.81,-104.47"/>
<polygon fill="black" stroke="black" points="853.14,-107.97 862.26,-102.58 851.77,-101.11 853.14,-107.97"/>
</g>
<!-- graphical&#45;session&#45;pre.target&#45;&gt;wayland&#45;session&#45;pre@Hyprland.target -->
<g id="edge14" class="edge">
<title>graphical&#45;session&#45;pre.target&#45;&gt;wayland&#45;session&#45;pre@Hyprland.target</title>
<path fill="none" stroke="green" d="M501.54,-179.27C465.43,-189.49 417.27,-202.74 377.05,-213.53"/>
<polygon fill="green" stroke="green" points="376.16,-210.14 367.4,-216.11 377.97,-216.91 376.16,-210.14"/>
</g>
<!-- wayland&#45;session@Hyprland.target&#45;&gt;shutdown.target -->
<g id="edge65" class="edge">
<title>wayland&#45;session@Hyprland.target&#45;&gt;shutdown.target</title>
<path fill="none" stroke="red" d="M295.28,-324.25C246.04,-353.06 155.25,-413.23 196,-468 261.28,-555.73 582.25,-581.95 750.99,-589.74"/>
<polygon fill="red" stroke="red" points="750.72,-593.23 760.87,-590.18 751.03,-586.24 750.72,-593.23"/>
</g>
<!-- wayland&#45;session@Hyprland.target&#45;&gt;wayland&#45;session&#45;xdg&#45;autostart@Hyprland.target -->
<g id="edge63" class="edge">
<title>wayland&#45;session@Hyprland.target&#45;&gt;wayland&#45;session&#45;xdg&#45;autostart@Hyprland.target</title>
<path fill="none" stroke="#a8a8a8" d="M333.22,-324.2C339.54,-343.57 348.14,-375.06 366,-396 376.57,-408.39 390.79,-418.47 404.62,-426.39"/>
<polygon fill="#a8a8a8" stroke="#a8a8a8" points="402.77,-429.37 413.23,-431.05 406.11,-423.21 402.77,-429.37"/>
</g>
<!-- wayland&#45;session@Hyprland.target&#45;&gt;graphical&#45;session.target -->
<g id="edge62" class="edge">
<title>wayland&#45;session@Hyprland.target&#45;&gt;graphical&#45;session.target</title>
<path fill="none" stroke="gold" d="M410.84,-289.72C481.02,-277.9 579.66,-261.62 652.15,-249.89"/>
<polygon fill="gold" stroke="gold" points="652.29,-253.42 661.6,-248.37 651.17,-246.51 652.29,-253.42"/>
</g>
<!-- wayland&#45;session@Hyprland.target&#45;&gt;graphical&#45;session&#45;pre.target -->
<g id="edge60" class="edge">
<title>wayland&#45;session@Hyprland.target&#45;&gt;graphical&#45;session&#45;pre.target</title>
<path fill="none" stroke="green" d="M432.75,-291.22C461.27,-283.39 490.36,-271.14 513,-252 531.44,-236.42 542.31,-210.93 548.36,-191.22"/>
<polygon fill="green" stroke="green" points="551.66,-192.42 550.98,-181.85 544.92,-190.54 551.66,-192.42"/>
</g>
<!-- wayland&#45;session@Hyprland.target&#45;&gt;wayland&#45;session&#45;pre@Hyprland.target -->
<g id="edge59" class="edge">
<title>wayland&#45;session@Hyprland.target&#45;&gt;wayland&#45;session&#45;pre@Hyprland.target</title>
<path fill="none" stroke="green" d="M312.15,-287.7C308.82,-280.24 305.53,-271.32 302.96,-262.97"/>
<polygon fill="green" stroke="green" points="306.4,-262.28 300.37,-253.56 299.65,-264.13 306.4,-262.28"/>
</g>
<!-- wayland&#45;session@Hyprland.target&#45;&gt;wayland&#45;session&#45;pre@Hyprland.target -->
<g id="edge61" class="edge">
<title>wayland&#45;session@Hyprland.target&#45;&gt;wayland&#45;session&#45;pre@Hyprland.target</title>
<path fill="none" stroke="black" d="M323.98,-287.7C322.17,-280.15 319.31,-271.12 316.11,-262.68"/>
<polygon fill="black" stroke="black" points="319.37,-261.42 312.33,-253.5 312.9,-264.08 319.37,-261.42"/>
</g>
<!-- wayland&#45;session@Hyprland.target&#45;&gt;wayland&#45;session&#45;shutdown.target -->
<g id="edge64" class="edge">
<title>wayland&#45;session@Hyprland.target&#45;&gt;wayland&#45;session&#45;shutdown.target</title>
<path fill="none" stroke="red" d="M381.95,-323.51C414.44,-333.45 454.78,-346.19 487.24,-356.75"/>
<polygon fill="red" stroke="red" points="485.89,-359.99 496.49,-359.76 488.07,-353.33 485.89,-359.99"/>
</g>
<!-- wayland&#45;session&#45;pre@Hyprland.target&#45;&gt;shutdown.target -->
<g id="edge58" class="edge">
<title>wayland&#45;session&#45;pre@Hyprland.target&#45;&gt;shutdown.target</title>
<path fill="none" stroke="red" d="M205.77,-250.33C181.88,-258.19 157.95,-270.07 140,-288 110.67,-317.31 112,-335.53 112,-377 112,-451 112,-451 112,-451 112,-519.92 174.21,-516.5 239,-540 330.7,-573.26 600.11,-585.92 750.53,-590.53"/>
<polygon fill="red" stroke="red" points="749.98,-594.01 760.08,-590.82 750.19,-587.02 749.98,-594.01"/>
</g>
<!-- wayland&#45;session&#45;pre@Hyprland.target&#45;&gt;graphical&#45;session&#45;pre.target -->
<g id="edge56" class="edge">
<title>wayland&#45;session&#45;pre@Hyprland.target&#45;&gt;graphical&#45;session&#45;pre.target</title>
<path fill="none" stroke="gold" d="M355.22,-216.23C391.95,-205.84 440.56,-192.48 480.66,-181.74"/>
<polygon fill="gold" stroke="gold" points="481.51,-185.14 490.27,-179.18 479.7,-178.38 481.51,-185.14"/>
</g>
<!-- wayland&#45;session&#45;pre@Hyprland.target&#45;&gt;wayland&#45;session&#45;shutdown.target -->
<g id="edge57" class="edge">
<title>wayland&#45;session&#45;pre@Hyprland.target&#45;&gt;wayland&#45;session&#45;shutdown.target</title>
<path fill="none" stroke="red" d="M407.86,-249.68C457.2,-258.67 508.49,-271.59 526,-288 542.54,-303.5 549.37,-328.65 550.68,-348.27"/>
<polygon fill="red" stroke="red" points="547.18,-348.17 550.81,-358.12 554.18,-348.08 547.18,-348.17"/>
</g>
<!-- bluetooth.target&#45;&gt;shutdown.target -->
<g id="edge18" class="edge">
<title>bluetooth.target&#45;&gt;shutdown.target</title>
<path fill="none" stroke="red" d="M1334.83,-535.47C1324.87,-537.06 1314.69,-538.62 1305,-540 1182.37,-557.48 1040.01,-573.89 948.73,-583.69"/>
<polygon fill="red" stroke="red" points="948.38,-580.21 938.81,-584.75 949.13,-587.17 948.38,-580.21"/>
</g>
<!-- wayland&#45;session&#45;shutdown.target&#45;&gt;xdg&#45;desktop&#45;autostart.target -->
<g id="edge24" class="edge">
<title>wayland&#45;session&#45;shutdown.target&#45;&gt;xdg&#45;desktop&#45;autostart.target</title>
<path fill="none" stroke="green" d="M649.96,-392.85C671.71,-400.88 692.17,-413.2 706,-432 715.48,-444.89 714.49,-454.44 706,-468 697.34,-481.84 683.92,-492.16 669.66,-499.82"/>
<polygon fill="green" stroke="green" points="668.5,-496.49 661.07,-504.04 671.59,-502.78 668.5,-496.49"/>
</g>
<!-- wayland&#45;session&#45;shutdown.target&#45;&gt;xdg&#45;desktop&#45;autostart.target -->
<g id="edge30" class="edge">
<title>wayland&#45;session&#45;shutdown.target&#45;&gt;xdg&#45;desktop&#45;autostart.target</title>
<path fill="none" stroke="red" d="M664.4,-391.76C687.8,-399.75 709.53,-412.33 724,-432 733.48,-444.89 732.49,-454.44 724,-468 714.98,-482.41 700.8,-493.01 685.32,-500.76"/>
<polygon fill="red" stroke="red" points="684.04,-497.5 676.39,-504.83 686.94,-503.87 684.04,-497.5"/>
</g>
<!-- wayland&#45;session&#45;shutdown.target&#45;&gt;wayland&#45;session&#45;xdg&#45;autostart@Hyprland.target -->
<g id="edge28" class="edge">
<title>wayland&#45;session&#45;shutdown.target&#45;&gt;wayland&#45;session&#45;xdg&#45;autostart@Hyprland.target</title>
<path fill="none" stroke="green" d="M527.63,-396.35C516.87,-405.02 502.77,-415.65 489.55,-425.08"/>
<polygon fill="green" stroke="green" points="487.56,-422.21 481.39,-430.83 491.58,-427.94 487.56,-422.21"/>
</g>
<!-- wayland&#45;session&#45;shutdown.target&#45;&gt;graphical&#45;session.target -->
<g id="edge26" class="edge">
<title>wayland&#45;session&#45;shutdown.target&#45;&gt;graphical&#45;session.target</title>
<path fill="none" stroke="green" d="M563.27,-359.78C577.57,-349.51 597.5,-336.15 615,-324 646.6,-302.07 682.24,-276.39 708.81,-258.27"/>
<polygon fill="green" stroke="green" points="710.58,-261.29 716.91,-252.8 706.67,-255.49 710.58,-261.29"/>
</g>
<!-- wayland&#45;session&#45;shutdown.target&#45;&gt;graphical&#45;session.target -->
<g id="edge31" class="edge">
<title>wayland&#45;session&#45;shutdown.target&#45;&gt;graphical&#45;session.target</title>
<path fill="none" stroke="red" d="M578.58,-360.02C595.27,-349.72 615.36,-336.24 633,-324 664,-302.49 698.87,-277.37 722.17,-259.32"/>
<polygon fill="red" stroke="red" points="724.22,-262.16 729.92,-253.22 719.89,-256.66 724.22,-262.16"/>
</g>
<!-- wayland&#45;session&#45;shutdown.target&#45;&gt;graphical&#45;session&#45;pre.target -->
<g id="edge27" class="edge">
<title>wayland&#45;session&#45;shutdown.target&#45;&gt;graphical&#45;session&#45;pre.target</title>
<path fill="none" stroke="green" d="M539.07,-359.84C538.97,-349.47 540.25,-335.99 541,-324 543.9,-277.72 545.14,-223.85 548.1,-191.63"/>
<polygon fill="green" stroke="green" points="551.56,-192.23 549.16,-181.91 544.6,-191.47 551.56,-192.23"/>
</g>
<!-- wayland&#45;session&#45;shutdown.target&#45;&gt;graphical&#45;session&#45;pre.target -->
<g id="edge32" class="edge">
<title>wayland&#45;session&#45;shutdown.target&#45;&gt;graphical&#45;session&#45;pre.target</title>
<path fill="none" stroke="red" d="M554.72,-359.84C556.97,-349.47 558.25,-335.99 559,-324 561.9,-277.72 563.14,-223.85 561.21,-191.63"/>
<polygon fill="red" stroke="red" points="564.72,-191.61 560.43,-181.92 557.74,-192.16 564.72,-191.61"/>
</g>
<!-- wayland&#45;session&#45;shutdown.target&#45;&gt;wayland&#45;session@Hyprland.target -->
<g id="edge25" class="edge">
<title>wayland&#45;session&#45;shutdown.target&#45;&gt;wayland&#45;session@Hyprland.target</title>
<path fill="none" stroke="green" d="M487.08,-360.5C454.69,-350.59 414.49,-337.89 382.08,-327.36"/>
<polygon fill="green" stroke="green" points="383.44,-324.12 372.85,-324.35 381.27,-330.78 383.44,-324.12"/>
</g>
<!-- wayland&#45;session&#45;shutdown.target&#45;&gt;wayland&#45;session&#45;pre@Hyprland.target -->
<g id="edge29" class="edge">
<title>wayland&#45;session&#45;shutdown.target&#45;&gt;wayland&#45;session&#45;pre@Hyprland.target</title>
<path fill="none" stroke="green" d="M538.01,-359.63C533.78,-339.51 527.98,-306.72 508,-288 492.28,-273.27 449.35,-261.35 406.51,-252.57"/>
<polygon fill="green" stroke="green" points="407.32,-249.16 396.83,-250.64 405.95,-256.02 407.32,-249.16"/>
</g>
<!-- printer.target&#45;&gt;shutdown.target -->
<g id="edge33" class="edge">
<title>printer.target&#45;&gt;shutdown.target</title>
<path fill="none" stroke="red" d="M1536.8,-535.74C1527.9,-537.33 1518.73,-538.81 1510,-540 1315.85,-566.43 1086.96,-581.42 957.57,-588.31"/>
<polygon fill="red" stroke="red" points="957.44,-584.82 947.64,-588.84 957.81,-591.81 957.44,-584.82"/>
</g>
<!-- paths.target&#45;&gt;shutdown.target -->
<g id="edge55" class="edge">
<title>paths.target&#45;&gt;shutdown.target</title>
<path fill="none" stroke="red" d="M1005.16,-34.62C1042.95,-57.58 1100,-103.94 1100,-161 1100,-379 1100,-379 1100,-379 1100,-420.47 1097.66,-435.43 1072,-468 1031.44,-519.49 963.35,-554.56 914.16,-574.16"/>
<polygon fill="red" stroke="red" points="913.13,-570.8 905.07,-577.67 915.66,-577.33 913.13,-570.8"/>
</g>
<!-- sockets.target&#45;&gt;shutdown.target -->
<g id="edge66" class="edge">
<title>sockets.target&#45;&gt;shutdown.target</title>
<path fill="none" stroke="red" d="M1152.71,-36.05C1156,-62.71 1156,-115.89 1156,-161 1156,-379 1156,-379 1156,-379 1156,-468.78 1110.83,-493.55 1034,-540 1004.05,-558.11 967.35,-570.56 934.94,-578.83"/>
<polygon fill="red" stroke="red" points="934.48,-575.34 925.6,-581.11 936.15,-582.14 934.48,-575.34"/>
</g>
</g>
</svg>
