<?xml version="1.0" encoding="UTF-8" standalone="no"?>
<!DOCTYPE svg PUBLIC "-//W3C//DTD SVG 1.1//EN"
 "http://www.w3.org/Graphics/SVG/1.1/DTD/svg11.dtd">
<!-- Generated by graphviz version 12.2.1 (0)
 -->
<!-- Title: G Pages: 1 -->
<svg width="650pt" height="44pt"
 viewBox="0.00 0.00 650.39 44.00" xmlns="http://www.w3.org/2000/svg" xmlns:xlink="http://www.w3.org/1999/xlink">
<g id="graph0" class="graph" transform="scale(1 1) rotate(0) translate(4 40)">
<title>G</title>
<polygon fill="white" stroke="none" points="-4,4 -4,-40 646.39,-40 646.39,4 -4,4"/>
<!-- bassex -->
<g id="node1" class="node">
<title>bassex</title>
<ellipse fill="none" stroke="black" cx="45.42" cy="-18" rx="45.42" ry="18"/>
<text text-anchor="middle" x="45.42" y="-13.32" font-family="Times,serif" font-size="14.00">bassex</text>
</g>
<!-- el -->
<g id="node2" class="node">
<title>el</title>
<ellipse fill="none" stroke="black" cx="153.84" cy="-18" rx="27" ry="18"/>
<text text-anchor="middle" x="153.84" y="-13.32" font-family="Times,serif" font-size="14.00">el</text>
</g>
<!-- bassex&#45;&gt;el -->
<g id="edge1" class="edge">
<title>bassex&#45;&gt;el</title>
<path fill="none" stroke="black" d="M91.24,-18C99.24,-18 107.5,-18 115.27,-18"/>
<polygon fill="black" stroke="black" points="115.07,-21.5 125.07,-18 115.07,-14.5 115.07,-21.5"/>
</g>
<!-- fw13eq -->
<g id="node3" class="node">
<title>fw13eq</title>
<ellipse fill="none" stroke="black" cx="264.89" cy="-18" rx="48.05" ry="18"/>
<text text-anchor="middle" x="264.89" y="-13.32" font-family="Times,serif" font-size="14.00">fw13eq</text>
</g>
<!-- el&#45;&gt;fw13eq -->
<g id="edge2" class="edge">
<title>el&#45;&gt;fw13eq</title>
<path fill="none" stroke="black" d="M181.24,-18C188.52,-18 196.72,-18 205.06,-18"/>
<polygon fill="black" stroke="black" points="204.92,-21.5 214.92,-18 204.92,-14.5 204.92,-21.5"/>
</g>
<!-- woofer_bp -->
<g id="node4" class="node">
<title>woofer_bp</title>
<ellipse fill="none" stroke="black" cx="411.73" cy="-18" rx="62.78" ry="18"/>
<text text-anchor="middle" x="411.73" y="-13.32" font-family="Times,serif" font-size="14.00">woofer_bp</text>
</g>
<!-- fw13eq&#45;&gt;woofer_bp -->
<g id="edge3" class="edge">
<title>fw13eq&#45;&gt;woofer_bp</title>
<path fill="none" stroke="black" d="M313.32,-18C321,-18 329.11,-18 337.24,-18"/>
<polygon fill="black" stroke="black" points="337.18,-21.5 347.18,-18 337.18,-14.5 337.18,-21.5"/>
</g>
<!-- woofer_lim -->
<g id="node5" class="node">
<title>woofer_lim</title>
<ellipse fill="none" stroke="black" cx="576.45" cy="-18" rx="65.94" ry="18"/>
<text text-anchor="middle" x="576.45" y="-13.32" font-family="Times,serif" font-size="14.00">woofer_lim</text>
</g>
<!-- woofer_bp&#45;&gt;woofer_lim -->
<g id="edge4" class="edge">
<title>woofer_bp&#45;&gt;woofer_lim</title>
<path fill="none" stroke="black" d="M474.71,-18C482.58,-18 490.72,-18 498.79,-18"/>
<polygon fill="black" stroke="black" points="498.61,-21.5 508.61,-18 498.61,-14.5 498.61,-21.5"/>
</g>
</g>
</svg>
