<?xml version="1.0" encoding="UTF-8" standalone="no"?>
<!DOCTYPE svg PUBLIC "-//W3C//DTD SVG 1.1//EN"
 "http://www.w3.org/Graphics/SVG/1.1/DTD/svg11.dtd">
<!-- Generated by graphviz version 12.2.1 (0)
 -->
<!-- Title: Guix reverse&#45;package Pages: 1 -->
<svg width="601pt" height="332pt"
 viewBox="0.00 0.00 601.12 332.00" xmlns="http://www.w3.org/2000/svg" xmlns:xlink="http://www.w3.org/1999/xlink">
<g id="graph0" class="graph" transform="scale(1 1) rotate(0) translate(4 328)">
<title>Guix reverse&#45;package</title>
<polygon fill="white" stroke="none" points="-4,4 -4,-328 597.12,-328 597.12,4 -4,4"/>
<!-- 140545220651072 -->
<g id="node1" class="node">
<title>140545220651072</title>
<polygon fill="none" stroke="black" points="254.5,-324 138,-324 138,-288 254.5,-288 254.5,-324"/>
<text text-anchor="middle" x="196.25" y="-301.32" font-family="sans" font-size="14.00">antlr4@4.10.1</text>
</g>
<!-- 140545204212768 -->
<g id="node2" class="node">
<title>140545204212768</title>
<polygon fill="none" stroke="black" points="158.5,-252 0,-252 0,-216 158.5,-216 158.5,-252"/>
<text text-anchor="middle" x="79.25" y="-229.32" font-family="sans" font-size="14.00">python&#45;afdko@4.0.2</text>
</g>
<!-- 140545220651072&#45;&gt;140545204212768 -->
<g id="edge1" class="edge">
<title>140545220651072&#45;&gt;140545204212768</title>
<path fill="none" stroke="red" d="M167.03,-287.52C152.12,-278.6 133.79,-267.63 117.74,-258.03"/>
<polygon fill="red" stroke="red" points="119.78,-255.17 109.4,-253.04 116.18,-261.18 119.78,-255.17"/>
</g>
<!-- 140545199666032 -->
<g id="node3" class="node">
<title>140545199666032</title>
<polygon fill="none" stroke="black" points="451.62,-252 176.88,-252 176.88,-216 451.62,-216 451.62,-252"/>
<text text-anchor="middle" x="314.25" y="-229.32" font-family="sans" font-size="14.00">python&#45;omegaconf@2.3.0&#45;0.117f7de</text>
</g>
<!-- 140545220651072&#45;&gt;140545199666032 -->
<g id="edge2" class="edge">
<title>140545220651072&#45;&gt;140545199666032</title>
<path fill="none" stroke="red" d="M225.72,-287.52C240.76,-278.6 259.24,-267.63 275.43,-258.03"/>
<polygon fill="red" stroke="red" points="277.04,-261.15 283.85,-253.03 273.47,-255.12 277.04,-261.15"/>
</g>
<!-- 140545204318384 -->
<g id="node4" class="node">
<title>140545204318384</title>
<polygon fill="none" stroke="black" points="148.75,-180 9.75,-180 9.75,-144 148.75,-144 148.75,-180"/>
<text text-anchor="middle" x="79.25" y="-157.32" font-family="sans" font-size="14.00">nototools@0.2.16</text>
</g>
<!-- 140545204212768&#45;&gt;140545204318384 -->
<g id="edge3" class="edge">
<title>140545204212768&#45;&gt;140545204318384</title>
<path fill="none" stroke="red" d="M79.25,-215.7C79.25,-208.41 79.25,-199.73 79.25,-191.54"/>
<polygon fill="red" stroke="red" points="82.75,-191.62 79.25,-181.62 75.75,-191.62 82.75,-191.62"/>
</g>
<!-- 140545237033488 -->
<g id="node5" class="node">
<title>140545237033488</title>
<polygon fill="none" stroke="black" points="460.12,-108 218.38,-108 218.38,-72 460.12,-72 460.12,-108"/>
<text text-anchor="middle" x="339.25" y="-85.33" font-family="sans" font-size="14.00">python&#45;commonroad&#45;io@2022.3</text>
</g>
<!-- 140545199666032&#45;&gt;140545237033488 -->
<g id="edge4" class="edge">
<title>140545199666032&#45;&gt;140545237033488</title>
<path fill="none" stroke="darkgoldenrod" d="M291.39,-215.73C281,-206.43 269.81,-193.99 264.25,-180 258.34,-165.13 256.89,-158.21 264.25,-144 270.44,-132.05 280.69,-122.23 291.66,-114.42"/>
<polygon fill="darkgoldenrod" stroke="darkgoldenrod" points="293.25,-117.56 299.7,-109.16 289.42,-111.7 293.25,-117.56"/>
</g>
<!-- 140545237033664 -->
<g id="node6" class="node">
<title>140545237033664</title>
<polygon fill="none" stroke="black" points="593.12,-180 273.38,-180 273.38,-144 593.12,-144 593.12,-180"/>
<text text-anchor="middle" x="433.25" y="-157.32" font-family="sans" font-size="14.00">python&#45;commonroad&#45;vehicle&#45;models@3.0.2</text>
</g>
<!-- 140545199666032&#45;&gt;140545237033664 -->
<g id="edge5" class="edge">
<title>140545199666032&#45;&gt;140545237033664</title>
<path fill="none" stroke="darkgoldenrod" d="M343.97,-215.52C359.14,-206.6 377.78,-195.63 394.1,-186.03"/>
<polygon fill="darkgoldenrod" stroke="darkgoldenrod" points="395.76,-189.11 402.6,-181.03 392.21,-183.08 395.76,-189.11"/>
</g>
<!-- 140545237033312 -->
<g id="node7" class="node">
<title>140545237033312</title>
<polygon fill="none" stroke="black" points="501.38,-36 177.12,-36 177.12,0 501.38,0 501.38,-36"/>
<text text-anchor="middle" x="339.25" y="-13.32" font-family="sans" font-size="14.00">python&#45;commonroad&#45;route&#45;planner@2022.3</text>
</g>
<!-- 140545237033488&#45;&gt;140545237033312 -->
<g id="edge6" class="edge">
<title>140545237033488&#45;&gt;140545237033312</title>
<path fill="none" stroke="darkgoldenrod" d="M339.25,-71.7C339.25,-64.41 339.25,-55.73 339.25,-47.54"/>
<polygon fill="darkgoldenrod" stroke="darkgoldenrod" points="342.75,-47.62 339.25,-37.62 335.75,-47.62 342.75,-47.62"/>
</g>
<!-- 140545237033664&#45;&gt;140545237033488 -->
<g id="edge7" class="edge">
<title>140545237033664&#45;&gt;140545237033488</title>
<path fill="none" stroke="#8b7765" d="M410.01,-143.7C398.38,-135.03 384.1,-124.4 371.43,-114.96"/>
<polygon fill="#8b7765" stroke="#8b7765" points="373.87,-112.42 363.76,-109.25 369.69,-118.03 373.87,-112.42"/>
</g>
</g>
</svg>
