<?xml version="1.0" encoding="UTF-8"?>
<svg xmlns="http://www.w3.org/2000/svg" version="1.1" viewBox="0 0 1165.0624536475966 1366.4288166628469" width="1165.0624536475966" height="1366.4288166628469">
  <!-- svg-source:excalidraw -->
  <defs>
    <style class="style-fonts">
      @font-face {
        font-family: "Virgil";
        src: url("https://excalidraw.com/Virgil.woff2");
      }
      @font-face {
        font-family: "Cascadia";
        src: url("https://excalidraw.com/Cascadia.woff2");
      }
      @font-face {
        font-family: "Assistant";
        src: url("https://excalidraw.com/Assistant-Regular.woff2");
      }
    </style>
  </defs>
  <g stroke-linecap="round" transform="translate(331.1036310508325 10) rotate(0 127.45860990310507 56.62317845426105)">
    <path d="M28.31 0 C77.4 -1.12, 127.72 0.33, 226.61 0 C242.98 -1.9, 253.95 10.78, 254.92 28.31 C258.82 45.49, 255.83 65.24, 254.92 84.93 C256.37 102.93, 242.72 110.9, 226.61 113.25 C173.12 107.87, 115.02 110.18, 28.31 113.25 C7.61 115.69, -0.22 104.88, 0 84.93 C2.07 67.09, 2.68 52.32, 0 28.31 C-1.44 9.28, 11.6 -3.24, 28.31 0" stroke="none" stroke-width="0" fill="#a5d8ff"></path>
    <path d="M28.31 0 C92.28 1.02, 153.23 0.5, 226.61 0 M28.31 0 C103.23 0.85, 177.78 2.74, 226.61 0 M226.61 0 C244.09 0.7, 256.67 9.25, 254.92 28.31 M226.61 0 C247.43 -0.78, 255.82 11.6, 254.92 28.31 M254.92 28.31 C256.42 43.75, 256.37 57.27, 254.92 84.93 M254.92 28.31 C254.76 42.97, 255.33 58.5, 254.92 84.93 M254.92 84.93 C256.08 102.13, 246.87 112.69, 226.61 113.25 M254.92 84.93 C253.42 104.04, 243.48 114.33, 226.61 113.25 M226.61 113.25 C153.05 113.71, 80.77 111.06, 28.31 113.25 M226.61 113.25 C155.84 112.89, 85.01 113.31, 28.31 113.25 M28.31 113.25 C8.24 114.51, -0.07 102.19, 0 84.93 M28.31 113.25 C9.59 114.23, 1.77 103.26, 0 84.93 M0 84.93 C1.27 72.53, -1.57 56.33, 0 28.31 M0 84.93 C-0.64 66.32, 0.43 46.95, 0 28.31 M0 28.31 C-0.94 10.94, 11.16 -1.5, 28.31 0 M0 28.31 C1.37 9.43, 10.31 -2.17, 28.31 0" stroke="#1e1e1e" stroke-width="2" fill="none"></path>
  </g>
  <g transform="translate(336.2624362664378 43.62317845426105) rotate(0 122.2998046875 23)">
    <text x="122.2998046875" y="18.400390625" font-family="Helvetica, Segoe UI Emoji" font-size="20px" fill="#1e1e1e" text-anchor="middle" style="white-space: pre;" direction="ltr">I want to develop a game in</text>
    <text x="122.2998046875" y="41.400390625" font-family="Helvetica, Segoe UI Emoji" font-size="20px" fill="#1e1e1e" text-anchor="middle" style="white-space: pre;" direction="ltr">LISP</text>
  </g>
  <a href="https://github.com/electronstudio/jaylib">
    <g stroke-linecap="round" transform="translate(931.5299900785108 1074.7074082551303) rotate(0 87.45555809872553 21.5)">
      <path d="M10.75 0 C46.4 -4.8, 83.96 0.13, 164.16 0 C167.89 2.84, 176.97 1.22, 174.91 10.75 C174.2 12.76, 176.63 22.83, 174.91 32.25 C172.95 39.97, 174.62 40.25, 164.16 43 C127.17 42.51, 80.61 41.18, 10.75 43 C6.89 45.01, 1.67 41.19, 0 32.25 C1.41 25.68, -0.59 25.08, 0 10.75 C-0.78 2.5, 7.06 2.1, 10.75 0" stroke="none" stroke-width="0" fill="#b2f2bb"></path>
      <path d="M10.75 0 C50.98 -0.12, 94.7 1.54, 164.16 0 M10.75 0 C55.76 0.13, 99.87 -0.01, 164.16 0 M164.16 0 C172.12 -1.32, 175.17 5.49, 174.91 10.75 M164.16 0 C172.37 2.25, 174.53 2.9, 174.91 10.75 M174.91 10.75 C176.15 19.7, 174.85 26.98, 174.91 32.25 M174.91 10.75 C175.44 14.8, 174.23 18.82, 174.91 32.25 M174.91 32.25 C175.5 38.72, 171.33 41.58, 164.16 43 M174.91 32.25 C175.32 38.9, 171.54 42.1, 164.16 43 M164.16 43 C135.01 42.76, 103.08 43.85, 10.75 43 M164.16 43 C119.72 42.87, 73.5 41.52, 10.75 43 M10.75 43 C3.96 42.44, 1.8 37.7, 0 32.25 M10.75 43 C3.25 42.14, 1.21 41.67, 0 32.25 M0 32.25 C-1.08 28.55, 1.28 20.37, 0 10.75 M0 32.25 C0.78 26.58, 0.73 22.15, 0 10.75 M0 10.75 C-0.79 1.92, 2.65 1.7, 10.75 0 M0 10.75 C-0.39 5.01, 4.95 -0.73, 10.75 0" stroke="#1e1e1e" stroke-width="2" fill="none"></path>
    </g>
  </a>
  <g transform="translate(993.4191419272365 1084.7074082551303) rotate(0 25.56640625 11.5)">
    <text x="25.56640625" y="18.400390625" font-family="Helvetica, Segoe UI Emoji" font-size="20px" fill="#1e1e1e" text-anchor="middle" style="white-space: pre;" direction="ltr">Jaylib</text>
  </g>
  <a href="https://tic80.com/">
    <g stroke-linecap="round" transform="translate(981.2255725916721 136.27145799954246) rotate(0 84.3884946974897 21.5)">
      <path d="M10.75 0 C68.65 0.71, 119.81 3.46, 158.03 0 C163.63 0.63, 171.75 5.28, 168.78 10.75 C167.51 13.99, 168.73 19.62, 168.78 32.25 C170.32 36.01, 168.14 42.85, 158.03 43 C111.19 44.38, 63.4 41.98, 10.75 43 C2.16 41.24, 1.9 37.84, 0 32.25 C-0.98 25.84, 2.95 13.03, 0 10.75 C2.41 4.89, 5.63 -2.13, 10.75 0" stroke="none" stroke-width="0" fill="#b2f2bb"></path>
      <path d="M10.75 0 C45.58 -0.24, 78.7 2.2, 158.03 0 M10.75 0 C52.31 -0.69, 92.08 -2.38, 158.03 0 M158.03 0 C166.25 -1.81, 170.42 5.38, 168.78 10.75 M158.03 0 C165.76 0, 168.37 1.53, 168.78 10.75 M168.78 10.75 C170.8 18.08, 168.55 24.83, 168.78 32.25 M168.78 10.75 C169.78 15.54, 169.25 21.27, 168.78 32.25 M168.78 32.25 C170.16 38.99, 165.64 43.26, 158.03 43 M168.78 32.25 C168.17 37.36, 163.65 42.01, 158.03 43 M158.03 43 C110.24 41.12, 59.48 42.88, 10.75 43 M158.03 43 C103.19 42.29, 50.11 43.35, 10.75 43 M10.75 43 C5.38 44.2, 0.13 38.35, 0 32.25 M10.75 43 C2.34 42.93, -1.45 38.32, 0 32.25 M0 32.25 C-1.39 28.29, 0.74 21.51, 0 10.75 M0 32.25 C-0.54 24.48, 0.42 18.21, 0 10.75 M0 10.75 C-1.7 4.45, 5.46 -0.88, 10.75 0 M0 10.75 C-0.82 4.68, 3.16 1.28, 10.75 0" stroke="#1e1e1e" stroke-width="2" fill="none"></path>
    </g>
  </a>
  <g transform="translate(1041.160942289162 146.27145799954246) rotate(0 24.453125 11.5)">
    <text x="24.453125" y="18.400390625" font-family="Helvetica, Segoe UI Emoji" font-size="20px" fill="#1e1e1e" text-anchor="middle" style="white-space: pre;" direction="ltr">tic-80</text>
  </g>
  <a href="https://github.com/dparis/phzr">
    <g stroke-linecap="round" transform="translate(37.1513135450914 676.4957656214241) rotate(0 84.08636606393543 25.6931410696574)">
      <path d="M12.85 0 C51.38 1.88, 100.21 1.59, 155.33 0 C165.93 0.76, 171.59 2.25, 168.17 12.85 C165.56 22.37, 168.55 26.38, 168.17 38.54 C167.41 44.61, 164.83 51.13, 155.33 51.39 C114.97 48.07, 76.21 48.95, 12.85 51.39 C3.69 53.56, 2.71 44.59, 0 38.54 C-3.43 28.41, -3.62 25.11, 0 12.85 C2.99 4.1, 0.96 -0.1, 12.85 0" stroke="none" stroke-width="0" fill="#e9ecef"></path>
      <path d="M12.85 0 C56.25 0.66, 97.56 0.37, 155.33 0 M12.85 0 C53.38 0.44, 93.45 -0.16, 155.33 0 M155.33 0 C165.14 1.36, 168.19 5.69, 168.17 12.85 M155.33 0 C163.83 -0.14, 166.46 5.71, 168.17 12.85 M168.17 12.85 C166.38 19.45, 168.58 25.96, 168.17 38.54 M168.17 12.85 C168.17 19.62, 168.98 25.92, 168.17 38.54 M168.17 38.54 C167.35 48.76, 163.17 50.18, 155.33 51.39 M168.17 38.54 C166.79 45.53, 163.38 49.92, 155.33 51.39 M155.33 51.39 C126.89 48.96, 94.64 49.88, 12.85 51.39 M155.33 51.39 C105.17 51.62, 54.61 51.21, 12.85 51.39 M12.85 51.39 C4.5 51.73, -1.11 45.92, 0 38.54 M12.85 51.39 C4.39 49.69, -2.07 48.23, 0 38.54 M0 38.54 C-1.87 28.95, -0.05 19.55, 0 12.85 M0 38.54 C0.51 31.41, -1.07 25.35, 0 12.85 M0 12.85 C0.61 6.16, 5.22 -0.24, 12.85 0 M0 12.85 C-0.16 5.04, 2.53 -1.36, 12.85 0" stroke="#1e1e1e" stroke-width="2" fill="none"></path>
    </g>
  </a>
  <g transform="translate(101.78455460902705 690.6889066910815) rotate(0 19.453125 11.5)">
    <text x="19.453125" y="18.400390625" font-family="Helvetica, Segoe UI Emoji" font-size="20px" fill="#1e1e1e" text-anchor="middle" style="white-space: pre;" direction="ltr">phzr</text>
  </g>
  <g stroke-linecap="round" transform="translate(285.7995950395407 166.71625848783128) rotate(0 172.76264591439667 107)">
    <path d="M216.25 27 C246.06 46.22, 269.85 58.46, 302.28 81 C343.58 107.02, 348.49 110.54, 302.28 135 C274.06 151.14, 251.56 166.98, 216.25 187 C176.48 217.4, 174.55 213.16, 129.75 187 C112.22 178.14, 87.74 164.22, 43.25 135 C3.46 105.21, -1.97 106.78, 43.25 81 C68.48 63.95, 100.44 44.91, 129.75 27 C175 -0.68, 170.57 2.32, 216.25 27" stroke="none" stroke-width="0" fill="#a5d8ff"></path>
    <path d="M216.25 27 C247.73 47.39, 275.98 65.42, 302.28 81 M216.25 27 C242.83 43.55, 270.26 60.37, 302.28 81 M302.28 81 C345.94 109.32, 345.29 106.49, 302.28 135 M302.28 81 C343.29 106.4, 346.38 109.91, 302.28 135 M302.28 135 C275.98 150.62, 252.36 166.71, 216.25 187 M302.28 135 C281.62 148.14, 259.59 161.24, 216.25 187 M216.25 187 C174.85 213.42, 174.1 215.89, 129.75 187 M216.25 187 C173.84 213.8, 170.89 215.43, 129.75 187 M129.75 187 C95.85 166.57, 59.37 145.38, 43.25 135 M129.75 187 C110.9 176.07, 92.7 164.74, 43.25 135 M43.25 135 C-1.18 108.96, 1.11 107.64, 43.25 81 M43.25 135 C-1.03 109.97, 1.2 109.67, 43.25 81 M43.25 81 C73.19 61.72, 102.22 46.88, 129.75 27 M43.25 81 C69.12 65.47, 93.09 51.18, 129.75 27 M129.75 27 C171.92 -0.5, 174.08 1.33, 216.25 27 M129.75 27 C174.31 0, 171.79 0.22, 216.25 27" stroke="#1e1e1e" stroke-width="2" fill="none"></path>
  </g>
  <g transform="translate(390.873300809239 250.71625848783128) rotate(0 67.8076171875 23)">
    <text x="67.8076171875" y="18.400390625" font-family="Helvetica, Segoe UI Emoji" font-size="20px" fill="#1e1e1e" text-anchor="middle" style="white-space: pre;" direction="ltr">Stay in Clojure </text>
    <text x="67.8076171875" y="41.400390625" font-family="Helvetica, Segoe UI Emoji" font-size="20px" fill="#1e1e1e" text-anchor="middle" style="white-space: pre;" direction="ltr">Land?</text>
  </g>
  <g stroke-linecap="round" transform="translate(296.5297392372977 445.6328679331657) rotate(0 172.76264591439667 68.87159533073935)">
    <path d="M216.25 17.25 C241.42 24.76, 258.43 33.94, 302.28 51.75 C342.55 68.29, 345.76 69.23, 302.28 86.25 C279.1 94.18, 252.44 104.49, 216.25 120.49 C176.43 136.97, 176.55 137.71, 129.75 120.49 C105.86 109.38, 79.74 101.56, 43.25 86.25 C1.9 67.88, 3.05 70.95, 43.25 51.75 C62.93 43.17, 84.01 33.08, 129.75 17.25 C173.96 -1.07, 173.61 3.41, 216.25 17.25" stroke="none" stroke-width="0" fill="#a5d8ff"></path>
    <path d="M216.25 17.25 C248.95 28.97, 276.75 42.19, 302.28 51.75 M216.25 17.25 C237.09 25.16, 258.14 32.45, 302.28 51.75 M302.28 51.75 C345.18 68.25, 344.18 68.52, 302.28 86.25 M302.28 51.75 C343.63 67.69, 346.71 67.3, 302.28 86.25 M302.28 86.25 C271.25 98.02, 242.51 109.44, 216.25 120.49 M302.28 86.25 C274.96 97.1, 248.97 107.74, 216.25 120.49 M216.25 120.49 C173.31 136.62, 173.91 137.25, 129.75 120.49 M216.25 120.49 C171.85 135.89, 174.47 137.02, 129.75 120.49 M129.75 120.49 C98.86 107.17, 68.26 98.26, 43.25 86.25 M129.75 120.49 C112.38 113.35, 93.84 107.04, 43.25 86.25 M43.25 86.25 C0.21 70.19, 0.58 70.39, 43.25 51.75 M43.25 86.25 C-0.07 69.72, -2.02 70.8, 43.25 51.75 M43.25 51.75 C63.9 43.25, 80.93 36.85, 129.75 17.25 M43.25 51.75 C68.32 41.95, 91.98 32.24, 129.75 17.25 M129.75 17.25 C174.05 1.43, 171 -1.49, 216.25 17.25 M129.75 17.25 C171.99 1.29, 173.46 1.02, 216.25 17.25" stroke="#1e1e1e" stroke-width="2" fill="none"></path>
  </g>
  <g transform="translate(414.933523131996 503.0686655985354) rotate(0 54.4775390625 11.5)">
    <text x="54.4775390625" y="18.400390625" font-family="Helvetica, Segoe UI Emoji" font-size="20px" fill="#1e1e1e" text-anchor="middle" style="white-space: pre;" direction="ltr">Java interop</text>
  </g>
  <a href="https://github.com/arcadia-unity/ArcadiaGodot">
    <g stroke-linecap="round" transform="translate(35.9779949613976 1119.5811398489352) rotate(0 104.60059510185397 37.5)">
      <path d="M18.75 0 C61.34 -2.04, 108.2 -2.69, 190.45 0 C204.26 -3.18, 210.7 6.06, 209.2 18.75 C208.16 30.17, 208 41.56, 209.2 56.25 C211.89 69.75, 201.77 73.43, 190.45 75 C143.02 71.47, 101.75 71.8, 18.75 75 C3.99 72.03, 1.08 68.31, 0 56.25 C-3.46 47.73, -0.58 37.19, 0 18.75 C2.77 9.02, 9.1 -1.4, 18.75 0" stroke="none" stroke-width="0" fill="#e9ecef"></path>
      <path d="M18.75 0 C71.06 1.9, 123.58 -0.37, 190.45 0 M18.75 0 C69.59 2.2, 120.58 1.41, 190.45 0 M190.45 0 C202.45 0.06, 208.74 5.06, 209.2 18.75 M190.45 0 C202.82 1.98, 210.34 8.23, 209.2 18.75 M209.2 18.75 C209.56 34.36, 209.2 48.41, 209.2 56.25 M209.2 18.75 C209.28 28.86, 208.98 39.87, 209.2 56.25 M209.2 56.25 C209.18 70.71, 203.34 76.03, 190.45 75 M209.2 56.25 C211.07 69.13, 204.46 73.46, 190.45 75 M190.45 75 C123.91 74.36, 55.65 74.01, 18.75 75 M190.45 75 C136.42 76.53, 81.66 76.05, 18.75 75 M18.75 75 C5.17 74.74, 0.12 67.71, 0 56.25 M18.75 75 C5.82 74.83, 1.21 67.92, 0 56.25 M0 56.25 C0.52 42.93, -1.46 27.4, 0 18.75 M0 56.25 C-1.07 42.67, -0.15 30.4, 0 18.75 M0 18.75 C0.45 8.08, 6.49 0.41, 18.75 0 M0 18.75 C-0.31 5.72, 5.51 0.36, 18.75 0" stroke="#1e1e1e" stroke-width="2" fill="none"></path>
    </g>
  </a>
  <g transform="translate(58.87448850075134 1134.0811398489352) rotate(0 81.7041015625 23)">
    <text x="81.7041015625" y="18.400390625" font-family="Helvetica, Segoe UI Emoji" font-size="20px" fill="#1e1e1e" text-anchor="middle" style="white-space: pre;" direction="ltr">Arcadia (Godot or </text>
    <text x="81.7041015625" y="41.400390625" font-family="Helvetica, Segoe UI Emoji" font-size="20px" fill="#1e1e1e" text-anchor="middle" style="white-space: pre;" direction="ltr">Unity)</text>
  </g>
  <g stroke-linecap="round" transform="translate(285.7995950395407 884.86228732738) rotate(0 172.76264591439667 106.42099641412989)">
    <path d="M216.25 26.75 C241.1 37.24, 263.34 55.94, 302.28 80.25 C346.82 104.96, 345.48 108.43, 302.28 133.75 C275.73 149.21, 249.57 170.5, 216.25 186.09 C171.53 212.28, 170.31 214.09, 129.75 186.09 C109.92 174.22, 80.19 156.43, 43.25 133.75 C-2.02 109.45, 1.4 107.95, 43.25 80.25 C63.44 66.92, 84.54 51.23, 129.75 26.75 C175.4 2.26, 174.63 2.3, 216.25 26.75" stroke="none" stroke-width="0" fill="#a5d8ff"></path>
    <path d="M216.25 26.75 C235.21 39.09, 252.4 48.39, 302.28 80.25 M216.25 26.75 C236.83 40.09, 255.72 51.31, 302.28 80.25 M302.28 80.25 C343.6 108.73, 344.06 108.09, 302.28 133.75 M302.28 80.25 C346.44 104.8, 344.5 105.37, 302.28 133.75 M302.28 133.75 C277.63 149.59, 247.64 165.09, 216.25 186.09 M302.28 133.75 C269.44 154.6, 236.16 173.42, 216.25 186.09 M216.25 186.09 C173.34 212.33, 174.42 211.04, 129.75 186.09 M216.25 186.09 C173.19 213.05, 173.8 212.23, 129.75 186.09 M129.75 186.09 C105.95 169.84, 77.39 156.46, 43.25 133.75 M129.75 186.09 C108.94 173.73, 89.46 161.48, 43.25 133.75 M43.25 133.75 C1.63 108.54, 0.44 108.71, 43.25 80.25 M43.25 133.75 C-0.8 106.53, -1.1 106.5, 43.25 80.25 M43.25 80.25 C67.46 65.87, 93.78 49.82, 129.75 26.75 M43.25 80.25 C61.54 68.43, 82.54 56.58, 129.75 26.75 M129.75 26.75 C174.7 0.33, 172.93 -0.75, 216.25 26.75 M129.75 26.75 C173.12 1.36, 173.59 1.22, 216.25 26.75" stroke="#1e1e1e" stroke-width="2" fill="none"></path>
  </g>
  <g transform="translate(406.434824246739 979.572785534445) rotate(0 52.24609375 11.5)">
    <text x="52.24609375" y="18.400390625" font-family="Helvetica, Segoe UI Emoji" font-size="20px" fill="#1e1e1e" text-anchor="middle" style="white-space: pre;" direction="ltr">Dart interop</text>
  </g>
  <a href="https://docs.flame-engine.org/latest/index.html">
    <g stroke-linecap="round" transform="translate(30.442021817274963 973.5889219501005) rotate(0 85.31013962005045 37.5)">
      <path d="M18.75 0 C70.67 0.72, 118.69 3.68, 151.87 0 C160.84 -2.18, 167.17 8.33, 170.62 18.75 C170.43 25.35, 168.48 34.48, 170.62 56.25 C170.78 67.02, 163.11 74.03, 151.87 75 C116.79 77.99, 75.52 74.82, 18.75 75 C9.19 75.94, 1.22 67.57, 0 56.25 C-0.74 51.92, 2.11 42.42, 0 18.75 C2.76 9.07, 4.34 3.03, 18.75 0" stroke="none" stroke-width="0" fill="#b2f2bb"></path>
      <path d="M18.75 0 C68.18 -1.38, 114.05 -1.71, 151.87 0 M18.75 0 C55.49 -0.94, 93.71 0.47, 151.87 0 M151.87 0 C163.76 1.17, 169.88 7.34, 170.62 18.75 M151.87 0 C162.9 2.26, 168.45 6.2, 170.62 18.75 M170.62 18.75 C168.63 29.96, 172.34 38.11, 170.62 56.25 M170.62 18.75 C171.38 28.43, 171.02 38.69, 170.62 56.25 M170.62 56.25 C169.13 69.63, 164.09 75.31, 151.87 75 M170.62 56.25 C170.7 67.33, 163.84 73.62, 151.87 75 M151.87 75 C110.21 76.18, 70.95 73.85, 18.75 75 M151.87 75 C117.75 73.64, 83.46 74.46, 18.75 75 M18.75 75 C6.75 76.5, 1.04 67.77, 0 56.25 M18.75 75 C4.04 74.07, -2.3 70.09, 0 56.25 M0 56.25 C1.16 45.37, 0.39 34.98, 0 18.75 M0 56.25 C-0.1 42.22, -0.63 29.23, 0 18.75 M0 18.75 C1.73 8.23, 6.2 -0.39, 18.75 0 M0 18.75 C-1.44 5.24, 5.96 0.55, 18.75 0" stroke="#1e1e1e" stroke-width="2" fill="none"></path>
    </g>
  </a>
  <g transform="translate(50.19063799982541 999.5889219501005) rotate(0 65.5615234375 11.5)">
    <text x="65.5615234375" y="18.400390625" font-family="Helvetica, Segoe UI Emoji" font-size="20px" fill="#1e1e1e" text-anchor="middle" style="white-space: pre;" direction="ltr">Flutter (Flame)</text>
  </g>
  <a href="https://github.com/rutenkolk/raylib-clj">
    <g stroke-linecap="round" transform="translate(66.98631272254852 1209.7479255382175) rotate(0 76.38056000610368 22.8336003662165)">
      <path d="M11.42 0 C45.5 -2.19, 79.9 -2.44, 141.34 0 C150.48 -2.26, 156.07 1.89, 152.76 11.42 C155.56 18.52, 151.26 30.29, 152.76 34.25 C153.07 38.39, 152.1 46.46, 141.34 45.67 C110.56 49.39, 75.85 47.01, 11.42 45.67 C3.82 45.29, -2.62 38.73, 0 34.25 C2.44 28.49, 2.86 21.94, 0 11.42 C2.47 6.46, 7.04 3.15, 11.42 0" stroke="none" stroke-width="0" fill="#e9ecef"></path>
      <path d="M11.42 0 C45.62 0.38, 78.72 -1.41, 141.34 0 M11.42 0 C61.81 0.87, 110.92 1.23, 141.34 0 M141.34 0 C150.72 -0.08, 151.07 4.31, 152.76 11.42 M141.34 0 C146.81 0.87, 150.47 1.84, 152.76 11.42 M152.76 11.42 C151.47 17.74, 154.52 21.65, 152.76 34.25 M152.76 11.42 C151.83 16.95, 151.82 23.2, 152.76 34.25 M152.76 34.25 C151.19 41.93, 149.05 46.67, 141.34 45.67 M152.76 34.25 C153.41 41.19, 149.33 46.42, 141.34 45.67 M141.34 45.67 C96.66 45.72, 51.98 47.22, 11.42 45.67 M141.34 45.67 C104.19 46.61, 66.12 47.01, 11.42 45.67 M11.42 45.67 C2.3 46.09, -1.9 41.14, 0 34.25 M11.42 45.67 C1.52 46.36, -1.53 42.16, 0 34.25 M0 34.25 C-0.31 26.31, -1.48 19.98, 0 11.42 M0 34.25 C0.17 28.48, -0.66 23.29, 0 11.42 M0 11.42 C-0.44 4.18, 3.97 -1.78, 11.42 0 M0 11.42 C0.75 3.35, 3.29 -0.29, 11.42 0" stroke="#1e1e1e" stroke-width="2" fill="none"></path>
    </g>
  </a>
  <g transform="translate(102.8053492911522 1221.0815259044339) rotate(0 40.5615234375 11.5)">
    <text x="40.5615234375" y="18.400390625" font-family="Helvetica, Segoe UI Emoji" font-size="20px" fill="#1e1e1e" text-anchor="middle" style="white-space: pre;" direction="ltr">Raylib-clj</text>
  </g>
  <g stroke-linecap="round" transform="translate(285.7995950395407 617.1457999542204) rotate(0 172.76264591439667 106.42099641412989)">
    <path d="M216.25 26.75 C238.55 41.77, 260.83 50.83, 302.28 80.25 C346.94 104.98, 342.99 106.66, 302.28 133.75 C276.54 151.15, 250.33 159.99, 216.25 186.09 C174.68 209.51, 169.51 209.86, 129.75 186.09 C96.11 171.75, 70.78 148.88, 43.25 133.75 C1.82 109.64, -0.36 106.28, 43.25 80.25 C74.3 61.44, 106.54 44.6, 129.75 26.75 C173.44 -1.1, 170.09 -1.72, 216.25 26.75" stroke="none" stroke-width="0" fill="#a5d8ff"></path>
    <path d="M216.25 26.75 C249.83 49.17, 282.36 68.43, 302.28 80.25 M216.25 26.75 C235.87 38.77, 255.07 50.85, 302.28 80.25 M302.28 80.25 C344.11 106.91, 345.28 106.8, 302.28 133.75 M302.28 80.25 C346.28 106.75, 347.56 109.15, 302.28 133.75 M302.28 133.75 C267.83 153.76, 233.69 173.9, 216.25 186.09 M302.28 133.75 C273.7 150.38, 245.61 167.9, 216.25 186.09 M216.25 186.09 C171.74 213.22, 171.11 212.83, 129.75 186.09 M216.25 186.09 C174.88 215.12, 173.88 213.83, 129.75 186.09 M129.75 186.09 C98.26 166.2, 62.47 144.56, 43.25 133.75 M129.75 186.09 C98.03 165.94, 64.32 145.8, 43.25 133.75 M43.25 133.75 C-0.15 107.13, -1.13 106.55, 43.25 80.25 M43.25 133.75 C0.25 105.89, -1.73 107.47, 43.25 80.25 M43.25 80.25 C76.93 60.61, 111.26 40.12, 129.75 26.75 M43.25 80.25 C62.97 68.38, 80.4 57.7, 129.75 26.75 M129.75 26.75 C173.73 -0.25, 173.35 1.27, 216.25 26.75 M129.75 26.75 C171 1.04, 171.2 0.66, 216.25 26.75" stroke="#1e1e1e" stroke-width="2" fill="none"></path>
  </g>
  <g transform="translate(413.656503934239 711.8562981612853) rotate(0 45.0244140625 11.5)">
    <text x="45.0244140625" y="18.400390625" font-family="Helvetica, Segoe UI Emoji" font-size="20px" fill="#1e1e1e" text-anchor="middle" style="white-space: pre;" direction="ltr">JS interop</text>
  </g>
  <a href="https://github.com/oakes/play-cljs">
    <g stroke-linecap="round" transform="translate(33.28325169444042 740.2876325627504) rotate(0 87.98962386511016 23.26085297932397)">
      <path d="M11.63 0 C72.81 -0.44, 128.05 -3.92, 164.35 0 C174.64 -2.46, 178.79 5.38, 175.98 11.63 C175.49 23.09, 177.47 30.15, 175.98 34.89 C177.84 43.05, 170.09 47.44, 164.35 46.52 C132.58 49.79, 96.58 45.76, 11.63 46.52 C2.51 48.62, -1.08 44.35, 0 34.89 C-0.35 30.71, -0.21 22.1, 0 11.63 C0.36 6.73, 2.9 1.04, 11.63 0" stroke="none" stroke-width="0" fill="#e9ecef"></path>
      <path d="M11.63 0 C57.2 -2.87, 100.17 0.42, 164.35 0 M11.63 0 C45.45 -0.27, 79.39 -0.73, 164.35 0 M164.35 0 C172.34 0.95, 174.79 3.18, 175.98 11.63 M164.35 0 C173.1 -1.8, 174.93 4.92, 175.98 11.63 M175.98 11.63 C177.04 22.55, 177.74 31.68, 175.98 34.89 M175.98 11.63 C176.87 19.92, 175.66 28.11, 175.98 34.89 M175.98 34.89 C175.79 42.87, 172.19 47.76, 164.35 46.52 M175.98 34.89 C174 41.67, 171.35 47.96, 164.35 46.52 M164.35 46.52 C130.14 46.33, 99.97 45.88, 11.63 46.52 M164.35 46.52 C111.56 46.67, 59.09 47.07, 11.63 46.52 M11.63 46.52 C4.71 48.06, 0.04 42.21, 0 34.89 M11.63 46.52 C2.63 46.06, -0.53 44.76, 0 34.89 M0 34.89 C0.19 30, -1.55 25.23, 0 11.63 M0 34.89 C-0.31 28.32, -0.25 18.87, 0 11.63 M0 11.63 C-1.14 4.21, 5.59 0.97, 11.63 0 M0 11.63 C0.35 5.92, 4.59 -2.23, 11.63 0" stroke="#1e1e1e" stroke-width="2" fill="none"></path>
    </g>
  </a>
  <g transform="translate(85.15471149705081 752.0484855420744) rotate(0 36.1181640625 11.5)">
    <text x="36.1181640625" y="18.400390625" font-family="Helvetica, Segoe UI Emoji" font-size="20px" fill="#1e1e1e" text-anchor="middle" style="white-space: pre;" direction="ltr">play-cljs</text>
  </g>
  <a href="https://github.com/Shirakumo/trial">
    <g stroke-linecap="round" transform="translate(956.6127702722979 418.2276646066982) rotate(0 69.01960784313701 21.5)">
      <path d="M10.75 0 C46.09 -1.51, 80.73 2.74, 127.29 0 C133.95 3.12, 140.6 1.52, 138.04 10.75 C141.29 21.57, 134.64 27.78, 138.04 32.25 C139.36 39.34, 132.36 46.36, 127.29 43 C93.66 43.84, 57.71 43.65, 10.75 43 C3.04 44.41, 1.36 42.13, 0 32.25 C-3.21 22.96, -1.11 14.41, 0 10.75 C-1.09 5.35, 6.71 1.78, 10.75 0" stroke="none" stroke-width="0" fill="#b2f2bb"></path>
      <path d="M10.75 0 C53.5 0.21, 100.21 0.84, 127.29 0 M10.75 0 C34.39 -0.14, 58.25 -1.74, 127.29 0 M127.29 0 C133.83 2, 137.28 2.79, 138.04 10.75 M127.29 0 C136.67 -1, 137.13 4.07, 138.04 10.75 M138.04 10.75 C137.31 14.54, 137.14 20.52, 138.04 32.25 M138.04 10.75 C138.17 15.39, 138.75 18.93, 138.04 32.25 M138.04 32.25 C137.19 38.23, 133.77 42.44, 127.29 43 M138.04 32.25 C139.48 38.77, 134.36 44.48, 127.29 43 M127.29 43 C85.94 42.02, 46.1 42.86, 10.75 43 M127.29 43 C85.65 42.66, 46.26 43.45, 10.75 43 M10.75 43 C4.21 41.62, -1.69 38.11, 0 32.25 M10.75 43 C3.23 40.87, -0.34 38.85, 0 32.25 M0 32.25 C-0.59 27.26, -0.36 16.8, 0 10.75 M0 32.25 C0.53 27.45, -0.4 23.69, 0 10.75 M0 10.75 C-1.15 5.52, 2.25 -1.15, 10.75 0 M0 10.75 C-2.27 1.95, 2.04 2.18, 10.75 0" stroke="#1e1e1e" stroke-width="2" fill="none"></path>
    </g>
  </a>
  <g transform="translate(1006.5552296779347 428.2276646066982) rotate(0 19.0771484375 11.5)">
    <text x="19.0771484375" y="18.400390625" font-family="Helvetica, Segoe UI Emoji" font-size="20px" fill="#1e1e1e" text-anchor="middle" style="white-space: pre;" direction="ltr">Trial</text>
  </g>
  <g stroke-linecap="round" transform="translate(661.3445929624659 354.7257190814063) rotate(0 119.16075379568133 95.63782711528188)">
    <path d="M150 24 C173.78 39.11, 194.65 57.42, 208.32 72 C238.02 92.77, 241.87 96.68, 208.32 120 C186.33 133.32, 169.91 156.08, 150 167.28 C118.89 194.87, 120.54 191.98, 90 167.28 C73.62 154.54, 65.42 142.57, 30 120 C-3.15 98.21, -0.43 96.18, 30 72 C52.83 53.88, 79.93 32.37, 90 24 C119.65 -2.09, 120.49 0.31, 150 24" stroke="none" stroke-width="0" fill="#a5d8ff"></path>
    <path d="M150 24 C164.92 38.03, 182 50.29, 208.32 72 M150 24 C168.06 39.41, 186.12 53.79, 208.32 72 M208.32 72 C239 94.91, 237.68 96.38, 208.32 120 M208.32 72 C238.46 93.98, 236.58 95.9, 208.32 120 M208.32 120 C187.96 137.78, 163.21 154.04, 150 167.28 M208.32 120 C187.1 138.59, 164.2 156.34, 150 167.28 M150 167.28 C118.05 191.65, 119.15 192.79, 90 167.28 M150 167.28 C122.03 189, 120.51 189.39, 90 167.28 M90 167.28 C66.72 146.85, 41.58 129.05, 30 120 M90 167.28 C73.53 155.79, 57.08 142.92, 30 120 M30 120 C1.18 96.04, -0.86 97.89, 30 72 M30 120 C1.16 96.61, -1.04 95.59, 30 72 M30 72 C48.49 55.56, 69.5 41.98, 90 24 M30 72 C50.51 57.05, 69.58 41.78, 90 24 M90 24 C121.42 0.16, 119.44 0.84, 150 24 M90 24 C119.53 0.25, 120.91 1.59, 150 24" stroke="#1e1e1e" stroke-width="2" fill="none"></path>
  </g>
  <g transform="translate(734.3019229853066 427.5446326390472) rotate(0 46.123046875 23)">
    <text x="46.123046875" y="18.400390625" font-family="Helvetica, Segoe UI Emoji" font-size="20px" fill="#1e1e1e" text-anchor="middle" style="white-space: pre;" direction="ltr"> Common </text>
    <text x="46.123046875" y="41.400390625" font-family="Helvetica, Segoe UI Emoji" font-size="20px" fill="#1e1e1e" text-anchor="middle" style="white-space: pre;" direction="ltr">Lisp</text>
  </g>
  <a href="https://github.com/ertugrulcetin/jme-clj">
    <g stroke-linecap="round" transform="translate(42.16705424269685 483.5454337376949) rotate(0 90.62638284885952 21.753261615930455)">
      <path d="M10.88 0 C45.63 3.39, 80.41 2.15, 170.38 0 C178.28 1.45, 181.84 6.26, 181.25 10.88 C177.46 16.58, 178.94 26.03, 181.25 32.63 C179.79 41.44, 179.15 46.13, 170.38 43.51 C110.9 44.4, 55.7 40.19, 10.88 43.51 C4.11 44.19, 2.41 43.25, 0 32.63 C-0.38 26.24, 0.93 19.2, 0 10.88 C-1.01 5.99, 4.53 -1.47, 10.88 0" stroke="none" stroke-width="0" fill="#b2f2bb"></path>
      <path d="M10.88 0 C48.08 1.31, 81.65 -0.99, 170.38 0 M10.88 0 C54.44 0.55, 96.84 1.29, 170.38 0 M170.38 0 C177.63 1.68, 179.82 4.83, 181.25 10.88 M170.38 0 C177.4 -0.42, 180.06 3.8, 181.25 10.88 M181.25 10.88 C182.25 18.41, 179.51 24.63, 181.25 32.63 M181.25 10.88 C180.81 17.14, 180.37 24.16, 181.25 32.63 M181.25 32.63 C179.79 41, 177.61 45.02, 170.38 43.51 M181.25 32.63 C180.05 42.17, 177.67 45.62, 170.38 43.51 M170.38 43.51 C110.41 42.02, 48.2 42.61, 10.88 43.51 M170.38 43.51 C125.43 43.12, 80.91 43.51, 10.88 43.51 M10.88 43.51 C2.45 44.91, 1.92 41.77, 0 32.63 M10.88 43.51 C5.05 42.25, -1.22 38.36, 0 32.63 M0 32.63 C-1.71 22.96, -0.24 17.62, 0 10.88 M0 32.63 C0.13 26.1, 0.45 19.39, 0 10.88 M0 10.88 C-1.05 2.29, 4.94 -0.72, 10.88 0 M0 10.88 C-1.67 4.91, 4.25 -2.16, 10.88 0" stroke="#1e1e1e" stroke-width="2" fill="none"></path>
    </g>
  </a>
  <g transform="translate(103.90671834155637 493.79869535362536) rotate(0 28.88671875 11.5)">
    <text x="28.88671875" y="18.400390625" font-family="Helvetica, Segoe UI Emoji" font-size="20px" fill="#1e1e1e" text-anchor="middle" style="white-space: pre;" direction="ltr">jme-clj</text>
  </g>
  <a href="https://github.com/oakes/play-clj">
    <g stroke-linecap="round" transform="translate(47.4771938627473 543.1746395056055) rotate(0 84.81574731059754 21.280231937132783)">
      <path d="M10.64 0 C58.71 -1.82, 99 -1.73, 158.99 0 C167.9 1.18, 172.01 5.62, 169.63 10.64 C168.62 17.18, 167.32 23.23, 169.63 31.92 C173.03 41.84, 162.77 39.65, 158.99 42.56 C123.04 43.95, 91.09 43.69, 10.64 42.56 C3.43 44.88, -2.39 37.8, 0 31.92 C-1.05 25.31, 1.41 18.4, 0 10.64 C1.13 1.51, 3.43 3.21, 10.64 0" stroke="none" stroke-width="0" fill="#e9ecef"></path>
      <path d="M10.64 0 C54.98 -1.13, 100.17 -1.11, 158.99 0 M10.64 0 C45.39 -0.75, 79.54 -0.86, 158.99 0 M158.99 0 C167.15 -1.2, 168.72 4.9, 169.63 10.64 M158.99 0 C167.71 -2.04, 169.3 1.55, 169.63 10.64 M169.63 10.64 C167.91 17.7, 167.93 24.29, 169.63 31.92 M169.63 10.64 C170.57 14.31, 170.18 18.66, 169.63 31.92 M169.63 31.92 C168.25 40.79, 166.04 42.46, 158.99 42.56 M169.63 31.92 C170.88 39.95, 167.2 44.1, 158.99 42.56 M158.99 42.56 C118.93 43.8, 82.44 42.31, 10.64 42.56 M158.99 42.56 C128.74 41.53, 98.02 41.52, 10.64 42.56 M10.64 42.56 C1.79 42.14, -0.85 39.06, 0 31.92 M10.64 42.56 C3.94 42.4, -0.67 40.74, 0 31.92 M0 31.92 C-0.21 28.49, 0.35 20.87, 0 10.64 M0 31.92 C-0.39 27.42, 0.27 22.07, 0 10.64 M0 10.64 C1.4 4.79, 5.08 -1.56, 10.64 0 M0 10.64 C2.2 3.76, 3.64 -1.98, 10.64 0" stroke="#1e1e1e" stroke-width="2" fill="none"></path>
    </g>
  </a>
  <g transform="translate(101.17477711084484 552.9548714427383) rotate(0 31.1181640625 11.5)">
    <text x="31.1181640625" y="18.400390625" font-family="Helvetica, Segoe UI Emoji" font-size="20px" fill="#1e1e1e" text-anchor="middle" style="white-space: pre;" direction="ltr">play-clj</text>
  </g>
  <a href="https://dthompson.us/projects/chickadee.html">
    <g stroke-linecap="round" transform="translate(941.2103135697716 610.9275481309948) rotate(0 89.44838635843462 21.5)">
      <path d="M10.75 0 C60.69 -0.87, 111.55 0.9, 168.15 0 C172.75 0.82, 181.31 3.43, 178.9 10.75 C178.57 18.64, 179.99 25.87, 178.9 32.25 C177.02 39.24, 173.89 39.48, 168.15 43 C114.12 43.41, 57.86 41.01, 10.75 43 C3.52 45.51, -3.56 37.36, 0 32.25 C-2.54 28.58, -0.05 21.54, 0 10.75 C-1.29 2.13, 0.66 -0.32, 10.75 0" stroke="none" stroke-width="0" fill="#e9ecef"></path>
      <path d="M10.75 0 C62.2 -2.57, 111.56 0.31, 168.15 0 M10.75 0 C49.11 -0.55, 86.77 -0.75, 168.15 0 M168.15 0 C174.25 1.95, 179.84 2.06, 178.9 10.75 M168.15 0 C173.47 0.34, 180.91 3.56, 178.9 10.75 M178.9 10.75 C179.08 16, 178.61 22.05, 178.9 32.25 M178.9 10.75 C178.25 16.88, 179.34 25.34, 178.9 32.25 M178.9 32.25 C178.13 38.37, 176.68 44.02, 168.15 43 M178.9 32.25 C177.79 39.5, 176.43 41.27, 168.15 43 M168.15 43 C105.59 45.8, 45.59 43.56, 10.75 43 M168.15 43 C115.36 41.76, 63.58 42.56, 10.75 43 M10.75 43 C3.63 41.41, -1.35 39.72, 0 32.25 M10.75 43 C3.08 44.81, 0.63 40.08, 0 32.25 M0 32.25 C1.54 26.61, -2.09 21.8, 0 10.75 M0 32.25 C-0.93 28.51, -0.73 22.9, 0 10.75 M0 10.75 C-0.29 5.58, 4.69 1.82, 10.75 0 M0 10.75 C-0.95 3.76, 5.37 -0.55, 10.75 0" stroke="#1e1e1e" stroke-width="2" fill="none"></path>
    </g>
  </a>
  <g transform="translate(988.4077233657063 620.9275481309948) rotate(0 42.2509765625 11.5)">
    <text x="42.2509765625" y="18.400390625" font-family="Helvetica, Segoe UI Emoji" font-size="20px" fill="#1e1e1e" text-anchor="middle" style="white-space: pre;" direction="ltr">Chikadee</text>
  </g>
  <g stroke-linecap="round">
    <g transform="translate(457.1102721105226 123.93472953383491) rotate(0 0.06532861294840586 21.211808946459314)">
      <path d="M-0.37 0.17 C-0.38 7.09, 0.33 34.8, 0.45 41.92 M0.44 -0.22 C0.35 6.72, 0.24 35.31, 0.19 42.36" stroke="#2f9e44" stroke-width="2" fill="none"></path>
    </g>
    <g transform="translate(457.1102721105226 123.93472953383491) rotate(0 0.06532861294840586 21.211808946459314)">
      <path d="M-6.96 22.39 C-3.82 30.71, -2.29 38.21, 0.19 42.36 M-6.96 22.39 C-3.91 30.4, -1.89 37.84, 0.19 42.36" stroke="#2f9e44" stroke-width="2" fill="none"></path>
    </g>
    <g transform="translate(457.1102721105226 123.93472953383491) rotate(0 0.06532861294840586 21.211808946459314)">
      <path d="M7.55 22.47 C5.09 30.71, 1.02 38.18, 0.19 42.36 M7.55 22.47 C4.99 30.44, 1.41 37.85, 0.19 42.36" stroke="#2f9e44" stroke-width="2" fill="none"></path>
    </g>
  </g>
  <mask></mask>
  <g stroke-linecap="round">
    <g transform="translate(460.7160177770188 380.5585848487334) rotate(0 1.9016579936715061 32.51002749762665)">
      <path d="M-0.37 -0.34 C0.56 10.38, 4.06 53.61, 4.81 64.5 M1.64 -1.57 C2.57 9.29, 4.07 54.44, 4.39 65.77" stroke="#2f9e44" stroke-width="2" fill="none"></path>
    </g>
    <g transform="translate(460.7160177770188 380.5585848487334) rotate(0 1.9016579936715061 32.51002749762665)">
      <path d="M-4.91 42.57 C-3.23 49.8, -1.31 54.26, 4.39 65.77 M-4.91 42.57 C-1.94 49.81, 0.09 57.07, 4.39 65.77" stroke="#2f9e44" stroke-width="2" fill="none"></path>
    </g>
    <g transform="translate(460.7160177770188 380.5585848487334) rotate(0 1.9016579936715061 32.51002749762665)">
      <path d="M12.18 42.01 C9.8 49.32, 7.66 53.92, 4.39 65.77 M12.18 42.01 C9.98 49.5, 6.84 56.93, 4.39 65.77" stroke="#2f9e44" stroke-width="2" fill="none"></path>
    </g>
  </g>
  <mask></mask>
  <g stroke-linecap="round">
    <g transform="translate(297.2531156787627 503.65937275046645) rotate(0 -32.27521825180679 -3.2920545873723768)">
      <path d="M-0.45 0.43 C-11.22 -0.76, -53.16 -6.16, -63.72 -7.16 M1.51 -0.38 C-9.43 -1.42, -53.28 -4.77, -64.23 -5.92" stroke="#2f9e44" stroke-width="2" fill="none"></path>
    </g>
    <g transform="translate(297.2531156787627 503.65937275046645) rotate(0 -32.27521825180679 -3.2920545873723768)">
      <path d="M-40.08 -12.36 C-48.41 -8.65, -59.15 -6.42, -64.23 -5.92 M-40.08 -12.36 C-48.59 -9.27, -58.96 -7.14, -64.23 -5.92" stroke="#2f9e44" stroke-width="2" fill="none"></path>
    </g>
    <g transform="translate(297.2531156787627 503.65937275046645) rotate(0 -32.27521825180679 -3.2920545873723768)">
      <path d="M-41.59 4.68 C-49.36 2, -59.53 -2.16, -64.23 -5.92 M-41.59 4.68 C-49.51 1.14, -59.29 -3.36, -64.23 -5.92" stroke="#2f9e44" stroke-width="2" fill="none"></path>
    </g>
  </g>
  <mask></mask>
  <g stroke-linecap="round">
    <g transform="translate(467.31106054759084 583.6627380319946) rotate(0 0.7423707242357978 19.30619424208419)">
      <path d="M-0.52 0.4 C-0.24 6.87, 1.05 32.47, 1.38 38.81 M0.21 0.13 C0.44 6.44, 0.75 31.48, 0.89 37.94" stroke="#e03131" stroke-width="2" fill="none"></path>
    </g>
    <g transform="translate(467.31106054759084 583.6627380319946) rotate(0 0.7423707242357978 19.30619424208419)">
      <path d="M-6.02 19.9 C-3.64 24.13, -2.32 28.59, 0.89 37.94 M-6.02 19.9 C-4.13 24.8, -2.8 29.98, 0.89 37.94" stroke="#e03131" stroke-width="2" fill="none"></path>
    </g>
    <g transform="translate(467.31106054759084 583.6627380319946) rotate(0 0.7423707242357978 19.30619424208419)">
      <path d="M7.2 19.68 C6.37 23.9, 4.48 28.41, 0.89 37.94 M7.2 19.68 C5.54 24.63, 3.33 29.87, 0.89 37.94" stroke="#e03131" stroke-width="2" fill="none"></path>
    </g>
  </g>
  <mask></mask>
  <g stroke-linecap="round">
    <g transform="translate(287.7434688244589 721.1948790056997) rotate(0 -36.23170159051324 15.847157954728573)">
      <path d="M0.22 -1 C-12.18 4.33, -61.39 27.49, -73.6 32.89 M-1.12 1.09 C-13.24 6.04, -59.32 26.14, -71.48 31.39" stroke="#2f9e44" stroke-width="2" fill="none"></path>
    </g>
    <g transform="translate(287.7434688244589 721.1948790056997) rotate(0 -36.23170159051324 15.847157954728573)">
      <path d="M-53.33 14.2 C-61.56 18.67, -64.58 25.97, -71.48 31.39 M-53.33 14.2 C-58.02 19.59, -62.43 23.39, -71.48 31.39" stroke="#2f9e44" stroke-width="2" fill="none"></path>
    </g>
    <g transform="translate(287.7434688244589 721.1948790056997) rotate(0 -36.23170159051324 15.847157954728573)">
      <path d="M-46.53 29.89 C-57.37 28.6, -62.9 30.12, -71.48 31.39 M-46.53 29.89 C-53.15 30.95, -59.44 30.42, -71.48 31.39" stroke="#2f9e44" stroke-width="2" fill="none"></path>
    </g>
  </g>
  <mask></mask>
  <g stroke-linecap="round">
    <g transform="translate(456.81967431430485 830.0888797747953) rotate(0 1.955392692217174 27.46726015105355)">
      <path d="M0.24 -0.92 C0.84 8.1, 3.94 45.22, 4.43 54.68 M-1.09 1.22 C-0.67 10.36, 2.62 47.29, 3.76 56.08" stroke="#e03131" stroke-width="2" fill="none"></path>
    </g>
    <g transform="translate(456.81967431430485 830.0888797747953) rotate(0 1.955392692217174 27.46726015105355)">
      <path d="M-7.2 33.61 C-4.58 42.74, 0.56 48.96, 3.76 56.08 M-7.2 33.61 C-2.85 41.21, 1.18 49.72, 3.76 56.08" stroke="#e03131" stroke-width="2" fill="none"></path>
    </g>
    <g transform="translate(456.81967431430485 830.0888797747953) rotate(0 1.955392692217174 27.46726015105355)">
      <path d="M9.81 31.82 C6.17 41.65, 5.03 48.52, 3.76 56.08 M9.81 31.82 C7.78 40.05, 5.46 49.22, 3.76 56.08" stroke="#e03131" stroke-width="2" fill="none"></path>
    </g>
  </g>
  <mask></mask>
  <g stroke-linecap="round">
    <g transform="translate(284.998211487708 989.651204164285) rotate(0 -38.41565491761503 6.963637342172085)">
      <path d="M-0.13 0.62 C-12.88 2.93, -64.23 11.81, -76.87 14.2 M-1.65 -0.1 C-14.53 1.8, -65.39 10.01, -77.84 12.23" stroke="#2f9e44" stroke-width="2" fill="none"></path>
    </g>
    <g transform="translate(284.998211487708 989.651204164285) rotate(0 -38.41565491761503 6.963637342172085)">
      <path d="M-56.09 -0.1 C-60.88 3.14, -67.33 7.95, -77.84 12.23 M-56.09 -0.1 C-64.73 4.04, -72.32 10.27, -77.84 12.23" stroke="#2f9e44" stroke-width="2" fill="none"></path>
    </g>
    <g transform="translate(284.998211487708 989.651204164285) rotate(0 -38.41565491761503 6.963637342172085)">
      <path d="M-53.25 16.76 C-58.86 15.45, -66.07 15.71, -77.84 12.23 M-53.25 16.76 C-63.04 14.33, -71.73 14.01, -77.84 12.23" stroke="#2f9e44" stroke-width="2" fill="none"></path>
    </g>
  </g>
  <mask></mask>
  <g stroke-linecap="round">
    <g transform="translate(599.0005113583843 252.28940686095916) rotate(0 29.760556471883092 -3.6465308773124434)">
      <path d="M-0.66 1.13 C9.14 0.13, 48.91 -5.46, 58.93 -6.83 M1.2 0.67 C11.39 -0.61, 51.75 -7.65, 61.33 -8.71" stroke="#e03131" stroke-width="2" fill="none"></path>
    </g>
    <g transform="translate(599.0005113583843 252.28940686095916) rotate(0 29.760556471883092 -3.6465308773124434)">
      <path d="M39.34 3.17 C48.14 -1.39, 53.86 -4.18, 61.33 -8.71 M39.34 3.17 C47.3 -1.5, 53.81 -3.63, 61.33 -8.71" stroke="#e03131" stroke-width="2" fill="none"></path>
    </g>
    <g transform="translate(599.0005113583843 252.28940686095916) rotate(0 29.760556471883092 -3.6465308773124434)">
      <path d="M36.84 -13.75 C46.3 -13.03, 52.79 -10.57, 61.33 -8.71 M36.84 -13.75 C45.45 -13.09, 52.75 -9.89, 61.33 -8.71" stroke="#e03131" stroke-width="2" fill="none"></path>
    </g>
  </g>
  <mask></mask>
  <g stroke-linecap="round">
    <g transform="translate(900.2596905881887 451.16938133585734) rotate(0 24.597627718971353 -1.8033691978415618)">
      <path d="M-0.2 -0.16 C7.94 -0.61, 41.15 -2.58, 49.35 -3.16 M0.7 -0.72 C8.74 -1.27, 41.03 -3.5, 49 -3.89" stroke="#2f9e44" stroke-width="2" fill="none"></path>
    </g>
    <g transform="translate(900.2596905881887 451.16938133585734) rotate(0 24.597627718971353 -1.8033691978415618)">
      <path d="M26.37 5.93 C34.92 2.43, 44.82 -2.07, 49 -3.89 M26.37 5.93 C33.12 3.16, 40.06 0.52, 49 -3.89" stroke="#2f9e44" stroke-width="2" fill="none"></path>
    </g>
    <g transform="translate(900.2596905881887 451.16938133585734) rotate(0 24.597627718971353 -1.8033691978415618)">
      <path d="M25.35 -10.91 C34.22 -7.86, 44.52 -5.82, 49 -3.89 M25.35 -10.91 C32.36 -8.75, 39.61 -6.46, 49 -3.89" stroke="#2f9e44" stroke-width="2" fill="none"></path>
    </g>
  </g>
  <mask></mask>
  <a href="https://github.com/massung/r-cade">
    <g stroke-linecap="round" transform="translate(930.8738521369496 678.2169832913708) rotate(0 95.37804226749086 21.5)">
      <path d="M10.75 0 C73.58 -4.65, 139.19 -3.74, 180.01 0 C188.53 -1.2, 193.85 1.86, 190.76 10.75 C191.14 16.78, 188.68 21.01, 190.76 32.25 C190.41 42.76, 185.8 41.28, 180.01 43 C119.24 41.97, 54.93 42.93, 10.75 43 C3.57 45.12, -2.55 42.78, 0 32.25 C-0.99 24.52, -0.44 22.71, 0 10.75 C-1.94 7.04, 4.3 -1.34, 10.75 0" stroke="none" stroke-width="0" fill="#e9ecef"></path>
      <path d="M10.75 0 C71.78 2.4, 129.01 1.91, 180.01 0 M10.75 0 C47.06 1.4, 81.21 1.04, 180.01 0 M180.01 0 C186.56 -0.5, 190.69 5.46, 190.76 10.75 M180.01 0 C187.77 0.94, 190.97 4.36, 190.76 10.75 M190.76 10.75 C189.93 16.91, 189.05 24.73, 190.76 32.25 M190.76 10.75 C191.51 17.32, 191.58 25.2, 190.76 32.25 M190.76 32.25 C192.08 40.9, 186.15 42.54, 180.01 43 M190.76 32.25 C190.7 38.02, 186.38 42.58, 180.01 43 M180.01 43 C136.86 42.62, 90.52 42.66, 10.75 43 M180.01 43 C137.46 43.76, 97.39 43.67, 10.75 43 M10.75 43 C2.61 42.87, 1.52 41.29, 0 32.25 M10.75 43 C4.23 44.31, 2.29 39.76, 0 32.25 M0 32.25 C-0.68 25.25, -0.4 18.35, 0 10.75 M0 32.25 C0.94 26.87, 1.19 22.38, 0 10.75 M0 10.75 C-1.04 2.92, 3.36 1.62, 10.75 0 M0 10.75 C1.37 2.11, 4.36 -0.34, 10.75 0" stroke="#1e1e1e" stroke-width="2" fill="none"></path>
    </g>
  </a>
  <g transform="translate(994.0155662794405 688.2169832913708) rotate(0 32.236328125 11.5)">
    <text x="32.236328125" y="18.400390625" font-family="Helvetica, Segoe UI Emoji" font-size="20px" fill="#1e1e1e" text-anchor="middle" style="white-space: pre;" direction="ltr">R-cade</text>
  </g>
  <a href="https://github.com/quil/quil">
    <g stroke-linecap="round" transform="translate(10 303.49202716105765) rotate(0 90.67541023697231 26.44303225906458)">
      <path d="M13.22 0 C70.59 1.62, 128.37 4.42, 168.13 0 C175.76 -2.74, 178.41 7.27, 181.35 13.22 C178.8 24.37, 183.76 27.32, 181.35 39.66 C184.31 47.63, 173.71 55.22, 168.13 52.89 C114.38 56.19, 56.17 51.79, 13.22 52.89 C5.82 55.47, -2.51 48.18, 0 39.66 C-3.55 36.35, 1.33 30.68, 0 13.22 C-3.19 5.96, 2.47 3.17, 13.22 0" stroke="none" stroke-width="0" fill="#b2f2bb"></path>
      <path d="M13.22 0 C57.36 -3, 101.24 -2.56, 168.13 0 M13.22 0 C51.93 0.5, 88.67 -0.03, 168.13 0 M168.13 0 C175.91 1.69, 182.8 2.48, 181.35 13.22 M168.13 0 C177.52 -1.39, 180.32 3, 181.35 13.22 M181.35 13.22 C182.49 17.01, 179.52 26.01, 181.35 39.66 M181.35 13.22 C182.32 21.4, 181.17 30.67, 181.35 39.66 M181.35 39.66 C179.68 46.8, 175.59 53.92, 168.13 52.89 M181.35 39.66 C181.77 48.97, 176.96 50.97, 168.13 52.89 M168.13 52.89 C132.99 50.77, 98.34 53.61, 13.22 52.89 M168.13 52.89 C137.1 54.31, 104.75 52.8, 13.22 52.89 M13.22 52.89 C4.84 54.72, -0.43 50.05, 0 39.66 M13.22 52.89 C5.43 51.2, 0.74 46.53, 0 39.66 M0 39.66 C-0.23 31.91, -0.04 23.38, 0 13.22 M0 39.66 C-0.11 30.9, 0.55 23.48, 0 13.22 M0 13.22 C1.49 4.52, 2.44 0.69, 13.22 0 M0 13.22 C-0.56 2.36, 2.24 0.96, 13.22 0" stroke="#1e1e1e" stroke-width="2" fill="none"></path>
    </g>
  </a>
  <g transform="translate(52.33068367447231 318.43505942012223) rotate(0 48.3447265625 11.5)">
    <text x="48.3447265625" y="18.400390625" font-family="Helvetica, Segoe UI Emoji" font-size="20px" fill="#1e1e1e" text-anchor="middle" style="white-space: pre;" direction="ltr">Quil (Quip)</text>
  </g>
  <a href="https://github.com/damn/gdl">
    <g stroke-linecap="round" transform="translate(39.92988123231726 421.0981031206917) rotate(0 95.09744125534598 25.17407577731359)">
      <path d="M12.59 0 C54.73 1.53, 97.56 -3.15, 177.61 0 C187.38 0.79, 189.73 5.57, 190.19 12.59 C190.06 23.77, 191.62 30.44, 190.19 37.76 C193.13 47.87, 185.03 47.1, 177.61 50.35 C117.34 51.73, 58.31 51.97, 12.59 50.35 C1.6 46.95, 1.27 45.11, 0 37.76 C0.68 33.21, -1.38 24.89, 0 12.59 C0.54 1.24, 1.14 -1.54, 12.59 0" stroke="none" stroke-width="0" fill="#b2f2bb"></path>
      <path d="M12.59 0 C79.02 -0.04, 144.59 0.63, 177.61 0 M12.59 0 C62.65 -0.75, 113.81 0.3, 177.61 0 M177.61 0 C186.06 -0.03, 190.33 3.9, 190.19 12.59 M177.61 0 C184.08 0.26, 191.94 4.42, 190.19 12.59 M190.19 12.59 C189.5 20.16, 188.65 29.95, 190.19 37.76 M190.19 12.59 C189.33 18.94, 190.81 25.34, 190.19 37.76 M190.19 37.76 C189.48 46.19, 184.25 50.28, 177.61 50.35 M190.19 37.76 C191.23 44.25, 187.57 48.9, 177.61 50.35 M177.61 50.35 C139.27 48.5, 100.46 49.05, 12.59 50.35 M177.61 50.35 C128.81 49.72, 80.96 49.99, 12.59 50.35 M12.59 50.35 C3.43 48.49, 0.6 45.98, 0 37.76 M12.59 50.35 C5.21 52.03, 0.29 47.85, 0 37.76 M0 37.76 C-0.19 30.99, 1.71 25.51, 0 12.59 M0 37.76 C0.25 32.8, -0.1 26.12, 0 12.59 M0 12.59 C1.97 3.93, 4.4 -0.33, 12.59 0 M0 12.59 C-0.93 2.71, 6.46 -1.77, 12.59 0" stroke="#1e1e1e" stroke-width="2" fill="none"></path>
    </g>
  </a>
  <g transform="translate(121.68259592516324 434.7721788980052) rotate(0 13.3447265625 11.5)">
    <text x="13.3447265625" y="18.400390625" font-family="Helvetica, Segoe UI Emoji" font-size="20px" fill="#1e1e1e" text-anchor="middle" style="white-space: pre;" direction="ltr">gdl</text>
  </g>
  <a href="https://github.com/oakes/play-cljc">
    <g stroke-linecap="round" transform="translate(12.761014944031103 129.48567076191853) rotate(0 85.82589456015853 27.866025787746935)">
      <path d="M13.93 0 C66.31 -3.12, 118.34 1.8, 157.72 0 C168.99 2.02, 174.23 5.01, 171.65 13.93 C175.35 20.91, 174.22 27.59, 171.65 41.8 C174.38 52.01, 166.74 58.41, 157.72 55.73 C113.9 55.88, 77.08 54.5, 13.93 55.73 C4.66 58.3, -3 48.26, 0 41.8 C3.56 32.07, 0.73 22.03, 0 13.93 C-2.49 3.62, 8.01 1.83, 13.93 0" stroke="none" stroke-width="0" fill="#b2f2bb"></path>
      <path d="M13.93 0 C50.29 0.45, 92.23 -0.41, 157.72 0 M13.93 0 C56.09 -0.11, 99.21 -0.67, 157.72 0 M157.72 0 C166.09 -1.47, 172.75 5.85, 171.65 13.93 M157.72 0 C165.34 0.55, 173.92 2.93, 171.65 13.93 M171.65 13.93 C170.45 17.92, 173.03 24, 171.65 41.8 M171.65 13.93 C172.15 23.5, 171.51 33.55, 171.65 41.8 M171.65 41.8 C169.72 50.42, 167.26 57.15, 157.72 55.73 M171.65 41.8 C173.58 48.8, 168.54 54.36, 157.72 55.73 M157.72 55.73 C124.36 56.53, 87.81 57.83, 13.93 55.73 M157.72 55.73 C106.03 55.62, 53.18 55.75, 13.93 55.73 M13.93 55.73 C4.47 56.54, -1.23 52.09, 0 41.8 M13.93 55.73 C4.8 55.2, -2.02 50.9, 0 41.8 M0 41.8 C-1.79 35.74, -1 30.98, 0 13.93 M0 41.8 C0.46 32.64, 0.59 25.04, 0 13.93 M0 13.93 C-1.56 4.4, 5.57 0.33, 13.93 0 M0 13.93 C1.6 3.55, 2.64 1.48, 13.93 0" stroke="#1e1e1e" stroke-width="2" fill="none"></path>
    </g>
  </a>
  <g transform="translate(62.46874544168986 145.85169654966546) rotate(0 36.1181640625 11.5)">
    <text x="36.1181640625" y="18.400390625" font-family="Helvetica, Segoe UI Emoji" font-size="20px" fill="#1e1e1e" text-anchor="middle" style="white-space: pre;" direction="ltr">play-cljc</text>
  </g>
  <g stroke-linecap="round" transform="translate(661.3445929624659 146.89593347066295) rotate(0 120.31128404669244 85)">
    <path d="M151.25 21.5 C168.2 37.98, 190.95 50.4, 210.37 64.5 C243.37 84.73, 242.61 83.61, 210.37 107.5 C196.81 115.05, 183.78 123.88, 151.25 148.5 C118.03 167.61, 120.19 171.83, 90.75 148.5 C78.5 138.61, 62.24 128.6, 30.25 107.5 C-2.5 88.21, 2.03 83.75, 30.25 64.5 C53.45 52.06, 73.23 34.46, 90.75 21.5 C123.82 -1.54, 122.48 2.34, 151.25 21.5" stroke="none" stroke-width="0" fill="#a5d8ff"></path>
    <path d="M151.25 21.5 C169.78 33.56, 185.2 45.68, 210.37 64.5 M151.25 21.5 C171.04 35, 191.07 49.33, 210.37 64.5 M210.37 64.5 C238.82 87.53, 240.88 84.09, 210.37 107.5 M210.37 64.5 C240.59 86.34, 239.68 85.31, 210.37 107.5 M210.37 107.5 C198.88 117.89, 187.22 123.55, 151.25 148.5 M210.37 107.5 C190.55 121.32, 171.94 133.57, 151.25 148.5 M151.25 148.5 C119.22 170.64, 119.27 169.07, 90.75 148.5 M151.25 148.5 C119.39 168.59, 122.69 171.18, 90.75 148.5 M90.75 148.5 C78.74 139.57, 65.64 129.24, 30.25 107.5 M90.75 148.5 C74.33 135.43, 55.84 124.42, 30.25 107.5 M30.25 107.5 C-0.61 87.51, 0.21 86.44, 30.25 64.5 M30.25 107.5 C-0.59 84.65, -2.2 86.98, 30.25 64.5 M30.25 64.5 C42.82 53.71, 58.6 44.52, 90.75 21.5 M30.25 64.5 C47.53 50.81, 65.62 38.94, 90.75 21.5 M90.75 21.5 C121.73 1.83, 119.51 -0.87, 151.25 21.5 M90.75 21.5 C119.34 -0.42, 121.6 1.38, 151.25 21.5" stroke="#1e1e1e" stroke-width="2" fill="none"></path>
  </g>
  <g transform="translate(745.3674224858119 208.89593347066295) rotate(0 36.1328125 23)">
    <text x="36.1328125" y="18.400390625" font-family="Helvetica, Segoe UI Emoji" font-size="20px" fill="#1e1e1e" text-anchor="middle" style="white-space: pre;" direction="ltr"> Fennel </text>
    <text x="36.1328125" y="41.400390625" font-family="Helvetica, Segoe UI Emoji" font-size="20px" fill="#1e1e1e" text-anchor="middle" style="white-space: pre;" direction="ltr">(Lua)</text>
  </g>
  <a href="https://sr.ht/~benthor/absolutely-minimal-love2d-fennel/">
    <g stroke-linecap="round" transform="translate(976.1656809307274 248.6554894331257) rotate(0 89.44838635843462 21.5)">
      <path d="M10.75 0 C43.81 -2.23, 83.76 -2.48, 168.15 0 C176.93 -2.62, 180.42 4.98, 178.9 10.75 C177.64 12.97, 176.46 23.5, 178.9 32.25 C181.25 37.66, 177.47 45.47, 168.15 43 C112.73 47.53, 61.14 45.29, 10.75 43 C1.47 40.87, -1.87 42.23, 0 32.25 C-2.5 26.12, -1.33 19.17, 0 10.75 C3.1 4.41, 5.24 1.07, 10.75 0" stroke="none" stroke-width="0" fill="#b2f2bb"></path>
      <path d="M10.75 0 C57.96 1.94, 101.16 -0.61, 168.15 0 M10.75 0 C61.03 -0.32, 108.48 0.73, 168.15 0 M168.15 0 C174.63 -1.16, 178.72 3.84, 178.9 10.75 M168.15 0 C173.94 2.09, 178.73 2.12, 178.9 10.75 M178.9 10.75 C177.95 17.41, 179.18 23.85, 178.9 32.25 M178.9 10.75 C179.26 19.28, 179.3 25.71, 178.9 32.25 M178.9 32.25 C180.8 40.32, 175.67 42.6, 168.15 43 M178.9 32.25 C177.36 39.28, 176.12 44.25, 168.15 43 M168.15 43 C129.75 42.31, 87.55 45.45, 10.75 43 M168.15 43 C125.54 42.5, 82.21 41.69, 10.75 43 M10.75 43 C3.55 43.3, -1.44 39.07, 0 32.25 M10.75 43 C4.22 42.98, 0.39 41.28, 0 32.25 M0 32.25 C0.31 25.24, -0.09 16.27, 0 10.75 M0 32.25 C0.3 28.02, 0.83 21.96, 0 10.75 M0 10.75 C-1.51 4.35, 5.29 0.56, 10.75 0 M0 10.75 C0.17 5.46, 2.24 0.14, 10.75 0" stroke="#1e1e1e" stroke-width="2" fill="none"></path>
    </g>
  </a>
  <g transform="translate(1031.146293851662 258.6554894331257) rotate(0 34.4677734375 11.5)">
    <text x="34.4677734375" y="18.400390625" font-family="Helvetica, Segoe UI Emoji" font-size="20px" fill="#1e1e1e" text-anchor="middle" style="white-space: pre;" direction="ltr">Love2D</text>
  </g>
  <g stroke-linecap="round" transform="translate(661.3445929624659 814.6231021591499) rotate(0 120.31128404669244 107)">
    <path d="M151.25 27 C173.98 47.86, 194.41 64.86, 210.37 81 C242.48 109.3, 242.94 110.97, 210.37 135 C190.92 154.31, 165.16 174.48, 151.25 187 C123.79 216.25, 119.58 212.16, 90.75 187 C77.13 172.69, 57.26 159.94, 30.25 135 C0.53 105.81, -3.4 109.64, 30.25 81 C47.17 70.7, 55.85 55.86, 90.75 27 C121.95 0.74, 121.97 1.76, 151.25 27" stroke="none" stroke-width="0" fill="#a5d8ff"></path>
    <path d="M151.25 27 C168.6 42.33, 181.44 56.39, 210.37 81 M151.25 27 C166.5 40.86, 181.75 55.14, 210.37 81 M210.37 81 C241.34 109.58, 239.34 107.61, 210.37 135 M210.37 81 C241.36 108.52, 242.14 106.16, 210.37 135 M210.37 135 C198.25 146.67, 183.11 158.51, 151.25 187 M210.37 135 C188.12 155.02, 164.57 176.24, 151.25 187 M151.25 187 C121.07 215.06, 120.47 214.08, 90.75 187 M151.25 187 C119.08 216.26, 119.52 215.42, 90.75 187 M90.75 187 C78.9 174.83, 66.42 164.44, 30.25 135 M90.75 187 C75.81 175.04, 61.36 162.94, 30.25 135 M30.25 135 C0.27 109.26, -1.44 106.95, 30.25 81 M30.25 135 C0.4 108.23, -1.04 106.38, 30.25 81 M30.25 81 C42.05 67.87, 58.42 56.19, 90.75 27 M30.25 81 C44.03 69.54, 58.07 57.64, 90.75 27 M90.75 27 C120.81 0.96, 121.22 -1.06, 151.25 27 M90.75 27 C121.83 -1.4, 121.44 2.23, 151.25 27" stroke="#1e1e1e" stroke-width="2" fill="none"></path>
  </g>
  <g transform="translate(727.0373443608119 898.6231021591499) rotate(0 54.462890625 23)">
    <text x="54.462890625" y="18.400390625" font-family="Helvetica, Segoe UI Emoji" font-size="20px" fill="#1e1e1e" text-anchor="middle" style="white-space: pre;" direction="ltr"> Basilisp / </text>
    <text x="54.462890625" y="41.400390625" font-family="Helvetica, Segoe UI Emoji" font-size="20px" fill="#1e1e1e" text-anchor="middle" style="white-space: pre;" direction="ltr">HY (Python)</text>
  </g>
  <g stroke-linecap="round">
    <g transform="translate(886.747412529131 894.7042856607452) rotate(0 18.049788787388252 -9.983479209874247)">
      <path d="M0.1 -0.59 C6.12 -3.81, 29.64 -17.19, 35.54 -20.52 M-1.31 1.72 C4.56 -1.25, 28.35 -15.73, 34.3 -19.27" stroke="#2f9e44" stroke-width="2" fill="none"></path>
    </g>
    <g transform="translate(886.747412529131 894.7042856607452) rotate(0 18.049788787388252 -9.983479209874247)">
      <path d="M21.32 -3.24 C23.74 -8.19, 27.04 -12.27, 34.3 -19.27 M21.32 -3.24 C25.2 -7.32, 28.53 -11.32, 34.3 -19.27" stroke="#2f9e44" stroke-width="2" fill="none"></path>
    </g>
    <g transform="translate(886.747412529131 894.7042856607452) rotate(0 18.049788787388252 -9.983479209874247)">
      <path d="M14.05 -15.33 C18.17 -17.27, 23.28 -18.33, 34.3 -19.27 M14.05 -15.33 C19.75 -16.31, 24.91 -17.25, 34.3 -19.27" stroke="#2f9e44" stroke-width="2" fill="none"></path>
    </g>
  </g>
  <mask></mask>
  <a href="https://github.com/tracymedcalf/pygame-example-in-hy">
    <g stroke-linecap="round" transform="translate(934.4597222826756 826.3849469748967) rotate(0 89.44838635843462 21.5)">
      <path d="M10.75 0 C57.05 1.87, 101.1 -4.27, 168.15 0 C178.47 0.29, 179.02 7, 178.9 10.75 C181.14 21.5, 176.52 26.11, 178.9 32.25 C180.43 42.85, 171.76 44.87, 168.15 43 C117.65 38.82, 69.27 41.5, 10.75 43 C5.99 40.84, 2.65 40.36, 0 32.25 C-0.46 27.13, 3.3 13.8, 0 10.75 C3.46 0.77, 6.22 0.85, 10.75 0" stroke="none" stroke-width="0" fill="#b2f2bb"></path>
      <path d="M10.75 0 C56.06 -1.3, 98.48 0.06, 168.15 0 M10.75 0 C69.91 -0.64, 127.09 -1.3, 168.15 0 M168.15 0 C175.88 0.84, 179.63 4.74, 178.9 10.75 M168.15 0 C174.73 -0.08, 176.66 5.05, 178.9 10.75 M178.9 10.75 C177.18 15.92, 179.43 23.52, 178.9 32.25 M178.9 10.75 C178.96 15.55, 179.41 21.48, 178.9 32.25 M178.9 32.25 C180.08 40.37, 176.82 44.9, 168.15 43 M178.9 32.25 C179.87 41.56, 174.54 43.61, 168.15 43 M168.15 43 C108.78 41.9, 47.96 43.16, 10.75 43 M168.15 43 C129.82 42.11, 89.57 43.76, 10.75 43 M10.75 43 C1.66 44.02, -1.4 37.6, 0 32.25 M10.75 43 C5.43 40.75, 0.39 40.12, 0 32.25 M0 32.25 C-1.17 25.11, -1.07 17.55, 0 10.75 M0 32.25 C0.4 27.2, 0.31 20.46, 0 10.75 M0 10.75 C0.68 4.64, 4.94 -1.19, 10.75 0 M0 10.75 C1.29 4.68, 1.86 -1.5, 10.75 0" stroke="#1e1e1e" stroke-width="2" fill="none"></path>
    </g>
  </a>
  <g transform="translate(985.0067414536102 836.3849469748967) rotate(0 38.9013671875 11.5)">
    <text x="38.9013671875" y="18.400390625" font-family="Helvetica, Segoe UI Emoji" font-size="20px" fill="#1e1e1e" text-anchor="middle" style="white-space: pre;" direction="ltr">PyGame</text>
  </g>
  <g stroke-linecap="round">
    <g transform="translate(780.4642122520759 317.2784165685591) rotate(0 3.307316160195114 20.720455777409256)">
      <path d="M0.43 -0.15 C1.63 6.83, 5.75 34.59, 6.77 41.58 M-0.01 -0.7 C1.16 6.13, 5.39 33.76, 6.41 40.69" stroke="#e03131" stroke-width="2" fill="none"></path>
    </g>
    <g transform="translate(780.4642122520759 317.2784165685591) rotate(0 3.307316160195114 20.720455777409256)">
      <path d="M-3.62 22.26 C-1.67 26.68, 1.14 30.4, 6.41 40.69 M-3.62 22.26 C0.01 28.79, 4.02 35.08, 6.41 40.69" stroke="#e03131" stroke-width="2" fill="none"></path>
    </g>
    <g transform="translate(780.4642122520759 317.2784165685591) rotate(0 3.307316160195114 20.720455777409256)">
      <path d="M10.57 20.12 C9.3 25.08, 8.88 29.28, 6.41 40.69 M10.57 20.12 C9.1 27.37, 8.01 34.43, 6.41 40.69" stroke="#e03131" stroke-width="2" fill="none"></path>
    </g>
  </g>
  <mask></mask>
  <g stroke-linecap="round">
    <g transform="translate(788.5548438716683 540.8231345886406) rotate(0 -2.9702982915937355 14.184986599208457)">
      <path d="M0.47 0.26 C-0.68 4.94, -5.45 23.21, -6.46 27.95 M0.05 -0.09 C-0.98 4.67, -4.53 23.78, -5.5 28.44" stroke="#e03131" stroke-width="2" fill="none"></path>
    </g>
    <g transform="translate(788.5548438716683 540.8231345886406) rotate(0 -2.9702982915937355 14.184986599208457)">
      <path d="M-7.75 14.12 C-6.57 18.9, -6.6 25.52, -5.5 28.44 M-7.75 14.12 C-7.27 19.4, -6.29 24.8, -5.5 28.44" stroke="#e03131" stroke-width="2" fill="none"></path>
    </g>
    <g transform="translate(788.5548438716683 540.8231345886406) rotate(0 -2.9702982915937355 14.184986599208457)">
      <path d="M1.98 16.02 C-0.56 20.11, -4.31 26.01, -5.5 28.44 M1.98 16.02 C-1.07 20.63, -3.62 25.33, -5.5 28.44" stroke="#e03131" stroke-width="2" fill="none"></path>
    </g>
  </g>
  <mask></mask>
  <a href="https://github.com/day8/re-frame">
    <g stroke-linecap="round" transform="translate(12.05711466971843 200.67235065231955) rotate(0 87.98962386511016 23.260852979324)">
      <path d="M11.63 0 C56.63 1.38, 98.51 -1.16, 164.35 0 C174.95 -0.99, 176.3 3.48, 175.98 11.63 C178.72 23.61, 176.36 31.92, 175.98 34.89 C177.68 42.55, 175.36 49.94, 164.35 46.52 C126.47 43.03, 93.24 42.55, 11.63 46.52 C1.37 46.72, 2.33 41.53, 0 34.89 C1.26 25.33, -1.82 16.5, 0 11.63 C-0.15 1.81, 2.5 -0.76, 11.63 0" stroke="none" stroke-width="0" fill="#b2f2bb"></path>
      <path d="M11.63 0 C51.99 -2.84, 96.23 -3.34, 164.35 0 M11.63 0 C72.5 -0.96, 131.13 -0.4, 164.35 0 M164.35 0 C172.83 0.47, 175.33 4.82, 175.98 11.63 M164.35 0 C171.47 -0.8, 176.51 4.41, 175.98 11.63 M175.98 11.63 C175.12 19.98, 177.61 28.83, 175.98 34.89 M175.98 11.63 C175.01 16.74, 175.93 22.61, 175.98 34.89 M175.98 34.89 C174.95 43.23, 171.75 45.77, 164.35 46.52 M175.98 34.89 C176.91 42.29, 171.45 44.59, 164.35 46.52 M164.35 46.52 C132.13 45.2, 97.82 47.73, 11.63 46.52 M164.35 46.52 C124.4 45.7, 83.88 45.52, 11.63 46.52 M11.63 46.52 C4.78 46.15, 0.03 42.4, 0 34.89 M11.63 46.52 C3.59 47.46, -0.7 41.35, 0 34.89 M0 34.89 C-2.01 26.37, -1.86 18.5, 0 11.63 M0 34.89 C0.7 29.59, -1.03 24.42, 0 11.63 M0 11.63 C1.45 2.9, 2.1 -0.11, 11.63 0 M0 11.63 C-0.32 4.04, 2.1 1.96, 11.63 0" stroke="#1e1e1e" stroke-width="2" fill="none"></path>
    </g>
  </a>
  <g transform="translate(58.37193384732882 212.43320363164355) rotate(0 41.6748046875 11.5)">
    <text x="41.6748046875" y="18.400390625" font-family="Helvetica, Segoe UI Emoji" font-size="20px" fill="#1e1e1e" text-anchor="middle" style="white-space: pre;" direction="ltr">Re-frame</text>
  </g>
  <g stroke-linecap="round" transform="translate(30.79297932089912 797.9776073853626) rotate(0 90.67826352330826 34.07999542229345)">
    <path d="M17.04 0 C71.83 -5.07, 120.79 -0.34, 164.32 0 C176.6 -1.96, 180.07 8.04, 181.36 17.04 C179.13 25.44, 178.86 30.77, 181.36 51.12 C183.84 63.12, 178.72 66.92, 164.32 68.16 C128.25 70.17, 94.97 69.14, 17.04 68.16 C7.31 71.72, -0.79 65.91, 0 51.12 C2.03 42.96, -1.73 26.59, 0 17.04 C-0.13 2.89, 3.36 2.46, 17.04 0" stroke="none" stroke-width="0" fill="#e9ecef"></path>
    <path d="M17.04 0 C58.55 1.12, 100.95 -0.92, 164.32 0 M17.04 0 C67 -0.63, 116.81 -0.69, 164.32 0 M164.32 0 C177.09 1.27, 180.13 4.7, 181.36 17.04 M164.32 0 C174.41 -2.13, 181.88 7.4, 181.36 17.04 M181.36 17.04 C181.45 30.12, 179.95 44.52, 181.36 51.12 M181.36 17.04 C180.25 29.47, 180.56 40.97, 181.36 51.12 M181.36 51.12 C182.62 61.95, 175.78 67.29, 164.32 68.16 M181.36 51.12 C182.17 64.53, 174.93 66.66, 164.32 68.16 M164.32 68.16 C117.03 68.12, 70.75 67.81, 17.04 68.16 M164.32 68.16 C114.47 69.14, 63.74 68.35, 17.04 68.16 M17.04 68.16 C6.3 66.97, -1.25 62.61, 0 51.12 M17.04 68.16 C7.32 70.04, 1.56 63.84, 0 51.12 M0 51.12 C2 36.43, -0.38 24.12, 0 17.04 M0 51.12 C0.51 38.14, 0.63 25.05, 0 17.04 M0 17.04 C-0.22 6.95, 7.04 1.47, 17.04 0 M0 17.04 C-1.15 6.43, 4.12 -0.62, 17.04 0" stroke="#1e1e1e" stroke-width="2" fill="none"></path>
  </g>
  <g transform="translate(57.01323503170761 820.557602807656) rotate(0 64.4580078125 11.5)">
    <text x="64.4580078125" y="18.400390625" font-family="Helvetica, Segoe UI Emoji" font-size="20px" fill="#1e1e1e" text-anchor="middle" style="white-space: pre;" direction="ltr">some js library</text>
  </g>
  <g stroke-linecap="round">
    <g transform="translate(906.2782890456006 235.17720723458967) rotate(0 25.92202651597495 -4.996886028018594)">
      <path d="M0.32 -0.41 C9.28 -2.29, 44.03 -9.43, 52.78 -11.09 M-0.98 -1.67 C8 -3.46, 43.41 -8.86, 52.32 -10.13" stroke="#2f9e44" stroke-width="2" fill="none"></path>
    </g>
    <g transform="translate(906.2782890456006 235.17720723458967) rotate(0 25.92202651597495 -4.996886028018594)">
      <path d="M30.35 1.79 C34.39 0.72, 37.99 -1.84, 52.32 -10.13 M30.35 1.79 C36.5 -1.34, 42.3 -4.52, 52.32 -10.13" stroke="#2f9e44" stroke-width="2" fill="none"></path>
    </g>
    <g transform="translate(906.2782890456006 235.17720723458967) rotate(0 25.92202651597495 -4.996886028018594)">
      <path d="M27.83 -15.13 C32.45 -12.55, 36.59 -11.45, 52.32 -10.13 M27.83 -15.13 C34.71 -13.73, 41.19 -12.4, 52.32 -10.13" stroke="#2f9e44" stroke-width="2" fill="none"></path>
    </g>
  </g>
  <mask></mask>
  <g stroke-linecap="round" transform="translate(661.4544579201211 569.718661783775) rotate(0 120.20141908903702 92.07408255130844)">
    <path d="M151.25 23.25 C165.16 33.75, 174 45.24, 210.15 69.75 C243.61 91.05, 242.33 94.86, 210.15 116.25 C195.27 124.05, 184.28 134.7, 151.25 160.9 C121.96 180.85, 123.18 184.23, 90.75 160.9 C72.56 147.1, 49.74 127.83, 30.25 116.25 C2.39 91.16, 0.23 92.05, 30.25 69.75 C46.08 54.75, 63.16 46.85, 90.75 23.25 C123.55 3.47, 123.3 -2.42, 151.25 23.25" stroke="none" stroke-width="0" fill="#a5d8ff"></path>
    <path d="M151.25 23.25 C165.74 33.2, 178.97 43.81, 210.15 69.75 M151.25 23.25 C168.68 37.35, 187.61 52.28, 210.15 69.75 M210.15 69.75 C240.73 93.92, 241.6 91.96, 210.15 116.25 M210.15 69.75 C241.64 93.14, 239.18 94.27, 210.15 116.25 M210.15 116.25 C193.84 127.32, 177.75 140.26, 151.25 160.9 M210.15 116.25 C196.17 125.89, 183.53 135.11, 151.25 160.9 M151.25 160.9 C121.68 184.03, 120.52 183.02, 90.75 160.9 M151.25 160.9 C118.76 186.05, 119.76 184.44, 90.75 160.9 M90.75 160.9 C70.14 144.53, 50.62 129.5, 30.25 116.25 M90.75 160.9 C70.04 144.82, 47.69 129.67, 30.25 116.25 M30.25 116.25 C-1.06 94.05, -0.47 94.68, 30.25 69.75 M30.25 116.25 C1.13 93.73, -1.82 94.7, 30.25 69.75 M30.25 69.75 C48.78 58.12, 64.73 44.38, 90.75 23.25 M30.25 69.75 C44.24 58.66, 58.5 48.31, 90.75 23.25 M90.75 23.25 C121.99 1.79, 120.05 1.64, 151.25 23.25 M90.75 23.25 C119.31 0.31, 123.16 -1.18, 151.25 23.25" stroke="#1e1e1e" stroke-width="2" fill="none"></path>
  </g>
  <g transform="translate(742.0922768396395 650.2557030594293) rotate(0 39.462890625 11.5)">
    <text x="39.462890625" y="18.400390625" font-family="Helvetica, Segoe UI Emoji" font-size="20px" fill="#1e1e1e" text-anchor="middle" style="white-space: pre;" direction="ltr"> Scheme</text>
  </g>
  <g stroke-linecap="round">
    <g transform="translate(780.9390269283927 754.5773849443608) rotate(0 3.2178897659550785 31.896817245966048)">
      <path d="M-0.11 0.71 C0.86 11.35, 5.55 52.1, 6.46 62.65 M-1.63 0.04 C-0.87 10.88, 3.97 52.69, 5.53 63.58" stroke="#e03131" stroke-width="2" fill="none"></path>
    </g>
    <g transform="translate(780.9390269283927 754.5773849443608) rotate(0 3.2178897659550785 31.896817245966048)">
      <path d="M-5.91 41.35 C-0.92 49.22, 0 55.24, 5.53 63.58 M-5.91 41.35 C-1.91 48.88, 2.09 55.45, 5.53 63.58" stroke="#e03131" stroke-width="2" fill="none"></path>
    </g>
    <g transform="translate(780.9390269283927 754.5773849443608) rotate(0 3.2178897659550785 31.896817245966048)">
      <path d="M11.06 39.2 C10.06 47.81, 5.03 54.59, 5.53 63.58 M11.06 39.2 C9.69 47.26, 8.33 54.52, 5.53 63.58" stroke="#e03131" stroke-width="2" fill="none"></path>
    </g>
  </g>
  <mask></mask>
  <g stroke-linecap="round">
    <g transform="translate(901.9511952016942 660.6050068882103) rotate(0 13.521431840080595 -1.1984410200629725)">
      <path d="M0.26 -0.55 C4.72 -0.88, 22.57 -1.87, 27.1 -2.27 M-0.28 0.36 C4.1 -0.12, 22.11 -2.67, 26.7 -3.16" stroke="#2f9e44" stroke-width="2" fill="none"></path>
    </g>
    <g transform="translate(901.9511952016942 660.6050068882103) rotate(0 13.521431840080595 -1.1984410200629725)">
      <path d="M14.63 3.04 C18.28 0.87, 23.43 -0.95, 26.7 -3.16 M14.63 3.04 C17.42 1.57, 19.68 0.23, 26.7 -3.16" stroke="#2f9e44" stroke-width="2" fill="none"></path>
    </g>
    <g transform="translate(901.9511952016942 660.6050068882103) rotate(0 13.521431840080595 -1.1984410200629725)">
      <path d="M13.46 -6.17 C17.51 -5.05, 23.07 -3.58, 26.7 -3.16 M13.46 -6.17 C16.46 -5.77, 18.96 -5.23, 26.7 -3.16" stroke="#2f9e44" stroke-width="2" fill="none"></path>
    </g>
  </g>
  <mask></mask>
  <g stroke-linecap="round">
    <g transform="translate(788.6309455214059 1029.9008807035411) rotate(0 0.5788846091429605 26.076524615299604)">
      <path d="M0.98 -0.5 C1.36 8.34, 1.26 43.37, 1.44 51.98 M0.03 -1.8 C0.36 7.32, 0.35 44.46, 0.64 53.43" stroke="#e03131" stroke-width="2" fill="none"></path>
    </g>
    <g transform="translate(788.6309455214059 1029.9008807035411) rotate(0 0.5788846091429605 26.076524615299604)">
      <path d="M-8.24 30.06 C-7.25 35.77, -4.69 42.09, 0.64 53.43 M-8.24 30.06 C-6.93 36.09, -5.21 40.04, 0.64 53.43" stroke="#e03131" stroke-width="2" fill="none"></path>
    </g>
    <g transform="translate(788.6309455214059 1029.9008807035411) rotate(0 0.5788846091429605 26.076524615299604)">
      <path d="M8.86 29.82 C5.96 35.73, 4.62 42.1, 0.64 53.43 M8.86 29.82 C6.42 36.06, 4.39 40.06, 0.64 53.43" stroke="#e03131" stroke-width="2" fill="none"></path>
    </g>
  </g>
  <mask></mask>
  <a href="https://github.com/MattRoelle/minimal-raylib-lua-fennel">
    <g stroke-linecap="round" transform="translate(970.2207659997734 193.73579003585417) rotate(0 89.44838635843462 21.5)">
      <path d="M10.75 0 C66.59 -1.37, 125.3 -2.14, 168.15 0 C172.4 -0.16, 181.73 5.17, 178.9 10.75 C176.16 19.59, 177.9 25.86, 178.9 32.25 C177.28 39.59, 177.66 46.15, 168.15 43 C130 45.01, 94.9 43.21, 10.75 43 C3.46 40.67, -0.26 41.09, 0 32.25 C-1.12 30.19, 0.71 23.55, 0 10.75 C0.76 2.64, 2.03 -2.34, 10.75 0" stroke="none" stroke-width="0" fill="#b2f2bb"></path>
      <path d="M10.75 0 C65.69 2.77, 119.96 0.29, 168.15 0 M10.75 0 C46.79 0.01, 80 1.02, 168.15 0 M168.15 0 C175.17 1.68, 180.13 1.8, 178.9 10.75 M168.15 0 C176.89 -0.62, 178.48 5.2, 178.9 10.75 M178.9 10.75 C180.69 17.54, 177.18 25.17, 178.9 32.25 M178.9 10.75 C178.27 17.7, 178.4 25.06, 178.9 32.25 M178.9 32.25 C177.35 38.95, 174.19 41.62, 168.15 43 M178.9 32.25 C181.05 41.26, 177.27 43.04, 168.15 43 M168.15 43 C113.35 45.7, 53.57 44.28, 10.75 43 M168.15 43 C133.18 44.6, 96.21 45.03, 10.75 43 M10.75 43 C2.38 41.83, -0.56 40.34, 0 32.25 M10.75 43 C5.3 44.39, 0.39 38.95, 0 32.25 M0 32.25 C-1.15 25.8, 0.15 16.59, 0 10.75 M0 32.25 C-0.52 24.47, 0.89 18.09, 0 10.75 M0 10.75 C-1.32 4.76, 4.21 -0.48, 10.75 0 M0 10.75 C-0.05 4.04, 5.13 -1.31, 10.75 0" stroke="#1e1e1e" stroke-width="2" fill="none"></path>
    </g>
  </a>
  <g transform="translate(1009.0978632957081 203.73579003585417) rotate(0 50.5712890625 11.5)">
    <text x="50.5712890625" y="18.400390625" font-family="Helvetica, Segoe UI Emoji" font-size="20px" fill="#1e1e1e" text-anchor="middle" style="white-space: pre;" direction="ltr">Raylib-LUA</text>
  </g>
  <g stroke-linecap="round" transform="translate(663.4503379842099 1079.0201800564532) rotate(0 120.31128404669244 85)">
    <path d="M151.25 21.5 C169.58 35.36, 182.68 43.55, 210.37 64.5 C240.72 82.96, 241.49 86.9, 210.37 107.5 C198.09 122.14, 179.89 131.64, 151.25 148.5 C122.86 173.36, 124.25 172.92, 90.75 148.5 C71.43 132.52, 56.54 126.36, 30.25 107.5 C-0.88 87.13, -1.12 88.57, 30.25 64.5 C42.63 54.95, 57.65 43.28, 90.75 21.5 C122.75 3.22, 120.79 2.08, 151.25 21.5" stroke="none" stroke-width="0" fill="#a5d8ff"></path>
    <path d="M151.25 21.5 C164.1 30.33, 177.17 42.97, 210.37 64.5 M151.25 21.5 C166.63 32.43, 182.71 44.57, 210.37 64.5 M210.37 64.5 C242.41 86.11, 239.55 85.08, 210.37 107.5 M210.37 64.5 C239.52 84.97, 240.36 83.85, 210.37 107.5 M210.37 107.5 C187.23 122.49, 165.22 136.86, 151.25 148.5 M210.37 107.5 C195.14 117.35, 178.82 128.22, 151.25 148.5 M151.25 148.5 C120.45 168.5, 119.47 169.1, 90.75 148.5 M151.25 148.5 C118.71 168.93, 123.27 167.84, 90.75 148.5 M90.75 148.5 C67.76 135.12, 49.51 120.53, 30.25 107.5 M90.75 148.5 C75.28 137.56, 59.69 127.9, 30.25 107.5 M30.25 107.5 C-1.52 85.19, 0.22 85.2, 30.25 64.5 M30.25 107.5 C0.91 86.16, -1.9 85.41, 30.25 64.5 M30.25 64.5 C55.32 47.91, 78.72 33.28, 90.75 21.5 M30.25 64.5 C53.73 48.64, 77.45 30.83, 90.75 21.5 M90.75 21.5 C122.49 0.44, 120.06 1.38, 151.25 21.5 M90.75 21.5 C119.29 0.08, 121.29 -0.31, 151.25 21.5" stroke="#1e1e1e" stroke-width="2" fill="none"></path>
  </g>
  <g transform="translate(759.1430893825559 1152.5201800564532) rotate(0 24.462890625 11.5)">
    <text x="24.462890625" y="18.400390625" font-family="Helvetica, Segoe UI Emoji" font-size="20px" fill="#1e1e1e" text-anchor="middle" style="white-space: pre;" direction="ltr">Janet</text>
  </g>
  <g stroke-linecap="round">
    <g transform="translate(873.1833342356244 1140.972282550203) rotate(0 23.78771038383229 -16.342106034930985)">
      <path d="M0.72 0.66 C8.64 -4.7, 39.33 -27.27, 47.13 -32.82 M-0.37 -0.04 C7.4 -5.14, 38.1 -26.15, 45.95 -31.35" stroke="#2f9e44" stroke-width="2" fill="none"></path>
    </g>
    <g transform="translate(873.1833342356244 1140.972282550203) rotate(0 23.78771038383229 -16.342106034930985)">
      <path d="M31.26 -11.13 C36.38 -17.34, 38.96 -22.06, 45.95 -31.35 M31.26 -11.13 C35.94 -16.93, 39.66 -22.56, 45.95 -31.35" stroke="#2f9e44" stroke-width="2" fill="none"></path>
    </g>
    <g transform="translate(873.1833342356244 1140.972282550203) rotate(0 23.78771038383229 -16.342106034930985)">
      <path d="M21.69 -25.3 C29.28 -27.8, 34.41 -28.74, 45.95 -31.35 M21.69 -25.3 C29.32 -26.8, 35.95 -28.12, 45.95 -31.35" stroke="#2f9e44" stroke-width="2" fill="none"></path>
    </g>
  </g>
  <mask></mask>
  <g stroke-linecap="round">
    <g transform="translate(285.2920195572606 264.82333586403547) rotate(0 -42.50996440189056 -21.661400941724935)">
      <path d="M0.43 0.02 C-13.92 -7.23, -70.96 -35.16, -85.39 -42.44 M-0.81 -1.02 C-15.4 -8.07, -72.69 -37.18, -86.53 -44.1" stroke="#2f9e44" stroke-width="2" fill="none"></path>
    </g>
    <g transform="translate(285.2920195572606 264.82333586403547) rotate(0 -42.50996440189056 -21.661400941724935)">
      <path d="M-61.71 -41.16 C-70.53 -42.74, -77.92 -45.07, -86.53 -44.1 M-61.71 -41.16 C-67.54 -42.07, -75.72 -43.14, -86.53 -44.1" stroke="#2f9e44" stroke-width="2" fill="none"></path>
    </g>
    <g transform="translate(285.2920195572606 264.82333586403547) rotate(0 -42.50996440189056 -21.661400941724935)">
      <path d="M-69.41 -25.89 C-75.62 -32.92, -80.27 -40.69, -86.53 -44.1 M-69.41 -25.89 C-73.09 -30.86, -79.18 -36.06, -86.53 -44.1" stroke="#2f9e44" stroke-width="2" fill="none"></path>
    </g>
  </g>
  <mask></mask>
  <g stroke-linecap="round" transform="translate(285.7995950395407 1143.5868238345872) rotate(0 172.76264591439667 106.42099641412987)">
    <path d="M216.25 26.75 C249.11 44.84, 276 66.22, 302.28 80.25 C342.42 105.27, 348.08 103.69, 302.28 133.75 C271.46 147.55, 249.21 167.16, 216.25 186.09 C176.08 209.76, 169.47 213.1, 129.75 186.09 C103.52 167.65, 76.61 153.96, 43.25 133.75 C1.28 105.27, 0.16 109.13, 43.25 80.25 C73.61 59.72, 108.37 38.14, 129.75 26.75 C173.93 3.5, 170.25 -3.41, 216.25 26.75" stroke="none" stroke-width="0" fill="#a5d8ff"></path>
    <path d="M216.25 26.75 C244.27 45.25, 273.66 59.83, 302.28 80.25 M216.25 26.75 C235.94 39.05, 255.36 52.14, 302.28 80.25 M302.28 80.25 C345.25 107.86, 346.98 105.87, 302.28 133.75 M302.28 80.25 C345.23 108.55, 345.31 108.7, 302.28 133.75 M302.28 133.75 C276.73 151.58, 249.88 167.95, 216.25 186.09 M302.28 133.75 C267.81 154.76, 233.36 175.17, 216.25 186.09 M216.25 186.09 C171.4 213.68, 172.26 214.73, 129.75 186.09 M216.25 186.09 C171.57 212.23, 172.84 213.99, 129.75 186.09 M129.75 186.09 C108.22 175.15, 88.91 160.77, 43.25 133.75 M129.75 186.09 C107.13 171.99, 85.03 158.43, 43.25 133.75 M43.25 133.75 C-1.79 107.56, 1.23 108.01, 43.25 80.25 M43.25 133.75 C0.24 105.61, -0.15 106.52, 43.25 80.25 M43.25 80.25 C59.86 70.6, 81.13 57.93, 129.75 26.75 M43.25 80.25 C62.26 68.61, 79.44 56.83, 129.75 26.75 M129.75 26.75 C172.16 1.16, 172.12 1.61, 216.25 26.75 M129.75 26.75 C172.55 1.09, 171.95 -1.05, 216.25 26.75" stroke="#1e1e1e" stroke-width="2" fill="none"></path>
  </g>
  <g transform="translate(412.172128934239 1238.297322041652) rotate(0 46.5087890625 11.5)">
    <text x="46.5087890625" y="18.400390625" font-family="Helvetica, Segoe UI Emoji" font-size="20px" fill="#1e1e1e" text-anchor="middle" style="white-space: pre;" direction="ltr">Other stuff</text>
  </g>
  <g stroke-linecap="round">
    <g transform="translate(461.99370320797743 1099.326710393806) rotate(0 3.1845653791949644 24.56136684248964)">
      <path d="M-0.52 0.28 C0.36 8.57, 4.71 41.2, 5.85 49.3 M0.21 -0.05 C1.21 8.1, 5.86 40.19, 6.81 48.42" stroke="#e03131" stroke-width="2" fill="none"></path>
    </g>
    <g transform="translate(461.99370320797743 1099.326710393806) rotate(0 3.1845653791949644 24.56136684248964)">
      <path d="M-4.63 26.46 C0.34 34.28, 4.69 43.87, 6.81 48.42 M-4.63 26.46 C-1.28 32.26, 1.07 37.11, 6.81 48.42" stroke="#e03131" stroke-width="2" fill="none"></path>
    </g>
    <g transform="translate(461.99370320797743 1099.326710393806) rotate(0 3.1845653791949644 24.56136684248964)">
      <path d="M12.16 24.24 C10.46 32.87, 8.14 43.34, 6.81 48.42 M12.16 24.24 C11.32 30.56, 9.47 35.96, 6.81 48.42" stroke="#e03131" stroke-width="2" fill="none"></path>
    </g>
  </g>
  <mask></mask>
  <g stroke-linecap="round">
    <g transform="translate(279.6603553351333 1239.148124670173) rotate(0 -23.029626869189315 -13.174571475172343)">
      <path d="M0.85 -0.64 C-6.83 -5.03, -37.28 -20.88, -45.22 -25.18 M-0.16 1.64 C-8 -2.54, -38.38 -22.22, -45.73 -26.68" stroke="#2f9e44" stroke-width="2" fill="none"></path>
    </g>
    <g transform="translate(279.6603553351333 1239.148124670173) rotate(0 -23.029626869189315 -13.174571475172343)">
      <path d="M-21.29 -21.42 C-31.43 -21.8, -37.42 -26.36, -45.73 -26.68 M-21.29 -21.42 C-27.58 -22, -35.34 -23.75, -45.73 -26.68" stroke="#2f9e44" stroke-width="2" fill="none"></path>
    </g>
    <g transform="translate(279.6603553351333 1239.148124670173) rotate(0 -23.029626869189315 -13.174571475172343)">
      <path d="M-30.4 -6.94 C-37.31 -12.72, -39.94 -22.63, -45.73 -26.68 M-30.4 -6.94 C-34.02 -11.8, -39.11 -17.79, -45.73 -26.68" stroke="#2f9e44" stroke-width="2" fill="none"></path>
    </g>
  </g>
  <mask></mask>
  <a href="https://github.com/Clojure2D/clojure2d">
    <g stroke-linecap="round" transform="translate(12.61948424193406 257.29991607537727) rotate(0 84.81574731059754 16.5)">
      <path d="M8.25 0 C44.26 2.6, 77.73 2.54, 161.38 0 C166.65 1.41, 168.39 1.88, 169.63 8.25 C167.16 12.2, 169.1 20.12, 169.63 24.75 C169.81 31.12, 170.14 34.76, 161.38 33 C104.73 32.54, 50.13 31.98, 8.25 33 C4.35 29.94, 0.84 27.05, 0 24.75 C0.98 17.58, 0.74 16.35, 0 8.25 C-3.06 3.29, 4.13 -1.25, 8.25 0" stroke="none" stroke-width="0" fill="#e9ecef"></path>
      <path d="M8.25 0 C57.03 -2.44, 110.1 -1.75, 161.38 0 M8.25 0 C58.54 -0.26, 108.99 0.42, 161.38 0 M161.38 0 C168.39 1.8, 169.76 4.32, 169.63 8.25 M161.38 0 C168.88 0.93, 169.77 2.86, 169.63 8.25 M169.63 8.25 C170.04 14.76, 169.33 22.1, 169.63 24.75 M169.63 8.25 C169.02 12.24, 168.82 17.83, 169.63 24.75 M169.63 24.75 C168.12 30.3, 165.02 31.77, 161.38 33 M169.63 24.75 C168.82 29.97, 166.28 32.24, 161.38 33 M161.38 33 C105.28 33.15, 50.13 31.95, 8.25 33 M161.38 33 C102.86 34.25, 44.77 33.06, 8.25 33 M8.25 33 C1.59 31.04, 1.33 30.53, 0 24.75 M8.25 33 C4.87 31.58, 2.09 30.67, 0 24.75 M0 24.75 C1.51 19.92, -0.87 17.07, 0 8.25 M0 24.75 C0.25 20.84, 0.54 17.1, 0 8.25 M0 8.25 C-0.85 2.91, 3.3 1.98, 8.25 0 M0 8.25 C-1.67 0.59, 3.53 -1.37, 8.25 0" stroke="#1e1e1e" stroke-width="2" fill="none"></path>
    </g>
  </a>
  <g transform="translate(54.632497177531604 262.29991607537727) rotate(0 42.802734375 11.5)">
    <text x="42.802734375" y="18.400390625" font-family="Helvetica, Segoe UI Emoji" font-size="20px" fill="#1e1e1e" text-anchor="middle" style="white-space: pre;" direction="ltr">Clojure2d</text>
  </g>
</svg>
