<?xml version="1.0" encoding="UTF-8" standalone="no"?>
<!DOCTYPE svg PUBLIC "-//W3C//DTD SVG 1.1//EN"
 "http://www.w3.org/Graphics/SVG/1.1/DTD/svg11.dtd">
<!-- Generated by graphviz version 11.0.0 (0)
 -->
<!-- Title: GG Pages: 1 -->
<svg width="388pt" height="620pt"
 viewBox="0.00 0.00 387.64 620.00" xmlns="http://www.w3.org/2000/svg" xmlns:xlink="http://www.w3.org/1999/xlink">
<g id="graph0" class="graph" transform="scale(1 1) rotate(0) translate(4 616)">
<title>GG</title>
<polygon fill="white" stroke="none" points="-4,4 -4,-616 383.64,-616 383.64,4 -4,4"/>
<!-- A -->
<g id="node1" class="node">
<title>A</title>
<ellipse fill="none" stroke="black" cx="341.64" cy="-594" rx="27" ry="18"/>
<text text-anchor="middle" x="341.64" y="-589.33" font-family="Times,serif" font-size="14.00">A</text>
</g>
<!-- B -->
<g id="node2" class="node">
<title>B</title>
<ellipse fill="none" stroke="black" cx="187.64" cy="-522" rx="27" ry="18"/>
<text text-anchor="middle" x="187.64" y="-517.33" font-family="Times,serif" font-size="14.00">B</text>
</g>
<!-- A&#45;&gt;B -->
<g id="edge1" class="edge">
<title>A&#45;&gt;B</title>
<path fill="none" stroke="black" d="M319.57,-582.97C293.5,-571.12 249.89,-551.3 220,-537.71"/>
<polygon fill="black" stroke="black" points="221.59,-534.59 211.04,-533.64 218.69,-540.96 221.59,-534.59"/>
</g>
<!-- B_1 -->
<g id="node3" class="node">
<title>B_1</title>
<ellipse fill="none" stroke="black" cx="29.64" cy="-378" rx="29.64" ry="18"/>
<text text-anchor="middle" x="29.64" y="-373.32" font-family="Times,serif" font-size="14.00">B_1</text>
</g>
<!-- B&#45;&gt;B_1 -->
<g id="edge2" class="edge">
<title>B&#45;&gt;B_1</title>
<path fill="none" stroke="black" d="M162.58,-514.66C137.39,-507.18 98.78,-492.55 73.64,-468 56.4,-451.17 44.87,-426.18 37.95,-406.97"/>
<polygon fill="black" stroke="black" points="41.3,-405.95 34.8,-397.58 34.66,-408.18 41.3,-405.95"/>
</g>
<!-- B_2 -->
<g id="node4" class="node">
<title>B_2</title>
<ellipse fill="none" stroke="black" cx="152.64" cy="-306" rx="29.64" ry="18"/>
<text text-anchor="middle" x="152.64" y="-301.32" font-family="Times,serif" font-size="14.00">B_2</text>
</g>
<!-- B&#45;&gt;B_2 -->
<g id="edge3" class="edge">
<title>B&#45;&gt;B_2</title>
<path fill="none" stroke="black" d="M164.03,-512.83C144.72,-504.75 118.71,-490.32 106.64,-468 82.45,-423.27 112.79,-364.51 134.43,-331.77"/>
<polygon fill="black" stroke="black" points="137.17,-333.96 139.95,-323.73 131.4,-330 137.17,-333.96"/>
</g>
<!-- CPU_1 -->
<g id="node5" class="node">
<title>CPU_1</title>
<ellipse fill="none" stroke="black" cx="231.64" cy="-450" rx="44.37" ry="18"/>
<text text-anchor="middle" x="231.64" y="-445.32" font-family="Times,serif" font-size="14.00">CPU_1</text>
</g>
<!-- B&#45;&gt;CPU_1 -->
<g id="edge4" class="edge">
<title>B&#45;&gt;CPU_1</title>
<path fill="none" stroke="black" d="M197.62,-505.12C202.76,-496.94 209.16,-486.76 215.02,-477.44"/>
<polygon fill="black" stroke="black" points="217.92,-479.41 220.27,-469.08 211.99,-475.68 217.92,-479.41"/>
</g>
<!-- D -->
<g id="node8" class="node">
<title>D</title>
<ellipse fill="none" stroke="black" cx="142.64" cy="-450" rx="27" ry="18"/>
<text text-anchor="middle" x="142.64" y="-445.32" font-family="Times,serif" font-size="14.00">D</text>
</g>
<!-- B&#45;&gt;D -->
<g id="edge7" class="edge">
<title>B&#45;&gt;D</title>
<path fill="none" stroke="black" d="M177.43,-505.12C171.96,-496.61 165.1,-485.94 158.92,-476.32"/>
<polygon fill="black" stroke="black" points="161.98,-474.61 153.63,-468.09 156.09,-478.4 161.98,-474.61"/>
</g>
<!-- GPU_2 -->
<g id="node12" class="node">
<title>GPU_2</title>
<ellipse fill="none" stroke="black" cx="249.64" cy="-18" rx="44.89" ry="18"/>
<text text-anchor="middle" x="249.64" y="-13.32" font-family="Times,serif" font-size="14.00">GPU_2</text>
</g>
<!-- B_1&#45;&gt;GPU_2 -->
<g id="edge18" class="edge">
<title>B_1&#45;&gt;GPU_2</title>
<path fill="none" stroke="black" d="M33.98,-360.08C40.4,-333.6 51.64,-280.65 51.64,-235 51.64,-235 51.64,-235 51.64,-161 51.64,-87.88 141.91,-48.76 200.55,-31.07"/>
<polygon fill="black" stroke="black" points="201.37,-34.47 210.01,-28.33 199.43,-27.75 201.37,-34.47"/>
</g>
<!-- CPU_2 -->
<g id="node10" class="node">
<title>CPU_2</title>
<ellipse fill="none" stroke="black" cx="249.64" cy="-162" rx="44.37" ry="18"/>
<text text-anchor="middle" x="249.64" y="-157.32" font-family="Times,serif" font-size="14.00">CPU_2</text>
</g>
<!-- B_2&#45;&gt;CPU_2 -->
<g id="edge17" class="edge">
<title>B_2&#45;&gt;CPU_2</title>
<path fill="none" stroke="black" d="M163.58,-288.99C180.22,-264.61 212.09,-217.97 232.03,-188.78"/>
<polygon fill="black" stroke="black" points="234.69,-191.09 237.44,-180.86 228.91,-187.14 234.69,-191.09"/>
</g>
<!-- GPU_1 -->
<g id="node6" class="node">
<title>GPU_1</title>
<ellipse fill="none" stroke="black" cx="176.64" cy="-378" rx="44.89" ry="18"/>
<text text-anchor="middle" x="176.64" y="-373.32" font-family="Times,serif" font-size="14.00">GPU_1</text>
</g>
<!-- CPU_1&#45;&gt;GPU_1 -->
<g id="edge5" class="edge">
<title>CPU_1&#45;&gt;GPU_1</title>
<path fill="none" stroke="black" d="M218.6,-432.41C212.03,-424.04 203.91,-413.71 196.57,-404.37"/>
<polygon fill="black" stroke="black" points="199.44,-402.36 190.51,-396.66 193.94,-406.69 199.44,-402.36"/>
</g>
<!-- E -->
<g id="node7" class="node">
<title>E</title>
<ellipse fill="none" stroke="black" cx="249.64" cy="-306" rx="27" ry="18"/>
<text text-anchor="middle" x="249.64" y="-301.32" font-family="Times,serif" font-size="14.00">E</text>
</g>
<!-- CPU_1&#45;&gt;E -->
<g id="edge6" class="edge">
<title>CPU_1&#45;&gt;E</title>
<path fill="none" stroke="black" d="M233.84,-431.59C236.88,-407.61 242.39,-364.14 246.04,-335.42"/>
<polygon fill="black" stroke="black" points="249.49,-335.97 247.28,-325.61 242.55,-335.09 249.49,-335.97"/>
</g>
<!-- GPU_1&#45;&gt;E -->
<g id="edge9" class="edge">
<title>GPU_1&#45;&gt;E</title>
<path fill="none" stroke="black" d="M193.2,-361.12C203.03,-351.69 215.63,-339.61 226.44,-329.25"/>
<polygon fill="black" stroke="black" points="228.74,-331.89 233.54,-322.44 223.9,-326.84 228.74,-331.89"/>
</g>
<!-- E&#45;&gt;B -->
<g id="edge10" class="edge">
<title>E&#45;&gt;B</title>
<path fill="none" stroke="black" d="M260.07,-322.83C278.61,-353.12 312.8,-420.52 284.64,-468 271.55,-490.07 245.68,-503.54 223.94,-511.38"/>
<polygon fill="black" stroke="black" points="222.88,-508.04 214.48,-514.5 225.07,-514.69 222.88,-508.04"/>
</g>
<!-- F -->
<g id="node9" class="node">
<title>F</title>
<ellipse fill="none" stroke="black" cx="249.64" cy="-234" rx="27" ry="18"/>
<text text-anchor="middle" x="249.64" y="-229.32" font-family="Times,serif" font-size="14.00">F</text>
</g>
<!-- E&#45;&gt;F -->
<g id="edge11" class="edge">
<title>E&#45;&gt;F</title>
<path fill="none" stroke="black" d="M249.64,-287.7C249.64,-280.41 249.64,-271.73 249.64,-263.54"/>
<polygon fill="black" stroke="black" points="253.14,-263.62 249.64,-253.62 246.14,-263.62 253.14,-263.62"/>
</g>
<!-- D&#45;&gt;GPU_1 -->
<g id="edge8" class="edge">
<title>D&#45;&gt;GPU_1</title>
<path fill="none" stroke="black" d="M150.7,-432.41C154.49,-424.59 159.12,-415.06 163.41,-406.23"/>
<polygon fill="black" stroke="black" points="166.52,-407.84 167.74,-397.32 160.22,-404.78 166.52,-407.84"/>
</g>
<!-- F&#45;&gt;CPU_2 -->
<g id="edge12" class="edge">
<title>F&#45;&gt;CPU_2</title>
<path fill="none" stroke="black" d="M249.64,-215.7C249.64,-208.41 249.64,-199.73 249.64,-191.54"/>
<polygon fill="black" stroke="black" points="253.14,-191.62 249.64,-181.62 246.14,-191.62 253.14,-191.62"/>
</g>
<!-- CPU_2&#45;&gt;A -->
<g id="edge16" class="edge">
<title>CPU_2&#45;&gt;A</title>
<path fill="none" stroke="black" d="M268.7,-178.73C295.65,-202.86 341.64,-251.83 341.64,-305 341.64,-451 341.64,-451 341.64,-451 341.64,-490.26 341.64,-535.62 341.64,-564.31"/>
<polygon fill="black" stroke="black" points="338.14,-564 341.64,-574 345.14,-564 338.14,-564"/>
</g>
<!-- G -->
<g id="node11" class="node">
<title>G</title>
<ellipse fill="none" stroke="black" cx="249.64" cy="-90" rx="27" ry="18"/>
<text text-anchor="middle" x="249.64" y="-85.33" font-family="Times,serif" font-size="14.00">G</text>
</g>
<!-- CPU_2&#45;&gt;G -->
<g id="edge13" class="edge">
<title>CPU_2&#45;&gt;G</title>
<path fill="none" stroke="black" d="M249.64,-143.7C249.64,-136.41 249.64,-127.73 249.64,-119.54"/>
<polygon fill="black" stroke="black" points="253.14,-119.62 249.64,-109.62 246.14,-119.62 253.14,-119.62"/>
</g>
<!-- G&#45;&gt;GPU_2 -->
<g id="edge14" class="edge">
<title>G&#45;&gt;GPU_2</title>
<path fill="none" stroke="black" d="M249.64,-71.7C249.64,-64.41 249.64,-55.73 249.64,-47.54"/>
<polygon fill="black" stroke="black" points="253.14,-47.62 249.64,-37.62 246.14,-47.62 253.14,-47.62"/>
</g>
<!-- GPU_2&#45;&gt;A -->
<g id="edge15" class="edge">
<title>GPU_2&#45;&gt;A</title>
<path fill="none" stroke="black" d="M276.57,-32.85C314.65,-54.57 379.64,-100.5 379.64,-161 379.64,-451 379.64,-451 379.64,-451 379.64,-492.05 364.64,-537.57 353.49,-565.74"/>
<polygon fill="black" stroke="black" points="350.27,-564.36 349.72,-574.94 356.75,-567.01 350.27,-564.36"/>
</g>
</g>
</svg>
