<?xml version="1.0" encoding="UTF-8" standalone="no"?>
<!DOCTYPE svg PUBLIC "-//W3C//DTD SVG 1.1//EN"
 "http://www.w3.org/Graphics/SVG/1.1/DTD/svg11.dtd">
<!-- Generated by graphviz version 12.2.1 (0)
 -->
<!-- Title: Guix reverse&#45;package Pages: 1 -->
<svg width="1286pt" height="332pt"
 viewBox="0.00 0.00 1286.30 332.00" xmlns="http://www.w3.org/2000/svg" xmlns:xlink="http://www.w3.org/1999/xlink">
<g id="graph0" class="graph" transform="scale(1 1) rotate(0) translate(4 328)">
<title>Guix reverse&#45;package</title>
<polygon fill="white" stroke="none" points="-4,4 -4,-328 1282.3,-328 1282.3,4 -4,4"/>
<!-- 139648010986880 -->
<g id="node1" class="node">
<title>139648010986880</title>
<polygon fill="none" stroke="black" points="1240.12,-180 1110.12,-180 1110.12,-144 1240.12,-144 1240.12,-180"/>
<text text-anchor="middle" x="1175.12" y="-158.45" font-family="sans" font-size="14.00">hyprpaper@0.7.5</text>
</g>
<!-- 139647983390496 -->
<g id="node2" class="node">
<title>139647983390496</title>
<polygon fill="none" stroke="black" points="911.25,-252 791,-252 791,-216 911.25,-216 911.25,-252"/>
<text text-anchor="middle" x="851.12" y="-230.45" font-family="sans" font-size="14.00">hyprlang@0.6.3</text>
</g>
<!-- 139647983390496&#45;&gt;139648010986880 -->
<g id="edge5" class="edge">
<title>139647983390496&#45;&gt;139648010986880</title>
<path fill="none" stroke="darkseagreen" d="M911.55,-220.49C959.65,-210.46 1028.99,-195.86 1098.6,-180.54"/>
<polygon fill="darkseagreen" stroke="darkseagreen" points="1099.28,-183.97 1108.29,-178.4 1097.77,-177.14 1099.28,-183.97"/>
</g>
<!-- 139647999052192 -->
<g id="node3" class="node">
<title>139647999052192</title>
<polygon fill="none" stroke="black" points="1032.75,-36 783.5,-36 783.5,0 1032.75,0 1032.75,-36"/>
<text text-anchor="middle" x="908.12" y="-14.45" font-family="sans" font-size="14.00">xdg&#45;desktop&#45;portal&#45;hyprland@1.3.9</text>
</g>
<!-- 139647983390496&#45;&gt;139647999052192 -->
<g id="edge1" class="edge">
<title>139647983390496&#45;&gt;139647999052192</title>
<path fill="none" stroke="darkseagreen" d="M886.66,-215.71C900.37,-207.04 914.54,-195.13 922.12,-180 943.5,-137.37 930.32,-80.38 919.05,-46.89"/>
<polygon fill="darkseagreen" stroke="darkseagreen" points="922.36,-45.76 915.71,-37.51 915.77,-48.1 922.36,-45.76"/>
</g>
<!-- 139647994601248 -->
<g id="node4" class="node">
<title>139647994601248</title>
<polygon fill="none" stroke="black" points="606.5,-180 421.75,-180 421.75,-144 606.5,-144 606.5,-180"/>
<text text-anchor="middle" x="514.12" y="-158.45" font-family="sans" font-size="14.00">hypridle@0.1.6&#45;1.4f1c165</text>
</g>
<!-- 139647983390496&#45;&gt;139647994601248 -->
<g id="edge2" class="edge">
<title>139647983390496&#45;&gt;139647994601248</title>
<path fill="none" stroke="darkseagreen" d="M790.88,-220.49C740.45,-210.01 667.6,-194.88 609.3,-182.77"/>
<polygon fill="darkseagreen" stroke="darkseagreen" points="610.2,-179.38 599.7,-180.78 608.78,-186.24 610.2,-179.38"/>
</g>
<!-- 139647994601072 -->
<g id="node5" class="node">
<title>139647994601072</title>
<polygon fill="none" stroke="black" points="717.38,-108 588.88,-108 588.88,-72 717.38,-72 717.38,-108"/>
<text text-anchor="middle" x="653.12" y="-86.45" font-family="sans" font-size="14.00">hyprland@0.49.0</text>
</g>
<!-- 139647983390496&#45;&gt;139647994601072 -->
<g id="edge3" class="edge">
<title>139647983390496&#45;&gt;139647994601072</title>
<path fill="none" stroke="darkseagreen" d="M796.96,-215.57C774.71,-206.91 749.45,-195.04 729.12,-180 705.79,-162.74 684.83,-137.02 670.86,-117.67"/>
<polygon fill="darkseagreen" stroke="darkseagreen" points="673.89,-115.88 665.27,-109.71 668.16,-119.91 673.89,-115.88"/>
</g>
<!-- 139648010987056 -->
<g id="node6" class="node">
<title>139648010987056</title>
<polygon fill="none" stroke="black" points="1092.12,-180 974.12,-180 974.12,-144 1092.12,-144 1092.12,-180"/>
<text text-anchor="middle" x="1033.12" y="-158.45" font-family="sans" font-size="14.00">hyprlock@0.8.2</text>
</g>
<!-- 139647983390496&#45;&gt;139648010987056 -->
<g id="edge4" class="edge">
<title>139647983390496&#45;&gt;139648010987056</title>
<path fill="none" stroke="darkseagreen" d="M896.58,-215.52C921.1,-206.08 951.57,-194.37 977.5,-184.39"/>
<polygon fill="darkseagreen" stroke="darkseagreen" points="978.44,-187.78 986.52,-180.93 975.93,-181.25 978.44,-187.78"/>
</g>
<!-- 139648010987232 -->
<g id="node7" class="node">
<title>139648010987232</title>
<polygon fill="none" stroke="black" points="880.12,-180 738.12,-180 738.12,-144 880.12,-144 880.12,-180"/>
<text text-anchor="middle" x="809.12" y="-158.45" font-family="sans" font-size="14.00">hyprcursor@0.1.12</text>
</g>
<!-- 139647983390496&#45;&gt;139648010987232 -->
<g id="edge6" class="edge">
<title>139647983390496&#45;&gt;139648010987232</title>
<path fill="none" stroke="darkseagreen" d="M840.74,-215.7C836.06,-207.9 830.43,-198.51 825.22,-189.83"/>
<polygon fill="darkseagreen" stroke="darkseagreen" points="828.31,-188.18 820.17,-181.4 822.31,-191.78 828.31,-188.18"/>
</g>
<!-- 139647994601072&#45;&gt;139647999052192 -->
<g id="edge7" class="edge">
<title>139647994601072&#45;&gt;139647999052192</title>
<path fill="none" stroke="darkviolet" d="M716.81,-71.52C752.39,-61.75 796.91,-49.53 834.04,-39.34"/>
<polygon fill="darkviolet" stroke="darkviolet" points="834.63,-42.8 843.35,-36.78 832.78,-36.05 834.63,-42.8"/>
</g>
<!-- 139647993772800 -->
<g id="node8" class="node">
<title>139647993772800</title>
<polygon fill="none" stroke="black" points="524.88,-36 339.38,-36 339.38,0 524.88,0 524.88,-36"/>
<text text-anchor="middle" x="432.12" y="-14.45" font-family="sans" font-size="14.00">grimblast@0.1&#45;1.9d67858</text>
</g>
<!-- 139647994601072&#45;&gt;139647993772800 -->
<g id="edge8" class="edge">
<title>139647994601072&#45;&gt;139647993772800</title>
<path fill="none" stroke="darkviolet" d="M597.93,-71.52C567.49,-61.88 529.51,-49.84 497.58,-39.73"/>
<polygon fill="darkviolet" stroke="darkviolet" points="499.03,-36.52 488.44,-36.84 496.92,-43.2 499.03,-36.52"/>
</g>
<!-- 139648010987232&#45;&gt;139647994601072 -->
<g id="edge9" class="edge">
<title>139648010987232&#45;&gt;139647994601072</title>
<path fill="none" stroke="darkviolet" d="M770.16,-143.52C749.61,-134.29 724.19,-122.89 702.29,-113.06"/>
<polygon fill="darkviolet" stroke="darkviolet" points="703.8,-109.9 693.24,-109 700.93,-116.29 703.8,-109.9"/>
</g>
<!-- 139647983136768 -->
<g id="node9" class="node">
<title>139647983136768</title>
<polygon fill="none" stroke="black" points="1128.75,-252 981.5,-252 981.5,-216 1128.75,-216 1128.75,-252"/>
<text text-anchor="middle" x="1055.12" y="-230.45" font-family="sans" font-size="14.00">hyprgraphics@0.1.3</text>
</g>
<!-- 139647983136768&#45;&gt;139648010986880 -->
<g id="edge12" class="edge">
<title>139647983136768&#45;&gt;139648010986880</title>
<path fill="none" stroke="darkviolet" d="M1085.1,-215.52C1100.39,-206.6 1119.19,-195.63 1135.64,-186.03"/>
<polygon fill="darkviolet" stroke="darkviolet" points="1137.35,-189.09 1144.23,-181.02 1133.83,-183.04 1137.35,-189.09"/>
</g>
<!-- 139647983136768&#45;&gt;139647994601072 -->
<g id="edge10" class="edge">
<title>139647983136768&#45;&gt;139647994601072</title>
<path fill="none" stroke="darkviolet" d="M1129.15,-223.99C1199.82,-212.53 1289.96,-188.63 1249.12,-144 1214.66,-106.34 881.69,-95.26 728.98,-92.15"/>
<polygon fill="darkviolet" stroke="darkviolet" points="729.44,-88.66 719.37,-91.96 729.3,-95.66 729.44,-88.66"/>
</g>
<!-- 139647983136768&#45;&gt;139648010987056 -->
<g id="edge11" class="edge">
<title>139647983136768&#45;&gt;139648010987056</title>
<path fill="none" stroke="darkviolet" d="M1049.69,-215.7C1047.34,-208.24 1044.54,-199.32 1041.91,-190.97"/>
<polygon fill="darkviolet" stroke="darkviolet" points="1045.29,-190.04 1038.95,-181.55 1038.61,-192.14 1045.29,-190.04"/>
</g>
<!-- 139647998732176 -->
<g id="node10" class="node">
<title>139647998732176</title>
<polygon fill="none" stroke="black" points="493.25,-252 289,-252 289,-216 493.25,-216 493.25,-252"/>
<text text-anchor="middle" x="391.12" y="-230.45" font-family="sans" font-size="14.00">hyprwayland&#45;scanner@0.4.4</text>
</g>
<!-- 139647998732176&#45;&gt;139648010986880 -->
<g id="edge19" class="edge">
<title>139647998732176&#45;&gt;139648010986880</title>
<path fill="none" stroke="darkgoldenrod" d="M493.65,-220.63C509.21,-218.95 525.08,-217.34 540.12,-216 785.34,-194.16 851.96,-215.45 1098.74,-180.2"/>
<polygon fill="darkgoldenrod" stroke="darkgoldenrod" points="1098.97,-183.71 1108.37,-178.81 1097.97,-176.78 1098.97,-183.71"/>
</g>
<!-- 139647998732176&#45;&gt;139647999052192 -->
<g id="edge13" class="edge">
<title>139647998732176&#45;&gt;139647999052192</title>
<path fill="none" stroke="darkgoldenrod" d="M385.73,-215.57C380.89,-196.27 376.57,-165.12 391.12,-144 434.04,-81.72 633.73,-47.96 771.98,-31.73"/>
<polygon fill="darkgoldenrod" stroke="darkgoldenrod" points="772.04,-35.24 781.57,-30.62 771.23,-28.29 772.04,-35.24"/>
</g>
<!-- 139647998732176&#45;&gt;139647994601248 -->
<g id="edge14" class="edge">
<title>139647998732176&#45;&gt;139647994601248</title>
<path fill="none" stroke="darkgoldenrod" d="M421.85,-215.52C437.67,-206.51 457.15,-195.42 474.13,-185.76"/>
<polygon fill="darkgoldenrod" stroke="darkgoldenrod" points="475.52,-189 482.48,-181.01 472.06,-182.91 475.52,-189"/>
</g>
<!-- 139647998732176&#45;&gt;139647994601072 -->
<g id="edge15" class="edge">
<title>139647998732176&#45;&gt;139647994601072</title>
<path fill="none" stroke="darkgoldenrod" d="M390.35,-215.66C390.45,-195.55 393.87,-162.78 413.12,-144 436.27,-121.42 516.14,-107 577.45,-98.99"/>
<polygon fill="darkgoldenrod" stroke="darkgoldenrod" points="577.68,-102.49 587.16,-97.76 576.8,-95.55 577.68,-102.49"/>
</g>
<!-- 139647998732176&#45;&gt;139648010987056 -->
<g id="edge17" class="edge">
<title>139647998732176&#45;&gt;139648010987056</title>
<path fill="none" stroke="darkgoldenrod" d="M493.7,-221.15C509.25,-219.4 525.11,-217.63 540.12,-216 695.15,-199.16 734.14,-197.14 889.12,-180 913.1,-177.35 939.3,-174.3 962.7,-171.52"/>
<polygon fill="darkgoldenrod" stroke="darkgoldenrod" points="962.93,-175.02 972.44,-170.36 962.1,-168.07 962.93,-175.02"/>
</g>
<!-- 139648010986704 -->
<g id="node11" class="node">
<title>139648010986704</title>
<polygon fill="none" stroke="black" points="132.25,-180 0,-180 0,-144 132.25,-144 132.25,-180"/>
<text text-anchor="middle" x="66.12" y="-158.45" font-family="sans" font-size="14.00">hyprpicker@0.4.5</text>
</g>
<!-- 139647998732176&#45;&gt;139648010986704 -->
<g id="edge16" class="edge">
<title>139647998732176&#45;&gt;139648010986704</title>
<path fill="none" stroke="darkgoldenrod" d="M309.95,-215.52C259.09,-204.56 193.9,-190.52 143.73,-179.71"/>
<polygon fill="darkgoldenrod" stroke="darkgoldenrod" points="144.6,-176.32 134.09,-177.64 143.13,-183.17 144.6,-176.32"/>
</g>
<!-- 139648010884832 -->
<g id="node12" class="node">
<title>139648010884832</title>
<polygon fill="none" stroke="black" points="328.38,-180 187.88,-180 187.88,-144 328.38,-144 328.38,-180"/>
<text text-anchor="middle" x="258.12" y="-158.45" font-family="sans" font-size="14.00">aquamarine@0.8.0</text>
</g>
<!-- 139647998732176&#45;&gt;139648010884832 -->
<g id="edge18" class="edge">
<title>139647998732176&#45;&gt;139648010884832</title>
<path fill="none" stroke="darkgoldenrod" d="M357.91,-215.52C340.64,-206.43 319.34,-195.22 300.85,-185.49"/>
<polygon fill="darkgoldenrod" stroke="darkgoldenrod" points="302.74,-182.53 292.26,-180.97 299.48,-188.72 302.74,-182.53"/>
</g>
<!-- 139648010986704&#45;&gt;139647993772800 -->
<g id="edge20" class="edge">
<title>139648010986704&#45;&gt;139647993772800</title>
<path fill="none" stroke="darkviolet" d="M111,-143.59C178.05,-117.58 304.22,-68.62 376.85,-40.44"/>
<polygon fill="darkviolet" stroke="darkviolet" points="377.7,-43.87 385.75,-36.99 375.17,-37.34 377.7,-43.87"/>
</g>
<!-- 139648010884832&#45;&gt;139647994601072 -->
<g id="edge21" class="edge">
<title>139648010884832&#45;&gt;139647994601072</title>
<path fill="none" stroke="darkviolet" d="M328.74,-148.49C398.78,-136.07 505.73,-117.12 577.48,-104.41"/>
<polygon fill="darkviolet" stroke="darkviolet" points="577.95,-107.88 587.19,-102.69 576.73,-100.98 577.95,-107.88"/>
</g>
<!-- 139647983390320 -->
<g id="node13" class="node">
<title>139647983390320</title>
<polygon fill="none" stroke="black" points="867.25,-324 747,-324 747,-288 867.25,-288 867.25,-324"/>
<text text-anchor="middle" x="807.12" y="-302.45" font-family="sans" font-size="14.00">hyprutils@0.7.1</text>
</g>
<!-- 139647983390320&#45;&gt;139648010986880 -->
<g id="edge31" class="edge">
<title>139647983390320&#45;&gt;139648010986880</title>
<path fill="none" stroke="darkgoldenrod" d="M867.5,-302.27C951.29,-297.35 1097.17,-284.3 1138.12,-252 1156.8,-237.27 1166.14,-211.47 1170.76,-191.43"/>
<polygon fill="darkgoldenrod" stroke="darkgoldenrod" points="1174.13,-192.4 1172.67,-181.9 1167.27,-191.02 1174.13,-192.4"/>
</g>
<!-- 139647983390320&#45;&gt;139647983390496 -->
<g id="edge22" class="edge">
<title>139647983390320&#45;&gt;139647983390496</title>
<path fill="none" stroke="darkgoldenrod" d="M818,-287.7C822.9,-279.9 828.81,-270.51 834.26,-261.83"/>
<polygon fill="darkgoldenrod" stroke="darkgoldenrod" points="837.21,-263.71 839.57,-253.39 831.28,-259.99 837.21,-263.71"/>
</g>
<!-- 139647983390320&#45;&gt;139647999052192 -->
<g id="edge24" class="edge">
<title>139647983390320&#45;&gt;139647999052192</title>
<path fill="none" stroke="darkgoldenrod" d="M867.71,-304.32C940.51,-301.65 1065.21,-291.1 1164.12,-252 1216.41,-231.33 1242.03,-229.8 1268.12,-180 1318.85,-83.19 1166.32,-44.51 1044.3,-29.11"/>
<polygon fill="darkgoldenrod" stroke="darkgoldenrod" points="1044.82,-25.65 1034.47,-27.92 1043.98,-32.6 1044.82,-25.65"/>
</g>
<!-- 139647983390320&#45;&gt;139647994601248 -->
<g id="edge26" class="edge">
<title>139647983390320&#45;&gt;139647994601248</title>
<path fill="none" stroke="darkgoldenrod" d="M746.7,-300.23C677.46,-293.55 569.71,-279.08 540.12,-252 523.51,-236.79 517.29,-211.61 515.07,-191.91"/>
<polygon fill="darkgoldenrod" stroke="darkgoldenrod" points="518.56,-191.68 514.26,-181.99 511.58,-192.24 518.56,-191.68"/>
</g>
<!-- 139647983390320&#45;&gt;139647994601072 -->
<g id="edge27" class="edge">
<title>139647983390320&#45;&gt;139647994601072</title>
<path fill="none" stroke="darkgoldenrod" d="M797.66,-287.79C786.58,-268.69 766.84,-237.72 744.12,-216 722.74,-195.55 706.89,-202.87 688.12,-180 673.72,-162.44 664.71,-138.23 659.45,-119.49"/>
<polygon fill="darkgoldenrod" stroke="darkgoldenrod" points="662.85,-118.64 656.96,-109.83 656.07,-120.39 662.85,-118.64"/>
</g>
<!-- 139647983390320&#45;&gt;139648010987056 -->
<g id="edge29" class="edge">
<title>139647983390320&#45;&gt;139648010987056</title>
<path fill="none" stroke="darkgoldenrod" d="M850.18,-287.58C871.78,-278.15 898,-265.65 920.12,-252 951.13,-232.87 983.5,-206.64 1005.6,-187.61"/>
<polygon fill="darkgoldenrod" stroke="darkgoldenrod" points="1007.74,-190.39 1012.99,-181.19 1003.14,-185.11 1007.74,-190.39"/>
</g>
<!-- 139647983390320&#45;&gt;139647983136768 -->
<g id="edge23" class="edge">
<title>139647983390320&#45;&gt;139647983136768</title>
<path fill="none" stroke="darkgoldenrod" d="M867.48,-287.97C902.04,-278.21 945.65,-265.9 982.13,-255.6"/>
<polygon fill="darkgoldenrod" stroke="darkgoldenrod" points="983.08,-258.97 991.75,-252.89 981.18,-252.24 983.08,-258.97"/>
</g>
<!-- 139647983390320&#45;&gt;139648010986704 -->
<g id="edge28" class="edge">
<title>139647983390320&#45;&gt;139648010986704</title>
<path fill="none" stroke="darkgoldenrod" d="M746.57,-305.33C576.65,-305.64 104.67,-301.95 58.12,-252 43.18,-235.96 47.17,-210.52 53.74,-190.94"/>
<polygon fill="darkgoldenrod" stroke="darkgoldenrod" points="57,-192.21 57.25,-181.62 50.45,-189.74 57,-192.21"/>
</g>
<!-- 139647983390320&#45;&gt;139648010884832 -->
<g id="edge30" class="edge">
<title>139647983390320&#45;&gt;139648010884832</title>
<path fill="none" stroke="darkgoldenrod" d="M746.51,-302.79C615.47,-297.45 314.77,-282.05 280.12,-252 263.12,-237.25 258.19,-211.63 257.18,-191.65"/>
<polygon fill="darkgoldenrod" stroke="darkgoldenrod" points="260.68,-191.83 257.01,-181.9 253.69,-191.96 260.68,-191.83"/>
</g>
<!-- 139647980006496 -->
<g id="node14" class="node">
<title>139647980006496</title>
<polygon fill="none" stroke="black" points="233.5,-252 66.75,-252 66.75,-216 233.5,-216 233.5,-252"/>
<text text-anchor="middle" x="150.12" y="-230.45" font-family="sans" font-size="14.00">hyprland&#45;qtutils@0.1.4</text>
</g>
<!-- 139647983390320&#45;&gt;139647980006496 -->
<g id="edge25" class="edge">
<title>139647983390320&#45;&gt;139647980006496</title>
<path fill="none" stroke="darkgoldenrod" d="M746.86,-300.87C644.07,-293.47 428.35,-276.42 247.12,-252 246.45,-251.91 245.77,-251.82 245.09,-251.72"/>
<polygon fill="darkgoldenrod" stroke="darkgoldenrod" points="245.82,-248.29 235.42,-250.33 244.82,-255.22 245.82,-248.29"/>
</g>
<!-- 139647980006496&#45;&gt;139647994601072 -->
<g id="edge32" class="edge">
<title>139647980006496&#45;&gt;139647994601072</title>
<path fill="none" stroke="darkviolet" d="M150.49,-215.52C151.95,-194.97 157.71,-161.45 179.12,-144 209.32,-119.4 451.11,-102.34 577.2,-95.01"/>
<polygon fill="darkviolet" stroke="darkviolet" points="577.37,-98.51 587.15,-94.44 576.97,-91.52 577.37,-98.51"/>
</g>
<!-- 139647998732352 -->
<g id="node15" class="node">
<title>139647998732352</title>
<polygon fill="none" stroke="black" points="734.88,-252 549.38,-252 549.38,-216 734.88,-216 734.88,-252"/>
<text text-anchor="middle" x="642.12" y="-230.45" font-family="sans" font-size="14.00">hyprland&#45;protocols@0.6.4</text>
</g>
<!-- 139647998732352&#45;&gt;139647999052192 -->
<g id="edge33" class="edge">
<title>139647998732352&#45;&gt;139647999052192</title>
<path fill="none" stroke="darkviolet" d="M735.13,-218.38C800.6,-207.2 878.42,-191.76 889.12,-180 921.89,-144 919.06,-83.16 913.77,-47.47"/>
<polygon fill="darkviolet" stroke="darkviolet" points="917.27,-47.19 912.18,-37.9 910.37,-48.34 917.27,-47.19"/>
</g>
<!-- 139647998732352&#45;&gt;139647994601248 -->
<g id="edge34" class="edge">
<title>139647998732352&#45;&gt;139647994601248</title>
<path fill="none" stroke="darkviolet" d="M610.16,-215.52C593.69,-206.51 573.41,-195.42 555.74,-185.76"/>
<polygon fill="darkviolet" stroke="darkviolet" points="557.47,-182.71 547.02,-180.99 554.11,-188.86 557.47,-182.71"/>
</g>
<!-- 139647998732352&#45;&gt;139647994601072 -->
<g id="edge35" class="edge">
<title>139647998732352&#45;&gt;139647994601072</title>
<path fill="none" stroke="darkviolet" d="M643.47,-215.59C645.33,-191.61 648.7,-148.14 650.92,-119.42"/>
<polygon fill="darkviolet" stroke="darkviolet" points="654.4,-119.86 651.68,-109.62 647.42,-119.32 654.4,-119.86"/>
</g>
</g>
</svg>
