<?xml version="1.0" encoding="UTF-8" standalone="no"?>
<!DOCTYPE svg PUBLIC "-//W3C//DTD SVG 1.1//EN"
 "http://www.w3.org/Graphics/SVG/1.1/DTD/svg11.dtd">
<!-- Generated by graphviz version 11.0.0 (0)
 -->
<!-- Title: QT Pages: 1 -->
<svg width="589pt" height="116pt"
 viewBox="0.00 0.00 588.70 116.00" xmlns="http://www.w3.org/2000/svg" xmlns:xlink="http://www.w3.org/1999/xlink">
<g id="graph0" class="graph" transform="scale(1 1) rotate(0) translate(4 112)">
<title>QT</title>
<polygon fill="white" stroke="none" points="-4,4 -4,-112 584.7,-112 584.7,4 -4,4"/>
<!-- plasma&#45;desktop -->
<g id="node1" class="node">
<title>plasma&#45;desktop</title>
<ellipse fill="none" stroke="black" cx="89.61" cy="-90" rx="89.61" ry="18"/>
<text text-anchor="middle" x="89.61" y="-85.33" font-family="Times,serif" font-size="14.00">plasma&#45;desktop</text>
</g>
<!-- plasma&#45;workspace -->
<g id="node2" class="node">
<title>plasma&#45;workspace</title>
<ellipse fill="none" stroke="black" cx="280.61" cy="-18" rx="103.29" ry="18"/>
<text text-anchor="middle" x="280.61" y="-13.32" font-family="Times,serif" font-size="14.00">plasma&#45;workspace</text>
</g>
<!-- plasma&#45;desktop&#45;&gt;plasma&#45;workspace -->
<g id="edge1" class="edge">
<title>plasma&#45;desktop&#45;&gt;plasma&#45;workspace</title>
<path fill="none" stroke="black" d="M131.53,-73.64C159.5,-63.39 196.54,-49.81 226.7,-38.76"/>
<polygon fill="black" stroke="black" points="227.87,-42.06 236.05,-35.33 225.46,-35.49 227.87,-42.06"/>
</g>
<!-- plasma&#45;mobile -->
<g id="node3" class="node">
<title>plasma&#45;mobile</title>
<ellipse fill="none" stroke="black" cx="280.61" cy="-90" rx="83.83" ry="18"/>
<text text-anchor="middle" x="280.61" y="-85.33" font-family="Times,serif" font-size="14.00">plasma&#45;mobile</text>
</g>
<!-- plasma&#45;mobile&#45;&gt;plasma&#45;workspace -->
<g id="edge2" class="edge">
<title>plasma&#45;mobile&#45;&gt;plasma&#45;workspace</title>
<path fill="none" stroke="black" d="M280.61,-71.7C280.61,-64.41 280.61,-55.73 280.61,-47.54"/>
<polygon fill="black" stroke="black" points="284.11,-47.62 280.61,-37.62 277.11,-47.62 284.11,-47.62"/>
</g>
<!-- plasma&#45;bigscreen -->
<g id="node4" class="node">
<title>plasma&#45;bigscreen</title>
<ellipse fill="none" stroke="black" cx="481.61" cy="-90" rx="99.08" ry="18"/>
<text text-anchor="middle" x="481.61" y="-85.33" font-family="Times,serif" font-size="14.00">plasma&#45;bigscreen</text>
</g>
<!-- plasma&#45;bigscreen&#45;&gt;plasma&#45;workspace -->
<g id="edge3" class="edge">
<title>plasma&#45;bigscreen&#45;&gt;plasma&#45;workspace</title>
<path fill="none" stroke="black" d="M437.01,-73.46C407.18,-63.08 367.73,-49.34 335.92,-38.26"/>
<polygon fill="black" stroke="black" points="337.47,-35.09 326.87,-35.11 335.17,-41.7 337.47,-35.09"/>
</g>
</g>
</svg>
