<?xml version="1.0" encoding="UTF-8" standalone="no"?>
<!DOCTYPE svg PUBLIC "-//W3C//DTD SVG 1.1//EN"
 "http://www.w3.org/Graphics/SVG/1.1/DTD/svg11.dtd">
<!-- Generated by graphviz version 12.2.1 (0)
 -->
<!-- Title: G Pages: 1 -->
<svg width="1981pt" height="260pt"
 viewBox="0.00 0.00 1981.44 260.00" xmlns="http://www.w3.org/2000/svg" xmlns:xlink="http://www.w3.org/1999/xlink">
<g id="graph0" class="graph" transform="scale(1 1) rotate(0) translate(4 256)">
<title>G</title>
<polygon fill="white" stroke="none" points="-4,4 -4,-256 1977.44,-256 1977.44,4 -4,4"/>
<!-- n22 -->
<g id="node1" class="node">
<title>n22</title>
<ellipse fill="none" stroke="red" cx="1768.13" cy="-90" rx="84.35" ry="18"/>
<text text-anchor="middle" x="1768.13" y="-85.33" font-family="Times,serif" font-size="14.00">README.html</text>
</g>
<!-- n2 -->
<g id="node3" class="node">
<title>n2</title>
<ellipse fill="none" stroke="red" cx="1145.13" cy="-18" rx="27" ry="18"/>
<text text-anchor="middle" x="1145.13" y="-13.32" font-family="Times,serif" font-size="14.00">all</text>
</g>
<!-- n22&#45;&gt;n2 -->
<g id="edge2" class="edge">
<title>n22&#45;&gt;n2</title>
<path fill="none" stroke="black" d="M1707.21,-77.13C1696.54,-75.26 1685.53,-73.47 1675.13,-72 1491.92,-46.14 1271.33,-28.33 1183.71,-21.78"/>
<polygon fill="black" stroke="black" points="1183.99,-18.29 1173.76,-21.04 1183.47,-25.27 1183.99,-18.29"/>
</g>
<!-- n23 -->
<g id="node2" class="node">
<title>n23</title>
<ellipse fill="none" stroke="green" cx="1768.13" cy="-162" rx="76.99" ry="18"/>
<text text-anchor="middle" x="1768.13" y="-157.32" font-family="Times,serif" font-size="14.00">README.md</text>
</g>
<!-- n23&#45;&gt;n22 -->
<g id="edge1" class="edge">
<title>n23&#45;&gt;n22</title>
<path fill="none" stroke="black" d="M1768.13,-143.7C1768.13,-136.41 1768.13,-127.73 1768.13,-119.54"/>
<polygon fill="black" stroke="black" points="1771.63,-119.62 1768.13,-109.62 1764.63,-119.62 1771.63,-119.62"/>
</g>
<!-- n5 -->
<g id="node4" class="node">
<title>n5</title>
<ellipse fill="none" stroke="green" cx="1024.13" cy="-234" rx="95.93" ry="18"/>
<text text-anchor="middle" x="1024.13" y="-229.32" font-family="Times,serif" font-size="14.00">ansible/action.py</text>
</g>
<!-- n3 -->
<g id="node20" class="node">
<title>n3</title>
<ellipse fill="none" stroke="green" cx="1464.13" cy="-162" rx="40.69" ry="18"/>
<text text-anchor="middle" x="1464.13" y="-157.32" font-family="Times,serif" font-size="14.00">regpg</text>
</g>
<!-- n5&#45;&gt;n3 -->
<g id="edge18" class="edge">
<title>n5&#45;&gt;n3</title>
<path fill="none" stroke="black" d="M1094.6,-221.4C1105.82,-219.58 1117.29,-217.73 1128.13,-216 1231.17,-199.58 1257.08,-196.42 1360.13,-180 1378.21,-177.12 1398.05,-173.89 1415.51,-171.03"/>
<polygon fill="black" stroke="black" points="1415.8,-174.53 1425.1,-169.46 1414.66,-167.62 1415.8,-174.53"/>
</g>
<!-- n6 -->
<g id="node5" class="node">
<title>n6</title>
<ellipse fill="none" stroke="green" cx="1226.13" cy="-234" rx="88.56" ry="18"/>
<text text-anchor="middle" x="1226.13" y="-229.32" font-family="Times,serif" font-size="14.00">ansible/filter.py</text>
</g>
<!-- n6&#45;&gt;n3 -->
<g id="edge19" class="edge">
<title>n6&#45;&gt;n3</title>
<path fill="none" stroke="black" d="M1275.15,-218.58C1317.69,-206.07 1378.73,-188.12 1419.83,-176.03"/>
<polygon fill="black" stroke="black" points="1420.8,-179.39 1429.4,-173.21 1418.82,-172.68 1420.8,-179.39"/>
</g>
<!-- n7 -->
<g id="node6" class="node">
<title>n7</title>
<ellipse fill="none" stroke="green" cx="1464.13" cy="-234" rx="131.7" ry="18"/>
<text text-anchor="middle" x="1464.13" y="-229.32" font-family="Times,serif" font-size="14.00">ansible/gpg&#45;preload.yml</text>
</g>
<!-- n7&#45;&gt;n3 -->
<g id="edge20" class="edge">
<title>n7&#45;&gt;n3</title>
<path fill="none" stroke="black" d="M1464.13,-215.7C1464.13,-208.41 1464.13,-199.73 1464.13,-191.54"/>
<polygon fill="black" stroke="black" points="1467.63,-191.62 1464.13,-181.62 1460.63,-191.62 1467.63,-191.62"/>
</g>
<!-- n8 -->
<g id="node7" class="node">
<title>n8</title>
<ellipse fill="none" stroke="green" cx="1731.13" cy="-234" rx="117.5" ry="18"/>
<text text-anchor="middle" x="1731.13" y="-229.32" font-family="Times,serif" font-size="14.00">ansible/vault&#45;open.sh</text>
</g>
<!-- n8&#45;&gt;n3 -->
<g id="edge21" class="edge">
<title>n8&#45;&gt;n3</title>
<path fill="none" stroke="black" d="M1673.52,-217.9C1624.34,-205 1554.58,-186.71 1509.34,-174.85"/>
<polygon fill="black" stroke="black" points="1510.42,-171.52 1499.86,-172.37 1508.65,-178.29 1510.42,-171.52"/>
</g>
<!-- n10 -->
<g id="node8" class="node">
<title>n10</title>
<ellipse fill="none" stroke="red" cx="120.13" cy="-90" rx="120.13" ry="18"/>
<text text-anchor="middle" x="120.13" y="-85.33" font-family="Times,serif" font-size="14.00">doc/contributing.html</text>
</g>
<!-- n10&#45;&gt;n2 -->
<g id="edge3" class="edge">
<title>n10&#45;&gt;n2</title>
<path fill="none" stroke="black" d="M205.03,-76.93C219.72,-75.09 234.85,-73.36 249.13,-72 580.49,-40.41 982.7,-24.64 1106.82,-20.28"/>
<polygon fill="black" stroke="black" points="1106.56,-23.79 1116.44,-19.95 1106.32,-16.79 1106.56,-23.79"/>
</g>
<!-- n11 -->
<g id="node9" class="node">
<title>n11</title>
<ellipse fill="none" stroke="green" cx="120.13" cy="-162" rx="112.76" ry="18"/>
<text text-anchor="middle" x="120.13" y="-157.32" font-family="Times,serif" font-size="14.00">doc/contributing.md</text>
</g>
<!-- n11&#45;&gt;n10 -->
<g id="edge12" class="edge">
<title>n11&#45;&gt;n10</title>
<path fill="none" stroke="black" d="M120.13,-143.7C120.13,-136.41 120.13,-127.73 120.13,-119.54"/>
<polygon fill="black" stroke="black" points="123.63,-119.62 120.13,-109.62 116.63,-119.62 123.63,-119.62"/>
</g>
<!-- n12 -->
<g id="node10" class="node">
<title>n12</title>
<ellipse fill="none" stroke="red" cx="361.13" cy="-90" rx="102.77" ry="18"/>
<text text-anchor="middle" x="361.13" y="-85.33" font-family="Times,serif" font-size="14.00">doc/rationale.html</text>
</g>
<!-- n12&#45;&gt;n2 -->
<g id="edge4" class="edge">
<title>n12&#45;&gt;n2</title>
<path fill="none" stroke="black" d="M434.83,-77.04C447.58,-75.19 460.72,-73.43 473.13,-72 713.57,-44.31 1004.1,-26.77 1106.86,-21.05"/>
<polygon fill="black" stroke="black" points="1106.87,-24.56 1116.66,-20.51 1106.48,-17.57 1106.87,-24.56"/>
</g>
<!-- n13 -->
<g id="node11" class="node">
<title>n13</title>
<ellipse fill="none" stroke="green" cx="361.13" cy="-162" rx="95.4" ry="18"/>
<text text-anchor="middle" x="361.13" y="-157.32" font-family="Times,serif" font-size="14.00">doc/rationale.md</text>
</g>
<!-- n13&#45;&gt;n12 -->
<g id="edge13" class="edge">
<title>n13&#45;&gt;n12</title>
<path fill="none" stroke="black" d="M361.13,-143.7C361.13,-136.41 361.13,-127.73 361.13,-119.54"/>
<polygon fill="black" stroke="black" points="364.63,-119.62 361.13,-109.62 357.63,-119.62 364.63,-119.62"/>
</g>
<!-- n14 -->
<g id="node12" class="node">
<title>n14</title>
<ellipse fill="none" stroke="red" cx="581.13" cy="-90" rx="99.08" ry="18"/>
<text text-anchor="middle" x="581.13" y="-85.33" font-family="Times,serif" font-size="14.00">doc/relnotes.html</text>
</g>
<!-- n14&#45;&gt;n2 -->
<g id="edge5" class="edge">
<title>n14&#45;&gt;n2</title>
<path fill="none" stroke="black" d="M653.11,-77.26C665.12,-75.41 677.47,-73.59 689.13,-72 843.85,-50.84 1028.87,-31.02 1107.16,-22.89"/>
<polygon fill="black" stroke="black" points="1107.26,-26.4 1116.85,-21.89 1106.54,-19.43 1107.26,-26.4"/>
</g>
<!-- n15 -->
<g id="node13" class="node">
<title>n15</title>
<ellipse fill="none" stroke="green" cx="581.13" cy="-162" rx="91.72" ry="18"/>
<text text-anchor="middle" x="581.13" y="-157.32" font-family="Times,serif" font-size="14.00">doc/relnotes.md</text>
</g>
<!-- n15&#45;&gt;n14 -->
<g id="edge14" class="edge">
<title>n15&#45;&gt;n14</title>
<path fill="none" stroke="black" d="M581.13,-143.7C581.13,-136.41 581.13,-127.73 581.13,-119.54"/>
<polygon fill="black" stroke="black" points="584.63,-119.62 581.13,-109.62 577.63,-119.62 584.63,-119.62"/>
</g>
<!-- n16 -->
<g id="node14" class="node">
<title>n16</title>
<ellipse fill="none" stroke="red" cx="792.13" cy="-90" rx="94.35" ry="18"/>
<text text-anchor="middle" x="792.13" y="-85.33" font-family="Times,serif" font-size="14.00">doc/secrets.html</text>
</g>
<!-- n16&#45;&gt;n2 -->
<g id="edge6" class="edge">
<title>n16&#45;&gt;n2</title>
<path fill="none" stroke="black" d="M855.65,-76.4C929.34,-61.79 1048.36,-38.19 1108.23,-26.32"/>
<polygon fill="black" stroke="black" points="1108.78,-29.78 1117.9,-24.4 1107.41,-22.91 1108.78,-29.78"/>
</g>
<!-- n17 -->
<g id="node15" class="node">
<title>n17</title>
<ellipse fill="none" stroke="green" cx="792.13" cy="-162" rx="86.98" ry="18"/>
<text text-anchor="middle" x="792.13" y="-157.32" font-family="Times,serif" font-size="14.00">doc/secrets.md</text>
</g>
<!-- n17&#45;&gt;n16 -->
<g id="edge15" class="edge">
<title>n17&#45;&gt;n16</title>
<path fill="none" stroke="black" d="M792.13,-143.7C792.13,-136.41 792.13,-127.73 792.13,-119.54"/>
<polygon fill="black" stroke="black" points="795.63,-119.62 792.13,-109.62 788.63,-119.62 795.63,-119.62"/>
</g>
<!-- n18 -->
<g id="node16" class="node">
<title>n18</title>
<ellipse fill="none" stroke="red" cx="1027.13" cy="-90" rx="122.76" ry="18"/>
<text text-anchor="middle" x="1027.13" y="-85.33" font-family="Times,serif" font-size="14.00">doc/threat&#45;model.html</text>
</g>
<!-- n18&#45;&gt;n2 -->
<g id="edge7" class="edge">
<title>n18&#45;&gt;n2</title>
<path fill="none" stroke="black" d="M1055.69,-72.05C1073.79,-61.32 1097.16,-47.46 1115.47,-36.59"/>
<polygon fill="black" stroke="black" points="1117.2,-39.64 1124.02,-31.52 1113.63,-33.62 1117.2,-39.64"/>
</g>
<!-- n19 -->
<g id="node17" class="node">
<title>n19</title>
<ellipse fill="none" stroke="green" cx="1027.13" cy="-162" rx="115.39" ry="18"/>
<text text-anchor="middle" x="1027.13" y="-157.32" font-family="Times,serif" font-size="14.00">doc/threat&#45;model.md</text>
</g>
<!-- n19&#45;&gt;n18 -->
<g id="edge16" class="edge">
<title>n19&#45;&gt;n18</title>
<path fill="none" stroke="black" d="M1027.13,-143.7C1027.13,-136.41 1027.13,-127.73 1027.13,-119.54"/>
<polygon fill="black" stroke="black" points="1030.63,-119.62 1027.13,-109.62 1023.63,-119.62 1030.63,-119.62"/>
</g>
<!-- n20 -->
<g id="node18" class="node">
<title>n20</title>
<ellipse fill="none" stroke="red" cx="1263.13" cy="-90" rx="95.4" ry="18"/>
<text text-anchor="middle" x="1263.13" y="-85.33" font-family="Times,serif" font-size="14.00">doc/tutorial.html</text>
</g>
<!-- n20&#45;&gt;n2 -->
<g id="edge8" class="edge">
<title>n20&#45;&gt;n2</title>
<path fill="none" stroke="black" d="M1235.16,-72.41C1216.88,-61.56 1193.03,-47.42 1174.47,-36.41"/>
<polygon fill="black" stroke="black" points="1176.47,-33.52 1166.08,-31.43 1172.89,-39.54 1176.47,-33.52"/>
</g>
<!-- n21 -->
<g id="node19" class="node">
<title>n21</title>
<ellipse fill="none" stroke="green" cx="1263.13" cy="-162" rx="88.04" ry="18"/>
<text text-anchor="middle" x="1263.13" y="-157.32" font-family="Times,serif" font-size="14.00">doc/tutorial.md</text>
</g>
<!-- n21&#45;&gt;n20 -->
<g id="edge17" class="edge">
<title>n21&#45;&gt;n20</title>
<path fill="none" stroke="black" d="M1263.13,-143.7C1263.13,-136.41 1263.13,-127.73 1263.13,-119.54"/>
<polygon fill="black" stroke="black" points="1266.63,-119.62 1263.13,-109.62 1259.63,-119.62 1266.63,-119.62"/>
</g>
<!-- n3&#45;&gt;n2 -->
<g id="edge9" class="edge">
<title>n3&#45;&gt;n2</title>
<path fill="none" stroke="black" d="M1446.46,-145.35C1434.68,-134.86 1418.89,-120.7 1405.13,-108 1388.03,-92.23 1387.59,-83.08 1367.13,-72 1307.83,-39.88 1229.26,-27.05 1183.25,-22.05"/>
<polygon fill="black" stroke="black" points="1183.82,-18.59 1173.52,-21.06 1183.11,-25.55 1183.82,-18.59"/>
</g>
<!-- n24 -->
<g id="node21" class="node">
<title>n24</title>
<ellipse fill="none" stroke="red" cx="1464.13" cy="-90" rx="50.16" ry="18"/>
<text text-anchor="middle" x="1464.13" y="-85.33" font-family="Times,serif" font-size="14.00">regpg.1</text>
</g>
<!-- n3&#45;&gt;n24 -->
<g id="edge23" class="edge">
<title>n3&#45;&gt;n24</title>
<path fill="none" stroke="black" d="M1464.13,-143.7C1464.13,-136.41 1464.13,-127.73 1464.13,-119.54"/>
<polygon fill="black" stroke="black" points="1467.63,-119.62 1464.13,-109.62 1460.63,-119.62 1467.63,-119.62"/>
</g>
<!-- n9 -->
<g id="node22" class="node">
<title>n9</title>
<ellipse fill="none" stroke="green" cx="1599.13" cy="-90" rx="66.99" ry="18"/>
<text text-anchor="middle" x="1599.13" y="-85.33" font-family="Times,serif" font-size="14.00">regpg.html</text>
</g>
<!-- n3&#45;&gt;n9 -->
<g id="edge24" class="edge">
<title>n3&#45;&gt;n9</title>
<path fill="none" stroke="black" d="M1489.84,-147.67C1509.48,-137.49 1536.89,-123.27 1559.35,-111.62"/>
<polygon fill="black" stroke="black" points="1560.67,-114.89 1567.93,-107.17 1557.45,-108.67 1560.67,-114.89"/>
</g>
<!-- n24&#45;&gt;n2 -->
<g id="edge10" class="edge">
<title>n24&#45;&gt;n2</title>
<path fill="none" stroke="black" d="M1425.29,-78.32C1417.01,-76.14 1408.3,-73.93 1400.13,-72 1322.93,-53.74 1231.78,-35.62 1182.06,-26.02"/>
<polygon fill="black" stroke="black" points="1182.9,-22.61 1172.42,-24.16 1181.58,-29.49 1182.9,-22.61"/>
</g>
<!-- n9&#45;&gt;n2 -->
<g id="edge11" class="edge">
<title>n9&#45;&gt;n2</title>
<path fill="none" stroke="black" d="M1550.19,-77.44C1541.21,-75.5 1531.91,-73.59 1523.13,-72 1399.5,-49.54 1251.63,-31.28 1183.26,-23.31"/>
<polygon fill="black" stroke="black" points="1183.67,-19.84 1173.33,-22.17 1182.86,-26.79 1183.67,-19.84"/>
</g>
<!-- n4 -->
<g id="node23" class="node">
<title>n4</title>
<ellipse fill="none" stroke="green" cx="1920.13" cy="-234" rx="53.31" ry="18"/>
<text text-anchor="middle" x="1920.13" y="-229.32" font-family="Times,serif" font-size="14.00">regpg.pl</text>
</g>
<!-- n4&#45;&gt;n3 -->
<g id="edge22" class="edge">
<title>n4&#45;&gt;n3</title>
<path fill="none" stroke="black" d="M1880.66,-221.51C1872.9,-219.49 1864.79,-217.54 1857.13,-216 1735.32,-191.46 1589.92,-175.18 1514.75,-167.71"/>
<polygon fill="black" stroke="black" points="1515.54,-164.27 1505.24,-166.78 1514.85,-171.24 1515.54,-164.27"/>
</g>
</g>
</svg>
