<?xml version="1.0" encoding="UTF-8" standalone="no"?>
<!DOCTYPE svg PUBLIC "-//W3C//DTD SVG 1.1//EN"
 "http://www.w3.org/Graphics/SVG/1.1/DTD/svg11.dtd">
<!-- Generated by graphviz version 12.2.1 (0)
 -->
<!-- Title: G Pages: 1 -->
<svg width="596pt" height="116pt"
 viewBox="0.00 0.00 596.21 116.00" xmlns="http://www.w3.org/2000/svg" xmlns:xlink="http://www.w3.org/1999/xlink">
<g id="graph0" class="graph" transform="scale(1 1) rotate(0) translate(4 112)">
<title>G</title>
<polygon fill="white" stroke="none" points="-4,4 -4,-112 592.21,-112 592.21,4 -4,4"/>
<!-- agutils -->
<g id="node1" class="node">
<title>agutils</title>
<ellipse fill="none" stroke="black" cx="45.42" cy="-90" rx="45.42" ry="18"/>
<text text-anchor="middle" x="45.42" y="-85.33" font-family="Times,serif" font-size="14.00">agutils</text>
</g>
<!-- futils -->
<g id="node2" class="node">
<title>futils</title>
<ellipse fill="none" stroke="black" cx="145.42" cy="-90" rx="37" ry="18"/>
<text text-anchor="middle" x="145.42" y="-85.33" font-family="Times,serif" font-size="14.00">futils</text>
</g>
<!-- cutils -->
<g id="node5" class="node">
<title>cutils</title>
<ellipse fill="none" stroke="black" cx="236.42" cy="-18" rx="38.58" ry="18"/>
<text text-anchor="middle" x="236.42" y="-13.32" font-family="Times,serif" font-size="14.00">cutils</text>
</g>
<!-- futils&#45;&gt;cutils -->
<g id="edge1" class="edge">
<title>futils&#45;&gt;cutils</title>
<path fill="none" stroke="black" d="M164.72,-74.15C177.39,-64.41 194.17,-51.5 208.31,-40.63"/>
<polygon fill="black" stroke="black" points="210.16,-43.62 215.95,-34.75 205.89,-38.07 210.16,-43.62"/>
</g>
<!-- lutils -->
<g id="node3" class="node">
<title>lutils</title>
<ellipse fill="none" stroke="black" cx="236.42" cy="-90" rx="36.48" ry="18"/>
<text text-anchor="middle" x="236.42" y="-85.33" font-family="Times,serif" font-size="14.00">lutils</text>
</g>
<!-- lutils&#45;&gt;cutils -->
<g id="edge2" class="edge">
<title>lutils&#45;&gt;cutils</title>
<path fill="none" stroke="black" d="M236.42,-71.7C236.42,-64.41 236.42,-55.73 236.42,-47.54"/>
<polygon fill="black" stroke="black" points="239.92,-47.62 236.42,-37.62 232.92,-47.62 239.92,-47.62"/>
</g>
<!-- nutils -->
<g id="node4" class="node">
<title>nutils</title>
<ellipse fill="none" stroke="black" cx="330.42" cy="-90" rx="39.63" ry="18"/>
<text text-anchor="middle" x="330.42" y="-85.33" font-family="Times,serif" font-size="14.00">nutils</text>
</g>
<!-- nutils&#45;&gt;cutils -->
<g id="edge3" class="edge">
<title>nutils&#45;&gt;cutils</title>
<path fill="none" stroke="black" d="M310.49,-74.15C297.4,-64.41 280.07,-51.5 265.46,-40.63"/>
<polygon fill="black" stroke="black" points="267.65,-37.89 257.54,-34.73 263.47,-43.51 267.65,-37.89"/>
</g>
<!-- devinfo -->
<g id="node6" class="node">
<title>devinfo</title>
<ellipse fill="none" stroke="black" cx="436.42" cy="-90" rx="48.05" ry="18"/>
<text text-anchor="middle" x="436.42" y="-85.33" font-family="Times,serif" font-size="14.00">devinfo</text>
</g>
<!-- mutils -->
<g id="node7" class="node">
<title>mutils</title>
<ellipse fill="none" stroke="black" cx="545.42" cy="-90" rx="42.79" ry="18"/>
<text text-anchor="middle" x="545.42" y="-85.33" font-family="Times,serif" font-size="14.00">mutils</text>
</g>
</g>
</svg>
