<?xml version="1.0" encoding="UTF-8" standalone="no"?>
<!DOCTYPE svg PUBLIC "-//W3C//DTD SVG 1.1//EN"
 "http://www.w3.org/Graphics/SVG/1.1/DTD/svg11.dtd">
<!-- Generated by graphviz version 11.0.0 (0)
 -->
<!-- Title: structs Pages: 1 -->
<svg width="176pt" height="200pt"
 viewBox="0.00 0.00 176.00 200.00" xmlns="http://www.w3.org/2000/svg" xmlns:xlink="http://www.w3.org/1999/xlink">
<g id="graph0" class="graph" transform="scale(1 1) rotate(0) translate(4 196)">
<title>structs</title>
<polygon fill="white" stroke="none" points="-4,4 -4,-196 172,-196 172,4 -4,4"/>
<!-- identity -->
<g id="node1" class="node">
<title>identity</title>
<polygon fill="none" stroke="black" points="8,-165 8,-188 160,-188 160,-165 8,-165"/>
<text text-anchor="start" x="53.25" y="-172.7" font-family="Times,serif" font-weight="bold" font-size="14.00">identity</text>
<polygon fill="none" stroke="black" points="8,-142 8,-165 31,-165 31,-142 8,-142"/>
<text text-anchor="start" x="10.88" y="-148.7" font-family="Times,serif" font-size="14.00">🔑</text>
<polygon fill="none" stroke="black" points="31,-142 31,-165 160,-165 160,-142 31,-142"/>
<text text-anchor="start" x="65.12" y="-148.7" font-family="Times,serif" font-size="14.00">rpOrigin</text>
<polygon fill="none" stroke="black" points="8,-119 8,-142 31,-142 31,-119 8,-119"/>
<text text-anchor="start" x="10.88" y="-125.7" font-family="Times,serif" font-size="14.00">🔑</text>
<polygon fill="none" stroke="black" points="31,-119 31,-142 160,-142 160,-119 31,-119"/>
<text text-anchor="start" x="61.75" y="-125.7" font-family="Times,serif" font-size="14.00">idpOrigin</text>
<polygon fill="none" stroke="black" points="8,-96 8,-119 31,-119 31,-96 8,-96"/>
<text text-anchor="start" x="10.88" y="-102.7" font-family="Times,serif" font-size="14.00">🔑</text>
<polygon fill="none" stroke="black" points="31,-96 31,-119 160,-119 160,-96 31,-96"/>
<text text-anchor="start" x="52.38" y="-102.7" font-family="Times,serif" font-size="14.00">credentialId</text>
<polygon fill="none" stroke="black" points="8,-73 8,-96 31,-96 31,-73 8,-73"/>
<text text-anchor="start" x="17.25" y="-79.7" font-family="Times,serif" font-size="14.00"> </text>
<polygon fill="none" stroke="black" points="31,-73 31,-96 160,-96 160,-73 31,-73"/>
<text text-anchor="start" x="58.38" y="-79.7" font-family="Times,serif" font-size="14.00">registered</text>
<polygon fill="none" stroke="black" points="8,-50 8,-73 31,-73 31,-50 8,-50"/>
<text text-anchor="start" x="17.25" y="-56.7" font-family="Times,serif" font-size="14.00"> </text>
<polygon fill="none" stroke="black" points="31,-50 31,-73 160,-73 160,-50 31,-50"/>
<text text-anchor="start" x="52" y="-56.7" font-family="Times,serif" font-size="14.00">allowLogout</text>
<polygon fill="none" stroke="black" points="8,-27 8,-50 31,-50 31,-27 8,-27"/>
<text text-anchor="start" x="17.25" y="-33.7" font-family="Times,serif" font-size="14.00"> </text>
<polygon fill="none" stroke="black" points="31,-27 31,-50 160,-50 160,-27 31,-27"/>
<text text-anchor="start" x="34" y="-33.7" font-family="Times,serif" font-size="14.00">modificationTime</text>
<polygon fill="none" stroke="black" points="8,-4 8,-27 31,-27 31,-4 8,-4"/>
<text text-anchor="start" x="17.25" y="-10.7" font-family="Times,serif" font-size="14.00"> </text>
<polygon fill="none" stroke="black" points="31,-4 31,-27 160,-27 160,-4 31,-4"/>
<text text-anchor="start" x="43" y="-10.7" font-family="Times,serif" font-size="14.00">rpBaseDomain</text>
</g>
</g>
</svg>
