<?xml version="1.0" encoding="UTF-8" standalone="no"?>
<!DOCTYPE svg PUBLIC "-//W3C//DTD SVG 1.1//EN"
 "http://www.w3.org/Graphics/SVG/1.1/DTD/svg11.dtd">
<!-- Generated by graphviz version 11.0.0 (0)
 -->
<!-- Title: structs Pages: 1 -->
<svg width="318pt" height="85pt"
 viewBox="0.00 0.00 317.50 85.00" xmlns="http://www.w3.org/2000/svg" xmlns:xlink="http://www.w3.org/1999/xlink">
<g id="graph0" class="graph" transform="scale(1 1) rotate(0) translate(4 81)">
<title>structs</title>
<polygon fill="white" stroke="none" points="-4,4 -4,-81 313.5,-81 313.5,4 -4,4"/>
<!-- domain_to_categories -->
<g id="node1" class="node">
<title>domain_to_categories</title>
<polygon fill="none" stroke="black" points="8,-50 8,-73 183,-73 183,-50 8,-50"/>
<text text-anchor="start" x="10.75" y="-57.7" font-family="Times,serif" font-weight="bold" font-size="14.00">domain_to_categories</text>
<polygon fill="none" stroke="black" points="8,-27 8,-50 67,-50 67,-27 8,-27"/>
<text text-anchor="start" x="28.88" y="-33.7" font-family="Times,serif" font-size="14.00">🔑</text>
<polygon fill="none" stroke="black" points="67,-27 67,-50 183,-50 183,-27 67,-27"/>
<text text-anchor="start" x="93.5" y="-33.7" font-family="Times,serif" font-size="14.00">string_id</text>
<polygon fill="none" stroke="black" points="8,-4 8,-27 67,-27 67,-4 8,-4"/>
<text text-anchor="start" x="35.25" y="-10.7" font-family="Times,serif" font-size="14.00"> </text>
<polygon fill="none" stroke="black" points="67,-4 67,-27 183,-27 183,-4 67,-4"/>
<text text-anchor="start" x="87.88" y="-10.7" font-family="Times,serif" font-size="14.00">categories</text>
</g>
<!-- moz_meta -->
<g id="node2" class="node">
<title>moz_meta</title>
<polygon fill="none" stroke="black" points="217.5,-50 217.5,-73 301.5,-73 301.5,-50 217.5,-50"/>
<text text-anchor="start" x="220.12" y="-57.7" font-family="Times,serif" font-weight="bold" font-size="14.00">moz_meta</text>
<polygon fill="none" stroke="black" points="217.5,-27 217.5,-50 248.5,-50 248.5,-27 217.5,-27"/>
<text text-anchor="start" x="224.38" y="-33.7" font-family="Times,serif" font-size="14.00">🔑</text>
<polygon fill="none" stroke="black" points="248.5,-27 248.5,-50 301.5,-50 301.5,-27 248.5,-27"/>
<text text-anchor="start" x="262.62" y="-33.7" font-family="Times,serif" font-size="14.00">key</text>
<polygon fill="none" stroke="black" points="217.5,-4 217.5,-27 248.5,-27 248.5,-4 217.5,-4"/>
<text text-anchor="start" x="230.75" y="-10.7" font-family="Times,serif" font-size="14.00"> </text>
<polygon fill="none" stroke="black" points="248.5,-4 248.5,-27 301.5,-27 301.5,-4 248.5,-4"/>
<text text-anchor="start" x="255.88" y="-10.7" font-family="Times,serif" font-size="14.00">value</text>
</g>
</g>
</svg>
