<?xml version="1.0" encoding="UTF-8" standalone="no"?>
<!DOCTYPE svg PUBLIC "-//W3C//DTD SVG 1.1//EN"
 "http://www.w3.org/Graphics/SVG/1.1/DTD/svg11.dtd">
<!-- Generated by graphviz version 11.0.0 (0)
 -->
<!-- Title: structs Pages: 1 -->
<svg width="233pt" height="407pt"
 viewBox="0.00 0.00 233.00 407.00" xmlns="http://www.w3.org/2000/svg" xmlns:xlink="http://www.w3.org/1999/xlink">
<g id="graph0" class="graph" transform="scale(1 1) rotate(0) translate(4 403)">
<title>structs</title>
<polygon fill="white" stroke="none" points="-4,4 -4,-403 229,-403 229,4 -4,4"/>
<!-- moz_cookies -->
<g id="node1" class="node">
<title>moz_cookies</title>
<polygon fill="none" stroke="black" points="8,-372 8,-395 217,-395 217,-372 8,-372"/>
<text text-anchor="start" x="63.75" y="-379.7" font-family="Times,serif" font-weight="bold" font-size="14.00">moz_cookies</text>
<polygon fill="none" stroke="black" points="8,-349 8,-372 31,-372 31,-349 8,-349"/>
<text text-anchor="start" x="10.88" y="-355.7" font-family="Times,serif" font-size="14.00">🔑</text>
<polygon fill="none" stroke="black" points="31,-349 31,-372 217,-372 217,-349 31,-349"/>
<text text-anchor="start" x="117.25" y="-355.7" font-family="Times,serif" font-size="14.00">id</text>
<polygon fill="none" stroke="black" points="8,-326 8,-349 31,-349 31,-326 8,-326"/>
<text text-anchor="start" x="17.25" y="-332.7" font-family="Times,serif" font-size="14.00"> </text>
<polygon fill="none" stroke="black" points="31,-326 31,-349 217,-349 217,-326 31,-326"/>
<text text-anchor="start" x="66.62" y="-332.7" font-family="Times,serif" font-size="14.00">originAttributes</text>
<polygon fill="none" stroke="black" points="8,-303 8,-326 31,-326 31,-303 8,-303"/>
<text text-anchor="start" x="17.25" y="-309.7" font-family="Times,serif" font-size="14.00"> </text>
<polygon fill="none" stroke="black" points="31,-303 31,-326 217,-326 217,-303 31,-303"/>
<text text-anchor="start" x="104.5" y="-309.7" font-family="Times,serif" font-size="14.00">name</text>
<polygon fill="none" stroke="black" points="8,-280 8,-303 31,-303 31,-280 8,-280"/>
<text text-anchor="start" x="17.25" y="-286.7" font-family="Times,serif" font-size="14.00"> </text>
<polygon fill="none" stroke="black" points="31,-280 31,-303 217,-303 217,-280 31,-280"/>
<text text-anchor="start" x="104.88" y="-286.7" font-family="Times,serif" font-size="14.00">value</text>
<polygon fill="none" stroke="black" points="8,-257 8,-280 31,-280 31,-257 8,-257"/>
<text text-anchor="start" x="17.25" y="-263.7" font-family="Times,serif" font-size="14.00"> </text>
<polygon fill="none" stroke="black" points="31,-257 31,-280 217,-280 217,-257 31,-257"/>
<text text-anchor="start" x="108.62" y="-263.7" font-family="Times,serif" font-size="14.00">host</text>
<polygon fill="none" stroke="black" points="8,-234 8,-257 31,-257 31,-234 8,-234"/>
<text text-anchor="start" x="17.25" y="-240.7" font-family="Times,serif" font-size="14.00"> </text>
<polygon fill="none" stroke="black" points="31,-234 31,-257 217,-257 217,-234 31,-234"/>
<text text-anchor="start" x="107.88" y="-240.7" font-family="Times,serif" font-size="14.00">path</text>
<polygon fill="none" stroke="black" points="8,-211 8,-234 31,-234 31,-211 8,-211"/>
<text text-anchor="start" x="17.25" y="-217.7" font-family="Times,serif" font-size="14.00"> </text>
<polygon fill="none" stroke="black" points="31,-211 31,-234 217,-234 217,-211 31,-211"/>
<text text-anchor="start" x="101.5" y="-217.7" font-family="Times,serif" font-size="14.00">expiry</text>
<polygon fill="none" stroke="black" points="8,-188 8,-211 31,-211 31,-188 8,-188"/>
<text text-anchor="start" x="17.25" y="-194.7" font-family="Times,serif" font-size="14.00"> </text>
<polygon fill="none" stroke="black" points="31,-188 31,-211 217,-211 217,-188 31,-188"/>
<text text-anchor="start" x="78.25" y="-194.7" font-family="Times,serif" font-size="14.00">lastAccessed</text>
<polygon fill="none" stroke="black" points="8,-165 8,-188 31,-188 31,-165 8,-165"/>
<text text-anchor="start" x="17.25" y="-171.7" font-family="Times,serif" font-size="14.00"> </text>
<polygon fill="none" stroke="black" points="31,-165 31,-188 217,-188 217,-165 31,-165"/>
<text text-anchor="start" x="77.12" y="-171.7" font-family="Times,serif" font-size="14.00">creationTime</text>
<polygon fill="none" stroke="black" points="8,-142 8,-165 31,-165 31,-142 8,-142"/>
<text text-anchor="start" x="17.25" y="-148.7" font-family="Times,serif" font-size="14.00"> </text>
<polygon fill="none" stroke="black" points="31,-142 31,-165 217,-165 217,-142 31,-142"/>
<text text-anchor="start" x="93.25" y="-148.7" font-family="Times,serif" font-size="14.00">isSecure</text>
<polygon fill="none" stroke="black" points="8,-119 8,-142 31,-142 31,-119 8,-119"/>
<text text-anchor="start" x="17.25" y="-125.7" font-family="Times,serif" font-size="14.00"> </text>
<polygon fill="none" stroke="black" points="31,-119 31,-142 217,-142 217,-119 31,-119"/>
<text text-anchor="start" x="85" y="-125.7" font-family="Times,serif" font-size="14.00">isHttpOnly</text>
<polygon fill="none" stroke="black" points="8,-96 8,-119 31,-119 31,-96 8,-96"/>
<text text-anchor="start" x="17.25" y="-102.7" font-family="Times,serif" font-size="14.00"> </text>
<polygon fill="none" stroke="black" points="31,-96 31,-119 217,-119 217,-96 31,-96"/>
<text text-anchor="start" x="57.25" y="-102.7" font-family="Times,serif" font-size="14.00">inBrowserElement</text>
<polygon fill="none" stroke="black" points="8,-73 8,-96 31,-96 31,-73 8,-73"/>
<text text-anchor="start" x="17.25" y="-79.7" font-family="Times,serif" font-size="14.00"> </text>
<polygon fill="none" stroke="black" points="31,-73 31,-96 217,-96 217,-73 31,-73"/>
<text text-anchor="start" x="91" y="-79.7" font-family="Times,serif" font-size="14.00">sameSite</text>
<polygon fill="none" stroke="black" points="8,-50 8,-73 31,-73 31,-50 8,-50"/>
<text text-anchor="start" x="17.25" y="-56.7" font-family="Times,serif" font-size="14.00"> </text>
<polygon fill="none" stroke="black" points="31,-50 31,-73 217,-73 217,-50 31,-50"/>
<text text-anchor="start" x="76.38" y="-56.7" font-family="Times,serif" font-size="14.00">rawSameSite</text>
<polygon fill="none" stroke="black" points="8,-27 8,-50 31,-50 31,-27 8,-27"/>
<text text-anchor="start" x="17.25" y="-33.7" font-family="Times,serif" font-size="14.00"> </text>
<polygon fill="none" stroke="black" points="31,-27 31,-50 217,-50 217,-27 31,-27"/>
<text text-anchor="start" x="81.25" y="-33.7" font-family="Times,serif" font-size="14.00">schemeMap</text>
<polygon fill="none" stroke="black" points="8,-4 8,-27 31,-27 31,-4 8,-4"/>
<text text-anchor="start" x="17.25" y="-10.7" font-family="Times,serif" font-size="14.00"> </text>
<polygon fill="none" stroke="black" points="31,-4 31,-27 217,-27 217,-4 31,-4"/>
<text text-anchor="start" x="33.62" y="-10.7" font-family="Times,serif" font-size="14.00">isPartitionedAttributeSet</text>
</g>
</g>
</svg>
