<?xml version="1.0" encoding="UTF-8" standalone="no"?>
<!DOCTYPE svg PUBLIC "-//W3C//DTD SVG 1.1//EN"
 "http://www.w3.org/Graphics/SVG/1.1/DTD/svg11.dtd">
<!-- Generated by graphviz version 11.0.0 (0)
 -->
<!-- Title: structs Pages: 1 -->
<svg width="154pt" height="154pt"
 viewBox="0.00 0.00 154.00 154.00" xmlns="http://www.w3.org/2000/svg" xmlns:xlink="http://www.w3.org/1999/xlink">
<g id="graph0" class="graph" transform="scale(1 1) rotate(0) translate(4 150)">
<title>structs</title>
<polygon fill="white" stroke="none" points="-4,4 -4,-150 150,-150 150,4 -4,4"/>
<!-- webappsstore2 -->
<g id="node1" class="node">
<title>webappsstore2</title>
<polygon fill="none" stroke="black" points="8,-119 8,-142 138,-142 138,-119 8,-119"/>
<text text-anchor="start" x="14.12" y="-126.7" font-family="Times,serif" font-weight="bold" font-size="14.00">webappsstore2</text>
<polygon fill="none" stroke="black" points="8,-96 8,-119 18,-119 18,-96 8,-96"/>
<text text-anchor="start" x="10.75" y="-102.7" font-family="Times,serif" font-size="14.00"> </text>
<polygon fill="none" stroke="black" points="18,-96 18,-119 138,-119 138,-96 18,-96"/>
<text text-anchor="start" x="20.62" y="-102.7" font-family="Times,serif" font-size="14.00">originAttributes</text>
<polygon fill="none" stroke="black" points="8,-73 8,-96 18,-96 18,-73 8,-73"/>
<text text-anchor="start" x="10.75" y="-79.7" font-family="Times,serif" font-size="14.00"> </text>
<polygon fill="none" stroke="black" points="18,-73 18,-96 138,-96 138,-73 18,-73"/>
<text text-anchor="start" x="43.88" y="-79.7" font-family="Times,serif" font-size="14.00">originKey</text>
<polygon fill="none" stroke="black" points="8,-50 8,-73 18,-73 18,-50 8,-50"/>
<text text-anchor="start" x="10.75" y="-56.7" font-family="Times,serif" font-size="14.00"> </text>
<polygon fill="none" stroke="black" points="18,-50 18,-73 138,-73 138,-50 18,-50"/>
<text text-anchor="start" x="57.75" y="-56.7" font-family="Times,serif" font-size="14.00">scope</text>
<polygon fill="none" stroke="black" points="8,-27 8,-50 18,-50 18,-27 8,-27"/>
<text text-anchor="start" x="10.75" y="-33.7" font-family="Times,serif" font-size="14.00"> </text>
<polygon fill="none" stroke="black" points="18,-27 18,-50 138,-50 138,-27 18,-27"/>
<text text-anchor="start" x="65.62" y="-33.7" font-family="Times,serif" font-size="14.00">key</text>
<polygon fill="none" stroke="black" points="8,-4 8,-27 18,-27 18,-4 8,-4"/>
<text text-anchor="start" x="10.75" y="-10.7" font-family="Times,serif" font-size="14.00"> </text>
<polygon fill="none" stroke="black" points="18,-4 18,-27 138,-27 138,-4 18,-4"/>
<text text-anchor="start" x="58.88" y="-10.7" font-family="Times,serif" font-size="14.00">value</text>
</g>
</g>
</svg>
