<?xml version="1.0" encoding="UTF-8" standalone="no"?>
<!DOCTYPE svg PUBLIC "-//W3C//DTD SVG 1.1//EN"
 "http://www.w3.org/Graphics/SVG/1.1/DTD/svg11.dtd">
<!-- Generated by graphviz version 12.2.1 (0)
 -->
<!-- Title: G Pages: 1 -->
<svg width="380pt" height="530pt"
 viewBox="0.00 0.00 379.87 530.00" xmlns="http://www.w3.org/2000/svg" xmlns:xlink="http://www.w3.org/1999/xlink">
<g id="graph0" class="graph" transform="scale(1 1) rotate(0) translate(4 526)">
<title>G</title>
<polygon fill="white" stroke="none" points="-4,4 -4,-526 375.87,-526 375.87,4 -4,4"/>
<!-- nh -->
<g id="node1" class="node">
<title>nh</title>
<ellipse fill="none" stroke="black" cx="27" cy="-288" rx="27" ry="18"/>
<text text-anchor="middle" x="27" y="-283.32" font-family="Times,serif" font-size="14.00">nh</text>
</g>
<!-- clean -->
<g id="node2" class="node">
<title>clean</title>
<ellipse fill="none" stroke="black" cx="161.73" cy="-436" rx="37.53" ry="18"/>
<text text-anchor="middle" x="161.73" y="-431.32" font-family="Times,serif" font-size="14.00">clean</text>
</g>
<!-- nh&#45;&gt;clean -->
<g id="edge1" class="edge">
<title>nh&#45;&gt;clean</title>
<path fill="none" stroke="black" d="M34.63,-305.59C44.04,-328.66 63.16,-369.33 90,-396 99.27,-405.21 111.09,-412.99 122.41,-419.18"/>
<polygon fill="black" stroke="black" points="120.73,-422.25 131.22,-423.71 123.93,-416.02 120.73,-422.25"/>
</g>
<!-- completions -->
<g id="node3" class="node">
<title>completions</title>
<ellipse fill="none" stroke="black" cx="161.73" cy="-369" rx="71.73" ry="18"/>
<text text-anchor="middle" x="161.73" y="-364.32" font-family="Times,serif" font-size="14.00">completions</text>
</g>
<!-- nh&#45;&gt;completions -->
<g id="edge2" class="edge">
<title>nh&#45;&gt;completions</title>
<path fill="none" stroke="black" d="M42.12,-302.92C53.99,-314.78 71.89,-331.13 90,-342 94.94,-344.97 100.27,-347.71 105.7,-350.22"/>
<polygon fill="black" stroke="black" points="104.25,-353.41 114.82,-354.15 107.03,-346.98 104.25,-353.41"/>
</g>
<!-- darwin -->
<g id="node4" class="node">
<title>darwin</title>
<ellipse fill="none" stroke="black" cx="161.73" cy="-315" rx="45.95" ry="18"/>
<text text-anchor="middle" x="161.73" y="-310.32" font-family="Times,serif" font-size="14.00">darwin</text>
</g>
<!-- nh&#45;&gt;darwin -->
<g id="edge3" class="edge">
<title>nh&#45;&gt;darwin</title>
<path fill="none" stroke="black" d="M53.28,-293.14C69.12,-296.37 90.12,-300.64 109.34,-304.55"/>
<polygon fill="black" stroke="black" points="108.43,-307.93 118.92,-306.5 109.82,-301.07 108.43,-307.93"/>
</g>
<!-- home -->
<g id="node5" class="node">
<title>home</title>
<ellipse fill="none" stroke="black" cx="161.73" cy="-261" rx="38.58" ry="18"/>
<text text-anchor="middle" x="161.73" y="-256.32" font-family="Times,serif" font-size="14.00">home</text>
</g>
<!-- nh&#45;&gt;home -->
<g id="edge4" class="edge">
<title>nh&#45;&gt;home</title>
<path fill="none" stroke="black" d="M53.28,-282.86C70.67,-279.32 94.26,-274.52 114.91,-270.32"/>
<polygon fill="black" stroke="black" points="115.43,-273.79 124.53,-268.36 114.04,-266.93 115.43,-273.79"/>
</g>
<!-- os -->
<g id="node6" class="node">
<title>os</title>
<ellipse fill="none" stroke="black" cx="161.73" cy="-207" rx="27" ry="18"/>
<text text-anchor="middle" x="161.73" y="-202.32" font-family="Times,serif" font-size="14.00">os</text>
</g>
<!-- nh&#45;&gt;os -->
<g id="edge5" class="edge">
<title>nh&#45;&gt;os</title>
<path fill="none" stroke="black" d="M42.12,-273.08C53.99,-261.22 71.89,-244.87 90,-234 101.02,-227.39 113.93,-221.89 125.69,-217.62"/>
<polygon fill="black" stroke="black" points="126.76,-220.95 135.08,-214.39 124.48,-214.33 126.76,-220.95"/>
</g>
<!-- search -->
<g id="node7" class="node">
<title>search</title>
<ellipse fill="none" stroke="black" cx="161.73" cy="-153" rx="44.37" ry="18"/>
<text text-anchor="middle" x="161.73" y="-148.32" font-family="Times,serif" font-size="14.00">search</text>
</g>
<!-- nh&#45;&gt;search -->
<g id="edge6" class="edge">
<title>nh&#45;&gt;search</title>
<path fill="none" stroke="black" d="M33.91,-270.19C42.62,-246.5 61.07,-204.72 90,-180 96.53,-174.42 104.34,-169.93 112.34,-166.33"/>
<polygon fill="black" stroke="black" points="113.5,-169.64 121.48,-162.67 110.9,-163.14 113.5,-169.64"/>
</g>
<!-- all -->
<g id="node8" class="node">
<title>all</title>
<ellipse fill="none" stroke="black" cx="320.66" cy="-504" rx="27" ry="18"/>
<text text-anchor="middle" x="320.66" y="-499.32" font-family="Times,serif" font-size="14.00">all</text>
</g>
<!-- clean&#45;&gt;all -->
<g id="edge7" class="edge">
<title>clean&#45;&gt;all</title>
<path fill="none" stroke="black" d="M190.42,-448C217.42,-459.7 258.47,-477.48 287.03,-489.86"/>
<polygon fill="black" stroke="black" points="285.36,-492.95 295.93,-493.72 288.14,-486.53 285.36,-492.95"/>
</g>
<!-- profile -->
<g id="node9" class="node">
<title>profile</title>
<ellipse fill="none" stroke="black" cx="320.66" cy="-450" rx="43.32" ry="18"/>
<text text-anchor="middle" x="320.66" y="-445.32" font-family="Times,serif" font-size="14.00">profile</text>
</g>
<!-- clean&#45;&gt;profile -->
<g id="edge8" class="edge">
<title>clean&#45;&gt;profile</title>
<path fill="none" stroke="black" d="M199.12,-439.25C219.17,-441.04 244.42,-443.29 266.62,-445.27"/>
<polygon fill="black" stroke="black" points="266.14,-448.74 276.41,-446.14 266.76,-441.77 266.14,-448.74"/>
</g>
<!-- user -->
<g id="node10" class="node">
<title>user</title>
<ellipse fill="none" stroke="black" cx="320.66" cy="-396" rx="33.32" ry="18"/>
<text text-anchor="middle" x="320.66" y="-391.32" font-family="Times,serif" font-size="14.00">user</text>
</g>
<!-- clean&#45;&gt;user -->
<g id="edge9" class="edge">
<title>clean&#45;&gt;user</title>
<path fill="none" stroke="black" d="M195.24,-427.71C219.49,-421.53 252.77,-413.05 278.81,-406.41"/>
<polygon fill="black" stroke="black" points="279.55,-409.84 288.37,-403.97 277.82,-403.05 279.55,-409.84"/>
</g>
<!-- build -->
<g id="node11" class="node">
<title>build</title>
<ellipse fill="none" stroke="black" cx="320.66" cy="-342" rx="36.48" ry="18"/>
<text text-anchor="middle" x="320.66" y="-337.32" font-family="Times,serif" font-size="14.00">build</text>
</g>
<!-- darwin&#45;&gt;build -->
<g id="edge10" class="edge">
<title>darwin&#45;&gt;build</title>
<path fill="none" stroke="black" d="M204.37,-322.16C226.02,-325.89 252.51,-330.45 274.64,-334.25"/>
<polygon fill="black" stroke="black" points="273.82,-337.66 284.27,-335.91 275.01,-330.77 273.82,-337.66"/>
</g>
<!-- repl -->
<g id="node12" class="node">
<title>repl</title>
<ellipse fill="none" stroke="black" cx="320.66" cy="-288" rx="31.22" ry="18"/>
<text text-anchor="middle" x="320.66" y="-283.32" font-family="Times,serif" font-size="14.00">repl</text>
</g>
<!-- darwin&#45;&gt;repl -->
<g id="edge11" class="edge">
<title>darwin&#45;&gt;repl</title>
<path fill="none" stroke="black" d="M204.37,-307.84C227.52,-303.85 256.2,-298.92 279.16,-294.97"/>
<polygon fill="black" stroke="black" points="279.5,-298.46 288.76,-293.32 278.32,-291.56 279.5,-298.46"/>
</g>
<!-- switch -->
<g id="node13" class="node">
<title>switch</title>
<ellipse fill="none" stroke="black" cx="320.66" cy="-234" rx="43.84" ry="18"/>
<text text-anchor="middle" x="320.66" y="-229.32" font-family="Times,serif" font-size="14.00">switch</text>
</g>
<!-- darwin&#45;&gt;switch -->
<g id="edge12" class="edge">
<title>darwin&#45;&gt;switch</title>
<path fill="none" stroke="black" d="M198.13,-303.68C209.7,-299.41 222.4,-294.09 233.45,-288 250.96,-278.34 252.6,-271.77 269.45,-261 273.44,-258.45 277.69,-255.91 281.96,-253.47"/>
<polygon fill="black" stroke="black" points="283.5,-256.63 290.55,-248.72 280.1,-250.5 283.5,-256.63"/>
</g>
<!-- home&#45;&gt;build -->
<g id="edge13" class="edge">
<title>home&#45;&gt;build</title>
<path fill="none" stroke="black" d="M194.55,-271.02C207.03,-275.49 221.25,-281.27 233.45,-288 250.96,-297.66 252.6,-304.23 269.45,-315 274.11,-317.97 279.12,-320.93 284.11,-323.75"/>
<polygon fill="black" stroke="black" points="282.43,-326.81 292.88,-328.54 285.78,-320.67 282.43,-326.81"/>
</g>
<!-- home&#45;&gt;repl -->
<g id="edge14" class="edge">
<title>home&#45;&gt;repl</title>
<path fill="none" stroke="black" d="M198.34,-267.13C222.3,-271.25 253.97,-276.7 278.94,-280.99"/>
<polygon fill="black" stroke="black" points="278.3,-284.44 288.75,-282.68 279.49,-277.54 278.3,-284.44"/>
</g>
<!-- home&#45;&gt;switch -->
<g id="edge15" class="edge">
<title>home&#45;&gt;switch</title>
<path fill="none" stroke="black" d="M198.34,-254.87C219.07,-251.31 245.56,-246.75 268.5,-242.8"/>
<polygon fill="black" stroke="black" points="269.02,-246.26 278.28,-241.12 267.83,-239.37 269.02,-246.26"/>
</g>
<!-- os&#45;&gt;build -->
<g id="edge17" class="edge">
<title>os&#45;&gt;build</title>
<path fill="none" stroke="black" d="M188.25,-211.64C203.01,-215.47 221.05,-222.25 233.45,-234 262.05,-261.1 242.66,-286.12 269.45,-315 272.95,-318.78 277.11,-322.13 281.5,-325.08"/>
<polygon fill="black" stroke="black" points="279.65,-328.06 290.04,-330.13 283.22,-322.03 279.65,-328.06"/>
</g>
<!-- os&#45;&gt;repl -->
<g id="edge19" class="edge">
<title>os&#45;&gt;repl</title>
<path fill="none" stroke="black" d="M186.71,-214.3C200.76,-219.02 218.61,-225.81 233.45,-234 250.96,-243.66 252.6,-250.23 269.45,-261 274.77,-264.4 280.55,-267.78 286.24,-270.94"/>
<polygon fill="black" stroke="black" points="284.46,-273.95 294.92,-275.62 287.78,-267.79 284.46,-273.95"/>
</g>
<!-- os&#45;&gt;switch -->
<g id="edge21" class="edge">
<title>os&#45;&gt;switch</title>
<path fill="none" stroke="black" d="M188.29,-211.4C209.95,-215.12 241.67,-220.58 268.52,-225.2"/>
<polygon fill="black" stroke="black" points="267.75,-228.62 278.19,-226.87 268.93,-221.72 267.75,-228.62"/>
</g>
<!-- boot -->
<g id="node14" class="node">
<title>boot</title>
<ellipse fill="none" stroke="black" cx="320.66" cy="-72" rx="33.32" ry="18"/>
<text text-anchor="middle" x="320.66" y="-67.33" font-family="Times,serif" font-size="14.00">boot</text>
</g>
<!-- os&#45;&gt;boot -->
<g id="edge16" class="edge">
<title>os&#45;&gt;boot</title>
<path fill="none" stroke="black" d="M188.25,-202.36C203.01,-198.53 221.05,-191.75 233.45,-180 262.05,-152.9 242.66,-127.88 269.45,-99 273.39,-94.76 278.15,-91.04 283.15,-87.83"/>
<polygon fill="black" stroke="black" points="284.63,-91.02 291.59,-83.04 281.17,-84.93 284.63,-91.02"/>
</g>
<!-- info -->
<g id="node15" class="node">
<title>info</title>
<ellipse fill="none" stroke="black" cx="320.66" cy="-18" rx="30.16" ry="18"/>
<text text-anchor="middle" x="320.66" y="-13.32" font-family="Times,serif" font-size="14.00">info</text>
</g>
<!-- os&#45;&gt;info -->
<g id="edge18" class="edge">
<title>os&#45;&gt;info</title>
<path fill="none" stroke="black" d="M188.6,-203.12C203.68,-199.56 221.93,-192.79 233.45,-180 275.02,-133.87 230.94,-93.71 269.45,-45 273.4,-40 278.54,-35.81 284.02,-32.34"/>
<polygon fill="black" stroke="black" points="285.65,-35.43 292.74,-27.56 282.29,-29.29 285.65,-35.43"/>
</g>
<!-- rollback -->
<g id="node16" class="node">
<title>rollback</title>
<ellipse fill="none" stroke="black" cx="320.66" cy="-180" rx="51.21" ry="18"/>
<text text-anchor="middle" x="320.66" y="-175.32" font-family="Times,serif" font-size="14.00">rollback</text>
</g>
<!-- os&#45;&gt;rollback -->
<g id="edge20" class="edge">
<title>os&#45;&gt;rollback</title>
<path fill="none" stroke="black" d="M188.29,-202.6C208.49,-199.13 237.45,-194.14 263.04,-189.74"/>
<polygon fill="black" stroke="black" points="263.38,-193.23 272.64,-188.09 262.2,-186.34 263.38,-193.23"/>
</g>
<!-- test -->
<g id="node17" class="node">
<title>test</title>
<ellipse fill="none" stroke="black" cx="320.66" cy="-126" rx="30.69" ry="18"/>
<text text-anchor="middle" x="320.66" y="-121.33" font-family="Times,serif" font-size="14.00">test</text>
</g>
<!-- os&#45;&gt;test -->
<g id="edge22" class="edge">
<title>os&#45;&gt;test</title>
<path fill="none" stroke="black" d="M186.71,-199.7C200.76,-194.98 218.61,-188.19 233.45,-180 250.96,-170.34 252.6,-163.77 269.45,-153 274.82,-149.57 280.67,-146.16 286.41,-142.97"/>
<polygon fill="black" stroke="black" points="288.03,-146.07 295.17,-138.24 284.71,-139.91 288.03,-146.07"/>
</g>
</g>
</svg>
