<?xml version="1.0" encoding="UTF-8" standalone="no"?>
<!DOCTYPE svg PUBLIC "-//W3C//DTD SVG 1.1//EN"
 "http://www.w3.org/Graphics/SVG/1.1/DTD/svg11.dtd">
<!-- Generated by graphviz version 11.0.0 (0)
 -->
<!-- Title: G Pages: 1 -->
<svg width="1046pt" height="476pt"
 viewBox="0.00 0.00 1046.13 476.00" xmlns="http://www.w3.org/2000/svg" xmlns:xlink="http://www.w3.org/1999/xlink">
<g id="graph0" class="graph" transform="scale(1 1) rotate(0) translate(4 472)">
<title>G</title>
<polygon fill="white" stroke="none" points="-4,4 -4,-472 1042.13,-472 1042.13,4 -4,4"/>
<!-- buffer -->
<g id="node1" class="node">
<title>buffer</title>
<ellipse fill="none" stroke="black" cx="472.72" cy="-234" rx="41.21" ry="18"/>
<text text-anchor="middle" x="472.72" y="-229.32" font-family="Times,serif" font-size="14.00">buffer</text>
</g>
<!-- renderer&#45;buffer -->
<g id="node2" class="node">
<title>renderer&#45;buffer</title>
<ellipse fill="none" stroke="black" cx="472.72" cy="-306" rx="88.56" ry="18"/>
<text text-anchor="middle" x="472.72" y="-301.32" font-family="Times,serif" font-size="14.00">renderer&#45;buffer</text>
</g>
<!-- buffer&#45;&gt;renderer&#45;buffer -->
<g id="edge1" class="edge">
<title>buffer&#45;&gt;renderer&#45;buffer</title>
<path fill="none" stroke="black" d="M472.72,-252.3C472.72,-259.59 472.72,-268.27 472.72,-276.46"/>
<polygon fill="black" stroke="black" points="469.22,-276.38 472.72,-286.38 476.22,-276.38 469.22,-276.38"/>
</g>
<!-- gtk&#45;buffer -->
<g id="node3" class="node">
<title>gtk&#45;buffer</title>
<ellipse fill="none" stroke="black" cx="472.72" cy="-378" rx="60.68" ry="18"/>
<text text-anchor="middle" x="472.72" y="-373.32" font-family="Times,serif" font-size="14.00">gtk&#45;buffer</text>
</g>
<!-- renderer&#45;buffer&#45;&gt;gtk&#45;buffer -->
<g id="edge2" class="edge">
<title>renderer&#45;buffer&#45;&gt;gtk&#45;buffer</title>
<path fill="none" stroke="black" d="M472.72,-324.3C472.72,-331.59 472.72,-340.27 472.72,-348.46"/>
<polygon fill="black" stroke="black" points="469.22,-348.38 472.72,-358.38 476.22,-348.38 469.22,-348.38"/>
</g>
<!-- standard&#45;object -->
<g id="node4" class="node">
<title>standard&#45;object</title>
<ellipse fill="none" stroke="black" cx="472.72" cy="-450" rx="89.61" ry="18"/>
<text text-anchor="middle" x="472.72" y="-445.32" font-family="Times,serif" font-size="14.00">standard&#45;object</text>
</g>
<!-- gtk&#45;buffer&#45;&gt;standard&#45;object -->
<g id="edge3" class="edge">
<title>gtk&#45;buffer&#45;&gt;standard&#45;object</title>
<path fill="none" stroke="black" d="M472.72,-396.3C472.72,-403.59 472.72,-412.27 472.72,-420.46"/>
<polygon fill="black" stroke="black" points="469.22,-420.38 472.72,-430.38 476.22,-420.38 469.22,-420.38"/>
</g>
<!-- context&#45;buffer -->
<g id="node5" class="node">
<title>context&#45;buffer</title>
<ellipse fill="none" stroke="black" cx="81.72" cy="-162" rx="81.72" ry="18"/>
<text text-anchor="middle" x="81.72" y="-157.32" font-family="Times,serif" font-size="14.00">context&#45;buffer</text>
</g>
<!-- context&#45;buffer&#45;&gt;buffer -->
<g id="edge4" class="edge">
<title>context&#45;buffer&#45;&gt;buffer</title>
<path fill="none" stroke="black" d="M142.4,-174.42C152.53,-176.3 162.92,-178.22 172.72,-180 261.02,-196.05 364.07,-214.11 423.52,-224.46"/>
<polygon fill="black" stroke="black" points="422.87,-227.9 433.32,-226.17 424.07,-221 422.87,-227.9"/>
</g>
<!-- document&#45;buffer -->
<g id="node6" class="node">
<title>document&#45;buffer</title>
<ellipse fill="none" stroke="black" cx="275.72" cy="-162" rx="93.82" ry="18"/>
<text text-anchor="middle" x="275.72" y="-157.32" font-family="Times,serif" font-size="14.00">document&#45;buffer</text>
</g>
<!-- document&#45;buffer&#45;&gt;buffer -->
<g id="edge5" class="edge">
<title>document&#45;buffer&#45;&gt;buffer</title>
<path fill="none" stroke="black" d="M318.95,-178.36C352.23,-190.19 397.95,-206.43 430.87,-218.13"/>
<polygon fill="black" stroke="black" points="429.49,-221.35 440.08,-221.4 431.83,-214.76 429.49,-221.35"/>
</g>
<!-- input&#45;buffer -->
<g id="node7" class="node">
<title>input&#45;buffer</title>
<ellipse fill="none" stroke="black" cx="838.72" cy="-162" rx="70.67" ry="18"/>
<text text-anchor="middle" x="838.72" y="-157.32" font-family="Times,serif" font-size="14.00">input&#45;buffer</text>
</g>
<!-- input&#45;buffer&#45;&gt;buffer -->
<g id="edge6" class="edge">
<title>input&#45;buffer&#45;&gt;buffer</title>
<path fill="none" stroke="black" d="M786.26,-174.35C777.09,-176.28 767.64,-178.23 758.72,-180 675.55,-196.54 578.43,-214.19 521.45,-224.37"/>
<polygon fill="black" stroke="black" points="520.98,-220.9 511.75,-226.1 522.21,-227.79 520.98,-220.9"/>
</g>
<!-- modable&#45;buffer -->
<g id="node8" class="node">
<title>modable&#45;buffer</title>
<ellipse fill="none" stroke="black" cx="662.72" cy="-162" rx="86.98" ry="18"/>
<text text-anchor="middle" x="662.72" y="-157.32" font-family="Times,serif" font-size="14.00">modable&#45;buffer</text>
</g>
<!-- modable&#45;buffer&#45;&gt;buffer -->
<g id="edge7" class="edge">
<title>modable&#45;buffer&#45;&gt;buffer</title>
<path fill="none" stroke="black" d="M621.5,-178.19C589.77,-189.88 546.1,-205.97 514.29,-217.69"/>
<polygon fill="black" stroke="black" points="513.16,-214.37 504.99,-221.11 515.58,-220.94 513.16,-214.37"/>
</g>
<!-- network&#45;buffer -->
<g id="node9" class="node">
<title>network&#45;buffer</title>
<ellipse fill="none" stroke="black" cx="472.72" cy="-162" rx="85.41" ry="18"/>
<text text-anchor="middle" x="472.72" y="-157.32" font-family="Times,serif" font-size="14.00">network&#45;buffer</text>
</g>
<!-- network&#45;buffer&#45;&gt;buffer -->
<g id="edge8" class="edge">
<title>network&#45;buffer&#45;&gt;buffer</title>
<path fill="none" stroke="black" d="M472.72,-180.3C472.72,-187.59 472.72,-196.27 472.72,-204.46"/>
<polygon fill="black" stroke="black" points="469.22,-204.38 472.72,-214.38 476.22,-204.38 469.22,-204.38"/>
</g>
<!-- editor&#45;buffer -->
<g id="node10" class="node">
<title>editor&#45;buffer</title>
<ellipse fill="none" stroke="black" cx="452.72" cy="-90" rx="74.36" ry="18"/>
<text text-anchor="middle" x="452.72" y="-85.33" font-family="Times,serif" font-size="14.00">editor&#45;buffer</text>
</g>
<!-- editor&#45;buffer&#45;&gt;context&#45;buffer -->
<g id="edge26" class="edge">
<title>editor&#45;buffer&#45;&gt;context&#45;buffer</title>
<path fill="none" stroke="green" d="M397.84,-102.41C388.47,-104.31 378.82,-106.24 369.72,-108 282.34,-124.93 260.25,-127.83 172.72,-144 166.45,-145.16 159.93,-146.37 153.39,-147.58"/>
<polygon fill="green" stroke="green" points="153.09,-144.08 143.9,-149.35 154.37,-150.96 153.09,-144.08"/>
</g>
<!-- editor&#45;buffer&#45;&gt;document&#45;buffer -->
<g id="edge23" class="edge">
<title>editor&#45;buffer&#45;&gt;document&#45;buffer</title>
<path fill="none" stroke="purple" d="M415.19,-105.85C389.18,-116.13 354.27,-129.94 325.88,-141.16"/>
<polygon fill="purple" stroke="purple" points="324.77,-137.84 316.76,-144.77 327.35,-144.35 324.77,-137.84"/>
</g>
<!-- editor&#45;buffer&#45;&gt;input&#45;buffer -->
<g id="edge9" class="edge">
<title>editor&#45;buffer&#45;&gt;input&#45;buffer</title>
<path fill="none" stroke="blue" d="M507.57,-102.57C516.95,-104.45 526.61,-106.33 535.72,-108 634.48,-126.08 660.04,-125.56 758.72,-144 764.25,-145.03 769.98,-146.15 775.73,-147.31"/>
<polygon fill="blue" stroke="blue" points="774.74,-150.68 785.24,-149.26 776.15,-143.82 774.74,-150.68"/>
</g>
<!-- editor&#45;buffer&#45;&gt;modable&#45;buffer -->
<g id="edge19" class="edge">
<title>editor&#45;buffer&#45;&gt;modable&#45;buffer</title>
<path fill="none" stroke="red" d="M495.22,-105.17C527.59,-115.95 572.41,-130.9 607.55,-142.61"/>
<polygon fill="red" stroke="red" points="606.09,-145.81 616.68,-145.65 608.3,-139.17 606.09,-145.81"/>
</g>
<!-- editor&#45;buffer&#45;&gt;network&#45;buffer -->
<g id="edge15" class="edge">
<title>editor&#45;buffer&#45;&gt;network&#45;buffer</title>
<path fill="none" stroke="cyan" d="M457.67,-108.3C459.8,-115.76 462.34,-124.68 464.73,-133.03"/>
<polygon fill="cyan" stroke="cyan" points="461.31,-133.79 467.42,-142.44 468.04,-131.86 461.31,-133.79"/>
</g>
<!-- panel&#45;buffer -->
<g id="node11" class="node">
<title>panel&#45;buffer</title>
<ellipse fill="none" stroke="black" cx="616.72" cy="-90" rx="71.73" ry="18"/>
<text text-anchor="middle" x="616.72" y="-85.33" font-family="Times,serif" font-size="14.00">panel&#45;buffer</text>
</g>
<!-- panel&#45;buffer&#45;&gt;document&#45;buffer -->
<g id="edge24" class="edge">
<title>panel&#45;buffer&#45;&gt;document&#45;buffer</title>
<path fill="none" stroke="purple" d="M563.14,-102.29C553.99,-104.21 544.59,-106.17 535.72,-108 473.1,-120.95 401.94,-135.44 349.92,-145.99"/>
<polygon fill="purple" stroke="purple" points="349.38,-142.53 340.27,-147.95 350.77,-149.39 349.38,-142.53"/>
</g>
<!-- panel&#45;buffer&#45;&gt;input&#45;buffer -->
<g id="edge10" class="edge">
<title>panel&#45;buffer&#45;&gt;input&#45;buffer</title>
<path fill="none" stroke="blue" d="M660.32,-104.75C695.95,-115.98 746.48,-131.92 784.68,-143.96"/>
<polygon fill="blue" stroke="blue" points="783.57,-147.28 794.16,-146.95 785.68,-140.6 783.57,-147.28"/>
</g>
<!-- panel&#45;buffer&#45;&gt;modable&#45;buffer -->
<g id="edge20" class="edge">
<title>panel&#45;buffer&#45;&gt;modable&#45;buffer</title>
<path fill="none" stroke="red" d="M627.86,-107.95C633.04,-115.82 639.32,-125.38 645.11,-134.21"/>
<polygon fill="red" stroke="red" points="642.12,-136.02 650.54,-142.46 647.97,-132.18 642.12,-136.02"/>
</g>
<!-- panel&#45;buffer&#45;&gt;network&#45;buffer -->
<g id="edge16" class="edge">
<title>panel&#45;buffer&#45;&gt;network&#45;buffer</title>
<path fill="none" stroke="cyan" d="M584.76,-106.54C564.45,-116.41 537.9,-129.32 515.74,-140.09"/>
<polygon fill="cyan" stroke="cyan" points="514.41,-136.84 506.95,-144.36 517.47,-143.14 514.41,-136.84"/>
</g>
<!-- prompt&#45;buffer -->
<g id="node12" class="node">
<title>prompt&#45;buffer</title>
<ellipse fill="none" stroke="black" cx="787.72" cy="-90" rx="81.2" ry="18"/>
<text text-anchor="middle" x="787.72" y="-85.33" font-family="Times,serif" font-size="14.00">prompt&#45;buffer</text>
</g>
<!-- prompt&#45;buffer&#45;&gt;input&#45;buffer -->
<g id="edge11" class="edge">
<title>prompt&#45;buffer&#45;&gt;input&#45;buffer</title>
<path fill="none" stroke="blue" d="M800.07,-107.95C806.02,-116.11 813.29,-126.09 819.91,-135.18"/>
<polygon fill="blue" stroke="blue" points="816.88,-136.97 825.6,-142.99 822.54,-132.84 816.88,-136.97"/>
</g>
<!-- prompt&#45;buffer&#45;&gt;modable&#45;buffer -->
<g id="edge21" class="edge">
<title>prompt&#45;buffer&#45;&gt;modable&#45;buffer</title>
<path fill="none" stroke="red" d="M758.73,-107.24C741.81,-116.71 720.25,-128.79 701.84,-139.09"/>
<polygon fill="red" stroke="red" points="700.33,-135.93 693.31,-143.87 703.75,-142.04 700.33,-135.93"/>
</g>
<!-- prompt&#45;buffer&#45;&gt;network&#45;buffer -->
<g id="edge17" class="edge">
<title>prompt&#45;buffer&#45;&gt;network&#45;buffer</title>
<path fill="none" stroke="cyan" d="M731.77,-103.43C678.48,-115.28 598.16,-133.12 541.1,-145.8"/>
<polygon fill="cyan" stroke="cyan" points="540.5,-142.35 531.49,-147.94 542.01,-149.19 540.5,-142.35"/>
</g>
<!-- status&#45;buffer -->
<g id="node13" class="node">
<title>status&#45;buffer</title>
<ellipse fill="none" stroke="black" cx="962.72" cy="-90" rx="75.41" ry="18"/>
<text text-anchor="middle" x="962.72" y="-85.33" font-family="Times,serif" font-size="14.00">status&#45;buffer</text>
</g>
<!-- status&#45;buffer&#45;&gt;input&#45;buffer -->
<g id="edge12" class="edge">
<title>status&#45;buffer&#45;&gt;input&#45;buffer</title>
<path fill="none" stroke="blue" d="M934.27,-107.06C917.14,-116.73 895.11,-129.17 876.53,-139.66"/>
<polygon fill="blue" stroke="blue" points="874.92,-136.55 867.93,-144.51 878.36,-142.64 874.92,-136.55"/>
</g>
<!-- web&#45;buffer -->
<g id="node14" class="node">
<title>web&#45;buffer</title>
<ellipse fill="none" stroke="black" cx="295.72" cy="-90" rx="64.89" ry="18"/>
<text text-anchor="middle" x="295.72" y="-85.33" font-family="Times,serif" font-size="14.00">web&#45;buffer</text>
</g>
<!-- web&#45;buffer&#45;&gt;context&#45;buffer -->
<g id="edge25" class="edge">
<title>web&#45;buffer&#45;&gt;context&#45;buffer</title>
<path fill="none" stroke="green" d="M254.97,-104.33C221.41,-115.31 173.53,-130.97 136.61,-143.05"/>
<polygon fill="green" stroke="green" points="135.87,-139.61 127.45,-146.04 138.05,-146.26 135.87,-139.61"/>
</g>
<!-- web&#45;buffer&#45;&gt;document&#45;buffer -->
<g id="edge22" class="edge">
<title>web&#45;buffer&#45;&gt;document&#45;buffer</title>
<path fill="none" stroke="purple" d="M290.78,-108.3C288.65,-115.76 286.1,-124.68 283.71,-133.03"/>
<polygon fill="purple" stroke="purple" points="280.41,-131.86 281.03,-142.44 287.14,-133.79 280.41,-131.86"/>
</g>
<!-- web&#45;buffer&#45;&gt;input&#45;buffer -->
<g id="edge13" class="edge">
<title>web&#45;buffer&#45;&gt;input&#45;buffer</title>
<path fill="none" stroke="blue" d="M342.51,-102.74C351.5,-104.72 360.87,-106.58 369.72,-108 541.16,-135.5 587.07,-117.91 758.72,-144 764.6,-144.89 770.7,-145.95 776.78,-147.09"/>
<polygon fill="blue" stroke="blue" points="775.7,-150.45 786.19,-148.93 777.05,-143.58 775.7,-150.45"/>
</g>
<!-- web&#45;buffer&#45;&gt;modable&#45;buffer -->
<g id="edge18" class="edge">
<title>web&#45;buffer&#45;&gt;modable&#45;buffer</title>
<path fill="none" stroke="red" d="M343.82,-102.39C352.43,-104.33 361.33,-106.28 369.72,-108 390.73,-112.31 507.62,-133.3 587.26,-147.54"/>
<polygon fill="red" stroke="red" points="586.28,-150.92 596.74,-149.23 587.51,-144.03 586.28,-150.92"/>
</g>
<!-- web&#45;buffer&#45;&gt;network&#45;buffer -->
<g id="edge14" class="edge">
<title>web&#45;buffer&#45;&gt;network&#45;buffer</title>
<path fill="none" stroke="cyan" d="M331.97,-105.33C358.36,-115.77 394.41,-130.03 423.42,-141.5"/>
<polygon fill="cyan" stroke="cyan" points="421.77,-144.61 432.35,-145.04 424.34,-138.1 421.77,-144.61"/>
</g>
<!-- background&#45;buffer -->
<g id="node15" class="node">
<title>background&#45;buffer</title>
<ellipse fill="none" stroke="black" cx="195.72" cy="-18" rx="103.29" ry="18"/>
<text text-anchor="middle" x="195.72" y="-13.32" font-family="Times,serif" font-size="14.00">background&#45;buffer</text>
</g>
<!-- background&#45;buffer&#45;&gt;web&#45;buffer -->
<g id="edge27" class="edge">
<title>background&#45;buffer&#45;&gt;web&#45;buffer</title>
<path fill="none" stroke="black" d="M219.93,-35.95C232.99,-45.08 249.27,-56.49 263.4,-66.37"/>
<polygon fill="black" stroke="black" points="261.33,-69.2 271.53,-72.06 265.34,-63.46 261.33,-69.2"/>
</g>
<!-- nosave&#45;buffer -->
<g id="node16" class="node">
<title>nosave&#45;buffer</title>
<ellipse fill="none" stroke="black" cx="395.72" cy="-18" rx="79.09" ry="18"/>
<text text-anchor="middle" x="395.72" y="-13.32" font-family="Times,serif" font-size="14.00">nosave&#45;buffer</text>
</g>
<!-- nosave&#45;buffer&#45;&gt;web&#45;buffer -->
<g id="edge28" class="edge">
<title>nosave&#45;buffer&#45;&gt;web&#45;buffer</title>
<path fill="none" stroke="black" d="M372.02,-35.59C358.85,-44.81 342.28,-56.41 327.94,-66.45"/>
<polygon fill="black" stroke="black" points="326.33,-63.3 320.15,-71.9 330.35,-69.04 326.33,-63.3"/>
</g>
</g>
</svg>
