<svg xmlns="http://www.w3.org/2000/svg" viewBox="81 42 1e3 917" width="1000" height="917"><defs><clipPath id="a"><path d="M985 549.788h96v56h-96z"/></clipPath><clipPath id="b"><path d="M305 311.366h124.5v96H305z"/></clipPath><clipPath id="c"><path d="M265 609.058h96v56h-96z"/></clipPath><clipPath id="d"><path d="M512 609.058h96v56h-96z"/></clipPath><clipPath id="e"><path d="M81 682.03h124.5v142.5H81z"/></clipPath><clipPath id="f"><path d="M324 682.03h147v142.5H324z"/></clipPath><clipPath id="g"><path d="M562 802.931h134.5v156H562z"/></clipPath><clipPath id="h"><path d="M737.631 802.931h134.5v156h-134.5z"/></clipPath></defs><g fill="none"><title>Cloud Identity 2</title><path fill="#fff" d="M81 42h1000v917H81z"/><title>Layer 1</title><path d="M431.1 66.508l94.6 46.5-94.6 46.5-94.6-46.5z" fill="#e5f2ec"/><text transform="translate(367.042 84.078)" fill="#000"><tspan font-family="Roboto" font-size="12" font-weight="400" x="40.295" y="11">Are UPNs </tspan> <tspan font-family="Roboto" font-size="12" font-weight="400" x="8.2" y="25">valid email addresses </tspan> <tspan font-family="Roboto" font-size="12" font-weight="400" x="40.245" y="39">across all </tspan> <tspan font-family="Roboto" font-size="12" font-weight="400" x="30.595" y="53">AD domains?</tspan></text><path d="M594.5 194.908l94.6 46.5-94.6 46.5-94.6-46.5z" fill="#e5f2ec"/><text transform="translate(530.442 219.478)" fill="#000"><tspan font-family="Roboto" font-size="12" font-weight="400" x="43.388" y="11">Are UPN </tspan> <tspan font-family="Roboto" font-size="12" font-weight="400" x="8.965" y="25">suffix domains global </tspan> <tspan font-family="Roboto" font-size="12" font-weight="400" x="26.672" y="39">DNS domains?</tspan></text><path d="M753.6 290.72l94.6 46.5-94.6 46.5-94.6-46.5z" fill="#e5f2ec"/><text transform="translate(689.542 315.29)" fill="#000"><tspan font-family="Roboto" font-size="12" font-weight="400" x="38.757" y="11">More than </tspan> <tspan font-family="Roboto" font-size="12" font-weight="400" x="5.039" y="25">one UPN suffix domain </tspan> <tspan font-family="Roboto" font-size="12" font-weight="400" x="18.512" y="39">used per domain?</tspan></text><path d="M908.6 419.931l94.6 46.5-94.6 46.5-94.6-46.5z" fill="#e5f2ec"/><text transform="translate(844.542 444.501)" fill="#000"><tspan font-family="Roboto" font-size="12" font-weight="400" x="34.743" y="11">Do all users </tspan> <tspan font-family="Roboto" font-size="12" font-weight="400" x="15.448" y="25">have curated email </tspan> <tspan font-family="Roboto" font-size="12" font-weight="400" x="19.831" y="39">addresses in AD?</tspan></text><path fill="#fff" d="M985 549.788h96v56h-96z"/><path stroke="#dfdfdf" stroke-linecap="round" stroke-linejoin="round" stroke-width="2" clip-path="url(#a)" d="M985 549.788h96v56h-96z"/><text transform="translate(990 563.788)" fill="#212121"><tspan font-family="Roboto" font-size="12" font-weight="400" x="5.613" y="11">Clean up email </tspan> <tspan font-family="Roboto" font-size="12" font-weight="400" x=".27" y="25">addresses in AD</tspan></text><path d="M921.097 687.356l94.6 46.5-94.6 46.5-94.6-46.5z" fill="#e5f2ec"/><text transform="translate(857.039 704.926)" fill="#000"><tspan font-family="Roboto" font-size="12" font-weight="400" x="40.728" y="11">Are email </tspan> <tspan font-family="Roboto" font-size="12" font-weight="400" x="18.794" y="25">addresses unique </tspan> <tspan font-family="Roboto" font-size="12" font-weight="400" x="14.001" y="39">within each domain </tspan> <tspan font-family="Roboto" font-size="12" font-weight="400" x="37.318" y="53">or forests?</tspan></text><path fill="#fff" d="M305 311.366h124.5v96H305z"/><path stroke="#dfdfdf" stroke-linecap="round" stroke-linejoin="round" stroke-width="2" clip-path="url(#b)" d="M305 311.366h124.5v96H305z"/><text transform="translate(317 324.366)" fill="#212121"><tspan font-family="Roboto" font-size="12" font-weight="400" x="1.532" y="11">Change your email </tspan> <tspan font-family="Roboto" font-size="12" font-weight="400" x="14.994" y="25">infrastructure </tspan> <tspan font-family="Roboto" font-size="12" font-weight="400" x="15.979" y="39">so that UPNs </tspan> <tspan font-family="Roboto" font-size="12" font-weight="400" x="15.548" y="53">become valid </tspan> <tspan font-family="Roboto" font-size="12" font-weight="400" x="7.257" y="67">email addresses</tspan></text><path d="M484.652 436.307l64.676 30.75-64.675 30.75-64.676-30.75z" fill="#e5f2ec"/><text transform="translate(442.44 452.442)" fill="#000"><tspan font-family="Roboto" font-size="12" font-weight="400" x="12.3" y="11">Do all users </tspan> <tspan font-family="Roboto" font-size="12" font-weight="400" x="11.488" y="25">have UPNs?</tspan></text><path d="M230.676 436.307l64.676 30.75-64.676 30.75L166 467.057z" fill="#e5f2ec"/><text transform="translate(188.463 452.442)" fill="#000"><tspan font-family="Roboto" font-size="12" font-weight="400" x="12.3" y="11">Do all users </tspan> <tspan font-family="Roboto" font-size="12" font-weight="400" x="11.488" y="25">have UPNs?</tspan></text><path fill="#fff" d="M265 609.058h96v56h-96z"/><path stroke="#dfdfdf" stroke-linecap="round" stroke-linejoin="round" stroke-width="2" clip-path="url(#c)" d="M265 609.058h96v56h-96z"/><text transform="translate(278 623.058)" fill="#212121"><tspan font-family="Roboto" font-size="12" font-weight="400" x="1.798" y="11">Add missing </tspan> <tspan font-family="Roboto" font-size="12" font-weight="400" x="19.953" y="25">UPNs</tspan></text><path fill="#fff" d="M512 609.058h96v56h-96z"/><path stroke="#dfdfdf" stroke-linecap="round" stroke-linejoin="round" stroke-width="2" clip-path="url(#d)" d="M512 609.058h96v56h-96z"/><text transform="translate(525 623.058)" fill="#212121"><tspan font-family="Roboto" font-size="12" font-weight="400" x="1.798" y="11">Add missing </tspan> <tspan font-family="Roboto" font-size="12" font-weight="400" x="19.953" y="25">UPNs</tspan></text><path fill="#fff" d="M81 682.03h124.5v142.5H81z"/><path stroke="#dfdfdf" stroke-linecap="round" stroke-linejoin="round" stroke-width="2" clip-path="url(#e)" d="M81 682.03h124.5v142.5H81z"/><text transform="translate(96 697.28)" fill="#212121"><tspan font-family="Roboto" font-size="12" font-weight="400" x="8.417" y="11">Use UPN suffix </tspan> <tspan font-family="Roboto" font-size="12" font-weight="400" x="24.812" y="25">domains </tspan> <tspan font-family="Roboto" font-size="12" font-weight="400" x="2.476" y="39">for Cloud Identity</tspan> <tspan font-family="Roboto" font-size="12" font-weight="400" x="17.616" y="67">Use UPN to </tspan> <tspan font-family="Roboto" font-size="12" font-weight="400" x="9.987" y="81">map accounts</tspan> <tspan font-family="Roboto" font-size="12" font-weight="400" x="15.984" y="95">between AD </tspan> <tspan font-family="Roboto" font-size="12" font-weight="400" x=".053" y="109">and Cloud Identity</tspan></text><path fill="#fff" d="M324 682.03h147v142.5H324z"/><path stroke="#dfdfdf" stroke-linecap="round" stroke-linejoin="round" stroke-width="2" clip-path="url(#f)" d="M324 682.03h147v142.5H324z"/><text transform="translate(339 690.28)" fill="#212121"><tspan font-family="Roboto" font-size="12" font-weight="400" x="19.417" y="11">Use UPN suffix </tspan> <tspan font-family="Roboto" font-size="12" font-weight="400" x="1.517" y="25">domains with domain </tspan> <tspan font-family="Roboto" font-size="12" font-weight="400" x="18.286" y="39">substitution for </tspan> <tspan font-family="Roboto" font-size="12" font-weight="400" x="22.496" y="53">Cloud Identity</tspan> <tspan font-family="Roboto" font-size="12" font-weight="400" x="28.616" y="81">Use UPN to </tspan> <tspan font-family="Roboto" font-size="12" font-weight="400" x="20.987" y="95">map accounts</tspan> <tspan font-family="Roboto" font-size="12" font-weight="400" x="26.984" y="109">between AD </tspan> <tspan font-family="Roboto" font-size="12" font-weight="400" x="11.053" y="123">and Cloud Identity</tspan></text><path fill="#fff" d="M562 802.931h134.5v156H562z"/><path stroke="#dfdfdf" stroke-linecap="round" stroke-linejoin="round" stroke-width="2" clip-path="url(#g)" d="M562 802.931h134.5v156H562z"/><text transform="translate(579 824.931)" fill="#212121"><tspan font-family="Roboto" font-size="12" font-weight="400" x="30.302" y="11">Use MX </tspan> <tspan font-family="Roboto" font-size="12" font-weight="400" x="18.791" y="25">domains for </tspan> <tspan font-family="Roboto" font-size="12" font-weight="400" x="14.496" y="39">Cloud Identity</tspan> <tspan font-family="Roboto" font-size="12" font-weight="400" x="1.881" y="67">Use email address </tspan> <tspan font-family="Roboto" font-size="12" font-weight="400" x="6.205" y="81">to map accounts </tspan> <tspan font-family="Roboto" font-size="12" font-weight="400" x="7.541" y="95">between AD and </tspan> <tspan font-family="Roboto" font-size="12" font-weight="400" x="3.053" y="109">and Cloud Identity</tspan></text><path fill="#fff" d="M737.631 802.931h134.5v156h-134.5z"/><path stroke="#dfdfdf" stroke-linecap="round" stroke-linejoin="round" stroke-width="2" clip-path="url(#h)" d="M737.631 802.931h134.5v156h-134.5z"/><text transform="translate(754.631 810.931)" fill="#212121"><tspan font-family="Roboto" font-size="12" font-weight="400" x="30.302" y="11">Use MX </tspan> <tspan font-family="Roboto" font-size="12" font-weight="400" x="15.097" y="25">domains with </tspan> <tspan font-family="Roboto" font-size="12" font-weight="400" x="30.905" y="39">domain </tspan> <tspan font-family="Roboto" font-size="12" font-weight="400" x="10.286" y="53">substitution for </tspan> <tspan font-family="Roboto" font-size="12" font-weight="400" x="14.496" y="67">Cloud Identity</tspan> <tspan font-family="Roboto" font-size="12" font-weight="400" x="1.881" y="95">Use email address </tspan> <tspan font-family="Roboto" font-size="12" font-weight="400" x="6.205" y="109">to map accounts </tspan> <tspan font-family="Roboto" font-size="12" font-weight="400" x="7.541" y="123">between AD and </tspan> <tspan font-family="Roboto" font-size="12" font-weight="400" x="3.053" y="137">and Cloud Identity</tspan></text><path d="M736.352 590.558l94.6 46.5-94.6 46.5-94.6-46.5z" fill="#e5f2ec"/><text transform="translate(672.294 615.128)" fill="#000"><tspan font-family="Roboto" font-size="12" font-weight="400" x="40.728" y="11">Are email </tspan> <tspan font-family="Roboto" font-size="12" font-weight="400" x="18.794" y="25">addresses unique </tspan> <tspan font-family="Roboto" font-size="12" font-weight="400" x="17.065" y="39">across all forests?</tspan></text><path d="M430.1 42.069v14.54a.5.5 0 1 0 1 0v-14.54a.5.5 0 0 0-1 0zm1 22.54v-8h-1v8zm3.146-4.354l-4 4h.708l-4-4-.708.707 4 4 .354.353.354-.353 4-4zm91.456 53.473l68.97-.22-.502-.5-.027 71.908a.5.5 0 1 0 1 0l.026-71.908a.5.5 0 0 0-.501-.5l-68.97.22a.5.5 0 0 0 .004 1zm69.438 79.188l.003-8h-1l-.003 8zm3.148-4.352l-4.002 3.999h.707l-3.998-4.002-.708.707 3.999 4.002.353.353.354-.353 4.001-3.999zm85.412 54.164h70.673l-.5-.5v38.592a.5.5 0 0 0 1 0v-38.592a.5.5 0 0 0-.5-.5H683.7a.5.5 0 0 0 0 1zm71.172 46.092v-8h-1v8zm3.147-4.354l-4 4h.707l-4-4-.707.707 4 4 .353.354.354-.354 4-4zM848.2 337.72h60.4l-.5-.5v72.811a.5.5 0 0 0 1 0V337.22a.5.5 0 0 0-.5-.5h-60.4a.5.5 0 0 0 0 1zm60.9 80.311v-8h-1v8zm3.146-4.353l-4 4h.708l-4-4-.708.707 4 4 .354.353.354-.353 4-4zm90.954 53.253h29.653l-.5-.499.147 68.457v4.999a.5.5 0 0 0 1 0v-5l-.147-68.458a.5.5 0 0 0-.5-.499H1003.2a.5.5 0 0 0 0 1zm30.3 80.957v-8h-1v8zm3.146-4.354l-4 4h.708l-4-4-.708.707 4 4 .354.354.354-.354 4-4zM814 466.496h-77.279a.5.5 0 0 0-.5.5v93.173l-.369 15.477v5.012a.5.5 0 0 0 1 0v-5l.37-15.477v-93.185l-.5.5H814a.5.5 0 0 0 0-1zm-77.148 122.162v-8h-1v8zm3.146-4.354l-4 4h.707l-4-4-.707.707 4 4 .354.354.353-.354 4-4z" fill="#616161"/><path d="M985.006 576.741l-247.37-2.817a.5.5 0 0 0-.01 1l247.368 2.817a.5.5 0 0 0 .012-1zM826.497 637.558h94.6l-.5-.5v40.398a.5.5 0 1 0 1 0v-40.398a.5.5 0 0 0-.5-.5h-94.6a.5.5 0 1 0 0 1zm95.1 47.898v-8h-1v8zm3.146-4.353l-4 4h.707l-4-4-.707.707 4 4 .354.353.353-.353 4-4zM1015.697 734.356h17.572a.5.5 0 0 0 .5-.501l-.269-113.168v-5a.5.5 0 0 0-1 0v5l.269 113.17.5-.5h-17.572a.5.5 0 0 0 0 1zm16.803-126.668v8h1v-8zm-3.146 4.354l4-4h-.708l4 4 .708-.708-4-4-.354-.353-.354.353-4 4zM826.497 733.356h-21.615a.5.5 0 0 0-.5.5v59.175a.5.5 0 0 0 1 0v-59.175l-.5.5h21.614a.5.5 0 1 0 0-1zm-21.116 67.675v-8h-1v8zm3.147-4.353l-4 4h.707l-4-4-.707.707 4 4 .353.353.354-.353 4-4zM641.752 636.558H629.25a.5.5 0 0 0-.5.5V793.03a.5.5 0 1 0 1 0V637.058l-.5.5h12.502a.5.5 0 1 0 0-1zM629.75 801.03v-8h-1v8zm3.146-4.353l-4 4h.708l-4-4-.708.707 4 4 .354.353.354-.353 4-4zM659 336.72H484.653a.5.5 0 0 0-.5.5v89.187a.5.5 0 0 0 1 0V337.22l-.5.5H659a.5.5 0 1 0 0-1zm-173.848 97.687v-8h-1v8zm3.147-4.353l-4 4h.707l-4-4-.707.707 4 4 .353.354.354-.354 4-4zM419.977 466.557h-22.25a.5.5 0 0 0-.5.5v24.825L397 667.13v5a.5.5 0 0 0 1 0v-5l.227-175.246v-24.826l-.5.5h22.25a.5.5 0 1 0 0-1zM398 680.13v-8h-1v8zm3.146-4.354l-4 4h.708l-4-4-.708.707 4 4 .354.354.354-.354 4-4zM549.328 467.557h10.516l-.5-.499.156 127.1v5a.5.5 0 1 0 1 0v-5l-.156-127.101a.5.5 0 0 0-.5-.5h-10.516a.5.5 0 0 0 0 1zm11.172 139.6v-8h-1v8zm3.146-4.353l-4 4h.708l-4-4-.708.707 4 4 .354.354.354-.354 4-4z" fill="#616161"/><path d="M511.999 636.665l-114.462.257a.5.5 0 1 0 .003 1l114.46-.257a.5.5 0 0 0-.002-1zM499.9 240.908H367.25a.5.5 0 0 0-.5.5v60.058a.5.5 0 0 0 1 0v-60.058l-.5.5H499.9a.5.5 0 1 0 0-1zm-132.15 68.558v-8h-1v8zm3.146-4.354l-4 4h.708l-4-4-.708.707 4 4 .354.354.354-.354 4-4zM336.5 112.508H230.675a.5.5 0 0 0-.5.5v313.4a.5.5 0 0 0 1 0v-313.4l-.5.5H336.5a.5.5 0 0 0 0-1zm-105.324 321.9v-8h-1v8zm3.146-4.354l-4 4h.707l-4-4-.707.707 4 4 .354.354.353-.354 4-4z" fill="#616161"/><path d="M304.995 359.44l-74.324.687a.5.5 0 0 0 .01 1l74.324-.687a.5.5 0 0 0-.01-1zM295.352 467.557H313l-.5-.5v132.1a.5.5 0 1 0 1 0v-132.1a.5.5 0 0 0-.5-.5h-17.648a.5.5 0 1 0 0 1zm18.148 139.6v-8h-1v8zm3.146-4.353l-4 4h.708l-4-4-.708.707 4 4 .354.354.354-.354 4-4zM166 466.557h-22.75a.5.5 0 0 0-.5.5V672.13a.5.5 0 0 0 1 0V467.057l-.5.5H166a.5.5 0 0 0 0-1zM143.75 680.13v-8h-1v8zm3.146-4.354l-4 4h.708l-4-4-.708.707 4 4 .354.354.354-.354 4-4z" fill="#616161"/><path d="M265.001 636.466l-121.75-.235a.5.5 0 1 0-.002 1l121.75.235a.5.5 0 0 0 .002-1z" fill="#616161"/><circle cx="1033" cy="508.038" r="17.5" fill="#fd574d"/><text transform="translate(1024 501.538)" fill="#fff"><tspan font-family="Helvetica" font-size="11" font-weight="400" x=".75" y="10">NO</tspan></text><circle cx="1033" cy="674.431" r="17.5" fill="#fd574d"/><text transform="translate(1024 667.931)" fill="#fff"><tspan font-family="Helvetica" font-size="11" font-weight="400" x=".75" y="10">NO</tspan></text><circle cx="311.04" cy="528.424" r="17.5" fill="#fd574d"/><text transform="translate(302.04 521.924)" fill="#fff"><tspan font-family="Helvetica" font-size="11" font-weight="400" x=".75" y="10">NO</tspan></text><circle cx="561.881" cy="528.424" r="17.5" fill="#fd574d"/><text transform="translate(552.88 521.924)" fill="#fff"><tspan font-family="Helvetica" font-size="11" font-weight="400" x=".75" y="10">NO</tspan></text><circle cx="629.25" cy="766.077" r="17.5" fill="#0f9d58"/><text transform="translate(617.25 759.577)" fill="#fff"><tspan font-family="Helvetica" font-size="11" font-weight="400" x=".995" y="10">YES</tspan></text><circle cx="736.352" cy="508.038" r="17.5" fill="#0f9d58"/><text transform="translate(724.352 501.538)" fill="#fff"><tspan font-family="Helvetica" font-size="11" font-weight="400" x=".995" y="10">YES</tspan></text><circle cx="397.5" cy="528.424" r="17.5" fill="#0f9d58"/><text transform="translate(385.5 521.924)" fill="#fff"><tspan font-family="Helvetica" font-size="11" font-weight="400" x=".995" y="10">YES</tspan></text><circle cx="230.676" cy="241.408" r="17.5" fill="#0f9d58"/><text transform="translate(218.676 234.908)" fill="#fff"><tspan font-family="Helvetica" font-size="11" font-weight="400" x=".995" y="10">YES</tspan></text><g><circle cx="143.5" cy="528.424" r="17.5" fill="#0f9d58"/><text transform="translate(131.5 521.924)" fill="#fff"><tspan font-family="Helvetica" font-size="11" font-weight="400" x=".995" y="10">YES</tspan></text></g><g><circle cx="804.881" cy="766.077" r="17.5" fill="#0f9d58"/><text transform="translate(792.881 759.577)" fill="#fff"><tspan font-family="Helvetica" font-size="11" font-weight="400" x=".995" y="10">YES</tspan></text></g><g><circle cx="444.951" cy="241.408" r="17.5" fill="#0f9d58"/><text transform="translate(432.951 234.908)" fill="#fff"><tspan font-family="Helvetica" font-size="11" font-weight="400" x=".995" y="10">YES</tspan></text></g><g><circle cx="561.881" cy="113.113" r="17.5" fill="#fd574d"/><text transform="translate(552.88 106.613)" fill="#fff"><tspan font-family="Helvetica" font-size="11" font-weight="400" x=".75" y="10">NO</tspan></text></g><g><circle cx="719.88" cy="242.228" r="17.5" fill="#fd574d"/><text transform="translate(710.88 235.728)" fill="#fff"><tspan font-family="Helvetica" font-size="11" font-weight="400" x=".75" y="10">NO</tspan></text></g><g><circle cx="575.98" cy="337.22" r="17.5" fill="#fd574d"/><text transform="translate(566.98 330.72)" fill="#fff"><tspan font-family="Helvetica" font-size="11" font-weight="400" x=".75" y="10">NO</tspan></text></g><g><circle cx="908.6" cy="365.575" r="17.5" fill="#0f9d58"/><text transform="translate(896.6 359.075)" fill="#fff"><tspan font-family="Helvetica" font-size="11" font-weight="400" x=".995" y="10">YES</tspan></text></g><g><circle cx="870.491" cy="637.058" r="17.5" fill="#fd574d"/><text transform="translate(861.49 630.558)" fill="#fff"><tspan font-family="Helvetica" font-size="11" font-weight="400" x=".75" y="10">NO</tspan></text></g></g></svg>