<svg xmlns="http://www.w3.org/2000/svg" viewBox="81 42 886 950" width="886" height="950"><defs><clipPath id="a"><path d="M218.798 829.76h95.969v158.96h-95.969z"/></clipPath><clipPath id="b"><path d="M331.854 829.76h95.97v158.96h-95.97z"/></clipPath><clipPath id="c"><path d="M540.905 829.868h95.97v134.91h-95.97z"/></clipPath><clipPath id="d"><path d="M672.476 829.855h79.309v56h-79.309z"/></clipPath><clipPath id="e"><path d="M761.785 829.76h97.5v158.96h-97.5z"/></clipPath><clipPath id="f"><path d="M869.285 829.76h97.5v158.96h-97.5z"/></clipPath><clipPath id="g"><path d="M444.91 829.76h79.31v56h-79.31z"/></clipPath><clipPath id="h"><path d="M126.275 829.868h79.31v56h-79.31z"/></clipPath></defs><g fill="none"><title>Cloud Identity 1</title><path fill="#fff" d="M81 42h886v950H81z"/><title>Layer 1</title><circle cx="916.925" cy="757.967" r="17.5" fill="#fd574d"/><text transform="translate(907.925 751.467)" fill="#fff"><tspan font-family="Helvetica" font-size="11" font-weight="400" x=".75" y="10">NO</tspan></text><path d="M440.011 69.72l70.75 30.25-70.75 30.25-70.75-30.25z" fill="#e5f2ec"/><text transform="translate(393.364 85.365)" fill="#000"><tspan font-family="Roboto" font-size="12" font-weight="400" x="16.015" y="11">More than 1</tspan> <tspan font-family="Roboto" font-size="12" font-weight="400" x="25.135" y="25">domain?</tspan></text><path d="M440.047 194.522l70.75 30.25-70.75 30.25-70.75-30.25z" fill="#e5f2ec"/><text transform="translate(393.4 210.167)" fill="#000"><tspan font-family="Roboto" font-size="12" font-weight="400" x="16.015" y="11">More than 1</tspan> <tspan font-family="Roboto" font-size="12" font-weight="400" x="29.462" y="25">forest?</tspan></text><path d="M440.03 322.362l83.613 35.75-83.614 35.75-83.613-35.75z" fill="#e5f2ec"/><text transform="translate(383.991 336.397)" fill="#000"><tspan font-family="Roboto" font-size="12" font-weight="400" x="28.241" y="11">Are forests</tspan> <tspan font-family="Roboto" font-size="12" font-weight="400" x="16.97" y="25">connected with</tspan> <tspan font-family="Roboto" font-size="12" font-weight="400" x="39.432" y="39">trusts?</tspan></text><path d="M708.39 623.147l70.75 30.25-70.75 30.25-70.75-30.25z" fill="#e5f2ec"/><text transform="translate(661.743 638.792)" fill="#000"><tspan font-family="Roboto" font-size="12" font-weight="400" x="12.464" y="11">Need domain </tspan> <tspan font-family="Roboto" font-size="12" font-weight="400" x="13.536" y="25">substitution?</tspan></text><path d="M164.457 405.1l77.182 33-77.182 33-77.182-33z" fill="#e5f2ec"/><text transform="translate(113.114 416.44)" fill="#000"><tspan font-family="Roboto" font-size="12" font-weight="400" x="24.984" y="11">Ok to sync</tspan> <tspan font-family="Roboto" font-size="12" font-weight="400" x="2.654" y="25">groups from only 1</tspan> <tspan font-family="Roboto" font-size="12" font-weight="400" x="34.286" y="39">forest?</tspan></text><path d="M164.829 531.72l83.613 35.75-83.613 35.75-83.614-35.75z" fill="#e5f2ec"/><text transform="translate(108.79 545.755)" fill="#000"><tspan font-family="Roboto" font-size="12" font-weight="400" x="23.281" y="11">Sync domain</tspan> <tspan font-family="Roboto" font-size="12" font-weight="400" x="25.979" y="25">local, global</tspan> <tspan font-family="Roboto" font-size="12" font-weight="400" x="36.291" y="39">groups?</tspan></text><path d="M165.803 664.347l70.75 30.25-70.75 30.25-70.75-30.25z" fill="#e5f2ec"/><text transform="translate(119.155 679.992)" fill="#000"><tspan font-family="Roboto" font-size="12" font-weight="400" x="12.464" y="11">Need domain</tspan> <tspan font-family="Roboto" font-size="12" font-weight="400" x="13.536" y="25">substitution?</tspan></text><path fill="#fff" d="M218.798 829.76h95.969v158.96h-95.969z"/><path stroke="#dfdfdf" stroke-linecap="round" stroke-linejoin="round" stroke-width="2" clip-path="url(#a)" d="M218.798 829.76h95.969v158.96h-95.969z"/><text transform="translate(222.798 846.24)" fill="#212121"><tspan font-family="Roboto" font-size="12" font-weight="400" x="23.671" y="11">1 Cloud</tspan> <tspan font-family="Roboto" font-size="12" font-weight="400" x="24.456" y="25">Identity</tspan> <tspan font-family="Roboto" font-size="12" font-weight="400" x="22.455" y="39">account</tspan> <tspan font-family="Roboto" font-size="12" font-weight="400" x="23.659" y="67">1 GCDS</tspan> <tspan font-family="Roboto" font-size="12" font-weight="400" x="21.286" y="81">instance</tspan> <tspan font-family="Roboto" font-size="12" font-weight="400" x="13.845" y="95">per domain</tspan> <tspan font-family="Roboto" font-size="12" font-weight="400" x=".222" y="123">1 AD FS instance</tspan></text><path fill="#fff" d="M331.854 829.76h95.969v158.96h-95.969z"/><path stroke="#dfdfdf" stroke-linecap="round" stroke-linejoin="round" stroke-width="2" clip-path="url(#b)" d="M331.854 829.76h95.969v158.96h-95.969z"/><text transform="translate(335.854 846.24)" fill="#212121"><tspan font-family="Roboto" font-size="12" font-weight="400" x="23.671" y="11">1 Cloud</tspan> <tspan font-family="Roboto" font-size="12" font-weight="400" x="24.456" y="25">Identity </tspan> <tspan font-family="Roboto" font-size="12" font-weight="400" x="22.455" y="39">account</tspan> <tspan font-family="Roboto" font-size="12" font-weight="400" x="23.659" y="67">1 GCDS</tspan> <tspan font-family="Roboto" font-size="12" font-weight="400" x="19.801" y="81"> instance </tspan> <tspan font-family="Roboto" font-size="12" font-weight="400" x="18.228" y="95">per forest</tspan> <tspan font-family="Roboto" font-size="12" font-weight="400" x=".222" y="123">1 AD FS instance</tspan></text><path fill="#fff" d="M540.905 829.868h95.969v134.91h-95.969z"/><path stroke="#dfdfdf" stroke-linecap="round" stroke-linejoin="round" stroke-width="2" clip-path="url(#c)" d="M540.905 829.868h95.969v134.91h-95.969z"/><text transform="translate(558.905 841.323)" fill="#212121"><tspan font-family="Roboto" font-size="12" font-weight="400" x="9.671" y="11">1 Cloud</tspan> <tspan font-family="Roboto" font-size="12" font-weight="400" x="8.971" y="25">Identity</tspan> <tspan font-family="Roboto" font-size="12" font-weight="400" x="8.455" y="39">account</tspan> <tspan font-family="Roboto" font-size="12" font-weight="400" x="4.228" y="53">per forest</tspan> <tspan font-family="Roboto" font-size="12" font-weight="400" x="1.863" y="81">Treat each</tspan> <tspan font-family="Roboto" font-size="12" font-weight="400" x="14.288" y="95">forest</tspan> <tspan font-family="Roboto" font-size="12" font-weight="400" x=".325" y="109">individually</tspan></text><path fill="#fff" d="M672.476 829.855h79.309v56h-79.309z"/><path stroke="#dfdfdf" stroke-linecap="round" stroke-linejoin="round" stroke-width="2" clip-path="url(#d)" d="M672.476 829.855h79.309v56h-79.309z"/><text transform="translate(685.476 843.855)" fill="#212121"><tspan font-family="Roboto" font-size="12" font-weight="400" x="17.841" y="11">Not </tspan> <tspan font-family="Roboto" font-size="12" font-weight="400" x=".245" y="25">supported</tspan></text><path fill="#fff" d="M761.785 829.76h97.5v158.96h-97.5z"/><path stroke="#dfdfdf" stroke-linecap="round" stroke-linejoin="round" stroke-width="2" clip-path="url(#e)" d="M761.785 829.76h97.5v158.96h-97.5z"/><text transform="translate(766.785 846.24)" fill="#212121"><tspan font-family="Roboto" font-size="12" font-weight="400" x="23.671" y="11">1 Cloud</tspan> <tspan font-family="Roboto" font-size="12" font-weight="400" x="24.456" y="25">Identity</tspan> <tspan font-family="Roboto" font-size="12" font-weight="400" x="22.455" y="39">account</tspan> <tspan font-family="Roboto" font-size="12" font-weight="400" x="23.659" y="67">1 GCDS</tspan> <tspan font-family="Roboto" font-size="12" font-weight="400" x="21.286" y="81">instance</tspan> <tspan font-family="Roboto" font-size="12" font-weight="400" x="13.845" y="95">per domain</tspan> <tspan font-family="Roboto" font-size="12" font-weight="400" x=".222" y="123">1 AD FS instance</tspan></text><path fill="#fff" d="M869.285 829.76h97.5v158.96h-97.5z"/><path stroke="#dfdfdf" stroke-linecap="round" stroke-linejoin="round" stroke-width="2" clip-path="url(#f)" d="M869.285 829.76h97.5v158.96h-97.5z"/><text transform="translate(874.285 853.24)" fill="#212121"><tspan font-family="Roboto" font-size="12" font-weight="400" x="23.671" y="11">1 Cloud</tspan> <tspan font-family="Roboto" font-size="12" font-weight="400" x="24.456" y="25">Identity</tspan> <tspan font-family="Roboto" font-size="12" font-weight="400" x="22.455" y="39">account</tspan> <tspan font-family="Roboto" font-size="12" font-weight="400" x="23.659" y="67">1 GCDS</tspan> <tspan font-family="Roboto" font-size="12" font-weight="400" x="19.801" y="81">instance</tspan> <tspan font-family="Roboto" font-size="12" font-weight="400" x=".222" y="109">1 AD FS instance</tspan></text><path d="M708.39 489.623l83.614 35.75-83.614 35.75-83.613-35.75z" fill="#e5f2ec"/><text transform="translate(652.352 503.658)" fill="#000"><tspan font-family="Roboto" font-size="12" font-weight="400" x="23.281" y="11">Sync domain</tspan> <tspan font-family="Roboto" font-size="12" font-weight="400" x="25.979" y="25">local, global</tspan> <tspan font-family="Roboto" font-size="12" font-weight="400" x="36.291" y="39">groups?</tspan></text><path d="M708.926 376.362l57.887 24.75-57.887 24.75-57.886-24.75z" fill="#e5f2ec"/><text transform="translate(671.67 393.617)" fill="#000"><tspan font-family="Roboto" font-size="12" font-weight="400" x="2.661" y="11">Sync groups?</tspan></text><path fill="#fff" d="M444.91 829.76h79.309v56H444.91z"/><path stroke="#dfdfdf" stroke-linecap="round" stroke-linejoin="round" stroke-width="2" clip-path="url(#g)" d="M444.91 829.76h79.309v56H444.91z"/><text transform="translate(457.91 843.76)" fill="#212121"><tspan font-family="Roboto" font-size="12" font-weight="400" x="17.841" y="11">Not</tspan> <tspan font-family="Roboto" font-size="12" font-weight="400" x=".245" y="25">supported</tspan></text><path fill="#fff" d="M126.275 829.868h79.309v56h-79.309z"/><path stroke="#dfdfdf" stroke-linecap="round" stroke-linejoin="round" stroke-width="2" clip-path="url(#h)" d="M126.275 829.868h79.309v56h-79.309z"/><text transform="translate(139.275 843.868)" fill="#212121"><tspan font-family="Roboto" font-size="12" font-weight="400" x="17.841" y="11">Not</tspan> <tspan font-family="Roboto" font-size="12" font-weight="400" x=".245" y="25">supported</tspan></text><path d="M248.442 567.97h130.756l-.5-.5v252.368a.5.5 0 1 0 1 0V567.47a.5.5 0 0 0-.5-.5H248.442a.5.5 0 0 0 0 1zm131.256 259.868v-8h-1v8zm3.146-4.354l-4 4h.707l-4-4-.707.707 4 4 .354.354.353-.354 4-4zM439.5 45.28v14.54a.5.5 0 0 0 1 0V45.28a.5.5 0 0 0-1 0zm1 22.54v-8h-1v8zm3.146-4.354l-4 4h.708l-4-4-.708.707 4 4 .354.354.354-.354 4-4zM164.166 471.473v49.974a.5.5 0 0 0 1 0v-49.974a.5.5 0 0 0-1 0zm1 57.974v-8h-1v8zm3.147-4.353l-4 4h.707l-4-4-.707.707 4 4 .353.353.354-.353 4-4zM165.326 724.838l.074 95.13a.5.5 0 1 0 1 0l-.074-95.131a.5.5 0 1 0-1 0zm1.08 103.13l-.006-8h-1l.006 8zm3.144-4.356l-3.997 4.003h.707l-4.003-3.998-.707.708 4.003 3.997.354.353.353-.354 3.997-4.003zM236.553 695.097h29.678l-.5-.5V821.12a.5.5 0 0 0 1 0V694.597a.5.5 0 0 0-.5-.5h-29.678a.5.5 0 1 0 0 1zm29.544 134.036l.633-7.975-.997-.079-.633 7.975zm3.48-4.09l-4.303 3.67.705.056-3.671-4.304-.761.65 3.67 4.303.325.38.38-.324 4.305-3.67zM164.166 604.473v49.974a.5.5 0 0 0 1 0v-49.974a.5.5 0 0 0-1 0zm1 57.974v-8h-1v8zm3.147-4.353l-4 4h.707l-4-4-.707.707 4 4 .353.353.354-.353 4-4z" fill="#616161"/><path d="M241.639 438.6h242.926l-.5-.5v381.76a.5.5 0 1 0 1 0V438.1a.5.5 0 0 0-.5-.5H241.638a.5.5 0 0 0 0 1zm243.426 389.26v-8h-1v8zm3.146-4.354l-4 4h.707l-4-4-.707.707 4 4 .354.354.353-.354 4-4zM523.643 358.612h64.918l-.5-.5V819.16a.5.5 0 0 0 1 0V358.112a.5.5 0 0 0-.5-.5h-64.918a.5.5 0 1 0 0 1zm64.954 468.563l.463-7.986-.998-.058-.463 7.986zm3.393-4.164l-4.225 3.762.706.04-3.762-4.224-.746.665 3.761 4.225.333.373.373-.332 4.225-3.762zM711.63 682.048v137.907a.5.5 0 1 0 1 0V682.047a.5.5 0 0 0-1 0zm1 145.907v-8h-1v8zm3.147-4.354l-4 4h.707l-4-4-.707.707 4 4 .353.354.354-.354 4-4zM779.14 653.897h32.635l-.5-.5V819.86a.5.5 0 1 0 1 0V653.397a.5.5 0 0 0-.5-.5H779.14a.5.5 0 1 0 0 1zm33.135 173.963v-8h-1v8zm3.147-4.354l-4 4h.707l-4-4-.707.707 4 4 .353.354.354-.354 4-4zM707.926 560.682v49.974a.5.5 0 1 0 1 0v-49.974a.5.5 0 0 0-1 0zm1 57.974v-8h-1v8zm3.147-4.353l-4 4h.707l-4-4-.707.707 4 4 .353.353.354-.353 4-4zM789.346 527.006l127.572 1.787a.5.5 0 1 0 .014-1l-127.572-1.786a.5.5 0 0 0-.014 1zM707.926 428.682v49.974a.5.5 0 1 0 1 0v-49.974a.5.5 0 0 0-1 0zm1 57.974v-8h-1v8zm3.147-4.353l-4 4h.707l-4-4-.707.707 4 4 .353.353.354-.353 4-4zM764.56 402.57l152.356 2.627a.5.5 0 0 0 .018-1l-152.356-2.626a.5.5 0 0 0-.017 1zM505.889 226.212H708.05l-.5-.5v148.59a.5.5 0 0 0 1 0v-148.59a.5.5 0 0 0-.5-.5H505.889a.5.5 0 0 0 0 1zm202.662 156.09v-8h-1v8zm3.146-4.354l-4 4h.707l-4-4-.707.707 4 4 .354.353.353-.353 4-4z" fill="#616161"/><path d="M510.761 100.47h406.164l-.5-.5v720.67a.5.5 0 0 0 1 0V99.97a.5.5 0 0 0-.5-.5H510.761a.5.5 0 0 0 0 1zm406.664 728.17v-8h-1v8zm3.147-4.354l-4 4h.707l-4-4-.707.707 4 4 .353.354.354-.354 4-4zM356.416 357.612H163.504a.5.5 0 0 0-.5.5v37.553a.5.5 0 1 0 1 0v-37.553l-.5.5h192.912a.5.5 0 1 0 0-1zm-192.412 46.053v-8h-1v8zm3.147-4.353l-4 4h.707l-4-4-.708.707 4 4 .354.353.354-.353 4-4zM439.547 255.022v10l-.014 28.816-.01 18.916a.5.5 0 0 0 1 0l.01-18.915.014-28.817v-10a.5.5 0 0 0-1 0zm.972 65.733l.004-8h-1l-.004 8zm3.149-4.352l-4.002 3.998h.707l-3.998-4.002-.708.707 3.998 4.002.354.353.353-.353 4.002-3.998zM439.547 134.647v49.975a.5.5 0 1 0 1 0v-49.975a.5.5 0 0 0-1 0zm1 57.975v-8h-1v8zm3.147-4.353l-4 4h.707l-4-4-.707.707 4 4 .353.353.354-.353 4-4z" fill="#616161"/><circle cx="708.39" cy="280.528" r="17.5" fill="#fd574d"/><text transform="translate(699.39 274.028)" fill="#fff"><tspan font-family="Helvetica" font-size="11" font-weight="400" x=".75" y="10">NO</tspan></text><circle cx="812" cy="757.855" r="17.5" fill="#fd574d"/><text transform="translate(803 751.355)" fill="#fff"><tspan font-family="Helvetica" font-size="11" font-weight="400" x=".75" y="10">NO</tspan></text><circle cx="918" cy="280.528" r="17.5" fill="#fd574d"/><text transform="translate(909 274.028)" fill="#fff"><tspan font-family="Helvetica" font-size="11" font-weight="400" x=".75" y="10">NO</tspan></text><circle cx="588.89" cy="630.22" r="17.5" fill="#fd574d"/><text transform="translate(579.89 623.72)" fill="#fff"><tspan font-family="Helvetica" font-size="11" font-weight="400" x=".75" y="10">NO</tspan></text><circle cx="484.565" cy="630.22" r="17.5" fill="#fd574d"/><text transform="translate(475.565 623.72)" fill="#fff"><tspan font-family="Helvetica" font-size="11" font-weight="400" x=".75" y="10">NO</tspan></text><circle cx="380" cy="630.22" r="17.5" fill="#fd574d"/><text transform="translate(371 623.72)" fill="#fff"><tspan font-family="Helvetica" font-size="11" font-weight="400" x=".75" y="10">NO</tspan></text><circle cx="264.038" cy="776.084" r="17.5" fill="#fd574d"/><text transform="translate(255.038 769.584)" fill="#fff"><tspan font-family="Helvetica" font-size="11" font-weight="400" x=".75" y="10">NO</tspan></text><circle cx="165.423" cy="776.518" r="17.5" fill="#0f9d58"/><text transform="translate(153.423 770.018)" fill="#fff"><tspan font-family="Helvetica" font-size="11" font-weight="400" x=".995" y="10">YES</tspan></text><g><circle cx="440.011" cy="162.371" r="17.5" fill="#0f9d58"/><text transform="translate(428.011 155.871)" fill="#fff"><tspan font-family="Helvetica" font-size="11" font-weight="400" x=".995" y="10">YES</tspan></text></g><g><circle cx="712.13" cy="757.855" r="17.5" fill="#0f9d58"/><text transform="translate(700.13 751.355)" fill="#fff"><tspan font-family="Helvetica" font-size="11" font-weight="400" x=".995" y="10">YES</tspan></text></g><g><circle cx="708.39" cy="456.405" r="17.5" fill="#0f9d58"/><text transform="translate(696.39 449.905)" fill="#fff"><tspan font-family="Helvetica" font-size="11" font-weight="400" x=".995" y="10">YES</tspan></text></g><g><circle cx="708.39" cy="588.405" r="17.5" fill="#0f9d58"/><text transform="translate(696.39 581.905)" fill="#fff"><tspan font-family="Helvetica" font-size="11" font-weight="400" x=".995" y="10">YES</tspan></text></g><g><circle cx="439.898" cy="280.528" r="17.5" fill="#0f9d58"/><text transform="translate(427.898 274.028)" fill="#fff"><tspan font-family="Helvetica" font-size="11" font-weight="400" x=".995" y="10">YES</tspan></text></g><g><circle cx="265.769" cy="357.97" r="17.5" fill="#0f9d58"/><text transform="translate(253.77 351.47)" fill="#fff"><tspan font-family="Helvetica" font-size="11" font-weight="400" x=".995" y="10">YES</tspan></text></g><g><circle cx="164.63" cy="499.196" r="17.5" fill="#0f9d58"/><text transform="translate(152.63 492.696)" fill="#fff"><tspan font-family="Helvetica" font-size="11" font-weight="400" x=".995" y="10">YES</tspan></text></g><g><circle cx="164.63" cy="632.196" r="17.5" fill="#0f9d58"/><text transform="translate(152.63 625.696)" fill="#fff"><tspan font-family="Helvetica" font-size="11" font-weight="400" x=".995" y="10">YES</tspan></text></g></g></svg>