<svg width="880" height="682" viewBox="0 0 880 682" xmlns="http://www.w3.org/2000/svg" xmlns:xlink="http://www.w3.org/1999/xlink"><defs><path id="a" d="M0 0h119v94H0z"/></defs><g fill="none" fill-rule="evenodd"><path d="M813 645H43.499" stroke="#616161"/><path fill="#616161" d="M809.672 641l-.672.716 3.556 3.283-3.556 3.285.672.716 4.328-4z"/><path stroke="#B5B5B5" fill="#E6F5EE" d="M802.712 636H518v-27h284.712L814 622.219z"/><text font-family="Roboto-Medium, Roboto" font-size="10" font-weight="400" fill="#212121" transform="translate(518 609)"><tspan x="87" y="17">VM Running on Target Host</tspan></text><path stroke="#B5B5B5" fill="#EFEAF7" d="M803.438 603H518v-27h285.438l11.287 13.219z"/><text font-family="Roboto-Medium, Roboto" font-size="10" font-weight="400" fill="#212121" transform="translate(518 576)"><tspan x="124" y="17">Target Brownout</tspan></text><text transform="rotate(-90 65.5 288)" font-family="Roboto-Regular, Roboto" font-size="10" fill="#757575"><tspan x="41" y="291">Source VM</tspan></text><text transform="rotate(-90 65 493)" font-family="Roboto-Regular, Roboto" font-size="10" fill="#757575"><tspan x="42" y="496">Target VM</tspan></text><path d="M83.826 378H44.174c-.096 0-.174-.673-.174-1.496V199.496c0-.823.078-1.496.174-1.496h39.652c.096 0 .174.673.174 1.496v177.008c0 .823-.078 1.496-.174 1.496z" stroke="#8E8E8E" stroke-width="1.018" stroke-dasharray="2.317"/><path d="M810.817 378H87.183c-1.75 0-3.183-.673-3.183-1.496V199.496c0-.823 1.432-1.496 3.183-1.496h723.634c1.75 0 3.183.673 3.183 1.496v177.008c0 .823-1.432 1.496-3.183 1.496zm0 190H87.183c-1.75 0-3.183-.561-3.183-1.247V419.247c0-.686 1.432-1.247 3.183-1.247h723.634c1.75 0 3.183.561 3.183 1.247v147.506c0 .686-1.432 1.247-3.183 1.247z" fill="#F7F7F7"/><path d="M528.302 378H369.698c-.384 0-.698-.673-.698-1.496V199.496c0-.823.314-1.496.698-1.496h158.604c.384 0 .698.673.698 1.496v177.008c0 .823-.314 1.496-.698 1.496z" fill="#EDEFF1"/><path d="M528.5 198.5v179.137M369.5 198.5v179.137" stroke="#8E8E8E" stroke-width="1.018" fill="#D4D4D4" stroke-dasharray="2.317"/><path d="M528.302 568H369.698c-.384 0-.698-.561-.698-1.247V419.247c0-.686.314-1.247.698-1.247h158.604c.384 0 .698.561.698 1.247v147.506c0 .686-.314 1.247-.698 1.247z" fill="#EDEFF1"/><path d="M528.5 418.5v150.013M369.5 418.5v150.013" stroke="#8E8E8E" stroke-width="1.018" fill="#D4D4D4" stroke-dasharray="2.317"/><path d="M83.826 568H44.174c-.096 0-.174-.561-.174-1.247V419.247c0-.686.078-1.247.174-1.247h39.652c.096 0 .174.561.174 1.247v147.506c0 .686-.078 1.247-.174 1.247z" stroke="#8E8E8E" stroke-width="1.018" stroke-dasharray="2.317"/><path d="M811.5 188.5H44" stroke="#DDD" stroke-dasharray="5,5"/><text font-family="Roboto-Regular, Roboto" font-size="10" fill="#757575"><tspan x="44" y="183">Remote Resources</tspan></text><text font-family="Roboto-Regular, Roboto" font-size="10" fill="#757575"><tspan x="44" y="658">Time</tspan></text><path stroke="#B5B5B5" fill="#F9ADAD" d="M517 636H356v-27h161l12 13.219z"/><text font-family="Roboto-Medium, Roboto" font-size="10" font-weight="400" fill="#212121" transform="translate(356 609)"><tspan x="67" y="17">VM Paused</tspan></text><path stroke="#B5B5B5" fill="#F9ADAD" d="M517 603H356v-27h161l12 13.219z"/><text font-family="Roboto-Medium, Roboto" font-size="10" font-weight="400" fill="#212121" transform="translate(356 576)"><tspan x="67" y="17">Blackout</tspan></text><path d="M599.5 495.016V304.5" stroke="#616161"/><path fill="#616161" d="M603.5 492.172l-.716-.672-3.283 3.556-3.285-3.556-.716.672 4 4.328zm0-184.344l-.716.672-3.283-3.556-3.285 3.556-.716-.672 4-4.328z"/><path fill="#B9B9B9" d="M84 378h730v40H84z"/><text font-family="Roboto-Regular, Roboto" font-size="10" fill="#434343"><tspan x="407" y="402">Cluster Networking</tspan></text><path stroke="#B5B5B5" fill="#E3F6FE" d="M683.424 303H369v-27h314.424l12 13.219z"/><text font-family="Roboto-Medium, Roboto" font-size="10" font-weight="400" fill="#212121" transform="translate(369 276)"><tspan x="20" y="17">Memory Post-Copy</tspan></text><path stroke="#B5B5B5" fill="#E3F6FE" d="M683.424 523H369v-27h314.424l12 13.219z"/><text font-family="Roboto-Medium, Roboto" font-size="10" font-weight="400" fill="#212121" transform="translate(369 496)"><tspan x="20" y="17">Memory Post-Copy</tspan></text><path d="M329 461.516V271" stroke="#616161"/><path fill="#616161" d="M333 458.672l-.716-.672-3.283 3.556-3.285-3.556-.716.672 4 4.328z"/><path stroke="#B5B5B5" fill="#E3F6FE" d="M368.82 303H259v-27h109.82l12 13.219z"/><text font-family="Roboto-Medium, Roboto" font-size="10" font-weight="400" fill="#212121" transform="translate(259 276)"><tspan x="10" y="17">Memory Pre-Copy</tspan></text><path stroke="#B5B5B5" fill="#E3F6FE" d="M368.82 523H259l12-13.303L259 496h109.82l12 13.219z"/><text font-family="Roboto-Medium, Roboto" font-size="10" font-weight="400" fill="#212121" transform="translate(259 496)"><tspan x="20" y="17">Memory Pre-Copy</tspan></text><path stroke="#B5B5B5" fill="#E3F6FE" d="M356.025 271h-45.377v-27h45.377L368 257.219z"/><text font-family="Roboto-Medium, Roboto" font-size="10" font-weight="400" fill="#212121" transform="translate(310 244)"><tspan x="11" y="17">PD</tspan></text><path stroke="#B5B5B5" fill="#A8DAF0" d="M428.46 491h-58.812v-27h58.813l11.975 13.219z"/><text font-family="Roboto-Medium, Roboto" font-size="10" font-weight="400" fill="#212121" transform="translate(369 464)"><tspan x="21" y="17">PD</tspan></text><path stroke="#B5B5B5" fill="#E3F6FE" d="M369.46 491h-58.812l12-13.105-12-13.895h58.813l11.975 13.219z"/><text font-family="Roboto-Medium, Roboto" font-size="10" font-weight="400" fill="#212121" transform="translate(310 464)"><tspan x="21" y="17">PD</tspan></text><path d="M176 525.609V331" stroke="#616161"/><path fill="#616161" d="M180 522.672l-.716-.672-3.283 3.556-3.285-3.556-.716.672 4 4.328z"/><path d="M281 493.516V303" stroke="#616161"/><path fill="#616161" d="M285 490.672l-.716-.672-3.283 3.556-3.285-3.556-.716.672 4 4.328z"/><path d="M496 493.516V303" stroke="#616161"/><path fill="#616161" d="M500 490.672l-.716-.672-3.283 3.556-3.285-3.556-.716.672 4 4.328z"/><path stroke="#B5B5B5" fill="#E3F6FE" d="M357 335H154v-27h203l12 13.219z"/><text font-family="Roboto-Medium, Roboto" font-size="10" font-weight="400" fill="#212121" transform="translate(154 308)"><tspan x="10" y="17">Local SSD</tspan></text><path stroke="#B5B5B5" fill="#E3F6FE" d="M357 555H154l12-12.906L154 528h203l12 13.219z"/><text font-family="Roboto-Medium, Roboto" font-size="10" font-weight="400" fill="#212121" transform="translate(154 528)"><tspan x="20" y="17">Local SSD</tspan></text><path stroke="#B5B5B5" fill="#E3F6FE" d="M779.963 555H529l12-13.895L529 528h250.963l12 13.219z"/><text font-family="Roboto-Medium, Roboto" font-size="10" font-weight="400" fill="#212121" transform="translate(529 528)"><tspan x="20" y="17">Networking</tspan></text><path stroke="#B5B5B5" fill="#E6F5EE" d="M356.712 636H44v-27h312.712L368 622.219z"/><text font-family="Roboto-Medium, Roboto" font-size="10" font-weight="400" fill="#212121" transform="translate(44 609)"><tspan x="99" y="17">VM Running on Source Host</tspan></text><path stroke="#B5B5B5" fill="#EFEAF7" d="M356.712 603H84v-27h272.712L368 589.219z"/><text font-family="Roboto-Medium, Roboto" font-size="10" font-weight="400" fill="#212121" transform="translate(84 576)"><tspan x="94" y="17">Source Brownout</tspan></text><path stroke="#DFDFDF" d="M249.5 48.5h118v93h-118z"/><text font-family="Roboto-Regular, Roboto" font-size="12" fill="#212121" transform="translate(249 48)"><tspan x="21.942" y="73">Persistent Disk</tspan></text><g transform="translate(529 48)"><use fill="#FFF" xlink:href="#a"/><path stroke="#DFDFDF" d="M.5.5h118v93H.5z"/></g><text font-family="Roboto-Regular, Roboto" font-size="12" fill="#212121" transform="translate(529 48)"><tspan x="14.489" y="73">Cloud Networking</tspan></text><g fill="#6C6C6C"><path d="M303 75h13v3h-13z"/><path d="M303 75h3v6h-3z"/></g><g fill="#6C6C6C"><path d="M316 91h-13v-3h13z"/><path d="M316 91h-3v-6h3z"/></g><path fill="#6C6C6C" d="M303 83h8v3h-8zm5-3h8v3h-8z"/><path d="M597.4 81c-.7-3.4-3.7-6-7.4-6-2.9 0-5.4 1.6-6.6 4-3.1.4-5.4 2.9-5.4 6 0 3.3 2.7 6 6 6h13c2.8 0 5-2.2 5-5 0-2.6-2.1-4.8-4.6-5z" fill="#616161"/><path stroke="#B5B5B5" d="M368 226h113.456V93H528M329.005 243.58V143"/><path fill="#B5B5B5" d="M524.672 89l-.672.716L527.556 93 524 96.284l.672.716L529 93zm128.656 0l.672.716L650.444 93 654 96.284l-.672.716L649 93zM333.5 146.828l-.716.672-3.283-3.556-3.285 3.556-.716-.672 4-4.328z"/><path stroke="#B5B5B5" d="M439.926 477H840V14H308v30.088"/><path fill="#B5B5B5" d="M312.5 41.172l-.716-.672-3.283 3.556-3.285-3.556-.716.672 4 4.328z"/><path stroke="#B5B5B5" d="M792.081 541H827V93H650"/><path d="M810.817 378H87.183c-1.75 0-3.183-.673-3.183-1.496V199.496c0-.823 1.432-1.496 3.183-1.496h723.634c1.75 0 3.183.673 3.183 1.496v177.008c0 .823-1.432 1.496-3.183 1.496zm0 190H87.183c-1.75 0-3.183-.561-3.183-1.247V419.247c0-.686 1.432-1.247 3.183-1.247h723.634c1.75 0 3.183.561 3.183 1.247v147.506c0 .686-1.432 1.247-3.183 1.247z" stroke="#8E8E8E" stroke-width="1.018" stroke-dasharray="2.317"/><g><path stroke="#B5B5B5" fill="#E3F6FE" d="M356 239H153v-27h203l12 13.219z"/><text font-family="Roboto-Medium, Roboto" font-size="10" font-weight="400" fill="#212121" transform="translate(153 212)"><tspan x="10" y="17">Networking</tspan></text></g><path d="M154.826 335h-39.652c-.096 0-.174-.46-.174-1.022V213.022c0-.562.078-1.022.174-1.022h39.652c.096 0 .174.46.174 1.022v120.956c0 .562-.078 1.022-.174 1.022z" stroke="#8E8E8E" stroke-width="1.018" fill="#FDFAD1" stroke-dasharray="2.317"/><text transform="rotate(-90 135 274)" font-family="Roboto-Regular, Roboto" font-size="10" fill="#757575"><tspan x="106" y="277">Coordination</tspan></text><g><path stroke="#B5B5B5" fill="#A8DAF0" d="M517 367H369v-27h148l12 13.219z"/><text font-family="Roboto-Medium, Roboto" font-size="10" font-weight="400" fill="#212121" transform="translate(369 340)"><tspan x="20" y="17">Static VM State</tspan></text></g><g><path stroke="#B5B5B5" fill="#A8DAF0" d="M517 459H369l12-13.08L369 432h148l12 13.219z"/><text font-family="Roboto-Medium, Roboto" font-size="10" font-weight="400" fill="#212121" transform="translate(369 432)"><tspan x="20" y="17">Static VM State</tspan></text></g></g></svg>