<?xml version="1.0" encoding="UTF-8" standalone="no"?>
<!DOCTYPE svg PUBLIC "-//W3C//DTD SVG 1.1//EN"
 "http://www.w3.org/Graphics/SVG/1.1/DTD/svg11.dtd">
<!-- Generated by graphviz version 12.2.1 (0)
 -->
<!-- Title: ospf_ecmp_iBGP_topo1 Pages: 1 -->
<svg width="2355pt" height="2132pt"
 viewBox="0.00 0.00 2354.75 2132.25" xmlns="http://www.w3.org/2000/svg" xmlns:xlink="http://www.w3.org/1999/xlink">
<g id="page0,1_graph0" class="graph" transform="scale(1 1) rotate(0) translate(4 2128.25)">
<title>ospf_ecmp_iBGP_topo1</title>
<polygon fill="white" stroke="none" points="-4,4 -4,-2128.25 2350.75,-2128.25 2350.75,4 -4,4"/>
<text text-anchor="middle" x="1173.38" y="-2106.95" font-family="Times,serif" font-size="14.00">bgp ecmp topo1 &#45; eBGP with different AS numbers</text>
<!-- r1 -->
<g id="node1" class="node">
<title>r1</title>
<polygon fill="#f08080" stroke="black" points="618.97,-211.13 618.97,-238.08 548.58,-257.13 449.03,-257.13 378.64,-238.08 378.64,-211.13 449.03,-192.08 548.58,-192.08 618.97,-211.13"/>
<polygon fill="none" stroke="black" points="622.97,-208.07 622.97,-241.14 549.11,-261.13 448.5,-261.13 374.64,-241.14 374.64,-208.07 448.5,-188.08 549.11,-188.08 622.97,-208.07"/>
<text text-anchor="middle" x="498.81" y="-228.56" font-family="Times,serif" font-size="14.00">r1</text>
<text text-anchor="middle" x="498.81" y="-211.31" font-family="Times,serif" font-size="14.00">rtr&#45;id 10.0.255.1/32</text>
</g>
<!-- s1 -->
<g id="node2" class="node">
<title>s1</title>
<ellipse fill="#d0e0d0" stroke="black" cx="2117.75" cy="-1049.5" rx="68.59" ry="30.05"/>
<text text-anchor="middle" x="2117.75" y="-1053.45" font-family="Times,serif" font-size="14.00">s1</text>
<text text-anchor="middle" x="2117.75" y="-1036.2" font-family="Times,serif" font-size="14.00">10.0.1.0/24</text>
</g>
<!-- r1&#45;&#45;s1 -->
<g id="edge1" class="edge">
<title>r1&#45;&#45;s1</title>
<path fill="none" stroke="black" d="M563.52,-257.58C830.91,-393.82 1846.15,-911.11 2072.73,-1026.56"/>
<text text-anchor="middle" x="1302" y="-663.27" font-family="Times,serif" font-size="14.00">eth0</text>
<text text-anchor="middle" x="1302" y="-646.02" font-family="Times,serif" font-size="14.00">.1</text>
</g>
<!-- s2 -->
<g id="node3" class="node">
<title>s2</title>
<ellipse fill="#d0e0d0" stroke="black" cx="783.04" cy="-79.78" rx="68.59" ry="30.05"/>
<text text-anchor="middle" x="783.04" y="-83.73" font-family="Times,serif" font-size="14.00">s2</text>
<text text-anchor="middle" x="783.04" y="-66.48" font-family="Times,serif" font-size="14.00">10.0.2.0/24</text>
</g>
<!-- r1&#45;&#45;s2 -->
<g id="edge2" class="edge">
<title>r1&#45;&#45;s2</title>
<path fill="none" stroke="black" d="M563.66,-191.56C616.91,-164.43 690.95,-126.7 737.94,-102.76"/>
<text text-anchor="middle" x="634.67" y="-168.36" font-family="Times,serif" font-size="14.00">eth1</text>
<text text-anchor="middle" x="634.67" y="-151.11" font-family="Times,serif" font-size="14.00">.1</text>
</g>
<!-- s3 -->
<g id="node4" class="node">
<title>s3</title>
<ellipse fill="#d0e0d0" stroke="black" cx="498.81" cy="-1874.4" rx="68.59" ry="30.05"/>
<text text-anchor="middle" x="498.81" y="-1878.35" font-family="Times,serif" font-size="14.00">s3</text>
<text text-anchor="middle" x="498.81" y="-1861.1" font-family="Times,serif" font-size="14.00">10.0.3.0/24</text>
</g>
<!-- r1&#45;&#45;s3 -->
<g id="edge3" class="edge">
<title>r1&#45;&#45;s3</title>
<path fill="none" stroke="black" d="M498.81,-261.38C498.81,-483.29 498.81,-1641.11 498.81,-1844.03"/>
<text text-anchor="middle" x="482.68" y="-1073.9" font-family="Times,serif" font-size="14.00">eth2</text>
<text text-anchor="middle" x="482.68" y="-1056.65" font-family="Times,serif" font-size="14.00">.1</text>
</g>
<!-- s4 -->
<g id="node5" class="node">
<title>s4</title>
<ellipse fill="#d0e0d0" stroke="black" cx="1923.02" cy="-1648.82" rx="68.59" ry="30.05"/>
<text text-anchor="middle" x="1923.02" y="-1652.77" font-family="Times,serif" font-size="14.00">s4</text>
<text text-anchor="middle" x="1923.02" y="-1635.52" font-family="Times,serif" font-size="14.00">10.0.4.0/24</text>
</g>
<!-- r1&#45;&#45;s4 -->
<g id="edge4" class="edge">
<title>r1&#45;&#45;s4</title>
<path fill="none" stroke="black" d="M532.39,-261.43C727,-464.55 1707.29,-1444.74 1892.74,-1621.5"/>
<text text-anchor="middle" x="1196.44" y="-962.67" font-family="Times,serif" font-size="14.00">eth3</text>
<text text-anchor="middle" x="1196.44" y="-945.42" font-family="Times,serif" font-size="14.00">.1</text>
</g>
<!-- peer6 -->
<g id="node11" class="node">
<title>peer6</title>
<polygon fill="#eee3d3" stroke="black" points="2146.35,-764.29 1989.35,-764.29 1989.35,-704.54 2146.35,-704.54 2146.35,-764.29"/>
<text text-anchor="middle" x="2067.85" y="-746.99" font-family="Times,serif" font-size="14.00">eBGP peer6</text>
<text text-anchor="middle" x="2067.85" y="-729.74" font-family="Times,serif" font-size="14.00">AS99</text>
<text text-anchor="middle" x="2067.85" y="-712.49" font-family="Times,serif" font-size="14.00">rtr&#45;id 10.0.2.106/32</text>
</g>
<!-- s1&#45;&#45;peer6 -->
<!-- peer7 -->
<g id="node12" class="node">
<title>peer7</title>
<polygon fill="#eee3d3" stroke="black" points="2001.52,-480.06 1844.52,-480.06 1844.52,-420.31 2001.52,-420.31 2001.52,-480.06"/>
<text text-anchor="middle" x="1923.02" y="-462.76" font-family="Times,serif" font-size="14.00">eBGP peer7</text>
<text text-anchor="middle" x="1923.02" y="-445.51" font-family="Times,serif" font-size="14.00">AS99</text>
<text text-anchor="middle" x="1923.02" y="-428.26" font-family="Times,serif" font-size="14.00">rtr&#45;id 10.0.2.107/32</text>
</g>
<!-- s1&#45;&#45;peer7 -->
<!-- peer8 -->
<g id="node13" class="node">
<title>peer8</title>
<polygon fill="#eee3d3" stroke="black" points="1775.95,-254.48 1618.95,-254.48 1618.95,-194.73 1775.95,-194.73 1775.95,-254.48"/>
<text text-anchor="middle" x="1697.45" y="-237.18" font-family="Times,serif" font-size="14.00">eBGP peer8</text>
<text text-anchor="middle" x="1697.45" y="-219.93" font-family="Times,serif" font-size="14.00">AS99</text>
<text text-anchor="middle" x="1697.45" y="-202.68" font-family="Times,serif" font-size="14.00">rtr&#45;id 10.0.2.108/32</text>
</g>
<!-- s1&#45;&#45;peer8 -->
<!-- peer9 -->
<g id="node14" class="node">
<title>peer9</title>
<polygon fill="#eee3d3" stroke="black" points="1491.71,-109.65 1334.71,-109.65 1334.71,-49.9 1491.71,-49.9 1491.71,-109.65"/>
<text text-anchor="middle" x="1413.21" y="-92.35" font-family="Times,serif" font-size="14.00">eBGP peer9</text>
<text text-anchor="middle" x="1413.21" y="-75.1" font-family="Times,serif" font-size="14.00">AS99</text>
<text text-anchor="middle" x="1413.21" y="-57.85" font-family="Times,serif" font-size="14.00">rtr&#45;id 10.0.2.109/32</text>
</g>
<!-- s1&#45;&#45;peer9 -->
<!-- peer10 -->
<g id="node15" class="node">
<title>peer10</title>
<polygon fill="#eee3d3" stroke="black" points="1176.63,-59.75 1019.63,-59.75 1019.63,0 1176.63,0 1176.63,-59.75"/>
<text text-anchor="middle" x="1098.13" y="-42.45" font-family="Times,serif" font-size="14.00">eBGP peer10</text>
<text text-anchor="middle" x="1098.13" y="-25.2" font-family="Times,serif" font-size="14.00">AS99</text>
<text text-anchor="middle" x="1098.13" y="-7.95" font-family="Times,serif" font-size="14.00">rtr&#45;id 10.0.2.110/32</text>
</g>
<!-- s1&#45;&#45;peer10 -->
<!-- peer11 -->
<g id="node16" class="node">
<title>peer11</title>
<polygon fill="#eee3d3" stroke="black" points="351.73,-480.06 194.73,-480.06 194.73,-420.31 351.73,-420.31 351.73,-480.06"/>
<text text-anchor="middle" x="273.23" y="-462.76" font-family="Times,serif" font-size="14.00">eBGP peer11</text>
<text text-anchor="middle" x="273.23" y="-445.51" font-family="Times,serif" font-size="14.00">AS111</text>
<text text-anchor="middle" x="273.23" y="-428.26" font-family="Times,serif" font-size="14.00">rtr&#45;id 10.0.3.111/32</text>
</g>
<!-- s2&#45;&#45;peer11 -->
<!-- peer12 -->
<g id="node17" class="node">
<title>peer12</title>
<polygon fill="#eee3d3" stroke="black" points="206.9,-764.29 49.9,-764.29 49.9,-704.54 206.9,-704.54 206.9,-764.29"/>
<text text-anchor="middle" x="128.4" y="-746.99" font-family="Times,serif" font-size="14.00">eBGP peer12</text>
<text text-anchor="middle" x="128.4" y="-729.74" font-family="Times,serif" font-size="14.00">AS112</text>
<text text-anchor="middle" x="128.4" y="-712.49" font-family="Times,serif" font-size="14.00">rtr&#45;id 10.0.3.112/32</text>
</g>
<!-- s2&#45;&#45;peer12 -->
<!-- peer13 -->
<g id="node18" class="node">
<title>peer13</title>
<polygon fill="#eee3d3" stroke="black" points="157,-1079.38 0,-1079.38 0,-1019.63 157,-1019.63 157,-1079.38"/>
<text text-anchor="middle" x="78.5" y="-1062.08" font-family="Times,serif" font-size="14.00">eBGP peer13</text>
<text text-anchor="middle" x="78.5" y="-1044.83" font-family="Times,serif" font-size="14.00">AS113</text>
<text text-anchor="middle" x="78.5" y="-1027.58" font-family="Times,serif" font-size="14.00">rtr&#45;id 10.0.3.113/32</text>
</g>
<!-- s2&#45;&#45;peer13 -->
<!-- peer14 -->
<g id="node19" class="node">
<title>peer14</title>
<polygon fill="#eee3d3" stroke="black" points="206.9,-1394.46 49.9,-1394.46 49.9,-1334.71 206.9,-1334.71 206.9,-1394.46"/>
<text text-anchor="middle" x="128.4" y="-1377.16" font-family="Times,serif" font-size="14.00">eBGP peer14</text>
<text text-anchor="middle" x="128.4" y="-1359.91" font-family="Times,serif" font-size="14.00">AS114</text>
<text text-anchor="middle" x="128.4" y="-1342.66" font-family="Times,serif" font-size="14.00">rtr&#45;id 10.0.3.114/32</text>
</g>
<!-- s2&#45;&#45;peer14 -->
<!-- peer15 -->
<g id="node20" class="node">
<title>peer15</title>
<polygon fill="#eee3d3" stroke="black" points="351.73,-1678.7 194.73,-1678.7 194.73,-1618.95 351.73,-1618.95 351.73,-1678.7"/>
<text text-anchor="middle" x="273.23" y="-1661.4" font-family="Times,serif" font-size="14.00">eBGP peer15</text>
<text text-anchor="middle" x="273.23" y="-1644.15" font-family="Times,serif" font-size="14.00">AS115</text>
<text text-anchor="middle" x="273.23" y="-1626.9" font-family="Times,serif" font-size="14.00">rtr&#45;id 10.0.3.115/32</text>
</g>
<!-- s2&#45;&#45;peer15 -->
<!-- peer16 -->
<g id="node21" class="node">
<title>peer16</title>
<polygon fill="#eee3d3" stroke="black" points="861.54,-2049.1 704.54,-2049.1 704.54,-1989.35 861.54,-1989.35 861.54,-2049.1"/>
<text text-anchor="middle" x="783.04" y="-2031.8" font-family="Times,serif" font-size="14.00">eBGP peer16</text>
<text text-anchor="middle" x="783.04" y="-2014.55" font-family="Times,serif" font-size="14.00">AS116</text>
<text text-anchor="middle" x="783.04" y="-1997.3" font-family="Times,serif" font-size="14.00">rtr&#45;id 10.0.4.116/32</text>
</g>
<!-- s3&#45;&#45;peer16 -->
<!-- peer17 -->
<g id="node22" class="node">
<title>peer17</title>
<polygon fill="#eee3d3" stroke="black" points="2146.35,-1394.46 1989.35,-1394.46 1989.35,-1334.71 2146.35,-1334.71 2146.35,-1394.46"/>
<text text-anchor="middle" x="2067.85" y="-1377.16" font-family="Times,serif" font-size="14.00">eBGP peer17</text>
<text text-anchor="middle" x="2067.85" y="-1359.91" font-family="Times,serif" font-size="14.00">AS117</text>
<text text-anchor="middle" x="2067.85" y="-1342.66" font-family="Times,serif" font-size="14.00">rtr&#45;id 10.0.4.117/32</text>
</g>
<!-- s3&#45;&#45;peer17 -->
<!-- peer18 -->
<g id="node23" class="node">
<title>peer18</title>
<polygon fill="#eee3d3" stroke="black" points="1176.63,-2099 1019.63,-2099 1019.63,-2039.25 1176.63,-2039.25 1176.63,-2099"/>
<text text-anchor="middle" x="1098.13" y="-2081.7" font-family="Times,serif" font-size="14.00">eBGP peer18</text>
<text text-anchor="middle" x="1098.13" y="-2064.45" font-family="Times,serif" font-size="14.00">AS118</text>
<text text-anchor="middle" x="1098.13" y="-2047.2" font-family="Times,serif" font-size="14.00">rtr&#45;id 10.0.4.118/32</text>
</g>
<!-- s3&#45;&#45;peer18 -->
<!-- peer19 -->
<g id="node24" class="node">
<title>peer19</title>
<polygon fill="#eee3d3" stroke="black" points="1491.71,-2049.1 1334.71,-2049.1 1334.71,-1989.35 1491.71,-1989.35 1491.71,-2049.1"/>
<text text-anchor="middle" x="1413.21" y="-2031.8" font-family="Times,serif" font-size="14.00">eBGP peer19</text>
<text text-anchor="middle" x="1413.21" y="-2014.55" font-family="Times,serif" font-size="14.00">AS119</text>
<text text-anchor="middle" x="1413.21" y="-1997.3" font-family="Times,serif" font-size="14.00">rtr&#45;id 10.0.4.119/32</text>
</g>
<!-- s3&#45;&#45;peer19 -->
<!-- peer20 -->
<g id="node25" class="node">
<title>peer20</title>
<polygon fill="#eee3d3" stroke="black" points="1775.95,-1904.27 1618.95,-1904.27 1618.95,-1844.52 1775.95,-1844.52 1775.95,-1904.27"/>
<text text-anchor="middle" x="1697.45" y="-1886.97" font-family="Times,serif" font-size="14.00">eBGP peer20</text>
<text text-anchor="middle" x="1697.45" y="-1869.72" font-family="Times,serif" font-size="14.00">AS120</text>
<text text-anchor="middle" x="1697.45" y="-1852.47" font-family="Times,serif" font-size="14.00">rtr&#45;id 10.0.4.120/32</text>
</g>
<!-- s3&#45;&#45;peer20 -->
<!-- s4&#45;&#45;r1 -->
<!-- peer1 -->
<g id="node6" class="node">
<title>peer1</title>
<polygon fill="#eee3d3" stroke="black" points="2258.26,-632.98 2101.26,-632.98 2101.26,-573.23 2258.26,-573.23 2258.26,-632.98"/>
<text text-anchor="middle" x="2179.76" y="-615.68" font-family="Times,serif" font-size="14.00">eBGP peer1</text>
<text text-anchor="middle" x="2179.76" y="-598.43" font-family="Times,serif" font-size="14.00">AS99</text>
<text text-anchor="middle" x="2179.76" y="-581.18" font-family="Times,serif" font-size="14.00">rtr&#45;id 10.0.1.101/32</text>
</g>
<!-- peer1&#45;&#45;s1 -->
<g id="edge5" class="edge">
<title>peer1&#45;&#45;s1</title>
<path fill="none" stroke="black" d="M2171.9,-633.29C2156.4,-714.56 2125.47,-937.35 2118.36,-1018.99"/>
<text text-anchor="middle" x="2129" y="-847.34" font-family="Times,serif" font-size="14.00">eth0</text>
<text text-anchor="middle" x="2129" y="-830.09" font-family="Times,serif" font-size="14.00">.101</text>
</g>
<!-- peer1&#45;&#45;s1 -->
<!-- peer2 -->
<g id="node7" class="node">
<title>peer2</title>
<polygon fill="#eee3d3" stroke="black" points="2324.42,-851.84 2167.42,-851.84 2167.42,-792.09 2324.42,-792.09 2324.42,-851.84"/>
<text text-anchor="middle" x="2245.92" y="-834.54" font-family="Times,serif" font-size="14.00">eBGP peer2</text>
<text text-anchor="middle" x="2245.92" y="-817.29" font-family="Times,serif" font-size="14.00">AS99</text>
<text text-anchor="middle" x="2245.92" y="-800.04" font-family="Times,serif" font-size="14.00">rtr&#45;id 10.0.1.102/32</text>
</g>
<!-- peer2&#45;&#45;s1 -->
<g id="edge6" class="edge">
<title>peer2&#45;&#45;s1</title>
<path fill="none" stroke="black" d="M2223.28,-852.16C2195.72,-895.87 2150.58,-976.21 2129.27,-1019.71"/>
<text text-anchor="middle" x="2160.15" y="-957.13" font-family="Times,serif" font-size="14.00">eth0</text>
<text text-anchor="middle" x="2160.15" y="-939.88" font-family="Times,serif" font-size="14.00">.102</text>
</g>
<!-- peer2&#45;&#45;s1 -->
<!-- peer3 -->
<g id="node8" class="node">
<title>peer3</title>
<polygon fill="#eee3d3" stroke="black" points="2346.75,-1079.38 2189.75,-1079.38 2189.75,-1019.63 2346.75,-1019.63 2346.75,-1079.38"/>
<text text-anchor="middle" x="2268.25" y="-1062.08" font-family="Times,serif" font-size="14.00">eBGP peer3</text>
<text text-anchor="middle" x="2268.25" y="-1044.83" font-family="Times,serif" font-size="14.00">AS99</text>
<text text-anchor="middle" x="2268.25" y="-1027.58" font-family="Times,serif" font-size="14.00">rtr&#45;id 10.0.1.103/32</text>
</g>
<!-- peer3&#45;&#45;s1 -->
<g id="edge7" class="edge">
<title>peer3&#45;&#45;s1</title>
<path fill="none" stroke="black" d="M2189.48,-1042.76C2187.91,-1042.76 2186.35,-1042.77 2184.79,-1042.79"/>
<text text-anchor="middle" x="2187.13" y="-1029.47" font-family="Times,serif" font-size="14.00">eth0</text>
<text text-anchor="middle" x="2187.13" y="-1012.22" font-family="Times,serif" font-size="14.00">.103</text>
</g>
<!-- peer3&#45;&#45;s1 -->
<!-- peer4 -->
<g id="node9" class="node">
<title>peer4</title>
<polygon fill="#eee3d3" stroke="black" points="2324.42,-1306.92 2167.42,-1306.92 2167.42,-1247.17 2324.42,-1247.17 2324.42,-1306.92"/>
<text text-anchor="middle" x="2245.92" y="-1289.62" font-family="Times,serif" font-size="14.00">eBGP peer4</text>
<text text-anchor="middle" x="2245.92" y="-1272.37" font-family="Times,serif" font-size="14.00">AS99</text>
<text text-anchor="middle" x="2245.92" y="-1255.12" font-family="Times,serif" font-size="14.00">rtr&#45;id 10.0.1.104/32</text>
</g>
<!-- peer4&#45;&#45;s1 -->
<g id="edge8" class="edge">
<title>peer4&#45;&#45;s1</title>
<path fill="none" stroke="black" d="M2234.22,-1246.88C2212.58,-1202.79 2166.82,-1121.42 2139.43,-1078.18"/>
<text text-anchor="middle" x="2170.7" y="-1183.73" font-family="Times,serif" font-size="14.00">eth0</text>
<text text-anchor="middle" x="2170.7" y="-1166.48" font-family="Times,serif" font-size="14.00">.104</text>
</g>
<!-- peer4&#45;&#45;s1 -->
<!-- peer5 -->
<g id="node10" class="node">
<title>peer5</title>
<polygon fill="#eee3d3" stroke="black" points="2258.26,-1525.77 2101.26,-1525.77 2101.26,-1466.02 2258.26,-1466.02 2258.26,-1525.77"/>
<text text-anchor="middle" x="2179.76" y="-1508.47" font-family="Times,serif" font-size="14.00">eBGP peer5</text>
<text text-anchor="middle" x="2179.76" y="-1491.22" font-family="Times,serif" font-size="14.00">AS99</text>
<text text-anchor="middle" x="2179.76" y="-1473.97" font-family="Times,serif" font-size="14.00">rtr&#45;id 10.0.1.105/32</text>
</g>
<!-- peer5&#45;&#45;s1 -->
<g id="edge9" class="edge">
<title>peer5&#45;&#45;s1</title>
<path fill="none" stroke="black" d="M2179.19,-1465.77C2172.14,-1384.48 2141.16,-1161.3 2125.64,-1079.8"/>
<text text-anchor="middle" x="2136.29" y="-1293.99" font-family="Times,serif" font-size="14.00">eth0</text>
<text text-anchor="middle" x="2136.29" y="-1276.74" font-family="Times,serif" font-size="14.00">.105</text>
</g>
<!-- peer5&#45;&#45;s1 -->
<!-- peer6&#45;&#45;s2 -->
<g id="edge10" class="edge">
<title>peer6&#45;&#45;s2</title>
<path fill="none" stroke="black" d="M2014.8,-704.1C1804.71,-591.27 1032.88,-198.07 831.4,-101.33"/>
<text text-anchor="middle" x="1406.97" y="-423.91" font-family="Times,serif" font-size="14.00">eth0</text>
<text text-anchor="middle" x="1406.97" y="-406.66" font-family="Times,serif" font-size="14.00">.106</text>
</g>
<!-- peer6&#45;&#45;s2 -->
<!-- peer7&#45;&#45;s2 -->
<g id="edge11" class="edge">
<title>peer7&#45;&#45;s2</title>
<path fill="none" stroke="black" d="M1844.44,-420.8C1628.88,-346.26 1031.68,-152.39 841.8,-95.53"/>
<text text-anchor="middle" x="1327" y="-279.37" font-family="Times,serif" font-size="14.00">eth0</text>
<text text-anchor="middle" x="1327" y="-262.12" font-family="Times,serif" font-size="14.00">.107</text>
</g>
<!-- peer7&#45;&#45;s2 -->
<!-- peer8&#45;&#45;s2 -->
<g id="edge12" class="edge">
<title>peer8&#45;&#45;s2</title>
<path fill="none" stroke="black" d="M1618.53,-208.04C1441.51,-176.22 1015.37,-108.82 850.12,-86.64"/>
<text text-anchor="middle" x="1218.2" y="-168.54" font-family="Times,serif" font-size="14.00">eth0</text>
<text text-anchor="middle" x="1218.2" y="-151.29" font-family="Times,serif" font-size="14.00">.108</text>
</g>
<!-- peer8&#45;&#45;s2 -->
<!-- peer9&#45;&#45;s2 -->
<g id="edge13" class="edge">
<title>peer9&#45;&#45;s2</title>
<path fill="none" stroke="black" d="M1334.35,-75.13C1209.68,-72.25 969.15,-72.33 851.38,-75.39"/>
<text text-anchor="middle" x="1076.74" y="-96.46" font-family="Times,serif" font-size="14.00">eth0</text>
<text text-anchor="middle" x="1076.74" y="-79.21" font-family="Times,serif" font-size="14.00">.109</text>
</g>
<!-- peer9&#45;&#45;s2 -->
<!-- peer10&#45;&#45;s2 -->
<g id="edge14" class="edge">
<title>peer10&#45;&#45;s2</title>
<path fill="none" stroke="black" d="M1019.32,-36.37C964.72,-43.75 893.16,-55.24 843.15,-64.73"/>
<text text-anchor="middle" x="915.11" y="-71.75" font-family="Times,serif" font-size="14.00">eth0</text>
<text text-anchor="middle" x="915.11" y="-54.5" font-family="Times,serif" font-size="14.00">.110</text>
</g>
<!-- peer10&#45;&#45;s2 -->
<!-- peer11&#45;&#45;s3 -->
<g id="edge15" class="edge">
<title>peer11&#45;&#45;s3</title>
<path fill="none" stroke="black" d="M275.85,-480.26C299.07,-666.27 456.14,-1658.03 491.86,-1844.25"/>
<text text-anchor="middle" x="367.73" y="-1183.45" font-family="Times,serif" font-size="14.00">eth0</text>
<text text-anchor="middle" x="367.73" y="-1166.2" font-family="Times,serif" font-size="14.00">.111</text>
</g>
<!-- peer11&#45;&#45;s3 -->
<!-- peer12&#45;&#45;s3 -->
<g id="edge16" class="edge">
<title>peer12&#45;&#45;s3</title>
<path fill="none" stroke="black" d="M135.79,-764.76C182.12,-926.3 428.27,-1683.89 486.57,-1844.45"/>
<text text-anchor="middle" x="295.06" y="-1325.81" font-family="Times,serif" font-size="14.00">eth0</text>
<text text-anchor="middle" x="295.06" y="-1308.56" font-family="Times,serif" font-size="14.00">.112</text>
</g>
<!-- peer12&#45;&#45;s3 -->
<!-- peer13&#45;&#45;s3 -->
<g id="edge17" class="edge">
<title>peer13&#45;&#45;s3</title>
<path fill="none" stroke="black" d="M90.81,-1079.6C150.74,-1209.08 409.88,-1717.73 480.88,-1845.28"/>
<text text-anchor="middle" x="269.72" y="-1483.64" font-family="Times,serif" font-size="14.00">eth0</text>
<text text-anchor="middle" x="269.72" y="-1466.39" font-family="Times,serif" font-size="14.00">.113</text>
</g>
<!-- peer13&#45;&#45;s3 -->
<!-- peer14&#45;&#45;s3 -->
<g id="edge18" class="edge">
<title>peer14&#45;&#45;s3</title>
<path fill="none" stroke="black" d="M146.18,-1394.66C206.71,-1485.74 404.09,-1757.48 474.05,-1846.13"/>
<text text-anchor="middle" x="326.24" y="-1607.09" font-family="Times,serif" font-size="14.00">eth0</text>
<text text-anchor="middle" x="326.24" y="-1589.84" font-family="Times,serif" font-size="14.00">.114</text>
</g>
<!-- peer14&#45;&#45;s3 -->
<!-- peer15&#45;&#45;s3 -->
<g id="edge19" class="edge">
<title>peer15&#45;&#45;s3</title>
<path fill="none" stroke="black" d="M296.77,-1678.81C337.12,-1723.19 419.3,-1805.47 465.49,-1847.81"/>
<text text-anchor="middle" x="365.01" y="-1784.51" font-family="Times,serif" font-size="14.00">eth0</text>
<text text-anchor="middle" x="365.01" y="-1767.26" font-family="Times,serif" font-size="14.00">.115</text>
</g>
<!-- peer15&#45;&#45;s3 -->
<!-- peer16&#45;&#45;s4 -->
<g id="edge20" class="edge">
<title>peer16&#45;&#45;s4</title>
<path fill="none" stroke="black" d="M861.62,-1997.49C1079.83,-1931.18 1689.1,-1733.02 1871.07,-1668.92"/>
<text text-anchor="middle" x="1350.22" y="-1854.41" font-family="Times,serif" font-size="14.00">eth0</text>
<text text-anchor="middle" x="1350.22" y="-1837.16" font-family="Times,serif" font-size="14.00">.116</text>
</g>
<!-- peer16&#45;&#45;s4 -->
<!-- peer17&#45;&#45;s4 -->
<g id="edge21" class="edge">
<title>peer17&#45;&#45;s4</title>
<path fill="none" stroke="black" d="M2047.39,-1394.88C2016,-1449.63 1957.65,-1564.33 1933.55,-1618.85"/>
<text text-anchor="middle" x="1974.34" y="-1528.06" font-family="Times,serif" font-size="14.00">eth0</text>
<text text-anchor="middle" x="1974.34" y="-1510.81" font-family="Times,serif" font-size="14.00">.117</text>
</g>
<!-- peer17&#45;&#45;s4 -->
<!-- peer18&#45;&#45;s4 -->
<g id="edge22" class="edge">
<title>peer18&#45;&#45;s4</title>
<path fill="none" stroke="black" d="M1166,-2038.9C1331.08,-1959.32 1749.69,-1745.78 1882.18,-1673.22"/>
<text text-anchor="middle" x="1507.96" y="-1877.26" font-family="Times,serif" font-size="14.00">eth0</text>
<text text-anchor="middle" x="1507.96" y="-1860.01" font-family="Times,serif" font-size="14.00">.118</text>
</g>
<!-- peer18&#45;&#45;s4 -->
<!-- peer19&#45;&#45;s4 -->
<g id="edge23" class="edge">
<title>peer19&#45;&#45;s4</title>
<path fill="none" stroke="black" d="M1461.75,-1989C1565.41,-1918.29 1805.84,-1743.39 1891.8,-1675.9"/>
<text text-anchor="middle" x="1660.65" y="-1819.15" font-family="Times,serif" font-size="14.00">eth0</text>
<text text-anchor="middle" x="1660.65" y="-1801.9" font-family="Times,serif" font-size="14.00">.119</text>
</g>
<!-- peer19&#45;&#45;s4 -->
<!-- peer20&#45;&#45;s4 -->
<g id="edge24" class="edge">
<title>peer20&#45;&#45;s4</title>
<path fill="none" stroke="black" d="M1734.74,-1844.15C1782,-1800.45 1861.79,-1720.42 1900.6,-1677.57"/>
<text text-anchor="middle" x="1801.55" y="-1782.06" font-family="Times,serif" font-size="14.00">eth0</text>
<text text-anchor="middle" x="1801.55" y="-1764.81" font-family="Times,serif" font-size="14.00">.120</text>
</g>
<!-- peer20&#45;&#45;s4 -->
</g>
</svg>
