<?xml version="1.0" encoding="UTF-8" standalone="no"?>
<!DOCTYPE svg PUBLIC "-//W3C//DTD SVG 1.1//EN"
 "http://www.w3.org/Graphics/SVG/1.1/DTD/svg11.dtd">
<!-- Generated by graphviz version 12.2.1 (0)
 -->
<!-- Title: bgp_vrf_netns_eBGP_topo1 Pages: 1 -->
<svg width="695pt" height="111pt"
 viewBox="0.00 0.00 694.50 110.64" xmlns="http://www.w3.org/2000/svg" xmlns:xlink="http://www.w3.org/1999/xlink">
<g id="page0,1_graph0" class="graph" transform="scale(1 1) rotate(0) translate(4 106.64)">
<title>bgp_vrf_netns_eBGP_topo1</title>
<polygon fill="white" stroke="none" points="-4,4 -4,-106.64 690.5,-106.64 690.5,4 -4,4"/>
<text text-anchor="middle" x="343.25" y="-85.34" font-family="Times,serif" font-size="14.00">bgp vrf netns topo1 &#45; eBGP with different AS numbers</text>
<!-- r1 -->
<g id="node1" class="node">
<title>r1</title>
<polygon fill="#f08080" stroke="black" points="244.33,-23.05 244.33,-50 173.94,-69.06 74.39,-69.06 4,-50 4,-23.05 74.39,-4 173.94,-4 244.33,-23.05"/>
<polygon fill="none" stroke="black" points="248.33,-19.99 248.33,-53.06 174.47,-73.06 73.86,-73.06 0,-53.06 0,-19.99 73.86,0 174.47,0 248.33,-19.99"/>
<text text-anchor="middle" x="124.16" y="-40.48" font-family="Times,serif" font-size="14.00">r1</text>
<text text-anchor="middle" x="124.16" y="-23.23" font-family="Times,serif" font-size="14.00">rtr&#45;id 10.0.255.1/32</text>
</g>
<!-- s1 -->
<g id="node2" class="node">
<title>s1</title>
<ellipse fill="#d0e0d0" stroke="black" cx="388.91" cy="-36.53" rx="68.59" ry="30.05"/>
<text text-anchor="middle" x="388.91" y="-40.48" font-family="Times,serif" font-size="14.00">s1</text>
<text text-anchor="middle" x="388.91" y="-23.23" font-family="Times,serif" font-size="14.00">10.0.1.0/24</text>
</g>
<!-- r1&#45;&#45;s1 -->
<g id="edge1" class="edge">
<title>r1&#45;&#45;s1</title>
<path fill="none" stroke="black" d="M248.79,-43.27C273.73,-43.33 299.05,-43.08 321.17,-42.51"/>
<text text-anchor="middle" x="268.85" y="-64.09" font-family="Times,serif" font-size="14.00">eth0</text>
<text text-anchor="middle" x="268.85" y="-46.84" font-family="Times,serif" font-size="14.00">.1</text>
</g>
<!-- s1&#45;&#45;r1 -->
<!-- peer1 -->
<g id="node3" class="node">
<title>peer1</title>
<polygon fill="#eee3d3" stroke="black" points="686.5,-66.4 529.5,-66.4 529.5,-6.65 686.5,-6.65 686.5,-66.4"/>
<text text-anchor="middle" x="608" y="-49.1" font-family="Times,serif" font-size="14.00">eBGP peer1</text>
<text text-anchor="middle" x="608" y="-31.85" font-family="Times,serif" font-size="14.00">AS101</text>
<text text-anchor="middle" x="608" y="-14.6" font-family="Times,serif" font-size="14.00">rtr&#45;id 10.0.1.101/32</text>
</g>
<!-- peer1&#45;&#45;s1 -->
<g id="edge2" class="edge">
<title>peer1&#45;&#45;s1</title>
<path fill="none" stroke="black" d="M529.22,-30.02C505.42,-29.64 479.51,-29.71 456.51,-30.24"/>
<text text-anchor="middle" x="476.74" y="-51.33" font-family="Times,serif" font-size="14.00">eth0</text>
<text text-anchor="middle" x="476.74" y="-34.08" font-family="Times,serif" font-size="14.00">.101</text>
</g>
<!-- peer1&#45;&#45;s1 -->
</g>
</svg>
