<?xml version="1.0" encoding="UTF-8" standalone="no"?>
<!DOCTYPE svg PUBLIC "-//W3C//DTD SVG 1.1//EN"
 "http://www.w3.org/Graphics/SVG/1.1/DTD/svg11.dtd">
<!-- Generated by graphviz version 12.2.1 (0)
 -->
<!-- Title: roles_filtering_stand Pages: 1 -->
<svg width="396pt" height="410pt"
 viewBox="0.00 0.00 396.09 410.09" xmlns="http://www.w3.org/2000/svg" xmlns:xlink="http://www.w3.org/1999/xlink">
<g id="page0,1_graph0" class="graph" transform="scale(1 1) rotate(0) translate(4 406.09)">
<title>roles_filtering_stand</title>
<polygon fill="white" stroke="none" points="-4,4 -4,-406.09 392.09,-406.09 392.09,4 -4,4"/>
<text text-anchor="middle" x="194.04" y="-9" font-family="Times,serif" font-size="20.00">roles capability stand</text>
<!-- r1 -->
<g id="node1" class="node">
<title>r1</title>
<ellipse fill="none" stroke="black" cx="194.04" cy="-217.04" rx="68.04" ry="18"/>
<text text-anchor="middle" x="194.04" y="-212.37" font-family="Times,serif" font-size="14.00">r1 provider</text>
</g>
<!-- r2 -->
<g id="node2" class="node">
<title>r2</title>
<ellipse fill="none" stroke="black" cx="361.09" cy="-217.04" rx="27" ry="18"/>
<text text-anchor="middle" x="361.09" y="-212.37" font-family="Times,serif" font-size="14.00">r2</text>
</g>
<!-- r1&#45;&#45;r2 -->
<g id="edge1" class="edge">
<title>r1&#45;&#45;r2</title>
<path fill="none" stroke="black" d="M262.47,-217.04C287.52,-217.04 314.44,-217.04 333.81,-217.04"/>
<text text-anchor="middle" x="300.44" y="-203.74" font-family="Times,serif" font-size="14.00">customer</text>
<text text-anchor="middle" x="292.84" y="-220.99" font-family="Times,serif" font-size="14.00">provider</text>
</g>
<!-- r3 -->
<g id="node3" class="node">
<title>r3</title>
<ellipse fill="none" stroke="black" cx="194.04" cy="-384.09" rx="27" ry="18"/>
<text text-anchor="middle" x="194.04" y="-379.41" font-family="Times,serif" font-size="14.00">r3</text>
</g>
<!-- r1&#45;&#45;r3 -->
<g id="edge2" class="edge">
<title>r1&#45;&#45;r3</title>
<path fill="none" stroke="black" d="M194.04,-235.24C194.04,-267.29 194.04,-333.45 194.04,-365.66"/>
<text text-anchor="middle" x="177.92" y="-352.36" font-family="Times,serif" font-size="14.00">peer</text>
<text text-anchor="middle" x="163.67" y="-239.19" font-family="Times,serif" font-size="14.00">provider</text>
</g>
<!-- r4 -->
<g id="node4" class="node">
<title>r4</title>
<ellipse fill="none" stroke="black" cx="27" cy="-217.04" rx="27" ry="18"/>
<text text-anchor="middle" x="27" y="-212.37" font-family="Times,serif" font-size="14.00">r4</text>
</g>
<!-- r1&#45;&#45;r4 -->
<g id="edge3" class="edge">
<title>r1&#45;&#45;r4</title>
<path fill="none" stroke="black" d="M125.62,-217.04C100.57,-217.04 73.65,-217.04 54.27,-217.04"/>
<text text-anchor="middle" x="58.02" y="-220.99" font-family="Times,serif" font-size="14.00">?</text>
<text text-anchor="middle" x="95.24" y="-220.99" font-family="Times,serif" font-size="14.00">provider</text>
</g>
<!-- r5 -->
<g id="node5" class="node">
<title>r5</title>
<ellipse fill="none" stroke="black" cx="194.04" cy="-50" rx="27" ry="18"/>
<text text-anchor="middle" x="194.04" y="-45.33" font-family="Times,serif" font-size="14.00">r5</text>
</g>
<!-- r1&#45;&#45;r5 -->
<g id="edge4" class="edge">
<title>r1&#45;&#45;r5</title>
<path fill="none" stroke="black" d="M194.04,-198.85C194.04,-166.8 194.04,-100.64 194.04,-68.43"/>
<text text-anchor="middle" x="153.17" y="-137.59" font-family="Times,serif" font-size="14.00">strict&#45;mode</text>
<text text-anchor="middle" x="190.29" y="-72.38" font-family="Times,serif" font-size="14.00">?</text>
<text text-anchor="middle" x="163.67" y="-185.55" font-family="Times,serif" font-size="14.00">provider</text>
</g>
</g>
</svg>
