<?xml version="1.0" encoding="UTF-8" standalone="no"?>
<!DOCTYPE svg PUBLIC "-//W3C//DTD SVG 1.1//EN"
 "http://www.w3.org/Graphics/SVG/1.1/DTD/svg11.dtd">
<!-- Generated by graphviz version 12.2.1 (0)
 -->
<!-- Title: roles_filtering_stand Pages: 1 -->
<svg width="914pt" height="590pt"
 viewBox="0.00 0.00 913.84 590.03" xmlns="http://www.w3.org/2000/svg" xmlns:xlink="http://www.w3.org/1999/xlink">
<g id="page0,1_graph0" class="graph" transform="scale(1 1) rotate(0) translate(4 586.03)">
<title>roles_filtering_stand</title>
<polygon fill="white" stroke="none" points="-4,4 -4,-586.03 909.84,-586.03 909.84,4 -4,4"/>
<text text-anchor="middle" x="452.92" y="-9" font-family="Times,serif" font-size="20.00">roles filtering stand</text>
<!-- r1 -->
<g id="node1" class="node">
<title>r1</title>
<ellipse fill="none" stroke="black" cx="88.56" cy="-307.02" rx="88.56" ry="18"/>
<text text-anchor="middle" x="88.56" y="-302.34" font-family="Times,serif" font-size="14.00">r1 192.0.2.1/32</text>
</g>
<!-- r2 -->
<g id="node2" class="node">
<title>r2</title>
<ellipse fill="none" stroke="black" cx="372.12" cy="-178.51" rx="88.56" ry="18"/>
<text text-anchor="middle" x="372.12" y="-173.83" font-family="Times,serif" font-size="14.00">r2 192.0.2.2/32</text>
</g>
<!-- r3 -->
<g id="node3" class="node">
<title>r3</title>
<ellipse fill="none" stroke="black" cx="594.7" cy="-50" rx="88.56" ry="18"/>
<text text-anchor="middle" x="594.7" y="-45.32" font-family="Times,serif" font-size="14.00">r3 192.0.2.3/32</text>
</g>
<!-- r4 -->
<g id="node4" class="node">
<title>r4</title>
<ellipse fill="none" stroke="black" cx="817.28" cy="-178.51" rx="88.56" ry="18"/>
<text text-anchor="middle" x="817.28" y="-173.83" font-family="Times,serif" font-size="14.00">r4 192.0.2.4/32</text>
</g>
<!-- r5 -->
<g id="node5" class="node">
<title>r5</title>
<ellipse fill="none" stroke="black" cx="817.28" cy="-435.52" rx="88.56" ry="18"/>
<text text-anchor="middle" x="817.28" y="-430.85" font-family="Times,serif" font-size="14.00">r5 192.0.2.5/32</text>
</g>
<!-- r6 -->
<g id="node6" class="node">
<title>r6</title>
<ellipse fill="none" stroke="black" cx="594.7" cy="-564.03" rx="88.56" ry="18"/>
<text text-anchor="middle" x="594.7" y="-559.36" font-family="Times,serif" font-size="14.00">r6 192.0.2.6/32</text>
</g>
<!-- r7 -->
<g id="node7" class="node">
<title>r7</title>
<ellipse fill="none" stroke="black" cx="372.12" cy="-435.52" rx="88.56" ry="18"/>
<text text-anchor="middle" x="372.12" y="-430.85" font-family="Times,serif" font-size="14.00">r7 192.0.2.7/32</text>
</g>
<!-- r10 -->
<g id="node8" class="node">
<title>r10</title>
<ellipse fill="none" stroke="black" cx="594.7" cy="-307.02" rx="96.45" ry="18"/>
<text text-anchor="middle" x="594.7" y="-302.34" font-family="Times,serif" font-size="14.00">r10 intermediate</text>
</g>
<!-- r10&#45;&#45;r1 -->
<g id="edge1" class="edge">
<title>r10&#45;&#45;r1</title>
<path fill="none" stroke="black" d="M498.01,-307.02C405.47,-307.02 267.06,-307.02 177.28,-307.02"/>
<text text-anchor="middle" x="207.66" y="-310.97" font-family="Times,serif" font-size="14.00">provider</text>
<text text-anchor="middle" x="494.26" y="-310.97" font-family="Times,serif" font-size="14.00">?</text>
</g>
<!-- r10&#45;&#45;r2 -->
<g id="edge2" class="edge">
<title>r10&#45;&#45;r2</title>
<path fill="none" stroke="black" d="M564.68,-289.68C522.08,-265.09 444.55,-220.33 402.02,-195.77"/>
<text text-anchor="middle" x="418.14" y="-199.72" font-family="Times,serif" font-size="14.00">peer</text>
<text text-anchor="middle" x="560.93" y="-276.38" font-family="Times,serif" font-size="14.00">?</text>
</g>
<!-- r10&#45;&#45;r3 -->
<g id="edge3" class="edge">
<title>r10&#45;&#45;r3</title>
<path fill="none" stroke="black" d="M594.7,-288.53C594.7,-241.11 594.7,-115.55 594.7,-68.32"/>
<text text-anchor="middle" x="561.33" y="-72.27" font-family="Times,serif" font-size="14.00">customer</text>
<text text-anchor="middle" x="590.95" y="-275.23" font-family="Times,serif" font-size="14.00">?</text>
</g>
<!-- r10&#45;&#45;r4 -->
<g id="edge4" class="edge">
<title>r10&#45;&#45;r4</title>
<path fill="none" stroke="black" d="M624.72,-289.68C667.32,-265.09 744.85,-220.33 787.39,-195.77"/>
<text text-anchor="middle" x="791.14" y="-199.72" font-family="Times,serif" font-size="14.00">?</text>
<text text-anchor="middle" x="620.97" y="-276.38" font-family="Times,serif" font-size="14.00">?</text>
</g>
<!-- r10&#45;&#45;r5 -->
<g id="edge5" class="edge">
<title>r10&#45;&#45;r5</title>
<path fill="none" stroke="black" d="M624.72,-324.35C667.32,-348.94 744.85,-393.7 787.39,-418.26"/>
<text text-anchor="middle" x="791.14" y="-404.96" font-family="Times,serif" font-size="14.00">?</text>
<text text-anchor="middle" x="594.34" y="-328.3" font-family="Times,serif" font-size="14.00">provider</text>
</g>
<!-- r10&#45;&#45;r6 -->
<g id="edge6" class="edge">
<title>r10&#45;&#45;r6</title>
<path fill="none" stroke="black" d="M594.7,-325.5C594.7,-372.92 594.7,-498.48 594.7,-545.71"/>
<text text-anchor="middle" x="590.95" y="-532.41" font-family="Times,serif" font-size="14.00">?</text>
<text text-anchor="middle" x="610.83" y="-329.45" font-family="Times,serif" font-size="14.00">peer</text>
</g>
<!-- r10&#45;&#45;r7 -->
<g id="edge7" class="edge">
<title>r10&#45;&#45;r7</title>
<path fill="none" stroke="black" d="M564.68,-324.35C522.08,-348.94 444.55,-393.7 402.02,-418.26"/>
<text text-anchor="middle" x="405.77" y="-404.96" font-family="Times,serif" font-size="14.00">?</text>
<text text-anchor="middle" x="531.31" y="-328.3" font-family="Times,serif" font-size="14.00">customer</text>
</g>
</g>
</svg>
