<?xml version="1.0" encoding="UTF-8" standalone="no"?>
<!DOCTYPE svg PUBLIC "-//W3C//DTD SVG 1.1//EN"
 "http://www.w3.org/Graphics/SVG/1.1/DTD/svg11.dtd">
<!-- Generated by graphviz version 12.2.1 (0)
 -->
<!-- Title: template Pages: 1 -->
<svg width="548pt" height="133pt"
 viewBox="0.00 0.00 548.48 132.71" xmlns="http://www.w3.org/2000/svg" xmlns:xlink="http://www.w3.org/1999/xlink">
<g id="page0,1_graph0" class="graph" transform="scale(1 1) rotate(0) translate(4 128.71)">
<title>template</title>
<polygon fill="white" stroke="none" points="-4,4 -4,-128.71 544.48,-128.71 544.48,4 -4,4"/>
<text text-anchor="middle" x="270.24" y="-7.95" font-family="Times,serif" font-size="14.00">template</text>
<!-- r1 -->
<g id="node1" class="node">
<title>r1</title>
<polygon fill="#f08080" stroke="black" points="106.56,-56.04 106.56,-93.92 76.52,-120.71 34.04,-120.71 4,-93.92 4,-56.04 34.04,-29.25 76.52,-29.25 106.56,-56.04"/>
<polygon fill="none" stroke="black" points="110.56,-54.25 110.56,-95.72 78.04,-124.71 32.51,-124.71 0,-95.72 0,-54.25 32.51,-25.25 78.04,-25.25 110.56,-54.25"/>
<text text-anchor="middle" x="55.28" y="-87.56" font-family="Times,serif" font-size="14.00">A</text>
<text text-anchor="middle" x="55.28" y="-70.31" font-family="Times,serif" font-size="14.00">AS 100</text>
<text text-anchor="middle" x="55.28" y="-53.06" font-family="Times,serif" font-size="14.00">1.1.1.1</text>
</g>
<!-- s1 -->
<g id="node3" class="node">
<title>s1</title>
<ellipse fill="#d0e0d0" stroke="black" cx="270.24" cy="-74.98" rx="87.68" ry="30.05"/>
<text text-anchor="middle" x="270.24" y="-78.93" font-family="Times,serif" font-size="14.00">s1</text>
<text text-anchor="middle" x="270.24" y="-61.68" font-family="Times,serif" font-size="14.00">192.168.0.0/24</text>
</g>
<!-- r1&#45;&#45;s1 -->
<g id="edge1" class="edge">
<title>r1&#45;&#45;s1</title>
<path fill="none" stroke="black" d="M110.92,-74.98C132.69,-74.98 158.19,-74.98 182.33,-74.98"/>
<text text-anchor="middle" x="158.25" y="-61.68" font-family="Times,serif" font-size="14.00">A&#45;eth0</text>
</g>
<!-- r2 -->
<g id="node2" class="node">
<title>r2</title>
<polygon fill="#f08080" stroke="black" points="536.48,-56.04 536.48,-93.92 506.44,-120.71 463.96,-120.71 433.92,-93.92 433.92,-56.04 463.96,-29.25 506.44,-29.25 536.48,-56.04"/>
<polygon fill="none" stroke="black" points="540.48,-54.25 540.48,-95.72 507.97,-124.71 462.44,-124.71 429.92,-95.72 429.92,-54.25 462.44,-25.25 507.97,-25.25 540.48,-54.25"/>
<text text-anchor="middle" x="485.2" y="-87.56" font-family="Times,serif" font-size="14.00">B</text>
<text text-anchor="middle" x="485.2" y="-70.31" font-family="Times,serif" font-size="14.00">AS 200</text>
<text text-anchor="middle" x="485.2" y="-53.06" font-family="Times,serif" font-size="14.00">1.1.1.2</text>
</g>
<!-- r2&#45;&#45;s1 -->
<g id="edge2" class="edge">
<title>r2&#45;&#45;s1</title>
<path fill="none" stroke="black" d="M429.56,-74.98C407.79,-74.98 382.29,-74.98 358.15,-74.98"/>
<text text-anchor="middle" x="405.67" y="-61.68" font-family="Times,serif" font-size="14.00">B&#45;eth0</text>
</g>
</g>
</svg>
