<svg xmlns="http://www.w3.org/2000/svg" xmlns:xlink="http://www.w3.org/1999/xlink" contentStyleType="text/css" data-diagram-type="CLASS" height="177px" preserveAspectRatio="none" style="width:1346px;height:177px;" version="1.1" viewBox="0 0 1346 177" width="1346px" zoomAndPan="magnify"><defs/><g><!--class edu.wpi.first.epilogue--><a href="edu/wpi/first/epilogue/package-summary.html" target="_top" title="edu/wpi/first/epilogue/package-summary.html" xlink:actuate="onRequest" xlink:href="edu/wpi/first/epilogue/package-summary.html" xlink:show="new" xlink:title="edu/wpi/first/epilogue/package-summary.html" xlink:type="simple"><g class="entity" data-entity="edu.wpi.first.epilogue" data-source-line="7" data-uid="ent0002" id="entity_edu.wpi.first.epilogue"><rect fill="#F1F1F1" height="29.0679" rx="2.5" ry="2.5" style="stroke:#181818;stroke-width:0.5;" width="148.9674" x="956.5" y="12"/><text fill="#000000" font-family="sans-serif" font-size="14" lengthAdjust="spacing" textLength="142.9674" x="959.5" y="31.9659">edu.wpi.first.epilogue</text></g></a><!--class edu.wpi.first.epilogue.logging--><a href="edu/wpi/first/epilogue/logging/package-summary.html" target="_top" title="edu/wpi/first/epilogue/logging/package-summary.html" xlink:actuate="onRequest" xlink:href="edu/wpi/first/epilogue/logging/package-summary.html" xlink:show="new" xlink:title="edu/wpi/first/epilogue/logging/package-summary.html" xlink:type="simple"><g class="entity" data-entity="edu.wpi.first.epilogue.logging" data-source-line="7" data-uid="ent0003" id="entity_edu.wpi.first.epilogue.logging"><rect fill="#F1F1F1" height="29.0679" rx="2.5" ry="2.5" style="stroke:#181818;stroke-width:0.5;" width="202.8952" x="695.5" y="77"/><text fill="#000000" font-family="sans-serif" font-size="14" lengthAdjust="spacing" textLength="196.8952" x="698.5" y="96.9659">edu.wpi.first.epilogue.logging</text></g></a><!--class edu.wpi.first.units.measure--><g class="entity" data-entity="edu.wpi.first.units.measure" data-source-line="8" data-uid="ent0005" id="entity_edu.wpi.first.units.measure"><rect fill="#F1F1F1" height="29.0679" rx="2.5" ry="2.5" style="stroke:#181818;stroke-width:0.5;" width="185.9133" x="938" y="77"/><text fill="#000000" font-family="sans-serif" font-size="14" lengthAdjust="spacing" textLength="179.9133" x="941" y="96.9659">edu.wpi.first.units.measure</text></g><!--class edu.wpi.first.epilogue.logging.errors--><a href="edu/wpi/first/epilogue/logging/errors/package-summary.html" target="_top" title="edu/wpi/first/epilogue/logging/errors/package-summary.html" xlink:actuate="onRequest" xlink:href="edu/wpi/first/epilogue/logging/errors/package-summary.html" xlink:show="new" xlink:title="edu/wpi/first/epilogue/logging/errors/package-summary.html" xlink:type="simple"><g class="entity" data-entity="edu.wpi.first.epilogue.logging.errors" data-source-line="9" data-uid="ent0007" id="entity_edu.wpi.first.epilogue.logging.errors"><rect fill="#F1F1F1" height="29.0679" rx="2.5" ry="2.5" style="stroke:#181818;stroke-width:0.5;" width="247.0651" x="1092.5" y="142"/><text fill="#000000" font-family="sans-serif" font-size="14" lengthAdjust="spacing" textLength="241.0651" x="1095.5" y="161.9659">edu.wpi.first.epilogue.logging.errors</text></g></a><!--class edu.wpi.first.util.sendable--><g class="entity" data-entity="edu.wpi.first.util.sendable" data-source-line="11" data-uid="ent0010" id="entity_edu.wpi.first.util.sendable"><rect fill="#F1F1F1" height="29.0679" rx="2.5" ry="2.5" style="stroke:#181818;stroke-width:0.5;" width="176.1273" x="6" y="142"/><text fill="#000000" font-family="sans-serif" font-size="14" lengthAdjust="spacing" textLength="170.1273" x="9" y="161.9659">edu.wpi.first.util.sendable</text></g><!--class edu.wpi.first.util.struct--><g class="entity" data-entity="edu.wpi.first.util.struct" data-source-line="12" data-uid="ent0012" id="entity_edu.wpi.first.util.struct"><rect fill="#F1F1F1" height="29.0679" rx="2.5" ry="2.5" style="stroke:#181818;stroke-width:0.5;" width="154.2594" x="200" y="142"/><text fill="#000000" font-family="sans-serif" font-size="14" lengthAdjust="spacing" textLength="148.2594" x="203" y="161.9659">edu.wpi.first.util.struct</text></g><!--class edu.wpi.first.units--><g class="entity" data-entity="edu.wpi.first.units" data-source-line="13" data-uid="ent0014" id="entity_edu.wpi.first.units"><rect fill="#F1F1F1" height="29.0679" rx="2.5" ry="2.5" style="stroke:#181818;stroke-width:0.5;" width="124.2855" x="372" y="142"/><text fill="#000000" font-family="sans-serif" font-size="14" lengthAdjust="spacing" textLength="118.2855" x="375" y="161.9659">edu.wpi.first.units</text></g><!--class edu.wpi.first.util.function--><g class="entity" data-entity="edu.wpi.first.util.function" data-source-line="14" data-uid="ent0016" id="entity_edu.wpi.first.util.function"><rect fill="#F1F1F1" height="29.0679" rx="2.5" ry="2.5" style="stroke:#181818;stroke-width:0.5;" width="170.9193" x="514.5" y="142"/><text fill="#000000" font-family="sans-serif" font-size="14" lengthAdjust="spacing" textLength="164.9193" x="517.5" y="161.9659">edu.wpi.first.util.function</text></g><!--class edu.wpi.first.networktables--><g class="entity" data-entity="edu.wpi.first.networktables" data-source-line="15" data-uid="ent0018" id="entity_edu.wpi.first.networktables"><rect fill="#F1F1F1" height="29.0679" rx="2.5" ry="2.5" style="stroke:#181818;stroke-width:0.5;" width="185.6753" x="704" y="142"/><text fill="#000000" font-family="sans-serif" font-size="14" lengthAdjust="spacing" textLength="179.6753" x="707" y="161.9659">edu.wpi.first.networktables</text></g><!--class edu.wpi.first.util.datalog--><g class="entity" data-entity="edu.wpi.first.util.datalog" data-source-line="16" data-uid="ent0020" id="entity_edu.wpi.first.util.datalog"><rect fill="#F1F1F1" height="29.0679" rx="2.5" ry="2.5" style="stroke:#181818;stroke-width:0.5;" width="166.3554" x="908" y="142"/><text fill="#000000" font-family="sans-serif" font-size="14" lengthAdjust="spacing" textLength="160.3554" x="911" y="161.9659">edu.wpi.first.util.datalog</text></g><g class="link" data-entity-1="edu.wpi.first.epilogue" data-entity-2="edu.wpi.first.epilogue.logging" data-uid="lnk4" id="link_edu.wpi.first.epilogue_edu.wpi.first.epilogue.logging"><polygon fill="#181818" points="847.519,76.8987,857.2495,78.4214,852.3471,75.5989,855.1697,70.6965,847.519,76.8987" style="stroke:#181818;stroke-width:1;"/><path d="M980.8011,41.0151 C941.4539,51.6086 892.7419,64.7233 853.3127,75.3389" fill="none" style="stroke:#181818;stroke-width:1;"/></g><g class="link" data-entity-1="edu.wpi.first.epilogue" data-entity-2="edu.wpi.first.units.measure" data-uid="lnk6" id="link_edu.wpi.first.epilogue_edu.wpi.first.units.measure"><polygon fill="#181818" points="1031,76.8566,1035,67.8566,1031,71.8566,1027,67.8566,1031,76.8566" style="stroke:#181818;stroke-width:1;"/><path d="M1031,41.1701 C1031,51.7373 1031,60.2961 1031,70.8566" fill="none" style="stroke:#181818;stroke-width:1;"/></g><g class="link" data-entity-1="edu.wpi.first.epilogue" data-entity-2="edu.wpi.first.epilogue.logging.errors" data-uid="lnk8" id="link_edu.wpi.first.epilogue_edu.wpi.first.epilogue.logging.errors"><polygon fill="#181818" points="1204.1206,141.9553,1201.0354,132.6021,1200.7608,138.2523,1195.1106,137.9776,1204.1206,141.9553" style="stroke:#181818;stroke-width:1;"/><path d="M1065.5059,41.098 C1085.9746,49.9156 1111.9487,62.453 1133,77 C1161.065,96.3937 1184.8535,120.7197 1200.0889,137.5117" fill="none" style="stroke:#181818;stroke-width:1;"/></g><g class="link" data-entity-1="edu.wpi.first.epilogue.logging" data-entity-2="edu.wpi.first.epilogue.logging.errors" data-uid="lnk9" id="link_edu.wpi.first.epilogue.logging_edu.wpi.first.epilogue.logging.errors"><polygon fill="#181818" points="1120.2402,141.953,1111.9194,136.684,1115.2936,141.2243,1110.7533,144.5985,1120.2402,141.953" style="stroke:#181818;stroke-width:1;"/><path d="M881.2287,106.0151 C950.3485,116.6266 1042.222,130.4588 1114.3043,141.0785" fill="none" style="stroke:#181818;stroke-width:1;"/></g><g class="link" data-entity-1="edu.wpi.first.epilogue.logging" data-entity-2="edu.wpi.first.util.sendable" data-uid="lnk11" id="link_edu.wpi.first.epilogue.logging_edu.wpi.first.util.sendable"><polygon fill="#181818" points="182.0012,143.0303,191.409,145.9447,186.9665,142.4426,190.4686,138.0002,182.0012,143.0303" style="stroke:#181818;stroke-width:1;"/><path d="M695.2376,99.0405 C574.6997,107.1974 367.9247,122.4783 191,142 C188.0425,142.3263 190.9945,141.9659 187.9596,142.3251" fill="none" style="stroke:#181818;stroke-width:1;"/></g><g class="link" data-entity-1="edu.wpi.first.epilogue.logging" data-entity-2="edu.wpi.first.util.struct" data-uid="lnk13" id="link_edu.wpi.first.epilogue.logging_edu.wpi.first.util.struct"><polygon fill="#181818" points="354.3326,143.2031,363.8053,145.8989,359.283,142.5006,362.6813,137.9783,354.3326,143.2031" style="stroke:#181818;stroke-width:1;"/><path d="M695.1282,102.8935 C607.0809,112.1693 476.4756,126.6292 363,142 C360.1544,142.3854 363.198,141.945 360.2731,142.3601" fill="none" style="stroke:#181818;stroke-width:1;"/></g><g class="link" data-entity-1="edu.wpi.first.epilogue.logging" data-entity-2="edu.wpi.first.units" data-uid="lnk15" id="link_edu.wpi.first.epilogue.logging_edu.wpi.first.units"><polygon fill="#181818" points="496.3251,143.5766,505.8992,145.8866,501.243,142.6742,504.4554,138.018,496.3251,143.5766" style="stroke:#181818;stroke-width:1;"/><path d="M714.483,106.0369 C655.9594,115.748 575.5955,129.3061 505,142 C502.1597,142.5107 505.1581,141.9558 502.2265,142.4937" fill="none" style="stroke:#181818;stroke-width:1;"/></g><g class="link" data-entity-1="edu.wpi.first.epilogue.logging" data-entity-2="edu.wpi.first.util.function" data-uid="lnk17" id="link_edu.wpi.first.epilogue.logging_edu.wpi.first.util.function"><polygon fill="#181818" points="642.531,141.8987,652.3217,142.9672,647.2934,140.3757,649.8849,135.3474,642.531,141.8987" style="stroke:#181818;stroke-width:1;"/><path d="M754.7386,106.0151 C721.6129,116.6086 681.4405,129.4556 648.2459,140.0711" fill="none" style="stroke:#181818;stroke-width:1;"/></g><g class="link" data-entity-1="edu.wpi.first.epilogue.logging" data-entity-2="edu.wpi.first.networktables" data-uid="lnk19" id="link_edu.wpi.first.epilogue.logging_edu.wpi.first.networktables"><polygon fill="#181818" points="797,141.8566,801,132.8566,797,136.8566,793,132.8566,797,141.8566" style="stroke:#181818;stroke-width:1;"/><path d="M797,106.1701 C797,116.7373 797,125.2961 797,135.8566" fill="none" style="stroke:#181818;stroke-width:1;"/></g><g class="link" data-entity-1="edu.wpi.first.epilogue.logging" data-entity-2="edu.wpi.first.util.datalog" data-uid="lnk21" id="link_edu.wpi.first.epilogue.logging_edu.wpi.first.util.datalog"><polygon fill="#181818" points="949.1167,141.8987,941.7922,135.3145,944.3612,140.3544,939.3213,142.9234,949.1167,141.8987" style="stroke:#181818;stroke-width:1;"/><path d="M838.6179,106.0151 C871.2391,116.6086 910.721,129.43 943.4101,140.0455" fill="none" style="stroke:#181818;stroke-width:1;"/></g><g class="link" data-entity-1="edu.wpi.first.epilogue.logging.errors" data-entity-2="edu.wpi.first.epilogue.logging" data-uid="lnk22" id="link_edu.wpi.first.epilogue.logging.errors_edu.wpi.first.epilogue.logging"><polygon fill="#181818" points="892.5433,106.0151,900.8642,111.2841,897.4899,106.7438,902.0302,103.3695,892.5433,106.0151" style="stroke:#181818;stroke-width:1;"/><path d="M1131.5636,141.953 C1062.3864,131.3333 970.51,117.5011 898.4793,106.8896" fill="none" style="stroke:#181818;stroke-width:1;"/></g><!--SRC=[jPF1RiCW38RlUmglzv0ts4liMFNW4YT10HCPeogQzkuZRI9DqzfrpNP1mj_F_ri6002UHy4k87YSObP8WHGPdmg1D3WUKJ304UtGISpSsEYZW0foAeXOBqfIO0nKQfPUQJwaHSQHwSnxrn1O9zP_sbCOTOBMaM_IrshfeezBcPfiJgCphPEaXaRdOvS9gkhb2Z9bxHntlpkTsMaoWJ1beMt1XaIYtEf-LVwtMLRdJI9kyEXfYuLAjlgWmJpO3TbjPgikycCMJ7gACkWyW2rTDAXO97SuB1TsxmEr7bE2tVVA7UptXTI5r6TIhwGkNst0ZggKGq2PJA_17mxmzlwpwvf_mtrH_4NACeyxmYx2wvaV]--></g></svg>