<svg xmlns="http://www.w3.org/2000/svg" xmlns:xlink="http://www.w3.org/1999/xlink" contentStyleType="text/css" data-diagram-type="CLASS" height="307px" preserveAspectRatio="none" style="width:2113px;height:307px;" version="1.1" viewBox="0 0 2113 307" width="2113px" zoomAndPan="magnify"><defs/><g><!--class edu.wpi.first.epilogue--><g class="entity" data-entity="edu.wpi.first.epilogue" data-source-line="7" data-uid="ent0002" id="entity_edu.wpi.first.epilogue"><rect fill="#F1F1F1" height="29.0679" rx="2.5" ry="2.5" style="stroke:#181818;stroke-width:0.5;" width="148.9674" x="6" y="12"/><text fill="#000000" font-family="sans-serif" font-size="14" lengthAdjust="spacing" textLength="142.9674" x="9" y="31.9659">edu.wpi.first.epilogue</text></g><!--class edu.wpi.first.units.measure--><a href="edu/wpi/first/units/measure/package-summary.html" target="_top" title="edu/wpi/first/units/measure/package-summary.html" xlink:actuate="onRequest" xlink:href="edu/wpi/first/units/measure/package-summary.html" xlink:show="new" xlink:title="edu/wpi/first/units/measure/package-summary.html" xlink:type="simple"><g class="entity" data-entity="edu.wpi.first.units.measure" data-source-line="7" data-uid="ent0003" id="entity_edu.wpi.first.units.measure"><rect fill="#F1F1F1" height="29.0679" rx="2.5" ry="2.5" style="stroke:#181818;stroke-width:0.5;" width="185.9133" x="951.5" y="77"/><text fill="#000000" font-family="sans-serif" font-size="14" lengthAdjust="spacing" textLength="179.9133" x="954.5" y="96.9659">edu.wpi.first.units.measure</text></g></a><!--class edu.wpi.first.epilogue.logging--><g class="entity" data-entity="edu.wpi.first.epilogue.logging" data-source-line="8" data-uid="ent0005" id="entity_edu.wpi.first.epilogue.logging"><rect fill="#F1F1F1" height="29.0679" rx="2.5" ry="2.5" style="stroke:#181818;stroke-width:0.5;" width="202.8952" x="1219" y="142"/><text fill="#000000" font-family="sans-serif" font-size="14" lengthAdjust="spacing" textLength="196.8952" x="1222" y="161.9659">edu.wpi.first.epilogue.logging</text></g><!--class edu.wpi.first.units--><a href="edu/wpi/first/units/package-summary.html" target="_top" title="edu/wpi/first/units/package-summary.html" xlink:actuate="onRequest" xlink:href="edu/wpi/first/units/package-summary.html" xlink:show="new" xlink:title="edu/wpi/first/units/package-summary.html" xlink:type="simple"><g class="entity" data-entity="edu.wpi.first.units" data-source-line="8" data-uid="ent0006" id="entity_edu.wpi.first.units"><rect fill="#F1F1F1" height="29.0679" rx="2.5" ry="2.5" style="stroke:#181818;stroke-width:0.5;" width="124.2855" x="982.5" y="207"/><text fill="#000000" font-family="sans-serif" font-size="14" lengthAdjust="spacing" textLength="118.2855" x="985.5" y="226.9659">edu.wpi.first.units</text></g></a><!--class edu.wpi.first.wpilibj2.command--><g class="entity" data-entity="edu.wpi.first.wpilibj2.command" data-source-line="9" data-uid="ent0008" id="entity_edu.wpi.first.wpilibj2.command"><rect fill="#F1F1F1" height="29.0679" rx="2.5" ry="2.5" style="stroke:#181818;stroke-width:0.5;" width="212.5272" x="173" y="12"/><text fill="#000000" font-family="sans-serif" font-size="14" lengthAdjust="spacing" textLength="206.5272" x="176" y="31.9659">edu.wpi.first.wpilibj2.command</text></g><!--class edu.wpi.first.wpilibj2.command.sysid--><g class="entity" data-entity="edu.wpi.first.wpilibj2.command.sysid" data-source-line="10" data-uid="ent0010" id="entity_edu.wpi.first.wpilibj2.command.sysid"><rect fill="#F1F1F1" height="29.0679" rx="2.5" ry="2.5" style="stroke:#181818;stroke-width:0.5;" width="249.0531" x="404" y="12"/><text fill="#000000" font-family="sans-serif" font-size="14" lengthAdjust="spacing" textLength="243.0531" x="407" y="31.9659">edu.wpi.first.wpilibj2.command.sysid</text></g><!--class edu.wpi.first.wpilibj--><g class="entity" data-entity="edu.wpi.first.wpilibj" data-source-line="11" data-uid="ent0012" id="entity_edu.wpi.first.wpilibj"><rect fill="#F1F1F1" height="29.0679" rx="2.5" ry="2.5" style="stroke:#181818;stroke-width:0.5;" width="134.2815" x="671.5" y="12"/><text fill="#000000" font-family="sans-serif" font-size="14" lengthAdjust="spacing" textLength="128.2815" x="674.5" y="31.9659">edu.wpi.first.wpilibj</text></g><!--class edu.wpi.first.wpilibj.motorcontrol--><g class="entity" data-entity="edu.wpi.first.wpilibj.motorcontrol" data-source-line="12" data-uid="ent0014" id="entity_edu.wpi.first.wpilibj.motorcontrol"><rect fill="#F1F1F1" height="29.0679" rx="2.5" ry="2.5" style="stroke:#181818;stroke-width:0.5;" width="225.6592" x="823.5" y="12"/><text fill="#000000" font-family="sans-serif" font-size="14" lengthAdjust="spacing" textLength="219.6592" x="826.5" y="31.9659">edu.wpi.first.wpilibj.motorcontrol</text></g><!--class edu.wpi.first.wpilibj.sysid--><g class="entity" data-entity="edu.wpi.first.wpilibj.sysid" data-source-line="13" data-uid="ent0016" id="entity_edu.wpi.first.wpilibj.sysid"><rect fill="#F1F1F1" height="29.0679" rx="2.5" ry="2.5" style="stroke:#181818;stroke-width:0.5;" width="170.8074" x="1068" y="12"/><text fill="#000000" font-family="sans-serif" font-size="14" lengthAdjust="spacing" textLength="164.8074" x="1071" y="31.9659">edu.wpi.first.wpilibj.sysid</text></g><!--class edu.wpi.first.wpilibj.simulation--><g class="entity" data-entity="edu.wpi.first.wpilibj.simulation" data-source-line="14" data-uid="ent0018" id="entity_edu.wpi.first.wpilibj.simulation"><rect fill="#F1F1F1" height="29.0679" rx="2.5" ry="2.5" style="stroke:#181818;stroke-width:0.5;" width="207.3472" x="1257" y="12"/><text fill="#000000" font-family="sans-serif" font-size="14" lengthAdjust="spacing" textLength="201.3472" x="1260" y="31.9659">edu.wpi.first.wpilibj.simulation</text></g><!--class edu.wpi.first.math.trajectory--><g class="entity" data-entity="edu.wpi.first.math.trajectory" data-source-line="15" data-uid="ent0020" id="entity_edu.wpi.first.math.trajectory"><rect fill="#F1F1F1" height="29.0679" rx="2.5" ry="2.5" style="stroke:#181818;stroke-width:0.5;" width="193.3753" x="1482" y="12"/><text fill="#000000" font-family="sans-serif" font-size="14" lengthAdjust="spacing" textLength="187.3753" x="1485" y="31.9659">edu.wpi.first.math.trajectory</text></g><!--class edu.wpi.first.math.kinematics--><g class="entity" data-entity="edu.wpi.first.math.kinematics" data-source-line="16" data-uid="ent0022" id="entity_edu.wpi.first.math.kinematics"><rect fill="#F1F1F1" height="29.0679" rx="2.5" ry="2.5" style="stroke:#181818;stroke-width:0.5;" width="200.6832" x="1693" y="12"/><text fill="#000000" font-family="sans-serif" font-size="14" lengthAdjust="spacing" textLength="194.6832" x="1696" y="31.9659">edu.wpi.first.math.kinematics</text></g><!--class edu.wpi.first.math.geometry--><g class="entity" data-entity="edu.wpi.first.math.geometry" data-source-line="17" data-uid="ent0024" id="entity_edu.wpi.first.math.geometry"><rect fill="#F1F1F1" height="29.0679" rx="2.5" ry="2.5" style="stroke:#181818;stroke-width:0.5;" width="193.9493" x="1912.5" y="12"/><text fill="#000000" font-family="sans-serif" font-size="14" lengthAdjust="spacing" textLength="187.9493" x="1915.5" y="31.9659">edu.wpi.first.math.geometry</text></g><!--class edu.wpi.first.units.collections--><a href="edu/wpi/first/units/collections/package-summary.html" target="_top" title="edu/wpi/first/units/collections/package-summary.html" xlink:actuate="onRequest" xlink:href="edu/wpi/first/units/collections/package-summary.html" xlink:show="new" xlink:title="edu/wpi/first/units/collections/package-summary.html" xlink:type="simple"><g class="entity" data-entity="edu.wpi.first.units.collections" data-source-line="19" data-uid="ent0027" id="entity_edu.wpi.first.units.collections"><rect fill="#F1F1F1" height="29.0679" rx="2.5" ry="2.5" style="stroke:#181818;stroke-width:0.5;" width="197.5612" x="945.5" y="272"/><text fill="#000000" font-family="sans-serif" font-size="14" lengthAdjust="spacing" textLength="191.5612" x="948.5" y="291.9659">edu.wpi.first.units.collections</text></g></a><!--class edu.wpi.first.units.mutable--><a href="edu/wpi/first/units/mutable/package-summary.html" target="_top" title="edu/wpi/first/units/mutable/package-summary.html" xlink:actuate="onRequest" xlink:href="edu/wpi/first/units/mutable/package-summary.html" xlink:show="new" xlink:title="edu/wpi/first/units/mutable/package-summary.html" xlink:type="simple"><g class="entity" data-entity="edu.wpi.first.units.mutable" data-source-line="20" data-uid="ent0029" id="entity_edu.wpi.first.units.mutable"><rect fill="#F1F1F1" height="29.0679" rx="2.5" ry="2.5" style="stroke:#181818;stroke-width:0.5;" width="182.8053" x="1018" y="142"/><text fill="#000000" font-family="sans-serif" font-size="14" lengthAdjust="spacing" textLength="176.8053" x="1021" y="161.9659">edu.wpi.first.units.mutable</text></g></a><g class="link" data-entity-1="edu.wpi.first.epilogue" data-entity-2="edu.wpi.first.units.measure" data-uid="lnk4" id="link_edu.wpi.first.epilogue_edu.wpi.first.units.measure"><polygon fill="#181818" points="951.322,88.4818,942.4295,84.2482,946.3237,88.3513,942.2206,92.2455,951.322,88.4818" style="stroke:#181818;stroke-width:1;"/><path d="M155.1063,40.0143 C157.9372,40.3685 160.7425,40.6991 163.5,41 C449.6125,72.2185 784.2763,84.1189 945.324,88.3251" fill="none" style="stroke:#181818;stroke-width:1;"/></g><g class="link" data-entity-1="edu.wpi.first.epilogue.logging" data-entity-2="edu.wpi.first.units" data-uid="lnk7" id="link_edu.wpi.first.epilogue.logging_edu.wpi.first.units"><polygon fill="#181818" points="1104.0866,206.8987,1113.751,208.7956,1108.9612,205.786,1111.9707,200.9962,1104.0866,206.8987" style="stroke:#181818;stroke-width:1;"/><path d="M1261.2911,171.0151 C1214.8815,181.6086 1156.4423,194.948 1109.9361,205.5635" fill="none" style="stroke:#181818;stroke-width:1;"/></g><g class="link" data-entity-1="edu.wpi.first.wpilibj2.command" data-entity-2="edu.wpi.first.units.measure" data-uid="lnk9" id="link_edu.wpi.first.wpilibj2.command_edu.wpi.first.units.measure"><polygon fill="#181818" points="951.289,84.6027,942.5694,80.0235,946.2997,84.2761,942.047,88.0064,951.289,84.6027" style="stroke:#181818;stroke-width:1;"/><path d="M386.3028,40.1879 C389.0627,40.4674 391.7988,40.7387 394.5,41 C592.4792,60.1509 818.9908,75.945 945.3018,84.2108" fill="none" style="stroke:#181818;stroke-width:1;"/></g><g class="link" data-entity-1="edu.wpi.first.wpilibj2.command.sysid" data-entity-2="edu.wpi.first.units.measure" data-uid="lnk11" id="link_edu.wpi.first.wpilibj2.command.sysid_edu.wpi.first.units.measure"><polygon fill="#181818" points="951.2571,79.1157,942.8082,74.0544,946.294,78.5097,941.8387,81.9955,951.2571,79.1157" style="stroke:#181818;stroke-width:1;"/><path d="M639.1949,41.0151 C732.1793,52.3678 857.5976,67.6805 945.3013,78.3885" fill="none" style="stroke:#181818;stroke-width:1;"/></g><g class="link" data-entity-1="edu.wpi.first.wpilibj" data-entity-2="edu.wpi.first.units.measure" data-uid="lnk13" id="link_edu.wpi.first.wpilibj_edu.wpi.first.units.measure"><polygon fill="#181818" points="978.7004,76.953,970.6919,71.2203,973.8032,75.9448,969.0787,79.056,978.7004,76.953" style="stroke:#181818;stroke-width:1;"/><path d="M804.1447,41.0151 C855.6865,51.6266 921.2421,65.1234 972.8237,75.7431" fill="none" style="stroke:#181818;stroke-width:1;"/></g><g class="link" data-entity-1="edu.wpi.first.wpilibj.motorcontrol" data-entity-2="edu.wpi.first.units.measure" data-uid="lnk15" id="link_edu.wpi.first.wpilibj.motorcontrol_edu.wpi.first.units.measure"><polygon fill="#181818" points="1020.997,76.7899,1015.2384,68.7999,1016.6781,74.2705,1011.2075,75.7102,1020.997,76.7899" style="stroke:#181818;stroke-width:1;"/><path d="M959.6687,41.0151 C977.767,51.5724 997.6312,63.1598 1015.8143,73.7667" fill="none" style="stroke:#181818;stroke-width:1;"/></g><g class="link" data-entity-1="edu.wpi.first.wpilibj.sysid" data-entity-2="edu.wpi.first.units.measure" data-uid="lnk17" id="link_edu.wpi.first.wpilibj.sysid_edu.wpi.first.units.measure"><polygon fill="#181818" points="1068.2207,76.7899,1078.0144,75.7494,1072.5496,74.2878,1074.0111,68.823,1068.2207,76.7899" style="stroke:#181818;stroke-width:1;"/><path d="M1130.1168,41.0151 C1111.8509,51.5724 1091.7669,63.1806 1073.4154,73.7874" fill="none" style="stroke:#181818;stroke-width:1;"/></g><g class="link" data-entity-1="edu.wpi.first.wpilibj.simulation" data-entity-2="edu.wpi.first.units.measure" data-uid="lnk19" id="link_edu.wpi.first.wpilibj.simulation_edu.wpi.first.units.measure"><polygon fill="#181818" points="1112.4499,76.953,1122.0582,79.1162,1117.3534,75.9754,1120.4941,71.2706,1112.4499,76.953" style="stroke:#181818;stroke-width:1;"/><path d="M1292.7101,41.0151 C1239.4838,51.6266 1171.6014,65.1602 1118.3341,75.7799" fill="none" style="stroke:#181818;stroke-width:1;"/></g><g class="link" data-entity-1="edu.wpi.first.math.trajectory" data-entity-2="edu.wpi.first.units.measure" data-uid="lnk21" id="link_edu.wpi.first.math.trajectory_edu.wpi.first.units.measure"><polygon fill="#181818" points="1137.851,80.0824,1147.242,83.0506,1142.8196,79.5231,1146.3471,75.1008,1137.851,80.0824" style="stroke:#181818;stroke-width:1;"/><path d="M1481.8151,39.9789 C1479.013,40.3252 1476.2366,40.6662 1473.5,41 C1357.9602,55.0927 1230.744,69.6263 1143.8134,79.4113" fill="none" style="stroke:#181818;stroke-width:1;"/></g><g class="link" data-entity-1="edu.wpi.first.math.kinematics" data-entity-2="edu.wpi.first.units.measure" data-uid="lnk23" id="link_edu.wpi.first.math.kinematics_edu.wpi.first.units.measure"><polygon fill="#181818" points="1137.6241,84.6464,1146.8658,88.0511,1142.6135,84.3204,1146.3442,80.0681,1137.6241,84.6464" style="stroke:#181818;stroke-width:1;"/><path d="M1692.8541,40.1365 C1690.0401,40.4348 1687.251,40.7234 1684.5,41 C1490.3146,60.5243 1268.2943,76.1094 1143.6114,84.2552" fill="none" style="stroke:#181818;stroke-width:1;"/></g><g class="link" data-entity-1="edu.wpi.first.math.geometry" data-entity-2="edu.wpi.first.units.measure" data-uid="lnk25" id="link_edu.wpi.first.math.geometry_edu.wpi.first.units.measure"><polygon fill="#181818" points="1137.7671,87.2386,1146.9124,90.8943,1142.7635,87.0489,1146.6089,82.9001,1137.7671,87.2386" style="stroke:#181818;stroke-width:1;"/><path d="M1912.4836,40.1284 C1909.4559,40.4353 1906.4556,40.727 1903.5,41 C1625.5309,66.6789 1301.6449,81.0171 1143.7628,87.011" fill="none" style="stroke:#181818;stroke-width:1;"/></g><g class="link" data-entity-1="edu.wpi.first.units" data-entity-2="edu.wpi.first.units.measure" data-uid="lnk26" id="link_edu.wpi.first.units_edu.wpi.first.units.measure"><polygon fill="#181818" points="1038.4741,106.285,1029.8811,111.0976,1035.48,110.2894,1036.2881,115.8882,1038.4741,106.285" style="stroke:#181818;stroke-width:1;"/><path d="M1038.4741,206.715 C1031.5605,197.4687 1021.9033,184.5411 1017.5,171 C1013.5142,158.7429 1013.5142,154.2571 1017.5,142 C1021.9033,128.4589 1027.9675,120.3366 1034.8811,111.0903" fill="none" style="stroke:#181818;stroke-width:1;"/></g><g class="link" data-entity-1="edu.wpi.first.units" data-entity-2="edu.wpi.first.units.collections" data-uid="lnk28" id="link_edu.wpi.first.units_edu.wpi.first.units.collections"><polygon fill="#181818" points="1044.5,271.8566,1048.5,262.8566,1044.5,266.8566,1040.5,262.8566,1044.5,271.8566" style="stroke:#181818;stroke-width:1;"/><path d="M1044.5,236.1701 C1044.5,246.7373 1044.5,255.2961 1044.5,265.8566" fill="none" style="stroke:#181818;stroke-width:1;"/></g><g class="link" data-entity-1="edu.wpi.first.units.mutable" data-entity-2="edu.wpi.first.units" data-uid="lnk30" id="link_edu.wpi.first.units.mutable_edu.wpi.first.units"><polygon fill="#181818" points="1058.5765,206.8566,1067.823,203.4651,1062.1668,203.3768,1062.2552,197.7206,1058.5765,206.8566" style="stroke:#181818;stroke-width:1;"/><path d="M1095.396,171.1701 C1084.4933,181.7373 1073.7806,192.1203 1062.8849,202.6808" fill="none" style="stroke:#181818;stroke-width:1;"/></g><g class="link" data-entity-1="edu.wpi.first.units.mutable" data-entity-2="edu.wpi.first.units.measure" data-uid="lnk31" id="link_edu.wpi.first.units.mutable_edu.wpi.first.units.measure"><polygon fill="#181818" points="1064.2825,106.1701,1068.5141,115.0635,1068.0793,109.4234,1073.7194,108.9886,1064.2825,106.1701" style="stroke:#181818;stroke-width:1;"/><path d="M1101.0983,141.8566 C1091.6349,131.2961 1081.1713,120.6412 1068.8387,110.074" fill="none" style="stroke:#181818;stroke-width:1;"/></g><g class="link" data-entity-1="edu.wpi.first.units.measure" data-entity-2="edu.wpi.first.units" data-uid="lnk32" id="link_edu.wpi.first.units.measure_edu.wpi.first.units"><polygon fill="#181818" points="1023.0556,206.715,1019.3983,197.5703,1019.4734,203.2267,1013.8171,203.3018,1023.0556,206.715" style="stroke:#181818;stroke-width:1;"/><path d="M1023.0556,106.285 C1013.5605,115.5313 1003.9033,128.4589 999.5,142 C995.5142,154.2571 995.5142,158.7429 999.5,171 C1003.9033,184.5411 1009.2619,193.2827 1018.757,202.529" fill="none" style="stroke:#181818;stroke-width:1;"/></g><g class="link" data-entity-1="edu.wpi.first.units.measure" data-entity-2="edu.wpi.first.units.mutable" data-uid="lnk33" id="link_edu.wpi.first.units.measure_edu.wpi.first.units.mutable"><polygon fill="#181818" points="1089.7487,141.8566,1085.5158,132.9638,1085.9514,138.6038,1080.3114,139.0394,1089.7487,141.8566" style="stroke:#181818;stroke-width:1;"/><path d="M1052.9256,106.1701 C1062.3983,116.7373 1072.8638,127.3928 1085.192,137.9532" fill="none" style="stroke:#181818;stroke-width:1;"/></g><!--SRC=[hPJFRi8m3CRlUmgFEwcq1zXBx8WucDIqWVofOaUeclRkymf82AqmmYvLci_VBuxZ103WTSZO1GIFOoe274Wmueigm7iN1ymOO8Dst-LKOckJJnaaOsILACenaWGY1j8vIn_qOn8DYodIfFUk9R0kMt_nJs6G4RQEVClNivf5dqxJr1Pp69pPkinYQ70-TOLWkNo_aafqmYOGSibqmshqsxdOpI5-iUh8kytkpTWK0iQsOlLhXE6HtHEWUgS9IK_7fYWv-ISmJsx0i0l5exWKAo01fJVQXpkokfcnbg0jJZfmbci97INjrgeC9ltVVNf5lHP5oyfpNXEAuCRJ0pVWJxvxEP_rnzUzxJldDVcjHsPOtC0iOBLIkL6vcUHcafkJtEWhjiUEbbpqfkRHz1ByUWsVNtVuSznQtkLHph4lGkhNEPLljYv7UPx_3G00]--></g></svg>