<svg xmlns="http://www.w3.org/2000/svg" xmlns:xlink="http://www.w3.org/1999/xlink" contentStyleType="text/css" data-diagram-type="CLASS" height="177px" preserveAspectRatio="none" style="width:1572px;height:177px;" version="1.1" viewBox="0 0 1572 177" width="1572px" zoomAndPan="magnify"><defs/><g><!--class edu.wpi.first.wpilibj2.command--><a href="edu/wpi/first/wpilibj2/command/package-summary.html" target="_top" title="edu/wpi/first/wpilibj2/command/package-summary.html" xlink:actuate="onRequest" xlink:href="edu/wpi/first/wpilibj2/command/package-summary.html" xlink:show="new" xlink:title="edu/wpi/first/wpilibj2/command/package-summary.html" xlink:type="simple"><g class="entity" data-entity="edu.wpi.first.wpilibj2.command" data-source-line="7" data-uid="ent0002" id="entity_edu.wpi.first.wpilibj2.command"><rect fill="#F1F1F1" height="29.0679" rx="2.5" ry="2.5" style="stroke:#181818;stroke-width:0.5;" width="212.5272" x="635" y="77"/><text fill="#000000" font-family="sans-serif" font-size="14" lengthAdjust="spacing" textLength="206.5272" x="638" y="96.9659">edu.wpi.first.wpilibj2.command</text></g></a><!--class edu.wpi.first.util.sendable--><g class="entity" data-entity="edu.wpi.first.util.sendable" data-source-line="7" data-uid="ent0003" id="entity_edu.wpi.first.util.sendable"><rect fill="#F1F1F1" height="29.0679" rx="2.5" ry="2.5" style="stroke:#181818;stroke-width:0.5;" width="176.1273" x="541.5" y="142"/><text fill="#000000" font-family="sans-serif" font-size="14" lengthAdjust="spacing" textLength="170.1273" x="544.5" y="161.9659">edu.wpi.first.util.sendable</text></g><!--class edu.wpi.first.wpilibj--><g class="entity" data-entity="edu.wpi.first.wpilibj" data-source-line="8" data-uid="ent0005" id="entity_edu.wpi.first.wpilibj"><rect fill="#F1F1F1" height="29.0679" rx="2.5" ry="2.5" style="stroke:#181818;stroke-width:0.5;" width="134.2815" x="199.5" y="142"/><text fill="#000000" font-family="sans-serif" font-size="14" lengthAdjust="spacing" textLength="128.2815" x="202.5" y="161.9659">edu.wpi.first.wpilibj</text></g><!--class edu.wpi.first.math.trajectory--><g class="entity" data-entity="edu.wpi.first.math.trajectory" data-source-line="9" data-uid="ent0007" id="entity_edu.wpi.first.math.trajectory"><rect fill="#F1F1F1" height="29.0679" rx="2.5" ry="2.5" style="stroke:#181818;stroke-width:0.5;" width="193.3753" x="736" y="142"/><text fill="#000000" font-family="sans-serif" font-size="14" lengthAdjust="spacing" textLength="187.3753" x="739" y="161.9659">edu.wpi.first.math.trajectory</text></g><!--class edu.wpi.first.math.controller--><g class="entity" data-entity="edu.wpi.first.math.controller" data-source-line="10" data-uid="ent0009" id="entity_edu.wpi.first.math.controller"><rect fill="#F1F1F1" height="29.0679" rx="2.5" ry="2.5" style="stroke:#181818;stroke-width:0.5;" width="194.0613" x="947.5" y="142"/><text fill="#000000" font-family="sans-serif" font-size="14" lengthAdjust="spacing" textLength="188.0613" x="950.5" y="161.9659">edu.wpi.first.math.controller</text></g><!--class edu.wpi.first.math.kinematics--><g class="entity" data-entity="edu.wpi.first.math.kinematics" data-source-line="11" data-uid="ent0011" id="entity_edu.wpi.first.math.kinematics"><rect fill="#F1F1F1" height="29.0679" rx="2.5" ry="2.5" style="stroke:#181818;stroke-width:0.5;" width="200.6832" x="1160" y="142"/><text fill="#000000" font-family="sans-serif" font-size="14" lengthAdjust="spacing" textLength="194.6832" x="1163" y="161.9659">edu.wpi.first.math.kinematics</text></g><!--class edu.wpi.first.wpilibj.event--><g class="entity" data-entity="edu.wpi.first.wpilibj.event" data-source-line="12" data-uid="ent0013" id="entity_edu.wpi.first.wpilibj.event"><rect fill="#F1F1F1" height="29.0679" rx="2.5" ry="2.5" style="stroke:#181818;stroke-width:0.5;" width="174.6433" x="6" y="142"/><text fill="#000000" font-family="sans-serif" font-size="14" lengthAdjust="spacing" textLength="168.6433" x="9" y="161.9659">edu.wpi.first.wpilibj.event</text></g><!--class edu.wpi.first.units.measure--><g class="entity" data-entity="edu.wpi.first.units.measure" data-source-line="13" data-uid="ent0015" id="entity_edu.wpi.first.units.measure"><rect fill="#F1F1F1" height="29.0679" rx="2.5" ry="2.5" style="stroke:#181818;stroke-width:0.5;" width="185.9133" x="1379.5" y="142"/><text fill="#000000" font-family="sans-serif" font-size="14" lengthAdjust="spacing" textLength="179.9133" x="1382.5" y="161.9659">edu.wpi.first.units.measure</text></g><!--class edu.wpi.first.util.function--><g class="entity" data-entity="edu.wpi.first.util.function" data-source-line="14" data-uid="ent0017" id="entity_edu.wpi.first.util.function"><rect fill="#F1F1F1" height="29.0679" rx="2.5" ry="2.5" style="stroke:#181818;stroke-width:0.5;" width="170.9193" x="352" y="142"/><text fill="#000000" font-family="sans-serif" font-size="14" lengthAdjust="spacing" textLength="164.9193" x="355" y="161.9659">edu.wpi.first.util.function</text></g><!--class edu.wpi.first.wpilibj2.command.sysid--><a href="edu/wpi/first/wpilibj2/command/sysid/package-summary.html" target="_top" title="edu/wpi/first/wpilibj2/command/sysid/package-summary.html" xlink:actuate="onRequest" xlink:href="edu/wpi/first/wpilibj2/command/sysid/package-summary.html" xlink:show="new" xlink:title="edu/wpi/first/wpilibj2/command/sysid/package-summary.html" xlink:type="simple"><g class="entity" data-entity="edu.wpi.first.wpilibj2.command.sysid" data-source-line="15" data-uid="ent0019" id="entity_edu.wpi.first.wpilibj2.command.sysid"><rect fill="#F1F1F1" height="29.0679" rx="2.5" ry="2.5" style="stroke:#181818;stroke-width:0.5;" width="249.0531" x="1030" y="12"/><text fill="#000000" font-family="sans-serif" font-size="14" lengthAdjust="spacing" textLength="243.0531" x="1033" y="31.9659">edu.wpi.first.wpilibj2.command.sysid</text></g></a><!--class edu.wpi.first.wpilibj.sysid--><g class="entity" data-entity="edu.wpi.first.wpilibj.sysid" data-source-line="15" data-uid="ent0020" id="entity_edu.wpi.first.wpilibj.sysid"><rect fill="#F1F1F1" height="29.0679" rx="2.5" ry="2.5" style="stroke:#181818;stroke-width:0.5;" width="170.8074" x="1069" y="77"/><text fill="#000000" font-family="sans-serif" font-size="14" lengthAdjust="spacing" textLength="164.8074" x="1072" y="96.9659">edu.wpi.first.wpilibj.sysid</text></g><!--class edu.wpi.first.wpilibj2.command.button--><a href="edu/wpi/first/wpilibj2/command/button/package-summary.html" target="_top" title="edu/wpi/first/wpilibj2/command/button/package-summary.html" xlink:actuate="onRequest" xlink:href="edu/wpi/first/wpilibj2/command/button/package-summary.html" xlink:show="new" xlink:title="edu/wpi/first/wpilibj2/command/button/package-summary.html" xlink:type="simple"><g class="entity" data-entity="edu.wpi.first.wpilibj2.command.button" data-source-line="18" data-uid="ent0024" id="entity_edu.wpi.first.wpilibj2.command.button"><rect fill="#F1F1F1" height="29.0679" rx="2.5" ry="2.5" style="stroke:#181818;stroke-width:0.5;" width="260.771" x="264" y="12"/><text fill="#000000" font-family="sans-serif" font-size="14" lengthAdjust="spacing" textLength="254.771" x="267" y="31.9659">edu.wpi.first.wpilibj2.command.button</text></g></a><!--class edu.wpi.first.math.filter--><g class="entity" data-entity="edu.wpi.first.math.filter" data-source-line="20" data-uid="ent0027" id="entity_edu.wpi.first.math.filter"><rect fill="#F1F1F1" height="29.0679" rx="2.5" ry="2.5" style="stroke:#181818;stroke-width:0.5;" width="160.7834" x="122" y="77"/><text fill="#000000" font-family="sans-serif" font-size="14" lengthAdjust="spacing" textLength="154.7834" x="125" y="96.9659">edu.wpi.first.math.filter</text></g><!--class edu.wpi.first.networktables--><g class="entity" data-entity="edu.wpi.first.networktables" data-source-line="21" data-uid="ent0029" id="entity_edu.wpi.first.networktables"><rect fill="#F1F1F1" height="29.0679" rx="2.5" ry="2.5" style="stroke:#181818;stroke-width:0.5;" width="185.6753" x="301.5" y="77"/><text fill="#000000" font-family="sans-serif" font-size="14" lengthAdjust="spacing" textLength="179.6753" x="304.5" y="96.9659">edu.wpi.first.networktables</text></g><g class="link" data-entity-1="edu.wpi.first.wpilibj2.command" data-entity-2="edu.wpi.first.util.sendable" data-uid="lnk4" id="link_edu.wpi.first.wpilibj2.command_edu.wpi.first.util.sendable"><polygon fill="#181818" points="653.8735,141.7899,663.6788,140.8638,658.2314,139.3386,659.7567,133.8912,653.8735,141.7899" style="stroke:#181818;stroke-width:1;"/><path d="M717.4732,106.0151 C698.7046,116.5724 677.9596,128.2415 659.103,138.8483" fill="none" style="stroke:#181818;stroke-width:1;"/></g><g class="link" data-entity-1="edu.wpi.first.wpilibj2.command" data-entity-2="edu.wpi.first.wpilibj" data-uid="lnk6" id="link_edu.wpi.first.wpilibj2.command_edu.wpi.first.wpilibj"><polygon fill="#181818" points="333.6054,143.3835,343.1241,145.912,338.5426,142.5939,341.8608,138.0124,333.6054,143.3835" style="stroke:#181818;stroke-width:1;"/><path d="M634.6007,104.2227 C554.1338,113.4199 441.2016,127.1217 342.5,142 C339.5847,142.4395 342.5339,141.9556 339.5301,142.4359" fill="none" style="stroke:#181818;stroke-width:1;"/></g><g class="link" data-entity-1="edu.wpi.first.wpilibj2.command" data-entity-2="edu.wpi.first.math.trajectory" data-uid="lnk8" id="link_edu.wpi.first.wpilibj2.command_edu.wpi.first.math.trajectory"><polygon fill="#181818" points="812.7929,141.8566,807.67,133.445,808.6819,139.0106,803.1163,140.0225,812.7929,141.8566" style="stroke:#181818;stroke-width:1;"/><path d="M761.2456,106.1701 C776.5094,116.7373 792.6057,127.8809 807.8597,138.4414" fill="none" style="stroke:#181818;stroke-width:1;"/></g><g class="link" data-entity-1="edu.wpi.first.wpilibj2.command" data-entity-2="edu.wpi.first.math.controller" data-uid="lnk10" id="link_edu.wpi.first.wpilibj2.command_edu.wpi.first.math.controller"><polygon fill="#181818" points="979.3455,141.953,971.3483,136.2047,974.4502,140.9352,969.7197,144.0372,979.3455,141.953" style="stroke:#181818;stroke-width:1;"/><path d="M806.5011,106.0151 C857.5376,116.6266 922.3952,130.1119 973.4712,140.7316" fill="none" style="stroke:#181818;stroke-width:1;"/></g><g class="link" data-entity-1="edu.wpi.first.wpilibj2.command" data-entity-2="edu.wpi.first.math.kinematics" data-uid="lnk12" id="link_edu.wpi.first.wpilibj2.command_edu.wpi.first.math.kinematics"><polygon fill="#181818" points="1159.7928,143.1336,1151.3439,138.0724,1154.8297,142.5277,1150.3744,146.0134,1159.7928,143.1336" style="stroke:#181818;stroke-width:1;"/><path d="M848.2901,105.3748 C930.8201,115.3368 1047.9054,129.4961 1150.5,142 C1153.5559,142.3724 1150.7037,142.0239 1153.837,142.4065" fill="none" style="stroke:#181818;stroke-width:1;"/></g><g class="link" data-entity-1="edu.wpi.first.wpilibj2.command" data-entity-2="edu.wpi.first.wpilibj.event" data-uid="lnk14" id="link_edu.wpi.first.wpilibj2.command_edu.wpi.first.wpilibj.event"><polygon fill="#181818" points="181.2446,143.0931,190.6613,145.9783,186.2081,142.49,189.6964,138.0368,181.2446,143.0931" style="stroke:#181818;stroke-width:1;"/><path d="M634.9417,100.526 C523.8401,109.2565 344.7261,124.3508 190.5,142 C187.4594,142.348 190.323,141.99 187.2008,142.3694" fill="none" style="stroke:#181818;stroke-width:1;"/></g><g class="link" data-entity-1="edu.wpi.first.wpilibj2.command" data-entity-2="edu.wpi.first.units.measure" data-uid="lnk16" id="link_edu.wpi.first.wpilibj2.command_edu.wpi.first.units.measure"><polygon fill="#181818" points="1379.3276,143.0688,1370.8305,138.0889,1374.3589,142.5105,1369.9373,146.0389,1379.3276,143.0688" style="stroke:#181818;stroke-width:1;"/><path d="M848.0474,99.2142 C973.0968,107.4841 1186.6314,122.8218 1369.5,142 C1372.7286,142.3386 1370.0499,142.0264 1373.3651,142.3989" fill="none" style="stroke:#181818;stroke-width:1;"/></g><g class="link" data-entity-1="edu.wpi.first.wpilibj2.command" data-entity-2="edu.wpi.first.util.function" data-uid="lnk18" id="link_edu.wpi.first.wpilibj2.command_edu.wpi.first.util.function"><polygon fill="#181818" points="502.8695,141.953,512.4939,144.0435,507.7655,140.9384,510.8705,136.2099,502.8695,141.953" style="stroke:#181818;stroke-width:1;"/><path d="M676.2844,106.0151 C625.0794,116.6266 559.9892,130.1157 508.7447,140.7355" fill="none" style="stroke:#181818;stroke-width:1;"/></g><g class="link" data-entity-1="edu.wpi.first.wpilibj2.command.sysid" data-entity-2="edu.wpi.first.wpilibj.sysid" data-uid="lnk21" id="link_edu.wpi.first.wpilibj2.command.sysid_edu.wpi.first.wpilibj.sysid"><polygon fill="#181818" points="1154.5,76.8566,1158.5,67.8566,1154.5,71.8566,1150.5,67.8566,1154.5,76.8566" style="stroke:#181818;stroke-width:1;"/><path d="M1154.5,41.1701 C1154.5,51.7373 1154.5,60.2961 1154.5,70.8566" fill="none" style="stroke:#181818;stroke-width:1;"/></g><g class="link" data-entity-1="edu.wpi.first.wpilibj2.command.sysid" data-entity-2="edu.wpi.first.units.measure" data-uid="lnk22" id="link_edu.wpi.first.wpilibj2.command.sysid_edu.wpi.first.units.measure"><polygon fill="#181818" points="1438.6367,141.8695,1431.7813,134.7982,1433.9984,140.0025,1428.7941,142.2196,1438.6367,141.8695" style="stroke:#181818;stroke-width:1;"/><path d="M1188.2305,41.0771 C1249.2917,65.6551 1371.9124,115.0119 1433.0707,139.6291" fill="none" style="stroke:#181818;stroke-width:1;"/></g><g class="link" data-entity-1="edu.wpi.first.wpilibj2.command.sysid" data-entity-2="edu.wpi.first.wpilibj2.command" data-uid="lnk23" id="link_edu.wpi.first.wpilibj2.command.sysid_edu.wpi.first.wpilibj2.command"><polygon fill="#181818" points="830.3079,76.953,839.8082,79.5501,835.2507,76.199,838.6018,71.6416,830.3079,76.953" style="stroke:#181818;stroke-width:1;"/><path d="M1065.9011,41.0151 C996.3365,51.6266 905.8576,65.4285 836.2393,76.0482" fill="none" style="stroke:#181818;stroke-width:1;"/></g><g class="link" data-entity-1="edu.wpi.first.wpilibj2.command.button" data-entity-2="edu.wpi.first.wpilibj.event" data-uid="lnk25" id="link_edu.wpi.first.wpilibj2.command.button_edu.wpi.first.wpilibj.event"><polygon fill="#181818" points="92.6281,141.9393,96.4584,132.8657,92.5342,136.9401,88.4598,133.0159,92.6281,141.9393" style="stroke:#181818;stroke-width:1;"/><path d="M263.6757,36.7194 C201.0325,43.7895 134.8389,56.0409 112.5,77 C94.6049,93.7899 92.1844,118.309 92.5155,135.9403" fill="none" style="stroke:#181818;stroke-width:1;"/></g><g class="link" data-entity-1="edu.wpi.first.wpilibj2.command.button" data-entity-2="edu.wpi.first.wpilibj2.command" data-uid="lnk26" id="link_edu.wpi.first.wpilibj2.command.button_edu.wpi.first.wpilibj2.command"><polygon fill="#181818" points="666.8842,76.953,658.7435,71.4096,661.9646,76.0599,657.3144,79.281,666.8842,76.953" style="stroke:#181818;stroke-width:1;"/><path d="M468.9402,41.0151 C527.388,51.6266 602.4878,65.2615 660.9807,75.8812" fill="none" style="stroke:#181818;stroke-width:1;"/></g><g class="link" data-entity-1="edu.wpi.first.wpilibj2.command.button" data-entity-2="edu.wpi.first.math.filter" data-uid="lnk28" id="link_edu.wpi.first.wpilibj2.command.button_edu.wpi.first.math.filter"><polygon fill="#181818" points="243.9515,76.8987,253.75,77.8934,248.7023,75.3399,251.2558,70.2922,243.9515,76.8987" style="stroke:#181818;stroke-width:1;"/><path d="M353.3112,41.0151 C321.0263,51.6086 282.0046,64.4126 249.6525,75.0281" fill="none" style="stroke:#181818;stroke-width:1;"/></g><g class="link" data-entity-1="edu.wpi.first.wpilibj2.command.button" data-entity-2="edu.wpi.first.networktables" data-uid="lnk30" id="link_edu.wpi.first.wpilibj2.command.button_edu.wpi.first.networktables"><polygon fill="#181818" points="394.5,76.8566,398.5,67.8566,394.5,71.8566,390.5,67.8566,394.5,76.8566" style="stroke:#181818;stroke-width:1;"/><path d="M394.5,41.1701 C394.5,51.7373 394.5,60.2961 394.5,70.8566" fill="none" style="stroke:#181818;stroke-width:1;"/></g><g class="link" data-entity-1="edu.wpi.first.wpilibj2.command.button" data-entity-2="edu.wpi.first.wpilibj" data-uid="lnk31" id="link_edu.wpi.first.wpilibj2.command.button_edu.wpi.first.wpilibj"><polygon fill="#181818" points="333.7412,143.1543,343.3264,145.4182,338.6547,142.2283,341.8447,137.5566,333.7412,143.1543" style="stroke:#181818;stroke-width:1;"/><path d="M437.6514,41.1288 C474.6306,55.0691 518.6838,78.534 496.5,106 C491.279,112.4642 405.6339,129.6043 339.6374,142.0431" fill="none" style="stroke:#181818;stroke-width:1;"/></g><!--SRC=[hLJ1ReCm3BtlAxpU6wHzm7vYnwe74qn9IHoKEAlGj7zV2dIQAhMbWrjYlxnd-na005wxW0U7OB7tII0w4cHyoHc8hU4E0peeKRU7u1DNsbiVG09op2bY6P4amEWenpHzqFcHP1XxfY7Vc8f0cw3jdpkvJdge3TagNaTp5OsVmbGbTUgCgas8SZvPKnxVbFRE8LUmtRvVGP8Ogo9nXUMazpJ51FdVOuVIg3oY8-ayXNu1YVOimLjBOG59Tf7omUYuQ1QAFYzsF-y86udA4SOKQ86fTM8jnlCC2XNxQEwrC-IN43tRrAEAVe5pkCeauda5jnuohLFMi8criJ9hbM_pCCd9XrREdtPSexs1GrkC4JRtgJQmssL4aUF5W2WkY6925Fdtr-A1jZ7bU-XL8yxkz_3rFLzbt98PMWDk5SLnH3CaH-1jpHy0]--></g></svg>