<svg xmlns="http://www.w3.org/2000/svg" xmlns:xlink="http://www.w3.org/1999/xlink" contentStyleType="text/css" data-diagram-type="CLASS" height="177px" preserveAspectRatio="none" style="width:2003px;height:177px;" version="1.1" viewBox="0 0 2003 177" width="2003px" zoomAndPan="magnify"><defs/><g><!--class edu.wpi.first.cameraserver--><g class="entity" data-entity="edu.wpi.first.cameraserver" data-source-line="7" data-uid="ent0002" id="entity_edu.wpi.first.cameraserver"><rect fill="#F1F1F1" height="29.0679" rx="2.5" ry="2.5" style="stroke:#181818;stroke-width:0.5;" width="181.9793" x="6" y="12"/><text fill="#000000" font-family="sans-serif" font-size="14" lengthAdjust="spacing" textLength="175.9793" x="9" y="31.9659">edu.wpi.first.cameraserver</text></g><!--class edu.wpi.first.networktables--><a href="edu/wpi/first/networktables/package-summary.html" target="_top" title="edu/wpi/first/networktables/package-summary.html" xlink:actuate="onRequest" xlink:href="edu/wpi/first/networktables/package-summary.html" xlink:show="new" xlink:title="edu/wpi/first/networktables/package-summary.html" xlink:type="simple"><g class="entity" data-entity="edu.wpi.first.networktables" data-source-line="7" data-uid="ent0003" id="entity_edu.wpi.first.networktables"><rect fill="#F1F1F1" height="29.0679" rx="2.5" ry="2.5" style="stroke:#181818;stroke-width:0.5;" width="185.6753" x="854" y="77"/><text fill="#000000" font-family="sans-serif" font-size="14" lengthAdjust="spacing" textLength="179.6753" x="857" y="96.9659">edu.wpi.first.networktables</text></g></a><!--class edu.wpi.first.epilogue.logging--><g class="entity" data-entity="edu.wpi.first.epilogue.logging" data-source-line="8" data-uid="ent0005" id="entity_edu.wpi.first.epilogue.logging"><rect fill="#F1F1F1" height="29.0679" rx="2.5" ry="2.5" style="stroke:#181818;stroke-width:0.5;" width="202.8952" x="206.5" y="12"/><text fill="#000000" font-family="sans-serif" font-size="14" lengthAdjust="spacing" textLength="196.8952" x="209.5" y="31.9659">edu.wpi.first.epilogue.logging</text></g><!--class edu.wpi.first.util.struct--><g class="entity" data-entity="edu.wpi.first.util.struct" data-source-line="9" data-uid="ent0007" id="entity_edu.wpi.first.util.struct"><rect fill="#F1F1F1" height="29.0679" rx="2.5" ry="2.5" style="stroke:#181818;stroke-width:0.5;" width="154.2594" x="397" y="142"/><text fill="#000000" font-family="sans-serif" font-size="14" lengthAdjust="spacing" textLength="148.2594" x="400" y="161.9659">edu.wpi.first.util.struct</text></g><!--class edu.wpi.first.util.protobuf--><g class="entity" data-entity="edu.wpi.first.util.protobuf" data-source-line="10" data-uid="ent0009" id="entity_edu.wpi.first.util.protobuf"><rect fill="#F1F1F1" height="29.0679" rx="2.5" ry="2.5" style="stroke:#181818;stroke-width:0.5;" width="174.7554" x="569.5" y="142"/><text fill="#000000" font-family="sans-serif" font-size="14" lengthAdjust="spacing" textLength="168.7554" x="572.5" y="161.9659">edu.wpi.first.util.protobuf</text></g><!--class edu.wpi.first.util.function--><g class="entity" data-entity="edu.wpi.first.util.function" data-source-line="11" data-uid="ent0011" id="entity_edu.wpi.first.util.function"><rect fill="#F1F1F1" height="29.0679" rx="2.5" ry="2.5" style="stroke:#181818;stroke-width:0.5;" width="170.9193" x="762.5" y="142"/><text fill="#000000" font-family="sans-serif" font-size="14" lengthAdjust="spacing" textLength="164.9193" x="765.5" y="161.9659">edu.wpi.first.util.function</text></g><!--class edu.wpi.first.util.concurrent--><g class="entity" data-entity="edu.wpi.first.util.concurrent" data-source-line="12" data-uid="ent0013" id="entity_edu.wpi.first.util.concurrent"><rect fill="#F1F1F1" height="29.0679" rx="2.5" ry="2.5" style="stroke:#181818;stroke-width:0.5;" width="188.6713" x="951.5" y="142"/><text fill="#000000" font-family="sans-serif" font-size="14" lengthAdjust="spacing" textLength="182.6713" x="954.5" y="161.9659">edu.wpi.first.util.concurrent</text></g><!--class edu.wpi.first.util.datalog--><g class="entity" data-entity="edu.wpi.first.util.datalog" data-source-line="13" data-uid="ent0015" id="entity_edu.wpi.first.util.datalog"><rect fill="#F1F1F1" height="29.0679" rx="2.5" ry="2.5" style="stroke:#181818;stroke-width:0.5;" width="166.3554" x="1159" y="142"/><text fill="#000000" font-family="sans-serif" font-size="14" lengthAdjust="spacing" textLength="160.3554" x="1162" y="161.9659">edu.wpi.first.util.datalog</text></g><!--class edu.wpi.first.util.sendable--><g class="entity" data-entity="edu.wpi.first.util.sendable" data-source-line="14" data-uid="ent0017" id="entity_edu.wpi.first.util.sendable"><rect fill="#F1F1F1" height="29.0679" rx="2.5" ry="2.5" style="stroke:#181818;stroke-width:0.5;" width="176.1273" x="1343" y="142"/><text fill="#000000" font-family="sans-serif" font-size="14" lengthAdjust="spacing" textLength="170.1273" x="1346" y="161.9659">edu.wpi.first.util.sendable</text></g><!--class edu.wpi.first.wpilibj2.command.button--><g class="entity" data-entity="edu.wpi.first.wpilibj2.command.button" data-source-line="15" data-uid="ent0019" id="entity_edu.wpi.first.wpilibj2.command.button"><rect fill="#F1F1F1" height="29.0679" rx="2.5" ry="2.5" style="stroke:#181818;stroke-width:0.5;" width="260.771" x="427.5" y="12"/><text fill="#000000" font-family="sans-serif" font-size="14" lengthAdjust="spacing" textLength="254.771" x="430.5" y="31.9659">edu.wpi.first.wpilibj2.command.button</text></g><!--class edu.wpi.first.wpilibj--><g class="entity" data-entity="edu.wpi.first.wpilibj" data-source-line="16" data-uid="ent0021" id="entity_edu.wpi.first.wpilibj"><rect fill="#F1F1F1" height="29.0679" rx="2.5" ry="2.5" style="stroke:#181818;stroke-width:0.5;" width="134.2815" x="707" y="12"/><text fill="#000000" font-family="sans-serif" font-size="14" lengthAdjust="spacing" textLength="128.2815" x="710" y="31.9659">edu.wpi.first.wpilibj</text></g><!--class edu.wpi.first.wpilibj.event--><g class="entity" data-entity="edu.wpi.first.wpilibj.event" data-source-line="17" data-uid="ent0023" id="entity_edu.wpi.first.wpilibj.event"><rect fill="#F1F1F1" height="29.0679" rx="2.5" ry="2.5" style="stroke:#181818;stroke-width:0.5;" width="174.6433" x="859.5" y="12"/><text fill="#000000" font-family="sans-serif" font-size="14" lengthAdjust="spacing" textLength="168.6433" x="862.5" y="31.9659">edu.wpi.first.wpilibj.event</text></g><!--class edu.wpi.first.wpilibj.shuffleboard--><g class="entity" data-entity="edu.wpi.first.wpilibj.shuffleboard" data-source-line="18" data-uid="ent0025" id="entity_edu.wpi.first.wpilibj.shuffleboard"><rect fill="#F1F1F1" height="29.0679" rx="2.5" ry="2.5" style="stroke:#181818;stroke-width:0.5;" width="222.5092" x="1052.5" y="12"/><text fill="#000000" font-family="sans-serif" font-size="14" lengthAdjust="spacing" textLength="216.5092" x="1055.5" y="31.9659">edu.wpi.first.wpilibj.shuffleboard</text></g><!--class edu.wpi.first.wpilibj.simulation--><g class="entity" data-entity="edu.wpi.first.wpilibj.simulation" data-source-line="19" data-uid="ent0027" id="entity_edu.wpi.first.wpilibj.simulation"><rect fill="#F1F1F1" height="29.0679" rx="2.5" ry="2.5" style="stroke:#181818;stroke-width:0.5;" width="207.3472" x="1293.5" y="12"/><text fill="#000000" font-family="sans-serif" font-size="14" lengthAdjust="spacing" textLength="201.3472" x="1296.5" y="31.9659">edu.wpi.first.wpilibj.simulation</text></g><!--class edu.wpi.first.wpilibj.livewindow--><g class="entity" data-entity="edu.wpi.first.wpilibj.livewindow" data-source-line="20" data-uid="ent0029" id="entity_edu.wpi.first.wpilibj.livewindow"><rect fill="#F1F1F1" height="29.0679" rx="2.5" ry="2.5" style="stroke:#181818;stroke-width:0.5;" width="211.6172" x="1519" y="12"/><text fill="#000000" font-family="sans-serif" font-size="14" lengthAdjust="spacing" textLength="205.6172" x="1522" y="31.9659">edu.wpi.first.wpilibj.livewindow</text></g><!--class edu.wpi.first.wpilibj.smartdashboard--><g class="entity" data-entity="edu.wpi.first.wpilibj.smartdashboard" data-source-line="21" data-uid="ent0031" id="entity_edu.wpi.first.wpilibj.smartdashboard"><rect fill="#F1F1F1" height="29.0679" rx="2.5" ry="2.5" style="stroke:#181818;stroke-width:0.5;" width="247.6671" x="1749" y="12"/><text fill="#000000" font-family="sans-serif" font-size="14" lengthAdjust="spacing" textLength="241.6671" x="1752" y="31.9659">edu.wpi.first.wpilibj.smartdashboard</text></g><g class="link" data-entity-1="edu.wpi.first.cameraserver" data-entity-2="edu.wpi.first.networktables" data-uid="lnk4" id="link_edu.wpi.first.cameraserver_edu.wpi.first.networktables"><polygon fill="#181818" points="853.8767,86.4014,845.0757,81.981,848.8823,86.1654,844.6979,89.972,853.8767,86.4014" style="stroke:#181818;stroke-width:1;"/><path d="M188.2553,40.0809 C191.2031,40.4037 194.1239,40.7113 197,41 C432.9826,64.6883 705.9284,79.408 847.8834,86.1181" fill="none" style="stroke:#181818;stroke-width:1;"/></g><g class="link" data-entity-1="edu.wpi.first.epilogue.logging" data-entity-2="edu.wpi.first.networktables" data-uid="lnk6" id="link_edu.wpi.first.epilogue.logging_edu.wpi.first.networktables"><polygon fill="#181818" points="853.7488,82.5925,845.1275,77.8309,848.7675,82.1611,844.4373,85.8011,853.7488,82.5925" style="stroke:#181818;stroke-width:1;"/><path d="M409.5761,40.0743 C412.4139,40.3908 415.2263,40.7001 418,41 C570.4628,57.4854 742.0247,72.9175 847.7712,82.0748" fill="none" style="stroke:#181818;stroke-width:1;"/></g><g class="link" data-entity-1="edu.wpi.first.networktables" data-entity-2="edu.wpi.first.util.struct" data-uid="lnk8" id="link_edu.wpi.first.networktables_edu.wpi.first.util.struct"><polygon fill="#181818" points="551.3395,143.253,560.825,145.9036,556.2865,142.5269,559.6632,137.9884,551.3395,143.253" style="stroke:#181818;stroke-width:1;"/><path d="M853.846,103.66 C775.3945,113.2396 660.2521,127.7229 560,142 C557.1571,142.4049 560.1989,141.9526 557.2759,142.3817" fill="none" style="stroke:#181818;stroke-width:1;"/></g><g class="link" data-entity-1="edu.wpi.first.networktables" data-entity-2="edu.wpi.first.util.protobuf" data-uid="lnk10" id="link_edu.wpi.first.networktables_edu.wpi.first.util.protobuf"><polygon fill="#181818" points="719.6091,141.8987,729.2531,143.8969,724.4951,140.8373,727.5548,136.0793,719.6091,141.8987" style="stroke:#181818;stroke-width:1;"/><path d="M884.7877,106.0151 C836.0241,116.6086 774.3375,130.0094 725.4723,140.625" fill="none" style="stroke:#181818;stroke-width:1;"/></g><g class="link" data-entity-1="edu.wpi.first.networktables" data-entity-2="edu.wpi.first.util.function" data-uid="lnk12" id="link_edu.wpi.first.networktables_edu.wpi.first.util.function"><polygon fill="#181818" points="869.4396,141.8566,879.1801,140.3994,873.6579,139.1722,874.8851,133.6501,869.4396,141.8566" style="stroke:#181818;stroke-width:1;"/><path d="M925.5185,106.1701 C908.9129,116.7373 891.0966,128.0749 874.5016,138.6354" fill="none" style="stroke:#181818;stroke-width:1;"/></g><g class="link" data-entity-1="edu.wpi.first.networktables" data-entity-2="edu.wpi.first.util.concurrent" data-uid="lnk14" id="link_edu.wpi.first.networktables_edu.wpi.first.util.concurrent"><polygon fill="#181818" points="1024.5604,141.8566,1019.1149,133.6501,1020.3421,139.1722,1014.8199,140.3994,1024.5604,141.8566" style="stroke:#181818;stroke-width:1;"/><path d="M968.4815,106.1701 C985.0871,116.7373 1002.9034,128.0749 1019.4984,138.6354" fill="none" style="stroke:#181818;stroke-width:1;"/></g><g class="link" data-entity-1="edu.wpi.first.networktables" data-entity-2="edu.wpi.first.util.datalog" data-uid="lnk16" id="link_edu.wpi.first.networktables_edu.wpi.first.util.datalog"><polygon fill="#181818" points="1178.5658,141.953,1170.5997,136.1616,1173.676,140.9088,1168.9289,143.9852,1178.5658,141.953" style="stroke:#181818;stroke-width:1;"/><path d="M1010.2849,106.0151 C1059.9739,116.6266 1122.9707,130.0802 1172.6981,140.6999" fill="none" style="stroke:#181818;stroke-width:1;"/></g><g class="link" data-entity-1="edu.wpi.first.networktables" data-entity-2="edu.wpi.first.util.sendable" data-uid="lnk18" id="link_edu.wpi.first.networktables_edu.wpi.first.util.sendable"><polygon fill="#181818" points="1342.9774,143.2061,1334.594,138.0371,1338.0224,142.5367,1333.5228,145.9651,1342.9774,143.2061" style="stroke:#181818;stroke-width:1;"/><path d="M1040.0914,104.1136 C1118.5052,113.9665 1233.6273,128.5965 1334,142 C1336.9493,142.3938 1334.0026,141.9936 1337.0314,142.4028" fill="none" style="stroke:#181818;stroke-width:1;"/></g><g class="link" data-entity-1="edu.wpi.first.wpilibj2.command.button" data-entity-2="edu.wpi.first.networktables" data-uid="lnk20" id="link_edu.wpi.first.wpilibj2.command.button_edu.wpi.first.networktables"><polygon fill="#181818" points="863.3528,76.953,855.1081,71.5656,858.4172,76.1537,853.8291,79.4627,863.3528,76.953" style="stroke:#181818;stroke-width:1;"/><path d="M641.4503,41.0151 C706.9724,51.6266 791.8573,65.3741 857.43,75.9938" fill="none" style="stroke:#181818;stroke-width:1;"/></g><g class="link" data-entity-1="edu.wpi.first.wpilibj" data-entity-2="edu.wpi.first.networktables" data-uid="lnk22" id="link_edu.wpi.first.wpilibj_edu.wpi.first.networktables"><polygon fill="#181818" points="909.6505,76.8987,902.5625,70.0606,904.9523,75.1878,899.825,77.5776,909.6505,76.8987" style="stroke:#181818;stroke-width:1;"/><path d="M811.1128,41.0151 C840.2029,51.6086 874.8621,64.2301 904.0126,74.8456" fill="none" style="stroke:#181818;stroke-width:1;"/></g><g class="link" data-entity-1="edu.wpi.first.wpilibj.event" data-entity-2="edu.wpi.first.networktables" data-uid="lnk24" id="link_edu.wpi.first.wpilibj.event_edu.wpi.first.networktables"><polygon fill="#181818" points="947,76.8566,951,67.8566,947,71.8566,943,67.8566,947,76.8566" style="stroke:#181818;stroke-width:1;"/><path d="M947,41.1701 C947,51.7373 947,60.2961 947,70.8566" fill="none" style="stroke:#181818;stroke-width:1;"/></g><g class="link" data-entity-1="edu.wpi.first.wpilibj.shuffleboard" data-entity-2="edu.wpi.first.networktables" data-uid="lnk26" id="link_edu.wpi.first.wpilibj.shuffleboard_edu.wpi.first.networktables"><polygon fill="#181818" points="993.8488,76.8987,1003.6072,78.2308,998.6506,75.5047,1001.3767,70.548,993.8488,76.8987" style="stroke:#181818;stroke-width:1;"/><path d="M1117.4481,41.0151 C1080.9594,51.6086 1036.1755,64.6103 999.6109,75.2259" fill="none" style="stroke:#181818;stroke-width:1;"/></g><g class="link" data-entity-1="edu.wpi.first.wpilibj.simulation" data-entity-2="edu.wpi.first.networktables" data-uid="lnk28" id="link_edu.wpi.first.wpilibj.simulation_edu.wpi.first.networktables"><polygon fill="#181818" points="1040.2958,77.4386,1049.7634,80.1521,1045.2475,76.7454,1048.6543,72.2294,1040.2958,77.4386" style="stroke:#181818;stroke-width:1;"/><path d="M1300.4637,41.0151 C1223.5047,51.7893 1122.3334,65.9533 1046.2378,76.6067" fill="none" style="stroke:#181818;stroke-width:1;"/></g><g class="link" data-entity-1="edu.wpi.first.wpilibj.livewindow" data-entity-2="edu.wpi.first.networktables" data-uid="lnk30" id="link_edu.wpi.first.wpilibj.livewindow_edu.wpi.first.networktables"><polygon fill="#181818" points="1040.2237,83.1409,1049.5162,86.4042,1045.2075,82.7388,1048.8729,78.4302,1040.2237,83.1409" style="stroke:#181818;stroke-width:1;"/><path d="M1518.8064,40.0804 C1515.8397,40.3952 1512.8996,40.7024 1510,41 C1344.7995,57.9553 1157.9331,73.645 1046.2043,82.6584" fill="none" style="stroke:#181818;stroke-width:1;"/></g><g class="link" data-entity-1="edu.wpi.first.wpilibj.smartdashboard" data-entity-2="edu.wpi.first.networktables" data-uid="lnk32" id="link_edu.wpi.first.wpilibj.smartdashboard_edu.wpi.first.networktables"><polygon fill="#181818" points="1040.1708,85.8586,1049.365,89.3895,1045.1642,85.601,1048.9527,81.4002,1040.1708,85.8586" style="stroke:#181818;stroke-width:1;"/><path d="M1748.7682,40.2636 C1745.8176,40.5172 1742.8914,40.7631 1740,41 C1487.207,61.7117 1194.4405,77.8984 1046.1629,85.5494" fill="none" style="stroke:#181818;stroke-width:1;"/></g><!--SRC=[fPJ1RiCW38RlUmglzr9f3x2NsB7gmG4dOG4J6TEeclRkerqrhLKrJUGI4N_-VuoD001udWM7Y13mb8f2ZgJ8-5G9vCdpZ88HEhJJ8Acmioaa0HNaN16nVcUI0cEa6hFqHcUHrZHEJ1S-UaTWlTZmwv_Yh2VeFGMNxwErYZ5Tm-IAMMPlUYzPZQtR26QI8mbijwztc4cN99DY5-YHd6OVqb38rE_WUMYmkE4Fz4LzC5cbM6rLpv8qTQLlrVU5hVh4hNgRs1Rv6M-3WqF5skBczX6xSy83VLq5txs_r29ZH7QcAwg96mPvTMfN6ZhM5gtGvx7qVQ0keRWrDZwMWEU1hp09_aYBPvUMDPL457MOn_yVoGRC6JP_f6rWlwzuL_7kWdStU5SVdGa7skPIBuISpAWn70xmyVa5]--></g></svg>