<svg xmlns="http://www.w3.org/2000/svg" xmlns:xlink="http://www.w3.org/1999/xlink" contentStyleType="text/css" data-diagram-type="CLASS" height="177px" preserveAspectRatio="none" style="width:614px;height:177px;" version="1.1" viewBox="0 0 614 177" width="614px" zoomAndPan="magnify"><defs/><g><!--class edu.wpi.first.apriltag--><a href="edu/wpi/first/apriltag/package-summary.html" target="_top" title="edu/wpi/first/apriltag/package-summary.html" xlink:actuate="onRequest" xlink:href="edu/wpi/first/apriltag/package-summary.html" xlink:show="new" xlink:title="edu/wpi/first/apriltag/package-summary.html" xlink:type="simple"><g class="entity" data-entity="edu.wpi.first.apriltag" data-source-line="7" data-uid="ent0002" id="entity_edu.wpi.first.apriltag"><rect fill="#F1F1F1" height="29.0679" rx="2.5" ry="2.5" style="stroke:#181818;stroke-width:0.5;" width="142.5975" x="253.5" y="77"/><text fill="#000000" font-family="sans-serif" font-size="14" lengthAdjust="spacing" textLength="136.5975" x="256.5" y="96.9659">edu.wpi.first.apriltag</text></g></a><!--class edu.wpi.first.math.geometry--><g class="entity" data-entity="edu.wpi.first.math.geometry" data-source-line="7" data-uid="ent0003" id="entity_edu.wpi.first.math.geometry"><rect fill="#F1F1F1" height="29.0679" rx="2.5" ry="2.5" style="stroke:#181818;stroke-width:0.5;" width="193.9493" x="6" y="142"/><text fill="#000000" font-family="sans-serif" font-size="14" lengthAdjust="spacing" textLength="187.9493" x="9" y="161.9659">edu.wpi.first.math.geometry</text></g><!--class edu.wpi.first.util--><g class="entity" data-entity="edu.wpi.first.util" data-source-line="8" data-uid="ent0005" id="entity_edu.wpi.first.util"><rect fill="#F1F1F1" height="29.0679" rx="2.5" ry="2.5" style="stroke:#181818;stroke-width:0.5;" width="112.5396" x="218.5" y="142"/><text fill="#000000" font-family="sans-serif" font-size="14" lengthAdjust="spacing" textLength="106.5396" x="221.5" y="161.9659">edu.wpi.first.util</text></g><!--class org.opencv.core--><g class="entity" data-entity="org.opencv.core" data-source-line="9" data-uid="ent0007" id="entity_org.opencv.core"><rect fill="#F1F1F1" height="29.0679" rx="2.5" ry="2.5" style="stroke:#181818;stroke-width:0.5;" width="112.6936" x="349.5" y="142"/><text fill="#000000" font-family="sans-serif" font-size="14" lengthAdjust="spacing" textLength="106.6936" x="352.5" y="161.9659">org.opencv.core</text></g><!--class edu.wpi.first.math--><g class="entity" data-entity="edu.wpi.first.math" data-source-line="10" data-uid="ent0009" id="entity_edu.wpi.first.math"><rect fill="#F1F1F1" height="29.0679" rx="2.5" ry="2.5" style="stroke:#181818;stroke-width:0.5;" width="126.2595" x="481" y="142"/><text fill="#000000" font-family="sans-serif" font-size="14" lengthAdjust="spacing" textLength="120.2595" x="484" y="161.9659">edu.wpi.first.math</text></g><!--class edu.wpi.first.apriltag.jni--><a href="edu/wpi/first/apriltag/jni/package-summary.html" target="_top" title="edu/wpi/first/apriltag/jni/package-summary.html" xlink:actuate="onRequest" xlink:href="edu/wpi/first/apriltag/jni/package-summary.html" xlink:show="new" xlink:title="edu/wpi/first/apriltag/jni/package-summary.html" xlink:type="simple"><g class="entity" data-entity="edu.wpi.first.apriltag.jni" data-source-line="11" data-uid="ent0011" id="entity_edu.wpi.first.apriltag.jni"><rect fill="#F1F1F1" height="29.0679" rx="2.5" ry="2.5" style="stroke:#181818;stroke-width:0.5;" width="162.2254" x="144" y="12"/><text fill="#000000" font-family="sans-serif" font-size="14" lengthAdjust="spacing" textLength="156.2254" x="147" y="31.9659">edu.wpi.first.apriltag.jni</text></g></a><g class="link" data-entity-1="edu.wpi.first.apriltag" data-entity-2="edu.wpi.first.math.geometry" data-uid="lnk4" id="link_edu.wpi.first.apriltag_edu.wpi.first.math.geometry"><polygon fill="#181818" points="150.9283,141.8987,160.6784,143.2897,155.7384,140.5337,158.4944,135.5936,150.9283,141.8987" style="stroke:#181818;stroke-width:1;"/><path d="M277.3754,106.0151 C240.046,116.6086 194.1075,129.6452 156.7004,140.2607" fill="none" style="stroke:#181818;stroke-width:1;"/></g><g class="link" data-entity-1="edu.wpi.first.apriltag" data-entity-2="edu.wpi.first.util" data-uid="lnk6" id="link_edu.wpi.first.apriltag_edu.wpi.first.util"><polygon fill="#181818" points="285.8281,141.8566,294.5562,137.2936,288.9364,137.9402,288.2898,132.3204,285.8281,141.8566" style="stroke:#181818;stroke-width:1;"/><path d="M314.1507,106.1701 C305.7641,116.7373 297.9394,126.5964 289.558,137.1569" fill="none" style="stroke:#181818;stroke-width:1;"/></g><g class="link" data-entity-1="edu.wpi.first.apriltag" data-entity-2="org.opencv.core" data-uid="lnk8" id="link_edu.wpi.first.apriltag_org.opencv.core"><polygon fill="#181818" points="388.4585,141.8566,383.8101,133.1737,384.5117,138.7869,378.8986,139.4886,388.4585,141.8566" style="stroke:#181818;stroke-width:1;"/><path d="M342.5758,106.1701 C356.1622,116.7373 370.1446,127.6125 383.7224,138.173" fill="none" style="stroke:#181818;stroke-width:1;"/></g><g class="link" data-entity-1="edu.wpi.first.apriltag" data-entity-2="edu.wpi.first.math" data-uid="lnk10" id="link_edu.wpi.first.apriltag_edu.wpi.first.math"><polygon fill="#181818" points="496.7194,141.8987,489.176,135.5665,491.9142,140.5164,486.9643,143.2547,496.7194,141.8987" style="stroke:#181818;stroke-width:1;"/><path d="M371.981,106.0151 C408.8059,116.6086 454.0516,129.6244 490.9532,140.24" fill="none" style="stroke:#181818;stroke-width:1;"/></g><g class="link" data-entity-1="edu.wpi.first.apriltag.jni" data-entity-2="edu.wpi.first.apriltag" data-uid="lnk12" id="link_edu.wpi.first.apriltag.jni_edu.wpi.first.apriltag"><polygon fill="#181818" points="303.3438,76.8566,297.8612,68.6749,299.1134,74.1914,293.5969,75.4436,303.3438,76.8566" style="stroke:#181818;stroke-width:1;"/><path d="M246.6985,41.1701 C263.4719,51.7373 281.5046,63.0979 298.2673,73.6584" fill="none" style="stroke:#181818;stroke-width:1;"/></g><g class="link" data-entity-1="edu.wpi.first.apriltag.jni" data-entity-2="edu.wpi.first.math.geometry" data-uid="lnk13" id="link_edu.wpi.first.apriltag.jni_edu.wpi.first.math.geometry"><polygon fill="#181818" points="115.9623,141.9003,125.0672,138.1452,119.4119,138.2809,119.2762,132.6257,115.9623,141.9003" style="stroke:#181818;stroke-width:1;"/><path d="M211.9439,41.1982 C188.4623,65.8346 143.515,112.9924 120.1019,137.557" fill="none" style="stroke:#181818;stroke-width:1;"/></g><g class="link" data-entity-1="edu.wpi.first.apriltag.jni" data-entity-2="edu.wpi.first.util" data-uid="lnk14" id="link_edu.wpi.first.apriltag.jni_edu.wpi.first.util"><polygon fill="#181818" points="264.7735,141.8647,262.8584,132.2039,261.8931,137.7777,256.3193,136.8125,264.7735,141.8647" style="stroke:#181818;stroke-width:1;"/><path d="M226.9515,41.254 C229.5331,57.2664 234.8593,84.2888 244,106 C249.4297,118.8967 254.5573,127.3689 261.3171,136.9604" fill="none" style="stroke:#181818;stroke-width:1;"/></g><!--SRC=[bP99RiCm34NtFGMRlUKRz19P1bcmCYEhrWIAIc4KkNkPf2cA84Ezr7zy7mGX083NmkWYGi0vDu4QIJ3XYnAeaqy56IEyevqSvvO6cqDc4CPK5L6IyoG998oacQKr7INHiPGJdVZe1mBhsOO_Ruf5PjXv2aEzJdMBCV_4D3JpMRpPUQvYiB0FWWwwxkqAHPJHECegyxnCRUB3CoEpCxbGidjZCzFotHuOvYFv6zO5BpV_Uuix-kyzRC1QONLRNi5cewHNqfz8Vo6zVeG97NMrnOWycr5Ys6xX2mxFQuyxFQXMUhV-y0q0]--></g></svg>