<svg xmlns="http://www.w3.org/2000/svg" xmlns:xlink="http://www.w3.org/1999/xlink" contentStyleType="text/css" height="514px" preserveAspectRatio="none" style="width:1539px;height:514px;background:#FFFFFF;" version="1.1" viewBox="0 0 1539 514" width="1539px" zoomAndPan="magnify"><defs/><g><!--cluster com.pathplanner.lib.controllers--><g id="cluster_com.pathplanner.lib.controllers"><path d="M16.5,4 L267.7363,4 A3.75,3.75 0 0 1 270.2363,6.5 L277.2363,26.2969 L1276.5,26.2969 A2.5,2.5 0 0 1 1279,28.7969 L1279,478.5 A2.5,2.5 0 0 1 1276.5,481 L16.5,481 A2.5,2.5 0 0 1 14,478.5 L14,6.5 A2.5,2.5 0 0 1 16.5,4 " fill="none" style="stroke:#000000;stroke-width:1.5;"/><line style="stroke:#000000;stroke-width:1.5;" x1="14" x2="277.2363" y1="26.2969" y2="26.2969"/><text fill="#000000" font-family="sans-serif" font-size="14" font-weight="bold" lengthAdjust="spacing" textLength="250.2363" x="18" y="18.9951">com.pathplanner.lib.controllers</text></g><!--cluster edu.wpi.first.math.controller--><g id="cluster_edu.wpi.first.math.controller"><path d="M1289.5,28.5 L1519.6201,28.5 A3.75,3.75 0 0 1 1522.1201,31 L1529.1201,50.7969 L1529.5,50.7969 A2.5,2.5 0 0 1 1532,53.2969 L1532,109 A2.5,2.5 0 0 1 1529.5,111.5 L1289.5,111.5 A2.5,2.5 0 0 1 1287,109 L1287,31 A2.5,2.5 0 0 1 1289.5,28.5 " fill="none" style="stroke:#000000;stroke-width:1.5;"/><line style="stroke:#000000;stroke-width:1.5;" x1="1287" x2="1529.1201" y1="50.7969" y2="50.7969"/><text fill="#000000" font-family="sans-serif" font-size="14" font-weight="bold" lengthAdjust="spacing" textLength="229.1201" x="1291" y="43.4951">edu.wpi.first.math.controller</text></g><!--class PathFollowingController--><a href="PathFollowingController.html" target="_top" title="PathFollowingController.html" xlink:actuate="onRequest" xlink:href="PathFollowingController.html" xlink:show="new" xlink:title="PathFollowingController.html" xlink:type="simple"><g id="elem_PathFollowingController"><rect codeLine="12" fill="#F1F1F1" height="96.8906" id="PathFollowingController" rx="2.5" ry="2.5" style="stroke:#181818;stroke-width:0.5;" width="615.3398" x="338.5" y="31"/><ellipse cx="558.6104" cy="47" fill="#B4A7E5" rx="11" ry="11" style="stroke:#181818;stroke-width:1.0;"/><path d="M554.5322,42.7656 L554.5322,40.6094 L561.9229,40.6094 L561.9229,42.7656 L559.4541,42.7656 L559.4541,50.8438 L561.9229,50.8438 L561.9229,53 L554.5322,53 L554.5322,50.8438 L557.001,50.8438 L557.001,42.7656 L554.5322,42.7656 Z " fill="#000000"/><text fill="#000000" font-family="sans-serif" font-size="14" font-style="italic" lengthAdjust="spacing" textLength="166.6191" x="579.1104" y="51.8467">PathFollowingController</text><line style="stroke:#181818;stroke-width:0.5;" x1="339.5" x2="952.8398" y1="63" y2="63"/><line style="stroke:#181818;stroke-width:0.5;" x1="339.5" x2="952.8398" y1="71" y2="71"/><ellipse cx="349.5" cy="84.6484" fill="#84BE84" rx="3" ry="3" style="stroke:#038048;stroke-width:1.0;"/><text fill="#000000" font-family="sans-serif" font-size="14" font-style="italic" lengthAdjust="spacing" textLength="589.3398" x="358.5" y="87.9951">calculateRobotRelativeSpeeds(Pose2d, PathPlannerTrajectoryState): ChassisSpeeds</text><ellipse cx="349.5" cy="100.9453" fill="#84BE84" rx="3" ry="3" style="stroke:#038048;stroke-width:1.0;"/><text fill="#000000" font-family="sans-serif" font-size="14" font-style="italic" lengthAdjust="spacing" textLength="249.2725" x="358.5" y="104.292">reset(Pose2d, ChassisSpeeds): void</text><ellipse cx="349.5" cy="117.2422" fill="#84BE84" rx="3" ry="3" style="stroke:#038048;stroke-width:1.0;"/><text fill="#000000" font-family="sans-serif" font-size="14" font-style="italic" lengthAdjust="spacing" textLength="161.458" x="358.5" y="120.5889">isHolonomic(): boolean</text></g></a><!--class PPLTVController--><a href="PPLTVController.html" target="_top" title="PPLTVController.html" xlink:actuate="onRequest" xlink:href="PPLTVController.html" xlink:show="new" xlink:title="PPLTVController.html" xlink:type="simple"><g id="elem_PPLTVController"><rect codeLine="18" fill="#F1F1F1" height="162.0781" id="PPLTVController" rx="2.5" ry="2.5" style="stroke:#181818;stroke-width:0.5;" width="615.3398" x="655.5" y="237.5"/><ellipse cx="902.9268" cy="253.5" fill="#ADD1B2" rx="11" ry="11" style="stroke:#181818;stroke-width:1.0;"/><path d="M905.8955,259.1406 Q905.3174,259.4375 904.6768,259.5781 Q904.0361,259.7344 903.333,259.7344 Q900.833,259.7344 899.5049,258.0938 Q898.1924,256.4375 898.1924,253.3125 Q898.1924,250.1875 899.5049,248.5313 Q900.833,246.875 903.333,246.875 Q904.0361,246.875 904.6768,247.0313 Q905.333,247.1875 905.8955,247.4844 L905.8955,250.2031 Q905.2705,249.625 904.6768,249.3594 Q904.083,249.0781 903.458,249.0781 Q902.1143,249.0781 901.4268,250.1563 Q900.7393,251.2188 900.7393,253.3125 Q900.7393,255.4063 901.4268,256.4844 Q902.1143,257.5469 903.458,257.5469 Q904.083,257.5469 904.6768,257.2813 Q905.2705,257 905.8955,256.4219 L905.8955,259.1406 Z " fill="#000000"/><text fill="#000000" font-family="sans-serif" font-size="14" lengthAdjust="spacing" textLength="111.9863" x="923.4268" y="258.3467">PPLTVController</text><line style="stroke:#181818;stroke-width:0.5;" x1="656.5" x2="1269.8398" y1="269.5" y2="269.5"/><line style="stroke:#181818;stroke-width:0.5;" x1="656.5" x2="1269.8398" y1="277.5" y2="277.5"/><ellipse cx="666.5" cy="291.1484" fill="#84BE84" rx="3" ry="3" style="stroke:#038048;stroke-width:1.0;"/><text fill="#000000" font-family="sans-serif" font-size="14" lengthAdjust="spacing" textLength="170.625" x="675.5" y="294.4951">PPLTVController(double)</text><ellipse cx="666.5" cy="307.4453" fill="#84BE84" rx="3" ry="3" style="stroke:#038048;stroke-width:1.0;"/><text fill="#000000" font-family="sans-serif" font-size="14" lengthAdjust="spacing" textLength="227.2402" x="675.5" y="310.792">PPLTVController(double, double)</text><ellipse cx="666.5" cy="323.7422" fill="#84BE84" rx="3" ry="3" style="stroke:#038048;stroke-width:1.0;"/><text fill="#000000" font-family="sans-serif" font-size="14" lengthAdjust="spacing" textLength="365.5039" x="675.5" y="327.0889">PPLTVController(Vector&lt;N3&gt;, Vector&lt;N2&gt;, double)</text><ellipse cx="666.5" cy="340.0391" fill="#84BE84" rx="3" ry="3" style="stroke:#038048;stroke-width:1.0;"/><text fill="#000000" font-family="sans-serif" font-size="14" lengthAdjust="spacing" textLength="422.1191" x="675.5" y="343.3857">PPLTVController(Vector&lt;N3&gt;, Vector&lt;N2&gt;, double, double)</text><ellipse cx="666.5" cy="356.3359" fill="#84BE84" rx="3" ry="3" style="stroke:#038048;stroke-width:1.0;"/><text fill="#000000" font-family="sans-serif" font-size="14" lengthAdjust="spacing" textLength="589.3398" x="675.5" y="359.6826">calculateRobotRelativeSpeeds(Pose2d, PathPlannerTrajectoryState): ChassisSpeeds</text><ellipse cx="666.5" cy="372.6328" fill="#84BE84" rx="3" ry="3" style="stroke:#038048;stroke-width:1.0;"/><text fill="#000000" font-family="sans-serif" font-size="14" lengthAdjust="spacing" textLength="249.2725" x="675.5" y="375.9795">reset(Pose2d, ChassisSpeeds): void</text><ellipse cx="666.5" cy="388.9297" fill="#84BE84" rx="3" ry="3" style="stroke:#038048;stroke-width:1.0;"/><text fill="#000000" font-family="sans-serif" font-size="14" lengthAdjust="spacing" textLength="161.458" x="675.5" y="392.2764">isHolonomic(): boolean</text></g></a><!--class PPHolonomicDriveController--><a href="PPHolonomicDriveController.html" target="_top" title="PPHolonomicDriveController.html" xlink:actuate="onRequest" xlink:href="PPHolonomicDriveController.html" xlink:show="new" xlink:title="PPHolonomicDriveController.html" xlink:type="simple"><g id="elem_PPHolonomicDriveController"><rect codeLine="28" fill="#F1F1F1" height="308.75" id="PPHolonomicDriveController" rx="2.5" ry="2.5" style="stroke:#181818;stroke-width:0.5;" width="615.3398" x="22.5" y="164"/><ellipse cx="227.1235" cy="180" fill="#ADD1B2" rx="11" ry="11" style="stroke:#181818;stroke-width:1.0;"/><path d="M230.0923,185.6406 Q229.5142,185.9375 228.8735,186.0781 Q228.2329,186.2344 227.5298,186.2344 Q225.0298,186.2344 223.7017,184.5938 Q222.3892,182.9375 222.3892,179.8125 Q222.3892,176.6875 223.7017,175.0313 Q225.0298,173.375 227.5298,173.375 Q228.2329,173.375 228.8735,173.5313 Q229.5298,173.6875 230.0923,173.9844 L230.0923,176.7031 Q229.4673,176.125 228.8735,175.8594 Q228.2798,175.5781 227.6548,175.5781 Q226.311,175.5781 225.6235,176.6563 Q224.936,177.7188 224.936,179.8125 Q224.936,181.9063 225.6235,182.9844 Q226.311,184.0469 227.6548,184.0469 Q228.2798,184.0469 228.8735,183.7813 Q229.4673,183.5 230.0923,182.9219 L230.0923,185.6406 Z " fill="#000000"/><text fill="#000000" font-family="sans-serif" font-size="14" lengthAdjust="spacing" textLength="197.5928" x="247.6235" y="184.8467">PPHolonomicDriveController</text><line style="stroke:#181818;stroke-width:0.5;" x1="23.5" x2="636.8398" y1="196" y2="196"/><line style="stroke:#181818;stroke-width:0.5;" x1="23.5" x2="636.8398" y1="204" y2="204"/><ellipse cx="33.5" cy="217.6484" fill="#84BE84" rx="3" ry="3" style="stroke:#038048;stroke-width:1.0;"/><text fill="#000000" font-family="sans-serif" font-size="14" lengthAdjust="spacing" textLength="461.2002" x="42.5" y="220.9951">PPHolonomicDriveController(PIDConstants, PIDConstants, double)</text><ellipse cx="33.5" cy="233.9453" fill="#84BE84" rx="3" ry="3" style="stroke:#038048;stroke-width:1.0;"/><text fill="#000000" font-family="sans-serif" font-size="14" lengthAdjust="spacing" textLength="404.585" x="42.5" y="237.292">PPHolonomicDriveController(PIDConstants, PIDConstants)</text><ellipse cx="33.5" cy="250.2422" fill="#84BE84" rx="3" ry="3" style="stroke:#038048;stroke-width:1.0;"/><text fill="#000000" font-family="sans-serif" font-size="14" lengthAdjust="spacing" textLength="183.6611" x="42.5" y="253.5889">setEnabled(boolean): void</text><ellipse cx="33.5" cy="266.5391" fill="#84BE84" rx="3" ry="3" style="stroke:#038048;stroke-width:1.0;"/><text fill="#000000" font-family="sans-serif" font-size="14" lengthAdjust="spacing" textLength="249.2725" x="42.5" y="269.8857">reset(Pose2d, ChassisSpeeds): void</text><ellipse cx="33.5" cy="282.8359" fill="#84BE84" rx="3" ry="3" style="stroke:#038048;stroke-width:1.0;"/><text fill="#000000" font-family="sans-serif" font-size="14" lengthAdjust="spacing" textLength="589.3398" x="42.5" y="286.1826">calculateRobotRelativeSpeeds(Pose2d, PathPlannerTrajectoryState): ChassisSpeeds</text><ellipse cx="33.5" cy="299.1328" fill="#84BE84" rx="3" ry="3" style="stroke:#038048;stroke-width:1.0;"/><text fill="#000000" font-family="sans-serif" font-size="14" lengthAdjust="spacing" textLength="161.458" x="42.5" y="302.4795">isHolonomic(): boolean</text><ellipse cx="33.5" cy="315.4297" fill="#84BE84" rx="3" ry="3" style="stroke:#038048;stroke-width:1.0;"/><text fill="#000000" font-family="sans-serif" font-size="14" lengthAdjust="spacing" text-decoration="underline" textLength="187.2705" x="42.5" y="318.7764">setRotationTargetOverride</text><text fill="#000000" font-family="sans-serif" font-size="14" lengthAdjust="spacing" text-decoration="underline" textLength="290.4863" x="229.7705" y="318.7764">(Supplier&lt;Optional&lt;Rotation2d&gt;&gt;): void</text><ellipse cx="33.5" cy="331.7266" fill="#84BE84" rx="3" ry="3" style="stroke:#038048;stroke-width:1.0;"/><text fill="#000000" font-family="sans-serif" font-size="14" lengthAdjust="spacing" text-decoration="underline" textLength="292.4004" x="42.5" y="335.0732">overrideXFeedback(DoubleSupplier): void</text><ellipse cx="33.5" cy="348.0234" fill="#84BE84" rx="3" ry="3" style="stroke:#038048;stroke-width:1.0;"/><text fill="#000000" font-family="sans-serif" font-size="14" lengthAdjust="spacing" text-decoration="underline" textLength="222.0996" x="42.5" y="351.3701">clearXFeedbackOverride(): void</text><ellipse cx="33.5" cy="364.3203" fill="#84BE84" rx="3" ry="3" style="stroke:#038048;stroke-width:1.0;"/><text fill="#000000" font-family="sans-serif" font-size="14" lengthAdjust="spacing" text-decoration="underline" textLength="291.3613" x="42.5" y="367.667">overrideYFeedback(DoubleSupplier): void</text><ellipse cx="33.5" cy="380.6172" fill="#84BE84" rx="3" ry="3" style="stroke:#038048;stroke-width:1.0;"/><text fill="#000000" font-family="sans-serif" font-size="14" lengthAdjust="spacing" text-decoration="underline" textLength="221.0605" x="42.5" y="383.9639">clearYFeedbackOverride(): void</text><ellipse cx="33.5" cy="396.9141" fill="#84BE84" rx="3" ry="3" style="stroke:#038048;stroke-width:1.0;"/><text fill="#000000" font-family="sans-serif" font-size="14" lengthAdjust="spacing" text-decoration="underline" textLength="417.1426" x="42.5" y="400.2607">overrideXYFeedback(DoubleSupplier, DoubleSupplier): void</text><ellipse cx="33.5" cy="413.2109" fill="#84BE84" rx="3" ry="3" style="stroke:#038048;stroke-width:1.0;"/><text fill="#000000" font-family="sans-serif" font-size="14" lengthAdjust="spacing" text-decoration="underline" textLength="230.6514" x="42.5" y="416.5576">clearXYFeedbackOverride(): void</text><ellipse cx="33.5" cy="429.5078" fill="#84BE84" rx="3" ry="3" style="stroke:#038048;stroke-width:1.0;"/><text fill="#000000" font-family="sans-serif" font-size="14" lengthAdjust="spacing" text-decoration="underline" textLength="341.9883" x="42.5" y="432.8545">overrideRotationFeedback(DoubleSupplier): void</text><ellipse cx="33.5" cy="445.8047" fill="#84BE84" rx="3" ry="3" style="stroke:#038048;stroke-width:1.0;"/><text fill="#000000" font-family="sans-serif" font-size="14" lengthAdjust="spacing" text-decoration="underline" textLength="271.6875" x="42.5" y="449.1514">clearRotationFeedbackOverride(): void</text><ellipse cx="33.5" cy="462.1016" fill="#84BE84" rx="3" ry="3" style="stroke:#038048;stroke-width:1.0;"/><text fill="#000000" font-family="sans-serif" font-size="14" lengthAdjust="spacing" text-decoration="underline" textLength="219.8027" x="42.5" y="465.4482">clearFeedbackOverrides(): void</text></g></a><!--class LTVUnicycleController--><a href="https://github.wpilib.org/allwpilib/docs/release/java/edu/wpi/first/math/controller/LTVUnicycleController.html?is-external=true" target="_top" title="https://github.wpilib.org/allwpilib/docs/release/java/edu/wpi/first/math/controller/LTVUnicycleController.html?is-external=true" xlink:actuate="onRequest" xlink:href="https://github.wpilib.org/allwpilib/docs/release/java/edu/wpi/first/math/controller/LTVUnicycleController.html?is-external=true" xlink:show="new" xlink:title="https://github.wpilib.org/allwpilib/docs/release/java/edu/wpi/first/math/controller/LTVUnicycleController.html?is-external=true" xlink:type="simple"><g id="elem_LTVUnicycleController"><rect codeLine="50" fill="#F1F1F1" height="48" id="LTVUnicycleController" rx="2.5" ry="2.5" style="stroke:#181818;stroke-width:0.5;" width="186.2939" x="1295" y="55.5"/><ellipse cx="1310" cy="71.5" fill="#ADD1B2" rx="11" ry="11" style="stroke:#181818;stroke-width:1.0;"/><path d="M1312.9688,77.1406 Q1312.3906,77.4375 1311.75,77.5781 Q1311.1094,77.7344 1310.4063,77.7344 Q1307.9063,77.7344 1306.5781,76.0938 Q1305.2656,74.4375 1305.2656,71.3125 Q1305.2656,68.1875 1306.5781,66.5313 Q1307.9063,64.875 1310.4063,64.875 Q1311.1094,64.875 1311.75,65.0313 Q1312.4063,65.1875 1312.9688,65.4844 L1312.9688,68.2031 Q1312.3438,67.625 1311.75,67.3594 Q1311.1563,67.0781 1310.5313,67.0781 Q1309.1875,67.0781 1308.5,68.1563 Q1307.8125,69.2188 1307.8125,71.3125 Q1307.8125,73.4063 1308.5,74.4844 Q1309.1875,75.5469 1310.5313,75.5469 Q1311.1563,75.5469 1311.75,75.2813 Q1312.3438,75 1312.9688,74.4219 L1312.9688,77.1406 Z " fill="#000000"/><text fill="#000000" font-family="sans-serif" font-size="14" lengthAdjust="spacing" textLength="154.2939" x="1324" y="76.3467">LTVUnicycleController</text><line style="stroke:#181818;stroke-width:0.5;" x1="1296" x2="1480.2939" y1="87.5" y2="87.5"/><line style="stroke:#181818;stroke-width:0.5;" x1="1296" x2="1480.2939" y1="95.5" y2="95.5"/></g></a><polygon fill="none" points="1346.4754,103.6561,1327.8323,107.1825,1333.6768,117.663,1346.4754,103.6561" style="stroke:#181818;stroke-width:1.0;"/><path d="M1330.7545,112.4228 C1275.5086,143.2305 1190.723,190.5109 1106.4632,237.4982 " fill="none" style="stroke:#181818;stroke-width:1.0;"/><polygon fill="none" points="709.7684,128.1754,720.592,143.759,727.7774,134.1481,709.7684,128.1754" style="stroke:#181818;stroke-width:1.0;"/><path d="M724.1847,138.9536 C766.0397,170.2458 807.3992,201.1676 855.9506,237.4662 " fill="none" style="stroke:#181818;stroke-width:1.0;stroke-dasharray:7.0,7.0;"/><polygon fill="none" points="582.4328,128.1754,564.4328,134.1754,571.6328,143.7754,582.4328,128.1754" style="stroke:#181818;stroke-width:1.0;"/><path d="M568.0328,138.9754 C553.5244,149.8567 551.738,151.1965 534.7599,163.9301 " fill="none" style="stroke:#181818;stroke-width:1.0;stroke-dasharray:7.0,7.0;"/><text fill="#888888" font-family="sans-serif" font-size="10" lengthAdjust="spacing" textLength="3.1787" x="759.9106" y="492.2822">&#160;</text><a href="https://github.com/talsma-ict/umldoclet" target="_top" title="https://github.com/talsma-ict/umldoclet" xlink:actuate="onRequest" xlink:href="https://github.com/talsma-ict/umldoclet" xlink:show="new" xlink:title="https://github.com/talsma-ict/umldoclet" xlink:type="simple"><text fill="#888888" font-family="sans-serif" font-size="10" lengthAdjust="spacing" textLength="82.3096" x="720.3452" y="503.9229">UMLDoclet 2.2.1</text></a><!--SRC=[pLRVRzis47xlNt537wQWbkIeIPC8deV0MNyCRciaJj4kymCbNMGsDAcIL3AZpV- -asGhbcirYR42qujDyUxxlhkZZWS0y2iCL3RNF9rQi0hib1iuVpi49XD8KQ9c5XFWCvQYWGY5agcf315ORgTAWxeiLx7I6ascPC9b2d-oQmP6vJf6uprv0YNLU8b-mymAUZGlNfweMA05Px2p8YdexhvmWswm3sCcp8p1cy7OMw3T-GHUuEq2OGiUepG4cSi4TIdhE6Cn_GohdGvSepPSIVBfBd2AK6CbBUFIGCQqDKL88y6aBRJkUiI_vns0StmsR6hh7fNQEd2i9SiJE5LVyZhSNpBDKb8is5pb5imCBPEit3AasI1HCKlv2yFAWOHUKPf9oypBc9rcf81Iv0aUUOK-hOGWyV2rCYyUBYtgInOZZCZX9Hce6yh-eBQ6YukM7MzgPs8o8JHOURwoo5ZDOdiBps8cubnGXKvLfEmfqbz-ZMSPOcASaJ8O99sITrG97Mls6MEAQ7vcoMidXC6K6SDDvTBAGwS6RGtOy26CQyMJLbTkNYiwach6OuTi8wK4CbcRtzvbAXO42wFHSFoXcPtccyrPURPcvIGgZmJkFCIe0myo_b1chlVkURy3o_z1_pznRW7vcULzR4stA6HjVw99zbfDspPRozlcu8pUdD3AqATh3QMZiMgfpHPOQnYKkpya8-p4MMHYOz8Uc-IVMl5xAbX-kHIivJ5zjwvBoazLiLHop7IAzZqrPiqJT5tdBCyomL7ttcV5FXEzfMcGzFiRUqADh1Om7r-In8WwgdDILcc9-MDlkasOhbsNafo7KNxQdlBJbfGVspWxyFYmjnMnBCxsuQyZF510wRlkOxvpMZIFs-OjYqdktMJSk-JQM6z6ftxbabrf45M_eNvxBday9yf6gvbQcvdGzrDkftbK01QtjTAfpuIeLdwYOkDh9B46_Syq5_d4xTEcNtBx1RT_n-rlv2exr-_SkFWFNVdqJVncTOwDLdQx6kOFmml3pV7qlhdkVUD76AxTFYNT_Kujyqdlc-VzJodR-dYLu9wnSu7zElkNIjd6mIcUr_CCzP3Bgm5XQNXwk7dtl9XM1PT80t9y9P4EN7Ujh3r_XM_1zRVyxW1IMBuj9sMNnzRFPoAfHkIrONaoMGo_h-efl9XatUw-6noCkuTXS1Jk7talki_tWiE3tRs_Bbwz7K_-1G00]--></g></svg>