<svg xmlns="http://www.w3.org/2000/svg" xmlns:xlink="http://www.w3.org/1999/xlink" contentStyleType="text/css" height="679px" preserveAspectRatio="none" style="width:913px;height:679px;background:#FFFFFF;" version="1.1" viewBox="0 0 913 679" width="913px" zoomAndPan="magnify"><defs/><g><!--cluster com.pathplanner.lib.config--><g id="cluster_com.pathplanner.lib.config"><path d="M16.5,4 L231.1025,4 A3.75,3.75 0 0 1 233.6025,6.5 L240.6025,26.2969 L903.5,26.2969 A2.5,2.5 0 0 1 906,28.7969 L906,643.5 A2.5,2.5 0 0 1 903.5,646 L16.5,646 A2.5,2.5 0 0 1 14,643.5 L14,6.5 A2.5,2.5 0 0 1 16.5,4 " fill="none" style="stroke:#000000;stroke-width:1.5;"/><line style="stroke:#000000;stroke-width:1.5;" x1="14" x2="240.6025" y1="26.2969" y2="26.2969"/><text fill="#000000" font-family="sans-serif" font-size="14" font-weight="bold" lengthAdjust="spacing" textLength="213.6025" x="18" y="18.9951">com.pathplanner.lib.config</text></g><!--class ModuleConfig--><a href="ModuleConfig.html" target="_top" title="ModuleConfig.html" xlink:actuate="onRequest" xlink:href="ModuleConfig.html" xlink:show="new" xlink:title="ModuleConfig.html" xlink:type="simple"><g id="elem_ModuleConfig"><rect codeLine="12" fill="#F1F1F1" height="227.2656" id="ModuleConfig" rx="2.5" ry="2.5" style="stroke:#181818;stroke-width:0.5;" width="574.7139" x="322.5" y="411"/><ellipse cx="557.6938" cy="427" fill="#ADD1B2" rx="11" ry="11" style="stroke:#181818;stroke-width:1.0;"/><path d="M560.6626,432.6406 Q560.0845,432.9375 559.4438,433.0781 Q558.8032,433.2344 558.1001,433.2344 Q555.6001,433.2344 554.272,431.5938 Q552.9595,429.9375 552.9595,426.8125 Q552.9595,423.6875 554.272,422.0313 Q555.6001,420.375 558.1001,420.375 Q558.8032,420.375 559.4438,420.5313 Q560.1001,420.6875 560.6626,420.9844 L560.6626,423.7031 Q560.0376,423.125 559.4438,422.8594 Q558.8501,422.5781 558.2251,422.5781 Q556.8813,422.5781 556.1938,423.6563 Q555.5063,424.7188 555.5063,426.8125 Q555.5063,428.9063 556.1938,429.9844 Q556.8813,431.0469 558.2251,431.0469 Q558.8501,431.0469 559.4438,430.7813 Q560.0376,430.5 560.6626,429.9219 L560.6626,432.6406 Z " fill="#000000"/><text fill="#000000" font-family="sans-serif" font-size="14" lengthAdjust="spacing" textLength="95.8262" x="578.1938" y="431.8467">ModuleConfig</text><line style="stroke:#181818;stroke-width:0.5;" x1="323.5" x2="896.2139" y1="443" y2="443"/><ellipse cx="333.5" cy="456.6484" fill="none" rx="3" ry="3" style="stroke:#038048;stroke-width:1.0;"/><text fill="#000000" font-family="sans-serif" font-size="14" lengthAdjust="spacing" textLength="193.416" x="342.5" y="459.9951">wheelRadiusMeters: double</text><ellipse cx="333.5" cy="472.9453" fill="none" rx="3" ry="3" style="stroke:#038048;stroke-width:1.0;"/><text fill="#000000" font-family="sans-serif" font-size="14" lengthAdjust="spacing" textLength="210.123" x="342.5" y="476.292">maxDriveVelocityMPS: double</text><ellipse cx="333.5" cy="489.2422" fill="none" rx="3" ry="3" style="stroke:#038048;stroke-width:1.0;"/><text fill="#000000" font-family="sans-serif" font-size="14" lengthAdjust="spacing" textLength="127.1689" x="342.5" y="492.5889">wheelCOF: double</text><ellipse cx="333.5" cy="505.5391" fill="none" rx="3" ry="3" style="stroke:#038048;stroke-width:1.0;"/><text fill="#000000" font-family="sans-serif" font-size="14" lengthAdjust="spacing" textLength="146.0635" x="342.5" y="508.8857">driveMotor: DCMotor</text><ellipse cx="333.5" cy="521.8359" fill="none" rx="3" ry="3" style="stroke:#038048;stroke-width:1.0;"/><text fill="#000000" font-family="sans-serif" font-size="14" lengthAdjust="spacing" textLength="180.1543" x="342.5" y="525.1826">driveCurrentLimit: double</text><ellipse cx="333.5" cy="538.1328" fill="none" rx="3" ry="3" style="stroke:#038048;stroke-width:1.0;"/><text fill="#000000" font-family="sans-serif" font-size="14" lengthAdjust="spacing" textLength="255.917" x="342.5" y="541.4795">maxDriveVelocityRadPerSec: double</text><ellipse cx="333.5" cy="554.4297" fill="none" rx="3" ry="3" style="stroke:#038048;stroke-width:1.0;"/><text fill="#000000" font-family="sans-serif" font-size="14" lengthAdjust="spacing" textLength="134.0186" x="342.5" y="557.7764">torqueLoss: double</text><line style="stroke:#181818;stroke-width:0.5;" x1="323.5" x2="896.2139" y1="565.0781" y2="565.0781"/><ellipse cx="333.5" cy="578.7266" fill="#84BE84" rx="3" ry="3" style="stroke:#038048;stroke-width:1.0;"/><text fill="#000000" font-family="sans-serif" font-size="14" lengthAdjust="spacing" textLength="421.374" x="342.5" y="582.0732">ModuleConfig(double, double, double, DCMotor, double, int)</text><ellipse cx="333.5" cy="595.0234" fill="#84BE84" rx="3" ry="3" style="stroke:#038048;stroke-width:1.0;"/><text fill="#000000" font-family="sans-serif" font-size="14" lengthAdjust="spacing" textLength="492.0986" x="342.5" y="598.3701">ModuleConfig(Distance, LinearVelocity, double, DCMotor, Current, int)</text><ellipse cx="333.5" cy="611.3203" fill="#84BE84" rx="3" ry="3" style="stroke:#038048;stroke-width:1.0;"/><text fill="#000000" font-family="sans-serif" font-size="14" lengthAdjust="spacing" textLength="477.9893" x="342.5" y="614.667">ModuleConfig(double, double, double, DCMotor, double, double, int)</text><ellipse cx="333.5" cy="627.6172" fill="#84BE84" rx="3" ry="3" style="stroke:#038048;stroke-width:1.0;"/><text fill="#000000" font-family="sans-serif" font-size="14" lengthAdjust="spacing" textLength="548.7139" x="342.5" y="630.9639">ModuleConfig(Distance, LinearVelocity, double, DCMotor, double, Current, int)</text></g></a><!--class RobotConfig--><a href="RobotConfig.html" target="_top" title="RobotConfig.html" xlink:actuate="onRequest" xlink:href="RobotConfig.html" xlink:show="new" xlink:title="RobotConfig.html" xlink:type="simple"><g id="elem_RobotConfig"><rect codeLine="26" fill="#F1F1F1" height="325.0469" id="RobotConfig" rx="2.5" ry="2.5" style="stroke:#181818;stroke-width:0.5;" width="508.8701" x="388.5" y="31"/><ellipse cx="595.6084" cy="47" fill="#ADD1B2" rx="11" ry="11" style="stroke:#181818;stroke-width:1.0;"/><path d="M598.5771,52.6406 Q597.999,52.9375 597.3584,53.0781 Q596.7178,53.2344 596.0146,53.2344 Q593.5146,53.2344 592.1865,51.5938 Q590.874,49.9375 590.874,46.8125 Q590.874,43.6875 592.1865,42.0313 Q593.5146,40.375 596.0146,40.375 Q596.7178,40.375 597.3584,40.5313 Q598.0146,40.6875 598.5771,40.9844 L598.5771,43.7031 Q597.9521,43.125 597.3584,42.8594 Q596.7646,42.5781 596.1396,42.5781 Q594.7959,42.5781 594.1084,43.6563 Q593.4209,44.7188 593.4209,46.8125 Q593.4209,48.9063 594.1084,49.9844 Q594.7959,51.0469 596.1396,51.0469 Q596.7646,51.0469 597.3584,50.7813 Q597.9521,50.5 598.5771,49.9219 L598.5771,52.6406 Z " fill="#000000"/><text fill="#000000" font-family="sans-serif" font-size="14" lengthAdjust="spacing" textLength="86.1533" x="616.1084" y="51.8467">RobotConfig</text><line style="stroke:#181818;stroke-width:0.5;" x1="389.5" x2="896.3701" y1="63" y2="63"/><ellipse cx="399.5" cy="76.6484" fill="none" rx="3" ry="3" style="stroke:#038048;stroke-width:1.0;"/><text fill="#000000" font-family="sans-serif" font-size="14" lengthAdjust="spacing" textLength="113.7158" x="408.5" y="79.9951">massKG: double</text><ellipse cx="399.5" cy="92.9453" fill="none" rx="3" ry="3" style="stroke:#038048;stroke-width:1.0;"/><text fill="#000000" font-family="sans-serif" font-size="14" lengthAdjust="spacing" textLength="84.1094" x="408.5" y="96.292">MOI: double</text><ellipse cx="399.5" cy="109.2422" fill="none" rx="3" ry="3" style="stroke:#038048;stroke-width:1.0;"/><text fill="#000000" font-family="sans-serif" font-size="14" lengthAdjust="spacing" textLength="235.4434" x="408.5" y="112.5889">moduleLocations: Translation2d[]</text><ellipse cx="399.5" cy="125.5391" fill="none" rx="3" ry="3" style="stroke:#038048;stroke-width:1.0;"/><text fill="#000000" font-family="sans-serif" font-size="14" lengthAdjust="spacing" textLength="150.5342" x="408.5" y="128.8857">isHolonomic: boolean</text><ellipse cx="399.5" cy="141.8359" fill="none" rx="3" ry="3" style="stroke:#038048;stroke-width:1.0;"/><text fill="#000000" font-family="sans-serif" font-size="14" lengthAdjust="spacing" textLength="117.0039" x="408.5" y="145.1826">numModules: int</text><ellipse cx="399.5" cy="158.1328" fill="none" rx="3" ry="3" style="stroke:#038048;stroke-width:1.0;"/><text fill="#000000" font-family="sans-serif" font-size="14" lengthAdjust="spacing" textLength="216.1592" x="408.5" y="161.4795">modulePivotDistance: double[]</text><ellipse cx="399.5" cy="174.4297" fill="none" rx="3" ry="3" style="stroke:#038048;stroke-width:1.0;"/><text fill="#000000" font-family="sans-serif" font-size="14" lengthAdjust="spacing" textLength="189.2188" x="408.5" y="177.7764">wheelFrictionForce: double</text><ellipse cx="399.5" cy="190.7266" fill="none" rx="3" ry="3" style="stroke:#038048;stroke-width:1.0;"/><text fill="#000000" font-family="sans-serif" font-size="14" lengthAdjust="spacing" textLength="188.8428" x="408.5" y="194.0732">maxTorqueFriction: double</text><line style="stroke:#181818;stroke-width:0.5;" x1="389.5" x2="896.3701" y1="201.375" y2="201.375"/><ellipse cx="399.5" cy="215.0234" fill="#84BE84" rx="3" ry="3" style="stroke:#038048;stroke-width:1.0;"/><text fill="#000000" font-family="sans-serif" font-size="14" lengthAdjust="spacing" textLength="424.5186" x="408.5" y="218.3701">RobotConfig(double, double, ModuleConfig, Translation2d...)</text><ellipse cx="399.5" cy="231.3203" fill="#84BE84" rx="3" ry="3" style="stroke:#038048;stroke-width:1.0;"/><text fill="#000000" font-family="sans-serif" font-size="14" lengthAdjust="spacing" textLength="482.8701" x="408.5" y="234.667">RobotConfig(Mass, MomentOfInertia, ModuleConfig, Translation2d...)</text><ellipse cx="399.5" cy="247.6172" fill="#84BE84" rx="3" ry="3" style="stroke:#038048;stroke-width:1.0;"/><text fill="#000000" font-family="sans-serif" font-size="14" lengthAdjust="spacing" textLength="362.749" x="408.5" y="250.9639">RobotConfig(double, double, ModuleConfig, double)</text><ellipse cx="399.5" cy="263.9141" fill="#84BE84" rx="3" ry="3" style="stroke:#038048;stroke-width:1.0;"/><text fill="#000000" font-family="sans-serif" font-size="14" lengthAdjust="spacing" textLength="434.6016" x="408.5" y="267.2607">RobotConfig(Mass, MomentOfInertia, ModuleConfig, Distance)</text><ellipse cx="399.5" cy="280.2109" fill="#84BE84" rx="3" ry="3" style="stroke:#038048;stroke-width:1.0;"/><text fill="#000000" font-family="sans-serif" font-size="14" lengthAdjust="spacing" textLength="435.6816" x="408.5" y="283.5576">toSwerveModuleStates(ChassisSpeeds): SwerveModuleState[]</text><ellipse cx="399.5" cy="296.5078" fill="#84BE84" rx="3" ry="3" style="stroke:#038048;stroke-width:1.0;"/><text fill="#000000" font-family="sans-serif" font-size="14" lengthAdjust="spacing" textLength="392.998" x="408.5" y="299.8545">toChassisSpeeds(SwerveModuleState[]): ChassisSpeeds</text><ellipse cx="399.5" cy="312.8047" fill="#84BE84" rx="3" ry="3" style="stroke:#038048;stroke-width:1.0;"/><text fill="#000000" font-family="sans-serif" font-size="14" lengthAdjust="spacing" textLength="480.8535" x="408.5" y="316.1514">chassisForcesToWheelForceVectors(ChassisSpeeds): Translation2d[]</text><ellipse cx="399.5" cy="329.1016" fill="#84BE84" rx="3" ry="3" style="stroke:#038048;stroke-width:1.0;"/><text fill="#000000" font-family="sans-serif" font-size="14" lengthAdjust="spacing" text-decoration="underline" textLength="221.7783" x="408.5" y="332.4482">fromGUISettings(): RobotConfig</text><ellipse cx="399.5" cy="345.3984" fill="#84BE84" rx="3" ry="3" style="stroke:#038048;stroke-width:1.0;"/><text fill="#000000" font-family="sans-serif" font-size="14" lengthAdjust="spacing" textLength="180.5508" x="408.5" y="348.7451">hasValidConfig(): boolean</text></g></a><!--class PIDConstants--><a href="PIDConstants.html" target="_top" title="PIDConstants.html" xlink:actuate="onRequest" xlink:href="PIDConstants.html" xlink:show="new" xlink:title="PIDConstants.html" xlink:type="simple"><g id="elem_PIDConstants"><rect codeLine="46" fill="#F1F1F1" height="178.375" id="PIDConstants" rx="2.5" ry="2.5" style="stroke:#181818;stroke-width:0.5;" width="348.0684" x="22" y="104.5"/><ellipse cx="144.9922" cy="120.5" fill="#ADD1B2" rx="11" ry="11" style="stroke:#181818;stroke-width:1.0;"/><path d="M147.9609,126.1406 Q147.3828,126.4375 146.7422,126.5781 Q146.1016,126.7344 145.3984,126.7344 Q142.8984,126.7344 141.5703,125.0938 Q140.2578,123.4375 140.2578,120.3125 Q140.2578,117.1875 141.5703,115.5313 Q142.8984,113.875 145.3984,113.875 Q146.1016,113.875 146.7422,114.0313 Q147.3984,114.1875 147.9609,114.4844 L147.9609,117.2031 Q147.3359,116.625 146.7422,116.3594 Q146.1484,116.0781 145.5234,116.0781 Q144.1797,116.0781 143.4922,117.1563 Q142.8047,118.2188 142.8047,120.3125 Q142.8047,122.4063 143.4922,123.4844 Q144.1797,124.5469 145.5234,124.5469 Q146.1484,124.5469 146.7422,124.2813 Q147.3359,124 147.9609,123.4219 L147.9609,126.1406 Z " fill="#000000"/><text fill="#000000" font-family="sans-serif" font-size="14" lengthAdjust="spacing" textLength="93.584" x="165.4922" y="125.3467">PIDConstants</text><line style="stroke:#181818;stroke-width:0.5;" x1="23" x2="369.0684" y1="136.5" y2="136.5"/><ellipse cx="33" cy="150.1484" fill="none" rx="3" ry="3" style="stroke:#038048;stroke-width:1.0;"/><text fill="#000000" font-family="sans-serif" font-size="14" lengthAdjust="spacing" textLength="73.4316" x="42" y="153.4951">kP: double</text><ellipse cx="33" cy="166.4453" fill="none" rx="3" ry="3" style="stroke:#038048;stroke-width:1.0;"/><text fill="#000000" font-family="sans-serif" font-size="14" lengthAdjust="spacing" textLength="69.1182" x="42" y="169.792">kI: double</text><ellipse cx="33" cy="182.7422" fill="none" rx="3" ry="3" style="stroke:#038048;stroke-width:1.0;"/><text fill="#000000" font-family="sans-serif" font-size="14" lengthAdjust="spacing" textLength="75.7695" x="42" y="186.0889">kD: double</text><ellipse cx="33" cy="199.0391" fill="none" rx="3" ry="3" style="stroke:#038048;stroke-width:1.0;"/><text fill="#000000" font-family="sans-serif" font-size="14" lengthAdjust="spacing" textLength="96.4141" x="42" y="202.3857">iZone: double</text><line style="stroke:#181818;stroke-width:0.5;" x1="23" x2="369.0684" y1="209.6875" y2="209.6875"/><ellipse cx="33" cy="223.3359" fill="#84BE84" rx="3" ry="3" style="stroke:#038048;stroke-width:1.0;"/><text fill="#000000" font-family="sans-serif" font-size="14" lengthAdjust="spacing" textLength="322.0684" x="42" y="226.6826">PIDConstants(double, double, double, double)</text><ellipse cx="33" cy="239.6328" fill="#84BE84" rx="3" ry="3" style="stroke:#038048;stroke-width:1.0;"/><text fill="#000000" font-family="sans-serif" font-size="14" lengthAdjust="spacing" textLength="265.4531" x="42" y="242.9795">PIDConstants(double, double, double)</text><ellipse cx="33" cy="255.9297" fill="#84BE84" rx="3" ry="3" style="stroke:#038048;stroke-width:1.0;"/><text fill="#000000" font-family="sans-serif" font-size="14" lengthAdjust="spacing" textLength="208.8379" x="42" y="259.2764">PIDConstants(double, double)</text><ellipse cx="33" cy="272.2266" fill="#84BE84" rx="3" ry="3" style="stroke:#038048;stroke-width:1.0;"/><text fill="#000000" font-family="sans-serif" font-size="14" lengthAdjust="spacing" textLength="152.2227" x="42" y="275.5732">PIDConstants(double)</text></g></a><polygon fill="#181818" points="621.2951,410.8917,626.1733,402.3358,621.7941,405.9167,618.2133,401.5374,621.2951,410.8917" style="stroke:#181818;stroke-width:1.0;"/><path d="M626.79,356.1085 C624.9318,374.6341 623.6676,387.2385 621.8939,404.9217 " fill="none" style="stroke:#181818;stroke-width:1.0;"/><text fill="#000000" font-family="sans-serif" font-size="13" lengthAdjust="spacing" textLength="90.4287" x="626" y="388.0669">moduleConfig</text><text fill="#888888" font-family="sans-serif" font-size="10" lengthAdjust="spacing" textLength="3.1787" x="446.9106" y="657.2822">&#160;</text><a href="https://github.com/talsma-ict/umldoclet" target="_top" title="https://github.com/talsma-ict/umldoclet" xlink:actuate="onRequest" xlink:href="https://github.com/talsma-ict/umldoclet" xlink:show="new" xlink:title="https://github.com/talsma-ict/umldoclet" xlink:type="simple"><text fill="#888888" font-family="sans-serif" font-size="10" lengthAdjust="spacing" textLength="82.3096" x="407.3452" y="668.9229">UMLDoclet 2.2.1</text></a><!--SRC=[hLRVRzf847xlNp6dFXmemHWkQNhMgL9ab9GUA2YGL2h7ms8lUCLwrzqT9qLL__UERKXiiDD8FLxCxdupyytFNG20Fy7NoTQ8TOI06Z0I5kx68s0gX3LNt33a8OYOhRc59PTQhMq1vC1IZBG1lSfNWJQ6sqIhKAWrV68F3AnEJS2jy-ODvAPcU-sFp9QqBxVPva07aYEq_7Q9Kj_jlUlqtVuvp9YqCOEXFtDssfvb-axVwG7fbYBWofBAL8NSvBGk4nRGPrISdC83DrPeHJBkJa_cQg0LCg4i9CoWpLoQIAOmuzfpoFwPSm6jo-ceoitzE-Ts2fT6iJI4M_qrVNBtZyImDJ6MRAjJ11jpP8hbHvOuMqwc65ByFAyG8A8R2ZDnYPs4OPGG0mgH8yNI8NuhiORl1JBx1P9P2sCTffBxnUbyNbuw4SPoiI0PAFrE7YFEvIqBHMh772aO7eGwNKfUXSNisy281tvFAGy4RiUJQJqmr-VVNDMVXfcEiIOtFHZu-PyQW9zIwIWSYLZWw-YG0nDkfZoeXvCPoiH8smRlod5g5O1JEFpk-3vl28Nj5_GCXAKC1mGS2SMPsNEjqRXp-9SgNqtj_wUutwYd-kEm46_rKkDJ7PPM3MKOaz2_rmtPkHasL47koqW73Ac5ARSpmvIL-QeVpXTLjB0VDSqh7GkgagNMaZDLHQWqBi93giYzEcCJyQ1n7xOzgqDBUGzS6H5aHAwqUKOULV4ihymzjXvMYjvH1PJJULhrtt6SThEYCGKy4uyfcJUh8GqM5EmtzBrChDZzNJhxkBSFktlwo4qsLpBm5EaIiIq_8et2JXFEGzlsu0Xoc3JK5P5MZG2fgM2g2eBYAC-tdUdFUH5aYtiUK0iTKtgfMh-JfoY27t2oCZg-lXjEEI9TfBP5WgN0LIcGWNicHRWBQlkupeyQTJ8S43gBAzrpytbvsT2gcqbzcMuQkdGpgDyNNxHgQ8moYyQXLrjJhv1ylSIlaKSJSFTflhCzhpmQEvqFBsBBzUz1N5eLTlwnk9NymnEBbTPqXnzaxECsuOO6_CQd-MVWxVlwqxliZIJf7g1dMR1Hd8h3BRcNc-kMxEri_QVcymWniLwtknOOfHdxk8lv-wn3SwsRnZ8i7cO7JxJ5OlVakdvw-sNlfuvxtkbVpDpttb-kvxhE-Jlted_ME-jzcL-FPukV]--></g></svg>