<svg xmlns="http://www.w3.org/2000/svg" xmlns:xlink="http://www.w3.org/1999/xlink" contentStyleType="text/css" height="765px" preserveAspectRatio="none" style="width:5299px;height:765px;background:#FFFFFF;" version="1.1" viewBox="0 0 5299 765" width="5299px" zoomAndPan="magnify"><defs/><g><!--cluster com.pathplanner.lib.commands--><g id="cluster_com.pathplanner.lib.commands"><path d="M16.5,95 L267.1689,95 A3.75,3.75 0 0 1 269.6689,97.5 L276.6689,117.2969 L5289.5,117.2969 A2.5,2.5 0 0 1 5292,119.7969 L5292,729.5 A2.5,2.5 0 0 1 5289.5,732 L16.5,732 A2.5,2.5 0 0 1 14,729.5 L14,97.5 A2.5,2.5 0 0 1 16.5,95 " fill="none" style="stroke:#000000;stroke-width:1.5;"/><line style="stroke:#000000;stroke-width:1.5;" x1="14" x2="276.6689" y1="117.2969" y2="117.2969"/><text fill="#000000" font-family="sans-serif" font-size="14" font-weight="bold" lengthAdjust="spacing" textLength="249.6689" x="18" y="109.9951">com.pathplanner.lib.commands</text></g><!--cluster edu.wpi.first.wpilibj2.command--><g id="cluster_edu.wpi.first.wpilibj2.command"><path d="M1980.5,4 L2231.2715,4 A3.75,3.75 0 0 1 2233.7715,6.5 L2240.7715,26.2969 L2335.5,26.2969 A2.5,2.5 0 0 1 2338,28.7969 L2338,84.5 A2.5,2.5 0 0 1 2335.5,87 L1980.5,87 A2.5,2.5 0 0 1 1978,84.5 L1978,6.5 A2.5,2.5 0 0 1 1980.5,4 " fill="none" style="stroke:#000000;stroke-width:1.5;"/><line style="stroke:#000000;stroke-width:1.5;" x1="1978" x2="2240.7715" y1="26.2969" y2="26.2969"/><text fill="#000000" font-family="sans-serif" font-size="14" font-weight="bold" lengthAdjust="spacing" textLength="249.7715" x="1982" y="18.9951">edu.wpi.first.wpilibj2.command</text></g><!--class PathfindingCommand--><a href="PathfindingCommand.html" target="_top" title="PathfindingCommand.html" xlink:actuate="onRequest" xlink:href="PathfindingCommand.html" xlink:show="new" xlink:title="PathfindingCommand.html" xlink:type="simple"><g id="elem_PathfindingCommand"><rect codeLine="12" fill="#F1F1F1" height="194.6719" id="PathfindingCommand" rx="2.5" ry="2.5" style="stroke:#181818;stroke-width:0.5;" width="1615.8066" x="2016" y="325.5"/><ellipse cx="2743.8701" cy="341.5" fill="#ADD1B2" rx="11" ry="11" style="stroke:#181818;stroke-width:1.0;"/><path d="M2746.8389,347.1406 Q2746.2607,347.4375 2745.6201,347.5781 Q2744.9795,347.7344 2744.2764,347.7344 Q2741.7764,347.7344 2740.4482,346.0938 Q2739.1357,344.4375 2739.1357,341.3125 Q2739.1357,338.1875 2740.4482,336.5313 Q2741.7764,334.875 2744.2764,334.875 Q2744.9795,334.875 2745.6201,335.0313 Q2746.2764,335.1875 2746.8389,335.4844 L2746.8389,338.2031 Q2746.2139,337.625 2745.6201,337.3594 Q2745.0264,337.0781 2744.4014,337.0781 Q2743.0576,337.0781 2742.3701,338.1563 Q2741.6826,339.2188 2741.6826,341.3125 Q2741.6826,343.4063 2742.3701,344.4844 Q2743.0576,345.5469 2744.4014,345.5469 Q2745.0264,345.5469 2745.6201,345.2813 Q2746.2139,345 2746.8389,344.4219 L2746.8389,347.1406 Z " fill="#000000"/><text fill="#000000" font-family="sans-serif" font-size="14" lengthAdjust="spacing" textLength="151.5664" x="2764.3701" y="346.3467">PathfindingCommand</text><line style="stroke:#181818;stroke-width:0.5;" x1="2017" x2="3630.8066" y1="357.5" y2="357.5"/><line style="stroke:#181818;stroke-width:0.5;" x1="2017" x2="3630.8066" y1="365.5" y2="365.5"/><ellipse cx="2027" cy="379.1484" fill="#84BE84" rx="3" ry="3" style="stroke:#038048;stroke-width:1.0;"/><text fill="#000000" font-family="sans-serif" font-size="14" lengthAdjust="spacing" textLength="1589.8066" x="2036" y="382.4951">PathfindingCommand(PathPlannerPath, PathConstraints, Supplier&lt;Pose2d&gt;, Supplier&lt;ChassisSpeeds&gt;, BiConsumer&lt;ChassisSpeeds, DriveFeedforwards&gt;, PathFollowingController, RobotConfig, BooleanSupplier, Subsystem...)</text><ellipse cx="2027" cy="395.4453" fill="#84BE84" rx="3" ry="3" style="stroke:#038048;stroke-width:1.0;"/><text fill="#000000" font-family="sans-serif" font-size="14" lengthAdjust="spacing" textLength="1458.0645" x="2036" y="398.792">PathfindingCommand(Pose2d, PathConstraints, double, Supplier&lt;Pose2d&gt;, Supplier&lt;ChassisSpeeds&gt;, BiConsumer&lt;ChassisSpeeds, DriveFeedforwards&gt;, PathFollowingController, RobotConfig, Subsystem...)</text><ellipse cx="2027" cy="411.7422" fill="#84BE84" rx="3" ry="3" style="stroke:#038048;stroke-width:1.0;"/><text fill="#000000" font-family="sans-serif" font-size="14" lengthAdjust="spacing" textLength="1509.8672" x="2036" y="415.0889">PathfindingCommand(Pose2d, PathConstraints, LinearVelocity, Supplier&lt;Pose2d&gt;, Supplier&lt;ChassisSpeeds&gt;, BiConsumer&lt;ChassisSpeeds, DriveFeedforwards&gt;, PathFollowingController, RobotConfig, Subsystem...)</text><ellipse cx="2027" cy="428.0391" fill="#84BE84" rx="3" ry="3" style="stroke:#038048;stroke-width:1.0;"/><text fill="#000000" font-family="sans-serif" font-size="14" lengthAdjust="spacing" textLength="1401.4492" x="2036" y="431.3857">PathfindingCommand(Pose2d, PathConstraints, Supplier&lt;Pose2d&gt;, Supplier&lt;ChassisSpeeds&gt;, BiConsumer&lt;ChassisSpeeds, DriveFeedforwards&gt;, PathFollowingController, RobotConfig, Subsystem...)</text><ellipse cx="2027" cy="444.3359" fill="#84BE84" rx="3" ry="3" style="stroke:#038048;stroke-width:1.0;"/><text fill="#000000" font-family="sans-serif" font-size="14" lengthAdjust="spacing" textLength="108.0693" x="2036" y="447.6826">initialize(): void</text><ellipse cx="2027" cy="460.6328" fill="#84BE84" rx="3" ry="3" style="stroke:#038048;stroke-width:1.0;"/><text fill="#000000" font-family="sans-serif" font-size="14" lengthAdjust="spacing" textLength="105.9023" x="2036" y="463.9795">execute(): void</text><ellipse cx="2027" cy="476.9297" fill="#84BE84" rx="3" ry="3" style="stroke:#038048;stroke-width:1.0;"/><text fill="#000000" font-family="sans-serif" font-size="14" lengthAdjust="spacing" textLength="145.6191" x="2036" y="480.2764">isFinished(): boolean</text><ellipse cx="2027" cy="493.2266" fill="#84BE84" rx="3" ry="3" style="stroke:#038048;stroke-width:1.0;"/><text fill="#000000" font-family="sans-serif" font-size="14" lengthAdjust="spacing" textLength="132.0635" x="2036" y="496.5732">end(boolean): void</text><ellipse cx="2027" cy="509.5234" fill="#84BE84" rx="3" ry="3" style="stroke:#038048;stroke-width:1.0;"/><text fill="#000000" font-family="sans-serif" font-size="14" lengthAdjust="spacing" text-decoration="underline" textLength="221.1836" x="2036" y="512.8701">warmupCommand(): Command</text></g></a><!--class PathfindThenFollowPath--><a href="PathfindThenFollowPath.html" target="_top" title="PathfindThenFollowPath.html" xlink:actuate="onRequest" xlink:href="PathfindThenFollowPath.html" xlink:show="new" xlink:title="PathfindThenFollowPath.html" xlink:type="simple"><g id="elem_PathfindThenFollowPath"><rect codeLine="24" fill="#F1F1F1" height="64.2969" id="PathfindThenFollowPath" rx="2.5" ry="2.5" style="stroke:#181818;stroke-width:0.5;" width="1632.9102" x="3650.5" y="391"/><ellipse cx="4378.3701" cy="407" fill="#ADD1B2" rx="11" ry="11" style="stroke:#181818;stroke-width:1.0;"/><path d="M4381.3389,412.6406 Q4380.7607,412.9375 4380.1201,413.0781 Q4379.4795,413.2344 4378.7764,413.2344 Q4376.2764,413.2344 4374.9482,411.5938 Q4373.6357,409.9375 4373.6357,406.8125 Q4373.6357,403.6875 4374.9482,402.0313 Q4376.2764,400.375 4378.7764,400.375 Q4379.4795,400.375 4380.1201,400.5313 Q4380.7764,400.6875 4381.3389,400.9844 L4381.3389,403.7031 Q4380.7139,403.125 4380.1201,402.8594 Q4379.5264,402.5781 4378.9014,402.5781 Q4377.5576,402.5781 4376.8701,403.6563 Q4376.1826,404.7188 4376.1826,406.8125 Q4376.1826,408.9063 4376.8701,409.9844 Q4377.5576,411.0469 4378.9014,411.0469 Q4379.5264,411.0469 4380.1201,410.7813 Q4380.7139,410.5 4381.3389,409.9219 L4381.3389,412.6406 Z " fill="#000000"/><text fill="#000000" font-family="sans-serif" font-size="14" lengthAdjust="spacing" textLength="168.6699" x="4398.8701" y="411.8467">PathfindThenFollowPath</text><line style="stroke:#181818;stroke-width:0.5;" x1="3651.5" x2="5282.4102" y1="423" y2="423"/><line style="stroke:#181818;stroke-width:0.5;" x1="3651.5" x2="5282.4102" y1="431" y2="431"/><ellipse cx="3661.5" cy="444.6484" fill="#84BE84" rx="3" ry="3" style="stroke:#038048;stroke-width:1.0;"/><text fill="#000000" font-family="sans-serif" font-size="14" lengthAdjust="spacing" textLength="1606.9102" x="3670.5" y="447.9951">PathfindThenFollowPath(PathPlannerPath, PathConstraints, Supplier&lt;Pose2d&gt;, Supplier&lt;ChassisSpeeds&gt;, BiConsumer&lt;ChassisSpeeds, DriveFeedforwards&gt;, PathFollowingController, RobotConfig, BooleanSupplier, Subsystem...)</text></g></a><!--class PathPlannerAuto--><a href="PathPlannerAuto.html" target="_top" title="PathPlannerAuto.html" xlink:actuate="onRequest" xlink:href="PathPlannerAuto.html" xlink:show="new" xlink:title="PathPlannerAuto.html" xlink:type="simple"><g id="elem_PathPlannerAuto"><rect codeLine="28" fill="#F1F1F1" height="602.0938" id="PathPlannerAuto" rx="2.5" ry="2.5" style="stroke:#181818;stroke-width:0.5;" width="466.4531" x="22" y="122"/><ellipse cx="192.519" cy="138" fill="#ADD1B2" rx="11" ry="11" style="stroke:#181818;stroke-width:1.0;"/><path d="M195.4878,143.6406 Q194.9097,143.9375 194.269,144.0781 Q193.6284,144.2344 192.9253,144.2344 Q190.4253,144.2344 189.0972,142.5938 Q187.7847,140.9375 187.7847,137.8125 Q187.7847,134.6875 189.0972,133.0313 Q190.4253,131.375 192.9253,131.375 Q193.6284,131.375 194.269,131.5313 Q194.9253,131.6875 195.4878,131.9844 L195.4878,134.7031 Q194.8628,134.125 194.269,133.8594 Q193.6753,133.5781 193.0503,133.5781 Q191.7065,133.5781 191.019,134.6563 Q190.3315,135.7188 190.3315,137.8125 Q190.3315,139.9063 191.019,140.9844 Q191.7065,142.0469 193.0503,142.0469 Q193.6753,142.0469 194.269,141.7813 Q194.8628,141.5 195.4878,140.9219 L195.4878,143.6406 Z " fill="#000000"/><text fill="#000000" font-family="sans-serif" font-size="14" lengthAdjust="spacing" textLength="116.915" x="213.019" y="142.8467">PathPlannerAuto</text><line style="stroke:#181818;stroke-width:0.5;" x1="23" x2="487.4531" y1="154" y2="154"/><ellipse cx="33" cy="167.6484" fill="none" rx="3" ry="3" style="stroke:#038048;stroke-width:1.0;"/><text fill="#000000" font-family="sans-serif" font-size="14" lengthAdjust="spacing" text-decoration="underline" textLength="174.6924" x="42" y="170.9951">currentPathName: String</text><line style="stroke:#181818;stroke-width:0.5;" x1="23" x2="487.4531" y1="178.2969" y2="178.2969"/><ellipse cx="33" cy="191.9453" fill="#84BE84" rx="3" ry="3" style="stroke:#038048;stroke-width:1.0;"/><text fill="#000000" font-family="sans-serif" font-size="14" lengthAdjust="spacing" textLength="169.6201" x="42" y="195.292">PathPlannerAuto(String)</text><ellipse cx="33" cy="208.2422" fill="#84BE84" rx="3" ry="3" style="stroke:#038048;stroke-width:1.0;"/><text fill="#000000" font-family="sans-serif" font-size="14" lengthAdjust="spacing" textLength="234.4932" x="42" y="211.5889">PathPlannerAuto(String, boolean)</text><ellipse cx="33" cy="224.5391" fill="#84BE84" rx="3" ry="3" style="stroke:#038048;stroke-width:1.0;"/><text fill="#000000" font-family="sans-serif" font-size="14" lengthAdjust="spacing" textLength="259.4033" x="42" y="227.8857">PathPlannerAuto(Command, Pose2d)</text><ellipse cx="33" cy="240.8359" fill="#84BE84" rx="3" ry="3" style="stroke:#038048;stroke-width:1.0;"/><text fill="#000000" font-family="sans-serif" font-size="14" lengthAdjust="spacing" textLength="199.7939" x="42" y="244.1826">PathPlannerAuto(Command)</text><ellipse cx="33" cy="257.1328" fill="#84BE84" rx="3" ry="3" style="stroke:#038048;stroke-width:1.0;"/><text fill="#000000" font-family="sans-serif" font-size="14" lengthAdjust="spacing" textLength="182.5537" x="42" y="260.4795">getStartingPose(): Pose2d</text><ellipse cx="33" cy="273.4297" fill="#84BE84" rx="3" ry="3" style="stroke:#038048;stroke-width:1.0;"/><text fill="#000000" font-family="sans-serif" font-size="14" lengthAdjust="spacing" textLength="139.6104" x="42" y="276.7764">isRunning(): Trigger</text><ellipse cx="33" cy="289.7266" fill="#84BE84" rx="3" ry="3" style="stroke:#038048;stroke-width:1.0;"/><text fill="#000000" font-family="sans-serif" font-size="14" lengthAdjust="spacing" text-decoration="underline" textLength="351.0254" x="42" y="293.0732">setCurrentTrajectory(PathPlannerTrajectory): void</text><ellipse cx="33" cy="306.0234" fill="#84BE84" rx="3" ry="3" style="stroke:#038048;stroke-width:1.0;"/><text fill="#000000" font-family="sans-serif" font-size="14" lengthAdjust="spacing" textLength="204.7705" x="42" y="309.3701">timeElapsed(double): Trigger</text><ellipse cx="33" cy="322.3203" fill="#84BE84" rx="3" ry="3" style="stroke:#038048;stroke-width:1.0;"/><text fill="#000000" font-family="sans-serif" font-size="14" lengthAdjust="spacing" textLength="191.748" x="42" y="325.667">timeElapsed(Time): Trigger</text><ellipse cx="33" cy="338.6172" fill="#84BE84" rx="3" ry="3" style="stroke:#038048;stroke-width:1.0;"/><text fill="#000000" font-family="sans-serif" font-size="14" lengthAdjust="spacing" textLength="251.0703" x="42" y="341.9639">timeRange(double, double): Trigger</text><ellipse cx="33" cy="354.9141" fill="#84BE84" rx="3" ry="3" style="stroke:#038048;stroke-width:1.0;"/><text fill="#000000" font-family="sans-serif" font-size="14" lengthAdjust="spacing" textLength="225.0254" x="42" y="358.2607">timeRange(Time, Time): Trigger</text><ellipse cx="33" cy="371.2109" fill="#84BE84" rx="3" ry="3" style="stroke:#038048;stroke-width:1.0;"/><text fill="#000000" font-family="sans-serif" font-size="14" lengthAdjust="spacing" textLength="152.0859" x="42" y="374.5576">event(String): Trigger</text><ellipse cx="33" cy="387.5078" fill="#84BE84" rx="3" ry="3" style="stroke:#038048;stroke-width:1.0;"/><text fill="#000000" font-family="sans-serif" font-size="14" lengthAdjust="spacing" textLength="254.2969" x="42" y="390.8545">beforeEvent(String, double): Trigger</text><ellipse cx="33" cy="403.8047" fill="#84BE84" rx="3" ry="3" style="stroke:#038048;stroke-width:1.0;"/><text fill="#000000" font-family="sans-serif" font-size="14" lengthAdjust="spacing" textLength="241.2744" x="42" y="407.1514">beforeEvent(String, Time): Trigger</text><ellipse cx="33" cy="420.1016" fill="#84BE84" rx="3" ry="3" style="stroke:#038048;stroke-width:1.0;"/><text fill="#000000" font-family="sans-serif" font-size="14" lengthAdjust="spacing" textLength="304.2676" x="42" y="423.4482">distanceFromEvent(String, double): Trigger</text><ellipse cx="33" cy="436.3984" fill="#84BE84" rx="3" ry="3" style="stroke:#038048;stroke-width:1.0;"/><text fill="#000000" font-family="sans-serif" font-size="14" lengthAdjust="spacing" textLength="317.7686" x="42" y="439.7451">distanceFromEvent(String, Distance): Trigger</text><ellipse cx="33" cy="452.6953" fill="#84BE84" rx="3" ry="3" style="stroke:#038048;stroke-width:1.0;"/><text fill="#000000" font-family="sans-serif" font-size="14" lengthAdjust="spacing" textLength="330.873" x="42" y="456.042">distanceFromEventEnd(String, double): Trigger</text><ellipse cx="33" cy="468.9922" fill="#84BE84" rx="3" ry="3" style="stroke:#038048;stroke-width:1.0;"/><text fill="#000000" font-family="sans-serif" font-size="14" lengthAdjust="spacing" textLength="344.374" x="42" y="472.3389">distanceFromEventEnd(String, Distance): Trigger</text><ellipse cx="33" cy="485.2891" fill="#84BE84" rx="3" ry="3" style="stroke:#038048;stroke-width:1.0;"/><text fill="#000000" font-family="sans-serif" font-size="14" lengthAdjust="spacing" textLength="242.6416" x="42" y="488.6357">pointTowardsZone(String): Trigger</text><ellipse cx="33" cy="501.5859" fill="#84BE84" rx="3" ry="3" style="stroke:#038048;stroke-width:1.0;"/><text fill="#000000" font-family="sans-serif" font-size="14" lengthAdjust="spacing" textLength="186.1494" x="42" y="504.9326">activePath(String): Trigger</text><ellipse cx="33" cy="517.8828" fill="#84BE84" rx="3" ry="3" style="stroke:#038048;stroke-width:1.0;"/><text fill="#000000" font-family="sans-serif" font-size="14" lengthAdjust="spacing" textLength="343.3418" x="42" y="521.2295">nearFieldPosition(Translation2d, double): Trigger</text><ellipse cx="33" cy="534.1797" fill="#84BE84" rx="3" ry="3" style="stroke:#038048;stroke-width:1.0;"/><text fill="#000000" font-family="sans-serif" font-size="14" lengthAdjust="spacing" textLength="356.8428" x="42" y="537.5264">nearFieldPosition(Translation2d, Distance): Trigger</text><ellipse cx="33" cy="550.4766" fill="#84BE84" rx="3" ry="3" style="stroke:#038048;stroke-width:1.0;"/><text fill="#000000" font-family="sans-serif" font-size="14" lengthAdjust="spacing" textLength="426.9521" x="42" y="553.8232">nearFieldPositionAutoFlipped(Translation2d, double): Trigger</text><ellipse cx="33" cy="566.7734" fill="#84BE84" rx="3" ry="3" style="stroke:#038048;stroke-width:1.0;"/><text fill="#000000" font-family="sans-serif" font-size="14" lengthAdjust="spacing" textLength="440.4531" x="42" y="570.1201">nearFieldPositionAutoFlipped(Translation2d, Distance): Trigger</text><ellipse cx="33" cy="583.0703" fill="#84BE84" rx="3" ry="3" style="stroke:#038048;stroke-width:1.0;"/><text fill="#000000" font-family="sans-serif" font-size="14" lengthAdjust="spacing" textLength="350.2188" x="42" y="586.417">inFieldArea(Translation2d, Translation2d): Trigger</text><ellipse cx="33" cy="599.3672" fill="#84BE84" rx="3" ry="3" style="stroke:#038048;stroke-width:1.0;"/><text fill="#000000" font-family="sans-serif" font-size="14" lengthAdjust="spacing" textLength="433.8291" x="42" y="602.7139">inFieldAreaAutoFlipped(Translation2d, Translation2d): Trigger</text><ellipse cx="33" cy="615.6641" fill="#84BE84" rx="3" ry="3" style="stroke:#038048;stroke-width:1.0;"/><text fill="#000000" font-family="sans-serif" font-size="14" lengthAdjust="spacing" textLength="249.5322" x="42" y="619.0107">condition(BooleanSupplier): Trigger</text><ellipse cx="33" cy="631.9609" fill="#84BE84" rx="3" ry="3" style="stroke:#038048;stroke-width:1.0;"/><text fill="#000000" font-family="sans-serif" font-size="14" lengthAdjust="spacing" textLength="108.0693" x="42" y="635.3076">initialize(): void</text><ellipse cx="33" cy="648.2578" fill="#84BE84" rx="3" ry="3" style="stroke:#038048;stroke-width:1.0;"/><text fill="#000000" font-family="sans-serif" font-size="14" lengthAdjust="spacing" textLength="105.9023" x="42" y="651.6045">execute(): void</text><ellipse cx="33" cy="664.5547" fill="#84BE84" rx="3" ry="3" style="stroke:#038048;stroke-width:1.0;"/><text fill="#000000" font-family="sans-serif" font-size="14" lengthAdjust="spacing" textLength="145.6191" x="42" y="667.9014">isFinished(): boolean</text><ellipse cx="33" cy="680.8516" fill="#84BE84" rx="3" ry="3" style="stroke:#038048;stroke-width:1.0;"/><text fill="#000000" font-family="sans-serif" font-size="14" lengthAdjust="spacing" textLength="132.0635" x="42" y="684.1982">end(boolean): void</text><ellipse cx="33" cy="697.1484" fill="#84BE84" rx="3" ry="3" style="stroke:#038048;stroke-width:1.0;"/><text fill="#000000" font-family="sans-serif" font-size="14" lengthAdjust="spacing" text-decoration="underline" textLength="415.8643" x="42" y="700.4951">getPathGroupFromAutoFile(String): List&lt;PathPlannerPath&gt;</text><ellipse cx="33" cy="713.4453" fill="#84BE84" rx="3" ry="3" style="stroke:#038048;stroke-width:1.0;"/><text fill="#000000" font-family="sans-serif" font-size="14" lengthAdjust="spacing" textLength="201.0107" x="42" y="716.792">hotReload(JSONObject): void</text></g></a><!--class FollowPathCommand--><a href="FollowPathCommand.html" target="_top" title="FollowPathCommand.html" xlink:actuate="onRequest" xlink:href="FollowPathCommand.html" xlink:show="new" xlink:title="FollowPathCommand.html" xlink:type="simple"><g id="elem_FollowPathCommand"><rect codeLine="65" fill="#F1F1F1" height="145.7813" id="FollowPathCommand" rx="2.5" ry="2.5" style="stroke:#181818;stroke-width:0.5;" width="1491.8301" x="506" y="350"/><ellipse cx="1173.7891" cy="366" fill="#ADD1B2" rx="11" ry="11" style="stroke:#181818;stroke-width:1.0;"/><path d="M1176.7578,371.6406 Q1176.1797,371.9375 1175.5391,372.0781 Q1174.8984,372.2344 1174.1953,372.2344 Q1171.6953,372.2344 1170.3672,370.5938 Q1169.0547,368.9375 1169.0547,365.8125 Q1169.0547,362.6875 1170.3672,361.0313 Q1171.6953,359.375 1174.1953,359.375 Q1174.8984,359.375 1175.5391,359.5313 Q1176.1953,359.6875 1176.7578,359.9844 L1176.7578,362.7031 Q1176.1328,362.125 1175.5391,361.8594 Q1174.9453,361.5781 1174.3203,361.5781 Q1172.9766,361.5781 1172.2891,362.6563 Q1171.6016,363.7188 1171.6016,365.8125 Q1171.6016,367.9063 1172.2891,368.9844 Q1172.9766,370.0469 1174.3203,370.0469 Q1174.9453,370.0469 1175.5391,369.7813 Q1176.1328,369.5 1176.7578,368.9219 L1176.7578,371.6406 Z " fill="#000000"/><text fill="#000000" font-family="sans-serif" font-size="14" lengthAdjust="spacing" textLength="147.752" x="1194.2891" y="370.8467">FollowPathCommand</text><line style="stroke:#181818;stroke-width:0.5;" x1="507" x2="1996.8301" y1="382" y2="382"/><line style="stroke:#181818;stroke-width:0.5;" x1="507" x2="1996.8301" y1="390" y2="390"/><ellipse cx="517" cy="403.6484" fill="#84BE84" rx="3" ry="3" style="stroke:#038048;stroke-width:1.0;"/><text fill="#000000" font-family="sans-serif" font-size="14" lengthAdjust="spacing" textLength="1465.8301" x="526" y="406.9951">FollowPathCommand(PathPlannerPath, Supplier&lt;Pose2d&gt;, Supplier&lt;ChassisSpeeds&gt;, BiConsumer&lt;ChassisSpeeds, DriveFeedforwards&gt;, PathFollowingController, RobotConfig, BooleanSupplier, Subsystem...)</text><ellipse cx="517" cy="419.9453" fill="#84BE84" rx="3" ry="3" style="stroke:#038048;stroke-width:1.0;"/><text fill="#000000" font-family="sans-serif" font-size="14" lengthAdjust="spacing" textLength="108.0693" x="526" y="423.292">initialize(): void</text><ellipse cx="517" cy="436.2422" fill="#84BE84" rx="3" ry="3" style="stroke:#038048;stroke-width:1.0;"/><text fill="#000000" font-family="sans-serif" font-size="14" lengthAdjust="spacing" textLength="105.9023" x="526" y="439.5889">execute(): void</text><ellipse cx="517" cy="452.5391" fill="#84BE84" rx="3" ry="3" style="stroke:#038048;stroke-width:1.0;"/><text fill="#000000" font-family="sans-serif" font-size="14" lengthAdjust="spacing" textLength="145.6191" x="526" y="455.8857">isFinished(): boolean</text><ellipse cx="517" cy="468.8359" fill="#84BE84" rx="3" ry="3" style="stroke:#038048;stroke-width:1.0;"/><text fill="#000000" font-family="sans-serif" font-size="14" lengthAdjust="spacing" textLength="132.0635" x="526" y="472.1826">end(boolean): void</text><ellipse cx="517" cy="485.1328" fill="#84BE84" rx="3" ry="3" style="stroke:#038048;stroke-width:1.0;"/><text fill="#000000" font-family="sans-serif" font-size="14" lengthAdjust="spacing" text-decoration="underline" textLength="221.1836" x="526" y="488.4795">warmupCommand(): Command</text></g></a><!--class Command--><g id="elem_Command"><rect codeLine="77" fill="#F1F1F1" height="48" id="Command" rx="2.5" ry="2.5" style="stroke:#181818;stroke-width:0.5;" width="103.9551" x="1986" y="31"/><ellipse cx="2001" cy="47" fill="#A9DCDF" rx="11" ry="11" style="stroke:#181818;stroke-width:1.0;"/><path d="M2001.1094,42.3438 L1999.9531,47.4219 L2002.2813,47.4219 L2001.1094,42.3438 Z M1999.625,40.1094 L2002.6094,40.1094 L2005.9688,52.5 L2003.5156,52.5 L2002.75,49.4375 L1999.4688,49.4375 L1998.7188,52.5 L1996.2813,52.5 L1999.625,40.1094 Z " fill="#000000"/><text fill="#000000" font-family="sans-serif" font-size="14" font-style="italic" lengthAdjust="spacing" textLength="71.9551" x="2015" y="51.8467">Command</text><line style="stroke:#181818;stroke-width:0.5;" x1="1987" x2="2088.9551" y1="63" y2="63"/><line style="stroke:#181818;stroke-width:0.5;" x1="1987" x2="2088.9551" y1="71" y2="71"/></g><!--class SequentialCommandGroup--><g id="elem_SequentialCommandGroup"><rect codeLine="79" fill="#F1F1F1" height="48" id="SequentialCommandGroup" rx="2.5" ry="2.5" style="stroke:#181818;stroke-width:0.5;" width="221.4785" x="2108.5" y="31"/><ellipse cx="2123.5" cy="47" fill="#ADD1B2" rx="11" ry="11" style="stroke:#181818;stroke-width:1.0;"/><path d="M2126.4688,52.6406 Q2125.8906,52.9375 2125.25,53.0781 Q2124.6094,53.2344 2123.9063,53.2344 Q2121.4063,53.2344 2120.0781,51.5938 Q2118.7656,49.9375 2118.7656,46.8125 Q2118.7656,43.6875 2120.0781,42.0313 Q2121.4063,40.375 2123.9063,40.375 Q2124.6094,40.375 2125.25,40.5313 Q2125.9063,40.6875 2126.4688,40.9844 L2126.4688,43.7031 Q2125.8438,43.125 2125.25,42.8594 Q2124.6563,42.5781 2124.0313,42.5781 Q2122.6875,42.5781 2122,43.6563 Q2121.3125,44.7188 2121.3125,46.8125 Q2121.3125,48.9063 2122,49.9844 Q2122.6875,51.0469 2124.0313,51.0469 Q2124.6563,51.0469 2125.25,50.7813 Q2125.8438,50.5 2126.4688,49.9219 L2126.4688,52.6406 Z " fill="#000000"/><text fill="#000000" font-family="sans-serif" font-size="14" lengthAdjust="spacing" textLength="189.4785" x="2137.5" y="51.8467">SequentialCommandGroup</text><line style="stroke:#181818;stroke-width:0.5;" x1="2109.5" x2="2328.9785" y1="63" y2="63"/><line style="stroke:#181818;stroke-width:0.5;" x1="2109.5" x2="2328.9785" y1="71" y2="71"/></g><polygon fill="none" points="2083.6327,79.0121,2097.1161,92.3611,2102.4288,81.6013,2083.6327,79.0121" style="stroke:#181818;stroke-width:1.0;"/><path d="M2099.7725,86.9812 C2105.2752,89.6982 2094.6864,84.443 2100,87 C2270.9755,169.2764 2466.3017,259.4328 2610.9498,325.4717 " fill="none" style="stroke:#181818;stroke-width:1.0;"/><polygon fill="none" points="2329.6047,56.8171,2347.5537,62.9678,2347.6544,50.9683,2329.6047,56.8171" style="stroke:#181818;stroke-width:1.0;"/><path d="M2347.6041,56.968 C2659.5954,59.5846 3514.2098,69.0097 3641,95 C3943.1791,156.9428 4277.3538,321.6849 4409.0954,390.7956 " fill="none" style="stroke:#181818;stroke-width:1.0;"/><polygon fill="none" points="1985.7487,56.0394,1967.7405,50.0641,1967.757,62.064,1985.7487,56.0394" style="stroke:#181818;stroke-width:1.0;"/><path d="M1967.7488,56.064 C1705.9067,56.4232 564.3737,59.9678 497,95 C482.2745,102.6568 468.2132,111.6634 454.8184,121.7074 " fill="none" style="stroke:#181818;stroke-width:1.0;"/><polygon fill="none" points="1988.5344,79.0336,1969.684,81.1927,1974.7495,92.0711,1988.5344,79.0336" style="stroke:#181818;stroke-width:1.0;"/><path d="M1972.2168,86.6319 C1857.7143,139.9498 1586.8068,266.0976 1406.7496,349.941 " fill="none" style="stroke:#181818;stroke-width:1.0;"/><text fill="#888888" font-family="sans-serif" font-size="10" lengthAdjust="spacing" textLength="3.1787" x="2639.9106" y="743.2822">&#160;</text><a href="https://github.com/talsma-ict/umldoclet" target="_top" title="https://github.com/talsma-ict/umldoclet" xlink:actuate="onRequest" xlink:href="https://github.com/talsma-ict/umldoclet" xlink:show="new" xlink:title="https://github.com/talsma-ict/umldoclet" xlink:type="simple"><text fill="#888888" font-family="sans-serif" font-size="10" lengthAdjust="spacing" textLength="82.3096" x="2600.3452" y="754.9229">UMLDoclet 2.2.1</text></a><!--SRC=[tLXDSzis4BtdLw3JG-M9HCcgvIGSJMPSsNARKHAFnVGGLGU8N968GO05GBbgwl_U1KbP5AcljEaqYIu2WRUxRvVBNG244F836SXagLWO6M8aCH7JvDth4Q4Y8248KDH0G5XCGz1a1boAKET083GraLH4phCdNoe5Ef4YO28ah-Y24YrJvODsdZmXcIblfVsUwfBssT9ENagVWo6DmKc9KhTpUjxgThezub6kOqf-6NXEeMqjqtMwpYb1tPpv83IgJ4K0AgDraL0V_qRvIfCiG6ac1Sfq2ZtMLLyAGvdG9A7AQElI3QV2MAwd3je_SvwHniLujCcjyoBZrYGNIj0q8BVoz_JHtUyIHKDapEbIfeRe60mLD5lIo5a3cg86u-UwkG0IlSCm8vVOIQY94cI08N8ucpau5oDFJJxcMFlpETMQt21ophAW3t8GcKpgaqvaOZwTeZmf_PxMWGqxTPERjiDcPc4WXJOA8sHqaupJ9E4CLFz6QkW6BqipWmWvCJrE00AD2pynAvd6rQKckLHi0KCSpwMwfof3Mqj3oRcyp_W8e_01L1C3EvC69-OiH9rISg1YPTDQd-cbDX0xZdDosB-Cz1Qt0fdEEFplxdqcRqPC05M_uXVhCxFyLhpwShrWWXb6EViJ6YSkMKWMRAx37-2dPiSYqqEKrn44TdsM9tX57iDIB6nJyL4RQfZ_G9wYHt6Qh2A9s6Bu27_OLKAy24GU0pjJAYER2mTAoIRucoadMwDME7QHOaVCmrMQsHwdzOloKsoOmbYfDpG6buoDGgBrg9PqDdBCoJ6WvYgH3g2B_C1uPV4_3br1XM361bidchLQRDhbsgfvVfiAWI0ByB2DXg1sH0Txv20FaAVe1_2nKoxBoRIUtVf56HR35QS9RWOQUM7VON43wU5u7-wMYX0QgqPnM6-EjrgRP9zkMA2VgtUx0pC3J6suAY4FCTWciOz5m33wmeUXal6dsDajTrci72rvXINh7nejYnwocqWiFPxC2iLxAU10wAbliBfavMm_qBRS8GCUOF9ZEv2YWMagDATsR1lQVfyEYX_ogwR0Vh93pfB49lU_eh97qo5MJ6IQBXJGgkZ6un7oUrWSfSgtnvCiifMolzls5zBMiSBQ1BnMCaripcUHOBoKkYDy3VrAktsvQIsIvXPtX3Hel1g_VVDsPYjerMojqQsR-Vg0KPlRiIceuUhxWQ_eDF7LxV4UDa-M4AJEVSASELFQs14UBJzqLuVBqhkZCxizyqsH0OCQuA6I8sF0aw-mmIcmMPxM10e- -tcuxifU_wzMQ-zns7NhXuUZBEpW-ma6DxUv_uLRfLtNvrPV-oppzzBNPibXNJFcKXfGbM_wvsK22a-NTmF9fIBVFz- - -ixUm70yX7eHy-y4O99qAjdGRvVi5RP-4vD9P4oYtNOxP2PACzfjazt-j9XlscdCW_pQft81D9qM5phNZpTBzdQcrUcrki-ypdFtnuxRwJZTNk_ynTdvMU_zvFgrD_qR]--></g></svg>