<svg xmlns="http://www.w3.org/2000/svg" xmlns:xlink="http://www.w3.org/1999/xlink" contentStyleType="text/css" height="702px" preserveAspectRatio="none" style="width:2695px;height:702px;background:#FFFFFF;" version="1.1" viewBox="0 0 2695 702" width="2695px" zoomAndPan="magnify"><defs/><g><!--cluster com.pathplanner.lib.auto--><g id="cluster_com.pathplanner.lib.auto"><path d="M16.5,95 L218.0322,95 A3.75,3.75 0 0 1 220.5322,97.5 L227.5322,117.2969 L2685.5,117.2969 A2.5,2.5 0 0 1 2688,119.7969 L2688,666.5 A2.5,2.5 0 0 1 2685.5,669 L16.5,669 A2.5,2.5 0 0 1 14,666.5 L14,97.5 A2.5,2.5 0 0 1 16.5,95 " fill="none" style="stroke:#000000;stroke-width:1.5;"/><line style="stroke:#000000;stroke-width:1.5;" x1="14" x2="227.5322" y1="117.2969" y2="117.2969"/><text fill="#000000" font-family="sans-serif" font-size="14" font-weight="bold" lengthAdjust="spacing" textLength="200.5322" x="18" y="109.9951">com.pathplanner.lib.auto</text></g><!--cluster java.lang--><g id="cluster_java.lang"><path d="M2479.5,4 L2552.8721,4 A3.75,3.75 0 0 1 2555.3721,6.5 L2562.3721,26.2969 L2650.5,26.2969 A2.5,2.5 0 0 1 2653,28.7969 L2653,84.5 A2.5,2.5 0 0 1 2650.5,87 L2479.5,87 A2.5,2.5 0 0 1 2477,84.5 L2477,6.5 A2.5,2.5 0 0 1 2479.5,4 " fill="none" style="stroke:#000000;stroke-width:1.5;"/><line style="stroke:#000000;stroke-width:1.5;" x1="2477" x2="2562.3721" y1="26.2969" y2="26.2969"/><text fill="#000000" font-family="sans-serif" font-size="14" font-weight="bold" lengthAdjust="spacing" textLength="72.3721" x="2481" y="18.9951">java.lang</text></g><!--class AutoBuilderException--><a href="AutoBuilderException.html" target="_top" title="AutoBuilderException.html" xlink:actuate="onRequest" xlink:href="AutoBuilderException.html" xlink:show="new" xlink:title="AutoBuilderException.html" xlink:type="simple"><g id="elem_AutoBuilderException"><rect codeLine="12" fill="#F1F1F1" height="64.2969" id="AutoBuilderException" rx="2.5" ry="2.5" style="stroke:#181818;stroke-width:0.5;" width="229.8682" x="2450" y="309.5"/><ellipse cx="2486.0173" cy="325.5" fill="#ADD1B2" rx="11" ry="11" style="stroke:#181818;stroke-width:1.0;"/><path d="M2488.986,331.1406 Q2488.4079,331.4375 2487.7673,331.5781 Q2487.1267,331.7344 2486.4235,331.7344 Q2483.9235,331.7344 2482.5954,330.0938 Q2481.2829,328.4375 2481.2829,325.3125 Q2481.2829,322.1875 2482.5954,320.5313 Q2483.9235,318.875 2486.4235,318.875 Q2487.1267,318.875 2487.7673,319.0313 Q2488.4235,319.1875 2488.986,319.4844 L2488.986,322.2031 Q2488.361,321.625 2487.7673,321.3594 Q2487.1735,321.0781 2486.5485,321.0781 Q2485.2048,321.0781 2484.5173,322.1563 Q2483.8298,323.2188 2483.8298,325.3125 Q2483.8298,327.4063 2484.5173,328.4844 Q2485.2048,329.5469 2486.5485,329.5469 Q2487.1735,329.5469 2487.7673,329.2813 Q2488.361,329 2488.986,328.4219 L2488.986,331.1406 Z " fill="#000000"/><text fill="#000000" font-family="sans-serif" font-size="14" lengthAdjust="spacing" textLength="151.1631" x="2504.6878" y="330.3467">AutoBuilderException</text><line style="stroke:#181818;stroke-width:0.5;" x1="2451" x2="2678.8682" y1="341.5" y2="341.5"/><line style="stroke:#181818;stroke-width:0.5;" x1="2451" x2="2678.8682" y1="349.5" y2="349.5"/><ellipse cx="2461" cy="363.1484" fill="#84BE84" rx="3" ry="3" style="stroke:#038048;stroke-width:1.0;"/><text fill="#000000" font-family="sans-serif" font-size="14" lengthAdjust="spacing" textLength="203.8682" x="2470" y="366.4951">AutoBuilderException(String)</text></g></a><!--class AutoBuilder--><a href="AutoBuilder.html" target="_top" title="AutoBuilder.html" xlink:actuate="onRequest" xlink:href="AutoBuilder.html" xlink:show="new" xlink:title="AutoBuilder.html" xlink:type="simple"><g id="elem_AutoBuilder"><rect codeLine="16" fill="#F1F1F1" height="439.125" id="AutoBuilder" rx="2.5" ry="2.5" style="stroke:#181818;stroke-width:0.5;" width="1478.7188" x="952.5" y="122"/><ellipse cx="1646.6006" cy="138" fill="#ADD1B2" rx="11" ry="11" style="stroke:#181818;stroke-width:1.0;"/><path d="M1649.5693,143.6406 Q1648.9912,143.9375 1648.3506,144.0781 Q1647.71,144.2344 1647.0068,144.2344 Q1644.5068,144.2344 1643.1787,142.5938 Q1641.8662,140.9375 1641.8662,137.8125 Q1641.8662,134.6875 1643.1787,133.0313 Q1644.5068,131.375 1647.0068,131.375 Q1647.71,131.375 1648.3506,131.5313 Q1649.0068,131.6875 1649.5693,131.9844 L1649.5693,134.7031 Q1648.9443,134.125 1648.3506,133.8594 Q1647.7568,133.5781 1647.1318,133.5781 Q1645.7881,133.5781 1645.1006,134.6563 Q1644.4131,135.7188 1644.4131,137.8125 Q1644.4131,139.9063 1645.1006,140.9844 Q1645.7881,142.0469 1647.1318,142.0469 Q1647.7568,142.0469 1648.3506,141.7813 Q1648.9443,141.5 1649.5693,140.9219 L1649.5693,143.6406 Z " fill="#000000"/><text fill="#000000" font-family="sans-serif" font-size="14" lengthAdjust="spacing" textLength="82.0176" x="1667.1006" y="142.8467">AutoBuilder</text><line style="stroke:#181818;stroke-width:0.5;" x1="953.5" x2="2430.2188" y1="154" y2="154"/><line style="stroke:#181818;stroke-width:0.5;" x1="953.5" x2="2430.2188" y1="162" y2="162"/><ellipse cx="963.5" cy="175.6484" fill="#84BE84" rx="3" ry="3" style="stroke:#038048;stroke-width:1.0;"/><text fill="#000000" font-family="sans-serif" font-size="14" lengthAdjust="spacing" text-decoration="underline" textLength="1452.7188" x="972.5" y="178.9951">configure(Supplier&lt;Pose2d&gt;, Consumer&lt;Pose2d&gt;, Supplier&lt;ChassisSpeeds&gt;, BiConsumer&lt;ChassisSpeeds, DriveFeedforwards&gt;, PathFollowingController, RobotConfig, BooleanSupplier, Subsystem...): void</text><ellipse cx="963.5" cy="191.9453" fill="#84BE84" rx="3" ry="3" style="stroke:#038048;stroke-width:1.0;"/><text fill="#000000" font-family="sans-serif" font-size="14" lengthAdjust="spacing" text-decoration="underline" textLength="1297.6182" x="972.5" y="195.292">configure(Supplier&lt;Pose2d&gt;, Consumer&lt;Pose2d&gt;, Supplier&lt;ChassisSpeeds&gt;, Consumer&lt;ChassisSpeeds&gt;, PathFollowingController, RobotConfig, BooleanSupplier, Subsystem...): void</text><ellipse cx="963.5" cy="208.2422" fill="#84BE84" rx="3" ry="3" style="stroke:#038048;stroke-width:1.0;"/><text fill="#000000" font-family="sans-serif" font-size="14" lengthAdjust="spacing" text-decoration="underline" textLength="933.2148" x="972.5" y="211.5889">configureCustom(Function&lt;PathPlannerPath, Command&gt;, Supplier&lt;Pose2d&gt;, Consumer&lt;Pose2d&gt;, BooleanSupplier, boolean): void</text><ellipse cx="963.5" cy="224.5391" fill="#84BE84" rx="3" ry="3" style="stroke:#038048;stroke-width:1.0;"/><text fill="#000000" font-family="sans-serif" font-size="14" lengthAdjust="spacing" text-decoration="underline" textLength="809.9424" x="972.5" y="227.8857">configureCustom(Function&lt;PathPlannerPath, Command&gt;, Supplier&lt;Pose2d&gt;, Consumer&lt;Pose2d&gt;, boolean): void</text><ellipse cx="963.5" cy="240.8359" fill="#84BE84" rx="3" ry="3" style="stroke:#038048;stroke-width:1.0;"/><text fill="#000000" font-family="sans-serif" font-size="14" lengthAdjust="spacing" text-decoration="underline" textLength="164.2949" x="972.5" y="244.1826">isConfigured(): boolean</text><ellipse cx="963.5" cy="257.1328" fill="#84BE84" rx="3" ry="3" style="stroke:#038048;stroke-width:1.0;"/><text fill="#000000" font-family="sans-serif" font-size="14" lengthAdjust="spacing" text-decoration="underline" textLength="243.9063" x="972.5" y="260.4795">isPathfindingConfigured(): boolean</text><ellipse cx="963.5" cy="273.4297" fill="#84BE84" rx="3" ry="3" style="stroke:#038048;stroke-width:1.0;"/><text fill="#000000" font-family="sans-serif" font-size="14" lengthAdjust="spacing" text-decoration="underline" textLength="179.8398" x="972.5" y="276.7764">getCurrentPose(): Pose2d</text><ellipse cx="963.5" cy="289.7266" fill="#84BE84" rx="3" ry="3" style="stroke:#038048;stroke-width:1.0;"/><text fill="#000000" font-family="sans-serif" font-size="14" lengthAdjust="spacing" text-decoration="underline" textLength="147.1641" x="972.5" y="293.0732">shouldFlip(): boolean</text><ellipse cx="963.5" cy="306.0234" fill="#84BE84" rx="3" ry="3" style="stroke:#038048;stroke-width:1.0;"/><text fill="#000000" font-family="sans-serif" font-size="14" lengthAdjust="spacing" text-decoration="underline" textLength="280.5127" x="972.5" y="309.3701">followPath(PathPlannerPath): Command</text><ellipse cx="963.5" cy="322.3203" fill="#84BE84" rx="3" ry="3" style="stroke:#038048;stroke-width:1.0;"/><text fill="#000000" font-family="sans-serif" font-size="14" lengthAdjust="spacing" text-decoration="underline" textLength="427.9707" x="972.5" y="325.667">pathfindToPose(Pose2d, PathConstraints, double): Command</text><ellipse cx="963.5" cy="338.6172" fill="#84BE84" rx="3" ry="3" style="stroke:#038048;stroke-width:1.0;"/><text fill="#000000" font-family="sans-serif" font-size="14" lengthAdjust="spacing" text-decoration="underline" textLength="479.7734" x="972.5" y="341.9639">pathfindToPose(Pose2d, PathConstraints, LinearVelocity): Command</text><ellipse cx="963.5" cy="354.9141" fill="#84BE84" rx="3" ry="3" style="stroke:#038048;stroke-width:1.0;"/><text fill="#000000" font-family="sans-serif" font-size="14" lengthAdjust="spacing" text-decoration="underline" textLength="371.3555" x="972.5" y="358.2607">pathfindToPose(Pose2d, PathConstraints): Command</text><ellipse cx="963.5" cy="371.2109" fill="#84BE84" rx="3" ry="3" style="stroke:#038048;stroke-width:1.0;"/><text fill="#000000" font-family="sans-serif" font-size="14" lengthAdjust="spacing" text-decoration="underline" textLength="479.0762" x="972.5" y="374.5576">pathfindToPoseFlipped(Pose2d, PathConstraints, double): Command</text><ellipse cx="963.5" cy="387.5078" fill="#84BE84" rx="3" ry="3" style="stroke:#038048;stroke-width:1.0;"/><text fill="#000000" font-family="sans-serif" font-size="14" lengthAdjust="spacing" text-decoration="underline" textLength="530.8789" x="972.5" y="390.8545">pathfindToPoseFlipped(Pose2d, PathConstraints, LinearVelocity): Command</text><ellipse cx="963.5" cy="403.8047" fill="#84BE84" rx="3" ry="3" style="stroke:#038048;stroke-width:1.0;"/><text fill="#000000" font-family="sans-serif" font-size="14" lengthAdjust="spacing" text-decoration="underline" textLength="422.4609" x="972.5" y="407.1514">pathfindToPoseFlipped(Pose2d, PathConstraints): Command</text><ellipse cx="963.5" cy="420.1016" fill="#84BE84" rx="3" ry="3" style="stroke:#038048;stroke-width:1.0;"/><text fill="#000000" font-family="sans-serif" font-size="14" lengthAdjust="spacing" text-decoration="underline" textLength="497.1162" x="972.5" y="423.4482">pathfindThenFollowPath(PathPlannerPath, PathConstraints): Command</text><ellipse cx="963.5" cy="436.3984" fill="#84BE84" rx="3" ry="3" style="stroke:#038048;stroke-width:1.0;"/><text fill="#000000" font-family="sans-serif" font-size="14" lengthAdjust="spacing" text-decoration="underline" textLength="362.5508" x="972.5" y="439.7451">buildAutoChooser(): SendableChooser&lt;Command&gt;</text><ellipse cx="963.5" cy="452.6953" fill="#84BE84" rx="3" ry="3" style="stroke:#038048;stroke-width:1.0;"/><text fill="#000000" font-family="sans-serif" font-size="14" lengthAdjust="spacing" text-decoration="underline" textLength="404.332" x="972.5" y="456.042">buildAutoChooser(String): SendableChooser&lt;Command&gt;</text><ellipse cx="963.5" cy="468.9922" fill="#84BE84" rx="3" ry="3" style="stroke:#038048;stroke-width:1.0;"/><text fill="#000000" font-family="sans-serif" font-size="14" lengthAdjust="spacing" text-decoration="underline" textLength="980.6221" x="972.5" y="472.3389">buildAutoChooserWithOptionsModifier(Function&lt;Stream&lt;PathPlannerAuto&gt;, Stream&lt;PathPlannerAuto&gt;&gt;): SendableChooser&lt;Command&gt;</text><ellipse cx="963.5" cy="485.2891" fill="#84BE84" rx="3" ry="3" style="stroke:#038048;stroke-width:1.0;"/><text fill="#000000" font-family="sans-serif" font-size="14" lengthAdjust="spacing" text-decoration="underline" textLength="1031.3037" x="972.5" y="488.6357">buildAutoChooserWithOptionsModifier(String, Function&lt;Stream&lt;PathPlannerAuto&gt;, Stream&lt;PathPlannerAuto&gt;&gt;): SendableChooser&lt;Command&gt;</text><ellipse cx="963.5" cy="501.5859" fill="#84BE84" rx="3" ry="3" style="stroke:#038048;stroke-width:1.0;"/><text fill="#000000" font-family="sans-serif" font-size="14" lengthAdjust="spacing" text-decoration="underline" textLength="231.2529" x="972.5" y="504.9326">getAllAutoNames(): List&lt;String&gt;</text><ellipse cx="963.5" cy="517.8828" fill="#84BE84" rx="3" ry="3" style="stroke:#038048;stroke-width:1.0;"/><text fill="#000000" font-family="sans-serif" font-size="14" lengthAdjust="spacing" text-decoration="underline" textLength="161.458" x="972.5" y="521.2295">isHolonomic(): boolean</text><ellipse cx="963.5" cy="534.1797" fill="#84BE84" rx="3" ry="3" style="stroke:#038048;stroke-width:1.0;"/><text fill="#000000" font-family="sans-serif" font-size="14" lengthAdjust="spacing" text-decoration="underline" textLength="200.7578" x="972.5" y="537.5264">buildAuto(String): Command</text><ellipse cx="963.5" cy="550.4766" fill="#84BE84" rx="3" ry="3" style="stroke:#038048;stroke-width:1.0;"/><text fill="#000000" font-family="sans-serif" font-size="14" lengthAdjust="spacing" text-decoration="underline" textLength="220.6299" x="972.5" y="553.8232">resetOdom(Pose2d): Command</text></g></a><!--class AutoBuilder.TriFunction--><a href="AutoBuilder.TriFunction.html" target="_top" title="AutoBuilder.TriFunction.html" xlink:actuate="onRequest" xlink:href="AutoBuilder.TriFunction.html" xlink:show="new" xlink:title="AutoBuilder.TriFunction.html" xlink:type="simple"><g id="elem_AutoBuilder.TriFunction"><rect codeLine="43" fill="#F1F1F1" height="64.2969" id="AutoBuilder.TriFunction" rx="2.5" ry="2.5" style="stroke:#181818;stroke-width:0.5;" width="301.959" x="1541" y="597"/><ellipse cx="1556" cy="613" fill="#B4A7E5" rx="11" ry="11" style="stroke:#181818;stroke-width:1.0;"/><path d="M1551.9219,608.7656 L1551.9219,606.6094 L1559.3125,606.6094 L1559.3125,608.7656 L1556.8438,608.7656 L1556.8438,616.8438 L1559.3125,616.8438 L1559.3125,619 L1551.9219,619 L1551.9219,616.8438 L1554.3906,616.8438 L1554.3906,608.7656 L1551.9219,608.7656 Z " fill="#000000"/><text fill="#000000" font-family="sans-serif" font-size="14" font-style="italic" lengthAdjust="spacing" textLength="164.9785" x="1570" y="617.8467">AutoBuilder.TriFunction</text><rect fill="#FFFFFF" height="15.9688" style="stroke:#181818;stroke-width:1.0;stroke-dasharray:2.0,2.0;" width="102.9805" x="1742.9785" y="594"/><text fill="#000000" font-family="sans-serif" font-size="12" font-style="italic" lengthAdjust="spacing" textLength="100.9805" x="1743.9785" y="606.1387">In1, In2, In3, Out</text><line style="stroke:#181818;stroke-width:0.5;" x1="1542" x2="1841.959" y1="629" y2="629"/><line style="stroke:#181818;stroke-width:0.5;" x1="1542" x2="1841.959" y1="637" y2="637"/><ellipse cx="1552" cy="650.6484" fill="#84BE84" rx="3" ry="3" style="stroke:#038048;stroke-width:1.0;"/><text fill="#000000" font-family="sans-serif" font-size="14" font-style="italic" lengthAdjust="spacing" textLength="167.5283" x="1561" y="653.9951">apply(In1, In2, In3): Out</text></g></a><!--class NamedCommands--><a href="NamedCommands.html" target="_top" title="NamedCommands.html" xlink:actuate="onRequest" xlink:href="NamedCommands.html" xlink:show="new" xlink:title="NamedCommands.html" xlink:type="simple"><g id="elem_NamedCommands"><rect codeLine="47" fill="#F1F1F1" height="129.4844" id="NamedCommands" rx="2.5" ry="2.5" style="stroke:#181818;stroke-width:0.5;" width="429.9629" x="504" y="277"/><ellipse cx="650.0122" cy="293" fill="#ADD1B2" rx="11" ry="11" style="stroke:#181818;stroke-width:1.0;"/><path d="M652.981,298.6406 Q652.4028,298.9375 651.7622,299.0781 Q651.1216,299.2344 650.4185,299.2344 Q647.9185,299.2344 646.5903,297.5938 Q645.2778,295.9375 645.2778,292.8125 Q645.2778,289.6875 646.5903,288.0313 Q647.9185,286.375 650.4185,286.375 Q651.1216,286.375 651.7622,286.5313 Q652.4185,286.6875 652.981,286.9844 L652.981,289.7031 Q652.356,289.125 651.7622,288.8594 Q651.1685,288.5781 650.5435,288.5781 Q649.1997,288.5781 648.5122,289.6563 Q647.8247,290.7188 647.8247,292.8125 Q647.8247,294.9063 648.5122,295.9844 Q649.1997,297.0469 650.5435,297.0469 Q651.1685,297.0469 651.7622,296.7813 Q652.356,296.5 652.981,295.9219 L652.981,298.6406 Z " fill="#000000"/><text fill="#000000" font-family="sans-serif" font-size="14" lengthAdjust="spacing" textLength="129.4385" x="670.5122" y="297.8467">NamedCommands</text><line style="stroke:#181818;stroke-width:0.5;" x1="505" x2="932.9629" y1="309" y2="309"/><line style="stroke:#181818;stroke-width:0.5;" x1="505" x2="932.9629" y1="317" y2="317"/><ellipse cx="515" cy="330.6484" fill="#84BE84" rx="3" ry="3" style="stroke:#038048;stroke-width:1.0;"/><text fill="#000000" font-family="sans-serif" font-size="14" lengthAdjust="spacing" text-decoration="underline" textLength="298.6074" x="524" y="333.9951">registerCommand(String, Command): void</text><ellipse cx="515" cy="346.9453" fill="#84BE84" rx="3" ry="3" style="stroke:#038048;stroke-width:1.0;"/><text fill="#000000" font-family="sans-serif" font-size="14" lengthAdjust="spacing" text-decoration="underline" textLength="403.9629" x="524" y="350.292">registerCommands(List&lt;Pair&lt;String, Command&gt;&gt;): void</text><ellipse cx="515" cy="363.2422" fill="#84BE84" rx="3" ry="3" style="stroke:#038048;stroke-width:1.0;"/><text fill="#000000" font-family="sans-serif" font-size="14" lengthAdjust="spacing" text-decoration="underline" textLength="358.9072" x="524" y="366.5889">registerCommands(Map&lt;String, Command&gt;): void</text><ellipse cx="515" cy="379.5391" fill="#84BE84" rx="3" ry="3" style="stroke:#038048;stroke-width:1.0;"/><text fill="#000000" font-family="sans-serif" font-size="14" lengthAdjust="spacing" text-decoration="underline" textLength="214.5459" x="524" y="382.8857">hasCommand(String): boolean</text><ellipse cx="515" cy="395.8359" fill="#84BE84" rx="3" ry="3" style="stroke:#038048;stroke-width:1.0;"/><text fill="#000000" font-family="sans-serif" font-size="14" lengthAdjust="spacing" text-decoration="underline" textLength="228.7715" x="524" y="399.1826">getCommand(String): Command</text></g></a><!--class CommandUtil--><a href="CommandUtil.html" target="_top" title="CommandUtil.html" xlink:actuate="onRequest" xlink:href="CommandUtil.html" xlink:show="new" xlink:title="CommandUtil.html" xlink:type="simple"><g id="elem_CommandUtil"><rect codeLine="55" fill="#F1F1F1" height="80.5938" id="CommandUtil" rx="2.5" ry="2.5" style="stroke:#181818;stroke-width:0.5;" width="462.6455" x="22.5" y="301"/><ellipse cx="201.8374" cy="317" fill="#ADD1B2" rx="11" ry="11" style="stroke:#181818;stroke-width:1.0;"/><path d="M204.8062,322.6406 Q204.228,322.9375 203.5874,323.0781 Q202.9468,323.2344 202.2437,323.2344 Q199.7437,323.2344 198.4155,321.5938 Q197.103,319.9375 197.103,316.8125 Q197.103,313.6875 198.4155,312.0313 Q199.7437,310.375 202.2437,310.375 Q202.9468,310.375 203.5874,310.5313 Q204.2437,310.6875 204.8062,310.9844 L204.8062,313.7031 Q204.1812,313.125 203.5874,312.8594 Q202.9937,312.5781 202.3687,312.5781 Q201.0249,312.5781 200.3374,313.6563 Q199.6499,314.7188 199.6499,316.8125 Q199.6499,318.9063 200.3374,319.9844 Q201.0249,321.0469 202.3687,321.0469 Q202.9937,321.0469 203.5874,320.7813 Q204.1812,320.5 204.8062,319.9219 L204.8062,322.6406 Z " fill="#000000"/><text fill="#000000" font-family="sans-serif" font-size="14" lengthAdjust="spacing" textLength="95.4707" x="222.3374" y="321.8467">CommandUtil</text><line style="stroke:#181818;stroke-width:0.5;" x1="23.5" x2="484.1455" y1="333" y2="333"/><line style="stroke:#181818;stroke-width:0.5;" x1="23.5" x2="484.1455" y1="341" y2="341"/><ellipse cx="33.5" cy="354.6484" fill="#84BE84" rx="3" ry="3" style="stroke:#038048;stroke-width:1.0;"/><text fill="#000000" font-family="sans-serif" font-size="14" lengthAdjust="spacing" text-decoration="underline" textLength="337.1211" x="42.5" y="357.9951">wrappedEventCommand(Command): Command</text><ellipse cx="33.5" cy="370.9453" fill="#84BE84" rx="3" ry="3" style="stroke:#038048;stroke-width:1.0;"/><text fill="#000000" font-family="sans-serif" font-size="14" lengthAdjust="spacing" text-decoration="underline" textLength="436.6455" x="42.5" y="374.292">commandFromJson(JSONObject, boolean, boolean): Command</text></g></a><!--class RuntimeException--><a href="https://docs.oracle.com/en/java/javase/11/docs/api/java.base/java/lang/RuntimeException.html?is-external=true" target="_top" title="https://docs.oracle.com/en/java/javase/11/docs/api/java.base/java/lang/RuntimeException.html?is-external=true" xlink:actuate="onRequest" xlink:href="https://docs.oracle.com/en/java/javase/11/docs/api/java.base/java/lang/RuntimeException.html?is-external=true" xlink:show="new" xlink:title="https://docs.oracle.com/en/java/javase/11/docs/api/java.base/java/lang/RuntimeException.html?is-external=true" xlink:type="simple"><g id="elem_RuntimeException"><rect codeLine="63" fill="#F1F1F1" height="48" id="RuntimeException" rx="2.5" ry="2.5" style="stroke:#181818;stroke-width:0.5;" width="160.249" x="2485" y="31"/><ellipse cx="2500" cy="47" fill="#ADD1B2" rx="11" ry="11" style="stroke:#181818;stroke-width:1.0;"/><path d="M2502.9688,52.6406 Q2502.3906,52.9375 2501.75,53.0781 Q2501.1094,53.2344 2500.4063,53.2344 Q2497.9063,53.2344 2496.5781,51.5938 Q2495.2656,49.9375 2495.2656,46.8125 Q2495.2656,43.6875 2496.5781,42.0313 Q2497.9063,40.375 2500.4063,40.375 Q2501.1094,40.375 2501.75,40.5313 Q2502.4063,40.6875 2502.9688,40.9844 L2502.9688,43.7031 Q2502.3438,43.125 2501.75,42.8594 Q2501.1563,42.5781 2500.5313,42.5781 Q2499.1875,42.5781 2498.5,43.6563 Q2497.8125,44.7188 2497.8125,46.8125 Q2497.8125,48.9063 2498.5,49.9844 Q2499.1875,51.0469 2500.5313,51.0469 Q2501.1563,51.0469 2501.75,50.7813 Q2502.3438,50.5 2502.9688,49.9219 L2502.9688,52.6406 Z " fill="#000000"/><text fill="#000000" font-family="sans-serif" font-size="14" lengthAdjust="spacing" textLength="128.249" x="2514" y="51.8467">RuntimeException</text><line style="stroke:#181818;stroke-width:0.5;" x1="2486" x2="2644.249" y1="63" y2="63"/><line style="stroke:#181818;stroke-width:0.5;" x1="2486" x2="2644.249" y1="71" y2="71"/></g></a><polygon fill="none" points="2565,79.2818,2559,97.2818,2571,97.2818,2565,79.2818" style="stroke:#181818;stroke-width:1.0;"/><path d="M2565,97.2818 C2565,148.242 2565,251.6971 2565,309.2397 " fill="none" style="stroke:#181818;stroke-width:1.0;"/><ellipse cx="1692" cy="569.0629" fill="#FFFFFF" rx="8" ry="8" style="stroke:#181818;stroke-width:1.0;"/><line style="stroke:#181818;stroke-width:1.0;" x1="1692" x2="1692" y1="577.0629" y2="561.0629"/><line style="stroke:#181818;stroke-width:1.0;" x1="1684" x2="1700" y1="569.0629" y2="569.0629"/><path d="M1692,577.0629 C1692,590.5195 1692,586.7099 1692,596.8881 " fill="none" style="stroke:#181818;stroke-width:1.0;"/><text fill="#888888" font-family="sans-serif" font-size="10" lengthAdjust="spacing" textLength="3.1787" x="1337.9106" y="680.2822">&#160;</text><a href="https://github.com/talsma-ict/umldoclet" target="_top" title="https://github.com/talsma-ict/umldoclet" xlink:actuate="onRequest" xlink:href="https://github.com/talsma-ict/umldoclet" xlink:show="new" xlink:title="https://github.com/talsma-ict/umldoclet" xlink:type="simple"><text fill="#888888" font-family="sans-serif" font-size="10" lengthAdjust="spacing" textLength="82.3096" x="1298.3452" y="691.9229">UMLDoclet 2.2.1</text></a><!--SRC=[nLVVSzis37xlNy7T7kPSR5bscZNrUTcbRjqcbzIvsjdkbkM1ac293KLg99NKr-L_7qZ9jkpuLwvfvmVR8e4F7q0800aXv1VIazb4iJWnn4XY4gR9rSKveI8YCGXGr414M4fZq2G0BaMi2q4WD3U9L4IEtLCebGATIH4n4PCpUaU9bhaAGNilNX1dQZH5lwUwWXvCxE9R6N8mfDRRgr1g-wrV6ss_VKX6bEkKajFUo2lHvZfjh-sr269p5eBG29cB29IZTPBH47_EYvqwkGEbcHIeuvSurjLG2aEPq2IZocZhqYMdmbYkBG_jl_HUaTh9y7oHc__QSQkJ4oLe7f5FyfzyvkvFcQ8nCkPq8dD3T0g62kgsD7BMWAQemVXrEeK24ht5C2ENrCkeIJ9aW27oE0iy3BKaNmiv-mavrPgSuEgRd77qzTsN439Z7Rk-NhNi9IRbDpU8GIgV_LMYjQ5HU8HxCyc73NONpQssybKRQbZuGFOnp6CMvmfgmppBE0FLlPGQsj5n7GChT9vMLsOolGIjCZtC02AD6s_OJ7XXgqxUAdO7VVm_bkgUAYTzYR7iIyxbFNg5YaRX0wWw7bSWJSzHGamfEL0njMcj1tgY3QIUv-rro9raqVVrQhLFFzI1NgwDJ6lzN8Gs4xhMycMHXlQlvPYc-BvKtTZWwYDAGR7m_x3PoJZJlQdvg8QYfT9QQKjap5pDUufY3AQNOxqKnjApyWNDDU8waJcF-fnbsw77BbCihzfIm52rZDWQrQnqPYGTgu9IaNysd4PXYJJubaKo3pWy6zmv4q3L7zXSGcOcpmJxH1WRsmnFxdbztehwJQvlGTyTBG7HNvirJySDR3EmNQ6NIAIcRCuEGKGK0rWkTQUlxguGPK_wPg0_cKa6hitf2ncnCTQCUO518q3JQfsnchQyhDuu_Zvy2b_hv4Vome9qmhdL_aXJqFR8pfastOBByThwzq7YI2XJ5culJ3FNvuUvEOzmd0GpYB0551c-Gg4occ1gWXhJ4AhZYJTIR1R6Kz6garFHjby7TJB8pV7I-5AHNZFAqC2-1g51UXHRpgIs08eC4NNzu6HZ6vK-QBIzyBnjU58Guuc0AkLdQL8-R-vhIygwvaxtaZBLNS9nsVCKf0kQFSBO387ppQ8JE_NBPOqDkL14knIuCenZh2jFso9zhwWjhE_ki3zFpSwZl3bfmsAthsHwfd6OFXiEFWw2pn2QsGHI7KNMEF6mU2NuZBSf3r_mk4AvyF5JBWnBeJh-9yPakjDiHZBKdiHavU0XgoQ8fiLnNngQhPQJQDACkIKliAjEmbfgBYExeFtET0E-uEaBodypAeU5A3vKkSyuTpgFI7R_RJJMtdCwdLMt4eUvamhPtnMy-huNfBlQJ3ZCozrOIdHsAL4-J39GsBblUrZy5FdvQFNkbRs3ScpmUEqDRmNWQVbBeUesA_PAMt-B-H76s1tom9sUSVVV1WjDCqzvL5nybwx0DpVbbVRzx6vjxwSD_x3HVZNoZpe7ViVtlPU71_xherQhzTVr-ulHpNy0]--></g></svg>