<svg xmlns="http://www.w3.org/2000/svg" xmlns:xlink="http://www.w3.org/1999/xlink" contentStyleType="text/css" height="358px" preserveAspectRatio="none" style="width:1343px;height:358px;background:#FFFFFF;" version="1.1" viewBox="0 0 1343 358" width="1343px" zoomAndPan="magnify"><defs/><g><!--cluster com.pathplanner.lib.util.swerve--><g id="cluster_com.pathplanner.lib.util.swerve"><path d="M16.5,95 L270.1699,95 A3.75,3.75 0 0 1 272.6699,97.5 L279.6699,117.2969 L1333.5,117.2969 A2.5,2.5 0 0 1 1336,119.7969 L1336,322.5 A2.5,2.5 0 0 1 1333.5,325 L16.5,325 A2.5,2.5 0 0 1 14,322.5 L14,97.5 A2.5,2.5 0 0 1 16.5,95 " fill="none" style="stroke:#000000;stroke-width:1.5;"/><line style="stroke:#000000;stroke-width:1.5;" x1="14" x2="279.6699" y1="117.2969" y2="117.2969"/><text fill="#000000" font-family="sans-serif" font-size="14" font-weight="bold" lengthAdjust="spacing" textLength="252.6699" x="18" y="109.9951">com.pathplanner.lib.util.swerve</text></g><!--cluster java.lang--><g id="cluster_java.lang"><path d="M1005.5,4 L1078.8721,4 A3.75,3.75 0 0 1 1081.3721,6.5 L1088.3721,26.2969 L1098.5,26.2969 A2.5,2.5 0 0 1 1101,28.7969 L1101,84.5 A2.5,2.5 0 0 1 1098.5,87 L1005.5,87 A2.5,2.5 0 0 1 1003,84.5 L1003,6.5 A2.5,2.5 0 0 1 1005.5,4 " fill="none" style="stroke:#000000;stroke-width:1.5;"/><line style="stroke:#000000;stroke-width:1.5;" x1="1003" x2="1088.3721" y1="26.2969" y2="26.2969"/><text fill="#000000" font-family="sans-serif" font-size="14" font-weight="bold" lengthAdjust="spacing" textLength="72.3721" x="1007" y="18.9951">java.lang</text></g><!--class SwerveSetpoint--><a href="SwerveSetpoint.html" target="_top" title="SwerveSetpoint.html" xlink:actuate="onRequest" xlink:href="SwerveSetpoint.html" xlink:show="new" xlink:title="SwerveSetpoint.html" xlink:type="simple"><g id="elem_SwerveSetpoint"><rect codeLine="12" fill="#F1F1F1" height="113.1875" id="SwerveSetpoint" rx="2.5" ry="2.5" style="stroke:#181818;stroke-width:0.5;" width="552.4014" x="776" y="163"/><ellipse cx="992.8018" cy="179" fill="#ADD1B2" rx="11" ry="11" style="stroke:#181818;stroke-width:1.0;"/><path d="M995.7705,184.6406 Q995.1924,184.9375 994.5518,185.0781 Q993.9111,185.2344 993.208,185.2344 Q990.708,185.2344 989.3799,183.5938 Q988.0674,181.9375 988.0674,178.8125 Q988.0674,175.6875 989.3799,174.0313 Q990.708,172.375 993.208,172.375 Q993.9111,172.375 994.5518,172.5313 Q995.208,172.6875 995.7705,172.9844 L995.7705,175.7031 Q995.1455,175.125 994.5518,174.8594 Q993.958,174.5781 993.333,174.5781 Q991.9893,174.5781 991.3018,175.6563 Q990.6143,176.7188 990.6143,178.8125 Q990.6143,180.9063 991.3018,181.9844 Q991.9893,183.0469 993.333,183.0469 Q993.958,183.0469 994.5518,182.7813 Q995.1455,182.5 995.7705,181.9219 L995.7705,184.6406 Z " fill="#000000"/><text fill="#000000" font-family="sans-serif" font-size="14" lengthAdjust="spacing" textLength="110.2979" x="1013.3018" y="183.8467">SwerveSetpoint</text><line style="stroke:#181818;stroke-width:0.5;" x1="777" x2="1327.4014" y1="195" y2="195"/><line style="stroke:#181818;stroke-width:0.5;" x1="777" x2="1327.4014" y1="203" y2="203"/><ellipse cx="787" cy="216.6484" fill="#84BE84" rx="3" ry="3" style="stroke:#038048;stroke-width:1.0;"/><text fill="#000000" font-family="sans-serif" font-size="14" lengthAdjust="spacing" textLength="526.4014" x="796" y="219.9951">SwerveSetpoint(ChassisSpeeds, SwerveModuleState[], DriveFeedforwards)</text><ellipse cx="787" cy="232.9453" fill="#84BE84" rx="3" ry="3" style="stroke:#038048;stroke-width:1.0;"/><text fill="#000000" font-family="sans-serif" font-size="14" lengthAdjust="spacing" textLength="269.8008" x="796" y="236.292">robotRelativeSpeeds(): ChassisSpeeds</text><ellipse cx="787" cy="249.2422" fill="#84BE84" rx="3" ry="3" style="stroke:#038048;stroke-width:1.0;"/><text fill="#000000" font-family="sans-serif" font-size="14" lengthAdjust="spacing" textLength="267.4014" x="796" y="252.5889">moduleStates(): SwerveModuleState[]</text><ellipse cx="787" cy="265.5391" fill="#84BE84" rx="3" ry="3" style="stroke:#038048;stroke-width:1.0;"/><text fill="#000000" font-family="sans-serif" font-size="14" lengthAdjust="spacing" textLength="245.0547" x="796" y="268.8857">feedforwards(): DriveFeedforwards</text></g></a><!--class SwerveSetpointGenerator--><a href="SwerveSetpointGenerator.html" target="_top" title="SwerveSetpointGenerator.html" xlink:actuate="onRequest" xlink:href="SwerveSetpointGenerator.html" xlink:show="new" xlink:title="SwerveSetpointGenerator.html" xlink:type="simple"><g id="elem_SwerveSetpointGenerator"><rect codeLine="19" fill="#F1F1F1" height="194.6719" id="SwerveSetpointGenerator" rx="2.5" ry="2.5" style="stroke:#181818;stroke-width:0.5;" width="735.2764" x="22.5" y="122"/><ellipse cx="295.1924" cy="138" fill="#ADD1B2" rx="11" ry="11" style="stroke:#181818;stroke-width:1.0;"/><path d="M298.1611,143.6406 Q297.583,143.9375 296.9424,144.0781 Q296.3018,144.2344 295.5986,144.2344 Q293.0986,144.2344 291.7705,142.5938 Q290.458,140.9375 290.458,137.8125 Q290.458,134.6875 291.7705,133.0313 Q293.0986,131.375 295.5986,131.375 Q296.3018,131.375 296.9424,131.5313 Q297.5986,131.6875 298.1611,131.9844 L298.1611,134.7031 Q297.5361,134.125 296.9424,133.8594 Q296.3486,133.5781 295.7236,133.5781 Q294.3799,133.5781 293.6924,134.6563 Q293.0049,135.7188 293.0049,137.8125 Q293.0049,139.9063 293.6924,140.9844 Q294.3799,142.0469 295.7236,142.0469 Q296.3486,142.0469 296.9424,141.7813 Q297.5361,141.5 298.1611,140.9219 L298.1611,143.6406 Z " fill="#000000"/><text fill="#000000" font-family="sans-serif" font-size="14" lengthAdjust="spacing" textLength="181.3916" x="315.6924" y="142.8467">SwerveSetpointGenerator</text><line style="stroke:#181818;stroke-width:0.5;" x1="23.5" x2="756.7764" y1="154" y2="154"/><line style="stroke:#181818;stroke-width:0.5;" x1="23.5" x2="756.7764" y1="162" y2="162"/><ellipse cx="33.5" cy="175.6484" fill="#84BE84" rx="3" ry="3" style="stroke:#038048;stroke-width:1.0;"/><text fill="#000000" font-family="sans-serif" font-size="14" lengthAdjust="spacing" textLength="335.084" x="42.5" y="178.9951">SwerveSetpointGenerator(RobotConfig, double)</text><ellipse cx="33.5" cy="191.9453" fill="#84BE84" rx="3" ry="3" style="stroke:#038048;stroke-width:1.0;"/><text fill="#000000" font-family="sans-serif" font-size="14" lengthAdjust="spacing" textLength="397.8105" x="42.5" y="195.292">SwerveSetpointGenerator(RobotConfig, AngularVelocity)</text><ellipse cx="33.5" cy="208.2422" fill="#84BE84" rx="3" ry="3" style="stroke:#038048;stroke-width:1.0;"/><text fill="#000000" font-family="sans-serif" font-size="14" lengthAdjust="spacing" textLength="709.2764" x="42.5" y="211.5889">generateSetpoint(SwerveSetpoint, ChassisSpeeds, PathConstraints, double, double): SwerveSetpoint</text><ellipse cx="33.5" cy="224.5391" fill="#84BE84" rx="3" ry="3" style="stroke:#038048;stroke-width:1.0;"/><text fill="#000000" font-family="sans-serif" font-size="14" lengthAdjust="spacing" textLength="702.1396" x="42.5" y="227.8857">generateSetpoint(SwerveSetpoint, ChassisSpeeds, PathConstraints, Time, Voltage): SwerveSetpoint</text><ellipse cx="33.5" cy="240.8359" fill="#84BE84" rx="3" ry="3" style="stroke:#038048;stroke-width:1.0;"/><text fill="#000000" font-family="sans-serif" font-size="14" lengthAdjust="spacing" textLength="652.6611" x="42.5" y="244.1826">generateSetpoint(SwerveSetpoint, ChassisSpeeds, PathConstraints, double): SwerveSetpoint</text><ellipse cx="33.5" cy="257.1328" fill="#84BE84" rx="3" ry="3" style="stroke:#038048;stroke-width:1.0;"/><text fill="#000000" font-family="sans-serif" font-size="14" lengthAdjust="spacing" textLength="639.6387" x="42.5" y="260.4795">generateSetpoint(SwerveSetpoint, ChassisSpeeds, PathConstraints, Time): SwerveSetpoint</text><ellipse cx="33.5" cy="273.4297" fill="#84BE84" rx="3" ry="3" style="stroke:#038048;stroke-width:1.0;"/><text fill="#000000" font-family="sans-serif" font-size="14" lengthAdjust="spacing" textLength="581.9775" x="42.5" y="276.7764">generateSetpoint(SwerveSetpoint, ChassisSpeeds, Time, Voltage): SwerveSetpoint</text><ellipse cx="33.5" cy="289.7266" fill="#84BE84" rx="3" ry="3" style="stroke:#038048;stroke-width:1.0;"/><text fill="#000000" font-family="sans-serif" font-size="14" lengthAdjust="spacing" textLength="532.499" x="42.5" y="293.0732">generateSetpoint(SwerveSetpoint, ChassisSpeeds, double): SwerveSetpoint</text><ellipse cx="33.5" cy="306.0234" fill="#84BE84" rx="3" ry="3" style="stroke:#038048;stroke-width:1.0;"/><text fill="#000000" font-family="sans-serif" font-size="14" lengthAdjust="spacing" textLength="519.4766" x="42.5" y="309.3701">generateSetpoint(SwerveSetpoint, ChassisSpeeds, Time): SwerveSetpoint</text></g></a><!--class Record--><a href="https://docs.oracle.com/en/java/javase/11/docs/api/java.base/java/lang/Record.html?is-external=true" target="_top" title="https://docs.oracle.com/en/java/javase/11/docs/api/java.base/java/lang/Record.html?is-external=true" xlink:actuate="onRequest" xlink:href="https://docs.oracle.com/en/java/javase/11/docs/api/java.base/java/lang/Record.html?is-external=true" xlink:show="new" xlink:title="https://docs.oracle.com/en/java/javase/11/docs/api/java.base/java/lang/Record.html?is-external=true" xlink:type="simple"><g id="elem_Record"><rect codeLine="34" fill="#F1F1F1" height="48" id="Record" rx="2.5" ry="2.5" style="stroke:#181818;stroke-width:0.5;" width="81.2461" x="1011.5" y="31"/><ellipse cx="1026.5" cy="47" fill="#A9DCDF" rx="11" ry="11" style="stroke:#181818;stroke-width:1.0;"/><path d="M1026.6094,42.3438 L1025.4531,47.4219 L1027.7813,47.4219 L1026.6094,42.3438 Z M1025.125,40.1094 L1028.1094,40.1094 L1031.4688,52.5 L1029.0156,52.5 L1028.25,49.4375 L1024.9688,49.4375 L1024.2188,52.5 L1021.7813,52.5 L1025.125,40.1094 Z " fill="#000000"/><text fill="#000000" font-family="sans-serif" font-size="14" font-style="italic" lengthAdjust="spacing" textLength="49.2461" x="1040.5" y="51.8467">Record</text><line style="stroke:#181818;stroke-width:0.5;" x1="1012.5" x2="1091.7461" y1="63" y2="63"/><line style="stroke:#181818;stroke-width:0.5;" x1="1012.5" x2="1091.7461" y1="71" y2="71"/></g></a><polygon fill="none" points="1052,79.2823,1046,97.2823,1058,97.2823,1052,79.2823" style="stroke:#181818;stroke-width:1.0;"/><path d="M1052,97.2823 C1052,119.0466 1052,134.3898 1052,162.9886 " fill="none" style="stroke:#181818;stroke-width:1.0;"/><text fill="#888888" font-family="sans-serif" font-size="10" lengthAdjust="spacing" textLength="3.1787" x="661.9106" y="336.2822">&#160;</text><a href="https://github.com/talsma-ict/umldoclet" target="_top" title="https://github.com/talsma-ict/umldoclet" xlink:actuate="onRequest" xlink:href="https://github.com/talsma-ict/umldoclet" xlink:show="new" xlink:title="https://github.com/talsma-ict/umldoclet" xlink:type="simple"><text fill="#888888" font-family="sans-serif" font-size="10" lengthAdjust="spacing" textLength="82.3096" x="622.3452" y="347.9229">UMLDoclet 2.2.1</text></a><!--SRC=[lLLDRzf04BtdLqpLGq05sv3coqfR8QAchOWK0ScXbCDY3sQRPTVT7PEYDl-zOqCSJAEqgfBw0FBkp7jldtTc001seMlIfPN9Z80Cq4mwk3plWT0n9AZH2i8Ov5maw622okZ4hG8HH4OpOy5CYxV8M8ikDJgMEe5FOY70cSn6wBoT7IYeXdVeDy9je4-M-UAfYHGIrBhr3Kdje7NGR0VjVHWAvUO2FdQ7tXhjFgVjjRqMCBQI4Mh7a9cEqHQoEgc8-A-tscd00gsJHdDEiCR9ZnePJK9g1wcmvF8ZNIYXATVQyfZ_jNS8jSwWLzKM71VQ6j2nMcGnzCsth3pkYzIAX1KhiJGPWPiZ2IsABSUQ7JAL8FOl35S9BFIQRMOjSoyLD4jP0LlaAJdnCfBASpTe5mW_Lk7v4odX70oAzG5IQgGc68sg2zwCvceyvZpOU5vLWshT6KD9DqWHOzTOOvwRE5Cu8FvCet43JgrSu7iEc1fx8spiwbL8QoQ6-gW4STmAgLOFeG9TpPZV4nIX3z1M4wORx7d2RvBAyDl7RJfRNJ_sVzklSkUlZ2kZQ_tyz5sZfp9fG6ooYSBwFsHsT98fOQ-urY99oos8kweflriLim5Rt_62Bn8ZEx9ylSdT2Ii5XbksF37RKCwPwyeeuflzt6J_xqXFpF6SBZsBAOzxiAwyssfR-yeJmUEMbcpKavZalaQqhj0-yX29kI1dHAaBVJysaVCCHoZqk2twgFqSflXnwBTQHOGlKbaiUPDyjOZ8YVmLNb76xwHhudT2RjJg3TaCn-DDaQMuC5oBEFdPRFwf5OVXbWC5recZfSAtvI6dnZ3lLXVvi4pHzgI-xXh5FUZbqSExb_aSKr8ZZyxeMYER56puND3v6tnhhY_wtiD4qYoR5FPHCKERCY8_cwjuDJotnkZQbrquA-TpFkEQmNwpVJWCZiAz80m2hztQEpWEZjgjpwEpy-7u5m00]--></g></svg>