<svg xmlns="http://www.w3.org/2000/svg" xmlns:xlink="http://www.w3.org/1999/xlink" contentStyleType="text/css" height="548px" preserveAspectRatio="none" style="width:1595px;height:548px;background:#FFFFFF;" version="1.1" viewBox="0 0 1595 548" width="1595px" zoomAndPan="magnify"><defs/><g><!--cluster com.pathplanner.lib.pathfinding--><g id="cluster_com.pathplanner.lib.pathfinding"><path d="M292.5,4 L550.1006,4 A3.75,3.75 0 0 1 552.6006,6.5 L559.6006,26.2969 L1585.5,26.2969 A2.5,2.5 0 0 1 1588,28.7969 L1588,512.5 A2.5,2.5 0 0 1 1585.5,515 L292.5,515 A2.5,2.5 0 0 1 290,512.5 L290,6.5 A2.5,2.5 0 0 1 292.5,4 " fill="none" style="stroke:#000000;stroke-width:1.5;"/><line style="stroke:#000000;stroke-width:1.5;" x1="290" x2="559.6006" y1="26.2969" y2="26.2969"/><text fill="#000000" font-family="sans-serif" font-size="14" font-weight="bold" lengthAdjust="spacing" textLength="256.6006" x="294" y="18.9951">com.pathplanner.lib.pathfinding</text></g><!--cluster java.lang--><g id="cluster_java.lang"><path d="M16.5,234.5 L89.8721,234.5 A3.75,3.75 0 0 1 92.3721,237 L99.3721,256.7969 L279.5,256.7969 A2.5,2.5 0 0 1 282,259.2969 L282,331 A2.5,2.5 0 0 1 279.5,333.5 L16.5,333.5 A2.5,2.5 0 0 1 14,331 L14,237 A2.5,2.5 0 0 1 16.5,234.5 " fill="none" style="stroke:#000000;stroke-width:1.5;"/><line style="stroke:#000000;stroke-width:1.5;" x1="14" x2="99.3721" y1="256.7969" y2="256.7969"/><text fill="#000000" font-family="sans-serif" font-size="14" font-weight="bold" lengthAdjust="spacing" textLength="72.3721" x="18" y="249.4951">java.lang</text></g><!--class LocalADStar--><a href="LocalADStar.html" target="_top" title="LocalADStar.html" xlink:actuate="onRequest" xlink:href="LocalADStar.html" xlink:show="new" xlink:title="LocalADStar.html" xlink:type="simple"><g id="elem_LocalADStar"><rect codeLine="12" fill="#F1F1F1" height="129.4844" id="LocalADStar" rx="2.5" ry="2.5" style="stroke:#181818;stroke-width:0.5;" width="631.8828" x="623" y="229"/><ellipse cx="891.8916" cy="245" fill="#ADD1B2" rx="11" ry="11" style="stroke:#181818;stroke-width:1.0;"/><path d="M894.8604,250.6406 Q894.2822,250.9375 893.6416,251.0781 Q893.001,251.2344 892.2979,251.2344 Q889.7979,251.2344 888.4697,249.5938 Q887.1572,247.9375 887.1572,244.8125 Q887.1572,241.6875 888.4697,240.0313 Q889.7979,238.375 892.2979,238.375 Q893.001,238.375 893.6416,238.5313 Q894.2979,238.6875 894.8604,238.9844 L894.8604,241.7031 Q894.2354,241.125 893.6416,240.8594 Q893.0479,240.5781 892.4229,240.5781 Q891.0791,240.5781 890.3916,241.6563 Q889.7041,242.7188 889.7041,244.8125 Q889.7041,246.9063 890.3916,247.9844 Q891.0791,249.0469 892.4229,249.0469 Q893.0479,249.0469 893.6416,248.7813 Q894.2354,248.5 894.8604,247.9219 L894.8604,250.6406 Z " fill="#000000"/><text fill="#000000" font-family="sans-serif" font-size="14" lengthAdjust="spacing" textLength="85.5996" x="912.3916" y="249.8467">LocalADStar</text><line style="stroke:#181818;stroke-width:0.5;" x1="624" x2="1253.8828" y1="261" y2="261"/><line style="stroke:#181818;stroke-width:0.5;" x1="624" x2="1253.8828" y1="269" y2="269"/><ellipse cx="634" cy="282.6484" fill="#84BE84" rx="3" ry="3" style="stroke:#038048;stroke-width:1.0;"/><text fill="#000000" font-family="sans-serif" font-size="14" lengthAdjust="spacing" textLength="213.3564" x="643" y="285.9951">isNewPathAvailable(): boolean</text><ellipse cx="634" cy="298.9453" fill="#84BE84" rx="3" ry="3" style="stroke:#038048;stroke-width:1.0;"/><text fill="#000000" font-family="sans-serif" font-size="14" lengthAdjust="spacing" textLength="459.1016" x="643" y="302.292">getCurrentPath(PathConstraints, GoalEndState): PathPlannerPath</text><ellipse cx="634" cy="315.2422" fill="#84BE84" rx="3" ry="3" style="stroke:#038048;stroke-width:1.0;"/><text fill="#000000" font-family="sans-serif" font-size="14" lengthAdjust="spacing" textLength="256.457" x="643" y="318.5889">setStartPosition(Translation2d): void</text><ellipse cx="634" cy="331.5391" fill="#84BE84" rx="3" ry="3" style="stroke:#038048;stroke-width:1.0;"/><text fill="#000000" font-family="sans-serif" font-size="14" lengthAdjust="spacing" textLength="254.1396" x="643" y="334.8857">setGoalPosition(Translation2d): void</text><ellipse cx="634" cy="347.8359" fill="#84BE84" rx="3" ry="3" style="stroke:#038048;stroke-width:1.0;"/><text fill="#000000" font-family="sans-serif" font-size="14" lengthAdjust="spacing" textLength="605.8828" x="643" y="351.1826">setDynamicObstacles(List&lt;Pair&lt;Translation2d, Translation2d&gt;&gt;, Translation2d): void</text></g></a><!--class LocalADStar.GridPosition--><a href="LocalADStar.GridPosition.html" target="_top" title="LocalADStar.GridPosition.html" xlink:actuate="onRequest" xlink:href="LocalADStar.GridPosition.html" xlink:show="new" xlink:title="LocalADStar.GridPosition.html" xlink:type="simple"><g id="elem_LocalADStar.GridPosition"><rect codeLine="20" fill="#F1F1F1" height="113.1875" id="LocalADStar.GridPosition" rx="2.5" ry="2.5" style="stroke:#181818;stroke-width:0.5;" width="227.585" x="298" y="394"/><ellipse cx="322.5155" cy="410" fill="#ADD1B2" rx="11" ry="11" style="stroke:#181818;stroke-width:1.0;"/><path d="M325.4842,415.6406 Q324.9061,415.9375 324.2655,416.0781 Q323.6249,416.2344 322.9217,416.2344 Q320.4217,416.2344 319.0936,414.5938 Q317.7811,412.9375 317.7811,409.8125 Q317.7811,406.6875 319.0936,405.0313 Q320.4217,403.375 322.9217,403.375 Q323.6249,403.375 324.2655,403.5313 Q324.9217,403.6875 325.4842,403.9844 L325.4842,406.7031 Q324.8592,406.125 324.2655,405.8594 Q323.6717,405.5781 323.0467,405.5781 Q321.703,405.5781 321.0155,406.6563 Q320.328,407.7188 320.328,409.8125 Q320.328,411.9063 321.0155,412.9844 Q321.703,414.0469 323.0467,414.0469 Q323.6717,414.0469 324.2655,413.7813 Q324.8592,413.5 325.4842,412.9219 L325.4842,415.6406 Z " fill="#000000"/><text fill="#000000" font-family="sans-serif" font-size="14" lengthAdjust="spacing" textLength="174.4395" x="338.63" y="414.8467">LocalADStar.GridPosition</text><line style="stroke:#181818;stroke-width:0.5;" x1="299" x2="524.585" y1="426" y2="426"/><line style="stroke:#181818;stroke-width:0.5;" x1="299" x2="524.585" y1="434" y2="434"/><ellipse cx="309" cy="447.6484" fill="#84BE84" rx="3" ry="3" style="stroke:#038048;stroke-width:1.0;"/><text fill="#000000" font-family="sans-serif" font-size="14" lengthAdjust="spacing" textLength="140.7178" x="318" y="450.9951">GridPosition(int, int)</text><ellipse cx="309" cy="463.9453" fill="#84BE84" rx="3" ry="3" style="stroke:#038048;stroke-width:1.0;"/><text fill="#000000" font-family="sans-serif" font-size="14" lengthAdjust="spacing" textLength="201.585" x="318" y="467.292">compareTo(GridPosition): int</text><ellipse cx="309" cy="480.2422" fill="#84BE84" rx="3" ry="3" style="stroke:#038048;stroke-width:1.0;"/><text fill="#000000" font-family="sans-serif" font-size="14" lengthAdjust="spacing" textLength="46.6279" x="318" y="483.5889">x(): int</text><ellipse cx="309" cy="496.5391" fill="#84BE84" rx="3" ry="3" style="stroke:#038048;stroke-width:1.0;"/><text fill="#000000" font-family="sans-serif" font-size="14" lengthAdjust="spacing" textLength="46.6279" x="318" y="499.8857">y(): int</text></g></a><!--class Pathfinder--><a href="Pathfinder.html" target="_top" title="Pathfinder.html" xlink:actuate="onRequest" xlink:href="Pathfinder.html" xlink:show="new" xlink:title="Pathfinder.html" xlink:type="simple"><g id="elem_Pathfinder"><rect codeLine="27" fill="#F1F1F1" height="129.4844" id="Pathfinder" rx="2.5" ry="2.5" style="stroke:#181818;stroke-width:0.5;" width="631.8828" x="948" y="47.5"/><ellipse cx="1223.5259" cy="63.5" fill="#B4A7E5" rx="11" ry="11" style="stroke:#181818;stroke-width:1.0;"/><path d="M1219.4478,59.2656 L1219.4478,57.1094 L1226.8384,57.1094 L1226.8384,59.2656 L1224.3696,59.2656 L1224.3696,67.3438 L1226.8384,67.3438 L1226.8384,69.5 L1219.4478,69.5 L1219.4478,67.3438 L1221.9165,67.3438 L1221.9165,59.2656 L1219.4478,59.2656 Z " fill="#000000"/><text fill="#000000" font-family="sans-serif" font-size="14" font-style="italic" lengthAdjust="spacing" textLength="72.3311" x="1244.0259" y="68.3467">Pathfinder</text><line style="stroke:#181818;stroke-width:0.5;" x1="949" x2="1578.8828" y1="79.5" y2="79.5"/><line style="stroke:#181818;stroke-width:0.5;" x1="949" x2="1578.8828" y1="87.5" y2="87.5"/><ellipse cx="959" cy="101.1484" fill="#84BE84" rx="3" ry="3" style="stroke:#038048;stroke-width:1.0;"/><text fill="#000000" font-family="sans-serif" font-size="14" font-style="italic" lengthAdjust="spacing" textLength="213.3564" x="968" y="104.4951">isNewPathAvailable(): boolean</text><ellipse cx="959" cy="117.4453" fill="#84BE84" rx="3" ry="3" style="stroke:#038048;stroke-width:1.0;"/><text fill="#000000" font-family="sans-serif" font-size="14" font-style="italic" lengthAdjust="spacing" textLength="459.1016" x="968" y="120.792">getCurrentPath(PathConstraints, GoalEndState): PathPlannerPath</text><ellipse cx="959" cy="133.7422" fill="#84BE84" rx="3" ry="3" style="stroke:#038048;stroke-width:1.0;"/><text fill="#000000" font-family="sans-serif" font-size="14" font-style="italic" lengthAdjust="spacing" textLength="256.457" x="968" y="137.0889">setStartPosition(Translation2d): void</text><ellipse cx="959" cy="150.0391" fill="#84BE84" rx="3" ry="3" style="stroke:#038048;stroke-width:1.0;"/><text fill="#000000" font-family="sans-serif" font-size="14" font-style="italic" lengthAdjust="spacing" textLength="254.1396" x="968" y="153.3857">setGoalPosition(Translation2d): void</text><ellipse cx="959" cy="166.3359" fill="#84BE84" rx="3" ry="3" style="stroke:#038048;stroke-width:1.0;"/><text fill="#000000" font-family="sans-serif" font-size="14" font-style="italic" lengthAdjust="spacing" textLength="605.8828" x="968" y="169.6826">setDynamicObstacles(List&lt;Pair&lt;Translation2d, Translation2d&gt;&gt;, Translation2d): void</text></g></a><!--class Pathfinding--><a href="Pathfinding.html" target="_top" title="Pathfinding.html" xlink:actuate="onRequest" xlink:href="Pathfinding.html" xlink:show="new" xlink:title="Pathfinding.html" xlink:type="simple"><g id="elem_Pathfinding"><rect codeLine="35" fill="#F1F1F1" height="162.0781" id="Pathfinding" rx="2.5" ry="2.5" style="stroke:#181818;stroke-width:0.5;" width="631.8828" x="298" y="31"/><ellipse cx="569.8857" cy="47" fill="#ADD1B2" rx="11" ry="11" style="stroke:#181818;stroke-width:1.0;"/><path d="M572.8545,52.6406 Q572.2764,52.9375 571.6357,53.0781 Q570.9951,53.2344 570.292,53.2344 Q567.792,53.2344 566.4639,51.5938 Q565.1514,49.9375 565.1514,46.8125 Q565.1514,43.6875 566.4639,42.0313 Q567.792,40.375 570.292,40.375 Q570.9951,40.375 571.6357,40.5313 Q572.292,40.6875 572.8545,40.9844 L572.8545,43.7031 Q572.2295,43.125 571.6357,42.8594 Q571.042,42.5781 570.417,42.5781 Q569.0732,42.5781 568.3857,43.6563 Q567.6982,44.7188 567.6982,46.8125 Q567.6982,48.9063 568.3857,49.9844 Q569.0732,51.0469 570.417,51.0469 Q571.042,51.0469 571.6357,50.7813 Q572.2295,50.5 572.8545,49.9219 L572.8545,52.6406 Z " fill="#000000"/><text fill="#000000" font-family="sans-serif" font-size="14" lengthAdjust="spacing" textLength="79.6113" x="590.3857" y="51.8467">Pathfinding</text><line style="stroke:#181818;stroke-width:0.5;" x1="299" x2="928.8828" y1="63" y2="63"/><line style="stroke:#181818;stroke-width:0.5;" x1="299" x2="928.8828" y1="71" y2="71"/><ellipse cx="309" cy="84.6484" fill="#84BE84" rx="3" ry="3" style="stroke:#038048;stroke-width:1.0;"/><text fill="#000000" font-family="sans-serif" font-size="14" lengthAdjust="spacing" text-decoration="underline" textLength="215.7764" x="318" y="87.9951">setPathfinder(Pathfinder): void</text><ellipse cx="309" cy="100.9453" fill="#84BE84" rx="3" ry="3" style="stroke:#038048;stroke-width:1.0;"/><text fill="#000000" font-family="sans-serif" font-size="14" lengthAdjust="spacing" text-decoration="underline" textLength="165.2178" x="318" y="104.292">ensureInitialized(): void</text><ellipse cx="309" cy="117.2422" fill="#84BE84" rx="3" ry="3" style="stroke:#038048;stroke-width:1.0;"/><text fill="#000000" font-family="sans-serif" font-size="14" lengthAdjust="spacing" text-decoration="underline" textLength="213.3564" x="318" y="120.5889">isNewPathAvailable(): boolean</text><ellipse cx="309" cy="133.5391" fill="#84BE84" rx="3" ry="3" style="stroke:#038048;stroke-width:1.0;"/><text fill="#000000" font-family="sans-serif" font-size="14" lengthAdjust="spacing" text-decoration="underline" textLength="459.1016" x="318" y="136.8857">getCurrentPath(PathConstraints, GoalEndState): PathPlannerPath</text><ellipse cx="309" cy="149.8359" fill="#84BE84" rx="3" ry="3" style="stroke:#038048;stroke-width:1.0;"/><text fill="#000000" font-family="sans-serif" font-size="14" lengthAdjust="spacing" text-decoration="underline" textLength="256.457" x="318" y="153.1826">setStartPosition(Translation2d): void</text><ellipse cx="309" cy="166.1328" fill="#84BE84" rx="3" ry="3" style="stroke:#038048;stroke-width:1.0;"/><text fill="#000000" font-family="sans-serif" font-size="14" lengthAdjust="spacing" text-decoration="underline" textLength="254.1396" x="318" y="169.4795">setGoalPosition(Translation2d): void</text><ellipse cx="309" cy="182.4297" fill="#84BE84" rx="3" ry="3" style="stroke:#038048;stroke-width:1.0;"/><text fill="#000000" font-family="sans-serif" font-size="14" lengthAdjust="spacing" text-decoration="underline" textLength="605.8828" x="318" y="185.7764">setDynamicObstacles(List&lt;Pair&lt;Translation2d, Translation2d&gt;&gt;, Translation2d): void</text></g></a><!--class Record--><a href="https://docs.oracle.com/en/java/javase/11/docs/api/java.base/java/lang/Record.html?is-external=true" target="_top" title="https://docs.oracle.com/en/java/javase/11/docs/api/java.base/java/lang/Record.html?is-external=true" xlink:actuate="onRequest" xlink:href="https://docs.oracle.com/en/java/javase/11/docs/api/java.base/java/lang/Record.html?is-external=true" xlink:show="new" xlink:title="https://docs.oracle.com/en/java/javase/11/docs/api/java.base/java/lang/Record.html?is-external=true" xlink:type="simple"><g id="elem_Record"><rect codeLine="48" fill="#F1F1F1" height="48" id="Record" rx="2.5" ry="2.5" style="stroke:#181818;stroke-width:0.5;" width="81.2461" x="192.5" y="269.5"/><ellipse cx="207.5" cy="285.5" fill="#A9DCDF" rx="11" ry="11" style="stroke:#181818;stroke-width:1.0;"/><path d="M207.6094,280.8438 L206.4531,285.9219 L208.7813,285.9219 L207.6094,280.8438 Z M206.125,278.6094 L209.1094,278.6094 L212.4688,291 L210.0156,291 L209.25,287.9375 L205.9688,287.9375 L205.2188,291 L202.7813,291 L206.125,278.6094 Z " fill="#000000"/><text fill="#000000" font-family="sans-serif" font-size="14" font-style="italic" lengthAdjust="spacing" textLength="49.2461" x="221.5" y="290.3467">Record</text><line style="stroke:#181818;stroke-width:0.5;" x1="193.5" x2="272.7461" y1="301.5" y2="301.5"/><line style="stroke:#181818;stroke-width:0.5;" x1="193.5" x2="272.7461" y1="309.5" y2="309.5"/></g></a><!--class Comparable--><a href="https://docs.oracle.com/en/java/javase/11/docs/api/java.base/java/lang/Comparable.html?is-external=true" target="_top" title="https://docs.oracle.com/en/java/javase/11/docs/api/java.base/java/lang/Comparable.html?is-external=true" xlink:actuate="onRequest" xlink:href="https://docs.oracle.com/en/java/javase/11/docs/api/java.base/java/lang/Comparable.html?is-external=true" xlink:show="new" xlink:title="https://docs.oracle.com/en/java/javase/11/docs/api/java.base/java/lang/Comparable.html?is-external=true" xlink:type="simple"><g id="elem_Comparable"><rect codeLine="49" fill="#F1F1F1" height="64.2969" id="Comparable" rx="2.5" ry="2.5" style="stroke:#181818;stroke-width:0.5;" width="151.7471" x="22" y="261.5"/><ellipse cx="47.4616" cy="277.5" fill="#B4A7E5" rx="11" ry="11" style="stroke:#181818;stroke-width:1.0;"/><path d="M43.3835,273.2656 L43.3835,271.1094 L50.7741,271.1094 L50.7741,273.2656 L48.3054,273.2656 L48.3054,281.3438 L50.7741,281.3438 L50.7741,283.5 L43.3835,283.5 L43.3835,281.3438 L45.8522,281.3438 L45.8522,273.2656 L43.3835,273.2656 Z " fill="#000000"/><text fill="#000000" font-family="sans-serif" font-size="14" font-style="italic" lengthAdjust="spacing" textLength="85.1689" x="63.7864" y="282.3467">Comparable</text><rect fill="#FFFFFF" height="15.9688" style="stroke:#181818;stroke-width:1.0;stroke-dasharray:2.0,2.0;" width="9.3301" x="167.417" y="258.5"/><text fill="#000000" font-family="sans-serif" font-size="12" font-style="italic" lengthAdjust="spacing" textLength="7.3301" x="168.417" y="270.6387">T</text><line style="stroke:#181818;stroke-width:0.5;" x1="23" x2="172.7471" y1="293.5" y2="293.5"/><line style="stroke:#181818;stroke-width:0.5;" x1="23" x2="172.7471" y1="301.5" y2="301.5"/><ellipse cx="33" cy="315.1484" fill="#84BE84" rx="3" ry="3" style="stroke:#038048;stroke-width:1.0;"/><text fill="#000000" font-family="sans-serif" font-size="14" font-style="italic" lengthAdjust="spacing" textLength="125.7471" x="42" y="318.4951">compareTo(T): int</text></g></a><polygon fill="none" points="1148.9598,176.5376,1130.3025,179.9879,1136.1041,190.4922,1148.9598,176.5376" style="stroke:#181818;stroke-width:1.0;"/><path d="M1133.2033,185.24 C1102.4348,202.2337 1084.9344,211.8993 1054.1595,228.8965 " fill="none" style="stroke:#181818;stroke-width:1.0;stroke-dasharray:7.0,7.0;"/><polygon fill="none" points="250.1304,317.7371,256.4715,335.6198,265.9329,328.2386,250.1304,317.7371" style="stroke:#181818;stroke-width:1.0;"/><path d="M261.2022,331.9292 C271.0154,344.5079 272.8871,345.7427 286,358 C299.3311,370.4612 314.3919,382.7124 329.3436,393.998 " fill="none" style="stroke:#181818;stroke-width:1.0;"/><polygon fill="none" points="135.478,325.8177,146.058,341.5677,153.3921,332.0697,135.478,325.8177" style="stroke:#181818;stroke-width:1.0;"/><path d="M149.725,336.8187 C164.0343,347.8678 166.6104,348.8135 183,358 C218.9461,378.148 260.2335,396.0799 297.7645,410.6141 " fill="none" style="stroke:#181818;stroke-width:1.0;stroke-dasharray:7.0,7.0;"/><ellipse cx="715.0731" cy="360.3609" fill="#FFFFFF" rx="8" ry="8" style="stroke:#181818;stroke-width:1.0;"/><line style="stroke:#181818;stroke-width:1.0;" x1="707.3981" x2="722.748" y1="362.6182" y2="358.1035"/><line style="stroke:#181818;stroke-width:1.0;" x1="712.8157" x2="717.3304" y1="352.6859" y2="368.0358"/><path d="M707.3981,362.6182 C639.9304,382.4616 583.5402,399.047 526.0085,415.9681 " fill="none" style="stroke:#181818;stroke-width:1.0;"/><text fill="#888888" font-family="sans-serif" font-size="10" lengthAdjust="spacing" textLength="3.1787" x="787.9106" y="526.2822">&#160;</text><a href="https://github.com/talsma-ict/umldoclet" target="_top" title="https://github.com/talsma-ict/umldoclet" xlink:actuate="onRequest" xlink:href="https://github.com/talsma-ict/umldoclet" xlink:show="new" xlink:title="https://github.com/talsma-ict/umldoclet" xlink:type="simple"><text fill="#888888" font-family="sans-serif" font-size="10" lengthAdjust="spacing" textLength="82.3096" x="748.3452" y="537.9229">UMLDoclet 2.2.1</text></a><!--SRC=[lLR1Sjis4BtdAxRJG-Y9H59gxBWSrHsDt77JKHfDebpgwh0aOGar1B00w4HD_EzPaB84qh8pdBhLWIA0VRiFkuyB000yXuagDfelLnQi0hlY1ZwycGBA79PCCesMvS3Nk6G6KYQKN9hQa06MTgKqgAjgb2cjcIcKpBbSmczuWs1KgJDcmcVFe0erl_F-4OtdFTsuoNEL2MOXc1nvb8RnuAG_Z8V7C4TXrWYl9_DmwssF6OR3S03aM_2CIKCkIvapNT4Q5vZHtxHUwS4DquOhIPXuwyTjDLFI8fS62jJMk2tD14hhk0v2YlyoV0N1-FsqoIt-iUBMWx6MMERmJlrTxhRxNQ5nIOm5RbHfmQoPHOdLaY7EXb4ej9I_9Aa1HFIQqanSrc61TbKG0qfHA7XQZQzudThFjRdxPGADWQdAK8pFtrlKS7dfZSALNOl5WX3W_LvmyplxE2EFunla0bF1WgC4KgK4GzaqNJ8xAQckqZhxm3qcIXghALdMzE12eVX5vXJCClBXrcSrRVVQz4MxTgJiJ1bkgGJ1NACq0jtxC2VqZUBvFOYBq0rnlf6uvjdRr5WaUPXWoeqTpP3hKGFVWyRmxAmrqVP_-qZUmmlDypkQhIBuImzKn3S9ABCzeCTHquPaGOfXSnNuraIIJ9kMdu93ivlshBSVccRw2ZDMLT09ZJafxGU7UN_6r4aXixTTHEMZdb1VljlkKckXkwck1VxV13ZpkiA-MZHwe5p4n_Ai9hclRR1_FRYv7OeQQAdPQqbPGS7_ONdmk7q7IUmmJoa8VxjTvU1ZEuh1X_x7KhXjdXn_qQ4RKZQMNk7lfBcLp3j6vtHEQbbPMvWaYdALcL1fnowa5XCn6JatrSEmQ32eB28iU3KLfcwsid21ejfVfRUVkUcpJzH898gVh2xPOd6WmKogDkR4C9gVFHsFlTk7k3pIk_QjTNwlHtff_iR1d2HUynnz2SDl0xnZeegmAs2IR0ir-jBlT_BJE6xQJlTPwaxmlkCkQ7Znh_PHnHiPkn7iR5USAwMemgsw_hefc9voUJrHWYvNtvyUNltWgYIuP7GdpQubeqyZRbLz57dnjh7-b7l5BhbTbMabLbjTJliyir6v5dbzAstTJxTVmtEus5rytUMn7n_tXw_cyMdoGvp4SNWo69p4foSlZ_-ul7WpNtm5]--></g></svg>