<svg xmlns="http://www.w3.org/2000/svg" xmlns:xlink="http://www.w3.org/1999/xlink" contentStyleType="text/css" height="651px" preserveAspectRatio="none" style="width:2211px;height:651px;background:#FFFFFF;" version="1.1" viewBox="0 0 2211 651" width="2211px" zoomAndPan="magnify"><defs/><g><!--cluster com.pathplanner.lib.util--><g id="cluster_com.pathplanner.lib.util"><path d="M16.5,122 L208.5645,122 A3.75,3.75 0 0 1 211.0645,124.5 L218.0645,144.2969 L2201.5,144.2969 A2.5,2.5 0 0 1 2204,146.7969 L2204,615.5 A2.5,2.5 0 0 1 2201.5,618 L16.5,618 A2.5,2.5 0 0 1 14,615.5 L14,124.5 A2.5,2.5 0 0 1 16.5,122 " fill="none" style="stroke:#000000;stroke-width:1.5;"/><line style="stroke:#000000;stroke-width:1.5;" x1="14" x2="218.0645" y1="144.2969" y2="144.2969"/><text fill="#000000" font-family="sans-serif" font-size="14" font-weight="bold" lengthAdjust="spacing" textLength="191.0645" x="18" y="136.9951">com.pathplanner.lib.util</text></g><!--cluster java.lang--><g id="cluster_java.lang"><path d="M522.5,12 L595.8721,12 A3.75,3.75 0 0 1 598.3721,14.5 L605.3721,34.2969 L793.5,34.2969 A2.5,2.5 0 0 1 796,36.7969 L796,92.5 A2.5,2.5 0 0 1 793.5,95 L522.5,95 A2.5,2.5 0 0 1 520,92.5 L520,14.5 A2.5,2.5 0 0 1 522.5,12 " fill="none" style="stroke:#000000;stroke-width:1.5;"/><line style="stroke:#000000;stroke-width:1.5;" x1="520" x2="605.3721" y1="34.2969" y2="34.2969"/><text fill="#000000" font-family="sans-serif" font-size="14" font-weight="bold" lengthAdjust="spacing" textLength="72.3721" x="524" y="26.9951">java.lang</text></g><!--cluster edu.wpi.first.math.interpolation--><g id="cluster_edu.wpi.first.math.interpolation"><path d="M893.5,4 L1149.3438,4 A3.75,3.75 0 0 1 1151.8438,6.5 L1158.8438,26.2969 L1158.5,26.2969 A2.5,2.5 0 0 1 1161,28.7969 L1161,100.5 A2.5,2.5 0 0 1 1158.5,103 L893.5,103 A2.5,2.5 0 0 1 891,100.5 L891,6.5 A2.5,2.5 0 0 1 893.5,4 " fill="none" style="stroke:#000000;stroke-width:1.5;"/><line style="stroke:#000000;stroke-width:1.5;" x1="891" x2="1158.8438" y1="26.2969" y2="26.2969"/><text fill="#000000" font-family="sans-serif" font-size="14" font-weight="bold" lengthAdjust="spacing" textLength="254.8438" x="895" y="18.9951">edu.wpi.first.math.interpolation</text></g><!--class PPLibTelemetry--><a href="PPLibTelemetry.html" target="_top" title="PPLibTelemetry.html" xlink:actuate="onRequest" xlink:href="PPLibTelemetry.html" xlink:show="new" xlink:title="PPLibTelemetry.html" xlink:type="simple"><g id="elem_PPLibTelemetry"><rect codeLine="12" fill="#F1F1F1" height="162.0781" id="PPLibTelemetry" rx="2.5" ry="2.5" style="stroke:#181818;stroke-width:0.5;" width="402.9609" x="1324.5" y="222.5"/><ellipse cx="1467.2754" cy="238.5" fill="#ADD1B2" rx="11" ry="11" style="stroke:#181818;stroke-width:1.0;"/><path d="M1470.2441,244.1406 Q1469.666,244.4375 1469.0254,244.5781 Q1468.3848,244.7344 1467.6816,244.7344 Q1465.1816,244.7344 1463.8535,243.0938 Q1462.541,241.4375 1462.541,238.3125 Q1462.541,235.1875 1463.8535,233.5313 Q1465.1816,231.875 1467.6816,231.875 Q1468.3848,231.875 1469.0254,232.0313 Q1469.6816,232.1875 1470.2441,232.4844 L1470.2441,235.2031 Q1469.6191,234.625 1469.0254,234.3594 Q1468.4316,234.0781 1467.8066,234.0781 Q1466.4629,234.0781 1465.7754,235.1563 Q1465.0879,236.2188 1465.0879,238.3125 Q1465.0879,240.4063 1465.7754,241.4844 Q1466.4629,242.5469 1467.8066,242.5469 Q1468.4316,242.5469 1469.0254,242.2813 Q1469.6191,242 1470.2441,241.4219 L1470.2441,244.1406 Z " fill="#000000"/><text fill="#000000" font-family="sans-serif" font-size="14" lengthAdjust="spacing" textLength="108.9102" x="1487.7754" y="243.3467">PPLibTelemetry</text><line style="stroke:#181818;stroke-width:0.5;" x1="1325.5" x2="1726.4609" y1="254.5" y2="254.5"/><line style="stroke:#181818;stroke-width:0.5;" x1="1325.5" x2="1726.4609" y1="262.5" y2="262.5"/><ellipse cx="1335.5" cy="276.1484" fill="#84BE84" rx="3" ry="3" style="stroke:#038048;stroke-width:1.0;"/><text fill="#000000" font-family="sans-serif" font-size="14" lengthAdjust="spacing" text-decoration="underline" textLength="220.9922" x="1344.5" y="279.4951">enableCompetitionMode(): void</text><ellipse cx="1335.5" cy="292.4453" fill="#84BE84" rx="3" ry="3" style="stroke:#038048;stroke-width:1.0;"/><text fill="#000000" font-family="sans-serif" font-size="14" lengthAdjust="spacing" text-decoration="underline" textLength="356.1934" x="1344.5" y="295.792">setVelocities(double, double, double, double): void</text><ellipse cx="1335.5" cy="308.7422" fill="#84BE84" rx="3" ry="3" style="stroke:#038048;stroke-width:1.0;"/><text fill="#000000" font-family="sans-serif" font-size="14" lengthAdjust="spacing" text-decoration="underline" textLength="207.874" x="1344.5" y="312.0889">setCurrentPose(Pose2d): void</text><ellipse cx="1335.5" cy="325.0391" fill="#84BE84" rx="3" ry="3" style="stroke:#038048;stroke-width:1.0;"/><text fill="#000000" font-family="sans-serif" font-size="14" lengthAdjust="spacing" text-decoration="underline" textLength="271.4277" x="1344.5" y="328.3857">setCurrentPath(PathPlannerPath): void</text><ellipse cx="1335.5" cy="341.3359" fill="#84BE84" rx="3" ry="3" style="stroke:#038048;stroke-width:1.0;"/><text fill="#000000" font-family="sans-serif" font-size="14" lengthAdjust="spacing" text-decoration="underline" textLength="200.6143" x="1344.5" y="344.6826">setTargetPose(Pose2d): void</text><ellipse cx="1335.5" cy="357.6328" fill="#84BE84" rx="3" ry="3" style="stroke:#038048;stroke-width:1.0;"/><text fill="#000000" font-family="sans-serif" font-size="14" lengthAdjust="spacing" text-decoration="underline" textLength="374.7188" x="1344.5" y="360.9795">registerHotReloadPath(String, PathPlannerPath): void</text><ellipse cx="1335.5" cy="373.9297" fill="#84BE84" rx="3" ry="3" style="stroke:#038048;stroke-width:1.0;"/><text fill="#000000" font-family="sans-serif" font-size="14" lengthAdjust="spacing" text-decoration="underline" textLength="376.9609" x="1344.5" y="377.2764">registerHotReloadAuto(String, PathPlannerAuto): void</text></g></a><!--class PathPlannerLogging--><a href="PathPlannerLogging.html" target="_top" title="PathPlannerLogging.html" xlink:actuate="onRequest" xlink:href="PathPlannerLogging.html" xlink:show="new" xlink:title="PathPlannerLogging.html" xlink:type="simple"><g id="elem_PathPlannerLogging"><rect codeLine="22" fill="#F1F1F1" height="145.7813" id="PathPlannerLogging" rx="2.5" ry="2.5" style="stroke:#181818;stroke-width:0.5;" width="450.1973" x="1746" y="230.5"/><ellipse cx="1896.7495" cy="246.5" fill="#ADD1B2" rx="11" ry="11" style="stroke:#181818;stroke-width:1.0;"/><path d="M1899.7183,252.1406 Q1899.1401,252.4375 1898.4995,252.5781 Q1897.8589,252.7344 1897.1558,252.7344 Q1894.6558,252.7344 1893.3276,251.0938 Q1892.0151,249.4375 1892.0151,246.3125 Q1892.0151,243.1875 1893.3276,241.5313 Q1894.6558,239.875 1897.1558,239.875 Q1897.8589,239.875 1898.4995,240.0313 Q1899.1558,240.1875 1899.7183,240.4844 L1899.7183,243.2031 Q1899.0933,242.625 1898.4995,242.3594 Q1897.9058,242.0781 1897.2808,242.0781 Q1895.937,242.0781 1895.2495,243.1563 Q1894.562,244.2188 1894.562,246.3125 Q1894.562,248.4063 1895.2495,249.4844 Q1895.937,250.5469 1897.2808,250.5469 Q1897.9058,250.5469 1898.4995,250.2813 Q1899.0933,250 1899.7183,249.4219 L1899.7183,252.1406 Z " fill="#000000"/><text fill="#000000" font-family="sans-serif" font-size="14" lengthAdjust="spacing" textLength="140.1982" x="1917.2495" y="251.3467">PathPlannerLogging</text><line style="stroke:#181818;stroke-width:0.5;" x1="1747" x2="2195.1973" y1="262.5" y2="262.5"/><line style="stroke:#181818;stroke-width:0.5;" x1="1747" x2="2195.1973" y1="270.5" y2="270.5"/><ellipse cx="1757" cy="284.1484" fill="#84BE84" rx="3" ry="3" style="stroke:#038048;stroke-width:1.0;"/><text fill="#000000" font-family="sans-serif" font-size="14" lengthAdjust="spacing" text-decoration="underline" textLength="387.3789" x="1766" y="287.4951">setLogCurrentPoseCallback(Consumer&lt;Pose2d&gt;): void</text><ellipse cx="1757" cy="300.4453" fill="#84BE84" rx="3" ry="3" style="stroke:#038048;stroke-width:1.0;"/><text fill="#000000" font-family="sans-serif" font-size="14" lengthAdjust="spacing" text-decoration="underline" textLength="380.1191" x="1766" y="303.792">setLogTargetPoseCallback(Consumer&lt;Pose2d&gt;): void</text><ellipse cx="1757" cy="316.7422" fill="#84BE84" rx="3" ry="3" style="stroke:#038048;stroke-width:1.0;"/><text fill="#000000" font-family="sans-serif" font-size="14" lengthAdjust="spacing" text-decoration="underline" textLength="424.1973" x="1766" y="320.0889">setLogActivePathCallback(Consumer&lt;List&lt;Pose2d&gt;&gt;): void</text><ellipse cx="1757" cy="333.0391" fill="#84BE84" rx="3" ry="3" style="stroke:#038048;stroke-width:1.0;"/><text fill="#000000" font-family="sans-serif" font-size="14" lengthAdjust="spacing" text-decoration="underline" textLength="207.8193" x="1766" y="336.3857">logCurrentPose(Pose2d): void</text><ellipse cx="1757" cy="349.3359" fill="#84BE84" rx="3" ry="3" style="stroke:#038048;stroke-width:1.0;"/><text fill="#000000" font-family="sans-serif" font-size="14" lengthAdjust="spacing" text-decoration="underline" textLength="200.5596" x="1766" y="352.6826">logTargetPose(Pose2d): void</text><ellipse cx="1757" cy="365.6328" fill="#84BE84" rx="3" ry="3" style="stroke:#038048;stroke-width:1.0;"/><text fill="#000000" font-family="sans-serif" font-size="14" lengthAdjust="spacing" text-decoration="underline" textLength="261.7891" x="1766" y="368.9795">logActivePath(PathPlannerPath): void</text></g></a><!--class JSONUtil--><a href="JSONUtil.html" target="_top" title="JSONUtil.html" xlink:actuate="onRequest" xlink:href="JSONUtil.html" xlink:show="new" xlink:title="JSONUtil.html" xlink:type="simple"><g id="elem_JSONUtil"><rect codeLine="31" fill="#F1F1F1" height="64.2969" id="JSONUtil" rx="2.5" ry="2.5" style="stroke:#181818;stroke-width:0.5;" width="380.2725" x="1120" y="529.5"/><ellipse cx="1276.8745" cy="545.5" fill="#ADD1B2" rx="11" ry="11" style="stroke:#181818;stroke-width:1.0;"/><path d="M1279.8433,551.1406 Q1279.2651,551.4375 1278.6245,551.5781 Q1277.9839,551.7344 1277.2808,551.7344 Q1274.7808,551.7344 1273.4526,550.0938 Q1272.1401,548.4375 1272.1401,545.3125 Q1272.1401,542.1875 1273.4526,540.5313 Q1274.7808,538.875 1277.2808,538.875 Q1277.9839,538.875 1278.6245,539.0313 Q1279.2808,539.1875 1279.8433,539.4844 L1279.8433,542.2031 Q1279.2183,541.625 1278.6245,541.3594 Q1278.0308,541.0781 1277.4058,541.0781 Q1276.062,541.0781 1275.3745,542.1563 Q1274.687,543.2188 1274.687,545.3125 Q1274.687,547.4063 1275.3745,548.4844 Q1276.062,549.5469 1277.4058,549.5469 Q1278.0308,549.5469 1278.6245,549.2813 Q1279.2183,549 1279.8433,548.4219 L1279.8433,551.1406 Z " fill="#000000"/><text fill="#000000" font-family="sans-serif" font-size="14" lengthAdjust="spacing" textLength="58.0234" x="1297.3745" y="550.3467">JSONUtil</text><line style="stroke:#181818;stroke-width:0.5;" x1="1121" x2="1499.2725" y1="561.5" y2="561.5"/><line style="stroke:#181818;stroke-width:0.5;" x1="1121" x2="1499.2725" y1="569.5" y2="569.5"/><ellipse cx="1131" cy="583.1484" fill="#84BE84" rx="3" ry="3" style="stroke:#038048;stroke-width:1.0;"/><text fill="#000000" font-family="sans-serif" font-size="14" lengthAdjust="spacing" text-decoration="underline" textLength="354.2725" x="1140" y="586.4951">translation2dFromJson(JSONObject): Translation2d</text></g></a><!--class DriveFeedforwards--><a href="DriveFeedforwards.html" target="_top" title="DriveFeedforwards.html" xlink:actuate="onRequest" xlink:href="DriveFeedforwards.html" xlink:show="new" xlink:title="DriveFeedforwards.html" xlink:type="simple"><g id="elem_DriveFeedforwards"><rect codeLine="35" fill="#F1F1F1" height="308.75" id="DriveFeedforwards" rx="2.5" ry="2.5" style="stroke:#181818;stroke-width:0.5;" width="559.791" x="746" y="149"/><ellipse cx="955.2925" cy="165" fill="#ADD1B2" rx="11" ry="11" style="stroke:#181818;stroke-width:1.0;"/><path d="M958.2612,170.6406 Q957.6831,170.9375 957.0425,171.0781 Q956.4019,171.2344 955.6987,171.2344 Q953.1987,171.2344 951.8706,169.5938 Q950.5581,167.9375 950.5581,164.8125 Q950.5581,161.6875 951.8706,160.0313 Q953.1987,158.375 955.6987,158.375 Q956.4019,158.375 957.0425,158.5313 Q957.6987,158.6875 958.2612,158.9844 L958.2612,161.7031 Q957.6362,161.125 957.0425,160.8594 Q956.4487,160.5781 955.8237,160.5781 Q954.48,160.5781 953.7925,161.6563 Q953.105,162.7188 953.105,164.8125 Q953.105,166.9063 953.7925,167.9844 Q954.48,169.0469 955.8237,169.0469 Q956.4487,169.0469 957.0425,168.7813 Q957.6362,168.5 958.2612,167.9219 L958.2612,170.6406 Z " fill="#000000"/><text fill="#000000" font-family="sans-serif" font-size="14" lengthAdjust="spacing" textLength="132.7061" x="975.7925" y="169.8467">DriveFeedforwards</text><line style="stroke:#181818;stroke-width:0.5;" x1="747" x2="1304.791" y1="181" y2="181"/><line style="stroke:#181818;stroke-width:0.5;" x1="747" x2="1304.791" y1="189" y2="189"/><ellipse cx="757" cy="202.6484" fill="#84BE84" rx="3" ry="3" style="stroke:#038048;stroke-width:1.0;"/><text fill="#000000" font-family="sans-serif" font-size="14" lengthAdjust="spacing" textLength="533.791" x="766" y="205.9951">DriveFeedforwards(LinearAcceleration[], Force[], Current[], Force[], Force[])</text><ellipse cx="757" cy="218.9453" fill="#84BE84" rx="3" ry="3" style="stroke:#038048;stroke-width:1.0;"/><text fill="#000000" font-family="sans-serif" font-size="14" lengthAdjust="spacing" textLength="472.4248" x="766" y="222.292">DriveFeedforwards(double[], double[], double[], double[], double[])</text><ellipse cx="757" cy="235.2422" fill="#84BE84" rx="3" ry="3" style="stroke:#038048;stroke-width:1.0;"/><text fill="#000000" font-family="sans-serif" font-size="14" lengthAdjust="spacing" text-decoration="underline" textLength="208.626" x="766" y="238.5889">zeros(int): DriveFeedforwards</text><ellipse cx="757" cy="251.5391" fill="#84BE84" rx="3" ry="3" style="stroke:#038048;stroke-width:1.0;"/><text fill="#000000" font-family="sans-serif" font-size="14" lengthAdjust="spacing" textLength="418.7627" x="766" y="254.8857">interpolate(DriveFeedforwards, double): DriveFeedforwards</text><ellipse cx="757" cy="267.8359" fill="#84BE84" rx="3" ry="3" style="stroke:#038048;stroke-width:1.0;"/><text fill="#000000" font-family="sans-serif" font-size="14" lengthAdjust="spacing" textLength="205.7275" x="766" y="271.1826">reverse(): DriveFeedforwards</text><ellipse cx="757" cy="284.1328" fill="#84BE84" rx="3" ry="3" style="stroke:#038048;stroke-width:1.0;"/><text fill="#000000" font-family="sans-serif" font-size="14" lengthAdjust="spacing" textLength="174.3916" x="766" y="287.4795">flip(): DriveFeedforwards</text><ellipse cx="757" cy="300.4297" fill="#84BE84" rx="3" ry="3" style="stroke:#038048;stroke-width:1.0;"/><text fill="#000000" font-family="sans-serif" font-size="14" lengthAdjust="spacing" textLength="255.3018" x="766" y="303.7764">accelerations(): LinearAcceleration[]</text><ellipse cx="757" cy="316.7266" fill="#84BE84" rx="3" ry="3" style="stroke:#038048;stroke-width:1.0;"/><text fill="#000000" font-family="sans-serif" font-size="14" lengthAdjust="spacing" textLength="155.2783" x="766" y="320.0732">linearForces(): Force[]</text><ellipse cx="757" cy="333.0234" fill="#84BE84" rx="3" ry="3" style="stroke:#038048;stroke-width:1.0;"/><text fill="#000000" font-family="sans-serif" font-size="14" lengthAdjust="spacing" textLength="190.7637" x="766" y="336.3701">torqueCurrents(): Current[]</text><ellipse cx="757" cy="349.3203" fill="#84BE84" rx="3" ry="3" style="stroke:#038048;stroke-width:1.0;"/><text fill="#000000" font-family="sans-serif" font-size="14" lengthAdjust="spacing" textLength="219.6182" x="766" y="352.667">robotRelativeForcesX(): Force[]</text><ellipse cx="757" cy="365.6172" fill="#84BE84" rx="3" ry="3" style="stroke:#038048;stroke-width:1.0;"/><text fill="#000000" font-family="sans-serif" font-size="14" lengthAdjust="spacing" textLength="218.5791" x="766" y="368.9639">robotRelativeForcesY(): Force[]</text><ellipse cx="757" cy="381.9141" fill="#84BE84" rx="3" ry="3" style="stroke:#038048;stroke-width:1.0;"/><text fill="#000000" font-family="sans-serif" font-size="14" lengthAdjust="spacing" textLength="219.4473" x="766" y="385.2607">accelerationsMPSSq(): double[]</text><ellipse cx="757" cy="398.2109" fill="#84BE84" rx="3" ry="3" style="stroke:#038048;stroke-width:1.0;"/><text fill="#000000" font-family="sans-serif" font-size="14" lengthAdjust="spacing" textLength="225.0664" x="766" y="401.5576">linearForcesNewtons(): double[]</text><ellipse cx="757" cy="414.5078" fill="#84BE84" rx="3" ry="3" style="stroke:#038048;stroke-width:1.0;"/><text fill="#000000" font-family="sans-serif" font-size="14" lengthAdjust="spacing" textLength="224.7383" x="766" y="417.8545">torqueCurrentsAmps(): double[]</text><ellipse cx="757" cy="430.8047" fill="#84BE84" rx="3" ry="3" style="stroke:#038048;stroke-width:1.0;"/><text fill="#000000" font-family="sans-serif" font-size="14" lengthAdjust="spacing" textLength="289.4063" x="766" y="434.1514">robotRelativeForcesXNewtons(): double[]</text><ellipse cx="757" cy="447.1016" fill="#84BE84" rx="3" ry="3" style="stroke:#038048;stroke-width:1.0;"/><text fill="#000000" font-family="sans-serif" font-size="14" lengthAdjust="spacing" textLength="288.3672" x="766" y="450.4482">robotRelativeForcesYNewtons(): double[]</text></g></a><!--class FileVersionException--><a href="FileVersionException.html" target="_top" title="FileVersionException.html" xlink:actuate="onRequest" xlink:href="FileVersionException.html" xlink:show="new" xlink:title="FileVersionException.html" xlink:type="simple"><g id="elem_FileVersionException"><rect codeLine="54" fill="#F1F1F1" height="64.2969" id="FileVersionException" rx="2.5" ry="2.5" style="stroke:#181818;stroke-width:0.5;" width="326.2275" x="402" y="271.5"/><ellipse cx="487.7842" cy="287.5" fill="#ADD1B2" rx="11" ry="11" style="stroke:#181818;stroke-width:1.0;"/><path d="M490.7529,293.1406 Q490.1748,293.4375 489.5342,293.5781 Q488.8936,293.7344 488.1904,293.7344 Q485.6904,293.7344 484.3623,292.0938 Q483.0498,290.4375 483.0498,287.3125 Q483.0498,284.1875 484.3623,282.5313 Q485.6904,280.875 488.1904,280.875 Q488.8936,280.875 489.5342,281.0313 Q490.1904,281.1875 490.7529,281.4844 L490.7529,284.2031 Q490.1279,283.625 489.5342,283.3594 Q488.9404,283.0781 488.3154,283.0781 Q486.9717,283.0781 486.2842,284.1563 Q485.5967,285.2188 485.5967,287.3125 Q485.5967,289.4063 486.2842,290.4844 Q486.9717,291.5469 488.3154,291.5469 Q488.9404,291.5469 489.5342,291.2813 Q490.1279,291 490.7529,290.4219 L490.7529,293.1406 Z " fill="#000000"/><text fill="#000000" font-family="sans-serif" font-size="14" lengthAdjust="spacing" textLength="146.1592" x="508.2842" y="292.3467">FileVersionException</text><line style="stroke:#181818;stroke-width:0.5;" x1="403" x2="727.2275" y1="303.5" y2="303.5"/><line style="stroke:#181818;stroke-width:0.5;" x1="403" x2="727.2275" y1="311.5" y2="311.5"/><ellipse cx="413" cy="325.1484" fill="#84BE84" rx="3" ry="3" style="stroke:#038048;stroke-width:1.0;"/><text fill="#000000" font-family="sans-serif" font-size="14" lengthAdjust="spacing" textLength="300.2275" x="422" y="328.4951">FileVersionException(String, String, String)</text></g></a><!--class GeometryUtil--><a href="GeometryUtil.html" target="_top" title="GeometryUtil.html" xlink:actuate="onRequest" xlink:href="GeometryUtil.html" xlink:show="new" xlink:title="GeometryUtil.html" xlink:type="simple"><g id="elem_GeometryUtil"><rect codeLine="58" fill="#F1F1F1" height="96.8906" id="GeometryUtil" rx="2.5" ry="2.5" style="stroke:#181818;stroke-width:0.5;" width="678.1758" x="1518" y="513"/><ellipse cx="1806.1758" cy="529" fill="#ADD1B2" rx="11" ry="11" style="stroke:#181818;stroke-width:1.0;"/><path d="M1809.1445,534.6406 Q1808.5664,534.9375 1807.9258,535.0781 Q1807.2852,535.2344 1806.582,535.2344 Q1804.082,535.2344 1802.7539,533.5938 Q1801.4414,531.9375 1801.4414,528.8125 Q1801.4414,525.6875 1802.7539,524.0313 Q1804.082,522.375 1806.582,522.375 Q1807.2852,522.375 1807.9258,522.5313 Q1808.582,522.6875 1809.1445,522.9844 L1809.1445,525.7031 Q1808.5195,525.125 1807.9258,524.8594 Q1807.332,524.5781 1806.707,524.5781 Q1805.3633,524.5781 1804.6758,525.6563 Q1803.9883,526.7188 1803.9883,528.8125 Q1803.9883,530.9063 1804.6758,531.9844 Q1805.3633,533.0469 1806.707,533.0469 Q1807.332,533.0469 1807.9258,532.7813 Q1808.5195,532.5 1809.1445,531.9219 L1809.1445,534.6406 Z " fill="#000000"/><text fill="#000000" font-family="sans-serif" font-size="14" lengthAdjust="spacing" textLength="93.3242" x="1826.6758" y="533.8467">GeometryUtil</text><line style="stroke:#181818;stroke-width:0.5;" x1="1519" x2="2195.1758" y1="545" y2="545"/><line style="stroke:#181818;stroke-width:0.5;" x1="1519" x2="2195.1758" y1="553" y2="553"/><ellipse cx="1529" cy="566.6484" fill="#84BE84" rx="3" ry="3" style="stroke:#038048;stroke-width:1.0;"/><text fill="#000000" font-family="sans-serif" font-size="14" lengthAdjust="spacing" text-decoration="underline" textLength="576.7344" x="1538" y="569.9951">quadraticLerp(Translation2d, Translation2d, Translation2d, double): Translation2d</text><ellipse cx="1529" cy="582.9453" fill="#84BE84" rx="3" ry="3" style="stroke:#038048;stroke-width:1.0;"/><text fill="#000000" font-family="sans-serif" font-size="14" lengthAdjust="spacing" text-decoration="underline" textLength="652.1758" x="1538" y="586.292">cubicLerp(Translation2d, Translation2d, Translation2d, Translation2d, double): Translation2d</text><ellipse cx="1529" cy="599.2422" fill="#84BE84" rx="3" ry="3" style="stroke:#038048;stroke-width:1.0;"/><text fill="#000000" font-family="sans-serif" font-size="14" lengthAdjust="spacing" text-decoration="underline" textLength="484.5654" x="1538" y="602.5889">calculateRadius(Translation2d, Translation2d, Translation2d): double</text></g></a><!--class FlippingUtil--><a href="FlippingUtil.html" target="_top" title="FlippingUtil.html" xlink:actuate="onRequest" xlink:href="FlippingUtil.html" xlink:show="new" xlink:title="FlippingUtil.html" xlink:type="simple"><g id="elem_FlippingUtil"><rect codeLine="64" fill="#F1F1F1" height="194.6719" id="FlippingUtil" rx="2.5" ry="2.5" style="stroke:#181818;stroke-width:0.5;" width="360.5576" x="22.5" y="206"/><ellipse cx="159.1436" cy="222" fill="#ADD1B2" rx="11" ry="11" style="stroke:#181818;stroke-width:1.0;"/><path d="M162.1123,227.6406 Q161.5342,227.9375 160.8936,228.0781 Q160.2529,228.2344 159.5498,228.2344 Q157.0498,228.2344 155.7217,226.5938 Q154.4092,224.9375 154.4092,221.8125 Q154.4092,218.6875 155.7217,217.0313 Q157.0498,215.375 159.5498,215.375 Q160.2529,215.375 160.8936,215.5313 Q161.5498,215.6875 162.1123,215.9844 L162.1123,218.7031 Q161.4873,218.125 160.8936,217.8594 Q160.2998,217.5781 159.6748,217.5781 Q158.3311,217.5781 157.6436,218.6563 Q156.9561,219.7188 156.9561,221.8125 Q156.9561,223.9063 157.6436,224.9844 Q158.3311,226.0469 159.6748,226.0469 Q160.2998,226.0469 160.8936,225.7813 Q161.4873,225.5 162.1123,224.9219 L162.1123,227.6406 Z " fill="#000000"/><text fill="#000000" font-family="sans-serif" font-size="14" lengthAdjust="spacing" textLength="78.7705" x="179.6436" y="226.8467">FlippingUtil</text><line style="stroke:#181818;stroke-width:0.5;" x1="23.5" x2="382.0576" y1="238" y2="238"/><ellipse cx="33.5" cy="251.6484" fill="none" rx="3" ry="3" style="stroke:#038048;stroke-width:1.0;"/><text fill="#000000" font-family="sans-serif" font-size="14" lengthAdjust="spacing" text-decoration="underline" textLength="125.4189" x="42.5" y="254.9951">fieldSizeX: double</text><ellipse cx="33.5" cy="267.9453" fill="none" rx="3" ry="3" style="stroke:#038048;stroke-width:1.0;"/><text fill="#000000" font-family="sans-serif" font-size="14" lengthAdjust="spacing" text-decoration="underline" textLength="124.3799" x="42.5" y="271.292">fieldSizeY: double</text><line style="stroke:#181818;stroke-width:0.5;" x1="23.5" x2="382.0576" y1="278.5938" y2="278.5938"/><ellipse cx="33.5" cy="292.2422" fill="#84BE84" rx="3" ry="3" style="stroke:#038048;stroke-width:1.0;"/><text fill="#000000" font-family="sans-serif" font-size="14" lengthAdjust="spacing" text-decoration="underline" textLength="322.2939" x="42.5" y="295.5889">flipFieldPosition(Translation2d): Translation2d</text><ellipse cx="33.5" cy="308.5391" fill="#84BE84" rx="3" ry="3" style="stroke:#038048;stroke-width:1.0;"/><text fill="#000000" font-family="sans-serif" font-size="14" lengthAdjust="spacing" text-decoration="underline" textLength="288.1416" x="42.5" y="311.8857">flipFieldRotation(Rotation2d): Rotation2d</text><ellipse cx="33.5" cy="324.8359" fill="#84BE84" rx="3" ry="3" style="stroke:#038048;stroke-width:1.0;"/><text fill="#000000" font-family="sans-serif" font-size="14" lengthAdjust="spacing" text-decoration="underline" textLength="209.3506" x="42.5" y="328.1826">flipFieldPose(Pose2d): Pose2d</text><ellipse cx="33.5" cy="341.1328" fill="#84BE84" rx="3" ry="3" style="stroke:#038048;stroke-width:1.0;"/><text fill="#000000" font-family="sans-serif" font-size="14" lengthAdjust="spacing" text-decoration="underline" textLength="334.5576" x="42.5" y="344.4795">flipFieldSpeeds(ChassisSpeeds): ChassisSpeeds</text><ellipse cx="33.5" cy="357.4297" fill="#84BE84" rx="3" ry="3" style="stroke:#038048;stroke-width:1.0;"/><text fill="#000000" font-family="sans-serif" font-size="14" lengthAdjust="spacing" text-decoration="underline" textLength="254.3447" x="42.5" y="360.7764">flipFeedforwards(double[]): double[]</text><ellipse cx="33.5" cy="373.7266" fill="#84BE84" rx="3" ry="3" style="stroke:#038048;stroke-width:1.0;"/><text fill="#000000" font-family="sans-serif" font-size="14" lengthAdjust="spacing" text-decoration="underline" textLength="263.9355" x="42.5" y="377.0732">flipFeedforwardXs(double[]): double[]</text><ellipse cx="33.5" cy="390.0234" fill="#84BE84" rx="3" ry="3" style="stroke:#038048;stroke-width:1.0;"/><text fill="#000000" font-family="sans-serif" font-size="14" lengthAdjust="spacing" text-decoration="underline" textLength="262.8965" x="42.5" y="393.3701">flipFeedforwardYs(double[]): double[]</text></g></a><!--class FlippingUtil.FieldSymmetry--><a href="FlippingUtil.FieldSymmetry.html" target="_top" title="FlippingUtil.FieldSymmetry.html" xlink:actuate="onRequest" xlink:href="FlippingUtil.FieldSymmetry.html" xlink:show="new" xlink:title="FlippingUtil.FieldSymmetry.html" xlink:type="simple"><g id="elem_FlippingUtil.FieldSymmetry"><rect codeLine="76" fill="#F1F1F1" height="80.5938" id="FlippingUtil.FieldSymmetry" rx="2.5" ry="2.5" style="stroke:#181818;stroke-width:0.5;" width="221.1436" x="93.5" y="521"/><ellipse cx="108.5" cy="537" fill="#EB937F" rx="11" ry="11" style="stroke:#181818;stroke-width:1.0;"/><path d="M112.6094,543 L104.8906,543 L104.8906,530.6094 L112.6094,530.6094 L112.6094,532.7656 L107.3438,532.7656 L107.3438,535.4375 L112.1094,535.4375 L112.1094,537.5938 L107.3438,537.5938 L107.3438,540.8438 L112.6094,540.8438 L112.6094,543 Z " fill="#000000"/><text fill="#000000" font-family="sans-serif" font-size="14" lengthAdjust="spacing" textLength="189.1436" x="122.5" y="541.8467">FlippingUtil.FieldSymmetry</text><line style="stroke:#181818;stroke-width:0.5;" x1="94.5" x2="313.6436" y1="553" y2="553"/><ellipse cx="104.5" cy="566.6484" fill="none" rx="3" ry="3" style="stroke:#038048;stroke-width:1.0;"/><text fill="#000000" font-family="sans-serif" font-size="14" lengthAdjust="spacing" text-decoration="underline" textLength="79.7549" x="113.5" y="569.9951">kRotational</text><ellipse cx="104.5" cy="582.9453" fill="none" rx="3" ry="3" style="stroke:#038048;stroke-width:1.0;"/><text fill="#000000" font-family="sans-serif" font-size="14" lengthAdjust="spacing" text-decoration="underline" textLength="67.4092" x="113.5" y="586.292">kMirrored</text><line style="stroke:#181818;stroke-width:0.5;" x1="94.5" x2="313.6436" y1="593.5938" y2="593.5938"/></g></a><!--class Record--><a href="https://docs.oracle.com/en/java/javase/11/docs/api/java.base/java/lang/Record.html?is-external=true" target="_top" title="https://docs.oracle.com/en/java/javase/11/docs/api/java.base/java/lang/Record.html?is-external=true" xlink:actuate="onRequest" xlink:href="https://docs.oracle.com/en/java/javase/11/docs/api/java.base/java/lang/Record.html?is-external=true" xlink:show="new" xlink:title="https://docs.oracle.com/en/java/javase/11/docs/api/java.base/java/lang/Record.html?is-external=true" xlink:type="simple"><g id="elem_Record"><rect codeLine="84" fill="#F1F1F1" height="48" id="Record" rx="2.5" ry="2.5" style="stroke:#181818;stroke-width:0.5;" width="81.2461" x="528.5" y="39"/><ellipse cx="543.5" cy="55" fill="#A9DCDF" rx="11" ry="11" style="stroke:#181818;stroke-width:1.0;"/><path d="M543.6094,50.3438 L542.4531,55.4219 L544.7813,55.4219 L543.6094,50.3438 Z M542.125,48.1094 L545.1094,48.1094 L548.4688,60.5 L546.0156,60.5 L545.25,57.4375 L541.9688,57.4375 L541.2188,60.5 L538.7813,60.5 L542.125,48.1094 Z " fill="#000000"/><text fill="#000000" font-family="sans-serif" font-size="14" font-style="italic" lengthAdjust="spacing" textLength="49.2461" x="557.5" y="59.8467">Record</text><line style="stroke:#181818;stroke-width:0.5;" x1="529.5" x2="608.7461" y1="71" y2="71"/><line style="stroke:#181818;stroke-width:0.5;" x1="529.5" x2="608.7461" y1="79" y2="79"/></g></a><!--class RuntimeException--><a href="https://docs.oracle.com/en/java/javase/11/docs/api/java.base/java/lang/RuntimeException.html?is-external=true" target="_top" title="https://docs.oracle.com/en/java/javase/11/docs/api/java.base/java/lang/RuntimeException.html?is-external=true" xlink:actuate="onRequest" xlink:href="https://docs.oracle.com/en/java/javase/11/docs/api/java.base/java/lang/RuntimeException.html?is-external=true" xlink:show="new" xlink:title="https://docs.oracle.com/en/java/javase/11/docs/api/java.base/java/lang/RuntimeException.html?is-external=true" xlink:type="simple"><g id="elem_RuntimeException"><rect codeLine="85" fill="#F1F1F1" height="48" id="RuntimeException" rx="2.5" ry="2.5" style="stroke:#181818;stroke-width:0.5;" width="160.249" x="628" y="39"/><ellipse cx="643" cy="55" fill="#ADD1B2" rx="11" ry="11" style="stroke:#181818;stroke-width:1.0;"/><path d="M645.9688,60.6406 Q645.3906,60.9375 644.75,61.0781 Q644.1094,61.2344 643.4063,61.2344 Q640.9063,61.2344 639.5781,59.5938 Q638.2656,57.9375 638.2656,54.8125 Q638.2656,51.6875 639.5781,50.0313 Q640.9063,48.375 643.4063,48.375 Q644.1094,48.375 644.75,48.5313 Q645.4063,48.6875 645.9688,48.9844 L645.9688,51.7031 Q645.3438,51.125 644.75,50.8594 Q644.1563,50.5781 643.5313,50.5781 Q642.1875,50.5781 641.5,51.6563 Q640.8125,52.7188 640.8125,54.8125 Q640.8125,56.9063 641.5,57.9844 Q642.1875,59.0469 643.5313,59.0469 Q644.1563,59.0469 644.75,58.7813 Q645.3438,58.5 645.9688,57.9219 L645.9688,60.6406 Z " fill="#000000"/><text fill="#000000" font-family="sans-serif" font-size="14" lengthAdjust="spacing" textLength="128.249" x="657" y="59.8467">RuntimeException</text><line style="stroke:#181818;stroke-width:0.5;" x1="629" x2="787.249" y1="71" y2="71"/><line style="stroke:#181818;stroke-width:0.5;" x1="629" x2="787.249" y1="79" y2="79"/></g></a><!--class Interpolatable--><a href="https://github.wpilib.org/allwpilib/docs/release/java/edu/wpi/first/math/interpolation/Interpolatable.html?is-external=true" target="_top" title="https://github.wpilib.org/allwpilib/docs/release/java/edu/wpi/first/math/interpolation/Interpolatable.html?is-external=true" xlink:actuate="onRequest" xlink:href="https://github.wpilib.org/allwpilib/docs/release/java/edu/wpi/first/math/interpolation/Interpolatable.html?is-external=true" xlink:show="new" xlink:title="https://github.wpilib.org/allwpilib/docs/release/java/edu/wpi/first/math/interpolation/Interpolatable.html?is-external=true" xlink:type="simple"><g id="elem_Interpolatable"><rect codeLine="90" fill="#F1F1F1" height="64.2969" id="Interpolatable" rx="2.5" ry="2.5" style="stroke:#181818;stroke-width:0.5;" width="196.4541" x="928" y="31"/><ellipse cx="967.6981" cy="47" fill="#B4A7E5" rx="11" ry="11" style="stroke:#181818;stroke-width:1.0;"/><path d="M963.62,42.7656 L963.62,40.6094 L971.0106,40.6094 L971.0106,42.7656 L968.5419,42.7656 L968.5419,50.8438 L971.0106,50.8438 L971.0106,53 L963.62,53 L963.62,50.8438 L966.0888,50.8438 L966.0888,42.7656 L963.62,42.7656 Z " fill="#000000"/><text fill="#000000" font-family="sans-serif" font-size="14" font-style="italic" lengthAdjust="spacing" textLength="98.2393" x="987.1866" y="51.8467">Interpolatable</text><rect fill="#FFFFFF" height="15.9688" style="stroke:#181818;stroke-width:1.0;stroke-dasharray:2.0,2.0;" width="9.3301" x="1118.124" y="28"/><text fill="#000000" font-family="sans-serif" font-size="12" font-style="italic" lengthAdjust="spacing" textLength="7.3301" x="1119.124" y="40.1387">T</text><line style="stroke:#181818;stroke-width:0.5;" x1="929" x2="1123.4541" y1="63" y2="63"/><line style="stroke:#181818;stroke-width:0.5;" x1="929" x2="1123.4541" y1="71" y2="71"/><ellipse cx="939" cy="84.6484" fill="#84BE84" rx="3" ry="3" style="stroke:#038048;stroke-width:1.0;"/><text fill="#000000" font-family="sans-serif" font-size="14" font-style="italic" lengthAdjust="spacing" textLength="170.4541" x="948" y="87.9951">interpolate(T, double): T</text></g></a><polygon fill="none" points="593.6055,87.1384,603.9972,103.0133,611.4438,93.6033,593.6055,87.1384" style="stroke:#181818;stroke-width:1.0;"/><path d="M607.7205,98.3083 C615.3533,104.3485 610.0182,99.0851 619,103 C667.6954,124.2246 687.2659,103.3386 737,122 C757.354,129.6373 777.8199,138.8016 797.946,148.8971 " fill="none" style="stroke:#181818;stroke-width:1.0;"/><polygon fill="none" points="1026,95.1797,1020,113.1797,1032,113.1797,1026,95.1797" style="stroke:#181818;stroke-width:1.0;"/><path d="M1026,113.1797 C1026,127.8897 1026,128.6393 1026,148.8286 " fill="none" style="stroke:#181818;stroke-width:1.0;stroke-dasharray:7.0,7.0;"/><polygon fill="none" points="694.0282,87.3026,679.6261,99.655,689.9179,105.8257,694.0282,87.3026" style="stroke:#181818;stroke-width:1.0;"/><path d="M684.772,102.7404 C658.9096,145.8746 612.8244,222.7369 583.7407,271.2437 " fill="none" style="stroke:#181818;stroke-width:1.0;"/><polygon fill="#181818" points="165.0747,520.8561,163.0494,511.2177,162.1478,516.8023,156.5633,515.9007,165.0747,520.8561" style="stroke:#181818;stroke-width:1.0;"/><path d="M153.6645,401.2882 C144.3169,431.5842 140.3629,464.9436 151,495 C154.221,504.1013 155.7917,507.9987 161.5625,515.9915 " fill="none" style="stroke:#181818;stroke-width:1.0;"/><text fill="#000000" font-family="sans-serif" font-size="13" lengthAdjust="spacing" textLength="97.811" x="153" y="490.0669">symmetryType</text><ellipse cx="251.5418" cy="408.8148" fill="#FFFFFF" rx="8" ry="8" style="stroke:#181818;stroke-width:1.0;"/><line style="stroke:#181818;stroke-width:1.0;" x1="253.7738" x2="249.3098" y1="416.4971" y2="401.1324"/><line style="stroke:#181818;stroke-width:1.0;" x1="243.8595" x2="259.2242" y1="411.0468" y2="406.5828"/><path d="M253.7738,416.4971 C262.5737,446.7858 261.876,464.8156 252,495 C249.0627,503.9774 244.3751,512.7422 239.0545,520.7908 " fill="none" style="stroke:#181818;stroke-width:1.0;"/><text fill="#888888" font-family="sans-serif" font-size="10" lengthAdjust="spacing" textLength="3.1787" x="1095.9106" y="629.2822">&#160;</text><a href="https://github.com/talsma-ict/umldoclet" target="_top" title="https://github.com/talsma-ict/umldoclet" xlink:actuate="onRequest" xlink:href="https://github.com/talsma-ict/umldoclet" xlink:show="new" xlink:title="https://github.com/talsma-ict/umldoclet" xlink:type="simple"><text fill="#888888" font-family="sans-serif" font-size="10" lengthAdjust="spacing" textLength="82.3096" x="1056.3452" y="640.9229">UMLDoclet 2.2.1</text></a><!--SRC=[hLXRSzCu57xdLsXd7t27naxJBHHFjpkPi0KwANIQmC1s-w3O9uceR1b9RWbi__iUoKvYntQSBfi7HvA_Sxz8CY64F2K3aImacyqrqOBeELFamyMGq3WaCuX1KWqXOH6TWI8Ju2AUgGm8XAPwBYGHKpiBX9IW4X67B9wHStf7YHAf342vJvuGAsgyv7vFLO7xP64MNuc0WoREOA-WKgzxyBpJw_QEo9Xo5L7oTZ1sSsvhcfxRSmy8ykOiW5WXopGEGLgr-WaDy6-OlTadTo0L4p7IT7C-njH0n9goM964IgsCIPUSnjheUk2Y_D_S5yJfZuPbtRelhMxxf2zZceRaIdnDL-R-aaWwGuqvNOXK4nM1fZ6rhnJgh015KOt-y_sC01MzHJUZBf6RK3rFK0DqaSlPn4qru-H7XZE_W5EboENba4t6m05vomMvlYulk7CTyPiRf2E5tm-bgMR10ta6CPrm68We0SqqEkL2XE3i-UHEiB211bN_Y5aG81wK4ueKEUoJ-lzMJeCKKoRMbqA1OnwzS6SIz8zZ7fUPayombNPCvGnsboPXnfG6-KReApIPXbReI4lCxttoAE4LLlrKYpfMPdsJrKCbx6lyKCncfjmmz9N5jl2ZHn1PYC60SZx197G68bPf1F8aSzDfgsUHpzgvFyMc7sXs1yQOAfiX-d39guKPBncsKxXvqOPTATRgjcLZ9Ohde_VlFfYolhvU3jiYfYMD5QUcL7lXcHJHkHAnOwZVJxv0e57ck0Xf5lvAejfd0E5Ko7igGuLQLDRgrNbMmJb35WEL_I30pYEjxEkRVN8ciFcRGHw9qbe-s6jZdNKIGx7RQA_1TTz12kMmsFYe8gMi18909WAT24u5MkXjBMmacAt6zjCMv9IpP0SOBVXN6NoTsyiat2Aihor5xlKo2FSWtBRo85dOAc0R5ec9xL_Kv7p6z5CZrnhmvqPmoRIBoz7egu4kOzfiqpkurxapwi5bs_fHiWLRPrwhW3epjn5LAl6CSVYOdKd-_1P0Obo0nLYtt52FTT3LtbB-tslMupK8UsZ8Mr9nsjQMlgOqDB4BXbWtJga3xPFjqrKnrVUjifmWdVmN6Jybal8WDPtWYeOiLOyHl8h-bjXZuISObjpdnMcRpwSCU3XYt-5JHKm3y7CR4AMV6J1kVVOqw6oQiul3LbokXBP8PpcmBDQJ7RGexCBPe8rcb63pLCvWZivbAfkPTbQSR-DHj_4qLNuZwQUVeFsydRQGG12dKIb_tCm3YsXv5sX-sPPRjyieKTw4k61I2WcL4yP3-Ihp1M-1Bfw9PWLPTABm71Fel0Qk02-E8UexrpfHlkU58b2kG0G75wz27iIUOMCV2ho30ulmQCBiaZingnPX17aPFslY7qnru1jkvcZ8xrgcS7EpKO1NQQnP1CN6-t-fiS6vIQ62OnxgF0XXwjudp9qogRGRuS7INPzFZCPhUhi-fG6Gjok4kU2TZ4yBTisOdgSJmzFSAuMSUNZEpcQPHH9tufKjADx3bvuLxndnNacyLnQrWvKsaPOvy50-ROsBtRdUBwkCylqySqx-wNGQxyo-Nt-eQdEhxvSDGock-sWfHMKtCwr5xRfDtVBSGbBSJJgTqnsXvTxW4vMFnei47YFnsNPx6YLcSJrHUi7XT1NqgH3e_usyUOCgIJprtWu45vByUbp_zeFv-6EEYUCv2svZm4BlRcJJYLUGbylwEwvKYIbyRJyyTLYWlJJYOVR5QUFRKzvOdk8fQlbHotmOwdIFEhqNu-wnVzZrkrst-_Be-T71uV7XNzUlByOt_m80]--></g></svg>