<svg xmlns="http://www.w3.org/2000/svg" xmlns:xlink="http://www.w3.org/1999/xlink" contentStyleType="text/css" data-diagram-type="JSON" height="360px" preserveAspectRatio="none" style="width:1078px;height:360px;background:#FFFFFF;" version="1.1" viewBox="0 0 1078 360" width="1078px" zoomAndPan="magnify"><defs/><g><rect fill="#F1F1F1" height="121.7813" rx="5" ry="5" style="stroke:#F1F1F1;stroke-width:1.5;" width="149.4795" x="10" y="133.7422"/><text fill="#000000" font-family="sans-serif" font-size="14" font-weight="bold" lengthAdjust="spacing" textLength="60.9492" x="15" y="148.7373">sources</text><text fill="#000000" font-family="sans-serif" font-size="14" lengthAdjust="spacing" textLength="13.3506" x="141.1289" y="148.7373">&#160;&#160;&#160;</text><line style="stroke:#000000;stroke-width:1;" x1="136.1289" x2="136.1289" y1="133.7422" y2="154.0391"/><line style="stroke:#000000;stroke-width:1;" x1="10" x2="159.4795" y1="154.0391" y2="154.0391"/><text fill="#000000" font-family="sans-serif" font-size="14" font-weight="bold" lengthAdjust="spacing" textLength="116.1289" x="15" y="169.0342">default_source</text><text fill="#000000" font-family="sans-serif" font-size="14" lengthAdjust="spacing" textLength="13.3506" x="141.1289" y="169.0342">&#160;&#160;&#160;</text><line style="stroke:#000000;stroke-width:1;" x1="136.1289" x2="136.1289" y1="154.0391" y2="174.3359"/><line style="stroke:#000000;stroke-width:1;" x1="10" x2="159.4795" y1="174.3359" y2="174.3359"/><text fill="#000000" font-family="sans-serif" font-size="14" font-weight="bold" lengthAdjust="spacing" textLength="112.4922" x="15" y="189.3311">sources_count</text><text fill="#000000" font-family="sans-serif" font-size="14" lengthAdjust="spacing" textLength="8.9072" x="141.1289" y="189.3311">1</text><line style="stroke:#000000;stroke-width:1;" x1="136.1289" x2="136.1289" y1="174.3359" y2="194.6328"/><line style="stroke:#000000;stroke-width:1;" x1="10" x2="159.4795" y1="194.6328" y2="194.6328"/><text fill="#000000" font-family="sans-serif" font-size="14" font-weight="bold" lengthAdjust="spacing" textLength="40.7422" x="15" y="209.6279">sinks</text><text fill="#000000" font-family="sans-serif" font-size="14" lengthAdjust="spacing" textLength="13.3506" x="141.1289" y="209.6279">&#160;&#160;&#160;</text><line style="stroke:#000000;stroke-width:1;" x1="136.1289" x2="136.1289" y1="194.6328" y2="214.9297"/><line style="stroke:#000000;stroke-width:1;" x1="10" x2="159.4795" y1="214.9297" y2="214.9297"/><text fill="#000000" font-family="sans-serif" font-size="14" font-weight="bold" lengthAdjust="spacing" textLength="95.9219" x="15" y="229.9248">default_sink</text><text fill="#000000" font-family="sans-serif" font-size="14" lengthAdjust="spacing" textLength="13.3506" x="141.1289" y="229.9248">&#160;&#160;&#160;</text><line style="stroke:#000000;stroke-width:1;" x1="136.1289" x2="136.1289" y1="214.9297" y2="235.2266"/><line style="stroke:#000000;stroke-width:1;" x1="10" x2="159.4795" y1="235.2266" y2="235.2266"/><text fill="#000000" font-family="sans-serif" font-size="14" font-weight="bold" lengthAdjust="spacing" textLength="92.2852" x="15" y="250.2217">sinks_count</text><text fill="#000000" font-family="sans-serif" font-size="14" lengthAdjust="spacing" textLength="8.9072" x="141.1289" y="250.2217">2</text><line style="stroke:#000000;stroke-width:1;" x1="136.1289" x2="136.1289" y1="235.2266" y2="255.5234"/><rect fill="none" height="121.7813" rx="5" ry="5" style="stroke:#000000;stroke-width:1.5;" width="149.4795" x="10" y="133.7422"/><rect fill="#F1F1F1" height="20.2969" rx="5" ry="5" style="stroke:#F1F1F1;stroke-width:1.5;" width="23.3506" x="390" y="50.5938"/><text fill="#000000" font-family="sans-serif" font-size="14" lengthAdjust="spacing" textLength="13.3506" x="395" y="65.5889">&#160;&#160;&#160;</text><rect fill="none" height="20.2969" rx="5" ry="5" style="stroke:#000000;stroke-width:1.5;" width="23.3506" x="390" y="50.5938"/><rect fill="#F1F1F1" height="101.4844" rx="5" ry="5" style="stroke:#F1F1F1;stroke-width:1.5;" width="411.3643" x="649.5" y="10"/><text fill="#000000" font-family="sans-serif" font-size="14" font-weight="bold" lengthAdjust="spacing" textLength="57.5928" x="654.5" y="24.9951">volume</text><text fill="#000000" font-family="sans-serif" font-size="14" lengthAdjust="spacing" textLength="138.0586" x="753.4492" y="24.9951">0.74508667725208</text><line style="stroke:#000000;stroke-width:1;" x1="748.4492" x2="748.4492" y1="10" y2="30.2969"/><line style="stroke:#000000;stroke-width:1;" x1="649.5" x2="1060.8643" y1="30.2969" y2="30.2969"/><text fill="#000000" font-family="sans-serif" font-size="14" font-weight="bold" lengthAdjust="spacing" textLength="40.7422" x="654.5" y="45.292">mute</text><text fill="#000000" font-family="sans-serif" font-size="14" lengthAdjust="spacing" textLength="50.3057" x="753.4492" y="45.292">&#9744; false</text><line style="stroke:#000000;stroke-width:1;" x1="748.4492" x2="748.4492" y1="30.2969" y2="50.5938"/><line style="stroke:#000000;stroke-width:1;" x1="649.5" x2="1060.8643" y1="50.5938" y2="50.5938"/><text fill="#000000" font-family="sans-serif" font-size="14" font-weight="bold" lengthAdjust="spacing" textLength="14.8203" x="654.5" y="65.5889">id</text><text fill="#000000" font-family="sans-serif" font-size="14" lengthAdjust="spacing" textLength="26.7217" x="753.4492" y="65.5889">123</text><line style="stroke:#000000;stroke-width:1;" x1="748.4492" x2="748.4492" y1="50.5938" y2="70.8906"/><line style="stroke:#000000;stroke-width:1;" x1="649.5" x2="1060.8643" y1="70.8906" y2="70.8906"/><text fill="#000000" font-family="sans-serif" font-size="14" font-weight="bold" lengthAdjust="spacing" textLength="88.9492" x="654.5" y="85.8857">description</text><text fill="#000000" font-family="sans-serif" font-size="14" lengthAdjust="spacing" textLength="94.6982" x="753.4492" y="85.8857">muh webcam</text><line style="stroke:#000000;stroke-width:1;" x1="748.4492" x2="748.4492" y1="70.8906" y2="91.1875"/><line style="stroke:#000000;stroke-width:1;" x1="649.5" x2="1060.8643" y1="91.1875" y2="91.1875"/><text fill="#000000" font-family="sans-serif" font-size="14" font-weight="bold" lengthAdjust="spacing" textLength="43.4971" x="654.5" y="106.1826">name</text><text fill="#000000" font-family="sans-serif" font-size="14" lengthAdjust="spacing" textLength="302.415" x="753.4492" y="106.1826">alsa_input.usb-muh-webcam.analog-stereo</text><line style="stroke:#000000;stroke-width:1;" x1="748.4492" x2="748.4492" y1="91.1875" y2="111.4844"/><rect fill="none" height="101.4844" rx="5" ry="5" style="stroke:#000000;stroke-width:1.5;" width="411.3643" x="649.5" y="10"/><rect fill="#F1F1F1" height="101.4844" rx="5" ry="5" style="stroke:#F1F1F1;stroke-width:1.5;" width="411.3643" x="196" y="89"/><text fill="#000000" font-family="sans-serif" font-size="14" font-weight="bold" lengthAdjust="spacing" textLength="57.5928" x="201" y="103.9951">volume</text><text fill="#000000" font-family="sans-serif" font-size="14" lengthAdjust="spacing" textLength="138.0586" x="299.9492" y="103.9951">0.74508667725208</text><line style="stroke:#000000;stroke-width:1;" x1="294.9492" x2="294.9492" y1="89" y2="109.2969"/><line style="stroke:#000000;stroke-width:1;" x1="196" x2="607.3643" y1="109.2969" y2="109.2969"/><text fill="#000000" font-family="sans-serif" font-size="14" font-weight="bold" lengthAdjust="spacing" textLength="40.7422" x="201" y="124.292">mute</text><text fill="#000000" font-family="sans-serif" font-size="14" lengthAdjust="spacing" textLength="50.3057" x="299.9492" y="124.292">&#9744; false</text><line style="stroke:#000000;stroke-width:1;" x1="294.9492" x2="294.9492" y1="109.2969" y2="129.5938"/><line style="stroke:#000000;stroke-width:1;" x1="196" x2="607.3643" y1="129.5938" y2="129.5938"/><text fill="#000000" font-family="sans-serif" font-size="14" font-weight="bold" lengthAdjust="spacing" textLength="14.8203" x="201" y="144.5889">id</text><text fill="#000000" font-family="sans-serif" font-size="14" lengthAdjust="spacing" textLength="26.7217" x="299.9492" y="144.5889">123</text><line style="stroke:#000000;stroke-width:1;" x1="294.9492" x2="294.9492" y1="129.5938" y2="149.8906"/><line style="stroke:#000000;stroke-width:1;" x1="196" x2="607.3643" y1="149.8906" y2="149.8906"/><text fill="#000000" font-family="sans-serif" font-size="14" font-weight="bold" lengthAdjust="spacing" textLength="88.9492" x="201" y="164.8857">description</text><text fill="#000000" font-family="sans-serif" font-size="14" lengthAdjust="spacing" textLength="94.6982" x="299.9492" y="164.8857">muh webcam</text><line style="stroke:#000000;stroke-width:1;" x1="294.9492" x2="294.9492" y1="149.8906" y2="170.1875"/><line style="stroke:#000000;stroke-width:1;" x1="196" x2="607.3643" y1="170.1875" y2="170.1875"/><text fill="#000000" font-family="sans-serif" font-size="14" font-weight="bold" lengthAdjust="spacing" textLength="43.4971" x="201" y="185.1826">name</text><text fill="#000000" font-family="sans-serif" font-size="14" lengthAdjust="spacing" textLength="302.415" x="299.9492" y="185.1826">alsa_input.usb-muh-webcam.analog-stereo</text><line style="stroke:#000000;stroke-width:1;" x1="294.9492" x2="294.9492" y1="170.1875" y2="190.4844"/><rect fill="none" height="101.4844" rx="5" ry="5" style="stroke:#000000;stroke-width:1.5;" width="411.3643" x="196" y="89"/><rect fill="#F1F1F1" height="40.5938" rx="5" ry="5" style="stroke:#F1F1F1;stroke-width:1.5;" width="23.3506" x="390" y="208.2422"/><text fill="#000000" font-family="sans-serif" font-size="14" lengthAdjust="spacing" textLength="13.3506" x="395" y="223.2373">&#160;&#160;&#160;</text><line style="stroke:#000000;stroke-width:1;" x1="390" x2="413.3506" y1="228.5391" y2="228.5391"/><text fill="#000000" font-family="sans-serif" font-size="14" lengthAdjust="spacing" textLength="13.3506" x="395" y="243.5342">&#160;&#160;&#160;</text><rect fill="none" height="40.5938" rx="5" ry="5" style="stroke:#000000;stroke-width:1.5;" width="23.3506" x="390" y="208.2422"/><rect fill="#F1F1F1" height="81.1875" rx="5" ry="5" style="stroke:#F1F1F1;stroke-width:1.5;" width="247.0078" x="731.5" y="153.1484"/><text fill="#000000" font-family="sans-serif" font-size="14" font-weight="bold" lengthAdjust="spacing" textLength="57.5928" x="736.5" y="168.1436">volume</text><text fill="#000000" font-family="sans-serif" font-size="14" lengthAdjust="spacing" textLength="138.0586" x="835.4492" y="168.1436">0.77999997037298</text><line style="stroke:#000000;stroke-width:1;" x1="830.4492" x2="830.4492" y1="153.1484" y2="173.4453"/><line style="stroke:#000000;stroke-width:1;" x1="731.5" x2="978.5078" y1="173.4453" y2="173.4453"/><text fill="#000000" font-family="sans-serif" font-size="14" font-weight="bold" lengthAdjust="spacing" textLength="14.8203" x="736.5" y="188.4404">id</text><text fill="#000000" font-family="sans-serif" font-size="14" lengthAdjust="spacing" textLength="17.8145" x="835.4492" y="188.4404">34</text><line style="stroke:#000000;stroke-width:1;" x1="830.4492" x2="830.4492" y1="173.4453" y2="193.7422"/><line style="stroke:#000000;stroke-width:1;" x1="731.5" x2="978.5078" y1="193.7422" y2="193.7422"/><text fill="#000000" font-family="sans-serif" font-size="14" font-weight="bold" lengthAdjust="spacing" textLength="88.9492" x="736.5" y="208.7373">description</text><text fill="#000000" font-family="sans-serif" font-size="14" lengthAdjust="spacing" textLength="86.502" x="835.4492" y="208.7373">Main Output</text><line style="stroke:#000000;stroke-width:1;" x1="830.4492" x2="830.4492" y1="193.7422" y2="214.0391"/><line style="stroke:#000000;stroke-width:1;" x1="731.5" x2="978.5078" y1="214.0391" y2="214.0391"/><text fill="#000000" font-family="sans-serif" font-size="14" font-weight="bold" lengthAdjust="spacing" textLength="43.4971" x="736.5" y="229.0342">name</text><text fill="#000000" font-family="sans-serif" font-size="14" lengthAdjust="spacing" textLength="131.4893" x="835.4492" y="229.0342">Main-Output-Proxy</text><line style="stroke:#000000;stroke-width:1;" x1="830.4492" x2="830.4492" y1="214.0391" y2="234.3359"/><rect fill="none" height="81.1875" rx="5" ry="5" style="stroke:#000000;stroke-width:1.5;" width="247.0078" x="731.5" y="153.1484"/><rect fill="#F1F1F1" height="81.1875" rx="5" ry="5" style="stroke:#F1F1F1;stroke-width:1.5;" width="422.4453" x="644" y="252.1484"/><text fill="#000000" font-family="sans-serif" font-size="14" font-weight="bold" lengthAdjust="spacing" textLength="57.5928" x="649" y="267.1436">volume</text><text fill="#000000" font-family="sans-serif" font-size="14" lengthAdjust="spacing" textLength="129.1514" x="747.9492" y="267.1436">0.8670349240706</text><line style="stroke:#000000;stroke-width:1;" x1="742.9492" x2="742.9492" y1="252.1484" y2="272.4453"/><line style="stroke:#000000;stroke-width:1;" x1="644" x2="1066.4453" y1="272.4453" y2="272.4453"/><text fill="#000000" font-family="sans-serif" font-size="14" font-weight="bold" lengthAdjust="spacing" textLength="14.8203" x="649" y="287.4404">id</text><text fill="#000000" font-family="sans-serif" font-size="14" lengthAdjust="spacing" textLength="17.8145" x="747.9492" y="287.4404">77</text><line style="stroke:#000000;stroke-width:1;" x1="742.9492" x2="742.9492" y1="272.4453" y2="292.7422"/><line style="stroke:#000000;stroke-width:1;" x1="644" x2="1066.4453" y1="292.7422" y2="292.7422"/><text fill="#000000" font-family="sans-serif" font-size="14" font-weight="bold" lengthAdjust="spacing" textLength="88.9492" x="649" y="307.7373">description</text><text fill="#000000" font-family="sans-serif" font-size="14" lengthAdjust="spacing" textLength="113.6953" x="747.9492" y="307.7373">muh sound card</text><line style="stroke:#000000;stroke-width:1;" x1="742.9492" x2="742.9492" y1="292.7422" y2="313.0391"/><line style="stroke:#000000;stroke-width:1;" x1="644" x2="1066.4453" y1="313.0391" y2="313.0391"/><text fill="#000000" font-family="sans-serif" font-size="14" font-weight="bold" lengthAdjust="spacing" textLength="43.4971" x="649" y="328.0342">name</text><text fill="#000000" font-family="sans-serif" font-size="14" lengthAdjust="spacing" textLength="313.4961" x="747.9492" y="328.0342">alsa_output.pci-0000_da_d0_1.analog-stereo</text><line style="stroke:#000000;stroke-width:1;" x1="742.9492" x2="742.9492" y1="313.0391" y2="333.3359"/><rect fill="none" height="81.1875" rx="5" ry="5" style="stroke:#000000;stroke-width:1.5;" width="422.4453" x="644" y="252.1484"/><rect fill="#F1F1F1" height="81.1875" rx="5" ry="5" style="stroke:#F1F1F1;stroke-width:1.5;" width="247.0078" x="278" y="267.1484"/><text fill="#000000" font-family="sans-serif" font-size="14" font-weight="bold" lengthAdjust="spacing" textLength="57.5928" x="283" y="282.1436">volume</text><text fill="#000000" font-family="sans-serif" font-size="14" lengthAdjust="spacing" textLength="138.0586" x="381.9492" y="282.1436">0.77999997037298</text><line style="stroke:#000000;stroke-width:1;" x1="376.9492" x2="376.9492" y1="267.1484" y2="287.4453"/><line style="stroke:#000000;stroke-width:1;" x1="278" x2="525.0078" y1="287.4453" y2="287.4453"/><text fill="#000000" font-family="sans-serif" font-size="14" font-weight="bold" lengthAdjust="spacing" textLength="14.8203" x="283" y="302.4404">id</text><text fill="#000000" font-family="sans-serif" font-size="14" lengthAdjust="spacing" textLength="17.8145" x="381.9492" y="302.4404">34</text><line style="stroke:#000000;stroke-width:1;" x1="376.9492" x2="376.9492" y1="287.4453" y2="307.7422"/><line style="stroke:#000000;stroke-width:1;" x1="278" x2="525.0078" y1="307.7422" y2="307.7422"/><text fill="#000000" font-family="sans-serif" font-size="14" font-weight="bold" lengthAdjust="spacing" textLength="88.9492" x="283" y="322.7373">description</text><text fill="#000000" font-family="sans-serif" font-size="14" lengthAdjust="spacing" textLength="86.502" x="381.9492" y="322.7373">Main Output</text><line style="stroke:#000000;stroke-width:1;" x1="376.9492" x2="376.9492" y1="307.7422" y2="328.0391"/><line style="stroke:#000000;stroke-width:1;" x1="278" x2="525.0078" y1="328.0391" y2="328.0391"/><text fill="#000000" font-family="sans-serif" font-size="14" font-weight="bold" lengthAdjust="spacing" textLength="43.4971" x="283" y="343.0342">name</text><text fill="#000000" font-family="sans-serif" font-size="14" lengthAdjust="spacing" textLength="131.4893" x="381.9492" y="343.0342">Main-Output-Proxy</text><line style="stroke:#000000;stroke-width:1;" x1="376.9492" x2="376.9492" y1="328.0391" y2="348.3359"/><rect fill="none" height="81.1875" rx="5" ry="5" style="stroke:#000000;stroke-width:1.5;" width="247.0078" x="278" y="267.1484"/><path d="M400.6402,60.7422 L413.6402,60.7422 C446.9076,60.7422 546.1859,60.7422 642.1247,60.7422" fill="none" style="stroke:#000000;stroke-width:1;stroke-dasharray:3,3;"/><path d="M642.1247,63.8565 L644.4604,60.7422 L642.1247,57.6279 L649.9104,60.7422 L642.1247,63.8565" fill="#000000"/><ellipse cx="400.6402" cy="60.7422" fill="#000000" rx="3" ry="3" style="stroke:#000000;stroke-width:1;"/><path d="M147,143.7422 L160,143.7422 C192.6357,143.7422 168.6197,97.5019 196,79.7422 C254.8238,41.5872 343.8668,50.7498 382.2779,57.1175" fill="none" style="stroke:#000000;stroke-width:1;stroke-dasharray:3,3;"/><path d="M381.7278,60.2421 L384.6213,57.5301 L382.8279,53.993 L390.0892,58.4927 L381.7278,60.2421" fill="#000000"/><ellipse cx="147" cy="143.7422" fill="#000000" rx="3" ry="3" style="stroke:#000000;stroke-width:1;"/><path d="M147,163.7422 L160,163.7422 C169.3728,163.7422 178.9405,163.5602 188.5982,163.228" fill="none" style="stroke:#000000;stroke-width:1;stroke-dasharray:3,3;"/><path d="M188.7175,166.333 L190.927,163.1386 L188.479,160.1229 L196.3608,162.9299 L188.7175,166.333" fill="#000000"/><ellipse cx="147" cy="163.7422" fill="#000000" rx="3" ry="3" style="stroke:#000000;stroke-width:1;"/><path d="M402,218.7422 L415,218.7422 C519.1511,218.7422 636.9617,211.6576 724.3744,205.0313" fill="none" style="stroke:#000000;stroke-width:1;stroke-dasharray:3,3;"/><path d="M724.6056,208.0571 L726.6438,204.8579 L724.1432,202.0054 L731.939,204.4532 L724.6056,208.0571" fill="#000000"/><ellipse cx="402" cy="218.7422" fill="#000000" rx="3" ry="3" style="stroke:#000000;stroke-width:1;"/><path d="M402,238.7422 L415,238.7422 C487.5043,238.7422 566.2379,246.0715 636.7701,255.3296" fill="none" style="stroke:#000000;stroke-width:1;stroke-dasharray:3,3;"/><path d="M636.3623,258.4003 L639.073,255.6355 L637.1778,252.259 L644.4467,256.3491 L636.3623,258.4003" fill="#000000"/><ellipse cx="402" cy="238.7422" fill="#000000" rx="3" ry="3" style="stroke:#000000;stroke-width:1;"/><path d="M147,204.7422 L160,204.7422 C243.6132,204.7422 342.7444,219.2234 382.8345,225.6885" fill="none" style="stroke:#000000;stroke-width:1;stroke-dasharray:3,3;"/><path d="M382.3346,228.7412 L385.124,226.0634 L383.3344,222.6358 L390.4663,226.9383 L382.3346,228.7412" fill="#000000"/><ellipse cx="147" cy="204.7422" fill="#000000" rx="3" ry="3" style="stroke:#000000;stroke-width:1;"/><path d="M147,224.7422 L160,224.7422 C182.0079,224.7422 176.6414,248.2737 196,258.7422 C219.0961,271.2318 245.3502,280.5696 271.1775,287.5411" fill="none" style="stroke:#000000;stroke-width:1;stroke-dasharray:3,3;"/><path d="M270.4158,290.4492 L273.3586,288.1124 L271.9392,284.633 L278.4478,289.4454 L270.4158,290.4492" fill="#000000"/><ellipse cx="147" cy="224.7422" fill="#000000" rx="3" ry="3" style="stroke:#000000;stroke-width:1;"/><!--SRC=[lLDDRzf04BtlhnXnIYHiBOknZKzHIrg9We9AaajLMOkzeTlQksW_QAE8_vwntP2YGkYfUrZ9xytEl7aplhAE6_VTQaMU243FQcyAONiPVC5FWAVsHcAhAryBn6cOH2EQnd6Ii16ZQVybelQkuHzuPSKUb2L20pRS0wMmXP4R9xL21XzzWvzYLV2wjmzHl2tKmqGybshZNUZjAi3Ge0iDkUALNWVM2IDqhtstm_jham8hF71VkRnh1HDrFPphu8Z-_wL-r__3-hpGNhccReTAzUFCE99nSn8wJDWuFNH-69sIFkTImOrtgEzlxGqPT6ImCFhNus-F-oT5f37MZyOieWcD3pKaoLlsOTUgX8ARyeI5kfKHRWePK3nvoVEIveD_t05qx_W6737jqBBpXhrjr-vrVFkHCh8ZLqALxVz65XLNxcu-Wwqm5gl086IKZSBeOiaTJBq2bW9DCZhEs0Yk9xVGq9VaukDY1jssG2cjCtBb6vMNPCgt73vZBLcB36usGaqddru0k5PRQRIgXN9aUZz_3OYZu9rqi1G6bS3zd4mw-_15eKkfrXdStNu8KZBZQktv6dCBHTutJPb7v9RF]--></g></svg>