<?xml version="1.0" encoding="UTF-8" standalone="no"?>
<!DOCTYPE svg PUBLIC "-//W3C//DTD SVG 1.1//EN"
 "http://www.w3.org/Graphics/SVG/1.1/DTD/svg11.dtd">
<!-- Generated by graphviz version 7.0.1 (20221109.1506)
 -->
<!-- Title: Protobuf UML class diagram Pages: 1 -->
<svg width="191pt" height="170pt"
 viewBox="0.00 0.00 190.50 170.00" xmlns="http://www.w3.org/2000/svg" xmlns:xlink="http://www.w3.org/1999/xlink">
<g id="graph0" class="graph" transform="scale(1 1) rotate(0) translate(4 166)">
<title>Protobuf UML class diagram</title>
<polygon fill="white" stroke="none" points="-4,4 -4,-166 186.5,-166 186.5,4 -4,4"/>
<!-- Admin -->
<g id="node1" class="node">
<title>Admin</title>
<polygon fill="#f2f2f2" stroke="black" points="73.5,-73.5 73.5,-161.5 182.5,-161.5 182.5,-73.5 73.5,-73.5"/>
<text text-anchor="middle" x="128" y="-151.1" font-family="Bitstream Vera Sans" font-size="8.00">Admin</text>
<polyline fill="none" stroke="black" points="73.5,-144.5 182.5,-144.5"/>
<text text-anchor="middle" x="128" y="-134.1" font-family="Bitstream Vera Sans" font-size="8.00">+ id:string</text>
<text text-anchor="middle" x="128" y="-125.1" font-family="Bitstream Vera Sans" font-size="8.00">+ authority_id:string</text>
<text text-anchor="middle" x="128" y="-116.1" font-family="Bitstream Vera Sans" font-size="8.00">+ subject:string</text>
<text text-anchor="middle" x="128" y="-107.1" font-family="Bitstream Vera Sans" font-size="8.00">+ provisioner_id:string</text>
<text text-anchor="middle" x="128" y="-98.1" font-family="Bitstream Vera Sans" font-size="8.00">+ type:enum</text>
<text text-anchor="middle" x="128" y="-89.1" font-family="Bitstream Vera Sans" font-size="8.00">+ created_at:Timestamp</text>
<text text-anchor="middle" x="128" y="-80.1" font-family="Bitstream Vera Sans" font-size="8.00">+ deleted_at:Timestamp</text>
</g>
<!-- AdminList -->
<g id="node2" class="node">
<title>AdminList</title>
<polygon fill="#f2f2f2" stroke="black" points="0,-0.5 0,-36.5 80,-36.5 80,-0.5 0,-0.5"/>
<text text-anchor="middle" x="40" y="-25.6" font-family="Bitstream Vera Sans" font-size="8.00">AdminList</text>
<polyline fill="none" stroke="black" points="0,-18.5 80,-18.5"/>
<text text-anchor="middle" x="40" y="-7.6" font-family="Bitstream Vera Sans" font-size="8.00">+ admins:Admin</text>
</g>
<!-- Admin&#45;&gt;AdminList -->
<g id="edge3" class="edge">
<title>Admin&#45;&gt;AdminList</title>
<path fill="none" stroke="black" d="M89.15,-73.67C80.54,-64.19 71.67,-54.41 63.88,-45.82"/>
<polygon fill="none" stroke="black" points="63.97,-45.92 56.97,-44.16 55.9,-37.03 62.9,-38.79 63.97,-45.92"/>
<text text-anchor="middle" x="52.8" y="-38.96" font-family="Bitstream Vera Sans" font-size="8.00">1</text>
<text text-anchor="middle" x="82.15" y="-67.27" font-family="Bitstream Vera Sans" font-size="8.00">0..*</text>
</g>
<!-- Timestamp -->
<g id="node3" class="node">
<title>Timestamp</title>
<polygon fill="#f2f2f2" stroke="black" points="98.5,-0.5 98.5,-36.5 157.5,-36.5 157.5,-0.5 98.5,-0.5"/>
<text text-anchor="middle" x="128" y="-16.6" font-family="Bitstream Vera Sans" font-size="8.00">Timestamp</text>
</g>
<!-- Admin&#45;&gt;Timestamp -->
<g id="edge1" class="edge">
<title>Admin&#45;&gt;Timestamp</title>
<path fill="none" stroke="black" d="M121.29,-73.67C121.1,-60.48 121.58,-46.71 122.74,-36.36"/>
<text text-anchor="middle" x="125.24" y="-38.96" font-family="Bitstream Vera Sans" font-size="8.00">1</text>
<text text-anchor="middle" x="118.79" y="-67.27" font-family="Bitstream Vera Sans" font-size="8.00">1</text>
</g>
<!-- Admin&#45;&gt;Timestamp -->
<g id="edge2" class="edge">
<title>Admin&#45;&gt;Timestamp</title>
<path fill="none" stroke="black" d="M134.71,-73.67C134.9,-60.48 134.42,-46.71 133.26,-36.36"/>
<text text-anchor="middle" x="130.76" y="-38.96" font-family="Bitstream Vera Sans" font-size="8.00">1</text>
<text text-anchor="middle" x="132.21" y="-67.27" font-family="Bitstream Vera Sans" font-size="8.00">1</text>
</g>
</g>
</svg>
