<?xml version="1.0" encoding="UTF-8" standalone="no"?>
<!DOCTYPE svg PUBLIC "-//W3C//DTD SVG 1.1//EN"
 "http://www.w3.org/Graphics/SVG/1.1/DTD/svg11.dtd">
<!-- Generated by graphviz version 7.0.1 (20221109.1506)
 -->
<!-- Title: Protobuf UML class diagram Pages: 1 -->
<svg width="394pt" height="170pt"
 viewBox="0.00 0.00 394.00 170.00" xmlns="http://www.w3.org/2000/svg" xmlns:xlink="http://www.w3.org/1999/xlink">
<g id="graph0" class="graph" transform="scale(1 1) rotate(0) translate(4 166)">
<title>Protobuf UML class diagram</title>
<polygon fill="white" stroke="none" points="-4,4 -4,-166 390,-166 390,4 -4,4"/>
<!-- linkedca.Admin -->
<g id="node1" class="node">
<title>linkedca.Admin</title>
<polygon fill="#f2f2f2" stroke="black" points="152,-73.5 152,-161.5 386,-161.5 386,-73.5 152,-73.5"/>
<text text-anchor="middle" x="269" y="-151.1" font-family="Bitstream Vera Sans" font-size="8.00">linkedca.Admin</text>
<polyline fill="none" stroke="black" points="152,-144.5 386,-144.5"/>
<text text-anchor="middle" x="269" y="-134.1" font-family="Bitstream Vera Sans" font-size="8.00">+ linkedca.Admin.id:string</text>
<text text-anchor="middle" x="269" y="-125.1" font-family="Bitstream Vera Sans" font-size="8.00">+ linkedca.Admin.authority_id:string</text>
<text text-anchor="middle" x="269" y="-116.1" font-family="Bitstream Vera Sans" font-size="8.00">+ linkedca.Admin.subject:string</text>
<text text-anchor="middle" x="269" y="-107.1" font-family="Bitstream Vera Sans" font-size="8.00">+ linkedca.Admin.provisioner_id:string</text>
<text text-anchor="middle" x="269" y="-98.1" font-family="Bitstream Vera Sans" font-size="8.00">+ linkedca.Admin.type:enum</text>
<text text-anchor="middle" x="269" y="-89.1" font-family="Bitstream Vera Sans" font-size="8.00">+ linkedca.Admin.created_at:google.protobuf.Timestamp</text>
<text text-anchor="middle" x="269" y="-80.1" font-family="Bitstream Vera Sans" font-size="8.00">+ linkedca.Admin.deleted_at:google.protobuf.Timestamp</text>
</g>
<!-- linkedca.AdminList -->
<g id="node2" class="node">
<title>linkedca.AdminList</title>
<polygon fill="#f2f2f2" stroke="black" points="0,-0.5 0,-36.5 190,-36.5 190,-0.5 0,-0.5"/>
<text text-anchor="middle" x="95" y="-25.6" font-family="Bitstream Vera Sans" font-size="8.00">linkedca.AdminList</text>
<polyline fill="none" stroke="black" points="0,-18.5 190,-18.5"/>
<text text-anchor="middle" x="95" y="-7.6" font-family="Bitstream Vera Sans" font-size="8.00">+ linkedca.AdminList.admins:linkedca.Admin</text>
</g>
<!-- linkedca.Admin&#45;&gt;linkedca.AdminList -->
<g id="edge3" class="edge">
<title>linkedca.Admin&#45;&gt;linkedca.AdminList</title>
<path fill="none" stroke="black" d="M191.92,-73.53C172.72,-62.83 152.86,-51.76 136.16,-42.45"/>
<polygon fill="none" stroke="black" points="136.42,-42.59 129.23,-43.16 125.94,-36.75 133.12,-36.17 136.42,-42.59"/>
<text text-anchor="middle" x="122.65" y="-38.91" font-family="Bitstream Vera Sans" font-size="8.00">1</text>
<text text-anchor="middle" x="184.92" y="-67.13" font-family="Bitstream Vera Sans" font-size="8.00">0..*</text>
</g>
<!-- google.protobuf.Timestamp -->
<g id="node3" class="node">
<title>google.protobuf.Timestamp</title>
<polygon fill="#f2f2f2" stroke="black" points="208,-0.5 208,-36.5 330,-36.5 330,-0.5 208,-0.5"/>
<text text-anchor="middle" x="269" y="-16.6" font-family="Bitstream Vera Sans" font-size="8.00">google.protobuf.Timestamp</text>
</g>
<!-- linkedca.Admin&#45;&gt;google.protobuf.Timestamp -->
<g id="edge1" class="edge">
<title>linkedca.Admin&#45;&gt;google.protobuf.Timestamp</title>
<path fill="none" stroke="black" d="M262.29,-73.67C262.1,-60.48 262.58,-46.71 263.74,-36.36"/>
<text text-anchor="middle" x="261.24" y="-38.96" font-family="Bitstream Vera Sans" font-size="8.00">1</text>
<text text-anchor="middle" x="259.79" y="-67.27" font-family="Bitstream Vera Sans" font-size="8.00">1</text>
</g>
<!-- linkedca.Admin&#45;&gt;google.protobuf.Timestamp -->
<g id="edge2" class="edge">
<title>linkedca.Admin&#45;&gt;google.protobuf.Timestamp</title>
<path fill="none" stroke="black" d="M275.71,-73.67C275.9,-60.48 275.42,-46.71 274.26,-36.36"/>
<text text-anchor="middle" x="271.76" y="-38.96" font-family="Bitstream Vera Sans" font-size="8.00">1</text>
<text text-anchor="middle" x="273.21" y="-67.27" font-family="Bitstream Vera Sans" font-size="8.00">1</text>
</g>
</g>
</svg>
