<?xml version="1.0" encoding="UTF-8" standalone="no"?>
<!DOCTYPE svg PUBLIC "-//W3C//DTD SVG 1.1//EN"
 "http://www.w3.org/Graphics/SVG/1.1/DTD/svg11.dtd">
<!-- Generated by graphviz version 7.0.1 (20221109.1506)
 -->
<!-- Title: Protobuf UML class diagram Pages: 1 -->
<svg width="1051pt" height="634pt"
 viewBox="0.00 0.00 1051.00 634.00" xmlns="http://www.w3.org/2000/svg" xmlns:xlink="http://www.w3.org/1999/xlink">
<g id="graph0" class="graph" transform="scale(1 1) rotate(0) translate(4 630)">
<title>Protobuf UML class diagram</title>
<polygon fill="white" stroke="none" points="-4,4 -4,-630 1047,-630 1047,4 -4,4"/>
<!-- Configuration -->
<g id="node1" class="node">
<title>Configuration</title>
<polygon fill="#f2f2f2" stroke="black" points="469,-331.5 469,-527.5 597,-527.5 597,-331.5 469,-331.5"/>
<text text-anchor="middle" x="533" y="-517.1" font-family="Bitstream Vera Sans" font-size="8.00">Configuration</text>
<polyline fill="none" stroke="black" points="469,-510.5 597,-510.5"/>
<text text-anchor="middle" x="533" y="-500.1" font-family="Bitstream Vera Sans" font-size="8.00">+ version:string</text>
<text text-anchor="middle" x="533" y="-491.1" font-family="Bitstream Vera Sans" font-size="8.00">+ root:string</text>
<text text-anchor="middle" x="533" y="-482.1" font-family="Bitstream Vera Sans" font-size="8.00">+ root_key:string</text>
<text text-anchor="middle" x="533" y="-473.1" font-family="Bitstream Vera Sans" font-size="8.00">+ federated_roots:string</text>
<text text-anchor="middle" x="533" y="-464.1" font-family="Bitstream Vera Sans" font-size="8.00">+ intermediate:string</text>
<text text-anchor="middle" x="533" y="-455.1" font-family="Bitstream Vera Sans" font-size="8.00">+ intermediate_key:string</text>
<text text-anchor="middle" x="533" y="-446.1" font-family="Bitstream Vera Sans" font-size="8.00">+ address:string</text>
<text text-anchor="middle" x="533" y="-437.1" font-family="Bitstream Vera Sans" font-size="8.00">+ insecure_address:string</text>
<text text-anchor="middle" x="533" y="-428.1" font-family="Bitstream Vera Sans" font-size="8.00">+ dns_names:string</text>
<text text-anchor="middle" x="533" y="-419.1" font-family="Bitstream Vera Sans" font-size="8.00">+ ssh:SSH</text>
<text text-anchor="middle" x="533" y="-410.1" font-family="Bitstream Vera Sans" font-size="8.00">+ kms:KMS</text>
<text text-anchor="middle" x="533" y="-401.1" font-family="Bitstream Vera Sans" font-size="8.00">+ logger:Struct</text>
<text text-anchor="middle" x="533" y="-392.1" font-family="Bitstream Vera Sans" font-size="8.00">+ db:Struct</text>
<text text-anchor="middle" x="533" y="-383.1" font-family="Bitstream Vera Sans" font-size="8.00">+ monitoring:Struct</text>
<text text-anchor="middle" x="533" y="-374.1" font-family="Bitstream Vera Sans" font-size="8.00">+ authority:Authority</text>
<text text-anchor="middle" x="533" y="-365.1" font-family="Bitstream Vera Sans" font-size="8.00">+ tls:TLS</text>
<text text-anchor="middle" x="533" y="-356.1" font-family="Bitstream Vera Sans" font-size="8.00">+ templates:ConfigTemplates</text>
<text text-anchor="middle" x="533" y="-347.1" font-family="Bitstream Vera Sans" font-size="8.00">+ password:bytes</text>
<text text-anchor="middle" x="533" y="-338.1" font-family="Bitstream Vera Sans" font-size="8.00">+ files:FilesEntry</text>
</g>
<!-- Authority -->
<g id="node4" class="node">
<title>Authority</title>
<polygon fill="#f2f2f2" stroke="black" points="123,-134.5 123,-294.5 291,-294.5 291,-134.5 123,-134.5"/>
<text text-anchor="middle" x="207" y="-284.1" font-family="Bitstream Vera Sans" font-size="8.00">Authority</text>
<polyline fill="none" stroke="black" points="123,-277.5 291,-277.5"/>
<text text-anchor="middle" x="207" y="-267.1" font-family="Bitstream Vera Sans" font-size="8.00">+ id:string</text>
<text text-anchor="middle" x="207" y="-258.1" font-family="Bitstream Vera Sans" font-size="8.00">+ type:enum</text>
<text text-anchor="middle" x="207" y="-249.1" font-family="Bitstream Vera Sans" font-size="8.00">+ certificate_authority:string</text>
<text text-anchor="middle" x="207" y="-240.1" font-family="Bitstream Vera Sans" font-size="8.00">+ certificate_authority_fingerprint:string</text>
<text text-anchor="middle" x="207" y="-231.1" font-family="Bitstream Vera Sans" font-size="8.00">+ certificate_issuer:CertificateIssuer</text>
<text text-anchor="middle" x="207" y="-222.1" font-family="Bitstream Vera Sans" font-size="8.00">+ credentials_file:string</text>
<text text-anchor="middle" x="207" y="-213.1" font-family="Bitstream Vera Sans" font-size="8.00">+ enable_admin:bool</text>
<text text-anchor="middle" x="207" y="-204.1" font-family="Bitstream Vera Sans" font-size="8.00">+ provisioners:Provisioner</text>
<text text-anchor="middle" x="207" y="-195.1" font-family="Bitstream Vera Sans" font-size="8.00">+ admins:Admin</text>
<text text-anchor="middle" x="207" y="-186.1" font-family="Bitstream Vera Sans" font-size="8.00">+ template:DistinguishedName</text>
<text text-anchor="middle" x="207" y="-177.1" font-family="Bitstream Vera Sans" font-size="8.00">+ claims:Claims</text>
<text text-anchor="middle" x="207" y="-168.1" font-family="Bitstream Vera Sans" font-size="8.00">+ disable_issued_at_check:bool</text>
<text text-anchor="middle" x="207" y="-159.1" font-family="Bitstream Vera Sans" font-size="8.00">+ backdate:string</text>
<text text-anchor="middle" x="207" y="-150.1" font-family="Bitstream Vera Sans" font-size="8.00">+ deployment_type:string</text>
<text text-anchor="middle" x="207" y="-141.1" font-family="Bitstream Vera Sans" font-size="8.00">+ policy:Policy</text>
</g>
<!-- Configuration&#45;&gt;Authority -->
<g id="edge6" class="edge">
<title>Configuration&#45;&gt;Authority</title>
<path fill="none" stroke="black" d="M469.06,-368.31C453.85,-355.29 437.29,-342.11 421,-331 392.42,-311.51 382.5,-311.32 352,-295 332.13,-284.37 310.81,-272.78 290.8,-261.83"/>
<text text-anchor="middle" x="293.3" y="-264.43" font-family="Bitstream Vera Sans" font-size="8.00">1</text>
<text text-anchor="middle" x="466.56" y="-370.91" font-family="Bitstream Vera Sans" font-size="8.00">1</text>
</g>
<!-- SSH -->
<g id="node7" class="node">
<title>SSH</title>
<polygon fill="#f2f2f2" stroke="black" points="361.5,-166 361.5,-263 486.5,-263 486.5,-166 361.5,-166"/>
<text text-anchor="middle" x="424" y="-252.6" font-family="Bitstream Vera Sans" font-size="8.00">SSH</text>
<polyline fill="none" stroke="black" points="361.5,-246 486.5,-246"/>
<text text-anchor="middle" x="424" y="-235.6" font-family="Bitstream Vera Sans" font-size="8.00">+ host_key:string</text>
<text text-anchor="middle" x="424" y="-226.6" font-family="Bitstream Vera Sans" font-size="8.00">+ user_key:string</text>
<text text-anchor="middle" x="424" y="-217.6" font-family="Bitstream Vera Sans" font-size="8.00">+ host_public_key:string</text>
<text text-anchor="middle" x="424" y="-208.6" font-family="Bitstream Vera Sans" font-size="8.00">+ user_public_key:string</text>
<text text-anchor="middle" x="424" y="-199.6" font-family="Bitstream Vera Sans" font-size="8.00">+ keys:SSHPublicKey</text>
<text text-anchor="middle" x="424" y="-190.6" font-family="Bitstream Vera Sans" font-size="8.00">+ add_user_principal:string</text>
<text text-anchor="middle" x="424" y="-181.6" font-family="Bitstream Vera Sans" font-size="8.00">+ add_user_command:string</text>
<text text-anchor="middle" x="424" y="-172.6" font-family="Bitstream Vera Sans" font-size="8.00">+ bastion:Bastion</text>
</g>
<!-- Configuration&#45;&gt;SSH -->
<g id="edge1" class="edge">
<title>Configuration&#45;&gt;SSH</title>
<path fill="none" stroke="black" d="M483.44,-331.66C471.24,-307.81 458.7,-283.31 448.31,-263"/>
<text text-anchor="middle" x="445.81" y="-265.6" font-family="Bitstream Vera Sans" font-size="8.00">1</text>
<text text-anchor="middle" x="480.94" y="-325.26" font-family="Bitstream Vera Sans" font-size="8.00">1</text>
</g>
<!-- KMS -->
<g id="node10" class="node">
<title>KMS</title>
<polygon fill="#f2f2f2" stroke="black" points="813.5,-170.5 813.5,-258.5 926.5,-258.5 926.5,-170.5 813.5,-170.5"/>
<text text-anchor="middle" x="870" y="-248.1" font-family="Bitstream Vera Sans" font-size="8.00">KMS</text>
<polyline fill="none" stroke="black" points="813.5,-241.5 926.5,-241.5"/>
<text text-anchor="middle" x="870" y="-231.1" font-family="Bitstream Vera Sans" font-size="8.00">+ type:enum</text>
<text text-anchor="middle" x="870" y="-222.1" font-family="Bitstream Vera Sans" font-size="8.00">+ credentialsFile:string</text>
<text text-anchor="middle" x="870" y="-213.1" font-family="Bitstream Vera Sans" font-size="8.00">+ uri:string</text>
<text text-anchor="middle" x="870" y="-204.1" font-family="Bitstream Vera Sans" font-size="8.00">+ pin:string</text>
<text text-anchor="middle" x="870" y="-195.1" font-family="Bitstream Vera Sans" font-size="8.00">+ managementKey:string</text>
<text text-anchor="middle" x="870" y="-186.1" font-family="Bitstream Vera Sans" font-size="8.00">+ region:string</text>
<text text-anchor="middle" x="870" y="-177.1" font-family="Bitstream Vera Sans" font-size="8.00">+ profile:string</text>
</g>
<!-- Configuration&#45;&gt;KMS -->
<g id="edge2" class="edge">
<title>Configuration&#45;&gt;KMS</title>
<path fill="none" stroke="black" d="M596.74,-405.96C654.56,-383.54 740.27,-345.26 804,-295 817.24,-284.56 829.66,-271.07 840.07,-258.17"/>
<text text-anchor="middle" x="837.57" y="-260.77" font-family="Bitstream Vera Sans" font-size="8.00">1</text>
<text text-anchor="middle" x="599.24" y="-408.56" font-family="Bitstream Vera Sans" font-size="8.00">1</text>
</g>
<!-- TLS -->
<g id="node11" class="node">
<title>TLS</title>
<polygon fill="#f2f2f2" stroke="black" points="945,-184 945,-245 1043,-245 1043,-184 945,-184"/>
<text text-anchor="middle" x="994" y="-234.6" font-family="Bitstream Vera Sans" font-size="8.00">TLS</text>
<polyline fill="none" stroke="black" points="945,-228 1043,-228"/>
<text text-anchor="middle" x="994" y="-217.6" font-family="Bitstream Vera Sans" font-size="8.00">+ cipher_suites:enum</text>
<text text-anchor="middle" x="994" y="-208.6" font-family="Bitstream Vera Sans" font-size="8.00">+ min_version:string</text>
<text text-anchor="middle" x="994" y="-199.6" font-family="Bitstream Vera Sans" font-size="8.00">+ max_version:string</text>
<text text-anchor="middle" x="994" y="-190.6" font-family="Bitstream Vera Sans" font-size="8.00">+ renegotiation:bool</text>
</g>
<!-- Configuration&#45;&gt;TLS -->
<g id="edge7" class="edge">
<title>Configuration&#45;&gt;TLS</title>
<path fill="none" stroke="black" d="M596.85,-419.75C681.31,-405.58 831.64,-371.12 936,-295 953.94,-281.91 968.62,-261.61 978.72,-244.81"/>
<text text-anchor="middle" x="976.22" y="-247.41" font-family="Bitstream Vera Sans" font-size="8.00">1</text>
<text text-anchor="middle" x="599.35" y="-422.35" font-family="Bitstream Vera Sans" font-size="8.00">1</text>
</g>
<!-- ConfigTemplates -->
<g id="node12" class="node">
<title>ConfigTemplates</title>
<polygon fill="#f2f2f2" stroke="black" points="579.5,-193 579.5,-236 692.5,-236 692.5,-193 579.5,-193"/>
<text text-anchor="middle" x="636" y="-225.6" font-family="Bitstream Vera Sans" font-size="8.00">ConfigTemplates</text>
<polyline fill="none" stroke="black" points="579.5,-219 692.5,-219"/>
<text text-anchor="middle" x="636" y="-208.6" font-family="Bitstream Vera Sans" font-size="8.00">+ ssh:SSHConfigTemplate</text>
<text text-anchor="middle" x="636" y="-199.6" font-family="Bitstream Vera Sans" font-size="8.00">+ data:Struct</text>
</g>
<!-- Configuration&#45;&gt;ConfigTemplates -->
<g id="edge8" class="edge">
<title>Configuration&#45;&gt;ConfigTemplates</title>
<path fill="none" stroke="black" d="M579.83,-331.66C597.26,-295.61 615.41,-258.08 626.2,-235.76"/>
<text text-anchor="middle" x="623.7" y="-238.36" font-family="Bitstream Vera Sans" font-size="8.00">1</text>
<text text-anchor="middle" x="577.33" y="-325.26" font-family="Bitstream Vera Sans" font-size="8.00">1</text>
</g>
<!-- Struct -->
<g id="node15" class="node">
<title>Struct</title>
<polygon fill="#f2f2f2" stroke="black" points="506,-31 506,-67 560,-67 560,-31 506,-31"/>
<text text-anchor="middle" x="533" y="-47.1" font-family="Bitstream Vera Sans" font-size="8.00">Struct</text>
</g>
<!-- Configuration&#45;&gt;Struct -->
<g id="edge3" class="edge">
<title>Configuration&#45;&gt;Struct</title>
<path fill="none" stroke="black" d="M521.04,-331.52C517.74,-240.62 519.74,-112.12 527.02,-66.7"/>
<text text-anchor="middle" x="524.52" y="-69.3" font-family="Bitstream Vera Sans" font-size="8.00">1</text>
<text text-anchor="middle" x="518.54" y="-325.12" font-family="Bitstream Vera Sans" font-size="8.00">1</text>
</g>
<!-- Configuration&#45;&gt;Struct -->
<g id="edge4" class="edge">
<title>Configuration&#45;&gt;Struct</title>
<path fill="none" stroke="black" d="M533,-331.52C533,-240.62 533,-112.12 533,-66.7"/>
<text text-anchor="middle" x="530.5" y="-69.3" font-family="Bitstream Vera Sans" font-size="8.00">1</text>
<text text-anchor="middle" x="530.5" y="-325.12" font-family="Bitstream Vera Sans" font-size="8.00">1</text>
</g>
<!-- Configuration&#45;&gt;Struct -->
<g id="edge5" class="edge">
<title>Configuration&#45;&gt;Struct</title>
<path fill="none" stroke="black" d="M544.96,-331.52C548.26,-240.62 546.26,-112.12 538.98,-66.7"/>
<text text-anchor="middle" x="536.48" y="-69.3" font-family="Bitstream Vera Sans" font-size="8.00">1</text>
<text text-anchor="middle" x="542.46" y="-325.12" font-family="Bitstream Vera Sans" font-size="8.00">1</text>
</g>
<!-- FilesEntry -->
<g id="node2" class="node">
<title>FilesEntry</title>
<polygon fill="#f2f2f2" stroke="black" points="500.5,-573.5 500.5,-616.5 565.5,-616.5 565.5,-573.5 500.5,-573.5"/>
<text text-anchor="middle" x="533" y="-606.1" font-family="Bitstream Vera Sans" font-size="8.00">FilesEntry</text>
<polyline fill="none" stroke="black" points="500.5,-599.5 565.5,-599.5"/>
<text text-anchor="middle" x="533" y="-589.1" font-family="Bitstream Vera Sans" font-size="8.00">+ key:string</text>
<text text-anchor="middle" x="533" y="-580.1" font-family="Bitstream Vera Sans" font-size="8.00">+ value:bytes</text>
</g>
<!-- FilesEntry&#45;&gt;Configuration -->
<g id="edge9" class="edge">
<title>FilesEntry&#45;&gt;Configuration</title>
<path fill="none" stroke="black" d="M533,-573.62C533,-564.44 533,-552.83 533,-540.2"/>
<polygon fill="none" stroke="black" points="533,-540.19 529,-534.19 533,-528.19 537,-534.19 533,-540.19"/>
<text text-anchor="middle" x="530.5" y="-529.89" font-family="Bitstream Vera Sans" font-size="8.00">1</text>
<text text-anchor="middle" x="526" y="-567.22" font-family="Bitstream Vera Sans" font-size="8.00">0..*</text>
</g>
<!-- Defaults -->
<g id="node3" class="node">
<title>Defaults</title>
<polygon fill="#f2f2f2" stroke="black" points="583.5,-564.5 583.5,-625.5 672.5,-625.5 672.5,-564.5 583.5,-564.5"/>
<text text-anchor="middle" x="628" y="-615.1" font-family="Bitstream Vera Sans" font-size="8.00">Defaults</text>
<polyline fill="none" stroke="black" points="583.5,-608.5 672.5,-608.5"/>
<text text-anchor="middle" x="628" y="-598.1" font-family="Bitstream Vera Sans" font-size="8.00">+ ca_url:string</text>
<text text-anchor="middle" x="628" y="-589.1" font-family="Bitstream Vera Sans" font-size="8.00">+ ca_config:string</text>
<text text-anchor="middle" x="628" y="-580.1" font-family="Bitstream Vera Sans" font-size="8.00">+ fingerprint:string</text>
<text text-anchor="middle" x="628" y="-571.1" font-family="Bitstream Vera Sans" font-size="8.00">+ root:string</text>
</g>
<!-- DistinguishedName -->
<g id="node5" class="node">
<title>DistinguishedName</title>
<polygon fill="#f2f2f2" stroke="black" points="252,-0.5 252,-97.5 374,-97.5 374,-0.5 252,-0.5"/>
<text text-anchor="middle" x="313" y="-87.1" font-family="Bitstream Vera Sans" font-size="8.00">DistinguishedName</text>
<polyline fill="none" stroke="black" points="252,-80.5 374,-80.5"/>
<text text-anchor="middle" x="313" y="-70.1" font-family="Bitstream Vera Sans" font-size="8.00">+ country:string</text>
<text text-anchor="middle" x="313" y="-61.1" font-family="Bitstream Vera Sans" font-size="8.00">+ organization:string</text>
<text text-anchor="middle" x="313" y="-52.1" font-family="Bitstream Vera Sans" font-size="8.00">+ organizational_unit:string</text>
<text text-anchor="middle" x="313" y="-43.1" font-family="Bitstream Vera Sans" font-size="8.00">+ locality:string</text>
<text text-anchor="middle" x="313" y="-34.1" font-family="Bitstream Vera Sans" font-size="8.00">+ province:string</text>
<text text-anchor="middle" x="313" y="-25.1" font-family="Bitstream Vera Sans" font-size="8.00">+ street_address:string</text>
<text text-anchor="middle" x="313" y="-16.1" font-family="Bitstream Vera Sans" font-size="8.00">+ serial_number:string</text>
<text text-anchor="middle" x="313" y="-7.1" font-family="Bitstream Vera Sans" font-size="8.00">+ common_name:string</text>
</g>
<!-- Authority&#45;&gt;DistinguishedName -->
<g id="edge13" class="edge">
<title>Authority&#45;&gt;DistinguishedName</title>
<path fill="none" stroke="black" d="M258.14,-134.62C266.4,-121.88 274.72,-109.05 282.29,-97.37"/>
<text text-anchor="middle" x="279.79" y="-99.97" font-family="Bitstream Vera Sans" font-size="8.00">1</text>
<text text-anchor="middle" x="255.64" y="-128.22" font-family="Bitstream Vera Sans" font-size="8.00">1</text>
</g>
<!-- CertificateIssuer -->
<g id="node6" class="node">
<title>CertificateIssuer</title>
<polygon fill="#f2f2f2" stroke="black" points="0,-14 0,-84 90,-84 90,-14 0,-14"/>
<text text-anchor="middle" x="45" y="-73.6" font-family="Bitstream Vera Sans" font-size="8.00">CertificateIssuer</text>
<polyline fill="none" stroke="black" points="0,-67 90,-67"/>
<text text-anchor="middle" x="45" y="-56.6" font-family="Bitstream Vera Sans" font-size="8.00">+ type:enum</text>
<text text-anchor="middle" x="45" y="-47.6" font-family="Bitstream Vera Sans" font-size="8.00">+ provisioner:string</text>
<text text-anchor="middle" x="45" y="-38.6" font-family="Bitstream Vera Sans" font-size="8.00">+ certificate:string</text>
<text text-anchor="middle" x="45" y="-29.6" font-family="Bitstream Vera Sans" font-size="8.00">+ key:string</text>
<text text-anchor="middle" x="45" y="-20.6" font-family="Bitstream Vera Sans" font-size="8.00">+ password:bytes</text>
</g>
<!-- Authority&#45;&gt;CertificateIssuer -->
<g id="edge10" class="edge">
<title>Authority&#45;&gt;CertificateIssuer</title>
<path fill="none" stroke="black" d="M128.85,-134.62C111.05,-116.66 93.06,-98.51 78.34,-83.65"/>
<text text-anchor="middle" x="75.84" y="-86.25" font-family="Bitstream Vera Sans" font-size="8.00">1</text>
<text text-anchor="middle" x="126.35" y="-128.22" font-family="Bitstream Vera Sans" font-size="8.00">1</text>
</g>
<!-- Claims -->
<g id="node18" class="node">
<title>Claims</title>
<polygon fill="#f2f2f2" stroke="black" points="108,-31 108,-67 162,-67 162,-31 108,-31"/>
<text text-anchor="middle" x="135" y="-47.1" font-family="Bitstream Vera Sans" font-size="8.00">Claims</text>
</g>
<!-- Authority&#45;&gt;Claims -->
<g id="edge14" class="edge">
<title>Authority&#45;&gt;Claims</title>
<path fill="none" stroke="black" d="M172.27,-134.62C161.05,-109.15 149.66,-83.29 142.48,-66.99"/>
<text text-anchor="middle" x="139.98" y="-69.59" font-family="Bitstream Vera Sans" font-size="8.00">1</text>
<text text-anchor="middle" x="169.77" y="-128.22" font-family="Bitstream Vera Sans" font-size="8.00">1</text>
</g>
<!-- Policy -->
<g id="node19" class="node">
<title>Policy</title>
<polygon fill="#f2f2f2" stroke="black" points="180,-31 180,-67 234,-67 234,-31 180,-31"/>
<text text-anchor="middle" x="207" y="-47.1" font-family="Bitstream Vera Sans" font-size="8.00">Policy</text>
</g>
<!-- Authority&#45;&gt;Policy -->
<g id="edge15" class="edge">
<title>Authority&#45;&gt;Policy</title>
<path fill="none" stroke="black" d="M207,-134.62C207,-109.15 207,-83.29 207,-66.99"/>
<text text-anchor="middle" x="204.5" y="-69.59" font-family="Bitstream Vera Sans" font-size="8.00">1</text>
<text text-anchor="middle" x="204.5" y="-128.22" font-family="Bitstream Vera Sans" font-size="8.00">1</text>
</g>
<!-- Bastion -->
<g id="node9" class="node">
<title>Bastion</title>
<polygon fill="#f2f2f2" stroke="black" points="392,-14 392,-84 478,-84 478,-14 392,-14"/>
<text text-anchor="middle" x="435" y="-73.6" font-family="Bitstream Vera Sans" font-size="8.00">Bastion</text>
<polyline fill="none" stroke="black" points="392,-67 478,-67"/>
<text text-anchor="middle" x="435" y="-56.6" font-family="Bitstream Vera Sans" font-size="8.00">+ hostname:string</text>
<text text-anchor="middle" x="435" y="-47.6" font-family="Bitstream Vera Sans" font-size="8.00">+ user:string</text>
<text text-anchor="middle" x="435" y="-38.6" font-family="Bitstream Vera Sans" font-size="8.00">+ port:string</text>
<text text-anchor="middle" x="435" y="-29.6" font-family="Bitstream Vera Sans" font-size="8.00">+ command:string</text>
<text text-anchor="middle" x="435" y="-20.6" font-family="Bitstream Vera Sans" font-size="8.00">+ flags:string</text>
</g>
<!-- SSH&#45;&gt;Bastion -->
<g id="edge17" class="edge">
<title>SSH&#45;&gt;Bastion</title>
<path fill="none" stroke="black" d="M427.18,-166.21C428.95,-139.9 431.11,-107.75 432.72,-83.95"/>
<text text-anchor="middle" x="430.22" y="-86.55" font-family="Bitstream Vera Sans" font-size="8.00">1</text>
<text text-anchor="middle" x="424.68" y="-159.81" font-family="Bitstream Vera Sans" font-size="8.00">1</text>
</g>
<!-- SSHPublicKey -->
<g id="node8" class="node">
<title>SSHPublicKey</title>
<polygon fill="#f2f2f2" stroke="black" points="332,-403.5 332,-455.5 412,-455.5 412,-403.5 332,-403.5"/>
<text text-anchor="middle" x="372" y="-445.1" font-family="Bitstream Vera Sans" font-size="8.00">SSHPublicKey</text>
<polyline fill="none" stroke="black" points="332,-438.5 412,-438.5"/>
<text text-anchor="middle" x="372" y="-428.1" font-family="Bitstream Vera Sans" font-size="8.00">+ type:enum</text>
<text text-anchor="middle" x="372" y="-419.1" font-family="Bitstream Vera Sans" font-size="8.00">+ federated:bool</text>
<text text-anchor="middle" x="372" y="-410.1" font-family="Bitstream Vera Sans" font-size="8.00">+ key:Struct</text>
</g>
<!-- SSHPublicKey&#45;&gt;SSH -->
<g id="edge16" class="edge">
<title>SSHPublicKey&#45;&gt;SSH</title>
<path fill="none" stroke="black" d="M378.07,-403.65C385.71,-372.35 399.09,-317.55 409.44,-275.14"/>
<polygon fill="none" stroke="black" points="409.42,-275.22 406.96,-268.45 412.27,-263.57 414.73,-270.34 409.42,-275.22"/>
<text text-anchor="middle" x="409.98" y="-265.29" font-family="Bitstream Vera Sans" font-size="8.00">1</text>
<text text-anchor="middle" x="371.07" y="-397.25" font-family="Bitstream Vera Sans" font-size="8.00">0..*</text>
</g>
<!-- SSHPublicKey&#45;&gt;Struct -->
<g id="edge18" class="edge">
<title>SSHPublicKey&#45;&gt;Struct</title>
<path fill="none" stroke="black" d="M360.41,-403.64C336.65,-348.64 289.71,-215.07 352,-134 389.83,-84.76 433.54,-129.59 487,-98 500.32,-90.13 512.3,-77.35 520.69,-66.95"/>
<text text-anchor="middle" x="518.19" y="-69.55" font-family="Bitstream Vera Sans" font-size="8.00">1</text>
<text text-anchor="middle" x="357.91" y="-397.24" font-family="Bitstream Vera Sans" font-size="8.00">1</text>
</g>
<!-- SSHConfigTemplate -->
<g id="node13" class="node">
<title>SSHConfigTemplate</title>
<polygon fill="#f2f2f2" stroke="black" points="700,-27.5 700,-70.5 806,-70.5 806,-27.5 700,-27.5"/>
<text text-anchor="middle" x="753" y="-60.1" font-family="Bitstream Vera Sans" font-size="8.00">SSHConfigTemplate</text>
<polyline fill="none" stroke="black" points="700,-53.5 806,-53.5"/>
<text text-anchor="middle" x="753" y="-43.1" font-family="Bitstream Vera Sans" font-size="8.00">+ users:ConfigTemplate</text>
<text text-anchor="middle" x="753" y="-34.1" font-family="Bitstream Vera Sans" font-size="8.00">+ hosts:ConfigTemplate</text>
</g>
<!-- ConfigTemplates&#45;&gt;SSHConfigTemplate -->
<g id="edge19" class="edge">
<title>ConfigTemplates&#45;&gt;SSHConfigTemplate</title>
<path fill="none" stroke="black" d="M650.58,-193.12C673.06,-161.71 715.94,-101.79 738.42,-70.38"/>
<text text-anchor="middle" x="735.92" y="-72.98" font-family="Bitstream Vera Sans" font-size="8.00">1</text>
<text text-anchor="middle" x="648.08" y="-186.72" font-family="Bitstream Vera Sans" font-size="8.00">1</text>
</g>
<!-- ConfigTemplates&#45;&gt;Struct -->
<g id="edge20" class="edge">
<title>ConfigTemplates&#45;&gt;Struct</title>
<path fill="none" stroke="black" d="M623.16,-193.12C602.56,-160.42 562.51,-96.85 543.5,-66.67"/>
<text text-anchor="middle" x="541" y="-69.27" font-family="Bitstream Vera Sans" font-size="8.00">1</text>
<text text-anchor="middle" x="620.66" y="-186.72" font-family="Bitstream Vera Sans" font-size="8.00">1</text>
</g>
<!-- ConfigTemplate -->
<g id="node14" class="node">
<title>ConfigTemplate</title>
<polygon fill="#f2f2f2" stroke="black" points="711,-170.5 711,-258.5 795,-258.5 795,-170.5 711,-170.5"/>
<text text-anchor="middle" x="753" y="-248.1" font-family="Bitstream Vera Sans" font-size="8.00">ConfigTemplate</text>
<polyline fill="none" stroke="black" points="711,-241.5 795,-241.5"/>
<text text-anchor="middle" x="753" y="-231.1" font-family="Bitstream Vera Sans" font-size="8.00">+ type:enum</text>
<text text-anchor="middle" x="753" y="-222.1" font-family="Bitstream Vera Sans" font-size="8.00">+ name:string</text>
<text text-anchor="middle" x="753" y="-213.1" font-family="Bitstream Vera Sans" font-size="8.00">+ template:string</text>
<text text-anchor="middle" x="753" y="-204.1" font-family="Bitstream Vera Sans" font-size="8.00">+ path:string</text>
<text text-anchor="middle" x="753" y="-195.1" font-family="Bitstream Vera Sans" font-size="8.00">+ comment:string</text>
<text text-anchor="middle" x="753" y="-186.1" font-family="Bitstream Vera Sans" font-size="8.00">+ requires:string</text>
<text text-anchor="middle" x="753" y="-177.1" font-family="Bitstream Vera Sans" font-size="8.00">+ content:bytes</text>
</g>
<!-- ConfigTemplate&#45;&gt;SSHConfigTemplate -->
<g id="edge21" class="edge">
<title>ConfigTemplate&#45;&gt;SSHConfigTemplate</title>
<path fill="none" stroke="black" d="M746.98,-170.54C745.87,-143.24 746.03,-108.42 747.44,-83.24"/>
<polygon fill="none" stroke="black" points="747.44,-83.21 743.88,-76.94 748.3,-71.24 751.86,-77.51 747.44,-83.21"/>
<text text-anchor="middle" x="745.86" y="-72.94" font-family="Bitstream Vera Sans" font-size="8.00">1</text>
<text text-anchor="middle" x="739.98" y="-164.14" font-family="Bitstream Vera Sans" font-size="8.00">0..*</text>
</g>
<!-- ConfigTemplate&#45;&gt;SSHConfigTemplate -->
<g id="edge22" class="edge">
<title>ConfigTemplate&#45;&gt;SSHConfigTemplate</title>
<path fill="none" stroke="black" d="M759.02,-170.54C760.13,-143.24 759.97,-108.42 758.56,-83.24"/>
<polygon fill="none" stroke="black" points="758.56,-83.21 754.14,-77.51 757.7,-71.24 762.12,-76.94 758.56,-83.21"/>
<text text-anchor="middle" x="755.14" y="-72.94" font-family="Bitstream Vera Sans" font-size="8.00">1</text>
<text text-anchor="middle" x="766.02" y="-164.14" font-family="Bitstream Vera Sans" font-size="8.00">0..*</text>
</g>
<!-- Provisioner -->
<g id="node16" class="node">
<title>Provisioner</title>
<polygon fill="#f2f2f2" stroke="black" points="141,-411.5 141,-447.5 199,-447.5 199,-411.5 141,-411.5"/>
<text text-anchor="middle" x="170" y="-427.6" font-family="Bitstream Vera Sans" font-size="8.00">Provisioner</text>
</g>
<!-- Provisioner&#45;&gt;Authority -->
<g id="edge11" class="edge">
<title>Provisioner&#45;&gt;Authority</title>
<path fill="none" stroke="black" d="M172.9,-411.79C176.85,-389.04 184.22,-346.63 191.1,-307.04"/>
<polygon fill="none" stroke="black" points="191.1,-307.02 188.19,-300.43 193.16,-295.2 196.07,-301.8 191.1,-307.02"/>
<text text-anchor="middle" x="190.81" y="-296.91" font-family="Bitstream Vera Sans" font-size="8.00">1</text>
<text text-anchor="middle" x="165.9" y="-405.39" font-family="Bitstream Vera Sans" font-size="8.00">0..*</text>
</g>
<!-- Admin -->
<g id="node17" class="node">
<title>Admin</title>
<polygon fill="#f2f2f2" stroke="black" points="217,-411.5 217,-447.5 271,-447.5 271,-411.5 217,-411.5"/>
<text text-anchor="middle" x="244" y="-427.6" font-family="Bitstream Vera Sans" font-size="8.00">Admin</text>
</g>
<!-- Admin&#45;&gt;Authority -->
<g id="edge12" class="edge">
<title>Admin&#45;&gt;Authority</title>
<path fill="none" stroke="black" d="M241.1,-411.79C237.15,-389.04 229.78,-346.63 222.9,-307.04"/>
<polygon fill="none" stroke="black" points="222.9,-307.02 217.93,-301.8 220.84,-295.2 225.81,-300.43 222.9,-307.02"/>
<text text-anchor="middle" x="218.19" y="-296.91" font-family="Bitstream Vera Sans" font-size="8.00">1</text>
<text text-anchor="middle" x="234.1" y="-405.39" font-family="Bitstream Vera Sans" font-size="8.00">0..*</text>
</g>
</g>
</svg>
