<?xml version="1.0" encoding="UTF-8" standalone="no"?>
<!DOCTYPE svg PUBLIC "-//W3C//DTD SVG 1.1//EN"
 "http://www.w3.org/Graphics/SVG/1.1/DTD/svg11.dtd">
<!-- Generated by graphviz version 7.0.1 (20221109.1506)
 -->
<!-- Title: Protobuf UML class diagram Pages: 1 -->
<svg width="1718pt" height="634pt"
 viewBox="0.00 0.00 1717.50 634.00" xmlns="http://www.w3.org/2000/svg" xmlns:xlink="http://www.w3.org/1999/xlink">
<g id="graph0" class="graph" transform="scale(1 1) rotate(0) translate(4 630)">
<title>Protobuf UML class diagram</title>
<polygon fill="white" stroke="none" points="-4,4 -4,-630 1713.5,-630 1713.5,4 -4,4"/>
<!-- linkedca.Configuration -->
<g id="node1" class="node">
<title>linkedca.Configuration</title>
<polygon fill="#f2f2f2" stroke="black" points="738.5,-331.5 738.5,-527.5 992.5,-527.5 992.5,-331.5 738.5,-331.5"/>
<text text-anchor="middle" x="865.5" y="-517.1" font-family="Bitstream Vera Sans" font-size="8.00">linkedca.Configuration</text>
<polyline fill="none" stroke="black" points="738.5,-510.5 992.5,-510.5"/>
<text text-anchor="middle" x="865.5" y="-500.1" font-family="Bitstream Vera Sans" font-size="8.00">+ linkedca.Configuration.version:string</text>
<text text-anchor="middle" x="865.5" y="-491.1" font-family="Bitstream Vera Sans" font-size="8.00">+ linkedca.Configuration.root:string</text>
<text text-anchor="middle" x="865.5" y="-482.1" font-family="Bitstream Vera Sans" font-size="8.00">+ linkedca.Configuration.root_key:string</text>
<text text-anchor="middle" x="865.5" y="-473.1" font-family="Bitstream Vera Sans" font-size="8.00">+ linkedca.Configuration.federated_roots:string</text>
<text text-anchor="middle" x="865.5" y="-464.1" font-family="Bitstream Vera Sans" font-size="8.00">+ linkedca.Configuration.intermediate:string</text>
<text text-anchor="middle" x="865.5" y="-455.1" font-family="Bitstream Vera Sans" font-size="8.00">+ linkedca.Configuration.intermediate_key:string</text>
<text text-anchor="middle" x="865.5" y="-446.1" font-family="Bitstream Vera Sans" font-size="8.00">+ linkedca.Configuration.address:string</text>
<text text-anchor="middle" x="865.5" y="-437.1" font-family="Bitstream Vera Sans" font-size="8.00">+ linkedca.Configuration.insecure_address:string</text>
<text text-anchor="middle" x="865.5" y="-428.1" font-family="Bitstream Vera Sans" font-size="8.00">+ linkedca.Configuration.dns_names:string</text>
<text text-anchor="middle" x="865.5" y="-419.1" font-family="Bitstream Vera Sans" font-size="8.00">+ linkedca.Configuration.ssh:linkedca.SSH</text>
<text text-anchor="middle" x="865.5" y="-410.1" font-family="Bitstream Vera Sans" font-size="8.00">+ linkedca.Configuration.kms:linkedca.KMS</text>
<text text-anchor="middle" x="865.5" y="-401.1" font-family="Bitstream Vera Sans" font-size="8.00">+ linkedca.Configuration.logger:google.protobuf.Struct</text>
<text text-anchor="middle" x="865.5" y="-392.1" font-family="Bitstream Vera Sans" font-size="8.00">+ linkedca.Configuration.db:google.protobuf.Struct</text>
<text text-anchor="middle" x="865.5" y="-383.1" font-family="Bitstream Vera Sans" font-size="8.00">+ linkedca.Configuration.monitoring:google.protobuf.Struct</text>
<text text-anchor="middle" x="865.5" y="-374.1" font-family="Bitstream Vera Sans" font-size="8.00">+ linkedca.Configuration.authority:linkedca.Authority</text>
<text text-anchor="middle" x="865.5" y="-365.1" font-family="Bitstream Vera Sans" font-size="8.00">+ linkedca.Configuration.tls:linkedca.TLS</text>
<text text-anchor="middle" x="865.5" y="-356.1" font-family="Bitstream Vera Sans" font-size="8.00">+ linkedca.Configuration.templates:linkedca.ConfigTemplates</text>
<text text-anchor="middle" x="865.5" y="-347.1" font-family="Bitstream Vera Sans" font-size="8.00">+ linkedca.Configuration.password:bytes</text>
<text text-anchor="middle" x="865.5" y="-338.1" font-family="Bitstream Vera Sans" font-size="8.00">+ linkedca.Configuration.files:linkedca.Configuration.FilesEntry</text>
</g>
<!-- linkedca.Authority -->
<g id="node4" class="node">
<title>linkedca.Authority</title>
<polygon fill="#f2f2f2" stroke="black" points="207.5,-134.5 207.5,-294.5 463.5,-294.5 463.5,-134.5 207.5,-134.5"/>
<text text-anchor="middle" x="335.5" y="-284.1" font-family="Bitstream Vera Sans" font-size="8.00">linkedca.Authority</text>
<polyline fill="none" stroke="black" points="207.5,-277.5 463.5,-277.5"/>
<text text-anchor="middle" x="335.5" y="-267.1" font-family="Bitstream Vera Sans" font-size="8.00">+ linkedca.Authority.id:string</text>
<text text-anchor="middle" x="335.5" y="-258.1" font-family="Bitstream Vera Sans" font-size="8.00">+ linkedca.Authority.type:enum</text>
<text text-anchor="middle" x="335.5" y="-249.1" font-family="Bitstream Vera Sans" font-size="8.00">+ linkedca.Authority.certificate_authority:string</text>
<text text-anchor="middle" x="335.5" y="-240.1" font-family="Bitstream Vera Sans" font-size="8.00">+ linkedca.Authority.certificate_authority_fingerprint:string</text>
<text text-anchor="middle" x="335.5" y="-231.1" font-family="Bitstream Vera Sans" font-size="8.00">+ linkedca.Authority.certificate_issuer:linkedca.CertificateIssuer</text>
<text text-anchor="middle" x="335.5" y="-222.1" font-family="Bitstream Vera Sans" font-size="8.00">+ linkedca.Authority.credentials_file:string</text>
<text text-anchor="middle" x="335.5" y="-213.1" font-family="Bitstream Vera Sans" font-size="8.00">+ linkedca.Authority.enable_admin:bool</text>
<text text-anchor="middle" x="335.5" y="-204.1" font-family="Bitstream Vera Sans" font-size="8.00">+ linkedca.Authority.provisioners:linkedca.Provisioner</text>
<text text-anchor="middle" x="335.5" y="-195.1" font-family="Bitstream Vera Sans" font-size="8.00">+ linkedca.Authority.admins:linkedca.Admin</text>
<text text-anchor="middle" x="335.5" y="-186.1" font-family="Bitstream Vera Sans" font-size="8.00">+ linkedca.Authority.template:linkedca.DistinguishedName</text>
<text text-anchor="middle" x="335.5" y="-177.1" font-family="Bitstream Vera Sans" font-size="8.00">+ linkedca.Authority.claims:linkedca.Claims</text>
<text text-anchor="middle" x="335.5" y="-168.1" font-family="Bitstream Vera Sans" font-size="8.00">+ linkedca.Authority.disable_issued_at_check:bool</text>
<text text-anchor="middle" x="335.5" y="-159.1" font-family="Bitstream Vera Sans" font-size="8.00">+ linkedca.Authority.backdate:string</text>
<text text-anchor="middle" x="335.5" y="-150.1" font-family="Bitstream Vera Sans" font-size="8.00">+ linkedca.Authority.deployment_type:string</text>
<text text-anchor="middle" x="335.5" y="-141.1" font-family="Bitstream Vera Sans" font-size="8.00">+ linkedca.Authority.policy:linkedca.Policy</text>
</g>
<!-- linkedca.Configuration&#45;&gt;linkedca.Authority -->
<g id="edge6" class="edge">
<title>linkedca.Configuration&#45;&gt;linkedca.Authority</title>
<path fill="none" stroke="black" d="M738.6,-336.64C734.9,-334.67 731.2,-332.79 727.5,-331 680.64,-308.32 558.69,-273.69 463.14,-248.26"/>
<text text-anchor="middle" x="465.64" y="-250.86" font-family="Bitstream Vera Sans" font-size="8.00">1</text>
<text text-anchor="middle" x="736.1" y="-330.24" font-family="Bitstream Vera Sans" font-size="8.00">1</text>
</g>
<!-- linkedca.SSH -->
<g id="node7" class="node">
<title>linkedca.SSH</title>
<polygon fill="#f2f2f2" stroke="black" points="639.5,-166 639.5,-263 819.5,-263 819.5,-166 639.5,-166"/>
<text text-anchor="middle" x="729.5" y="-252.6" font-family="Bitstream Vera Sans" font-size="8.00">linkedca.SSH</text>
<polyline fill="none" stroke="black" points="639.5,-246 819.5,-246"/>
<text text-anchor="middle" x="729.5" y="-235.6" font-family="Bitstream Vera Sans" font-size="8.00">+ linkedca.SSH.host_key:string</text>
<text text-anchor="middle" x="729.5" y="-226.6" font-family="Bitstream Vera Sans" font-size="8.00">+ linkedca.SSH.user_key:string</text>
<text text-anchor="middle" x="729.5" y="-217.6" font-family="Bitstream Vera Sans" font-size="8.00">+ linkedca.SSH.host_public_key:string</text>
<text text-anchor="middle" x="729.5" y="-208.6" font-family="Bitstream Vera Sans" font-size="8.00">+ linkedca.SSH.user_public_key:string</text>
<text text-anchor="middle" x="729.5" y="-199.6" font-family="Bitstream Vera Sans" font-size="8.00">+ linkedca.SSH.keys:linkedca.SSHPublicKey</text>
<text text-anchor="middle" x="729.5" y="-190.6" font-family="Bitstream Vera Sans" font-size="8.00">+ linkedca.SSH.add_user_principal:string</text>
<text text-anchor="middle" x="729.5" y="-181.6" font-family="Bitstream Vera Sans" font-size="8.00">+ linkedca.SSH.add_user_command:string</text>
<text text-anchor="middle" x="729.5" y="-172.6" font-family="Bitstream Vera Sans" font-size="8.00">+ linkedca.SSH.bastion:linkedca.Bastion</text>
</g>
<!-- linkedca.Configuration&#45;&gt;linkedca.SSH -->
<g id="edge1" class="edge">
<title>linkedca.Configuration&#45;&gt;linkedca.SSH</title>
<path fill="none" stroke="black" d="M803.67,-331.66C788.44,-307.81 772.8,-283.31 759.83,-263"/>
<text text-anchor="middle" x="757.33" y="-265.6" font-family="Bitstream Vera Sans" font-size="8.00">1</text>
<text text-anchor="middle" x="801.17" y="-325.26" font-family="Bitstream Vera Sans" font-size="8.00">1</text>
</g>
<!-- linkedca.KMS -->
<g id="node10" class="node">
<title>linkedca.KMS</title>
<polygon fill="#f2f2f2" stroke="black" points="1376,-170.5 1376,-258.5 1543,-258.5 1543,-170.5 1376,-170.5"/>
<text text-anchor="middle" x="1459.5" y="-248.1" font-family="Bitstream Vera Sans" font-size="8.00">linkedca.KMS</text>
<polyline fill="none" stroke="black" points="1376,-241.5 1543,-241.5"/>
<text text-anchor="middle" x="1459.5" y="-231.1" font-family="Bitstream Vera Sans" font-size="8.00">+ linkedca.KMS.type:enum</text>
<text text-anchor="middle" x="1459.5" y="-222.1" font-family="Bitstream Vera Sans" font-size="8.00">+ linkedca.KMS.credentialsFile:string</text>
<text text-anchor="middle" x="1459.5" y="-213.1" font-family="Bitstream Vera Sans" font-size="8.00">+ linkedca.KMS.uri:string</text>
<text text-anchor="middle" x="1459.5" y="-204.1" font-family="Bitstream Vera Sans" font-size="8.00">+ linkedca.KMS.pin:string</text>
<text text-anchor="middle" x="1459.5" y="-195.1" font-family="Bitstream Vera Sans" font-size="8.00">+ linkedca.KMS.managementKey:string</text>
<text text-anchor="middle" x="1459.5" y="-186.1" font-family="Bitstream Vera Sans" font-size="8.00">+ linkedca.KMS.region:string</text>
<text text-anchor="middle" x="1459.5" y="-177.1" font-family="Bitstream Vera Sans" font-size="8.00">+ linkedca.KMS.profile:string</text>
</g>
<!-- linkedca.Configuration&#45;&gt;linkedca.KMS -->
<g id="edge2" class="edge">
<title>linkedca.Configuration&#45;&gt;linkedca.KMS</title>
<path fill="none" stroke="black" d="M992.42,-410.78C1097.28,-392.44 1247.68,-357.44 1366.5,-295 1384.74,-285.42 1402.51,-271.68 1417.54,-258.32"/>
<text text-anchor="middle" x="1415.04" y="-260.92" font-family="Bitstream Vera Sans" font-size="8.00">1</text>
<text text-anchor="middle" x="994.92" y="-413.38" font-family="Bitstream Vera Sans" font-size="8.00">1</text>
</g>
<!-- linkedca.TLS -->
<g id="node11" class="node">
<title>linkedca.TLS</title>
<polygon fill="#f2f2f2" stroke="black" points="1561.5,-184 1561.5,-245 1709.5,-245 1709.5,-184 1561.5,-184"/>
<text text-anchor="middle" x="1635.5" y="-234.6" font-family="Bitstream Vera Sans" font-size="8.00">linkedca.TLS</text>
<polyline fill="none" stroke="black" points="1561.5,-228 1709.5,-228"/>
<text text-anchor="middle" x="1635.5" y="-217.6" font-family="Bitstream Vera Sans" font-size="8.00">+ linkedca.TLS.cipher_suites:enum</text>
<text text-anchor="middle" x="1635.5" y="-208.6" font-family="Bitstream Vera Sans" font-size="8.00">+ linkedca.TLS.min_version:string</text>
<text text-anchor="middle" x="1635.5" y="-199.6" font-family="Bitstream Vera Sans" font-size="8.00">+ linkedca.TLS.max_version:string</text>
<text text-anchor="middle" x="1635.5" y="-190.6" font-family="Bitstream Vera Sans" font-size="8.00">+ linkedca.TLS.renegotiation:bool</text>
</g>
<!-- linkedca.Configuration&#45;&gt;linkedca.TLS -->
<g id="edge7" class="edge">
<title>linkedca.Configuration&#45;&gt;linkedca.TLS</title>
<path fill="none" stroke="black" d="M992.18,-425.11C1135.58,-416.61 1372.59,-388.18 1552.5,-295 1575.89,-282.89 1597.22,-262.13 1612.41,-244.86"/>
<text text-anchor="middle" x="1609.91" y="-247.46" font-family="Bitstream Vera Sans" font-size="8.00">1</text>
<text text-anchor="middle" x="994.68" y="-427.71" font-family="Bitstream Vera Sans" font-size="8.00">1</text>
</g>
<!-- linkedca.ConfigTemplates -->
<g id="node12" class="node">
<title>linkedca.ConfigTemplates</title>
<polygon fill="#f2f2f2" stroke="black" points="911.5,-193 911.5,-236 1159.5,-236 1159.5,-193 911.5,-193"/>
<text text-anchor="middle" x="1035.5" y="-225.6" font-family="Bitstream Vera Sans" font-size="8.00">linkedca.ConfigTemplates</text>
<polyline fill="none" stroke="black" points="911.5,-219 1159.5,-219"/>
<text text-anchor="middle" x="1035.5" y="-208.6" font-family="Bitstream Vera Sans" font-size="8.00">+ linkedca.ConfigTemplates.ssh:linkedca.SSHConfigTemplate</text>
<text text-anchor="middle" x="1035.5" y="-199.6" font-family="Bitstream Vera Sans" font-size="8.00">+ linkedca.ConfigTemplates.data:google.protobuf.Struct</text>
</g>
<!-- linkedca.Configuration&#45;&gt;linkedca.ConfigTemplates -->
<g id="edge8" class="edge">
<title>linkedca.Configuration&#45;&gt;linkedca.ConfigTemplates</title>
<path fill="none" stroke="black" d="M942.79,-331.66C971.56,-295.61 1001.52,-258.08 1019.33,-235.76"/>
<text text-anchor="middle" x="1016.83" y="-238.36" font-family="Bitstream Vera Sans" font-size="8.00">1</text>
<text text-anchor="middle" x="940.29" y="-325.26" font-family="Bitstream Vera Sans" font-size="8.00">1</text>
</g>
<!-- google.protobuf.Struct -->
<g id="node15" class="node">
<title>google.protobuf.Struct</title>
<polygon fill="#f2f2f2" stroke="black" points="814,-31 814,-67 917,-67 917,-31 814,-31"/>
<text text-anchor="middle" x="865.5" y="-47.1" font-family="Bitstream Vera Sans" font-size="8.00">google.protobuf.Struct</text>
</g>
<!-- linkedca.Configuration&#45;&gt;google.protobuf.Struct -->
<g id="edge3" class="edge">
<title>linkedca.Configuration&#45;&gt;google.protobuf.Struct</title>
<path fill="none" stroke="black" d="M853.54,-331.52C850.24,-240.62 852.24,-112.12 859.52,-66.7"/>
<text text-anchor="middle" x="857.02" y="-69.3" font-family="Bitstream Vera Sans" font-size="8.00">1</text>
<text text-anchor="middle" x="851.04" y="-325.12" font-family="Bitstream Vera Sans" font-size="8.00">1</text>
</g>
<!-- linkedca.Configuration&#45;&gt;google.protobuf.Struct -->
<g id="edge4" class="edge">
<title>linkedca.Configuration&#45;&gt;google.protobuf.Struct</title>
<path fill="none" stroke="black" d="M865.5,-331.52C865.5,-240.62 865.5,-112.12 865.5,-66.7"/>
<text text-anchor="middle" x="863" y="-69.3" font-family="Bitstream Vera Sans" font-size="8.00">1</text>
<text text-anchor="middle" x="863" y="-325.12" font-family="Bitstream Vera Sans" font-size="8.00">1</text>
</g>
<!-- linkedca.Configuration&#45;&gt;google.protobuf.Struct -->
<g id="edge5" class="edge">
<title>linkedca.Configuration&#45;&gt;google.protobuf.Struct</title>
<path fill="none" stroke="black" d="M877.46,-331.52C880.76,-240.62 878.76,-112.12 871.48,-66.7"/>
<text text-anchor="middle" x="868.98" y="-69.3" font-family="Bitstream Vera Sans" font-size="8.00">1</text>
<text text-anchor="middle" x="874.96" y="-325.12" font-family="Bitstream Vera Sans" font-size="8.00">1</text>
</g>
<!-- linkedca.Configuration.FilesEntry -->
<g id="node2" class="node">
<title>linkedca.Configuration.FilesEntry</title>
<polygon fill="#f2f2f2" stroke="black" points="769,-573.5 769,-616.5 962,-616.5 962,-573.5 769,-573.5"/>
<text text-anchor="middle" x="865.5" y="-606.1" font-family="Bitstream Vera Sans" font-size="8.00">linkedca.Configuration.FilesEntry</text>
<polyline fill="none" stroke="black" points="769,-599.5 962,-599.5"/>
<text text-anchor="middle" x="865.5" y="-589.1" font-family="Bitstream Vera Sans" font-size="8.00">+ linkedca.Configuration.FilesEntry.key:string</text>
<text text-anchor="middle" x="865.5" y="-580.1" font-family="Bitstream Vera Sans" font-size="8.00">+ linkedca.Configuration.FilesEntry.value:bytes</text>
</g>
<!-- linkedca.Configuration.FilesEntry&#45;&gt;linkedca.Configuration -->
<g id="edge9" class="edge">
<title>linkedca.Configuration.FilesEntry&#45;&gt;linkedca.Configuration</title>
<path fill="none" stroke="black" d="M865.5,-573.62C865.5,-564.44 865.5,-552.83 865.5,-540.2"/>
<polygon fill="none" stroke="black" points="865.5,-540.19 861.5,-534.19 865.5,-528.19 869.5,-534.19 865.5,-540.19"/>
<text text-anchor="middle" x="863" y="-529.89" font-family="Bitstream Vera Sans" font-size="8.00">1</text>
<text text-anchor="middle" x="858.5" y="-567.22" font-family="Bitstream Vera Sans" font-size="8.00">0..*</text>
</g>
<!-- linkedca.Defaults -->
<g id="node3" class="node">
<title>linkedca.Defaults</title>
<polygon fill="#f2f2f2" stroke="black" points="980.5,-564.5 980.5,-625.5 1138.5,-625.5 1138.5,-564.5 980.5,-564.5"/>
<text text-anchor="middle" x="1059.5" y="-615.1" font-family="Bitstream Vera Sans" font-size="8.00">linkedca.Defaults</text>
<polyline fill="none" stroke="black" points="980.5,-608.5 1138.5,-608.5"/>
<text text-anchor="middle" x="1059.5" y="-598.1" font-family="Bitstream Vera Sans" font-size="8.00">+ linkedca.Defaults.ca_url:string</text>
<text text-anchor="middle" x="1059.5" y="-589.1" font-family="Bitstream Vera Sans" font-size="8.00">+ linkedca.Defaults.ca_config:string</text>
<text text-anchor="middle" x="1059.5" y="-580.1" font-family="Bitstream Vera Sans" font-size="8.00">+ linkedca.Defaults.fingerprint:string</text>
<text text-anchor="middle" x="1059.5" y="-571.1" font-family="Bitstream Vera Sans" font-size="8.00">+ linkedca.Defaults.root:string</text>
</g>
<!-- linkedca.DistinguishedName -->
<g id="node5" class="node">
<title>linkedca.DistinguishedName</title>
<polygon fill="#f2f2f2" stroke="black" points="389.5,-0.5 389.5,-97.5 625.5,-97.5 625.5,-0.5 389.5,-0.5"/>
<text text-anchor="middle" x="507.5" y="-87.1" font-family="Bitstream Vera Sans" font-size="8.00">linkedca.DistinguishedName</text>
<polyline fill="none" stroke="black" points="389.5,-80.5 625.5,-80.5"/>
<text text-anchor="middle" x="507.5" y="-70.1" font-family="Bitstream Vera Sans" font-size="8.00">+ linkedca.DistinguishedName.country:string</text>
<text text-anchor="middle" x="507.5" y="-61.1" font-family="Bitstream Vera Sans" font-size="8.00">+ linkedca.DistinguishedName.organization:string</text>
<text text-anchor="middle" x="507.5" y="-52.1" font-family="Bitstream Vera Sans" font-size="8.00">+ linkedca.DistinguishedName.organizational_unit:string</text>
<text text-anchor="middle" x="507.5" y="-43.1" font-family="Bitstream Vera Sans" font-size="8.00">+ linkedca.DistinguishedName.locality:string</text>
<text text-anchor="middle" x="507.5" y="-34.1" font-family="Bitstream Vera Sans" font-size="8.00">+ linkedca.DistinguishedName.province:string</text>
<text text-anchor="middle" x="507.5" y="-25.1" font-family="Bitstream Vera Sans" font-size="8.00">+ linkedca.DistinguishedName.street_address:string</text>
<text text-anchor="middle" x="507.5" y="-16.1" font-family="Bitstream Vera Sans" font-size="8.00">+ linkedca.DistinguishedName.serial_number:string</text>
<text text-anchor="middle" x="507.5" y="-7.1" font-family="Bitstream Vera Sans" font-size="8.00">+ linkedca.DistinguishedName.common_name:string</text>
</g>
<!-- linkedca.Authority&#45;&gt;linkedca.DistinguishedName -->
<g id="edge13" class="edge">
<title>linkedca.Authority&#45;&gt;linkedca.DistinguishedName</title>
<path fill="none" stroke="black" d="M418.48,-134.62C431.88,-121.88 445.38,-109.05 457.67,-97.37"/>
<text text-anchor="middle" x="455.17" y="-99.97" font-family="Bitstream Vera Sans" font-size="8.00">1</text>
<text text-anchor="middle" x="415.98" y="-128.22" font-family="Bitstream Vera Sans" font-size="8.00">1</text>
</g>
<!-- linkedca.CertificateIssuer -->
<g id="node6" class="node">
<title>linkedca.CertificateIssuer</title>
<polygon fill="#f2f2f2" stroke="black" points="0,-14 0,-84 187,-84 187,-14 0,-14"/>
<text text-anchor="middle" x="93.5" y="-73.6" font-family="Bitstream Vera Sans" font-size="8.00">linkedca.CertificateIssuer</text>
<polyline fill="none" stroke="black" points="0,-67 187,-67"/>
<text text-anchor="middle" x="93.5" y="-56.6" font-family="Bitstream Vera Sans" font-size="8.00">+ linkedca.CertificateIssuer.type:enum</text>
<text text-anchor="middle" x="93.5" y="-47.6" font-family="Bitstream Vera Sans" font-size="8.00">+ linkedca.CertificateIssuer.provisioner:string</text>
<text text-anchor="middle" x="93.5" y="-38.6" font-family="Bitstream Vera Sans" font-size="8.00">+ linkedca.CertificateIssuer.certificate:string</text>
<text text-anchor="middle" x="93.5" y="-29.6" font-family="Bitstream Vera Sans" font-size="8.00">+ linkedca.CertificateIssuer.key:string</text>
<text text-anchor="middle" x="93.5" y="-20.6" font-family="Bitstream Vera Sans" font-size="8.00">+ linkedca.CertificateIssuer.password:bytes</text>
</g>
<!-- linkedca.Authority&#45;&gt;linkedca.CertificateIssuer -->
<g id="edge10" class="edge">
<title>linkedca.Authority&#45;&gt;linkedca.CertificateIssuer</title>
<path fill="none" stroke="black" d="M218.75,-134.62C192.28,-116.74 165.54,-98.67 143.6,-83.85"/>
<text text-anchor="middle" x="141.1" y="-86.45" font-family="Bitstream Vera Sans" font-size="8.00">1</text>
<text text-anchor="middle" x="216.25" y="-128.22" font-family="Bitstream Vera Sans" font-size="8.00">1</text>
</g>
<!-- linkedca.Claims -->
<g id="node18" class="node">
<title>linkedca.Claims</title>
<polygon fill="#f2f2f2" stroke="black" points="205.5,-31 205.5,-67 281.5,-67 281.5,-31 205.5,-31"/>
<text text-anchor="middle" x="243.5" y="-47.1" font-family="Bitstream Vera Sans" font-size="8.00">linkedca.Claims</text>
</g>
<!-- linkedca.Authority&#45;&gt;linkedca.Claims -->
<g id="edge14" class="edge">
<title>linkedca.Authority&#45;&gt;linkedca.Claims</title>
<path fill="none" stroke="black" d="M291.12,-134.62C276.78,-109.15 262.23,-83.29 253.06,-66.99"/>
<text text-anchor="middle" x="250.56" y="-69.59" font-family="Bitstream Vera Sans" font-size="8.00">1</text>
<text text-anchor="middle" x="288.62" y="-128.22" font-family="Bitstream Vera Sans" font-size="8.00">1</text>
</g>
<!-- linkedca.Policy -->
<g id="node19" class="node">
<title>linkedca.Policy</title>
<polygon fill="#f2f2f2" stroke="black" points="299.5,-31 299.5,-67 371.5,-67 371.5,-31 299.5,-31"/>
<text text-anchor="middle" x="335.5" y="-47.1" font-family="Bitstream Vera Sans" font-size="8.00">linkedca.Policy</text>
</g>
<!-- linkedca.Authority&#45;&gt;linkedca.Policy -->
<g id="edge15" class="edge">
<title>linkedca.Authority&#45;&gt;linkedca.Policy</title>
<path fill="none" stroke="black" d="M335.5,-134.62C335.5,-109.15 335.5,-83.29 335.5,-66.99"/>
<text text-anchor="middle" x="333" y="-69.59" font-family="Bitstream Vera Sans" font-size="8.00">1</text>
<text text-anchor="middle" x="333" y="-128.22" font-family="Bitstream Vera Sans" font-size="8.00">1</text>
</g>
<!-- linkedca.Bastion -->
<g id="node9" class="node">
<title>linkedca.Bastion</title>
<polygon fill="#f2f2f2" stroke="black" points="643.5,-14 643.5,-84 795.5,-84 795.5,-14 643.5,-14"/>
<text text-anchor="middle" x="719.5" y="-73.6" font-family="Bitstream Vera Sans" font-size="8.00">linkedca.Bastion</text>
<polyline fill="none" stroke="black" points="643.5,-67 795.5,-67"/>
<text text-anchor="middle" x="719.5" y="-56.6" font-family="Bitstream Vera Sans" font-size="8.00">+ linkedca.Bastion.hostname:string</text>
<text text-anchor="middle" x="719.5" y="-47.6" font-family="Bitstream Vera Sans" font-size="8.00">+ linkedca.Bastion.user:string</text>
<text text-anchor="middle" x="719.5" y="-38.6" font-family="Bitstream Vera Sans" font-size="8.00">+ linkedca.Bastion.port:string</text>
<text text-anchor="middle" x="719.5" y="-29.6" font-family="Bitstream Vera Sans" font-size="8.00">+ linkedca.Bastion.command:string</text>
<text text-anchor="middle" x="719.5" y="-20.6" font-family="Bitstream Vera Sans" font-size="8.00">+ linkedca.Bastion.flags:string</text>
</g>
<!-- linkedca.SSH&#45;&gt;linkedca.Bastion -->
<g id="edge17" class="edge">
<title>linkedca.SSH&#45;&gt;linkedca.Bastion</title>
<path fill="none" stroke="black" d="M726.61,-166.21C725,-139.9 723.03,-107.75 721.58,-83.95"/>
<text text-anchor="middle" x="719.08" y="-86.55" font-family="Bitstream Vera Sans" font-size="8.00">1</text>
<text text-anchor="middle" x="724.11" y="-159.81" font-family="Bitstream Vera Sans" font-size="8.00">1</text>
</g>
<!-- linkedca.SSHPublicKey -->
<g id="node8" class="node">
<title>linkedca.SSHPublicKey</title>
<polygon fill="#f2f2f2" stroke="black" points="506,-403.5 506,-455.5 719,-455.5 719,-403.5 506,-403.5"/>
<text text-anchor="middle" x="612.5" y="-445.1" font-family="Bitstream Vera Sans" font-size="8.00">linkedca.SSHPublicKey</text>
<polyline fill="none" stroke="black" points="506,-438.5 719,-438.5"/>
<text text-anchor="middle" x="612.5" y="-428.1" font-family="Bitstream Vera Sans" font-size="8.00">+ linkedca.SSHPublicKey.type:enum</text>
<text text-anchor="middle" x="612.5" y="-419.1" font-family="Bitstream Vera Sans" font-size="8.00">+ linkedca.SSHPublicKey.federated:bool</text>
<text text-anchor="middle" x="612.5" y="-410.1" font-family="Bitstream Vera Sans" font-size="8.00">+ linkedca.SSHPublicKey.key:google.protobuf.Struct</text>
</g>
<!-- linkedca.SSHPublicKey&#45;&gt;linkedca.SSH -->
<g id="edge16" class="edge">
<title>linkedca.SSHPublicKey&#45;&gt;linkedca.SSH</title>
<path fill="none" stroke="black" d="M626.15,-403.65C643.49,-372.08 673.96,-316.61 697.34,-274.04"/>
<polygon fill="none" stroke="black" points="697.37,-274 696.75,-266.81 703.14,-263.48 703.76,-270.67 697.37,-274"/>
<text text-anchor="middle" x="701.08" y="-265.29" font-family="Bitstream Vera Sans" font-size="8.00">1</text>
<text text-anchor="middle" x="619.15" y="-397.25" font-family="Bitstream Vera Sans" font-size="8.00">0..*</text>
</g>
<!-- linkedca.SSHPublicKey&#45;&gt;google.protobuf.Struct -->
<g id="edge18" class="edge">
<title>linkedca.SSHPublicKey&#45;&gt;google.protobuf.Struct</title>
<path fill="none" stroke="black" d="M605.08,-403.5C590.17,-347.62 563.42,-211.43 630.5,-134 682.21,-74.31 732.9,-131.3 804.5,-98 821,-90.33 837.06,-77.4 848.55,-66.89"/>
<text text-anchor="middle" x="846.05" y="-69.49" font-family="Bitstream Vera Sans" font-size="8.00">1</text>
<text text-anchor="middle" x="602.58" y="-397.1" font-family="Bitstream Vera Sans" font-size="8.00">1</text>
</g>
<!-- linkedca.SSHConfigTemplate -->
<g id="node13" class="node">
<title>linkedca.SSHConfigTemplate</title>
<polygon fill="#f2f2f2" stroke="black" points="1142,-27.5 1142,-70.5 1393,-70.5 1393,-27.5 1142,-27.5"/>
<text text-anchor="middle" x="1267.5" y="-60.1" font-family="Bitstream Vera Sans" font-size="8.00">linkedca.SSHConfigTemplate</text>
<polyline fill="none" stroke="black" points="1142,-53.5 1393,-53.5"/>
<text text-anchor="middle" x="1267.5" y="-43.1" font-family="Bitstream Vera Sans" font-size="8.00">+ linkedca.SSHConfigTemplate.users:linkedca.ConfigTemplate</text>
<text text-anchor="middle" x="1267.5" y="-34.1" font-family="Bitstream Vera Sans" font-size="8.00">+ linkedca.SSHConfigTemplate.hosts:linkedca.ConfigTemplate</text>
</g>
<!-- linkedca.ConfigTemplates&#45;&gt;linkedca.SSHConfigTemplate -->
<g id="edge19" class="edge">
<title>linkedca.ConfigTemplates&#45;&gt;linkedca.SSHConfigTemplate</title>
<path fill="none" stroke="black" d="M1064.41,-193.12C1108.99,-161.71 1194.01,-101.79 1238.59,-70.38"/>
<text text-anchor="middle" x="1236.09" y="-72.98" font-family="Bitstream Vera Sans" font-size="8.00">1</text>
<text text-anchor="middle" x="1061.91" y="-186.72" font-family="Bitstream Vera Sans" font-size="8.00">1</text>
</g>
<!-- linkedca.ConfigTemplates&#45;&gt;google.protobuf.Struct -->
<g id="edge20" class="edge">
<title>linkedca.ConfigTemplates&#45;&gt;google.protobuf.Struct</title>
<path fill="none" stroke="black" d="M1014.31,-193.12C980.31,-160.42 914.21,-96.85 882.83,-66.67"/>
<text text-anchor="middle" x="880.33" y="-69.27" font-family="Bitstream Vera Sans" font-size="8.00">1</text>
<text text-anchor="middle" x="1011.81" y="-186.72" font-family="Bitstream Vera Sans" font-size="8.00">1</text>
</g>
<!-- linkedca.ConfigTemplate -->
<g id="node14" class="node">
<title>linkedca.ConfigTemplate</title>
<polygon fill="#f2f2f2" stroke="black" points="1177.5,-170.5 1177.5,-258.5 1357.5,-258.5 1357.5,-170.5 1177.5,-170.5"/>
<text text-anchor="middle" x="1267.5" y="-248.1" font-family="Bitstream Vera Sans" font-size="8.00">linkedca.ConfigTemplate</text>
<polyline fill="none" stroke="black" points="1177.5,-241.5 1357.5,-241.5"/>
<text text-anchor="middle" x="1267.5" y="-231.1" font-family="Bitstream Vera Sans" font-size="8.00">+ linkedca.ConfigTemplate.type:enum</text>
<text text-anchor="middle" x="1267.5" y="-222.1" font-family="Bitstream Vera Sans" font-size="8.00">+ linkedca.ConfigTemplate.name:string</text>
<text text-anchor="middle" x="1267.5" y="-213.1" font-family="Bitstream Vera Sans" font-size="8.00">+ linkedca.ConfigTemplate.template:string</text>
<text text-anchor="middle" x="1267.5" y="-204.1" font-family="Bitstream Vera Sans" font-size="8.00">+ linkedca.ConfigTemplate.path:string</text>
<text text-anchor="middle" x="1267.5" y="-195.1" font-family="Bitstream Vera Sans" font-size="8.00">+ linkedca.ConfigTemplate.comment:string</text>
<text text-anchor="middle" x="1267.5" y="-186.1" font-family="Bitstream Vera Sans" font-size="8.00">+ linkedca.ConfigTemplate.requires:string</text>
<text text-anchor="middle" x="1267.5" y="-177.1" font-family="Bitstream Vera Sans" font-size="8.00">+ linkedca.ConfigTemplate.content:bytes</text>
</g>
<!-- linkedca.ConfigTemplate&#45;&gt;linkedca.SSHConfigTemplate -->
<g id="edge21" class="edge">
<title>linkedca.ConfigTemplate&#45;&gt;linkedca.SSHConfigTemplate</title>
<path fill="none" stroke="black" d="M1261.48,-170.54C1260.37,-143.24 1260.53,-108.42 1261.94,-83.24"/>
<polygon fill="none" stroke="black" points="1261.94,-83.21 1258.38,-76.94 1262.8,-71.24 1266.36,-77.51 1261.94,-83.21"/>
<text text-anchor="middle" x="1260.36" y="-72.94" font-family="Bitstream Vera Sans" font-size="8.00">1</text>
<text text-anchor="middle" x="1254.48" y="-164.14" font-family="Bitstream Vera Sans" font-size="8.00">0..*</text>
</g>
<!-- linkedca.ConfigTemplate&#45;&gt;linkedca.SSHConfigTemplate -->
<g id="edge22" class="edge">
<title>linkedca.ConfigTemplate&#45;&gt;linkedca.SSHConfigTemplate</title>
<path fill="none" stroke="black" d="M1273.52,-170.54C1274.63,-143.24 1274.47,-108.42 1273.06,-83.24"/>
<polygon fill="none" stroke="black" points="1273.06,-83.21 1268.64,-77.51 1272.2,-71.24 1276.62,-76.94 1273.06,-83.21"/>
<text text-anchor="middle" x="1269.64" y="-72.94" font-family="Bitstream Vera Sans" font-size="8.00">1</text>
<text text-anchor="middle" x="1280.52" y="-164.14" font-family="Bitstream Vera Sans" font-size="8.00">0..*</text>
</g>
<!-- linkedca.Provisioner -->
<g id="node16" class="node">
<title>linkedca.Provisioner</title>
<polygon fill="#f2f2f2" stroke="black" points="238.5,-411.5 238.5,-447.5 330.5,-447.5 330.5,-411.5 238.5,-411.5"/>
<text text-anchor="middle" x="284.5" y="-427.6" font-family="Bitstream Vera Sans" font-size="8.00">linkedca.Provisioner</text>
</g>
<!-- linkedca.Provisioner&#45;&gt;linkedca.Authority -->
<g id="edge11" class="edge">
<title>linkedca.Provisioner&#45;&gt;linkedca.Authority</title>
<path fill="none" stroke="black" d="M288.5,-411.79C293.96,-388.99 304.15,-346.45 313.64,-306.78"/>
<polygon fill="none" stroke="black" points="313.63,-306.86 311.13,-300.09 316.42,-295.19 318.91,-301.96 313.63,-306.86"/>
<text text-anchor="middle" x="314.13" y="-296.91" font-family="Bitstream Vera Sans" font-size="8.00">1</text>
<text text-anchor="middle" x="281.5" y="-405.39" font-family="Bitstream Vera Sans" font-size="8.00">0..*</text>
</g>
<!-- linkedca.Admin -->
<g id="node17" class="node">
<title>linkedca.Admin</title>
<polygon fill="#f2f2f2" stroke="black" points="349,-411.5 349,-447.5 426,-447.5 426,-411.5 349,-411.5"/>
<text text-anchor="middle" x="387.5" y="-427.6" font-family="Bitstream Vera Sans" font-size="8.00">linkedca.Admin</text>
</g>
<!-- linkedca.Admin&#45;&gt;linkedca.Authority -->
<g id="edge12" class="edge">
<title>linkedca.Admin&#45;&gt;linkedca.Authority</title>
<path fill="none" stroke="black" d="M383.42,-411.79C377.86,-388.99 367.47,-346.45 357.79,-306.78"/>
<polygon fill="none" stroke="black" points="357.8,-306.85 352.49,-301.97 354.95,-295.19 360.26,-300.07 357.8,-306.85"/>
<text text-anchor="middle" x="352.24" y="-296.91" font-family="Bitstream Vera Sans" font-size="8.00">1</text>
<text text-anchor="middle" x="376.42" y="-405.39" font-family="Bitstream Vera Sans" font-size="8.00">0..*</text>
</g>
</g>
</svg>
