<?xml version="1.0" encoding="UTF-8" standalone="no"?>
<!DOCTYPE svg PUBLIC "-//W3C//DTD SVG 1.1//EN"
 "http://www.w3.org/Graphics/SVG/1.1/DTD/svg11.dtd">
<!-- Generated by graphviz version 7.0.1 (20221109.1506)
 -->
<!-- Title: Protobuf UML class diagram Pages: 1 -->
<svg width="164pt" height="179pt"
 viewBox="0.00 0.00 164.00 179.00" xmlns="http://www.w3.org/2000/svg" xmlns:xlink="http://www.w3.org/1999/xlink">
<g id="graph0" class="graph" transform="scale(1 1) rotate(0) translate(4 175)">
<title>Protobuf UML class diagram</title>
<polygon fill="white" stroke="none" points="-4,4 -4,-175 160,-175 160,4 -4,4"/>
<!-- EABKey -->
<g id="node1" class="node">
<title>EABKey</title>
<polygon fill="#f2f2f2" stroke="black" points="0,-73.5 0,-170.5 108,-170.5 108,-73.5 0,-73.5"/>
<text text-anchor="middle" x="54" y="-160.1" font-family="Bitstream Vera Sans" font-size="8.00">EABKey</text>
<polyline fill="none" stroke="black" points="0,-153.5 108,-153.5"/>
<text text-anchor="middle" x="54" y="-143.1" font-family="Bitstream Vera Sans" font-size="8.00">+ id:string</text>
<text text-anchor="middle" x="54" y="-134.1" font-family="Bitstream Vera Sans" font-size="8.00">+ hmac_key:bytes</text>
<text text-anchor="middle" x="54" y="-125.1" font-family="Bitstream Vera Sans" font-size="8.00">+ provisioner:string</text>
<text text-anchor="middle" x="54" y="-116.1" font-family="Bitstream Vera Sans" font-size="8.00">+ reference:string</text>
<text text-anchor="middle" x="54" y="-107.1" font-family="Bitstream Vera Sans" font-size="8.00">+ account:string</text>
<text text-anchor="middle" x="54" y="-98.1" font-family="Bitstream Vera Sans" font-size="8.00">+ created_at:Timestamp</text>
<text text-anchor="middle" x="54" y="-89.1" font-family="Bitstream Vera Sans" font-size="8.00">+ bound_at:Timestamp</text>
<text text-anchor="middle" x="54" y="-80.1" font-family="Bitstream Vera Sans" font-size="8.00">+ policy:Policy</text>
</g>
<!-- Timestamp -->
<g id="node2" class="node">
<title>Timestamp</title>
<polygon fill="#f2f2f2" stroke="black" points="24.5,-0.5 24.5,-36.5 83.5,-36.5 83.5,-0.5 24.5,-0.5"/>
<text text-anchor="middle" x="54" y="-16.6" font-family="Bitstream Vera Sans" font-size="8.00">Timestamp</text>
</g>
<!-- EABKey&#45;&gt;Timestamp -->
<g id="edge1" class="edge">
<title>EABKey&#45;&gt;Timestamp</title>
<path fill="none" stroke="black" d="M47.26,-73.52C47.16,-60.1 47.69,-46.38 48.85,-36.13"/>
<text text-anchor="middle" x="51.35" y="-38.73" font-family="Bitstream Vera Sans" font-size="8.00">1</text>
<text text-anchor="middle" x="44.76" y="-67.12" font-family="Bitstream Vera Sans" font-size="8.00">1</text>
</g>
<!-- EABKey&#45;&gt;Timestamp -->
<g id="edge2" class="edge">
<title>EABKey&#45;&gt;Timestamp</title>
<path fill="none" stroke="black" d="M60.74,-73.52C60.84,-60.1 60.31,-46.38 59.15,-36.13"/>
<text text-anchor="middle" x="56.65" y="-38.73" font-family="Bitstream Vera Sans" font-size="8.00">1</text>
<text text-anchor="middle" x="58.24" y="-67.12" font-family="Bitstream Vera Sans" font-size="8.00">1</text>
</g>
<!-- Policy -->
<g id="node3" class="node">
<title>Policy</title>
<polygon fill="#f2f2f2" stroke="black" points="102,-0.5 102,-36.5 156,-36.5 156,-0.5 102,-0.5"/>
<text text-anchor="middle" x="129" y="-16.6" font-family="Bitstream Vera Sans" font-size="8.00">Policy</text>
</g>
<!-- EABKey&#45;&gt;Policy -->
<g id="edge3" class="edge">
<title>EABKey&#45;&gt;Policy</title>
<path fill="none" stroke="black" d="M89.08,-73.52C99,-60.1 109.14,-46.38 116.71,-36.13"/>
<text text-anchor="middle" x="114.21" y="-38.73" font-family="Bitstream Vera Sans" font-size="8.00">1</text>
<text text-anchor="middle" x="86.58" y="-67.12" font-family="Bitstream Vera Sans" font-size="8.00">1</text>
</g>
</g>
</svg>
