<?xml version="1.0" encoding="UTF-8" standalone="no"?>
<!DOCTYPE svg PUBLIC "-//W3C//DTD SVG 1.1//EN"
 "http://www.w3.org/Graphics/SVG/1.1/DTD/svg11.dtd">
<!-- Generated by graphviz version 7.0.1 (20221109.1506)
 -->
<!-- Title: Protobuf UML class diagram Pages: 1 -->
<svg width="3611pt" height="384pt"
 viewBox="0.00 0.00 3611.00 384.00" xmlns="http://www.w3.org/2000/svg" xmlns:xlink="http://www.w3.org/1999/xlink">
<g id="graph0" class="graph" transform="scale(1 1) rotate(0) translate(4 380)">
<title>Protobuf UML class diagram</title>
<polygon fill="white" stroke="none" points="-4,4 -4,-380 3607,-380 3607,4 -4,4"/>
<!-- LoginRequest -->
<g id="node1" class="node">
<title>LoginRequest</title>
<polygon fill="#f2f2f2" stroke="black" points="0,-305.5 0,-357.5 139,-357.5 139,-305.5 0,-305.5"/>
<text text-anchor="middle" x="69.5" y="-347.1" font-family="Bitstream Vera Sans" font-size="8.00">LoginRequest</text>
<polyline fill="none" stroke="black" points="0,-340.5 139,-340.5"/>
<text text-anchor="middle" x="69.5" y="-330.1" font-family="Bitstream Vera Sans" font-size="8.00">+ authority_id:string</text>
<text text-anchor="middle" x="69.5" y="-321.1" font-family="Bitstream Vera Sans" font-size="8.00">+ token:string</text>
<text text-anchor="middle" x="69.5" y="-312.1" font-family="Bitstream Vera Sans" font-size="8.00">+ pem_certificate_request:string</text>
</g>
<!-- LoginResponse -->
<g id="node2" class="node">
<title>LoginResponse</title>
<polygon fill="#f2f2f2" stroke="black" points="157,-310 157,-353 288,-353 288,-310 157,-310"/>
<text text-anchor="middle" x="222.5" y="-342.6" font-family="Bitstream Vera Sans" font-size="8.00">LoginResponse</text>
<polyline fill="none" stroke="black" points="157,-336 288,-336"/>
<text text-anchor="middle" x="222.5" y="-325.6" font-family="Bitstream Vera Sans" font-size="8.00">+ pem_certificate:string</text>
<text text-anchor="middle" x="222.5" y="-316.6" font-family="Bitstream Vera Sans" font-size="8.00">+ pem_certificate_chain:string</text>
</g>
<!-- GetRootCertificateRequest -->
<g id="node3" class="node">
<title>GetRootCertificateRequest</title>
<polygon fill="#f2f2f2" stroke="black" points="306,-313.5 306,-349.5 423,-349.5 423,-313.5 306,-313.5"/>
<text text-anchor="middle" x="364.5" y="-338.6" font-family="Bitstream Vera Sans" font-size="8.00">GetRootCertificateRequest</text>
<polyline fill="none" stroke="black" points="306,-331.5 423,-331.5"/>
<text text-anchor="middle" x="364.5" y="-320.6" font-family="Bitstream Vera Sans" font-size="8.00">+ fingerprint:string</text>
</g>
<!-- GetRootCertificateResponse -->
<g id="node4" class="node">
<title>GetRootCertificateResponse</title>
<polygon fill="#f2f2f2" stroke="black" points="441.5,-313.5 441.5,-349.5 563.5,-349.5 563.5,-313.5 441.5,-313.5"/>
<text text-anchor="middle" x="502.5" y="-338.6" font-family="Bitstream Vera Sans" font-size="8.00">GetRootCertificateResponse</text>
<polyline fill="none" stroke="black" points="441.5,-331.5 563.5,-331.5"/>
<text text-anchor="middle" x="502.5" y="-320.6" font-family="Bitstream Vera Sans" font-size="8.00">+ pem_certificate:string</text>
</g>
<!-- ConfigurationRequest -->
<g id="node5" class="node">
<title>ConfigurationRequest</title>
<polygon fill="#f2f2f2" stroke="black" points="582,-313.5 582,-349.5 683,-349.5 683,-313.5 582,-313.5"/>
<text text-anchor="middle" x="632.5" y="-338.6" font-family="Bitstream Vera Sans" font-size="8.00">ConfigurationRequest</text>
<polyline fill="none" stroke="black" points="582,-331.5 683,-331.5"/>
<text text-anchor="middle" x="632.5" y="-320.6" font-family="Bitstream Vera Sans" font-size="8.00">+ authority_id:string</text>
</g>
<!-- ConfigurationResponse -->
<g id="node6" class="node">
<title>ConfigurationResponse</title>
<polygon fill="#f2f2f2" stroke="black" points="653,-176 653,-237 820,-237 820,-176 653,-176"/>
<text text-anchor="middle" x="736.5" y="-226.6" font-family="Bitstream Vera Sans" font-size="8.00">ConfigurationResponse</text>
<polyline fill="none" stroke="black" points="653,-220 820,-220"/>
<text text-anchor="middle" x="736.5" y="-209.6" font-family="Bitstream Vera Sans" font-size="8.00">+ provisioners:Provisioner</text>
<text text-anchor="middle" x="736.5" y="-200.6" font-family="Bitstream Vera Sans" font-size="8.00">+ admins:Admin</text>
<text text-anchor="middle" x="736.5" y="-191.6" font-family="Bitstream Vera Sans" font-size="8.00">+ ra_config:RegistrationAuthorityConfig</text>
<text text-anchor="middle" x="736.5" y="-182.6" font-family="Bitstream Vera Sans" font-size="8.00">+ server_config:ServerConfiguration</text>
</g>
<!-- ServerConfiguration -->
<g id="node7" class="node">
<title>ServerConfiguration</title>
<polygon fill="#f2f2f2" stroke="black" points="623.5,-78 623.5,-121 715.5,-121 715.5,-78 623.5,-78"/>
<text text-anchor="middle" x="669.5" y="-110.6" font-family="Bitstream Vera Sans" font-size="8.00">ServerConfiguration</text>
<polyline fill="none" stroke="black" points="623.5,-104 715.5,-104"/>
<text text-anchor="middle" x="669.5" y="-93.6" font-family="Bitstream Vera Sans" font-size="8.00">+ address:string</text>
<text text-anchor="middle" x="669.5" y="-84.6" font-family="Bitstream Vera Sans" font-size="8.00">+ dns_names:string</text>
</g>
<!-- ConfigurationResponse&#45;&gt;ServerConfiguration -->
<g id="edge4" class="edge">
<title>ConfigurationResponse&#45;&gt;ServerConfiguration</title>
<path fill="none" stroke="black" d="M717.84,-176.25C706.61,-158.65 692.59,-136.69 682.55,-120.95"/>
<text text-anchor="middle" x="680.05" y="-123.55" font-family="Bitstream Vera Sans" font-size="8.00">1</text>
<text text-anchor="middle" x="715.34" y="-169.85" font-family="Bitstream Vera Sans" font-size="8.00">1</text>
</g>
<!-- RegistrationAuthorityConfig -->
<g id="node8" class="node">
<title>RegistrationAuthorityConfig</title>
<polygon fill="#f2f2f2" stroke="black" points="734,-73.5 734,-125.5 873,-125.5 873,-73.5 734,-73.5"/>
<text text-anchor="middle" x="803.5" y="-115.1" font-family="Bitstream Vera Sans" font-size="8.00">RegistrationAuthorityConfig</text>
<polyline fill="none" stroke="black" points="734,-108.5 873,-108.5"/>
<text text-anchor="middle" x="803.5" y="-98.1" font-family="Bitstream Vera Sans" font-size="8.00">+ ca_url:string</text>
<text text-anchor="middle" x="803.5" y="-89.1" font-family="Bitstream Vera Sans" font-size="8.00">+ fingerprint:string</text>
<text text-anchor="middle" x="803.5" y="-80.1" font-family="Bitstream Vera Sans" font-size="8.00">+ provisioner:ProvisionerIdentity</text>
</g>
<!-- ConfigurationResponse&#45;&gt;RegistrationAuthorityConfig -->
<g id="edge3" class="edge">
<title>ConfigurationResponse&#45;&gt;RegistrationAuthorityConfig</title>
<path fill="none" stroke="black" d="M755.16,-176.25C765.39,-160.23 777.92,-140.59 787.66,-125.33"/>
<text text-anchor="middle" x="785.16" y="-127.93" font-family="Bitstream Vera Sans" font-size="8.00">1</text>
<text text-anchor="middle" x="752.66" y="-169.85" font-family="Bitstream Vera Sans" font-size="8.00">1</text>
</g>
<!-- ProvisionerIdentity -->
<g id="node37" class="node">
<title>ProvisionerIdentity</title>
<polygon fill="#f2f2f2" stroke="black" points="393.5,-0.5 393.5,-36.5 481.5,-36.5 481.5,-0.5 393.5,-0.5"/>
<text text-anchor="middle" x="437.5" y="-16.6" font-family="Bitstream Vera Sans" font-size="8.00">ProvisionerIdentity</text>
</g>
<!-- RegistrationAuthorityConfig&#45;&gt;ProvisionerIdentity -->
<g id="edge5" class="edge">
<title>RegistrationAuthorityConfig&#45;&gt;ProvisionerIdentity</title>
<path fill="none" stroke="black" d="M734.28,-75.6C730.99,-74.69 727.71,-73.81 724.5,-73 639.26,-51.39 537.73,-34.5 481.15,-25.86"/>
<text text-anchor="middle" x="483.65" y="-28.46" font-family="Bitstream Vera Sans" font-size="8.00">1</text>
<text text-anchor="middle" x="731.78" y="-78.2" font-family="Bitstream Vera Sans" font-size="8.00">1</text>
</g>
<!-- RegistrationAuthorityProvisioner -->
<g id="node9" class="node">
<title>RegistrationAuthorityProvisioner</title>
<polygon fill="#f2f2f2" stroke="black" points="269.5,-78 269.5,-121 409.5,-121 409.5,-78 269.5,-78"/>
<text text-anchor="middle" x="339.5" y="-110.6" font-family="Bitstream Vera Sans" font-size="8.00">RegistrationAuthorityProvisioner</text>
<polyline fill="none" stroke="black" points="269.5,-104 409.5,-104"/>
<text text-anchor="middle" x="339.5" y="-93.6" font-family="Bitstream Vera Sans" font-size="8.00">+ authority_id:string</text>
<text text-anchor="middle" x="339.5" y="-84.6" font-family="Bitstream Vera Sans" font-size="8.00">+ provisioner:ProvisionerIdentity</text>
</g>
<!-- RegistrationAuthorityProvisioner&#45;&gt;ProvisionerIdentity -->
<g id="edge6" class="edge">
<title>RegistrationAuthorityProvisioner&#45;&gt;ProvisionerIdentity</title>
<path fill="none" stroke="black" d="M364.74,-78.16C380.84,-65.17 401.47,-48.54 416.65,-36.31"/>
<text text-anchor="middle" x="414.15" y="-38.91" font-family="Bitstream Vera Sans" font-size="8.00">1</text>
<text text-anchor="middle" x="362.24" y="-71.76" font-family="Bitstream Vera Sans" font-size="8.00">1</text>
</g>
<!-- CreateProvisionerRequest -->
<g id="node10" class="node">
<title>CreateProvisionerRequest</title>
<polygon fill="#f2f2f2" stroke="black" points="850,-287.5 850,-375.5 969,-375.5 969,-287.5 850,-287.5"/>
<text text-anchor="middle" x="909.5" y="-365.1" font-family="Bitstream Vera Sans" font-size="8.00">CreateProvisionerRequest</text>
<polyline fill="none" stroke="black" points="850,-358.5 969,-358.5"/>
<text text-anchor="middle" x="909.5" y="-348.1" font-family="Bitstream Vera Sans" font-size="8.00">+ type:enum</text>
<text text-anchor="middle" x="909.5" y="-339.1" font-family="Bitstream Vera Sans" font-size="8.00">+ name:string</text>
<text text-anchor="middle" x="909.5" y="-330.1" font-family="Bitstream Vera Sans" font-size="8.00">+ details:ProvisionerDetails</text>
<text text-anchor="middle" x="909.5" y="-321.1" font-family="Bitstream Vera Sans" font-size="8.00">+ claims:Claims</text>
<text text-anchor="middle" x="909.5" y="-312.1" font-family="Bitstream Vera Sans" font-size="8.00">+ x509_template:Template</text>
<text text-anchor="middle" x="909.5" y="-303.1" font-family="Bitstream Vera Sans" font-size="8.00">+ ssh_template:Template</text>
<text text-anchor="middle" x="909.5" y="-294.1" font-family="Bitstream Vera Sans" font-size="8.00">+ preferred_id:string</text>
</g>
<!-- ProvisionerDetails -->
<g id="node38" class="node">
<title>ProvisionerDetails</title>
<polygon fill="#f2f2f2" stroke="black" points="845.5,-188.5 845.5,-224.5 929.5,-224.5 929.5,-188.5 845.5,-188.5"/>
<text text-anchor="middle" x="887.5" y="-204.6" font-family="Bitstream Vera Sans" font-size="8.00">ProvisionerDetails</text>
</g>
<!-- CreateProvisionerRequest&#45;&gt;ProvisionerDetails -->
<g id="edge7" class="edge">
<title>CreateProvisionerRequest&#45;&gt;ProvisionerDetails</title>
<path fill="none" stroke="black" d="M901.87,-287.83C897.97,-266.04 893.45,-240.76 890.54,-224.47"/>
<text text-anchor="middle" x="888.04" y="-227.07" font-family="Bitstream Vera Sans" font-size="8.00">1</text>
<text text-anchor="middle" x="899.37" y="-281.43" font-family="Bitstream Vera Sans" font-size="8.00">1</text>
</g>
<!-- Claims -->
<g id="node39" class="node">
<title>Claims</title>
<polygon fill="#f2f2f2" stroke="black" points="947.5,-188.5 947.5,-224.5 1001.5,-224.5 1001.5,-188.5 947.5,-188.5"/>
<text text-anchor="middle" x="974.5" y="-204.6" font-family="Bitstream Vera Sans" font-size="8.00">Claims</text>
</g>
<!-- CreateProvisionerRequest&#45;&gt;Claims -->
<g id="edge8" class="edge">
<title>CreateProvisionerRequest&#45;&gt;Claims</title>
<path fill="none" stroke="black" d="M932.05,-287.83C943.56,-266.04 956.92,-240.76 965.53,-224.47"/>
<text text-anchor="middle" x="963.03" y="-227.07" font-family="Bitstream Vera Sans" font-size="8.00">1</text>
<text text-anchor="middle" x="929.55" y="-281.43" font-family="Bitstream Vera Sans" font-size="8.00">1</text>
</g>
<!-- Template -->
<g id="node40" class="node">
<title>Template</title>
<polygon fill="#f2f2f2" stroke="black" points="1019.5,-188.5 1019.5,-224.5 1073.5,-224.5 1073.5,-188.5 1019.5,-188.5"/>
<text text-anchor="middle" x="1046.5" y="-204.6" font-family="Bitstream Vera Sans" font-size="8.00">Template</text>
</g>
<!-- CreateProvisionerRequest&#45;&gt;Template -->
<g id="edge9" class="edge">
<title>CreateProvisionerRequest&#45;&gt;Template</title>
<path fill="none" stroke="black" d="M959.71,-287.54C973.7,-276.22 988.56,-263.62 1001.5,-251 1009.92,-242.78 1018.36,-232.71 1025.87,-224.33"/>
<text text-anchor="middle" x="1023.37" y="-226.93" font-family="Bitstream Vera Sans" font-size="8.00">1</text>
<text text-anchor="middle" x="957.21" y="-281.14" font-family="Bitstream Vera Sans" font-size="8.00">1</text>
</g>
<!-- CreateProvisionerRequest&#45;&gt;Template -->
<g id="edge10" class="edge">
<title>CreateProvisionerRequest&#45;&gt;Template</title>
<path fill="none" stroke="black" d="M968.83,-293.89C985.94,-281.04 1004.09,-266.04 1019.5,-251 1027.92,-242.78 1036.36,-232.71 1042.02,-224.33"/>
<text text-anchor="middle" x="1039.52" y="-226.93" font-family="Bitstream Vera Sans" font-size="8.00">1</text>
<text text-anchor="middle" x="971.33" y="-296.49" font-family="Bitstream Vera Sans" font-size="8.00">1</text>
</g>
<!-- GetProvisionerRequest -->
<g id="node11" class="node">
<title>GetProvisionerRequest</title>
<polygon fill="#f2f2f2" stroke="black" points="1124,-313.5 1124,-349.5 1227,-349.5 1227,-313.5 1124,-313.5"/>
<text text-anchor="middle" x="1175.5" y="-338.6" font-family="Bitstream Vera Sans" font-size="8.00">GetProvisionerRequest</text>
<polyline fill="none" stroke="black" points="1124,-331.5 1227,-331.5"/>
<text text-anchor="middle" x="1175.5" y="-320.6" font-family="Bitstream Vera Sans" font-size="8.00">+ id:string</text>
</g>
<!-- UpdateProvisionerRequest -->
<g id="node12" class="node">
<title>UpdateProvisionerRequest</title>
<polygon fill="#f2f2f2" stroke="black" points="987,-292 987,-371 1106,-371 1106,-292 987,-292"/>
<text text-anchor="middle" x="1046.5" y="-360.6" font-family="Bitstream Vera Sans" font-size="8.00">UpdateProvisionerRequest</text>
<polyline fill="none" stroke="black" points="987,-354 1106,-354"/>
<text text-anchor="middle" x="1046.5" y="-343.6" font-family="Bitstream Vera Sans" font-size="8.00">+ id:string</text>
<text text-anchor="middle" x="1046.5" y="-334.6" font-family="Bitstream Vera Sans" font-size="8.00">+ name:string</text>
<text text-anchor="middle" x="1046.5" y="-325.6" font-family="Bitstream Vera Sans" font-size="8.00">+ details:ProvisionerDetails</text>
<text text-anchor="middle" x="1046.5" y="-316.6" font-family="Bitstream Vera Sans" font-size="8.00">+ claims:Claims</text>
<text text-anchor="middle" x="1046.5" y="-307.6" font-family="Bitstream Vera Sans" font-size="8.00">+ x509_template:Template</text>
<text text-anchor="middle" x="1046.5" y="-298.6" font-family="Bitstream Vera Sans" font-size="8.00">+ ssh_template:Template</text>
</g>
<!-- UpdateProvisionerRequest&#45;&gt;ProvisionerDetails -->
<g id="edge11" class="edge">
<title>UpdateProvisionerRequest&#45;&gt;ProvisionerDetails</title>
<path fill="none" stroke="black" d="M992.64,-292.02C975.17,-279.23 955.83,-264.74 938.5,-251 927.74,-242.47 916.06,-232.56 906.6,-224.36"/>
<text text-anchor="middle" x="904.1" y="-226.96" font-family="Bitstream Vera Sans" font-size="8.00">1</text>
<text text-anchor="middle" x="990.14" y="-285.62" font-family="Bitstream Vera Sans" font-size="8.00">1</text>
</g>
<!-- UpdateProvisionerRequest&#45;&gt;Claims -->
<g id="edge12" class="edge">
<title>UpdateProvisionerRequest&#45;&gt;Claims</title>
<path fill="none" stroke="black" d="M1024.11,-292.26C1010.82,-269.55 994.62,-241.88 984.43,-224.47"/>
<text text-anchor="middle" x="981.93" y="-227.07" font-family="Bitstream Vera Sans" font-size="8.00">1</text>
<text text-anchor="middle" x="1021.61" y="-285.86" font-family="Bitstream Vera Sans" font-size="8.00">1</text>
</g>
<!-- UpdateProvisionerRequest&#45;&gt;Template -->
<g id="edge13" class="edge">
<title>UpdateProvisionerRequest&#45;&gt;Template</title>
<path fill="none" stroke="black" d="M1040.2,-292.26C1039.28,-269.55 1039.77,-241.88 1041.67,-224.47"/>
<text text-anchor="middle" x="1044.17" y="-227.07" font-family="Bitstream Vera Sans" font-size="8.00">1</text>
<text text-anchor="middle" x="1037.7" y="-285.86" font-family="Bitstream Vera Sans" font-size="8.00">1</text>
</g>
<!-- UpdateProvisionerRequest&#45;&gt;Template -->
<g id="edge14" class="edge">
<title>UpdateProvisionerRequest&#45;&gt;Template</title>
<path fill="none" stroke="black" d="M1052.8,-292.26C1053.72,-269.55 1053.23,-241.88 1051.33,-224.47"/>
<text text-anchor="middle" x="1053.83" y="-227.07" font-family="Bitstream Vera Sans" font-size="8.00">1</text>
<text text-anchor="middle" x="1050.3" y="-285.86" font-family="Bitstream Vera Sans" font-size="8.00">1</text>
</g>
<!-- DeleteProvisionerRequest -->
<g id="node13" class="node">
<title>DeleteProvisionerRequest</title>
<polygon fill="#f2f2f2" stroke="black" points="1245.5,-313.5 1245.5,-349.5 1359.5,-349.5 1359.5,-313.5 1245.5,-313.5"/>
<text text-anchor="middle" x="1302.5" y="-338.6" font-family="Bitstream Vera Sans" font-size="8.00">DeleteProvisionerRequest</text>
<polyline fill="none" stroke="black" points="1245.5,-331.5 1359.5,-331.5"/>
<text text-anchor="middle" x="1302.5" y="-320.6" font-family="Bitstream Vera Sans" font-size="8.00">+ id:string</text>
</g>
<!-- CreateAdminRequest -->
<g id="node14" class="node">
<title>CreateAdminRequest</title>
<polygon fill="#f2f2f2" stroke="black" points="1378,-301 1378,-362 1479,-362 1479,-301 1378,-301"/>
<text text-anchor="middle" x="1428.5" y="-351.6" font-family="Bitstream Vera Sans" font-size="8.00">CreateAdminRequest</text>
<polyline fill="none" stroke="black" points="1378,-345 1479,-345"/>
<text text-anchor="middle" x="1428.5" y="-334.6" font-family="Bitstream Vera Sans" font-size="8.00">+ subject:string</text>
<text text-anchor="middle" x="1428.5" y="-325.6" font-family="Bitstream Vera Sans" font-size="8.00">+ provisioner_id:string</text>
<text text-anchor="middle" x="1428.5" y="-316.6" font-family="Bitstream Vera Sans" font-size="8.00">+ type:enum</text>
<text text-anchor="middle" x="1428.5" y="-307.6" font-family="Bitstream Vera Sans" font-size="8.00">+ preferred_id:string</text>
</g>
<!-- GetAdminRequest -->
<g id="node15" class="node">
<title>GetAdminRequest</title>
<polygon fill="#f2f2f2" stroke="black" points="1497,-313.5 1497,-349.5 1584,-349.5 1584,-313.5 1497,-313.5"/>
<text text-anchor="middle" x="1540.5" y="-338.6" font-family="Bitstream Vera Sans" font-size="8.00">GetAdminRequest</text>
<polyline fill="none" stroke="black" points="1497,-331.5 1584,-331.5"/>
<text text-anchor="middle" x="1540.5" y="-320.6" font-family="Bitstream Vera Sans" font-size="8.00">+ id:string</text>
</g>
<!-- UpdateAdminRequest -->
<g id="node16" class="node">
<title>UpdateAdminRequest</title>
<polygon fill="#f2f2f2" stroke="black" points="1602.5,-310 1602.5,-353 1704.5,-353 1704.5,-310 1602.5,-310"/>
<text text-anchor="middle" x="1653.5" y="-342.6" font-family="Bitstream Vera Sans" font-size="8.00">UpdateAdminRequest</text>
<polyline fill="none" stroke="black" points="1602.5,-336 1704.5,-336"/>
<text text-anchor="middle" x="1653.5" y="-325.6" font-family="Bitstream Vera Sans" font-size="8.00">+ id:string</text>
<text text-anchor="middle" x="1653.5" y="-316.6" font-family="Bitstream Vera Sans" font-size="8.00">+ type:enum</text>
</g>
<!-- DeleteAdminRequest -->
<g id="node17" class="node">
<title>DeleteAdminRequest</title>
<polygon fill="#f2f2f2" stroke="black" points="1722.5,-313.5 1722.5,-349.5 1820.5,-349.5 1820.5,-313.5 1722.5,-313.5"/>
<text text-anchor="middle" x="1771.5" y="-338.6" font-family="Bitstream Vera Sans" font-size="8.00">DeleteAdminRequest</text>
<polyline fill="none" stroke="black" points="1722.5,-331.5 1820.5,-331.5"/>
<text text-anchor="middle" x="1771.5" y="-320.6" font-family="Bitstream Vera Sans" font-size="8.00">+ id:string</text>
</g>
<!-- CertificateRequest -->
<g id="node18" class="node">
<title>CertificateRequest</title>
<polygon fill="#f2f2f2" stroke="black" points="116.5,-162.5 116.5,-250.5 318.5,-250.5 318.5,-162.5 116.5,-162.5"/>
<text text-anchor="middle" x="217.5" y="-240.1" font-family="Bitstream Vera Sans" font-size="8.00">CertificateRequest</text>
<polyline fill="none" stroke="black" points="116.5,-233.5 318.5,-233.5"/>
<text text-anchor="middle" x="217.5" y="-223.1" font-family="Bitstream Vera Sans" font-size="8.00">+ pem_certificate:string</text>
<text text-anchor="middle" x="217.5" y="-214.1" font-family="Bitstream Vera Sans" font-size="8.00">+ pem_certificate_chain:string</text>
<text text-anchor="middle" x="217.5" y="-205.1" font-family="Bitstream Vera Sans" font-size="8.00">+ pem_parent_certificate:string</text>
<text text-anchor="middle" x="217.5" y="-196.1" font-family="Bitstream Vera Sans" font-size="8.00">+ provisioner:ProvisionerIdentity</text>
<text text-anchor="middle" x="217.5" y="-187.1" font-family="Bitstream Vera Sans" font-size="8.00">+ ra_provisioner:RegistrationAuthorityProvisioner</text>
<text text-anchor="middle" x="217.5" y="-178.1" font-family="Bitstream Vera Sans" font-size="8.00">+ endpoint_id:string</text>
<text text-anchor="middle" x="217.5" y="-169.1" font-family="Bitstream Vera Sans" font-size="8.00">+ attestation_data:AttestationData</text>
</g>
<!-- CertificateRequest&#45;&gt;RegistrationAuthorityProvisioner -->
<g id="edge16" class="edge">
<title>CertificateRequest&#45;&gt;RegistrationAuthorityProvisioner</title>
<path fill="none" stroke="black" d="M267.12,-162.79C284.01,-148.26 302.1,-132.68 315.98,-120.75"/>
<text text-anchor="middle" x="313.48" y="-123.35" font-family="Bitstream Vera Sans" font-size="8.00">1</text>
<text text-anchor="middle" x="264.62" y="-156.39" font-family="Bitstream Vera Sans" font-size="8.00">1</text>
</g>
<!-- AttestationData -->
<g id="node19" class="node">
<title>AttestationData</title>
<polygon fill="#f2f2f2" stroke="black" points="84,-81.5 84,-117.5 213,-117.5 213,-81.5 84,-81.5"/>
<text text-anchor="middle" x="148.5" y="-106.6" font-family="Bitstream Vera Sans" font-size="8.00">AttestationData</text>
<polyline fill="none" stroke="black" points="84,-99.5 213,-99.5"/>
<text text-anchor="middle" x="148.5" y="-88.6" font-family="Bitstream Vera Sans" font-size="8.00">+ permanent_identifier:string</text>
</g>
<!-- CertificateRequest&#45;&gt;AttestationData -->
<g id="edge17" class="edge">
<title>CertificateRequest&#45;&gt;AttestationData</title>
<path fill="none" stroke="black" d="M189.44,-162.79C178.99,-146.89 167.72,-129.76 159.66,-117.49"/>
<text text-anchor="middle" x="157.16" y="-120.09" font-family="Bitstream Vera Sans" font-size="8.00">1</text>
<text text-anchor="middle" x="186.94" y="-156.39" font-family="Bitstream Vera Sans" font-size="8.00">1</text>
</g>
<!-- CertificateRequest&#45;&gt;ProvisionerIdentity -->
<g id="edge15" class="edge">
<title>CertificateRequest&#45;&gt;ProvisionerIdentity</title>
<path fill="none" stroke="black" d="M221.19,-162.51C225.88,-133.57 236.49,-96.53 260.5,-73 296.15,-38.06 353.8,-25.83 393.57,-21.61"/>
<text text-anchor="middle" x="391.07" y="-24.21" font-family="Bitstream Vera Sans" font-size="8.00">1</text>
<text text-anchor="middle" x="218.69" y="-156.11" font-family="Bitstream Vera Sans" font-size="8.00">1</text>
</g>
<!-- CertificateResponse -->
<g id="node20" class="node">
<title>CertificateResponse</title>
<polygon fill="#f2f2f2" stroke="black" points="1838.5,-313.5 1838.5,-349.5 1930.5,-349.5 1930.5,-313.5 1838.5,-313.5"/>
<text text-anchor="middle" x="1884.5" y="-338.6" font-family="Bitstream Vera Sans" font-size="8.00">CertificateResponse</text>
<polyline fill="none" stroke="black" points="1838.5,-331.5 1930.5,-331.5"/>
<text text-anchor="middle" x="1884.5" y="-320.6" font-family="Bitstream Vera Sans" font-size="8.00">+ id:string</text>
</g>
<!-- SSHCertificateRequest -->
<g id="node21" class="node">
<title>SSHCertificateRequest</title>
<polygon fill="#f2f2f2" stroke="black" points="466,-73.5 466,-125.5 605,-125.5 605,-73.5 466,-73.5"/>
<text text-anchor="middle" x="535.5" y="-115.1" font-family="Bitstream Vera Sans" font-size="8.00">SSHCertificateRequest</text>
<polyline fill="none" stroke="black" points="466,-108.5 605,-108.5"/>
<text text-anchor="middle" x="535.5" y="-98.1" font-family="Bitstream Vera Sans" font-size="8.00">+ certificate:string</text>
<text text-anchor="middle" x="535.5" y="-89.1" font-family="Bitstream Vera Sans" font-size="8.00">+ parent_certificate:string</text>
<text text-anchor="middle" x="535.5" y="-80.1" font-family="Bitstream Vera Sans" font-size="8.00">+ provisioner:ProvisionerIdentity</text>
</g>
<!-- SSHCertificateRequest&#45;&gt;ProvisionerIdentity -->
<g id="edge18" class="edge">
<title>SSHCertificateRequest&#45;&gt;ProvisionerIdentity</title>
<path fill="none" stroke="black" d="M504.49,-73.5C489.46,-61.39 471.81,-47.16 458.4,-36.35"/>
<text text-anchor="middle" x="455.9" y="-38.95" font-family="Bitstream Vera Sans" font-size="8.00">1</text>
<text text-anchor="middle" x="501.99" y="-67.1" font-family="Bitstream Vera Sans" font-size="8.00">1</text>
</g>
<!-- SSHCertificateResponse -->
<g id="node22" class="node">
<title>SSHCertificateResponse</title>
<polygon fill="#f2f2f2" stroke="black" points="1949,-313.5 1949,-349.5 2056,-349.5 2056,-313.5 1949,-313.5"/>
<text text-anchor="middle" x="2002.5" y="-338.6" font-family="Bitstream Vera Sans" font-size="8.00">SSHCertificateResponse</text>
<polyline fill="none" stroke="black" points="1949,-331.5 2056,-331.5"/>
<text text-anchor="middle" x="2002.5" y="-320.6" font-family="Bitstream Vera Sans" font-size="8.00">+ id:string</text>
</g>
<!-- OneTimeTokenRequest -->
<g id="node23" class="node">
<title>OneTimeTokenRequest</title>
<polygon fill="#f2f2f2" stroke="black" points="2074,-310 2074,-353 2179,-353 2179,-310 2074,-310"/>
<text text-anchor="middle" x="2126.5" y="-342.6" font-family="Bitstream Vera Sans" font-size="8.00">OneTimeTokenRequest</text>
<polyline fill="none" stroke="black" points="2074,-336 2179,-336"/>
<text text-anchor="middle" x="2126.5" y="-325.6" font-family="Bitstream Vera Sans" font-size="8.00">+ jti:string</text>
<text text-anchor="middle" x="2126.5" y="-316.6" font-family="Bitstream Vera Sans" font-size="8.00">+ token:string</text>
</g>
<!-- OneTimeTokenResponse -->
<g id="node24" class="node">
<title>OneTimeTokenResponse</title>
<polygon fill="#f2f2f2" stroke="black" points="2197.5,-313.5 2197.5,-349.5 2307.5,-349.5 2307.5,-313.5 2197.5,-313.5"/>
<text text-anchor="middle" x="2252.5" y="-338.6" font-family="Bitstream Vera Sans" font-size="8.00">OneTimeTokenResponse</text>
<polyline fill="none" stroke="black" points="2197.5,-331.5 2307.5,-331.5"/>
<text text-anchor="middle" x="2252.5" y="-320.6" font-family="Bitstream Vera Sans" font-size="8.00">+ id:string</text>
</g>
<!-- RevokeCertificateRequest -->
<g id="node25" class="node">
<title>RevokeCertificateRequest</title>
<polygon fill="#f2f2f2" stroke="black" points="2326,-292 2326,-371 2439,-371 2439,-292 2326,-292"/>
<text text-anchor="middle" x="2382.5" y="-360.6" font-family="Bitstream Vera Sans" font-size="8.00">RevokeCertificateRequest</text>
<polyline fill="none" stroke="black" points="2326,-354 2439,-354"/>
<text text-anchor="middle" x="2382.5" y="-343.6" font-family="Bitstream Vera Sans" font-size="8.00">+ serial:string</text>
<text text-anchor="middle" x="2382.5" y="-334.6" font-family="Bitstream Vera Sans" font-size="8.00">+ pem_certificate:string</text>
<text text-anchor="middle" x="2382.5" y="-325.6" font-family="Bitstream Vera Sans" font-size="8.00">+ reason:string</text>
<text text-anchor="middle" x="2382.5" y="-316.6" font-family="Bitstream Vera Sans" font-size="8.00">+ reason_code:enum</text>
<text text-anchor="middle" x="2382.5" y="-307.6" font-family="Bitstream Vera Sans" font-size="8.00">+ passive:bool</text>
<text text-anchor="middle" x="2382.5" y="-298.6" font-family="Bitstream Vera Sans" font-size="8.00">+ revoked_at:Timestamp</text>
</g>
<!-- Timestamp -->
<g id="node41" class="node">
<title>Timestamp</title>
<polygon fill="#f2f2f2" stroke="black" points="2565,-188.5 2565,-224.5 2624,-224.5 2624,-188.5 2565,-188.5"/>
<text text-anchor="middle" x="2594.5" y="-204.6" font-family="Bitstream Vera Sans" font-size="8.00">Timestamp</text>
</g>
<!-- RevokeCertificateRequest&#45;&gt;Timestamp -->
<g id="edge19" class="edge">
<title>RevokeCertificateRequest&#45;&gt;Timestamp</title>
<path fill="none" stroke="black" d="M2438.83,-292.93C2442.08,-290.9 2445.32,-288.91 2448.5,-287 2488.09,-263.23 2535.22,-238.12 2565.01,-222.63"/>
<text text-anchor="middle" x="2562.51" y="-225.23" font-family="Bitstream Vera Sans" font-size="8.00">1</text>
<text text-anchor="middle" x="2441.33" y="-295.53" font-family="Bitstream Vera Sans" font-size="8.00">1</text>
</g>
<!-- RevokeCertificateResponse -->
<g id="node26" class="node">
<title>RevokeCertificateResponse</title>
<polygon fill="#f2f2f2" stroke="black" points="2914,-313.5 2914,-349.5 3033,-349.5 3033,-313.5 2914,-313.5"/>
<text text-anchor="middle" x="2973.5" y="-338.6" font-family="Bitstream Vera Sans" font-size="8.00">RevokeCertificateResponse</text>
<polyline fill="none" stroke="black" points="2914,-331.5 3033,-331.5"/>
<text text-anchor="middle" x="2973.5" y="-320.6" font-family="Bitstream Vera Sans" font-size="8.00">+ status:enum</text>
</g>
<!-- RevokeSSHCertificateRequest -->
<g id="node27" class="node">
<title>RevokeSSHCertificateRequest</title>
<polygon fill="#f2f2f2" stroke="black" points="2457.5,-292 2457.5,-371 2585.5,-371 2585.5,-292 2457.5,-292"/>
<text text-anchor="middle" x="2521.5" y="-360.6" font-family="Bitstream Vera Sans" font-size="8.00">RevokeSSHCertificateRequest</text>
<polyline fill="none" stroke="black" points="2457.5,-354 2585.5,-354"/>
<text text-anchor="middle" x="2521.5" y="-343.6" font-family="Bitstream Vera Sans" font-size="8.00">+ serial:string</text>
<text text-anchor="middle" x="2521.5" y="-334.6" font-family="Bitstream Vera Sans" font-size="8.00">+ certificate:string</text>
<text text-anchor="middle" x="2521.5" y="-325.6" font-family="Bitstream Vera Sans" font-size="8.00">+ reason:string</text>
<text text-anchor="middle" x="2521.5" y="-316.6" font-family="Bitstream Vera Sans" font-size="8.00">+ reason_code:enum</text>
<text text-anchor="middle" x="2521.5" y="-307.6" font-family="Bitstream Vera Sans" font-size="8.00">+ passive:bool</text>
<text text-anchor="middle" x="2521.5" y="-298.6" font-family="Bitstream Vera Sans" font-size="8.00">+ revoked_at:Timestamp</text>
</g>
<!-- RevokeSSHCertificateRequest&#45;&gt;Timestamp -->
<g id="edge20" class="edge">
<title>RevokeSSHCertificateRequest&#45;&gt;Timestamp</title>
<path fill="none" stroke="black" d="M2544.2,-292.26C2557.67,-269.55 2574.1,-241.88 2584.43,-224.47"/>
<text text-anchor="middle" x="2581.93" y="-227.07" font-family="Bitstream Vera Sans" font-size="8.00">1</text>
<text text-anchor="middle" x="2541.7" y="-285.86" font-family="Bitstream Vera Sans" font-size="8.00">1</text>
</g>
<!-- RevokeSSHCertificateResponse -->
<g id="node28" class="node">
<title>RevokeSSHCertificateResponse</title>
<polygon fill="#f2f2f2" stroke="black" points="3051.5,-313.5 3051.5,-349.5 3185.5,-349.5 3185.5,-313.5 3051.5,-313.5"/>
<text text-anchor="middle" x="3118.5" y="-338.6" font-family="Bitstream Vera Sans" font-size="8.00">RevokeSSHCertificateResponse</text>
<polyline fill="none" stroke="black" points="3051.5,-331.5 3185.5,-331.5"/>
<text text-anchor="middle" x="3118.5" y="-320.6" font-family="Bitstream Vera Sans" font-size="8.00">+ status:enum</text>
</g>
<!-- GetCertificateRequest -->
<g id="node29" class="node">
<title>GetCertificateRequest</title>
<polygon fill="#f2f2f2" stroke="black" points="3203.5,-313.5 3203.5,-349.5 3303.5,-349.5 3303.5,-313.5 3203.5,-313.5"/>
<text text-anchor="middle" x="3253.5" y="-338.6" font-family="Bitstream Vera Sans" font-size="8.00">GetCertificateRequest</text>
<polyline fill="none" stroke="black" points="3203.5,-331.5 3303.5,-331.5"/>
<text text-anchor="middle" x="3253.5" y="-320.6" font-family="Bitstream Vera Sans" font-size="8.00">+ serial:string</text>
</g>
<!-- GetCertificateResponse -->
<g id="node30" class="node">
<title>GetCertificateResponse</title>
<polygon fill="#f2f2f2" stroke="black" points="336.5,-180.5 336.5,-232.5 538.5,-232.5 538.5,-180.5 336.5,-180.5"/>
<text text-anchor="middle" x="437.5" y="-222.1" font-family="Bitstream Vera Sans" font-size="8.00">GetCertificateResponse</text>
<polyline fill="none" stroke="black" points="336.5,-215.5 538.5,-215.5"/>
<text text-anchor="middle" x="437.5" y="-205.1" font-family="Bitstream Vera Sans" font-size="8.00">+ pem_certificate:string</text>
<text text-anchor="middle" x="437.5" y="-196.1" font-family="Bitstream Vera Sans" font-size="8.00">+ provisioner:ProvisionerIdentity</text>
<text text-anchor="middle" x="437.5" y="-187.1" font-family="Bitstream Vera Sans" font-size="8.00">+ ra_provisioner:RegistrationAuthorityProvisioner</text>
</g>
<!-- GetCertificateResponse&#45;&gt;RegistrationAuthorityProvisioner -->
<g id="edge22" class="edge">
<title>GetCertificateResponse&#45;&gt;RegistrationAuthorityProvisioner</title>
<path fill="none" stroke="black" d="M414.28,-180.62C397.29,-162.42 374.54,-138.04 358.61,-120.97"/>
<text text-anchor="middle" x="356.11" y="-123.57" font-family="Bitstream Vera Sans" font-size="8.00">1</text>
<text text-anchor="middle" x="411.78" y="-174.22" font-family="Bitstream Vera Sans" font-size="8.00">1</text>
</g>
<!-- GetCertificateResponse&#45;&gt;ProvisionerIdentity -->
<g id="edge21" class="edge">
<title>GetCertificateResponse&#45;&gt;ProvisionerIdentity</title>
<path fill="none" stroke="black" d="M437.5,-180.8C437.5,-142.36 437.5,-69.22 437.5,-36.3"/>
<text text-anchor="middle" x="435" y="-38.9" font-family="Bitstream Vera Sans" font-size="8.00">1</text>
<text text-anchor="middle" x="435" y="-174.4" font-family="Bitstream Vera Sans" font-size="8.00">1</text>
</g>
<!-- GetCertificateStatusRequest -->
<g id="node31" class="node">
<title>GetCertificateStatusRequest</title>
<polygon fill="#f2f2f2" stroke="black" points="3321.5,-313.5 3321.5,-349.5 3445.5,-349.5 3445.5,-313.5 3321.5,-313.5"/>
<text text-anchor="middle" x="3383.5" y="-338.6" font-family="Bitstream Vera Sans" font-size="8.00">GetCertificateStatusRequest</text>
<polyline fill="none" stroke="black" points="3321.5,-331.5 3445.5,-331.5"/>
<text text-anchor="middle" x="3383.5" y="-320.6" font-family="Bitstream Vera Sans" font-size="8.00">+ serial:string</text>
</g>
<!-- GetCertificateStatusResponse -->
<g id="node32" class="node">
<title>GetCertificateStatusResponse</title>
<polygon fill="#f2f2f2" stroke="black" points="2604,-301 2604,-362 2733,-362 2733,-301 2604,-301"/>
<text text-anchor="middle" x="2668.5" y="-351.6" font-family="Bitstream Vera Sans" font-size="8.00">GetCertificateStatusResponse</text>
<polyline fill="none" stroke="black" points="2604,-345 2733,-345"/>
<text text-anchor="middle" x="2668.5" y="-334.6" font-family="Bitstream Vera Sans" font-size="8.00">+ status:enum</text>
<text text-anchor="middle" x="2668.5" y="-325.6" font-family="Bitstream Vera Sans" font-size="8.00">+ reason:string</text>
<text text-anchor="middle" x="2668.5" y="-316.6" font-family="Bitstream Vera Sans" font-size="8.00">+ reason_code:enum</text>
<text text-anchor="middle" x="2668.5" y="-307.6" font-family="Bitstream Vera Sans" font-size="8.00">+ revoked_at:Timestamp</text>
</g>
<!-- GetCertificateStatusResponse&#45;&gt;Timestamp -->
<g id="edge23" class="edge">
<title>GetCertificateStatusResponse&#45;&gt;Timestamp</title>
<path fill="none" stroke="black" d="M2650.78,-301.04C2636.32,-277.02 2616.43,-243.95 2604.57,-224.24"/>
<text text-anchor="middle" x="2602.07" y="-226.84" font-family="Bitstream Vera Sans" font-size="8.00">1</text>
<text text-anchor="middle" x="2648.28" y="-294.64" font-family="Bitstream Vera Sans" font-size="8.00">1</text>
</g>
<!-- GetSSHCertificateStatusRequest -->
<g id="node33" class="node">
<title>GetSSHCertificateStatusRequest</title>
<polygon fill="#f2f2f2" stroke="black" points="3464,-313.5 3464,-349.5 3603,-349.5 3603,-313.5 3464,-313.5"/>
<text text-anchor="middle" x="3533.5" y="-338.6" font-family="Bitstream Vera Sans" font-size="8.00">GetSSHCertificateStatusRequest</text>
<polyline fill="none" stroke="black" points="3464,-331.5 3603,-331.5"/>
<text text-anchor="middle" x="3533.5" y="-320.6" font-family="Bitstream Vera Sans" font-size="8.00">+ serial:string</text>
</g>
<!-- GetSSHCertificateStatusResponse -->
<g id="node34" class="node">
<title>GetSSHCertificateStatusResponse</title>
<polygon fill="#f2f2f2" stroke="black" points="2751.5,-301 2751.5,-362 2895.5,-362 2895.5,-301 2751.5,-301"/>
<text text-anchor="middle" x="2823.5" y="-351.6" font-family="Bitstream Vera Sans" font-size="8.00">GetSSHCertificateStatusResponse</text>
<polyline fill="none" stroke="black" points="2751.5,-345 2895.5,-345"/>
<text text-anchor="middle" x="2823.5" y="-334.6" font-family="Bitstream Vera Sans" font-size="8.00">+ status:enum</text>
<text text-anchor="middle" x="2823.5" y="-325.6" font-family="Bitstream Vera Sans" font-size="8.00">+ reason:string</text>
<text text-anchor="middle" x="2823.5" y="-316.6" font-family="Bitstream Vera Sans" font-size="8.00">+ reason_code:enum</text>
<text text-anchor="middle" x="2823.5" y="-307.6" font-family="Bitstream Vera Sans" font-size="8.00">+ revoked_at:Timestamp</text>
</g>
<!-- GetSSHCertificateStatusResponse&#45;&gt;Timestamp -->
<g id="edge24" class="edge">
<title>GetSSHCertificateStatusResponse&#45;&gt;Timestamp</title>
<path fill="none" stroke="black" d="M2768.65,-301.04C2723.13,-276.59 2660.16,-242.77 2623.74,-223.21"/>
<text text-anchor="middle" x="2626.24" y="-225.81" font-family="Bitstream Vera Sans" font-size="8.00">1</text>
<text text-anchor="middle" x="2766.15" y="-294.64" font-family="Bitstream Vera Sans" font-size="8.00">1</text>
</g>
<!-- Provisioner -->
<g id="node35" class="node">
<title>Provisioner</title>
<polygon fill="#f2f2f2" stroke="black" points="701.5,-313.5 701.5,-349.5 759.5,-349.5 759.5,-313.5 701.5,-313.5"/>
<text text-anchor="middle" x="730.5" y="-329.6" font-family="Bitstream Vera Sans" font-size="8.00">Provisioner</text>
</g>
<!-- Provisioner&#45;&gt;ConfigurationResponse -->
<g id="edge1" class="edge">
<title>Provisioner&#45;&gt;ConfigurationResponse</title>
<path fill="none" stroke="black" d="M731.32,-313.66C732.12,-297.23 733.37,-271.59 734.45,-249.62"/>
<polygon fill="none" stroke="black" points="734.44,-249.76 730.74,-243.57 735.02,-237.78 738.73,-243.96 734.44,-249.76"/>
<text text-anchor="middle" x="732.57" y="-239.48" font-family="Bitstream Vera Sans" font-size="8.00">1</text>
<text text-anchor="middle" x="724.32" y="-307.26" font-family="Bitstream Vera Sans" font-size="8.00">0..*</text>
</g>
<!-- Admin -->
<g id="node36" class="node">
<title>Admin</title>
<polygon fill="#f2f2f2" stroke="black" points="777.5,-313.5 777.5,-349.5 831.5,-349.5 831.5,-313.5 777.5,-313.5"/>
<text text-anchor="middle" x="804.5" y="-329.6" font-family="Bitstream Vera Sans" font-size="8.00">Admin</text>
</g>
<!-- Admin&#45;&gt;ConfigurationResponse -->
<g id="edge2" class="edge">
<title>Admin&#45;&gt;ConfigurationResponse</title>
<path fill="none" stroke="black" d="M795.19,-313.66C785.9,-296.85 771.26,-270.38 758.94,-248.08"/>
<polygon fill="none" stroke="black" points="758.98,-248.17 752.58,-244.85 753.18,-237.66 759.58,-240.98 758.98,-248.17"/>
<text text-anchor="middle" x="750.24" y="-239.48" font-family="Bitstream Vera Sans" font-size="8.00">1</text>
<text text-anchor="middle" x="788.19" y="-307.26" font-family="Bitstream Vera Sans" font-size="8.00">0..*</text>
</g>
</g>
</svg>
