<?xml version="1.0" encoding="UTF-8" standalone="no"?>
<!DOCTYPE svg PUBLIC "-//W3C//DTD SVG 1.1//EN"
 "http://www.w3.org/Graphics/SVG/1.1/DTD/svg11.dtd">
<!-- Generated by graphviz version 7.0.1 (20221109.1506)
 -->
<!-- Title: Protobuf UML class diagram Pages: 1 -->
<svg width="698pt" height="337pt"
 viewBox="0.00 0.00 697.50 337.00" xmlns="http://www.w3.org/2000/svg" xmlns:xlink="http://www.w3.org/1999/xlink">
<g id="graph0" class="graph" transform="scale(1 1) rotate(0) translate(4 333)">
<title>Protobuf UML class diagram</title>
<polygon fill="white" stroke="none" points="-4,4 -4,-333 693.5,-333 693.5,4 -4,4"/>
<!-- linkedca.Policy -->
<g id="node1" class="node">
<title>linkedca.Policy</title>
<polygon fill="#f2f2f2" stroke="black" points="128,-285.5 128,-328.5 303,-328.5 303,-285.5 128,-285.5"/>
<text text-anchor="middle" x="215.5" y="-318.1" font-family="Bitstream Vera Sans" font-size="8.00">linkedca.Policy</text>
<polyline fill="none" stroke="black" points="128,-311.5 303,-311.5"/>
<text text-anchor="middle" x="215.5" y="-301.1" font-family="Bitstream Vera Sans" font-size="8.00">+ linkedca.Policy.x509:linkedca.X509Policy</text>
<text text-anchor="middle" x="215.5" y="-292.1" font-family="Bitstream Vera Sans" font-size="8.00">+ linkedca.Policy.ssh:linkedca.SSHPolicy</text>
</g>
<!-- linkedca.X509Policy -->
<g id="node2" class="node">
<title>linkedca.X509Policy</title>
<polygon fill="#f2f2f2" stroke="black" points="0,-196.5 0,-248.5 203,-248.5 203,-196.5 0,-196.5"/>
<text text-anchor="middle" x="101.5" y="-238.1" font-family="Bitstream Vera Sans" font-size="8.00">linkedca.X509Policy</text>
<polyline fill="none" stroke="black" points="0,-231.5 203,-231.5"/>
<text text-anchor="middle" x="101.5" y="-221.1" font-family="Bitstream Vera Sans" font-size="8.00">+ linkedca.X509Policy.allow:linkedca.X509Names</text>
<text text-anchor="middle" x="101.5" y="-212.1" font-family="Bitstream Vera Sans" font-size="8.00">+ linkedca.X509Policy.deny:linkedca.X509Names</text>
<text text-anchor="middle" x="101.5" y="-203.1" font-family="Bitstream Vera Sans" font-size="8.00">+ linkedca.X509Policy.allow_wildcard_names:bool</text>
</g>
<!-- linkedca.Policy&#45;&gt;linkedca.X509Policy -->
<g id="edge1" class="edge">
<title>linkedca.Policy&#45;&gt;linkedca.X509Policy</title>
<path fill="none" stroke="black" d="M187.32,-285.61C171.76,-274.35 152.31,-260.27 135.86,-248.37"/>
<text text-anchor="middle" x="133.36" y="-250.97" font-family="Bitstream Vera Sans" font-size="8.00">1</text>
<text text-anchor="middle" x="184.82" y="-279.21" font-family="Bitstream Vera Sans" font-size="8.00">1</text>
</g>
<!-- linkedca.SSHPolicy -->
<g id="node3" class="node">
<title>linkedca.SSHPolicy</title>
<polygon fill="#f2f2f2" stroke="black" points="228,-201 228,-244 431,-244 431,-201 228,-201"/>
<text text-anchor="middle" x="329.5" y="-233.6" font-family="Bitstream Vera Sans" font-size="8.00">linkedca.SSHPolicy</text>
<polyline fill="none" stroke="black" points="228,-227 431,-227"/>
<text text-anchor="middle" x="329.5" y="-216.6" font-family="Bitstream Vera Sans" font-size="8.00">+ linkedca.SSHPolicy.host:linkedca.SSHHostPolicy</text>
<text text-anchor="middle" x="329.5" y="-207.6" font-family="Bitstream Vera Sans" font-size="8.00">+ linkedca.SSHPolicy.user:linkedca.SSHUserPolicy</text>
</g>
<!-- linkedca.Policy&#45;&gt;linkedca.SSHPolicy -->
<g id="edge2" class="edge">
<title>linkedca.Policy&#45;&gt;linkedca.SSHPolicy</title>
<path fill="none" stroke="black" d="M243.68,-285.61C261.22,-272.91 283.7,-256.65 301.25,-243.94"/>
<text text-anchor="middle" x="298.75" y="-246.54" font-family="Bitstream Vera Sans" font-size="8.00">1</text>
<text text-anchor="middle" x="241.18" y="-279.21" font-family="Bitstream Vera Sans" font-size="8.00">1</text>
</g>
<!-- linkedca.X509Names -->
<g id="node6" class="node">
<title>linkedca.X509Names</title>
<polygon fill="#f2f2f2" stroke="black" points="6,-89.5 6,-159.5 197,-159.5 197,-89.5 6,-89.5"/>
<text text-anchor="middle" x="101.5" y="-149.1" font-family="Bitstream Vera Sans" font-size="8.00">linkedca.X509Names</text>
<polyline fill="none" stroke="black" points="6,-142.5 197,-142.5"/>
<text text-anchor="middle" x="101.5" y="-132.1" font-family="Bitstream Vera Sans" font-size="8.00">+ linkedca.X509Names.dns:string</text>
<text text-anchor="middle" x="101.5" y="-123.1" font-family="Bitstream Vera Sans" font-size="8.00">+ linkedca.X509Names.ips:string</text>
<text text-anchor="middle" x="101.5" y="-114.1" font-family="Bitstream Vera Sans" font-size="8.00">+ linkedca.X509Names.emails:string</text>
<text text-anchor="middle" x="101.5" y="-105.1" font-family="Bitstream Vera Sans" font-size="8.00">+ linkedca.X509Names.uris:string</text>
<text text-anchor="middle" x="101.5" y="-96.1" font-family="Bitstream Vera Sans" font-size="8.00">+ linkedca.X509Names.common_names:string</text>
</g>
<!-- linkedca.X509Policy&#45;&gt;linkedca.X509Names -->
<g id="edge3" class="edge">
<title>linkedca.X509Policy&#45;&gt;linkedca.X509Names</title>
<path fill="none" stroke="black" d="M95.49,-196.53C94.7,-185.19 94.54,-171.62 95.02,-159.38"/>
<text text-anchor="middle" x="92.52" y="-161.98" font-family="Bitstream Vera Sans" font-size="8.00">1</text>
<text text-anchor="middle" x="92.99" y="-190.13" font-family="Bitstream Vera Sans" font-size="8.00">1</text>
</g>
<!-- linkedca.X509Policy&#45;&gt;linkedca.X509Names -->
<g id="edge4" class="edge">
<title>linkedca.X509Policy&#45;&gt;linkedca.X509Names</title>
<path fill="none" stroke="black" d="M107.51,-196.53C108.3,-185.19 108.46,-171.62 107.98,-159.38"/>
<text text-anchor="middle" x="105.48" y="-161.98" font-family="Bitstream Vera Sans" font-size="8.00">1</text>
<text text-anchor="middle" x="105.01" y="-190.13" font-family="Bitstream Vera Sans" font-size="8.00">1</text>
</g>
<!-- linkedca.SSHHostPolicy -->
<g id="node4" class="node">
<title>linkedca.SSHHostPolicy</title>
<polygon fill="#f2f2f2" stroke="black" points="215.5,-103 215.5,-146 443.5,-146 443.5,-103 215.5,-103"/>
<text text-anchor="middle" x="329.5" y="-135.6" font-family="Bitstream Vera Sans" font-size="8.00">linkedca.SSHHostPolicy</text>
<polyline fill="none" stroke="black" points="215.5,-129 443.5,-129"/>
<text text-anchor="middle" x="329.5" y="-118.6" font-family="Bitstream Vera Sans" font-size="8.00">+ linkedca.SSHHostPolicy.allow:linkedca.SSHHostNames</text>
<text text-anchor="middle" x="329.5" y="-109.6" font-family="Bitstream Vera Sans" font-size="8.00">+ linkedca.SSHHostPolicy.deny:linkedca.SSHHostNames</text>
</g>
<!-- linkedca.SSHPolicy&#45;&gt;linkedca.SSHHostPolicy -->
<g id="edge5" class="edge">
<title>linkedca.SSHPolicy&#45;&gt;linkedca.SSHHostPolicy</title>
<path fill="none" stroke="black" d="M329.5,-201.14C329.5,-184.85 329.5,-162.11 329.5,-145.83"/>
<text text-anchor="middle" x="327" y="-148.43" font-family="Bitstream Vera Sans" font-size="8.00">1</text>
<text text-anchor="middle" x="327" y="-194.74" font-family="Bitstream Vera Sans" font-size="8.00">1</text>
</g>
<!-- linkedca.SSHUserPolicy -->
<g id="node5" class="node">
<title>linkedca.SSHUserPolicy</title>
<polygon fill="#f2f2f2" stroke="black" points="461.5,-103 461.5,-146 689.5,-146 689.5,-103 461.5,-103"/>
<text text-anchor="middle" x="575.5" y="-135.6" font-family="Bitstream Vera Sans" font-size="8.00">linkedca.SSHUserPolicy</text>
<polyline fill="none" stroke="black" points="461.5,-129 689.5,-129"/>
<text text-anchor="middle" x="575.5" y="-118.6" font-family="Bitstream Vera Sans" font-size="8.00">+ linkedca.SSHUserPolicy.allow:linkedca.SSHUserNames</text>
<text text-anchor="middle" x="575.5" y="-109.6" font-family="Bitstream Vera Sans" font-size="8.00">+ linkedca.SSHUserPolicy.deny:linkedca.SSHUserNames</text>
</g>
<!-- linkedca.SSHPolicy&#45;&gt;linkedca.SSHUserPolicy -->
<g id="edge6" class="edge">
<title>linkedca.SSHPolicy&#45;&gt;linkedca.SSHUserPolicy</title>
<path fill="none" stroke="black" d="M381.97,-201.02C423.6,-184.78 481.5,-162.18 523.11,-145.95"/>
<text text-anchor="middle" x="520.61" y="-148.55" font-family="Bitstream Vera Sans" font-size="8.00">1</text>
<text text-anchor="middle" x="379.47" y="-194.62" font-family="Bitstream Vera Sans" font-size="8.00">1</text>
</g>
<!-- linkedca.SSHHostNames -->
<g id="node7" class="node">
<title>linkedca.SSHHostNames</title>
<polygon fill="#f2f2f2" stroke="black" points="239,-0.5 239,-52.5 420,-52.5 420,-0.5 239,-0.5"/>
<text text-anchor="middle" x="329.5" y="-42.1" font-family="Bitstream Vera Sans" font-size="8.00">linkedca.SSHHostNames</text>
<polyline fill="none" stroke="black" points="239,-35.5 420,-35.5"/>
<text text-anchor="middle" x="329.5" y="-25.1" font-family="Bitstream Vera Sans" font-size="8.00">+ linkedca.SSHHostNames.dns:string</text>
<text text-anchor="middle" x="329.5" y="-16.1" font-family="Bitstream Vera Sans" font-size="8.00">+ linkedca.SSHHostNames.ips:string</text>
<text text-anchor="middle" x="329.5" y="-7.1" font-family="Bitstream Vera Sans" font-size="8.00">+ linkedca.SSHHostNames.principals:string</text>
</g>
<!-- linkedca.SSHHostPolicy&#45;&gt;linkedca.SSHHostNames -->
<g id="edge7" class="edge">
<title>linkedca.SSHHostPolicy&#45;&gt;linkedca.SSHHostNames</title>
<path fill="none" stroke="black" d="M323.86,-103.14C322.51,-88.28 322.39,-68.06 323.51,-52.26"/>
<text text-anchor="middle" x="321.01" y="-54.86" font-family="Bitstream Vera Sans" font-size="8.00">1</text>
<text text-anchor="middle" x="321.36" y="-96.74" font-family="Bitstream Vera Sans" font-size="8.00">1</text>
</g>
<!-- linkedca.SSHHostPolicy&#45;&gt;linkedca.SSHHostNames -->
<g id="edge8" class="edge">
<title>linkedca.SSHHostPolicy&#45;&gt;linkedca.SSHHostNames</title>
<path fill="none" stroke="black" d="M335.14,-103.14C336.49,-88.28 336.61,-68.06 335.49,-52.26"/>
<text text-anchor="middle" x="332.99" y="-54.86" font-family="Bitstream Vera Sans" font-size="8.00">1</text>
<text text-anchor="middle" x="332.64" y="-96.74" font-family="Bitstream Vera Sans" font-size="8.00">1</text>
</g>
<!-- linkedca.SSHUserNames -->
<g id="node8" class="node">
<title>linkedca.SSHUserNames</title>
<polygon fill="#f2f2f2" stroke="black" points="485,-5 485,-48 666,-48 666,-5 485,-5"/>
<text text-anchor="middle" x="575.5" y="-37.6" font-family="Bitstream Vera Sans" font-size="8.00">linkedca.SSHUserNames</text>
<polyline fill="none" stroke="black" points="485,-31 666,-31"/>
<text text-anchor="middle" x="575.5" y="-20.6" font-family="Bitstream Vera Sans" font-size="8.00">+ linkedca.SSHUserNames.emails:string</text>
<text text-anchor="middle" x="575.5" y="-11.6" font-family="Bitstream Vera Sans" font-size="8.00">+ linkedca.SSHUserNames.principals:string</text>
</g>
<!-- linkedca.SSHUserPolicy&#45;&gt;linkedca.SSHUserNames -->
<g id="edge9" class="edge">
<title>linkedca.SSHUserPolicy&#45;&gt;linkedca.SSHUserNames</title>
<path fill="none" stroke="black" d="M569.86,-103.14C568.38,-86.85 568.38,-64.11 569.87,-47.83"/>
<text text-anchor="middle" x="567.37" y="-50.43" font-family="Bitstream Vera Sans" font-size="8.00">1</text>
<text text-anchor="middle" x="567.36" y="-96.74" font-family="Bitstream Vera Sans" font-size="8.00">1</text>
</g>
<!-- linkedca.SSHUserPolicy&#45;&gt;linkedca.SSHUserNames -->
<g id="edge10" class="edge">
<title>linkedca.SSHUserPolicy&#45;&gt;linkedca.SSHUserNames</title>
<path fill="none" stroke="black" d="M581.14,-103.14C582.62,-86.85 582.62,-64.11 581.13,-47.83"/>
<text text-anchor="middle" x="578.63" y="-50.43" font-family="Bitstream Vera Sans" font-size="8.00">1</text>
<text text-anchor="middle" x="578.64" y="-96.74" font-family="Bitstream Vera Sans" font-size="8.00">1</text>
</g>
</g>
</svg>
