<?xml version="1.0" encoding="UTF-8" standalone="no"?>
<!DOCTYPE svg PUBLIC "-//W3C//DTD SVG 1.1//EN"
 "http://www.w3.org/Graphics/SVG/1.1/DTD/svg11.dtd">
<!-- Generated by graphviz version 7.0.1 (20221109.1506)
 -->
<!-- Title: Protobuf UML class diagram Pages: 1 -->
<svg width="373pt" height="337pt"
 viewBox="0.00 0.00 372.50 337.00" xmlns="http://www.w3.org/2000/svg" xmlns:xlink="http://www.w3.org/1999/xlink">
<g id="graph0" class="graph" transform="scale(1 1) rotate(0) translate(4 333)">
<title>Protobuf UML class diagram</title>
<polygon fill="white" stroke="none" points="-4,4 -4,-333 368.5,-333 368.5,4 -4,4"/>
<!-- Policy -->
<g id="node1" class="node">
<title>Policy</title>
<polygon fill="#f2f2f2" stroke="black" points="86,-285.5 86,-328.5 169,-328.5 169,-285.5 86,-285.5"/>
<text text-anchor="middle" x="127.5" y="-318.1" font-family="Bitstream Vera Sans" font-size="8.00">Policy</text>
<polyline fill="none" stroke="black" points="86,-311.5 169,-311.5"/>
<text text-anchor="middle" x="127.5" y="-301.1" font-family="Bitstream Vera Sans" font-size="8.00">+ x509:X509Policy</text>
<text text-anchor="middle" x="127.5" y="-292.1" font-family="Bitstream Vera Sans" font-size="8.00">+ ssh:SSHPolicy</text>
</g>
<!-- X509Policy -->
<g id="node2" class="node">
<title>X509Policy</title>
<polygon fill="#f2f2f2" stroke="black" points="0,-196.5 0,-248.5 127,-248.5 127,-196.5 0,-196.5"/>
<text text-anchor="middle" x="63.5" y="-238.1" font-family="Bitstream Vera Sans" font-size="8.00">X509Policy</text>
<polyline fill="none" stroke="black" points="0,-231.5 127,-231.5"/>
<text text-anchor="middle" x="63.5" y="-221.1" font-family="Bitstream Vera Sans" font-size="8.00">+ allow:X509Names</text>
<text text-anchor="middle" x="63.5" y="-212.1" font-family="Bitstream Vera Sans" font-size="8.00">+ deny:X509Names</text>
<text text-anchor="middle" x="63.5" y="-203.1" font-family="Bitstream Vera Sans" font-size="8.00">+ allow_wildcard_names:bool</text>
</g>
<!-- Policy&#45;&gt;X509Policy -->
<g id="edge1" class="edge">
<title>Policy&#45;&gt;X509Policy</title>
<path fill="none" stroke="black" d="M111.68,-285.61C102.94,-274.35 92.03,-260.27 82.79,-248.37"/>
<text text-anchor="middle" x="85.29" y="-250.97" font-family="Bitstream Vera Sans" font-size="8.00">1</text>
<text text-anchor="middle" x="109.18" y="-279.21" font-family="Bitstream Vera Sans" font-size="8.00">1</text>
</g>
<!-- SSHPolicy -->
<g id="node3" class="node">
<title>SSHPolicy</title>
<polygon fill="#f2f2f2" stroke="black" points="145,-201 145,-244 240,-244 240,-201 145,-201"/>
<text text-anchor="middle" x="192.5" y="-233.6" font-family="Bitstream Vera Sans" font-size="8.00">SSHPolicy</text>
<polyline fill="none" stroke="black" points="145,-227 240,-227"/>
<text text-anchor="middle" x="192.5" y="-216.6" font-family="Bitstream Vera Sans" font-size="8.00">+ host:SSHHostPolicy</text>
<text text-anchor="middle" x="192.5" y="-207.6" font-family="Bitstream Vera Sans" font-size="8.00">+ user:SSHUserPolicy</text>
</g>
<!-- Policy&#45;&gt;SSHPolicy -->
<g id="edge2" class="edge">
<title>Policy&#45;&gt;SSHPolicy</title>
<path fill="none" stroke="black" d="M143.57,-285.61C153.57,-272.91 166.38,-256.65 176.39,-243.94"/>
<text text-anchor="middle" x="173.89" y="-246.54" font-family="Bitstream Vera Sans" font-size="8.00">1</text>
<text text-anchor="middle" x="141.07" y="-279.21" font-family="Bitstream Vera Sans" font-size="8.00">1</text>
</g>
<!-- X509Names -->
<g id="node6" class="node">
<title>X509Names</title>
<polygon fill="#f2f2f2" stroke="black" points="8.5,-89.5 8.5,-159.5 118.5,-159.5 118.5,-89.5 8.5,-89.5"/>
<text text-anchor="middle" x="63.5" y="-149.1" font-family="Bitstream Vera Sans" font-size="8.00">X509Names</text>
<polyline fill="none" stroke="black" points="8.5,-142.5 118.5,-142.5"/>
<text text-anchor="middle" x="63.5" y="-132.1" font-family="Bitstream Vera Sans" font-size="8.00">+ dns:string</text>
<text text-anchor="middle" x="63.5" y="-123.1" font-family="Bitstream Vera Sans" font-size="8.00">+ ips:string</text>
<text text-anchor="middle" x="63.5" y="-114.1" font-family="Bitstream Vera Sans" font-size="8.00">+ emails:string</text>
<text text-anchor="middle" x="63.5" y="-105.1" font-family="Bitstream Vera Sans" font-size="8.00">+ uris:string</text>
<text text-anchor="middle" x="63.5" y="-96.1" font-family="Bitstream Vera Sans" font-size="8.00">+ common_names:string</text>
</g>
<!-- X509Policy&#45;&gt;X509Names -->
<g id="edge3" class="edge">
<title>X509Policy&#45;&gt;X509Names</title>
<path fill="none" stroke="black" d="M57.49,-196.53C56.7,-185.19 56.54,-171.62 57.02,-159.38"/>
<text text-anchor="middle" x="54.52" y="-161.98" font-family="Bitstream Vera Sans" font-size="8.00">1</text>
<text text-anchor="middle" x="54.99" y="-190.13" font-family="Bitstream Vera Sans" font-size="8.00">1</text>
</g>
<!-- X509Policy&#45;&gt;X509Names -->
<g id="edge4" class="edge">
<title>X509Policy&#45;&gt;X509Names</title>
<path fill="none" stroke="black" d="M69.51,-196.53C70.3,-185.19 70.46,-171.62 69.98,-159.38"/>
<text text-anchor="middle" x="67.48" y="-161.98" font-family="Bitstream Vera Sans" font-size="8.00">1</text>
<text text-anchor="middle" x="67.01" y="-190.13" font-family="Bitstream Vera Sans" font-size="8.00">1</text>
</g>
<!-- SSHHostPolicy -->
<g id="node4" class="node">
<title>SSHHostPolicy</title>
<polygon fill="#f2f2f2" stroke="black" points="138.5,-103 138.5,-146 242.5,-146 242.5,-103 138.5,-103"/>
<text text-anchor="middle" x="190.5" y="-135.6" font-family="Bitstream Vera Sans" font-size="8.00">SSHHostPolicy</text>
<polyline fill="none" stroke="black" points="138.5,-129 242.5,-129"/>
<text text-anchor="middle" x="190.5" y="-118.6" font-family="Bitstream Vera Sans" font-size="8.00">+ allow:SSHHostNames</text>
<text text-anchor="middle" x="190.5" y="-109.6" font-family="Bitstream Vera Sans" font-size="8.00">+ deny:SSHHostNames</text>
</g>
<!-- SSHPolicy&#45;&gt;SSHHostPolicy -->
<g id="edge5" class="edge">
<title>SSHPolicy&#45;&gt;SSHHostPolicy</title>
<path fill="none" stroke="black" d="M192.08,-201.14C191.74,-184.85 191.26,-162.11 190.92,-145.83"/>
<text text-anchor="middle" x="188.42" y="-148.43" font-family="Bitstream Vera Sans" font-size="8.00">1</text>
<text text-anchor="middle" x="189.58" y="-194.74" font-family="Bitstream Vera Sans" font-size="8.00">1</text>
</g>
<!-- SSHUserPolicy -->
<g id="node5" class="node">
<title>SSHUserPolicy</title>
<polygon fill="#f2f2f2" stroke="black" points="260.5,-103 260.5,-146 364.5,-146 364.5,-103 260.5,-103"/>
<text text-anchor="middle" x="312.5" y="-135.6" font-family="Bitstream Vera Sans" font-size="8.00">SSHUserPolicy</text>
<polyline fill="none" stroke="black" points="260.5,-129 364.5,-129"/>
<text text-anchor="middle" x="312.5" y="-118.6" font-family="Bitstream Vera Sans" font-size="8.00">+ allow:SSHUserNames</text>
<text text-anchor="middle" x="312.5" y="-109.6" font-family="Bitstream Vera Sans" font-size="8.00">+ deny:SSHUserNames</text>
</g>
<!-- SSHPolicy&#45;&gt;SSHUserPolicy -->
<g id="edge6" class="edge">
<title>SSHPolicy&#45;&gt;SSHUserPolicy</title>
<path fill="none" stroke="black" d="M217.95,-201.14C238.31,-184.85 266.73,-162.11 287.09,-145.83"/>
<text text-anchor="middle" x="284.59" y="-148.43" font-family="Bitstream Vera Sans" font-size="8.00">1</text>
<text text-anchor="middle" x="215.45" y="-194.74" font-family="Bitstream Vera Sans" font-size="8.00">1</text>
</g>
<!-- SSHHostNames -->
<g id="node7" class="node">
<title>SSHHostNames</title>
<polygon fill="#f2f2f2" stroke="black" points="147.5,-0.5 147.5,-52.5 233.5,-52.5 233.5,-0.5 147.5,-0.5"/>
<text text-anchor="middle" x="190.5" y="-42.1" font-family="Bitstream Vera Sans" font-size="8.00">SSHHostNames</text>
<polyline fill="none" stroke="black" points="147.5,-35.5 233.5,-35.5"/>
<text text-anchor="middle" x="190.5" y="-25.1" font-family="Bitstream Vera Sans" font-size="8.00">+ dns:string</text>
<text text-anchor="middle" x="190.5" y="-16.1" font-family="Bitstream Vera Sans" font-size="8.00">+ ips:string</text>
<text text-anchor="middle" x="190.5" y="-7.1" font-family="Bitstream Vera Sans" font-size="8.00">+ principals:string</text>
</g>
<!-- SSHHostPolicy&#45;&gt;SSHHostNames -->
<g id="edge7" class="edge">
<title>SSHHostPolicy&#45;&gt;SSHHostNames</title>
<path fill="none" stroke="black" d="M184.86,-103.14C183.51,-88.28 183.39,-68.06 184.51,-52.26"/>
<text text-anchor="middle" x="182.01" y="-54.86" font-family="Bitstream Vera Sans" font-size="8.00">1</text>
<text text-anchor="middle" x="182.36" y="-96.74" font-family="Bitstream Vera Sans" font-size="8.00">1</text>
</g>
<!-- SSHHostPolicy&#45;&gt;SSHHostNames -->
<g id="edge8" class="edge">
<title>SSHHostPolicy&#45;&gt;SSHHostNames</title>
<path fill="none" stroke="black" d="M196.14,-103.14C197.49,-88.28 197.61,-68.06 196.49,-52.26"/>
<text text-anchor="middle" x="193.99" y="-54.86" font-family="Bitstream Vera Sans" font-size="8.00">1</text>
<text text-anchor="middle" x="193.64" y="-96.74" font-family="Bitstream Vera Sans" font-size="8.00">1</text>
</g>
<!-- SSHUserNames -->
<g id="node8" class="node">
<title>SSHUserNames</title>
<polygon fill="#f2f2f2" stroke="black" points="269.5,-5 269.5,-48 355.5,-48 355.5,-5 269.5,-5"/>
<text text-anchor="middle" x="312.5" y="-37.6" font-family="Bitstream Vera Sans" font-size="8.00">SSHUserNames</text>
<polyline fill="none" stroke="black" points="269.5,-31 355.5,-31"/>
<text text-anchor="middle" x="312.5" y="-20.6" font-family="Bitstream Vera Sans" font-size="8.00">+ emails:string</text>
<text text-anchor="middle" x="312.5" y="-11.6" font-family="Bitstream Vera Sans" font-size="8.00">+ principals:string</text>
</g>
<!-- SSHUserPolicy&#45;&gt;SSHUserNames -->
<g id="edge9" class="edge">
<title>SSHUserPolicy&#45;&gt;SSHUserNames</title>
<path fill="none" stroke="black" d="M306.86,-103.14C305.38,-86.85 305.38,-64.11 306.87,-47.83"/>
<text text-anchor="middle" x="304.37" y="-50.43" font-family="Bitstream Vera Sans" font-size="8.00">1</text>
<text text-anchor="middle" x="304.36" y="-96.74" font-family="Bitstream Vera Sans" font-size="8.00">1</text>
</g>
<!-- SSHUserPolicy&#45;&gt;SSHUserNames -->
<g id="edge10" class="edge">
<title>SSHUserPolicy&#45;&gt;SSHUserNames</title>
<path fill="none" stroke="black" d="M318.14,-103.14C319.62,-86.85 319.62,-64.11 318.13,-47.83"/>
<text text-anchor="middle" x="315.63" y="-50.43" font-family="Bitstream Vera Sans" font-size="8.00">1</text>
<text text-anchor="middle" x="315.64" y="-96.74" font-family="Bitstream Vera Sans" font-size="8.00">1</text>
</g>
</g>
</svg>
