<?xml version="1.0" encoding="UTF-8" standalone="no"?>
<!DOCTYPE svg PUBLIC "-//W3C//DTD SVG 1.1//EN"
 "http://www.w3.org/Graphics/SVG/1.1/DTD/svg11.dtd">
<!-- Generated by graphviz version 7.0.1 (20221109.1506)
 -->
<!-- Title: Protobuf UML class diagram Pages: 1 -->
<svg width="1996pt" height="696pt"
 viewBox="0.00 0.00 1996.00 696.00" xmlns="http://www.w3.org/2000/svg" xmlns:xlink="http://www.w3.org/1999/xlink">
<g id="graph0" class="graph" transform="scale(1 1) rotate(0) translate(4 692)">
<title>Protobuf UML class diagram</title>
<polygon fill="white" stroke="none" points="-4,4 -4,-692 1992,-692 1992,4 -4,4"/>
<!-- Provisioner -->
<g id="node1" class="node">
<title>Provisioner</title>
<polygon fill="#f2f2f2" stroke="black" points="1636.5,-411.5 1636.5,-544.5 1755.5,-544.5 1755.5,-411.5 1636.5,-411.5"/>
<text text-anchor="middle" x="1696" y="-534.1" font-family="Bitstream Vera Sans" font-size="8.00">Provisioner</text>
<polyline fill="none" stroke="black" points="1636.5,-527.5 1755.5,-527.5"/>
<text text-anchor="middle" x="1696" y="-517.1" font-family="Bitstream Vera Sans" font-size="8.00">+ id:string</text>
<text text-anchor="middle" x="1696" y="-508.1" font-family="Bitstream Vera Sans" font-size="8.00">+ authority_id:string</text>
<text text-anchor="middle" x="1696" y="-499.1" font-family="Bitstream Vera Sans" font-size="8.00">+ type:enum</text>
<text text-anchor="middle" x="1696" y="-490.1" font-family="Bitstream Vera Sans" font-size="8.00">+ name:string</text>
<text text-anchor="middle" x="1696" y="-481.1" font-family="Bitstream Vera Sans" font-size="8.00">+ details:ProvisionerDetails</text>
<text text-anchor="middle" x="1696" y="-472.1" font-family="Bitstream Vera Sans" font-size="8.00">+ claims:Claims</text>
<text text-anchor="middle" x="1696" y="-463.1" font-family="Bitstream Vera Sans" font-size="8.00">+ x509_template:Template</text>
<text text-anchor="middle" x="1696" y="-454.1" font-family="Bitstream Vera Sans" font-size="8.00">+ ssh_template:Template</text>
<text text-anchor="middle" x="1696" y="-445.1" font-family="Bitstream Vera Sans" font-size="8.00">+ created_at:Timestamp</text>
<text text-anchor="middle" x="1696" y="-436.1" font-family="Bitstream Vera Sans" font-size="8.00">+ deleted_at:Timestamp</text>
<text text-anchor="middle" x="1696" y="-427.1" font-family="Bitstream Vera Sans" font-size="8.00">+ policy:Policy</text>
<text text-anchor="middle" x="1696" y="-418.1" font-family="Bitstream Vera Sans" font-size="8.00">+ webhooks:Webhook</text>
</g>
<!-- ProvisionerDetails -->
<g id="node3" class="node">
<title>ProvisionerDetails</title>
<polygon fill="#f2f2f2" stroke="black" points="833.5,-250.5 833.5,-374.5 960.5,-374.5 960.5,-250.5 833.5,-250.5"/>
<text text-anchor="middle" x="897" y="-364.1" font-family="Bitstream Vera Sans" font-size="8.00">ProvisionerDetails</text>
<polyline fill="none" stroke="black" points="833.5,-357.5 960.5,-357.5"/>
<text text-anchor="middle" x="897" y="-347.1" font-family="Bitstream Vera Sans" font-size="8.00">+ JWK:JWKProvisioner</text>
<text text-anchor="middle" x="897" y="-338.1" font-family="Bitstream Vera Sans" font-size="8.00">+ OIDC:OIDCProvisioner</text>
<text text-anchor="middle" x="897" y="-329.1" font-family="Bitstream Vera Sans" font-size="8.00">+ GCP:GCPProvisioner</text>
<text text-anchor="middle" x="897" y="-320.1" font-family="Bitstream Vera Sans" font-size="8.00">+ AWS:AWSProvisioner</text>
<text text-anchor="middle" x="897" y="-311.1" font-family="Bitstream Vera Sans" font-size="8.00">+ Azure:AzureProvisioner</text>
<text text-anchor="middle" x="897" y="-302.1" font-family="Bitstream Vera Sans" font-size="8.00">+ ACME:ACMEProvisioner</text>
<text text-anchor="middle" x="897" y="-293.1" font-family="Bitstream Vera Sans" font-size="8.00">+ X5C:X5CProvisioner</text>
<text text-anchor="middle" x="897" y="-284.1" font-family="Bitstream Vera Sans" font-size="8.00">+ K8sSA:K8sSAProvisioner</text>
<text text-anchor="middle" x="897" y="-275.1" font-family="Bitstream Vera Sans" font-size="8.00">+ SSHPOP:SSHPOPProvisioner</text>
<text text-anchor="middle" x="897" y="-266.1" font-family="Bitstream Vera Sans" font-size="8.00">+ SCEP:SCEPProvisioner</text>
<text text-anchor="middle" x="897" y="-257.1" font-family="Bitstream Vera Sans" font-size="8.00">+ Nebula:NebulaProvisioner</text>
</g>
<!-- Provisioner&#45;&gt;ProvisionerDetails -->
<g id="edge1" class="edge">
<title>Provisioner&#45;&gt;ProvisionerDetails</title>
<path fill="none" stroke="black" d="M1636.6,-464.84C1489.85,-434.82 1111.21,-357.33 960.37,-326.47"/>
<text text-anchor="middle" x="962.87" y="-329.07" font-family="Bitstream Vera Sans" font-size="8.00">1</text>
<text text-anchor="middle" x="1634.1" y="-467.44" font-family="Bitstream Vera Sans" font-size="8.00">1</text>
</g>
<!-- ProvisionerList -->
<g id="node4" class="node">
<title>ProvisionerList</title>
<polygon fill="#f2f2f2" stroke="black" points="1351.5,-294.5 1351.5,-330.5 1464.5,-330.5 1464.5,-294.5 1351.5,-294.5"/>
<text text-anchor="middle" x="1408" y="-319.6" font-family="Bitstream Vera Sans" font-size="8.00">ProvisionerList</text>
<polyline fill="none" stroke="black" points="1351.5,-312.5 1464.5,-312.5"/>
<text text-anchor="middle" x="1408" y="-301.6" font-family="Bitstream Vera Sans" font-size="8.00">+ provisioners:Provisioner</text>
</g>
<!-- Provisioner&#45;&gt;ProvisionerList -->
<g id="edge20" class="edge">
<title>Provisioner&#45;&gt;ProvisionerList</title>
<path fill="none" stroke="black" d="M1636.89,-456.12C1590.26,-438.24 1524.71,-409.87 1473,-375 1458.11,-364.96 1443.41,-351.44 1431.77,-339.64"/>
<polygon fill="none" stroke="black" points="1431.69,-339.56 1424.65,-337.99 1423.39,-330.89 1430.43,-332.46 1431.69,-339.56"/>
<text text-anchor="middle" x="1420.27" y="-332.84" font-family="Bitstream Vera Sans" font-size="8.00">1</text>
<text text-anchor="middle" x="1629.89" y="-449.72" font-family="Bitstream Vera Sans" font-size="8.00">0..*</text>
</g>
<!-- Claims -->
<g id="node5" class="node">
<title>Claims</title>
<polygon fill="#f2f2f2" stroke="black" points="1482.5,-277.5 1482.5,-347.5 1637.5,-347.5 1637.5,-277.5 1482.5,-277.5"/>
<text text-anchor="middle" x="1560" y="-337.1" font-family="Bitstream Vera Sans" font-size="8.00">Claims</text>
<polyline fill="none" stroke="black" points="1482.5,-330.5 1637.5,-330.5"/>
<text text-anchor="middle" x="1560" y="-320.1" font-family="Bitstream Vera Sans" font-size="8.00">+ x509:X509Claims</text>
<text text-anchor="middle" x="1560" y="-311.1" font-family="Bitstream Vera Sans" font-size="8.00">+ ssh:SSHClaims</text>
<text text-anchor="middle" x="1560" y="-302.1" font-family="Bitstream Vera Sans" font-size="8.00">+ disable_renewal:bool</text>
<text text-anchor="middle" x="1560" y="-293.1" font-family="Bitstream Vera Sans" font-size="8.00">+ allow_renewal_after_expiry:bool</text>
<text text-anchor="middle" x="1560" y="-284.1" font-family="Bitstream Vera Sans" font-size="8.00">+ disable_smallstep_extensions:bool</text>
</g>
<!-- Provisioner&#45;&gt;Claims -->
<g id="edge2" class="edge">
<title>Provisioner&#45;&gt;Claims</title>
<path fill="none" stroke="black" d="M1641.86,-411.91C1623.49,-389.83 1603.71,-366.05 1588.19,-347.4"/>
<text text-anchor="middle" x="1585.69" y="-350" font-family="Bitstream Vera Sans" font-size="8.00">1</text>
<text text-anchor="middle" x="1639.36" y="-405.51" font-family="Bitstream Vera Sans" font-size="8.00">1</text>
</g>
<!-- Template -->
<g id="node9" class="node">
<title>Template</title>
<polygon fill="#f2f2f2" stroke="black" points="1656,-291 1656,-334 1736,-334 1736,-291 1656,-291"/>
<text text-anchor="middle" x="1696" y="-323.6" font-family="Bitstream Vera Sans" font-size="8.00">Template</text>
<polyline fill="none" stroke="black" points="1656,-317 1736,-317"/>
<text text-anchor="middle" x="1696" y="-306.6" font-family="Bitstream Vera Sans" font-size="8.00">+ template:bytes</text>
<text text-anchor="middle" x="1696" y="-297.6" font-family="Bitstream Vera Sans" font-size="8.00">+ data:bytes</text>
</g>
<!-- Provisioner&#45;&gt;Template -->
<g id="edge3" class="edge">
<title>Provisioner&#45;&gt;Template</title>
<path fill="none" stroke="black" d="M1689.38,-411.91C1688.95,-383.95 1689.61,-353.27 1691.37,-333.72"/>
<text text-anchor="middle" x="1688.87" y="-336.32" font-family="Bitstream Vera Sans" font-size="8.00">1</text>
<text text-anchor="middle" x="1686.88" y="-405.51" font-family="Bitstream Vera Sans" font-size="8.00">1</text>
</g>
<!-- Provisioner&#45;&gt;Template -->
<g id="edge4" class="edge">
<title>Provisioner&#45;&gt;Template</title>
<path fill="none" stroke="black" d="M1702.62,-411.91C1703.05,-383.95 1702.39,-353.27 1700.63,-333.72"/>
<text text-anchor="middle" x="1698.13" y="-336.32" font-family="Bitstream Vera Sans" font-size="8.00">1</text>
<text text-anchor="middle" x="1700.12" y="-405.51" font-family="Bitstream Vera Sans" font-size="8.00">1</text>
</g>
<!-- Timestamp -->
<g id="node25" class="node">
<title>Timestamp</title>
<polygon fill="#f2f2f2" stroke="black" points="1754.5,-294.5 1754.5,-330.5 1813.5,-330.5 1813.5,-294.5 1754.5,-294.5"/>
<text text-anchor="middle" x="1784" y="-310.6" font-family="Bitstream Vera Sans" font-size="8.00">Timestamp</text>
</g>
<!-- Provisioner&#45;&gt;Timestamp -->
<g id="edge5" class="edge">
<title>Provisioner&#45;&gt;Timestamp</title>
<path fill="none" stroke="black" d="M1724.41,-411.91C1739.87,-382.35 1758.18,-349.74 1770.55,-330.47"/>
<text text-anchor="middle" x="1768.05" y="-333.07" font-family="Bitstream Vera Sans" font-size="8.00">1</text>
<text text-anchor="middle" x="1721.91" y="-405.51" font-family="Bitstream Vera Sans" font-size="8.00">1</text>
</g>
<!-- Provisioner&#45;&gt;Timestamp -->
<g id="edge6" class="edge">
<title>Provisioner&#45;&gt;Timestamp</title>
<path fill="none" stroke="black" d="M1737.66,-411.91C1754.02,-382.35 1770.8,-349.74 1779.18,-330.47"/>
<text text-anchor="middle" x="1776.68" y="-333.07" font-family="Bitstream Vera Sans" font-size="8.00">1</text>
<text text-anchor="middle" x="1735.16" y="-405.51" font-family="Bitstream Vera Sans" font-size="8.00">1</text>
</g>
<!-- Policy -->
<g id="node26" class="node">
<title>Policy</title>
<polygon fill="#f2f2f2" stroke="black" points="1832,-294.5 1832,-330.5 1886,-330.5 1886,-294.5 1832,-294.5"/>
<text text-anchor="middle" x="1859" y="-310.6" font-family="Bitstream Vera Sans" font-size="8.00">Policy</text>
</g>
<!-- Provisioner&#45;&gt;Policy -->
<g id="edge7" class="edge">
<title>Provisioner&#45;&gt;Policy</title>
<path fill="none" stroke="black" d="M1755.18,-419C1758.45,-416.23 1761.73,-413.55 1765,-411 1788.61,-392.55 1801.04,-396.42 1822,-375 1834.81,-361.91 1845.11,-343.57 1851.56,-330.33"/>
<text text-anchor="middle" x="1849.06" y="-332.93" font-family="Bitstream Vera Sans" font-size="8.00">1</text>
<text text-anchor="middle" x="1757.68" y="-421.6" font-family="Bitstream Vera Sans" font-size="8.00">1</text>
</g>
<!-- ProvisionerIdentity -->
<g id="node2" class="node">
<title>ProvisionerIdentity</title>
<polygon fill="#f2f2f2" stroke="black" points="1900,-608.5 1900,-660.5 1988,-660.5 1988,-608.5 1900,-608.5"/>
<text text-anchor="middle" x="1944" y="-650.1" font-family="Bitstream Vera Sans" font-size="8.00">ProvisionerIdentity</text>
<polyline fill="none" stroke="black" points="1900,-643.5 1988,-643.5"/>
<text text-anchor="middle" x="1944" y="-633.1" font-family="Bitstream Vera Sans" font-size="8.00">+ id:string</text>
<text text-anchor="middle" x="1944" y="-624.1" font-family="Bitstream Vera Sans" font-size="8.00">+ type:enum</text>
<text text-anchor="middle" x="1944" y="-615.1" font-family="Bitstream Vera Sans" font-size="8.00">+ name:string</text>
</g>
<!-- JWKProvisioner -->
<g id="node10" class="node">
<title>JWKProvisioner</title>
<polygon fill="#f2f2f2" stroke="black" points="0,-134.5 0,-177.5 130,-177.5 130,-134.5 0,-134.5"/>
<text text-anchor="middle" x="65" y="-167.1" font-family="Bitstream Vera Sans" font-size="8.00">JWKProvisioner</text>
<polyline fill="none" stroke="black" points="0,-160.5 130,-160.5"/>
<text text-anchor="middle" x="65" y="-150.1" font-family="Bitstream Vera Sans" font-size="8.00">+ public_key:bytes</text>
<text text-anchor="middle" x="65" y="-141.1" font-family="Bitstream Vera Sans" font-size="8.00">+ encrypted_private_key:bytes</text>
</g>
<!-- ProvisionerDetails&#45;&gt;JWKProvisioner -->
<g id="edge9" class="edge">
<title>ProvisionerDetails&#45;&gt;JWKProvisioner</title>
<path fill="none" stroke="black" d="M833.7,-307.62C675.14,-297.23 264.68,-265.97 139,-214 118.62,-205.57 99.01,-190.01 85.1,-177.28"/>
<text text-anchor="middle" x="82.6" y="-179.88" font-family="Bitstream Vera Sans" font-size="8.00">1</text>
<text text-anchor="middle" x="831.2" y="-310.22" font-family="Bitstream Vera Sans" font-size="8.00">1</text>
</g>
<!-- OIDCProvisioner -->
<g id="node11" class="node">
<title>OIDCProvisioner</title>
<polygon fill="#f2f2f2" stroke="black" points="148,-98.5 148,-213.5 286,-213.5 286,-98.5 148,-98.5"/>
<text text-anchor="middle" x="217" y="-203.1" font-family="Bitstream Vera Sans" font-size="8.00">OIDCProvisioner</text>
<polyline fill="none" stroke="black" points="148,-196.5 286,-196.5"/>
<text text-anchor="middle" x="217" y="-186.1" font-family="Bitstream Vera Sans" font-size="8.00">+ client_id:string</text>
<text text-anchor="middle" x="217" y="-177.1" font-family="Bitstream Vera Sans" font-size="8.00">+ client_secret:string</text>
<text text-anchor="middle" x="217" y="-168.1" font-family="Bitstream Vera Sans" font-size="8.00">+ configuration_endpoint:string</text>
<text text-anchor="middle" x="217" y="-159.1" font-family="Bitstream Vera Sans" font-size="8.00">+ admins:string</text>
<text text-anchor="middle" x="217" y="-150.1" font-family="Bitstream Vera Sans" font-size="8.00">+ domains:string</text>
<text text-anchor="middle" x="217" y="-141.1" font-family="Bitstream Vera Sans" font-size="8.00">+ groups:string</text>
<text text-anchor="middle" x="217" y="-132.1" font-family="Bitstream Vera Sans" font-size="8.00">+ listen_address:string</text>
<text text-anchor="middle" x="217" y="-123.1" font-family="Bitstream Vera Sans" font-size="8.00">+ tenant_id:string</text>
<text text-anchor="middle" x="217" y="-114.1" font-family="Bitstream Vera Sans" font-size="8.00">+ scopes:string</text>
<text text-anchor="middle" x="217" y="-105.1" font-family="Bitstream Vera Sans" font-size="8.00">+ auth_params:string</text>
</g>
<!-- ProvisionerDetails&#45;&gt;OIDCProvisioner -->
<g id="edge10" class="edge">
<title>ProvisionerDetails&#45;&gt;OIDCProvisioner</title>
<path fill="none" stroke="black" d="M833.71,-310.84C721.04,-307.61 480.12,-291.36 295,-214 291.9,-212.71 288.82,-211.27 285.76,-209.71"/>
<text text-anchor="middle" x="288.26" y="-212.31" font-family="Bitstream Vera Sans" font-size="8.00">1</text>
<text text-anchor="middle" x="831.21" y="-304.44" font-family="Bitstream Vera Sans" font-size="8.00">1</text>
</g>
<!-- GCPProvisioner -->
<g id="node12" class="node">
<title>GCPProvisioner</title>
<polygon fill="#f2f2f2" stroke="black" points="304,-112 304,-200 444,-200 444,-112 304,-112"/>
<text text-anchor="middle" x="374" y="-189.6" font-family="Bitstream Vera Sans" font-size="8.00">GCPProvisioner</text>
<polyline fill="none" stroke="black" points="304,-183 444,-183"/>
<text text-anchor="middle" x="374" y="-172.6" font-family="Bitstream Vera Sans" font-size="8.00">+ service_accounts:string</text>
<text text-anchor="middle" x="374" y="-163.6" font-family="Bitstream Vera Sans" font-size="8.00">+ project_ids:string</text>
<text text-anchor="middle" x="374" y="-154.6" font-family="Bitstream Vera Sans" font-size="8.00">+ disable_custom_sans:bool</text>
<text text-anchor="middle" x="374" y="-145.6" font-family="Bitstream Vera Sans" font-size="8.00">+ disable_trust_on_first_use:bool</text>
<text text-anchor="middle" x="374" y="-136.6" font-family="Bitstream Vera Sans" font-size="8.00">+ instance_age:string</text>
<text text-anchor="middle" x="374" y="-127.6" font-family="Bitstream Vera Sans" font-size="8.00">+ disable_ssh_ca_user:bool</text>
<text text-anchor="middle" x="374" y="-118.6" font-family="Bitstream Vera Sans" font-size="8.00">+ disable_ssh_ca_host:bool</text>
</g>
<!-- ProvisionerDetails&#45;&gt;GCPProvisioner -->
<g id="edge11" class="edge">
<title>ProvisionerDetails&#45;&gt;GCPProvisioner</title>
<path fill="none" stroke="black" d="M833.8,-305.79C745.34,-296.02 581.05,-271.28 453,-214 444.35,-210.13 435.71,-205.23 427.48,-199.93"/>
<text text-anchor="middle" x="424.98" y="-202.53" font-family="Bitstream Vera Sans" font-size="8.00">1</text>
<text text-anchor="middle" x="831.3" y="-299.39" font-family="Bitstream Vera Sans" font-size="8.00">1</text>
</g>
<!-- AWSProvisioner -->
<g id="node13" class="node">
<title>AWSProvisioner</title>
<polygon fill="#f2f2f2" stroke="black" points="462,-125.5 462,-186.5 602,-186.5 602,-125.5 462,-125.5"/>
<text text-anchor="middle" x="532" y="-176.1" font-family="Bitstream Vera Sans" font-size="8.00">AWSProvisioner</text>
<polyline fill="none" stroke="black" points="462,-169.5 602,-169.5"/>
<text text-anchor="middle" x="532" y="-159.1" font-family="Bitstream Vera Sans" font-size="8.00">+ accounts:string</text>
<text text-anchor="middle" x="532" y="-150.1" font-family="Bitstream Vera Sans" font-size="8.00">+ disable_custom_sans:bool</text>
<text text-anchor="middle" x="532" y="-141.1" font-family="Bitstream Vera Sans" font-size="8.00">+ disable_trust_on_first_use:bool</text>
<text text-anchor="middle" x="532" y="-132.1" font-family="Bitstream Vera Sans" font-size="8.00">+ instance_age:string</text>
</g>
<!-- ProvisionerDetails&#45;&gt;AWSProvisioner -->
<g id="edge12" class="edge">
<title>ProvisionerDetails&#45;&gt;AWSProvisioner</title>
<path fill="none" stroke="black" d="M833.74,-295.76C774.3,-279.64 683.83,-251.62 611,-214 596.12,-206.32 580.94,-196.05 567.91,-186.35"/>
<text text-anchor="middle" x="565.41" y="-188.95" font-family="Bitstream Vera Sans" font-size="8.00">1</text>
<text text-anchor="middle" x="831.24" y="-289.36" font-family="Bitstream Vera Sans" font-size="8.00">1</text>
</g>
<!-- AzureProvisioner -->
<g id="node14" class="node">
<title>AzureProvisioner</title>
<polygon fill="#f2f2f2" stroke="black" points="620,-112 620,-200 760,-200 760,-112 620,-112"/>
<text text-anchor="middle" x="690" y="-189.6" font-family="Bitstream Vera Sans" font-size="8.00">AzureProvisioner</text>
<polyline fill="none" stroke="black" points="620,-183 760,-183"/>
<text text-anchor="middle" x="690" y="-172.6" font-family="Bitstream Vera Sans" font-size="8.00">+ tenant_id:string</text>
<text text-anchor="middle" x="690" y="-163.6" font-family="Bitstream Vera Sans" font-size="8.00">+ resource_groups:string</text>
<text text-anchor="middle" x="690" y="-154.6" font-family="Bitstream Vera Sans" font-size="8.00">+ audience:string</text>
<text text-anchor="middle" x="690" y="-145.6" font-family="Bitstream Vera Sans" font-size="8.00">+ disable_custom_sans:bool</text>
<text text-anchor="middle" x="690" y="-136.6" font-family="Bitstream Vera Sans" font-size="8.00">+ disable_trust_on_first_use:bool</text>
<text text-anchor="middle" x="690" y="-127.6" font-family="Bitstream Vera Sans" font-size="8.00">+ subscription_ids:string</text>
<text text-anchor="middle" x="690" y="-118.6" font-family="Bitstream Vera Sans" font-size="8.00">+ object_ids:string</text>
</g>
<!-- ProvisionerDetails&#45;&gt;AzureProvisioner -->
<g id="edge13" class="edge">
<title>ProvisionerDetails&#45;&gt;AzureProvisioner</title>
<path fill="none" stroke="black" d="M833.77,-264.31C806.3,-243.81 774.36,-219.96 747.56,-199.96"/>
<text text-anchor="middle" x="745.06" y="-202.56" font-family="Bitstream Vera Sans" font-size="8.00">1</text>
<text text-anchor="middle" x="831.27" y="-266.91" font-family="Bitstream Vera Sans" font-size="8.00">1</text>
</g>
<!-- ACMEProvisioner -->
<g id="node15" class="node">
<title>ACMEProvisioner</title>
<polygon fill="#f2f2f2" stroke="black" points="778,-107.5 778,-204.5 900,-204.5 900,-107.5 778,-107.5"/>
<text text-anchor="middle" x="839" y="-194.1" font-family="Bitstream Vera Sans" font-size="8.00">ACMEProvisioner</text>
<polyline fill="none" stroke="black" points="778,-187.5 900,-187.5"/>
<text text-anchor="middle" x="839" y="-177.1" font-family="Bitstream Vera Sans" font-size="8.00">+ force_cn:bool</text>
<text text-anchor="middle" x="839" y="-168.1" font-family="Bitstream Vera Sans" font-size="8.00">+ require_eab:bool</text>
<text text-anchor="middle" x="839" y="-159.1" font-family="Bitstream Vera Sans" font-size="8.00">+ challenges:enum</text>
<text text-anchor="middle" x="839" y="-150.1" font-family="Bitstream Vera Sans" font-size="8.00">+ attestation_formats:enum</text>
<text text-anchor="middle" x="839" y="-141.1" font-family="Bitstream Vera Sans" font-size="8.00">+ attestation_roots:bytes</text>
<text text-anchor="middle" x="839" y="-132.1" font-family="Bitstream Vera Sans" font-size="8.00">+ terms_of_service:string</text>
<text text-anchor="middle" x="839" y="-123.1" font-family="Bitstream Vera Sans" font-size="8.00">+ website:string</text>
<text text-anchor="middle" x="839" y="-114.1" font-family="Bitstream Vera Sans" font-size="8.00">+ caa_identities:string</text>
</g>
<!-- ProvisionerDetails&#45;&gt;ACMEProvisioner -->
<g id="edge14" class="edge">
<title>ProvisionerDetails&#45;&gt;ACMEProvisioner</title>
<path fill="none" stroke="black" d="M874.24,-250.88C868.4,-235.33 862.21,-218.83 856.67,-204.07"/>
<text text-anchor="middle" x="854.17" y="-206.67" font-family="Bitstream Vera Sans" font-size="8.00">1</text>
<text text-anchor="middle" x="871.74" y="-244.48" font-family="Bitstream Vera Sans" font-size="8.00">1</text>
</g>
<!-- X5CProvisioner -->
<g id="node16" class="node">
<title>X5CProvisioner</title>
<polygon fill="#f2f2f2" stroke="black" points="918,-138 918,-174 990,-174 990,-138 918,-138"/>
<text text-anchor="middle" x="954" y="-163.1" font-family="Bitstream Vera Sans" font-size="8.00">X5CProvisioner</text>
<polyline fill="none" stroke="black" points="918,-156 990,-156"/>
<text text-anchor="middle" x="954" y="-145.1" font-family="Bitstream Vera Sans" font-size="8.00">+ roots:bytes</text>
</g>
<!-- ProvisionerDetails&#45;&gt;X5CProvisioner -->
<g id="edge15" class="edge">
<title>ProvisionerDetails&#45;&gt;X5CProvisioner</title>
<path fill="none" stroke="black" d="M919.36,-250.88C929.59,-223.15 940.93,-192.42 947.76,-173.92"/>
<text text-anchor="middle" x="945.26" y="-176.52" font-family="Bitstream Vera Sans" font-size="8.00">1</text>
<text text-anchor="middle" x="916.86" y="-244.48" font-family="Bitstream Vera Sans" font-size="8.00">1</text>
</g>
<!-- K8sSAProvisioner -->
<g id="node17" class="node">
<title>K8sSAProvisioner</title>
<polygon fill="#f2f2f2" stroke="black" points="1008.5,-138 1008.5,-174 1097.5,-174 1097.5,-138 1008.5,-138"/>
<text text-anchor="middle" x="1053" y="-163.1" font-family="Bitstream Vera Sans" font-size="8.00">K8sSAProvisioner</text>
<polyline fill="none" stroke="black" points="1008.5,-156 1097.5,-156"/>
<text text-anchor="middle" x="1053" y="-145.1" font-family="Bitstream Vera Sans" font-size="8.00">+ public_keys:bytes</text>
</g>
<!-- ProvisionerDetails&#45;&gt;K8sSAProvisioner -->
<g id="edge16" class="edge">
<title>ProvisionerDetails&#45;&gt;K8sSAProvisioner</title>
<path fill="none" stroke="black" d="M960.32,-251.91C973.23,-239.5 986.64,-226.41 999,-214 1012.27,-200.67 1026.93,-185.15 1037.62,-173.67"/>
<text text-anchor="middle" x="1035.12" y="-176.27" font-family="Bitstream Vera Sans" font-size="8.00">1</text>
<text text-anchor="middle" x="962.82" y="-254.51" font-family="Bitstream Vera Sans" font-size="8.00">1</text>
</g>
<!-- SSHPOPProvisioner -->
<g id="node18" class="node">
<title>SSHPOPProvisioner</title>
<polygon fill="#f2f2f2" stroke="black" points="1116,-138 1116,-174 1204,-174 1204,-138 1116,-138"/>
<text text-anchor="middle" x="1160" y="-163.1" font-family="Bitstream Vera Sans" font-size="8.00">SSHPOPProvisioner</text>
<polyline fill="none" stroke="black" points="1116,-156 1204,-156"/>
<text text-anchor="middle" x="1160" y="-145.1" font-family="Bitstream Vera Sans" font-size="8.00"> </text>
</g>
<!-- ProvisionerDetails&#45;&gt;SSHPOPProvisioner -->
<g id="edge17" class="edge">
<title>ProvisionerDetails&#45;&gt;SSHPOPProvisioner</title>
<path fill="none" stroke="black" d="M960.24,-289.23C1003.53,-272.3 1061.01,-246.42 1106,-214 1121.81,-202.6 1136.81,-186.15 1146.97,-173.85"/>
<text text-anchor="middle" x="1144.47" y="-176.45" font-family="Bitstream Vera Sans" font-size="8.00">1</text>
<text text-anchor="middle" x="962.74" y="-282.83" font-family="Bitstream Vera Sans" font-size="8.00">1</text>
</g>
<!-- SCEPProvisioner -->
<g id="node20" class="node">
<title>SCEPProvisioner</title>
<polygon fill="#f2f2f2" stroke="black" points="1222.5,-107.5 1222.5,-204.5 1387.5,-204.5 1387.5,-107.5 1222.5,-107.5"/>
<text text-anchor="middle" x="1305" y="-194.1" font-family="Bitstream Vera Sans" font-size="8.00">SCEPProvisioner</text>
<polyline fill="none" stroke="black" points="1222.5,-187.5 1387.5,-187.5"/>
<text text-anchor="middle" x="1305" y="-177.1" font-family="Bitstream Vera Sans" font-size="8.00">+ force_cn:bool</text>
<text text-anchor="middle" x="1305" y="-168.1" font-family="Bitstream Vera Sans" font-size="8.00">+ challenge:string</text>
<text text-anchor="middle" x="1305" y="-159.1" font-family="Bitstream Vera Sans" font-size="8.00">+ capabilities:string</text>
<text text-anchor="middle" x="1305" y="-150.1" font-family="Bitstream Vera Sans" font-size="8.00">+ minimum_public_key_length:int32</text>
<text text-anchor="middle" x="1305" y="-141.1" font-family="Bitstream Vera Sans" font-size="8.00">+ include_root:bool</text>
<text text-anchor="middle" x="1305" y="-132.1" font-family="Bitstream Vera Sans" font-size="8.00">+ encryption_algorithm_identifier:int32</text>
<text text-anchor="middle" x="1305" y="-123.1" font-family="Bitstream Vera Sans" font-size="8.00">+ decrypter:SCEPDecrypter</text>
<text text-anchor="middle" x="1305" y="-114.1" font-family="Bitstream Vera Sans" font-size="8.00">+ exclude_intermediate:bool</text>
</g>
<!-- ProvisionerDetails&#45;&gt;SCEPProvisioner -->
<g id="edge18" class="edge">
<title>ProvisionerDetails&#45;&gt;SCEPProvisioner</title>
<path fill="none" stroke="black" d="M960.49,-297C1025.57,-280.97 1128.86,-252.28 1213,-214 1219.33,-211.12 1225.75,-207.88 1232.1,-204.45"/>
<text text-anchor="middle" x="1229.6" y="-207.05" font-family="Bitstream Vera Sans" font-size="8.00">1</text>
<text text-anchor="middle" x="962.99" y="-299.6" font-family="Bitstream Vera Sans" font-size="8.00">1</text>
</g>
<!-- NebulaProvisioner -->
<g id="node21" class="node">
<title>NebulaProvisioner</title>
<polygon fill="#f2f2f2" stroke="black" points="1406,-138 1406,-174 1492,-174 1492,-138 1406,-138"/>
<text text-anchor="middle" x="1449" y="-163.1" font-family="Bitstream Vera Sans" font-size="8.00">NebulaProvisioner</text>
<polyline fill="none" stroke="black" points="1406,-156 1492,-156"/>
<text text-anchor="middle" x="1449" y="-145.1" font-family="Bitstream Vera Sans" font-size="8.00">+ roots:bytes</text>
</g>
<!-- ProvisionerDetails&#45;&gt;NebulaProvisioner -->
<g id="edge19" class="edge">
<title>ProvisionerDetails&#45;&gt;NebulaProvisioner</title>
<path fill="none" stroke="black" d="M960.33,-311.41C1059.43,-308.67 1254.43,-292.7 1396,-214 1413.36,-204.35 1428.26,-186.99 1437.8,-173.95"/>
<text text-anchor="middle" x="1435.3" y="-176.55" font-family="Bitstream Vera Sans" font-size="8.00">1</text>
<text text-anchor="middle" x="962.83" y="-314.01" font-family="Bitstream Vera Sans" font-size="8.00">1</text>
</g>
<!-- X509Claims -->
<g id="node6" class="node">
<title>X509Claims</title>
<polygon fill="#f2f2f2" stroke="black" points="1510,-134.5 1510,-177.5 1610,-177.5 1610,-134.5 1510,-134.5"/>
<text text-anchor="middle" x="1560" y="-167.1" font-family="Bitstream Vera Sans" font-size="8.00">X509Claims</text>
<polyline fill="none" stroke="black" points="1510,-160.5 1610,-160.5"/>
<text text-anchor="middle" x="1560" y="-150.1" font-family="Bitstream Vera Sans" font-size="8.00">+ enabled:bool</text>
<text text-anchor="middle" x="1560" y="-141.1" font-family="Bitstream Vera Sans" font-size="8.00">+ durations:Durations</text>
</g>
<!-- Claims&#45;&gt;X509Claims -->
<g id="edge21" class="edge">
<title>Claims&#45;&gt;X509Claims</title>
<path fill="none" stroke="black" d="M1560,-277.59C1560,-246.86 1560,-202.59 1560,-177.12"/>
<text text-anchor="middle" x="1557.5" y="-179.72" font-family="Bitstream Vera Sans" font-size="8.00">1</text>
<text text-anchor="middle" x="1557.5" y="-271.19" font-family="Bitstream Vera Sans" font-size="8.00">1</text>
</g>
<!-- SSHClaims -->
<g id="node7" class="node">
<title>SSHClaims</title>
<polygon fill="#f2f2f2" stroke="black" points="1628,-130 1628,-182 1748,-182 1748,-130 1628,-130"/>
<text text-anchor="middle" x="1688" y="-171.6" font-family="Bitstream Vera Sans" font-size="8.00">SSHClaims</text>
<polyline fill="none" stroke="black" points="1628,-165 1748,-165"/>
<text text-anchor="middle" x="1688" y="-154.6" font-family="Bitstream Vera Sans" font-size="8.00">+ enabled:bool</text>
<text text-anchor="middle" x="1688" y="-145.6" font-family="Bitstream Vera Sans" font-size="8.00">+ user_durations:Durations</text>
<text text-anchor="middle" x="1688" y="-136.6" font-family="Bitstream Vera Sans" font-size="8.00">+ host_durations:Durations</text>
</g>
<!-- Claims&#45;&gt;SSHClaims -->
<g id="edge22" class="edge">
<title>Claims&#45;&gt;SSHClaims</title>
<path fill="none" stroke="black" d="M1588.09,-277.59C1612.08,-248.64 1646.03,-207.66 1667.52,-181.72"/>
<text text-anchor="middle" x="1665.02" y="-184.32" font-family="Bitstream Vera Sans" font-size="8.00">1</text>
<text text-anchor="middle" x="1585.59" y="-271.19" font-family="Bitstream Vera Sans" font-size="8.00">1</text>
</g>
<!-- Durations -->
<g id="node8" class="node">
<title>Durations</title>
<polygon fill="#f2f2f2" stroke="black" points="1650,-5 1650,-57 1726,-57 1726,-5 1650,-5"/>
<text text-anchor="middle" x="1688" y="-46.6" font-family="Bitstream Vera Sans" font-size="8.00">Durations</text>
<polyline fill="none" stroke="black" points="1650,-40 1726,-40"/>
<text text-anchor="middle" x="1688" y="-29.6" font-family="Bitstream Vera Sans" font-size="8.00">+ default:string</text>
<text text-anchor="middle" x="1688" y="-20.6" font-family="Bitstream Vera Sans" font-size="8.00">+ min:string</text>
<text text-anchor="middle" x="1688" y="-11.6" font-family="Bitstream Vera Sans" font-size="8.00">+ max:string</text>
</g>
<!-- X509Claims&#45;&gt;Durations -->
<g id="edge23" class="edge">
<title>X509Claims&#45;&gt;Durations</title>
<path fill="none" stroke="black" d="M1581,-134.66C1592.26,-123.77 1606.37,-110.14 1619,-98 1633.22,-84.33 1649.13,-69.11 1662.09,-56.73"/>
<text text-anchor="middle" x="1659.59" y="-59.33" font-family="Bitstream Vera Sans" font-size="8.00">1</text>
<text text-anchor="middle" x="1578.5" y="-128.26" font-family="Bitstream Vera Sans" font-size="8.00">1</text>
</g>
<!-- SSHClaims&#45;&gt;Durations -->
<g id="edge24" class="edge">
<title>SSHClaims&#45;&gt;Durations</title>
<path fill="none" stroke="black" d="M1682.45,-130.11C1680.85,-108.77 1680.85,-78.18 1682.45,-56.85"/>
<text text-anchor="middle" x="1679.95" y="-59.45" font-family="Bitstream Vera Sans" font-size="8.00">1</text>
<text text-anchor="middle" x="1679.95" y="-123.71" font-family="Bitstream Vera Sans" font-size="8.00">1</text>
</g>
<!-- SSHClaims&#45;&gt;Durations -->
<g id="edge25" class="edge">
<title>SSHClaims&#45;&gt;Durations</title>
<path fill="none" stroke="black" d="M1693.55,-130.11C1695.15,-108.77 1695.15,-78.18 1693.55,-56.85"/>
<text text-anchor="middle" x="1691.05" y="-59.45" font-family="Bitstream Vera Sans" font-size="8.00">1</text>
<text text-anchor="middle" x="1691.05" y="-123.71" font-family="Bitstream Vera Sans" font-size="8.00">1</text>
</g>
<!-- SCEPDecrypter -->
<g id="node19" class="node">
<title>SCEPDecrypter</title>
<polygon fill="#f2f2f2" stroke="black" points="1256,-0.5 1256,-61.5 1354,-61.5 1354,-0.5 1256,-0.5"/>
<text text-anchor="middle" x="1305" y="-51.1" font-family="Bitstream Vera Sans" font-size="8.00">SCEPDecrypter</text>
<polyline fill="none" stroke="black" points="1256,-44.5 1354,-44.5"/>
<text text-anchor="middle" x="1305" y="-34.1" font-family="Bitstream Vera Sans" font-size="8.00">+ certificate:bytes</text>
<text text-anchor="middle" x="1305" y="-25.1" font-family="Bitstream Vera Sans" font-size="8.00">+ key:bytes</text>
<text text-anchor="middle" x="1305" y="-16.1" font-family="Bitstream Vera Sans" font-size="8.00">+ key_uri:string</text>
<text text-anchor="middle" x="1305" y="-7.1" font-family="Bitstream Vera Sans" font-size="8.00">+ key_password:bytes</text>
</g>
<!-- SCEPProvisioner&#45;&gt;SCEPDecrypter -->
<g id="edge26" class="edge">
<title>SCEPProvisioner&#45;&gt;SCEPDecrypter</title>
<path fill="none" stroke="black" d="M1305,-107.8C1305,-92.21 1305,-75.34 1305,-61.47"/>
<text text-anchor="middle" x="1302.5" y="-64.07" font-family="Bitstream Vera Sans" font-size="8.00">1</text>
<text text-anchor="middle" x="1302.5" y="-101.4" font-family="Bitstream Vera Sans" font-size="8.00">1</text>
</g>
<!-- BasicAuth -->
<g id="node22" class="node">
<title>BasicAuth</title>
<polygon fill="#f2f2f2" stroke="black" points="1774,-456.5 1774,-499.5 1860,-499.5 1860,-456.5 1774,-456.5"/>
<text text-anchor="middle" x="1817" y="-489.1" font-family="Bitstream Vera Sans" font-size="8.00">BasicAuth</text>
<polyline fill="none" stroke="black" points="1774,-482.5 1860,-482.5"/>
<text text-anchor="middle" x="1817" y="-472.1" font-family="Bitstream Vera Sans" font-size="8.00">+ username:string</text>
<text text-anchor="middle" x="1817" y="-463.1" font-family="Bitstream Vera Sans" font-size="8.00">+ password:string</text>
</g>
<!-- BearerToken -->
<g id="node23" class="node">
<title>BearerToken</title>
<polygon fill="#f2f2f2" stroke="black" points="1878,-460 1878,-496 1976,-496 1976,-460 1878,-460"/>
<text text-anchor="middle" x="1927" y="-485.1" font-family="Bitstream Vera Sans" font-size="8.00">BearerToken</text>
<polyline fill="none" stroke="black" points="1878,-478 1976,-478"/>
<text text-anchor="middle" x="1927" y="-467.1" font-family="Bitstream Vera Sans" font-size="8.00">+ bearer_token:string</text>
</g>
<!-- Webhook -->
<g id="node24" class="node">
<title>Webhook</title>
<polygon fill="#f2f2f2" stroke="black" points="1752.5,-581.5 1752.5,-687.5 1881.5,-687.5 1881.5,-581.5 1752.5,-581.5"/>
<text text-anchor="middle" x="1817" y="-677.1" font-family="Bitstream Vera Sans" font-size="8.00">Webhook</text>
<polyline fill="none" stroke="black" points="1752.5,-670.5 1881.5,-670.5"/>
<text text-anchor="middle" x="1817" y="-660.1" font-family="Bitstream Vera Sans" font-size="8.00">+ name:string</text>
<text text-anchor="middle" x="1817" y="-651.1" font-family="Bitstream Vera Sans" font-size="8.00">+ id:string</text>
<text text-anchor="middle" x="1817" y="-642.1" font-family="Bitstream Vera Sans" font-size="8.00">+ url:string</text>
<text text-anchor="middle" x="1817" y="-633.1" font-family="Bitstream Vera Sans" font-size="8.00">+ kind:enum</text>
<text text-anchor="middle" x="1817" y="-624.1" font-family="Bitstream Vera Sans" font-size="8.00">+ secret:string</text>
<text text-anchor="middle" x="1817" y="-615.1" font-family="Bitstream Vera Sans" font-size="8.00">+ bearer_token:BearerToken</text>
<text text-anchor="middle" x="1817" y="-606.1" font-family="Bitstream Vera Sans" font-size="8.00">+ basic_auth:BasicAuth</text>
<text text-anchor="middle" x="1817" y="-597.1" font-family="Bitstream Vera Sans" font-size="8.00">+ disable_tls_client_auth:bool</text>
<text text-anchor="middle" x="1817" y="-588.1" font-family="Bitstream Vera Sans" font-size="8.00">+ cert_type:enum</text>
</g>
<!-- Webhook&#45;&gt;Provisioner -->
<g id="edge8" class="edge">
<title>Webhook&#45;&gt;Provisioner</title>
<path fill="none" stroke="black" d="M1776.37,-581.62C1769.59,-572.96 1762.43,-563.82 1755.29,-554.71"/>
<polygon fill="none" stroke="black" points="1755.22,-554.62 1748.37,-552.36 1747.82,-545.17 1754.67,-547.43 1755.22,-554.62"/>
<text text-anchor="middle" x="1744.77" y="-547.06" font-family="Bitstream Vera Sans" font-size="8.00">1</text>
<text text-anchor="middle" x="1769.37" y="-575.22" font-family="Bitstream Vera Sans" font-size="8.00">0..*</text>
</g>
<!-- Webhook&#45;&gt;BasicAuth -->
<g id="edge28" class="edge">
<title>Webhook&#45;&gt;BasicAuth</title>
<path fill="none" stroke="black" d="M1817,-581.62C1817,-553.4 1817,-520.08 1817,-499.25"/>
<text text-anchor="middle" x="1814.5" y="-501.85" font-family="Bitstream Vera Sans" font-size="8.00">1</text>
<text text-anchor="middle" x="1814.5" y="-575.22" font-family="Bitstream Vera Sans" font-size="8.00">1</text>
</g>
<!-- Webhook&#45;&gt;BearerToken -->
<g id="edge27" class="edge">
<title>Webhook&#45;&gt;BearerToken</title>
<path fill="none" stroke="black" d="M1853.93,-581.62C1875.16,-551.82 1900.41,-516.34 1914.99,-495.87"/>
<text text-anchor="middle" x="1912.49" y="-498.47" font-family="Bitstream Vera Sans" font-size="8.00">1</text>
<text text-anchor="middle" x="1851.43" y="-575.22" font-family="Bitstream Vera Sans" font-size="8.00">1</text>
</g>
</g>
</svg>
