<?xml version="1.0" encoding="UTF-8" standalone="no"?>
<!DOCTYPE svg PUBLIC "-//W3C//DTD SVG 1.1//EN"
 "http://www.w3.org/Graphics/SVG/1.1/DTD/svg11.dtd">
<!-- Generated by graphviz version 12.2.1 (0)
 -->
<!-- Title: Guix package Pages: 1 -->
<svg width="2264pt" height="260pt"
 viewBox="0.00 0.00 2264.00 260.00" xmlns="http://www.w3.org/2000/svg" xmlns:xlink="http://www.w3.org/1999/xlink">
<g id="graph0" class="graph" transform="scale(1 1) rotate(0) translate(4 256)">
<title>Guix package</title>
<polygon fill="white" stroke="none" points="-4,4 -4,-256 2260,-256 2260,4 -4,4"/>
<!-- 140699779231168 -->
<g id="node1" class="node">
<title>140699779231168</title>
<polygon fill="none" stroke="black" points="615.62,-252 430.88,-252 430.88,-216 615.62,-216 615.62,-252"/>
<text text-anchor="middle" x="523.25" y="-230.45" font-family="sans" font-size="14.00">axoloti&#45;runtime@1.0.12&#45;2</text>
</g>
<!-- 140699799102848 -->
<g id="node2" class="node">
<title>140699799102848</title>
<polygon fill="none" stroke="black" points="192.12,-180 106.38,-180 106.38,-144 192.12,-144 192.12,-180"/>
<text text-anchor="middle" x="149.25" y="-158.45" font-family="sans" font-size="14.00">unzip@6.0</text>
</g>
<!-- 140699779231168&#45;&gt;140699799102848 -->
<g id="edge1" class="edge">
<title>140699779231168&#45;&gt;140699799102848</title>
<path fill="none" stroke="magenta" d="M430.45,-218C370.82,-208.04 291.78,-194.21 222.25,-180 216.19,-178.76 209.87,-177.4 203.59,-176"/>
<polygon fill="magenta" stroke="magenta" points="204.4,-172.59 193.87,-173.79 202.85,-179.42 204.4,-172.59"/>
</g>
<!-- 140699783552272 -->
<g id="node3" class="node">
<title>140699783552272</title>
<polygon fill="none" stroke="black" points="837.75,-180 740.75,-180 740.75,-144 837.75,-144 837.75,-180"/>
<text text-anchor="middle" x="789.25" y="-158.45" font-family="sans" font-size="14.00">make@4.4.1</text>
</g>
<!-- 140699779231168&#45;&gt;140699783552272 -->
<g id="edge2" class="edge">
<title>140699779231168&#45;&gt;140699783552272</title>
<path fill="none" stroke="magenta" d="M595.02,-215.58C632.68,-206.26 679.81,-194.31 729.5,-180.71"/>
<polygon fill="magenta" stroke="magenta" points="730.3,-184.12 739.01,-178.09 728.44,-177.37 730.3,-184.12"/>
</g>
<!-- 140699779228528 -->
<g id="node4" class="node">
<title>140699779228528</title>
<polygon fill="none" stroke="black" points="559.62,-180 230.88,-180 230.88,-144 559.62,-144 559.62,-180"/>
<text text-anchor="middle" x="395.25" y="-158.45" font-family="sans" font-size="14.00">arm&#45;none&#45;eabi&#45;nano&#45;toolchain@4.9.4&#45;1.227977</text>
</g>
<!-- 140699779231168&#45;&gt;140699779228528 -->
<g id="edge3" class="edge">
<title>140699779231168&#45;&gt;140699779228528</title>
<path fill="none" stroke="magenta" d="M491.28,-215.52C474.82,-206.51 454.54,-195.42 436.87,-185.76"/>
<polygon fill="magenta" stroke="magenta" points="438.59,-182.71 428.14,-180.99 435.23,-188.86 438.59,-182.71"/>
</g>
<!-- 140699779231344 -->
<g id="node5" class="node">
<title>140699779231344</title>
<polygon fill="none" stroke="black" points="723.12,-180 577.38,-180 577.38,-144 723.12,-144 723.12,-180"/>
<text text-anchor="middle" x="650.25" y="-158.45" font-family="sans" font-size="14.00">axoloti&#45;dfu&#45;util@0.8</text>
</g>
<!-- 140699779231168&#45;&gt;140699779231344 -->
<g id="edge4" class="edge">
<title>140699779231168&#45;&gt;140699779231344</title>
<path fill="none" stroke="magenta" d="M554.97,-215.52C571.31,-206.51 591.42,-195.42 608.96,-185.76"/>
<polygon fill="magenta" stroke="magenta" points="610.54,-188.88 617.61,-180.99 607.16,-182.75 610.54,-188.88"/>
</g>
<!-- 140699799101216 -->
<g id="node6" class="node">
<title>140699799101216</title>
<polygon fill="none" stroke="black" points="147.38,-108 51.12,-108 51.12,-72 147.38,-72 147.38,-108"/>
<text text-anchor="middle" x="99.25" y="-86.45" font-family="sans" font-size="14.00">bzip2@1.0.8</text>
</g>
<!-- 140699799102848&#45;&gt;140699799101216 -->
<g id="edge5" class="edge">
<title>140699799102848&#45;&gt;140699799101216</title>
<path fill="none" stroke="darkseagreen" d="M136.89,-143.7C131.2,-135.73 124.32,-126.1 118.01,-117.26"/>
<polygon fill="darkseagreen" stroke="darkseagreen" points="121.01,-115.44 112.35,-109.34 115.31,-119.51 121.01,-115.44"/>
</g>
<!-- 140700053327472 -->
<g id="node7" class="node">
<title>140700053327472</title>
<polygon fill="none" stroke="black" points="668.38,-36 530.12,-36 530.12,0 668.38,0 668.38,-36"/>
<text text-anchor="middle" x="599.25" y="-14.45" font-family="sans" font-size="14.00">pkg&#45;config@0.29.2</text>
</g>
<!-- 140699783552272&#45;&gt;140700053327472 -->
<g id="edge6" class="edge">
<title>140699783552272&#45;&gt;140700053327472</title>
<path fill="none" stroke="magenta" d="M784.23,-143.54C777.67,-123.64 764.32,-91.36 742.25,-72 724.46,-56.4 701.66,-45.23 679.52,-37.3"/>
<polygon fill="magenta" stroke="magenta" points="680.76,-34.03 670.16,-34.15 678.52,-40.66 680.76,-34.03"/>
</g>
<!-- 140699803929696 -->
<g id="node8" class="node">
<title>140699803929696</title>
<polygon fill="none" stroke="black" points="921.25,-108 827.25,-108 827.25,-72 921.25,-72 921.25,-108"/>
<text text-anchor="middle" x="874.25" y="-86.45" font-family="sans" font-size="14.00">guile@3.0.9</text>
</g>
<!-- 140699783552272&#45;&gt;140699803929696 -->
<g id="edge7" class="edge">
<title>140699783552272&#45;&gt;140699803929696</title>
<path fill="none" stroke="magenta" d="M810.26,-143.7C820.58,-135.2 833.19,-124.81 844.48,-115.51"/>
<polygon fill="magenta" stroke="magenta" points="846.52,-118.37 852.02,-109.31 842.07,-112.96 846.52,-118.37"/>
</g>
<!-- 140699779228176 -->
<g id="node14" class="node">
<title>140699779228176</title>
<polygon fill="none" stroke="black" points="1186.75,-108 939.75,-108 939.75,-72 1186.75,-72 1186.75,-108"/>
<text text-anchor="middle" x="1063.25" y="-86.45" font-family="sans" font-size="14.00">binutils&#45;cross&#45;arm&#45;none&#45;eabi@2.41</text>
</g>
<!-- 140699779228528&#45;&gt;140699779228176 -->
<g id="edge14" class="edge">
<title>140699779228528&#45;&gt;140699779228176</title>
<path fill="none" stroke="red" d="M559.89,-144.8C697.01,-131.3 876.79,-113.55 928.23,-108.15"/>
<polygon fill="red" stroke="red" points="928.3,-111.67 937.87,-107.11 927.55,-104.71 928.3,-111.67"/>
</g>
<!-- 140699779228704 -->
<g id="node15" class="node">
<title>140699779228704</title>
<polygon fill="none" stroke="black" points="529.5,-108 203,-108 203,-72 529.5,-72 529.5,-108"/>
<text text-anchor="middle" x="366.25" y="-86.45" font-family="sans" font-size="14.00">libstdc++&#45;nano&#45;arm&#45;none&#45;eabi@4.9.4&#45;1.227977</text>
</g>
<!-- 140699779228528&#45;&gt;140699779228704 -->
<g id="edge15" class="edge">
<title>140699779228528&#45;&gt;140699779228704</title>
<path fill="none" stroke="red" d="M388.08,-143.7C384.96,-136.15 381.21,-127.12 377.72,-118.68"/>
<polygon fill="red" stroke="red" points="380.98,-117.4 373.92,-109.5 374.51,-120.08 380.98,-117.4"/>
</g>
<!-- 140699779229760 -->
<g id="node16" class="node">
<title>140699779229760</title>
<polygon fill="none" stroke="black" points="350.5,-36 0,-36 0,0 350.5,0 350.5,-36"/>
<text text-anchor="middle" x="175.25" y="-14.45" font-family="sans" font-size="14.00">gcc&#45;cross&#45;sans&#45;libc&#45;arm&#45;none&#45;eabi@4.9.4&#45;1.227977</text>
</g>
<!-- 140699779228528&#45;&gt;140699779229760 -->
<g id="edge16" class="edge">
<title>140699779228528&#45;&gt;140699779229760</title>
<path fill="none" stroke="red" d="M289.79,-143.56C248.77,-134.71 208.26,-122.69 194.25,-108 178.99,-92 174.74,-66.89 174.02,-47.42"/>
<polygon fill="red" stroke="red" points="177.52,-47.65 173.96,-37.67 170.52,-47.69 177.52,-47.65"/>
</g>
<!-- 140699779229232 -->
<g id="node17" class="node">
<title>140699779229232</title>
<polygon fill="none" stroke="black" points="511.62,-36 368.88,-36 368.88,0 511.62,0 511.62,-36"/>
<text text-anchor="middle" x="440.25" y="-14.45" font-family="sans" font-size="14.00">newlib&#45;nano@2.4.0</text>
</g>
<!-- 140699779228528&#45;&gt;140699779229232 -->
<g id="edge17" class="edge">
<title>140699779228528&#45;&gt;140699779229232</title>
<path fill="none" stroke="red" d="M491.24,-143.58C509.71,-135.75 526.83,-124.41 538.25,-108 547.39,-94.87 546.44,-85.74 538.25,-72 530.63,-59.22 518.75,-49.34 505.85,-41.77"/>
<polygon fill="red" stroke="red" points="507.65,-38.76 497.18,-37.13 504.35,-44.93 507.65,-38.76"/>
</g>
<!-- 140699779231344&#45;&gt;140700053327472 -->
<g id="edge21" class="edge">
<title>140699779231344&#45;&gt;140700053327472</title>
<path fill="none" stroke="#00cdcd" d="M636.33,-143.86C628.97,-133.94 620.41,-120.9 615.25,-108 607.52,-88.7 603.51,-65.55 601.43,-47.7"/>
<polygon fill="#00cdcd" stroke="#00cdcd" points="604.92,-47.4 600.44,-37.8 597.96,-48.1 604.92,-47.4"/>
</g>
<!-- 140699779231520 -->
<g id="node19" class="node">
<title>140699779231520</title>
<polygon fill="none" stroke="black" points="732.75,-108 623.75,-108 623.75,-72 732.75,-72 732.75,-108"/>
<text text-anchor="middle" x="678.25" y="-86.45" font-family="sans" font-size="14.00">libusb@1.0.23</text>
</g>
<!-- 140699779231344&#45;&gt;140699779231520 -->
<g id="edge22" class="edge">
<title>140699779231344&#45;&gt;140699779231520</title>
<path fill="none" stroke="#00cdcd" d="M657.17,-143.7C660.19,-136.15 663.8,-127.12 667.18,-118.68"/>
<polygon fill="#00cdcd" stroke="#00cdcd" points="670.38,-120.09 670.85,-109.51 663.88,-117.49 670.38,-120.09"/>
</g>
<!-- 140699803929696&#45;&gt;140700053327472 -->
<g id="edge8" class="edge">
<title>140699803929696&#45;&gt;140700053327472</title>
<path fill="none" stroke="darkviolet" d="M827,-75.69C822.36,-74.42 817.72,-73.17 813.25,-72 769.27,-60.43 720.01,-48.18 679.85,-38.38"/>
<polygon fill="darkviolet" stroke="darkviolet" points="680.79,-35 670.24,-36.04 679.13,-41.8 680.79,-35"/>
</g>
<!-- 140699877505968 -->
<g id="node9" class="node">
<title>140699877505968</title>
<polygon fill="none" stroke="black" points="1030.38,-36 940.12,-36 940.12,0 1030.38,0 1030.38,-36"/>
<text text-anchor="middle" x="985.25" y="-14.45" font-family="sans" font-size="14.00">libffi@3.4.4</text>
</g>
<!-- 140699803929696&#45;&gt;140699877505968 -->
<g id="edge9" class="edge">
<title>140699803929696&#45;&gt;140699877505968</title>
<path fill="none" stroke="darkviolet" d="M901.97,-71.52C915.99,-62.68 933.18,-51.84 948.3,-42.3"/>
<polygon fill="darkviolet" stroke="darkviolet" points="950.01,-45.36 956.6,-37.07 946.27,-39.44 950.01,-45.36"/>
</g>
<!-- 140699803607216 -->
<g id="node10" class="node">
<title>140699803607216</title>
<polygon fill="none" stroke="black" points="1174.38,-36 1048.12,-36 1048.12,0 1174.38,0 1174.38,-36"/>
<text text-anchor="middle" x="1111.25" y="-14.45" font-family="sans" font-size="14.00">libxcrypt@4.4.36</text>
</g>
<!-- 140699803929696&#45;&gt;140699803607216 -->
<g id="edge10" class="edge">
<title>140699803929696&#45;&gt;140699803607216</title>
<path fill="none" stroke="darkviolet" d="M921.52,-74.89C924.81,-73.91 928.08,-72.94 931.25,-72 967.31,-61.31 1007.45,-49.49 1040.66,-39.72"/>
<polygon fill="darkviolet" stroke="darkviolet" points="1041.59,-43.1 1050.19,-36.92 1039.61,-36.38 1041.59,-43.1"/>
</g>
<!-- 140699782513520 -->
<g id="node11" class="node">
<title>140699782513520</title>
<polygon fill="none" stroke="black" points="1350.5,-36 1192,-36 1192,0 1350.5,0 1350.5,-36"/>
<text text-anchor="middle" x="1271.25" y="-14.45" font-family="sans" font-size="14.00">bash&#45;minimal@5.1.16</text>
</g>
<!-- 140699803929696&#45;&gt;140699782513520 -->
<g id="edge11" class="edge">
<title>140699803929696&#45;&gt;140699782513520</title>
<path fill="none" stroke="darkviolet" d="M921.7,-74.28C924.92,-73.45 928.12,-72.69 931.25,-72 1038.2,-48.55 1069.66,-54.32 1180.33,-36.43"/>
<polygon fill="darkviolet" stroke="darkviolet" points="1180.87,-39.88 1190.16,-34.8 1179.73,-32.98 1180.87,-39.88"/>
</g>
<!-- 140700057469104 -->
<g id="node12" class="node">
<title>140700057469104</title>
<polygon fill="none" stroke="black" points="812,-36 686.5,-36 686.5,0 812,0 812,-36"/>
<text text-anchor="middle" x="749.25" y="-14.45" font-family="sans" font-size="14.00">libunistring@1.1</text>
</g>
<!-- 140699803929696&#45;&gt;140700057469104 -->
<g id="edge12" class="edge">
<title>140699803929696&#45;&gt;140700057469104</title>
<path fill="none" stroke="darkviolet" d="M843.03,-71.52C826.95,-62.51 807.15,-51.42 789.89,-41.76"/>
<polygon fill="darkviolet" stroke="darkviolet" points="791.83,-38.83 781.39,-37 788.41,-44.94 791.83,-38.83"/>
</g>
<!-- 140699771797680 -->
<g id="node13" class="node">
<title>140699771797680</title>
<polygon fill="none" stroke="black" points="922.12,-36 830.38,-36 830.38,0 922.12,0 922.12,-36"/>
<text text-anchor="middle" x="876.25" y="-14.45" font-family="sans" font-size="14.00">libgc@8.2.4</text>
</g>
<!-- 140699803929696&#45;&gt;140699771797680 -->
<g id="edge13" class="edge">
<title>140699803929696&#45;&gt;140699771797680</title>
<path fill="none" stroke="darkviolet" d="M874.74,-71.7C874.95,-64.41 875.2,-55.73 875.43,-47.54"/>
<polygon fill="darkviolet" stroke="darkviolet" points="878.93,-47.71 875.72,-37.62 871.93,-47.51 878.93,-47.71"/>
</g>
<!-- 140699800068800 -->
<g id="node18" class="node">
<title>140699800068800</title>
<polygon fill="none" stroke="black" points="1488.75,-36 1391.75,-36 1391.75,0 1488.75,0 1488.75,-36"/>
<text text-anchor="middle" x="1440.25" y="-14.45" font-family="sans" font-size="14.00">bison@3.8.2</text>
</g>
<!-- 140699779228176&#45;&gt;140699800068800 -->
<g id="edge18" class="edge">
<title>140699779228176&#45;&gt;140699800068800</title>
<path fill="none" stroke="blue" d="M1165.11,-71.53C1222.25,-61.54 1294.81,-48.53 1359.25,-36 1366.1,-34.67 1373.27,-33.23 1380.38,-31.77"/>
<polygon fill="blue" stroke="blue" points="1380.9,-35.24 1389.99,-29.79 1379.48,-28.39 1380.9,-35.24"/>
</g>
<!-- 140699779228704&#45;&gt;140699779229760 -->
<g id="edge20" class="edge">
<title>140699779228704&#45;&gt;140699779229760</title>
<path fill="none" stroke="darkgoldenrod" d="M318.55,-71.52C292.7,-62.04 260.55,-50.26 233.26,-40.26"/>
<polygon fill="darkgoldenrod" stroke="darkgoldenrod" points="234.69,-37.06 224.1,-36.9 232.28,-43.63 234.69,-37.06"/>
</g>
<!-- 140699779228704&#45;&gt;140699779229232 -->
<g id="edge19" class="edge">
<title>140699779228704&#45;&gt;140699779229232</title>
<path fill="none" stroke="darkgoldenrod" d="M384.54,-71.7C393.35,-63.37 404.07,-53.22 413.75,-44.07"/>
<polygon fill="darkgoldenrod" stroke="darkgoldenrod" points="415.95,-46.8 420.81,-37.39 411.14,-41.72 415.95,-46.8"/>
</g>
<!-- 140699779230816 -->
<g id="node20" class="node">
<title>140699779230816</title>
<polygon fill="none" stroke="black" points="1215.5,-252 979,-252 979,-216 1215.5,-216 1215.5,-252"/>
<text text-anchor="middle" x="1097.25" y="-230.45" font-family="sans" font-size="14.00">ksoloti&#45;runtime@1.1.0&#45;0.b7ae475</text>
</g>
<!-- 140699779230816&#45;&gt;140699783552272 -->
<g id="edge23" class="edge">
<title>140699779230816&#45;&gt;140699783552272</title>
<path fill="none" stroke="darkseagreen" d="M1020.32,-215.52C967.26,-203.46 897.75,-187.66 848.88,-176.55"/>
<polygon fill="darkseagreen" stroke="darkseagreen" points="849.85,-173.18 839.33,-174.38 848.3,-180.01 849.85,-173.18"/>
</g>
<!-- 140699749116672 -->
<g id="node21" class="node">
<title>140699749116672</title>
<polygon fill="none" stroke="black" points="1818.12,-180 1396.38,-180 1396.38,-144 1818.12,-144 1818.12,-180"/>
<text text-anchor="middle" x="1607.25" y="-158.45" font-family="sans" font-size="14.00">arm&#45;none&#45;eabi&#45;nano&#45;toolchain@9&#45;2020&#45;q2&#45;update&#45;1.13861a8</text>
</g>
<!-- 140699779230816&#45;&gt;140699749116672 -->
<g id="edge24" class="edge">
<title>140699779230816&#45;&gt;140699749116672</title>
<path fill="none" stroke="darkseagreen" d="M1215.86,-216.72C1291.47,-206.34 1389.75,-192.85 1468.91,-181.99"/>
<polygon fill="darkseagreen" stroke="darkseagreen" points="1469.01,-185.51 1478.45,-180.68 1468.06,-178.57 1469.01,-185.51"/>
</g>
<!-- 140699771523072 -->
<g id="node22" class="node">
<title>140699771523072</title>
<polygon fill="none" stroke="black" points="1149.88,-180 1044.62,-180 1044.62,-144 1149.88,-144 1149.88,-180"/>
<text text-anchor="middle" x="1097.25" y="-158.45" font-family="sans" font-size="14.00">dfu&#45;util@0.11</text>
</g>
<!-- 140699779230816&#45;&gt;140699771523072 -->
<g id="edge25" class="edge">
<title>140699779230816&#45;&gt;140699771523072</title>
<path fill="none" stroke="darkseagreen" d="M1097.25,-215.7C1097.25,-208.41 1097.25,-199.73 1097.25,-191.54"/>
<polygon fill="darkseagreen" stroke="darkseagreen" points="1100.75,-191.62 1097.25,-181.62 1093.75,-191.62 1100.75,-191.62"/>
</g>
<!-- 140699749116320 -->
<g id="node23" class="node">
<title>140699749116320</title>
<polygon fill="none" stroke="black" points="1578.75,-108 1331.75,-108 1331.75,-72 1578.75,-72 1578.75,-108"/>
<text text-anchor="middle" x="1455.25" y="-86.45" font-family="sans" font-size="14.00">binutils&#45;cross&#45;arm&#45;none&#45;eabi@2.41</text>
</g>
<!-- 140699749116672&#45;&gt;140699749116320 -->
<g id="edge26" class="edge">
<title>140699749116672&#45;&gt;140699749116320</title>
<path fill="none" stroke="darkviolet" d="M1569.29,-143.52C1549.35,-134.34 1524.71,-122.99 1503.45,-113.2"/>
<polygon fill="darkviolet" stroke="darkviolet" points="1504.92,-110.02 1494.37,-109.01 1501.99,-116.38 1504.92,-110.02"/>
</g>
<!-- 140699749116848 -->
<g id="node24" class="node">
<title>140699749116848</title>
<polygon fill="none" stroke="black" points="2055,-108 1635.5,-108 1635.5,-72 2055,-72 2055,-108"/>
<text text-anchor="middle" x="1845.25" y="-86.45" font-family="sans" font-size="14.00">libstdc++&#45;nano&#45;arm&#45;none&#45;eabi@9&#45;2020&#45;q2&#45;update&#45;1.13861a8</text>
</g>
<!-- 140699749116672&#45;&gt;140699749116848 -->
<g id="edge27" class="edge">
<title>140699749116672&#45;&gt;140699749116848</title>
<path fill="none" stroke="darkviolet" d="M1666.69,-143.52C1699.62,-133.83 1740.73,-121.74 1775.21,-111.6"/>
<polygon fill="darkviolet" stroke="darkviolet" points="1776.09,-114.99 1784.7,-108.81 1774.12,-108.27 1776.09,-114.99"/>
</g>
<!-- 140699749117728 -->
<g id="node25" class="node">
<title>140699749117728</title>
<polygon fill="none" stroke="black" points="2256,-36 1812.5,-36 1812.5,0 2256,0 2256,-36"/>
<text text-anchor="middle" x="2034.25" y="-14.45" font-family="sans" font-size="14.00">gcc&#45;cross&#45;sans&#45;libc&#45;arm&#45;none&#45;eabi@9&#45;2020&#45;q2&#45;update&#45;1.13861a8</text>
</g>
<!-- 140699749116672&#45;&gt;140699749117728 -->
<g id="edge28" class="edge">
<title>140699749116672&#45;&gt;140699749117728</title>
<path fill="none" stroke="darkviolet" d="M1818.49,-149.16C1929.86,-140.7 2047.02,-127.35 2064.25,-108 2079.74,-90.61 2068.6,-64.91 2055.73,-45.59"/>
<polygon fill="darkviolet" stroke="darkviolet" points="2058.71,-43.75 2050.05,-37.65 2053.02,-47.82 2058.71,-43.75"/>
</g>
<!-- 140699749117376 -->
<g id="node26" class="node">
<title>140699749117376</title>
<polygon fill="none" stroke="black" points="1730.38,-36 1514.12,-36 1514.12,0 1730.38,0 1730.38,-36"/>
<text text-anchor="middle" x="1622.25" y="-14.45" font-family="sans" font-size="14.00">newlib&#45;nano@3.3.0&#45;0.6d79e0a</text>
</g>
<!-- 140699749116672&#45;&gt;140699749117376 -->
<g id="edge29" class="edge">
<title>140699749116672&#45;&gt;140699749117376</title>
<path fill="none" stroke="darkviolet" d="M1609.09,-143.59C1611.62,-119.61 1616.21,-76.14 1619.25,-47.42"/>
<polygon fill="darkviolet" stroke="darkviolet" points="1622.71,-47.93 1620.28,-37.62 1615.75,-47.19 1622.71,-47.93"/>
</g>
<!-- 140699771523072&#45;&gt;140700053327472 -->
<g id="edge33" class="edge">
<title>140699771523072&#45;&gt;140700053327472</title>
<path fill="none" stroke="red" d="M1044.3,-157.94C986.61,-153.03 892.61,-140.38 818.25,-108 793.47,-97.21 793.37,-84.19 769.25,-72 741.24,-57.84 708.7,-46.58 679.64,-38.14"/>
<polygon fill="red" stroke="red" points="680.72,-34.81 670.15,-35.46 678.82,-41.54 680.72,-34.81"/>
</g>
<!-- 140699879648176 -->
<g id="node27" class="node">
<title>140699879648176</title>
<polygon fill="none" stroke="black" points="1313.75,-108 1204.75,-108 1204.75,-72 1313.75,-72 1313.75,-108"/>
<text text-anchor="middle" x="1259.25" y="-86.45" font-family="sans" font-size="14.00">libusb@1.0.25</text>
</g>
<!-- 140699771523072&#45;&gt;140699879648176 -->
<g id="edge34" class="edge">
<title>140699771523072&#45;&gt;140699879648176</title>
<path fill="none" stroke="red" d="M1137.71,-143.52C1159.15,-134.25 1185.7,-122.78 1208.5,-112.93"/>
<polygon fill="red" stroke="red" points="1209.84,-116.16 1217.63,-108.98 1207.07,-109.74 1209.84,-116.16"/>
</g>
<!-- 140699749116320&#45;&gt;140699800068800 -->
<g id="edge30" class="edge">
<title>140699749116320&#45;&gt;140699800068800</title>
<path fill="none" stroke="red" d="M1451.54,-71.7C1449.96,-64.32 1448.08,-55.52 1446.3,-47.25"/>
<polygon fill="red" stroke="red" points="1449.75,-46.63 1444.23,-37.58 1442.91,-48.1 1449.75,-46.63"/>
</g>
<!-- 140699749116848&#45;&gt;140699749117728 -->
<g id="edge32" class="edge">
<title>140699749116848&#45;&gt;140699749117728</title>
<path fill="none" stroke="magenta" d="M1892.46,-71.52C1918.03,-62.04 1949.84,-50.26 1976.85,-40.26"/>
<polygon fill="magenta" stroke="magenta" points="1977.74,-43.66 1985.9,-36.91 1975.31,-37.1 1977.74,-43.66"/>
</g>
<!-- 140699749116848&#45;&gt;140699749117376 -->
<g id="edge31" class="edge">
<title>140699749116848&#45;&gt;140699749117376</title>
<path fill="none" stroke="magenta" d="M1789.55,-71.52C1758.84,-61.88 1720.51,-49.84 1688.29,-39.73"/>
<polygon fill="magenta" stroke="magenta" points="1689.66,-36.49 1679.07,-36.84 1687.56,-43.17 1689.66,-36.49"/>
</g>
</g>
</svg>
