<?xml version="1.0" encoding="UTF-8" standalone="no"?>
<!DOCTYPE svg PUBLIC "-//W3C//DTD SVG 1.1//EN"
 "http://www.w3.org/Graphics/SVG/1.1/DTD/svg11.dtd">
<!-- Generated by graphviz version 12.2.1 (0)
 -->
<!-- Title: Guix package Pages: 1 -->
<svg width="1844pt" height="188pt"
 viewBox="0.00 0.00 1843.50 188.00" xmlns="http://www.w3.org/2000/svg" xmlns:xlink="http://www.w3.org/1999/xlink">
<g id="graph0" class="graph" transform="scale(1 1) rotate(0) translate(4 184)">
<title>Guix package</title>
<polygon fill="white" stroke="none" points="-4,4 -4,-184 1839.5,-184 1839.5,4 -4,4"/>
<!-- 140161084378560 -->
<g id="node1" class="node">
<title>140161084378560</title>
<polygon fill="none" stroke="black" points="351.25,-108 166.5,-108 166.5,-72 351.25,-72 351.25,-108"/>
<text text-anchor="middle" x="258.88" y="-86.45" font-family="sans" font-size="14.00">axoloti&#45;runtime@1.0.12&#45;2</text>
</g>
<!-- 140161107166592 -->
<g id="node2" class="node">
<title>140161107166592</title>
<polygon fill="none" stroke="black" points="85.75,-36 0,-36 0,0 85.75,0 85.75,-36"/>
<text text-anchor="middle" x="42.88" y="-14.45" font-family="sans" font-size="14.00">unzip@6.0</text>
</g>
<!-- 140161084378560&#45;&gt;140161107166592 -->
<g id="edge1" class="edge">
<title>140161084378560&#45;&gt;140161107166592</title>
<path fill="none" stroke="dimgrey" d="M204.2,-71.6C174.69,-62.17 137.35,-50.19 96.91,-36.98"/>
<polygon fill="dimgrey" stroke="dimgrey" points="98.02,-33.66 87.43,-33.88 95.85,-40.31 98.02,-33.66"/>
</g>
<!-- 140161088232720 -->
<g id="node3" class="node">
<title>140161088232720</title>
<polygon fill="none" stroke="black" points="200.38,-36 103.38,-36 103.38,0 200.38,0 200.38,-36"/>
<text text-anchor="middle" x="151.88" y="-14.45" font-family="sans" font-size="14.00">make@4.4.1</text>
</g>
<!-- 140161084378560&#45;&gt;140161088232720 -->
<g id="edge2" class="edge">
<title>140161084378560&#45;&gt;140161088232720</title>
<path fill="none" stroke="dimgrey" d="M232.15,-71.52C218.64,-62.68 202.07,-51.84 187.5,-42.3"/>
<polygon fill="dimgrey" stroke="dimgrey" points="189.81,-39.63 179.53,-37.09 185.98,-45.49 189.81,-39.63"/>
</g>
<!-- 140161084375920 -->
<g id="node4" class="node">
<title>140161084375920</title>
<polygon fill="none" stroke="black" points="710.25,-36 381.5,-36 381.5,0 710.25,0 710.25,-36"/>
<text text-anchor="middle" x="545.88" y="-14.45" font-family="sans" font-size="14.00">arm&#45;none&#45;eabi&#45;nano&#45;toolchain@4.9.4&#45;1.227977</text>
</g>
<!-- 140161084378560&#45;&gt;140161084375920 -->
<g id="edge3" class="edge">
<title>140161084378560&#45;&gt;140161084375920</title>
<path fill="none" stroke="dimgrey" d="M330.56,-71.52C370.95,-61.67 421.56,-49.32 463.57,-39.07"/>
<polygon fill="dimgrey" stroke="dimgrey" points="464.25,-42.51 473.14,-36.74 462.59,-35.71 464.25,-42.51"/>
</g>
<!-- 140161084378736 -->
<g id="node5" class="node">
<title>140161084378736</title>
<polygon fill="none" stroke="black" points="363.75,-36 218,-36 218,0 363.75,0 363.75,-36"/>
<text text-anchor="middle" x="290.88" y="-14.45" font-family="sans" font-size="14.00">axoloti&#45;dfu&#45;util@0.8</text>
</g>
<!-- 140161084378560&#45;&gt;140161084378736 -->
<g id="edge4" class="edge">
<title>140161084378560&#45;&gt;140161084378736</title>
<path fill="none" stroke="dimgrey" d="M266.79,-71.7C270.27,-64.07 274.46,-54.92 278.35,-46.4"/>
<polygon fill="dimgrey" stroke="dimgrey" points="281.45,-48.03 282.43,-37.48 275.09,-45.12 281.45,-48.03"/>
</g>
<!-- 140161084378384 -->
<g id="node6" class="node">
<title>140161084378384</title>
<polygon fill="none" stroke="black" points="830.75,-180 649,-180 649,-144 830.75,-144 830.75,-180"/>
<text text-anchor="middle" x="739.88" y="-158.45" font-family="sans" font-size="14.00">axoloti&#45;patcher@1.0.12&#45;2</text>
</g>
<!-- 140161084378384&#45;&gt;140161084378560 -->
<g id="edge16" class="edge">
<title>140161084378384&#45;&gt;140161084378560</title>
<path fill="none" stroke="darkviolet" d="M648.87,-148.62C572.89,-138.17 461.75,-122.61 364.88,-108 364.2,-107.9 363.52,-107.8 362.84,-107.69"/>
<polygon fill="darkviolet" stroke="darkviolet" points="363.55,-104.26 353.14,-106.21 362.49,-111.18 363.55,-104.26"/>
</g>
<!-- 140161084378384&#45;&gt;140161107166592 -->
<g id="edge7" class="edge">
<title>140161084378384&#45;&gt;140161107166592</title>
<path fill="none" stroke="darkviolet" d="M648.56,-158.9C507.76,-154.61 244.8,-142.19 157.88,-108 122.2,-93.97 88.39,-65.27 66.78,-44.24"/>
<polygon fill="darkviolet" stroke="darkviolet" points="69.47,-41.98 59.91,-37.39 64.52,-46.93 69.47,-41.98"/>
</g>
<!-- 140161084378384&#45;&gt;140161084375920 -->
<g id="edge9" class="edge">
<title>140161084378384&#45;&gt;140161084375920</title>
<path fill="none" stroke="darkviolet" d="M648.9,-159.73C559.01,-156.33 430.49,-144.91 398.88,-108 373,-77.79 413.94,-54.91 459.12,-39.92"/>
<polygon fill="darkviolet" stroke="darkviolet" points="460.11,-43.27 468.59,-36.92 458,-36.6 460.11,-43.27"/>
</g>
<!-- 140161091075344 -->
<g id="node7" class="node">
<title>140161091075344</title>
<polygon fill="none" stroke="black" points="498.38,-108 407.38,-108 407.38,-72 498.38,-72 498.38,-108"/>
<text text-anchor="middle" x="452.88" y="-86.45" font-family="sans" font-size="14.00">ant@1.9.15</text>
</g>
<!-- 140161084378384&#45;&gt;140161091075344 -->
<g id="edge5" class="edge">
<title>140161084378384&#45;&gt;140161091075344</title>
<path fill="none" stroke="darkviolet" d="M655.35,-143.51C613.8,-134.5 562.8,-122.84 509.75,-108.68"/>
<polygon fill="darkviolet" stroke="darkviolet" points="510.78,-105.34 500.22,-106.12 508.96,-112.1 510.78,-105.34"/>
</g>
<!-- 140161107166768 -->
<g id="node8" class="node">
<title>140161107166768</title>
<polygon fill="none" stroke="black" points="583.75,-108 516,-108 516,-72 583.75,-72 583.75,-108"/>
<text text-anchor="middle" x="549.88" y="-86.45" font-family="sans" font-size="14.00">zip@3.0</text>
</g>
<!-- 140161084378384&#45;&gt;140161107166768 -->
<g id="edge6" class="edge">
<title>140161084378384&#45;&gt;140161107166768</title>
<path fill="none" stroke="darkviolet" d="M690.4,-143.59C664.28,-134.29 631.46,-122.47 594.61,-108.61"/>
<polygon fill="darkviolet" stroke="darkviolet" points="596.11,-105.43 585.52,-105.18 593.64,-111.98 596.11,-105.43"/>
</g>
<!-- 140161101587664 -->
<g id="node9" class="node">
<title>140161101587664</title>
<polygon fill="none" stroke="black" points="719.5,-108 602.25,-108 602.25,-72 719.5,-72 719.5,-108"/>
<text text-anchor="middle" x="660.88" y="-86.45" font-family="sans" font-size="14.00">icedtea@3.19.0</text>
</g>
<!-- 140161084378384&#45;&gt;140161101587664 -->
<g id="edge8" class="edge">
<title>140161084378384&#45;&gt;140161101587664</title>
<path fill="none" stroke="darkviolet" d="M720.35,-143.7C710.85,-135.28 699.27,-125.02 688.85,-115.79"/>
<polygon fill="darkviolet" stroke="darkviolet" points="691.39,-113.36 681.59,-109.35 686.75,-118.6 691.39,-113.36"/>
</g>
<!-- 140161104954576 -->
<g id="node10" class="node">
<title>140161104954576</title>
<polygon fill="none" stroke="black" points="900.38,-108 737.38,-108 737.38,-72 900.38,-72 900.38,-108"/>
<text text-anchor="middle" x="818.88" y="-86.45" font-family="sans" font-size="14.00">java&#45;simple&#45;xml@2.7.1</text>
</g>
<!-- 140161084378384&#45;&gt;140161104954576 -->
<g id="edge10" class="edge">
<title>140161084378384&#45;&gt;140161104954576</title>
<path fill="none" stroke="darkviolet" d="M759.4,-143.7C768.9,-135.28 780.48,-125.02 790.9,-115.79"/>
<polygon fill="darkviolet" stroke="darkviolet" points="793,-118.6 798.16,-109.35 788.36,-113.36 793,-118.6"/>
</g>
<!-- 140161265967104 -->
<g id="node11" class="node">
<title>140161265967104</title>
<polygon fill="none" stroke="black" points="1113.12,-108 918.62,-108 918.62,-72 1113.12,-72 1113.12,-108"/>
<text text-anchor="middle" x="1015.88" y="-86.45" font-family="sans" font-size="14.00">java&#45;rsyntaxtextarea@3.4.0</text>
</g>
<!-- 140161084378384&#45;&gt;140161265967104 -->
<g id="edge11" class="edge">
<title>140161084378384&#45;&gt;140161265967104</title>
<path fill="none" stroke="darkviolet" d="M808.81,-143.52C847.48,-133.71 895.91,-121.43 936.21,-111.21"/>
<polygon fill="darkviolet" stroke="darkviolet" points="937.04,-114.6 945.87,-108.75 935.32,-107.82 937.04,-114.6"/>
</g>
<!-- 140161266387008 -->
<g id="node12" class="node">
<title>140161266387008</title>
<polygon fill="none" stroke="black" points="1280.25,-108 1131.5,-108 1131.5,-72 1280.25,-72 1280.25,-108"/>
<text text-anchor="middle" x="1205.88" y="-86.45" font-family="sans" font-size="14.00">java&#45;usb4java@1.3.0</text>
</g>
<!-- 140161084378384&#45;&gt;140161266387008 -->
<g id="edge12" class="edge">
<title>140161084378384&#45;&gt;140161266387008</title>
<path fill="none" stroke="darkviolet" d="M831.2,-149.94C906.09,-140.5 1015.11,-125.91 1120.13,-108.24"/>
<polygon fill="darkviolet" stroke="darkviolet" points="1120.5,-111.72 1129.77,-106.6 1119.33,-104.82 1120.5,-111.72"/>
</g>
<!-- 140161087882976 -->
<g id="node13" class="node">
<title>140161087882976</title>
<polygon fill="none" stroke="black" points="1423.62,-108 1298.12,-108 1298.12,-72 1423.62,-72 1423.62,-108"/>
<text text-anchor="middle" x="1360.88" y="-86.45" font-family="sans" font-size="14.00">java&#45;jsch@0.1.55</text>
</g>
<!-- 140161084378384&#45;&gt;140161087882976 -->
<g id="edge13" class="edge">
<title>140161084378384&#45;&gt;140161087882976</title>
<path fill="none" stroke="darkviolet" d="M831.19,-155.98C938.2,-149.25 1120.92,-135.09 1286.85,-108.2"/>
<polygon fill="darkviolet" stroke="darkviolet" points="1286.96,-111.73 1296.26,-106.66 1285.83,-104.83 1286.96,-111.73"/>
</g>
<!-- 140161088301824 -->
<g id="node14" class="node">
<title>140161088301824</title>
<polygon fill="none" stroke="black" points="1592,-108 1441.75,-108 1441.75,-72 1592,-72 1592,-108"/>
<text text-anchor="middle" x="1516.88" y="-86.45" font-family="sans" font-size="14.00">java&#45;slf4j&#45;api@1.7.25</text>
</g>
<!-- 140161084378384&#45;&gt;140161088301824 -->
<g id="edge14" class="edge">
<title>140161084378384&#45;&gt;140161088301824</title>
<path fill="none" stroke="darkviolet" d="M831.07,-157.61C961.74,-151.96 1209.93,-138.26 1430.26,-108.27"/>
<polygon fill="darkviolet" stroke="darkviolet" points="1430.47,-111.77 1439.89,-106.94 1429.51,-104.84 1430.47,-111.77"/>
</g>
<!-- 140161089277376 -->
<g id="node15" class="node">
<title>140161089277376</title>
<polygon fill="none" stroke="black" points="1835.5,-108 1610.25,-108 1610.25,-72 1835.5,-72 1835.5,-108"/>
<text text-anchor="middle" x="1722.88" y="-86.45" font-family="sans" font-size="14.00">java&#45;jgit@4.2.0.201601211800&#45;r</text>
</g>
<!-- 140161084378384&#45;&gt;140161089277376 -->
<g id="edge15" class="edge">
<title>140161084378384&#45;&gt;140161089277376</title>
<path fill="none" stroke="darkviolet" d="M831.18,-157.69C986.51,-151.55 1312.36,-136.47 1598.47,-108.19"/>
<polygon fill="darkviolet" stroke="darkviolet" points="1598.81,-111.68 1608.41,-107.2 1598.11,-104.71 1598.81,-111.68"/>
</g>
</g>
</svg>
