<?xml version="1.0" encoding="UTF-8" standalone="no"?>
<!DOCTYPE svg PUBLIC "-//W3C//DTD SVG 1.1//EN"
 "http://www.w3.org/Graphics/SVG/1.1/DTD/svg11.dtd">
<!-- Generated by graphviz version 7.0.1 (20221109.1506)
 -->
<!-- Title: Protobuf UML class diagram Pages: 1 -->
<svg width="277pt" height="179pt"
 viewBox="0.00 0.00 277.00 179.00" xmlns="http://www.w3.org/2000/svg" xmlns:xlink="http://www.w3.org/1999/xlink">
<g id="graph0" class="graph" transform="scale(1 1) rotate(0) translate(4 175)">
<title>Protobuf UML class diagram</title>
<polygon fill="white" stroke="none" points="-4,4 -4,-175 273,-175 273,4 -4,4"/>
<!-- linkedca.EABKey -->
<g id="node1" class="node">
<title>linkedca.EABKey</title>
<polygon fill="#f2f2f2" stroke="black" points="0,-73.5 0,-170.5 236,-170.5 236,-73.5 0,-73.5"/>
<text text-anchor="middle" x="118" y="-160.1" font-family="Bitstream Vera Sans" font-size="8.00">linkedca.EABKey</text>
<polyline fill="none" stroke="black" points="0,-153.5 236,-153.5"/>
<text text-anchor="middle" x="118" y="-143.1" font-family="Bitstream Vera Sans" font-size="8.00">+ linkedca.EABKey.id:string</text>
<text text-anchor="middle" x="118" y="-134.1" font-family="Bitstream Vera Sans" font-size="8.00">+ linkedca.EABKey.hmac_key:bytes</text>
<text text-anchor="middle" x="118" y="-125.1" font-family="Bitstream Vera Sans" font-size="8.00">+ linkedca.EABKey.provisioner:string</text>
<text text-anchor="middle" x="118" y="-116.1" font-family="Bitstream Vera Sans" font-size="8.00">+ linkedca.EABKey.reference:string</text>
<text text-anchor="middle" x="118" y="-107.1" font-family="Bitstream Vera Sans" font-size="8.00">+ linkedca.EABKey.account:string</text>
<text text-anchor="middle" x="118" y="-98.1" font-family="Bitstream Vera Sans" font-size="8.00">+ linkedca.EABKey.created_at:google.protobuf.Timestamp</text>
<text text-anchor="middle" x="118" y="-89.1" font-family="Bitstream Vera Sans" font-size="8.00">+ linkedca.EABKey.bound_at:google.protobuf.Timestamp</text>
<text text-anchor="middle" x="118" y="-80.1" font-family="Bitstream Vera Sans" font-size="8.00">+ linkedca.EABKey.policy:linkedca.Policy</text>
</g>
<!-- google.protobuf.Timestamp -->
<g id="node2" class="node">
<title>google.protobuf.Timestamp</title>
<polygon fill="#f2f2f2" stroke="black" points="57,-0.5 57,-36.5 179,-36.5 179,-0.5 57,-0.5"/>
<text text-anchor="middle" x="118" y="-16.6" font-family="Bitstream Vera Sans" font-size="8.00">google.protobuf.Timestamp</text>
</g>
<!-- linkedca.EABKey&#45;&gt;google.protobuf.Timestamp -->
<g id="edge1" class="edge">
<title>linkedca.EABKey&#45;&gt;google.protobuf.Timestamp</title>
<path fill="none" stroke="black" d="M111.26,-73.52C111.16,-60.1 111.69,-46.38 112.85,-36.13"/>
<text text-anchor="middle" x="110.35" y="-38.73" font-family="Bitstream Vera Sans" font-size="8.00">1</text>
<text text-anchor="middle" x="108.76" y="-67.12" font-family="Bitstream Vera Sans" font-size="8.00">1</text>
</g>
<!-- linkedca.EABKey&#45;&gt;google.protobuf.Timestamp -->
<g id="edge2" class="edge">
<title>linkedca.EABKey&#45;&gt;google.protobuf.Timestamp</title>
<path fill="none" stroke="black" d="M124.74,-73.52C124.84,-60.1 124.31,-46.38 123.15,-36.13"/>
<text text-anchor="middle" x="120.65" y="-38.73" font-family="Bitstream Vera Sans" font-size="8.00">1</text>
<text text-anchor="middle" x="122.24" y="-67.12" font-family="Bitstream Vera Sans" font-size="8.00">1</text>
</g>
<!-- linkedca.Policy -->
<g id="node3" class="node">
<title>linkedca.Policy</title>
<polygon fill="#f2f2f2" stroke="black" points="197,-0.5 197,-36.5 269,-36.5 269,-0.5 197,-0.5"/>
<text text-anchor="middle" x="233" y="-16.6" font-family="Bitstream Vera Sans" font-size="8.00">linkedca.Policy</text>
</g>
<!-- linkedca.EABKey&#45;&gt;linkedca.Policy -->
<g id="edge3" class="edge">
<title>linkedca.EABKey&#45;&gt;linkedca.Policy</title>
<path fill="none" stroke="black" d="M171.8,-73.52C186.88,-60.21 202.3,-46.59 213.89,-36.36"/>
<text text-anchor="middle" x="211.39" y="-38.96" font-family="Bitstream Vera Sans" font-size="8.00">1</text>
<text text-anchor="middle" x="169.3" y="-67.12" font-family="Bitstream Vera Sans" font-size="8.00">1</text>
</g>
</g>
</svg>
