<svg xmlns="http://www.w3.org/2000/svg" xmlns:xlink="http://www.w3.org/1999/xlink" contentStyleType="text/css" data-diagram-type="CLASS" height="965px" preserveAspectRatio="none" style="width:492px;height:965px;" version="1.1" viewBox="0 0 492 965" width="492px" zoomAndPan="magnify"><defs/><g><!--cluster google--><g class="cluster" data-entity="google" data-source-line="12" data-uid="ent0002" id="cluster_google"><path d="M127.05,427.602 L175.7758,427.602 A3.75,3.75 0 0 1 178.2758,430.102 L185.2758,452.6699 L439,452.6699 A2.5,2.5 0 0 1 441.5,455.1699 L441.5,645.102 A2.5,2.5 0 0 1 439,647.602 L127.05,647.602 A2.5,2.5 0 0 1 124.55,645.102 L124.55,430.102 A2.5,2.5 0 0 1 127.05,427.602" fill="none" style="stroke:#000000;stroke-width:1.5;"/><line style="stroke:#000000;stroke-width:1.5;" x1="124.55" x2="185.2758" y1="452.6699" y2="452.6699"/><text fill="#000000" font-family="sans-serif" font-size="14" font-weight="bold" lengthAdjust="spacing" textLength="47.7258" x="128.55" y="444.5679">google</text></g><!--cluster tpm--><g class="cluster" data-entity="tpm" data-source-line="18" data-uid="ent0006" id="cluster_tpm"><path d="M82.81,671.602 L112.3839,671.602 A3.75,3.75 0 0 1 114.8839,674.102 L121.8839,696.6699 L483.24,696.6699 A2.5,2.5 0 0 1 485.74,699.1699 L485.74,956.102 A2.5,2.5 0 0 1 483.24,958.602 L82.81,958.602 A2.5,2.5 0 0 1 80.31,956.102 L80.31,674.102 A2.5,2.5 0 0 1 82.81,671.602" fill="none" style="stroke:#000000;stroke-width:1.5;"/><line style="stroke:#000000;stroke-width:1.5;" x1="80.31" x2="121.8839" y1="696.6699" y2="696.6699"/><text fill="#000000" font-family="sans-serif" font-size="14" font-weight="bold" lengthAdjust="spacing" textLength="28.5739" x="84.31" y="688.5679">tpm</text></g><!--cluster uefi--><g class="cluster" data-entity="uefi" data-source-line="26" data-uid="ent0011" id="cluster_uefi"><path d="M160.48,6.602 L188.5419,6.602 A3.75,3.75 0 0 1 191.0419,9.102 L198.0419,31.6699 L405.57,31.6699 A2.5,2.5 0 0 1 408.07,34.1699 L408.07,157.102 A2.5,2.5 0 0 1 405.57,159.602 L160.48,159.602 A2.5,2.5 0 0 1 157.98,157.102 L157.98,9.102 A2.5,2.5 0 0 1 160.48,6.602" fill="none" style="stroke:#000000;stroke-width:1.5;"/><line style="stroke:#000000;stroke-width:1.5;" x1="157.98" x2="198.0419" y1="31.6699" y2="31.6699"/><text fill="#000000" font-family="sans-serif" font-size="14" font-weight="bold" lengthAdjust="spacing" textLength="27.0619" x="161.98" y="23.5679">uefi</text></g><!--class go.tpm--><g class="entity" data-entity="go.tpm" data-source-line="13" data-uid="ent0003" id="entity_go.tpm"><rect fill="#F1F1F1" height="32" rx="2.5" ry="2.5" style="stroke:#181818;stroke-width:0.5;" width="208.6617" x="178.69" y="599.602"/><ellipse cx="193.69" cy="615.602" fill="#ADD1B2" rx="11" ry="11" style="stroke:#181818;stroke-width:1;"/><path d="M193.1588,622.5239 Q191.4088,622.5239 190.2681,621.7895 Q189.1431,621.0395 188.5806,619.6957 Q188.0338,618.3364 188.0338,616.5395 Q188.0338,614.5082 188.69,613.0551 Q189.3463,611.602 190.6275,610.8207 Q191.9088,610.0395 193.7838,610.0395 Q194.6744,610.0395 195.3463,610.227 Q196.0181,610.3989 196.7056,610.7426 L195.8931,612.7582 Q195.2681,612.4457 194.7213,612.3207 Q194.19,612.1957 193.7056,612.1957 Q192.5338,612.1957 191.8306,612.727 Q191.1275,613.2582 190.8306,614.2114 Q190.5338,615.1645 190.5338,616.4301 Q190.5338,618.4457 191.2525,619.4145 Q191.9713,620.3676 193.565,620.3676 Q194.1588,620.3676 194.7838,620.2114 Q195.4088,620.0551 196.2369,619.6801 L196.2369,621.8989 Q195.5025,622.2114 194.7056,622.3676 Q193.9244,622.5239 193.1588,622.5239 Z " fill="#000000"/><text fill="#000000" font-family="sans-serif" font-size="14" lengthAdjust="spacing" textLength="48.3418" x="207.69" y="621.034">go-tpm</text><text fill="#000000" font-family="sans-serif" font-size="10" lengthAdjust="spacing" textLength="128.3199" x="256.0318" y="622.2059">github.com/google/go-tpm</text></g><!--class go.tpm.tools--><g class="entity" data-entity="go.tpm.tools" data-source-line="14" data-uid="ent0004" id="entity_go.tpm.tools"><rect fill="#F1F1F1" height="32" rx="2.5" ry="2.5" style="stroke:#181818;stroke-width:0.5;" width="271.7816" x="147.13" y="532.602"/><ellipse cx="162.13" cy="548.602" fill="#ADD1B2" rx="11" ry="11" style="stroke:#181818;stroke-width:1;"/><path d="M161.5988,555.5239 Q159.8488,555.5239 158.7081,554.7895 Q157.5831,554.0395 157.0206,552.6957 Q156.4738,551.3364 156.4738,549.5395 Q156.4738,547.5082 157.13,546.0551 Q157.7863,544.602 159.0675,543.8207 Q160.3488,543.0395 162.2238,543.0395 Q163.1144,543.0395 163.7863,543.227 Q164.4581,543.3989 165.1456,543.7426 L164.3331,545.7582 Q163.7081,545.4457 163.1613,545.3207 Q162.63,545.1957 162.1456,545.1957 Q160.9738,545.1957 160.2706,545.727 Q159.5675,546.2582 159.2706,547.2114 Q158.9738,548.1645 158.9738,549.4301 Q158.9738,551.4457 159.6925,552.4145 Q160.4113,553.3676 162.005,553.3676 Q162.5988,553.3676 163.2238,553.2114 Q163.8488,553.0551 164.6769,552.6801 L164.6769,554.8989 Q163.9425,555.2114 163.1456,555.3676 Q162.3644,555.5239 161.5988,555.5239 Z " fill="#000000"/><text fill="#000000" font-family="sans-serif" font-size="14" lengthAdjust="spacing" textLength="85.1617" x="176.13" y="554.034">go-tpm-tools</text><text fill="#000000" font-family="sans-serif" font-size="10" lengthAdjust="spacing" textLength="154.6199" x="261.2917" y="555.2059">github.com/google/go-tpm-tools</text></g><!--class go.attestation--><g class="entity" data-entity="go.attestation" data-source-line="15" data-uid="ent0005" id="entity_go.attestation"><rect fill="#F1F1F1" height="32" rx="2.5" ry="2.5" style="stroke:#181818;stroke-width:0.5;" width="284.9576" x="140.55" y="465.602"/><ellipse cx="155.55" cy="481.602" fill="#ADD1B2" rx="11" ry="11" style="stroke:#181818;stroke-width:1;"/><path d="M155.0188,488.5239 Q153.2688,488.5239 152.1281,487.7895 Q151.0031,487.0395 150.4406,485.6957 Q149.8938,484.3364 149.8938,482.5395 Q149.8938,480.5082 150.55,479.0551 Q151.2063,477.602 152.4875,476.8207 Q153.7688,476.0395 155.6438,476.0395 Q156.5344,476.0395 157.2063,476.227 Q157.8781,476.3989 158.5656,476.7426 L157.7531,478.7582 Q157.1281,478.4457 156.5813,478.3207 Q156.05,478.1957 155.5656,478.1957 Q154.3938,478.1957 153.6906,478.727 Q152.9875,479.2582 152.6906,480.2114 Q152.3938,481.1645 152.3938,482.4301 Q152.3938,484.4457 153.1125,485.4145 Q153.8313,486.3676 155.425,486.3676 Q156.0188,486.3676 156.6438,486.2114 Q157.2688,486.0551 158.0969,485.6801 L158.0969,487.8989 Q157.3625,488.2114 156.5656,488.3676 Q155.7844,488.5239 155.0188,488.5239 Z " fill="#000000"/><text fill="#000000" font-family="sans-serif" font-size="14" lengthAdjust="spacing" textLength="92.8477" x="169.55" y="487.034">go-attestation</text><text fill="#000000" font-family="sans-serif" font-size="10" lengthAdjust="spacing" textLength="160.1099" x="262.3977" y="488.2059">github.com/google/go-attestation</text></g><!--class ssh.tpm.agent--><g class="entity" data-entity="ssh.tpm.agent" data-source-line="19" data-uid="ent0007" id="entity_ssh.tpm.agent"><rect fill="#F1F1F1" height="32" rx="2.5" ry="2.5" style="stroke:#181818;stroke-width:0.5;" width="302.6595" x="131.7" y="910.602"/><ellipse cx="146.7" cy="926.602" fill="#ADD1B2" rx="11" ry="11" style="stroke:#181818;stroke-width:1;"/><path d="M146.1688,933.5239 Q144.4188,933.5239 143.2781,932.7895 Q142.1531,932.0395 141.5906,930.6957 Q141.0438,929.3364 141.0438,927.5395 Q141.0438,925.5082 141.7,924.0551 Q142.3563,922.602 143.6375,921.8207 Q144.9188,921.0395 146.7938,921.0395 Q147.6844,921.0395 148.3563,921.227 Q149.0281,921.3989 149.7156,921.7426 L148.9031,923.7582 Q148.2781,923.4457 147.7313,923.3207 Q147.2,923.1957 146.7156,923.1957 Q145.5438,923.1957 144.8406,923.727 Q144.1375,924.2582 143.8406,925.2114 Q143.5438,926.1645 143.5438,927.4301 Q143.5438,929.4457 144.2625,930.4145 Q144.9813,931.3676 146.575,931.3676 Q147.1688,931.3676 147.7938,931.2114 Q148.4188,931.0551 149.2469,930.6801 L149.2469,932.8989 Q148.5125,933.2114 147.7156,933.3676 Q146.9344,933.5239 146.1688,933.5239 Z " fill="#000000"/><text fill="#000000" font-family="sans-serif" font-size="14" lengthAdjust="spacing" textLength="95.8996" x="160.7" y="932.034">ssh-tpm-agent</text><text fill="#000000" font-family="sans-serif" font-size="10" lengthAdjust="spacing" textLength="174.7598" x="256.5996" y="933.2059">github.com/Foxboron/ssh-tpm-agent</text></g><!--class ssh.tpm.ca.authority--><g class="entity" data-entity="ssh.tpm.ca.authority" data-source-line="20" data-uid="ent0008" id="entity_ssh.tpm.ca.authority"><rect fill="#F1F1F1" height="32" rx="2.5" ry="2.5" style="stroke:#181818;stroke-width:0.5;" width="373.4353" x="96.31" y="843.602"/><ellipse cx="111.31" cy="859.602" fill="#ADD1B2" rx="11" ry="11" style="stroke:#181818;stroke-width:1;"/><path d="M110.7788,866.5239 Q109.0288,866.5239 107.8881,865.7895 Q106.7631,865.0395 106.2006,863.6957 Q105.6538,862.3364 105.6538,860.5395 Q105.6538,858.5082 106.31,857.0551 Q106.9663,855.602 108.2475,854.8207 Q109.5288,854.0395 111.4038,854.0395 Q112.2944,854.0395 112.9663,854.227 Q113.6381,854.3989 114.3256,854.7426 L113.5131,856.7582 Q112.8881,856.4457 112.3413,856.3207 Q111.81,856.1957 111.3256,856.1957 Q110.1538,856.1957 109.4506,856.727 Q108.7475,857.2582 108.4506,858.2114 Q108.1538,859.1645 108.1538,860.4301 Q108.1538,862.4457 108.8725,863.4145 Q109.5913,864.3676 111.185,864.3676 Q111.7788,864.3676 112.4038,864.2114 Q113.0288,864.0551 113.8569,863.6801 L113.8569,865.8989 Q113.1225,866.2114 112.3256,866.3676 Q111.5444,866.5239 110.7788,866.5239 Z " fill="#000000"/><text fill="#000000" font-family="sans-serif" font-size="14" lengthAdjust="spacing" textLength="137.1855" x="125.31" y="865.034">ssh-tpm-ca-authority</text><text fill="#000000" font-family="sans-serif" font-size="10" lengthAdjust="spacing" textLength="204.2498" x="262.4955" y="866.2059">github.com/Foxboron/ssh-tpm-ca-authority</text></g><!--class go.tpm.keyfiles--><g class="entity" data-entity="go.tpm.keyfiles" data-source-line="21" data-uid="ent0009" id="entity_go.tpm.keyfiles"><rect fill="#F1F1F1" height="32" rx="2.5" ry="2.5" style="stroke:#181818;stroke-width:0.5;" width="313.1234" x="126.46" y="776.602"/><ellipse cx="141.46" cy="792.602" fill="#ADD1B2" rx="11" ry="11" style="stroke:#181818;stroke-width:1;"/><path d="M140.9287,799.5239 Q139.1787,799.5239 138.0381,798.7895 Q136.9131,798.0395 136.3506,796.6957 Q135.8037,795.3364 135.8037,793.5395 Q135.8037,791.5082 136.46,790.0551 Q137.1162,788.602 138.3975,787.8207 Q139.6787,787.0395 141.5537,787.0395 Q142.4444,787.0395 143.1162,787.227 Q143.7881,787.3989 144.4756,787.7426 L143.6631,789.7582 Q143.0381,789.4457 142.4912,789.3207 Q141.96,789.1957 141.4756,789.1957 Q140.3037,789.1957 139.6006,789.727 Q138.8975,790.2582 138.6006,791.2114 Q138.3037,792.1645 138.3037,793.4301 Q138.3037,795.4457 139.0225,796.4145 Q139.7412,797.3676 141.335,797.3676 Q141.9287,797.3676 142.5537,797.2114 Q143.1787,797.0551 144.0069,796.6801 L144.0069,798.8989 Q143.2725,799.2114 142.4756,799.3676 Q141.6944,799.5239 140.9287,799.5239 Z " fill="#000000"/><text fill="#000000" font-family="sans-serif" font-size="14" lengthAdjust="spacing" textLength="102.0036" x="155.46" y="798.034">go-tpm-keyfiles</text><text fill="#000000" font-family="sans-serif" font-size="10" lengthAdjust="spacing" textLength="179.1198" x="257.4636" y="799.2059">github.com/Foxboron/go-tpm-keyfiles</text></g><!--class swtpm.test--><g class="entity" data-entity="swtpm.test" data-source-line="22" data-uid="ent0010" id="entity_swtpm.test"><rect fill="#F1F1F1" height="32" rx="2.5" ry="2.5" style="stroke:#181818;stroke-width:0.5;" width="267.4996" x="149.28" y="709.602"/><ellipse cx="164.28" cy="725.602" fill="#ADD1B2" rx="11" ry="11" style="stroke:#181818;stroke-width:1;"/><path d="M163.7488,732.5239 Q161.9988,732.5239 160.8581,731.7895 Q159.7331,731.0395 159.1706,729.6957 Q158.6238,728.3364 158.6238,726.5395 Q158.6238,724.5082 159.28,723.0551 Q159.9363,721.602 161.2175,720.8207 Q162.4988,720.0395 164.3738,720.0395 Q165.2644,720.0395 165.9363,720.227 Q166.6081,720.3989 167.2956,720.7426 L166.4831,722.7582 Q165.8581,722.4457 165.3113,722.3207 Q164.78,722.1957 164.2956,722.1957 Q163.1238,722.1957 162.4206,722.727 Q161.7175,723.2582 161.4206,724.2114 Q161.1238,725.1645 161.1238,726.4301 Q161.1238,728.4457 161.8425,729.4145 Q162.5613,730.3676 164.155,730.3676 Q164.7488,730.3676 165.3738,730.2114 Q165.9988,730.0551 166.8269,729.6801 L166.8269,731.8989 Q166.0925,732.2114 165.2956,732.3676 Q164.5144,732.5239 163.7488,732.5239 Z " fill="#000000"/><text fill="#000000" font-family="sans-serif" font-size="14" lengthAdjust="spacing" textLength="75.3897" x="178.28" y="731.034">swtpm_test</text><text fill="#000000" font-family="sans-serif" font-size="10" lengthAdjust="spacing" textLength="160.1098" x="253.6697" y="732.2059">github.com/Foxboron/swtpm_test</text></g><!--class sbctl--><g class="entity" data-entity="sbctl" data-source-line="27" data-uid="ent0012" id="entity_sbctl"><rect fill="#F1F1F1" height="32" rx="2.5" ry="2.5" style="stroke:#181818;stroke-width:0.5;" width="190.8918" x="187.58" y="111.602"/><ellipse cx="202.58" cy="127.602" fill="#ADD1B2" rx="11" ry="11" style="stroke:#181818;stroke-width:1;"/><path d="M202.0488,134.5239 Q200.2988,134.5239 199.1581,133.7895 Q198.0331,133.0395 197.4706,131.6957 Q196.9238,130.3364 196.9238,128.5395 Q196.9238,126.5082 197.58,125.0551 Q198.2363,123.602 199.5175,122.8207 Q200.7988,122.0395 202.6738,122.0395 Q203.5644,122.0395 204.2363,122.227 Q204.9081,122.3989 205.5956,122.7426 L204.7831,124.7582 Q204.1581,124.4457 203.6113,124.3207 Q203.08,124.1957 202.5956,124.1957 Q201.4238,124.1957 200.7206,124.727 Q200.0175,125.2582 199.7206,126.2114 Q199.4238,127.1645 199.4238,128.4301 Q199.4238,130.4457 200.1425,131.4145 Q200.8613,132.3676 202.455,132.3676 Q203.0488,132.3676 203.6738,132.2114 Q204.2988,132.0551 205.1269,131.6801 L205.1269,133.8989 Q204.3925,134.2114 203.5956,134.3676 Q202.8144,134.5239 202.0488,134.5239 Z " fill="#000000"/><text fill="#000000" font-family="sans-serif" font-size="14" lengthAdjust="spacing" textLength="30.7019" x="216.58" y="133.034">sbctl</text><text fill="#000000" font-family="sans-serif" font-size="10" lengthAdjust="spacing" textLength="128.1899" x="247.2819" y="134.2059">github.com/Foxboron/sbctl</text></g><!--class go.uefi--><g class="entity" data-entity="go.uefi" data-source-line="28" data-uid="ent0013" id="entity_go.uefi"><rect fill="#F1F1F1" height="32" rx="2.5" ry="2.5" style="stroke:#181818;stroke-width:0.5;" width="218.0837" x="173.98" y="44.602"/><ellipse cx="188.98" cy="60.602" fill="#ADD1B2" rx="11" ry="11" style="stroke:#181818;stroke-width:1;"/><path d="M188.4488,67.5239 Q186.6988,67.5239 185.5581,66.7895 Q184.4331,66.0395 183.8706,64.6957 Q183.3238,63.3364 183.3238,61.5395 Q183.3238,59.5082 183.98,58.0551 Q184.6363,56.602 185.9175,55.8207 Q187.1988,55.0395 189.0738,55.0395 Q189.9644,55.0395 190.6363,55.227 Q191.3081,55.3989 191.9956,55.7426 L191.1831,57.7582 Q190.5581,57.4457 190.0113,57.3207 Q189.48,57.1957 188.9956,57.1957 Q187.8238,57.1957 187.1206,57.727 Q186.4175,58.2582 186.1206,59.2114 Q185.8238,60.1645 185.8238,61.4301 Q185.8238,63.4457 186.5425,64.4145 Q187.2613,65.3676 188.855,65.3676 Q189.4488,65.3676 190.0738,65.2114 Q190.6988,65.0551 191.5269,64.6801 L191.5269,66.8989 Q190.7925,67.2114 189.9956,67.3676 Q189.2144,67.5239 188.4488,67.5239 Z " fill="#000000"/><text fill="#000000" font-family="sans-serif" font-size="14" lengthAdjust="spacing" textLength="46.5638" x="202.98" y="66.034">go-uefi</text><text fill="#000000" font-family="sans-serif" font-size="10" lengthAdjust="spacing" textLength="139.5199" x="249.5438" y="67.2059">github.com/Foxboron/go-uefi</text></g><!--class go.pinentry--><g class="entity" data-entity="go.pinentry" data-source-line="31" data-uid="ent0014" id="entity_go.pinentry"><rect fill="#F1F1F1" height="32" rx="2.5" ry="2.5" style="stroke:#181818;stroke-width:0.5;" width="265.2956" x="150.38" y="312.602"/><ellipse cx="165.38" cy="328.602" fill="#ADD1B2" rx="11" ry="11" style="stroke:#181818;stroke-width:1;"/><path d="M164.8488,335.5239 Q163.0988,335.5239 161.9581,334.7895 Q160.8331,334.0395 160.2706,332.6957 Q159.7238,331.3364 159.7238,329.5395 Q159.7238,327.5082 160.38,326.0551 Q161.0363,324.602 162.3175,323.8207 Q163.5988,323.0395 165.4738,323.0395 Q166.3644,323.0395 167.0363,323.227 Q167.7081,323.3989 168.3956,323.7426 L167.5831,325.7582 Q166.9581,325.4457 166.4113,325.3207 Q165.88,325.1957 165.3956,325.1957 Q164.2238,325.1957 163.5206,325.727 Q162.8175,326.2582 162.5206,327.2114 Q162.2238,328.1645 162.2238,329.4301 Q162.2238,331.4457 162.9425,332.4145 Q163.6613,333.3676 165.255,333.3676 Q165.8488,333.3676 166.4738,333.2114 Q167.0988,333.0551 167.9269,332.6801 L167.9269,334.8989 Q167.1925,335.2114 166.3956,335.3676 Q165.6144,335.5239 164.8488,335.5239 Z " fill="#000000"/><text fill="#000000" font-family="sans-serif" font-size="14" lengthAdjust="spacing" textLength="76.9857" x="179.38" y="334.034">go-pinentry</text><text fill="#000000" font-family="sans-serif" font-size="10" lengthAdjust="spacing" textLength="156.3099" x="256.3657" y="335.2059">github.com/twpayne/go-pinentry</text></g><!--class cobra--><g class="entity" data-entity="cobra" data-source-line="32" data-uid="ent0015" id="entity_cobra"><rect fill="#F1F1F1" height="32" rx="2.5" ry="2.5" style="stroke:#181818;stroke-width:0.5;" width="183.1658" x="191.44" y="245.602"/><ellipse cx="206.44" cy="261.602" fill="#ADD1B2" rx="11" ry="11" style="stroke:#181818;stroke-width:1;"/><path d="M205.9088,268.5239 Q204.1588,268.5239 203.0181,267.7895 Q201.8931,267.0395 201.3306,265.6957 Q200.7838,264.3364 200.7838,262.5395 Q200.7838,260.5082 201.44,259.0551 Q202.0963,257.602 203.3775,256.8207 Q204.6588,256.0395 206.5338,256.0395 Q207.4244,256.0395 208.0963,256.227 Q208.7681,256.3989 209.4556,256.7426 L208.6431,258.7582 Q208.0181,258.4457 207.4713,258.3207 Q206.94,258.1957 206.4556,258.1957 Q205.2838,258.1957 204.5806,258.727 Q203.8775,259.2582 203.5806,260.2114 Q203.2838,261.1645 203.2838,262.4301 Q203.2838,264.4457 204.0025,265.4145 Q204.7213,266.3676 206.315,266.3676 Q206.9088,266.3676 207.5338,266.2114 Q208.1588,266.0551 208.9869,265.6801 L208.9869,267.8989 Q208.2525,268.2114 207.4556,268.3676 Q206.6744,268.5239 205.9088,268.5239 Z " fill="#000000"/><text fill="#000000" font-family="sans-serif" font-size="14" lengthAdjust="spacing" textLength="37.4359" x="220.44" y="267.034">cobra</text><text fill="#000000" font-family="sans-serif" font-size="10" lengthAdjust="spacing" textLength="113.7299" x="257.8759" y="268.2059">github.com/spf13/cobra</text></g><!--class age.plugin.yubikey--><g class="entity" data-entity="age.plugin.yubikey" data-source-line="34" data-uid="ent0016" id="entity_age.plugin.yubikey"><rect fill="#F1F1F1" height="32" rx="2.5" ry="2.5" style="stroke:#181818;stroke-width:0.5;" width="312.9075" x="126.57" y="178.602"/><ellipse cx="141.57" cy="194.602" fill="#ADD1B2" rx="11" ry="11" style="stroke:#181818;stroke-width:1;"/><path d="M141.0388,201.5239 Q139.2888,201.5239 138.1481,200.7895 Q137.0231,200.0395 136.4606,198.6957 Q135.9138,197.3364 135.9138,195.5395 Q135.9138,193.5082 136.57,192.0551 Q137.2263,190.602 138.5075,189.8207 Q139.7888,189.0395 141.6638,189.0395 Q142.5544,189.0395 143.2263,189.227 Q143.8981,189.3989 144.5856,189.7426 L143.7731,191.7582 Q143.1481,191.4457 142.6013,191.3207 Q142.07,191.1957 141.5856,191.1957 Q140.4138,191.1957 139.7106,191.727 Q139.0075,192.2582 138.7106,193.2114 Q138.4138,194.1645 138.4138,195.4301 Q138.4138,197.4457 139.1325,198.4145 Q139.8513,199.3676 141.445,199.3676 Q142.0388,199.3676 142.6638,199.2114 Q143.2888,199.0551 144.1169,198.6801 L144.1169,200.8989 Q143.3825,201.2114 142.5856,201.3676 Q141.8044,201.5239 141.0388,201.5239 Z " fill="#000000"/><text fill="#000000" font-family="sans-serif" font-size="14" lengthAdjust="spacing" textLength="101.8776" x="155.57" y="200.034">age-plugin-tpm</text><text fill="#000000" font-family="sans-serif" font-size="10" lengthAdjust="spacing" textLength="179.0298" x="257.4476" y="201.2059">github.com/Foxboron/age-plugin-tpm</text></g><!--class age--><g class="entity" data-entity="age" data-source-line="35" data-uid="ent0017" id="entity_age"><rect fill="#F1F1F1" height="32" rx="2.5" ry="2.5" style="stroke:#181818;stroke-width:0.5;" width="118.3199" x="223.87" y="379.602"/><ellipse cx="238.87" cy="395.602" fill="#ADD1B2" rx="11" ry="11" style="stroke:#181818;stroke-width:1;"/><path d="M238.3388,402.5239 Q236.5888,402.5239 235.4481,401.7895 Q234.3231,401.0395 233.7606,399.6957 Q233.2138,398.3364 233.2138,396.5395 Q233.2138,394.5082 233.87,393.0551 Q234.5263,391.602 235.8075,390.8207 Q237.0888,390.0395 238.9638,390.0395 Q239.8544,390.0395 240.5263,390.227 Q241.1981,390.3989 241.8856,390.7426 L241.0731,392.7582 Q240.4481,392.4457 239.9013,392.3207 Q239.37,392.1957 238.8856,392.1957 Q237.7138,392.1957 237.0106,392.727 Q236.3075,393.2582 236.0106,394.2114 Q235.7138,395.1645 235.7138,396.4301 Q235.7138,398.4457 236.4325,399.4145 Q237.1513,400.3676 238.745,400.3676 Q239.3388,400.3676 239.9638,400.2114 Q240.5888,400.0551 241.4169,399.6801 L241.4169,401.8989 Q240.6825,402.2114 239.8856,402.3676 Q239.1044,402.5239 238.3388,402.5239 Z " fill="#000000"/><text fill="#000000" font-family="sans-serif" font-size="14" lengthAdjust="spacing" textLength="24.3599" x="252.87" y="401.034">age</text><text fill="#000000" font-family="sans-serif" font-size="10" lengthAdjust="spacing" textLength="61.96" x="277.2299" y="402.2059">filippo.io/age</text></g><!--link ssh.tpm.agent to ssh.tpm.ca.authority--><g class="link" data-entity-1="ssh.tpm.agent" data-entity-2="ssh.tpm.ca.authority" data-source-line="38" data-uid="lnk18" id="link_ssh.tpm.agent_ssh.tpm.ca.authority"><path codeLine="38" d="M367.25,910.112 C406.29,898.772 412.0422,889.0944 372.9722,877.7544" fill="none" id="ssh.tpm.agent-to-ssh.tpm.ca.authority" style="stroke:#181818;stroke-width:1;"/><polygon fill="#181818" points="367.21,876.082,374.7383,882.4321,372.0118,877.4757,376.9683,874.7492,367.21,876.082" style="stroke:#181818;stroke-width:1;"/></g><!--link ssh.tpm.ca.authority to ssh.tpm.agent--><g class="link" data-entity-1="ssh.tpm.ca.authority" data-entity-2="ssh.tpm.agent" data-source-line="44" data-uid="lnk22" id="link_ssh.tpm.ca.authority_ssh.tpm.agent"><path codeLine="44" d="M198.84,876.082 C159.77,887.422 153.9982,897.0983 193.0382,908.4383" fill="none" id="ssh.tpm.ca.authority-to-ssh.tpm.agent" style="stroke:#181818;stroke-width:1;"/><polygon fill="#181818" points="198.8,910.112,191.273,903.7603,193.9985,908.7173,189.0415,911.4427,198.8,910.112" style="stroke:#181818;stroke-width:1;"/></g><!--link ssh.tpm.agent to go.tpm.keyfiles--><g class="link" data-entity-1="ssh.tpm.agent" data-entity-2="go.tpm.keyfiles" data-source-line="39" data-uid="lnk19" id="link_ssh.tpm.agent_go.tpm.keyfiles"><path codeLine="39" d="M131.34,931.122 C94.75,923.712 60.88,907.432 42.31,875.102 C16.29,829.802 59.7428,809.684 120.4128,800.144" fill="none" id="ssh.tpm.agent-to-go.tpm.keyfiles" style="stroke:#181818;stroke-width:1;"/><polygon fill="#181818" points="126.34,799.212,116.8279,796.6586,121.4007,799.9887,118.0706,804.5614,126.34,799.212" style="stroke:#181818;stroke-width:1;"/></g><!--link ssh.tpm.agent to go.tpm--><g class="link" data-entity-1="ssh.tpm.agent" data-entity-2="go.tpm" data-source-line="40" data-uid="lnk20" id="link_ssh.tpm.agent_go.tpm"><path codeLine="40" d="M131.34,931.122 C94.75,923.712 60.88,907.432 42.31,875.102 C6,811.892 6,774.312 42.31,711.102 C69.91,663.052 120.8838,640.4817 172.3838,628.5917" fill="none" id="ssh.tpm.agent-to-go.tpm" style="stroke:#181818;stroke-width:1;"/><polygon fill="#181818" points="178.23,627.242,168.5609,625.3691,173.3582,628.3668,170.3605,633.1641,178.23,627.242" style="stroke:#181818;stroke-width:1;"/></g><!--link ssh.tpm.agent to go.tpm.tools--><g class="link" data-entity-1="ssh.tpm.agent" data-entity-2="go.tpm.tools" data-source-line="41" data-uid="lnk21" id="link_ssh.tpm.agent_go.tpm.tools"><path codeLine="41" d="M131.34,931.122 C94.75,923.712 60.88,907.432 42.31,875.102 C11.87,822.112 11.87,653.092 42.31,600.102 C63.49,563.232 98.625,548.0527 140.935,542.2827" fill="none" id="ssh.tpm.agent-to-go.tpm.tools" style="stroke:#181818;stroke-width:1;"/><polygon fill="#181818" points="146.88,541.472,137.422,538.7248,141.9259,542.1476,138.503,546.6514,146.88,541.472" style="stroke:#181818;stroke-width:1;"/></g><!--link ssh.tpm.ca.authority to go.tpm.keyfiles--><g class="link" data-entity-1="ssh.tpm.ca.authority" data-entity-2="go.tpm.keyfiles" data-source-line="45" data-uid="lnk23" id="link_ssh.tpm.ca.authority_go.tpm.keyfiles"><path codeLine="45" d="M283.02,843.112 C283.02,831.672 283.02,826.222 283.02,814.782" fill="none" id="ssh.tpm.ca.authority-to-go.tpm.keyfiles" style="stroke:#181818;stroke-width:1;"/><polygon fill="#181818" points="283.02,808.782,279.02,817.782,283.02,813.782,287.02,817.782,283.02,808.782" style="stroke:#181818;stroke-width:1;"/></g><!--link ssh.tpm.ca.authority to go.tpm--><g class="link" data-entity-1="ssh.tpm.ca.authority" data-entity-2="go.tpm" data-source-line="46" data-uid="lnk24" id="link_ssh.tpm.ca.authority_go.tpm"><path codeLine="46" d="M95.93,853.412 C73.76,843.992 54.65,829.592 42.31,808.102 C20.84,770.722 20.84,748.482 42.31,711.102 C69.91,663.052 120.8838,640.4817 172.3838,628.5917" fill="none" id="ssh.tpm.ca.authority-to-go.tpm" style="stroke:#181818;stroke-width:1;"/><polygon fill="#181818" points="178.23,627.242,168.5609,625.3691,173.3582,628.3668,170.3605,633.1641,178.23,627.242" style="stroke:#181818;stroke-width:1;"/></g><!--link ssh.tpm.ca.authority to go.tpm.tools--><g class="link" data-entity-1="ssh.tpm.ca.authority" data-entity-2="go.tpm.tools" data-source-line="47" data-uid="lnk25" id="link_ssh.tpm.ca.authority_go.tpm.tools"><path codeLine="47" d="M95.93,853.412 C73.76,843.992 54.65,829.592 42.31,808.102 C19.29,768.022 19.29,640.182 42.31,600.102 C63.49,563.232 98.625,548.0527 140.935,542.2827" fill="none" id="ssh.tpm.ca.authority-to-go.tpm.tools" style="stroke:#181818;stroke-width:1;"/><polygon fill="#181818" points="146.88,541.472,137.422,538.7248,141.9259,542.1476,138.503,546.6514,146.88,541.472" style="stroke:#181818;stroke-width:1;"/></g><!--link go.tpm.keyfiles to swtpm.test--><g class="link" data-entity-1="go.tpm.keyfiles" data-entity-2="swtpm.test" data-source-line="49" data-uid="lnk26" id="link_go.tpm.keyfiles_swtpm.test"><path codeLine="49" d="M283.02,776.112 C283.02,764.672 283.02,759.222 283.02,747.782" fill="none" id="go.tpm.keyfiles-to-swtpm.test" style="stroke:#181818;stroke-width:1;"/><polygon fill="#181818" points="283.02,741.782,279.02,750.782,283.02,746.782,287.02,750.782,283.02,741.782" style="stroke:#181818;stroke-width:1;"/></g><!--link go.tpm.keyfiles to go.tpm--><g class="link" data-entity-1="go.tpm.keyfiles" data-entity-2="go.tpm" data-source-line="50" data-uid="lnk27" id="link_go.tpm.keyfiles_go.tpm"><path codeLine="50" d="M126.02,795.972 C91.49,788.092 59.97,771.862 42.31,741.102 C6.63,678.982 92.299,647.5711 172.569,631.3411" fill="none" id="go.tpm.keyfiles-to-go.tpm" style="stroke:#181818;stroke-width:1;"/><polygon fill="#181818" points="178.45,630.152,168.8358,628.015,173.5492,631.1429,170.4212,635.8563,178.45,630.152" style="stroke:#181818;stroke-width:1;"/></g><!--link age.plugin.yubikey to age--><g class="link" data-entity-1="age.plugin.yubikey" data-entity-2="age" data-source-line="52" data-uid="lnk28" id="link_age.plugin.yubikey_age"><path codeLine="52" d="M126.33,191.162 C91.68,199.022 60.03,215.252 42.31,246.102 C20.61,283.872 20.61,306.332 42.31,344.102 C76.79,404.142 158.0484,409.2812 217.4584,404.6212" fill="none" id="age.plugin.yubikey-to-age" style="stroke:#181818;stroke-width:1;"/><polygon fill="#181818" points="223.44,404.152,214.1548,400.868,218.4553,404.543,214.7804,408.8435,223.44,404.152" style="stroke:#181818;stroke-width:1;"/></g><!--link age.plugin.yubikey to swtpm.test--><g class="link" data-entity-1="age.plugin.yubikey" data-entity-2="swtpm.test" data-source-line="53" data-uid="lnk29" id="link_age.plugin.yubikey_swtpm.test"><path codeLine="53" d="M126.33,191.162 C91.68,199.022 60.03,215.252 42.31,246.102 C21.06,283.102 21.06,593.102 42.31,630.102 C66.6,672.402 107.7809,694.3535 153.8009,707.5035" fill="none" id="age.plugin.yubikey-to-swtpm.test" style="stroke:#181818;stroke-width:1;"/><polygon fill="#181818" points="159.57,709.152,152.0154,702.8332,154.7624,707.7782,149.8174,710.5253,159.57,709.152" style="stroke:#181818;stroke-width:1;"/></g><!--link age.plugin.yubikey to go.tpm--><g class="link" data-entity-1="age.plugin.yubikey" data-entity-2="go.tpm" data-source-line="54" data-uid="lnk30" id="link_age.plugin.yubikey_go.tpm"><path codeLine="54" d="M126.33,191.162 C91.68,199.022 60.03,215.252 42.31,246.102 C7.11,307.382 7.11,502.822 42.31,564.102 C68.75,610.152 120.2331,623.4388 172.3931,625.1188" fill="none" id="age.plugin.yubikey-to-go.tpm" style="stroke:#181818;stroke-width:1;"/><polygon fill="#181818" points="178.39,625.312,169.5234,621.0243,173.3926,625.151,169.2659,629.0202,178.39,625.312" style="stroke:#181818;stroke-width:1;"/></g><!--link age.plugin.yubikey to go.tpm.tools--><g class="link" data-entity-1="age.plugin.yubikey" data-entity-2="go.tpm.tools" data-source-line="55" data-uid="lnk31" id="link_age.plugin.yubikey_go.tpm.tools"><path codeLine="55" d="M126.33,191.162 C91.68,199.022 60.03,215.252 42.31,246.102 C14.53,294.472 14.53,448.732 42.31,497.102 C63.49,533.972 98.625,549.1512 140.935,554.9212" fill="none" id="age.plugin.yubikey-to-go.tpm.tools" style="stroke:#181818;stroke-width:1;"/><polygon fill="#181818" points="146.88,555.732,138.503,550.5526,141.9259,555.0564,137.422,558.4792,146.88,555.732" style="stroke:#181818;stroke-width:1;"/></g><!--link age.plugin.yubikey to go.pinentry--><g class="link" data-entity-1="age.plugin.yubikey" data-entity-2="go.pinentry" data-source-line="56" data-uid="lnk32" id="link_age.plugin.yubikey_go.pinentry"><path codeLine="56" d="M126.34,201.212 C65.67,210.752 16.29,231.802 42.31,277.102 C64.02,314.902 100.6858,330.0117 144.1158,335.4117" fill="none" id="age.plugin.yubikey-to-go.pinentry" style="stroke:#181818;stroke-width:1;"/><polygon fill="#181818" points="150.07,336.152,141.6323,331.0721,145.1082,335.535,140.6452,339.0109,150.07,336.152" style="stroke:#181818;stroke-width:1;"/></g><!--link age.plugin.yubikey to cobra--><g class="link" data-entity-1="age.plugin.yubikey" data-entity-2="cobra" data-source-line="57" data-uid="lnk33" id="link_age.plugin.yubikey_cobra"><path codeLine="57" d="M283.02,210.782 C283.02,222.222 283.02,227.672 283.02,239.112" fill="none" id="age.plugin.yubikey-to-cobra" style="stroke:#181818;stroke-width:1;"/><polygon fill="#181818" points="283.02,245.112,287.02,236.112,283.02,240.112,279.02,236.112,283.02,245.112" style="stroke:#181818;stroke-width:1;"/></g><!--link sbctl to go.uefi--><g class="link" data-entity-1="sbctl" data-entity-2="go.uefi" data-source-line="59" data-uid="lnk34" id="link_sbctl_go.uefi"><path codeLine="59" d="M283.02,111.112 C283.02,99.672 283.02,94.222 283.02,82.782" fill="none" id="sbctl-to-go.uefi" style="stroke:#181818;stroke-width:1;"/><polygon fill="#181818" points="283.02,76.782,279.02,85.782,283.02,81.782,287.02,85.782,283.02,76.782" style="stroke:#181818;stroke-width:1;"/></g><!--link sbctl to go.tpm--><g class="link" data-entity-1="sbctl" data-entity-2="go.tpm" data-source-line="60" data-uid="lnk35" id="link_sbctl_go.tpm"><path codeLine="60" d="M187.15,117.722 C132.81,118.162 70.24,130.462 42.31,179.102 C21,216.192 21,527.012 42.31,564.102 C68.75,610.152 120.2331,623.4388 172.3931,625.1188" fill="none" id="sbctl-to-go.tpm" style="stroke:#181818;stroke-width:1;"/><polygon fill="#181818" points="178.39,625.312,169.5234,621.0243,173.3926,625.151,169.2659,629.0202,178.39,625.312" style="stroke:#181818;stroke-width:1;"/></g><!--link sbctl to go.tpm.keyfiles--><g class="link" data-entity-1="sbctl" data-entity-2="go.tpm.keyfiles" data-source-line="61" data-uid="lnk36" id="link_sbctl_go.tpm.keyfiles"><path codeLine="61" d="M187.15,117.722 C132.81,118.162 70.24,130.462 42.31,179.102 C11.21,233.252 11.21,686.952 42.31,741.102 C59.97,771.862 85.6404,786.7571 120.1704,794.6371" fill="none" id="sbctl-to-go.tpm.keyfiles" style="stroke:#181818;stroke-width:1;"/><polygon fill="#181818" points="126.02,795.972,118.1355,790.0699,121.1453,794.8595,116.3556,797.8693,126.02,795.972" style="stroke:#181818;stroke-width:1;"/></g><!--link sbctl to go.attestation--><g class="link" data-entity-1="sbctl" data-entity-2="go.attestation" data-source-line="62" data-uid="lnk37" id="link_sbctl_go.attestation"><path codeLine="62" d="M187.15,117.722 C132.81,118.162 70.24,130.462 42.31,179.102 C16.63,223.812 16.63,366.392 42.31,411.102 C62.69,446.602 94.7427,464.103 134.5027,473.853" fill="none" id="sbctl-to-go.attestation" style="stroke:#181818;stroke-width:1;"/><polygon fill="#181818" points="140.33,475.282,132.5416,469.2536,135.4739,474.0912,130.6363,477.0234,140.33,475.282" style="stroke:#181818;stroke-width:1;"/></g><!--SRC=[ZLHBZjmW4Drp2ZIRMTdTdMGLHRtC1NA026DieyOKCbWTPpHtJu4_Wtl0dPrvzUhLtqeqZZgWWsmxHsiv2EuaQF9gRr8RDh2UQgY55OPUpZ4wC7tpw9Sp8HzenVYj7M3KDGS50tL8isWIsX4h7DMi5_ZcufVm3Wuf6hGWdQm55Rrn4ssaKBMDaLwu3X0YcpTj0Lebw1kXb2jcBNtvOULVyVtoxTf2uKo_FC_NLhfkh4eE_MbsEis45yeiofJuIT_Uipg50r3sgTfCYpJB06ILcNF2EkPRVQmT4LVr2FBwxt5VGZM9aDPs8KtMuYHI4N_2dme6qASTCuH495GKa7H5gnDd1HjnM8Dqqtz5YHrsmJWhDyFXV6vYQgGIzZ3S0pUUqufb2hiZvxVlzt4v6sqkuXus09_BWA89ZQAHwH5LtAdZA9un1_1VsRRu4C_QuJbh6-QKGg89DICrpdr8pjFT3PjqMDILjegkRo_ygCgX6bXApvhcylKKp44dV7c5JnAuZ8LHOojrxjgtQlVKe8jGEKFbD5OITo2L9h8sOTmHQGoK4hpUAX9I8_i3AQx99VxCUbZ0727h6Fumv1MVXMAwLi1l7xdixYTAAOXaMRcKqhndCdE2vF7GV3RRWQIiYpf9J0cjY6OiaMgQi0WV6PUaivHrhJECiB0uXN2ViuU_hXqGEhT_HnsF3D6Fdlm3]--></g></svg>