<?xml version="1.0" encoding="UTF-8" standalone="no"?>
<!DOCTYPE svg PUBLIC "-//W3C//DTD SVG 1.1//EN"
 "http://www.w3.org/Graphics/SVG/1.1/DTD/svg11.dtd">
<!-- Generated by graphviz version 7.0.1 (20221109.1506)
 -->
<!-- Title: Protobuf UML class diagram Pages: 1 -->
<svg width="6576pt" height="384pt"
 viewBox="0.00 0.00 6576.00 384.00" xmlns="http://www.w3.org/2000/svg" xmlns:xlink="http://www.w3.org/1999/xlink">
<g id="graph0" class="graph" transform="scale(1 1) rotate(0) translate(4 380)">
<title>Protobuf UML class diagram</title>
<polygon fill="white" stroke="none" points="-4,4 -4,-380 6572,-380 6572,4 -4,4"/>
<!-- linkedca.LoginRequest -->
<g id="node1" class="node">
<title>linkedca.LoginRequest</title>
<polygon fill="#f2f2f2" stroke="black" points="0,-305.5 0,-357.5 229,-357.5 229,-305.5 0,-305.5"/>
<text text-anchor="middle" x="114.5" y="-347.1" font-family="Bitstream Vera Sans" font-size="8.00">linkedca.LoginRequest</text>
<polyline fill="none" stroke="black" points="0,-340.5 229,-340.5"/>
<text text-anchor="middle" x="114.5" y="-330.1" font-family="Bitstream Vera Sans" font-size="8.00">+ linkedca.LoginRequest.authority_id:string</text>
<text text-anchor="middle" x="114.5" y="-321.1" font-family="Bitstream Vera Sans" font-size="8.00">+ linkedca.LoginRequest.token:string</text>
<text text-anchor="middle" x="114.5" y="-312.1" font-family="Bitstream Vera Sans" font-size="8.00">+ linkedca.LoginRequest.pem_certificate_request:string</text>
</g>
<!-- linkedca.LoginResponse -->
<g id="node2" class="node">
<title>linkedca.LoginResponse</title>
<polygon fill="#f2f2f2" stroke="black" points="247.5,-310 247.5,-353 473.5,-353 473.5,-310 247.5,-310"/>
<text text-anchor="middle" x="360.5" y="-342.6" font-family="Bitstream Vera Sans" font-size="8.00">linkedca.LoginResponse</text>
<polyline fill="none" stroke="black" points="247.5,-336 473.5,-336"/>
<text text-anchor="middle" x="360.5" y="-325.6" font-family="Bitstream Vera Sans" font-size="8.00">+ linkedca.LoginResponse.pem_certificate:string</text>
<text text-anchor="middle" x="360.5" y="-316.6" font-family="Bitstream Vera Sans" font-size="8.00">+ linkedca.LoginResponse.pem_certificate_chain:string</text>
</g>
<!-- linkedca.GetRootCertificateRequest -->
<g id="node3" class="node">
<title>linkedca.GetRootCertificateRequest</title>
<polygon fill="#f2f2f2" stroke="black" points="491.5,-313.5 491.5,-349.5 717.5,-349.5 717.5,-313.5 491.5,-313.5"/>
<text text-anchor="middle" x="604.5" y="-338.6" font-family="Bitstream Vera Sans" font-size="8.00">linkedca.GetRootCertificateRequest</text>
<polyline fill="none" stroke="black" points="491.5,-331.5 717.5,-331.5"/>
<text text-anchor="middle" x="604.5" y="-320.6" font-family="Bitstream Vera Sans" font-size="8.00">+ linkedca.GetRootCertificateRequest.fingerprint:string</text>
</g>
<!-- linkedca.GetRootCertificateResponse -->
<g id="node4" class="node">
<title>linkedca.GetRootCertificateResponse</title>
<polygon fill="#f2f2f2" stroke="black" points="735.5,-313.5 735.5,-349.5 983.5,-349.5 983.5,-313.5 735.5,-313.5"/>
<text text-anchor="middle" x="859.5" y="-338.6" font-family="Bitstream Vera Sans" font-size="8.00">linkedca.GetRootCertificateResponse</text>
<polyline fill="none" stroke="black" points="735.5,-331.5 983.5,-331.5"/>
<text text-anchor="middle" x="859.5" y="-320.6" font-family="Bitstream Vera Sans" font-size="8.00">+ linkedca.GetRootCertificateResponse.pem_certificate:string</text>
</g>
<!-- linkedca.ConfigurationRequest -->
<g id="node5" class="node">
<title>linkedca.ConfigurationRequest</title>
<polygon fill="#f2f2f2" stroke="black" points="1001.5,-313.5 1001.5,-349.5 1215.5,-349.5 1215.5,-313.5 1001.5,-313.5"/>
<text text-anchor="middle" x="1108.5" y="-338.6" font-family="Bitstream Vera Sans" font-size="8.00">linkedca.ConfigurationRequest</text>
<polyline fill="none" stroke="black" points="1001.5,-331.5 1215.5,-331.5"/>
<text text-anchor="middle" x="1108.5" y="-320.6" font-family="Bitstream Vera Sans" font-size="8.00">+ linkedca.ConfigurationRequest.authority_id:string</text>
</g>
<!-- linkedca.ConfigurationResponse -->
<g id="node6" class="node">
<title>linkedca.ConfigurationResponse</title>
<polygon fill="#f2f2f2" stroke="black" points="1147.5,-176 1147.5,-237 1473.5,-237 1473.5,-176 1147.5,-176"/>
<text text-anchor="middle" x="1310.5" y="-226.6" font-family="Bitstream Vera Sans" font-size="8.00">linkedca.ConfigurationResponse</text>
<polyline fill="none" stroke="black" points="1147.5,-220 1473.5,-220"/>
<text text-anchor="middle" x="1310.5" y="-209.6" font-family="Bitstream Vera Sans" font-size="8.00">+ linkedca.ConfigurationResponse.provisioners:linkedca.Provisioner</text>
<text text-anchor="middle" x="1310.5" y="-200.6" font-family="Bitstream Vera Sans" font-size="8.00">+ linkedca.ConfigurationResponse.admins:linkedca.Admin</text>
<text text-anchor="middle" x="1310.5" y="-191.6" font-family="Bitstream Vera Sans" font-size="8.00">+ linkedca.ConfigurationResponse.ra_config:linkedca.RegistrationAuthorityConfig</text>
<text text-anchor="middle" x="1310.5" y="-182.6" font-family="Bitstream Vera Sans" font-size="8.00">+ linkedca.ConfigurationResponse.server_config:linkedca.ServerConfiguration</text>
</g>
<!-- linkedca.ServerConfiguration -->
<g id="node7" class="node">
<title>linkedca.ServerConfiguration</title>
<polygon fill="#f2f2f2" stroke="black" points="1069.5,-78 1069.5,-121 1273.5,-121 1273.5,-78 1069.5,-78"/>
<text text-anchor="middle" x="1171.5" y="-110.6" font-family="Bitstream Vera Sans" font-size="8.00">linkedca.ServerConfiguration</text>
<polyline fill="none" stroke="black" points="1069.5,-104 1273.5,-104"/>
<text text-anchor="middle" x="1171.5" y="-93.6" font-family="Bitstream Vera Sans" font-size="8.00">+ linkedca.ServerConfiguration.address:string</text>
<text text-anchor="middle" x="1171.5" y="-84.6" font-family="Bitstream Vera Sans" font-size="8.00">+ linkedca.ServerConfiguration.dns_names:string</text>
</g>
<!-- linkedca.ConfigurationResponse&#45;&gt;linkedca.ServerConfiguration -->
<g id="edge4" class="edge">
<title>linkedca.ConfigurationResponse&#45;&gt;linkedca.ServerConfiguration</title>
<path fill="none" stroke="black" d="M1271.78,-176.25C1248.49,-158.65 1219.41,-136.69 1198.57,-120.95"/>
<text text-anchor="middle" x="1196.07" y="-123.55" font-family="Bitstream Vera Sans" font-size="8.00">1</text>
<text text-anchor="middle" x="1269.28" y="-169.85" font-family="Bitstream Vera Sans" font-size="8.00">1</text>
</g>
<!-- linkedca.RegistrationAuthorityConfig -->
<g id="node8" class="node">
<title>linkedca.RegistrationAuthorityConfig</title>
<polygon fill="#f2f2f2" stroke="black" points="1292,-73.5 1292,-125.5 1609,-125.5 1609,-73.5 1292,-73.5"/>
<text text-anchor="middle" x="1450.5" y="-115.1" font-family="Bitstream Vera Sans" font-size="8.00">linkedca.RegistrationAuthorityConfig</text>
<polyline fill="none" stroke="black" points="1292,-108.5 1609,-108.5"/>
<text text-anchor="middle" x="1450.5" y="-98.1" font-family="Bitstream Vera Sans" font-size="8.00">+ linkedca.RegistrationAuthorityConfig.ca_url:string</text>
<text text-anchor="middle" x="1450.5" y="-89.1" font-family="Bitstream Vera Sans" font-size="8.00">+ linkedca.RegistrationAuthorityConfig.fingerprint:string</text>
<text text-anchor="middle" x="1450.5" y="-80.1" font-family="Bitstream Vera Sans" font-size="8.00">+ linkedca.RegistrationAuthorityConfig.provisioner:linkedca.ProvisionerIdentity</text>
</g>
<!-- linkedca.ConfigurationResponse&#45;&gt;linkedca.RegistrationAuthorityConfig -->
<g id="edge3" class="edge">
<title>linkedca.ConfigurationResponse&#45;&gt;linkedca.RegistrationAuthorityConfig</title>
<path fill="none" stroke="black" d="M1349.5,-176.25C1370.86,-160.23 1397.04,-140.59 1417.4,-125.33"/>
<text text-anchor="middle" x="1414.9" y="-127.93" font-family="Bitstream Vera Sans" font-size="8.00">1</text>
<text text-anchor="middle" x="1347" y="-169.85" font-family="Bitstream Vera Sans" font-size="8.00">1</text>
</g>
<!-- linkedca.ProvisionerIdentity -->
<g id="node37" class="node">
<title>linkedca.ProvisionerIdentity</title>
<polygon fill="#f2f2f2" stroke="black" points="666.5,-0.5 666.5,-36.5 788.5,-36.5 788.5,-0.5 666.5,-0.5"/>
<text text-anchor="middle" x="727.5" y="-16.6" font-family="Bitstream Vera Sans" font-size="8.00">linkedca.ProvisionerIdentity</text>
</g>
<!-- linkedca.RegistrationAuthorityConfig&#45;&gt;linkedca.ProvisionerIdentity -->
<g id="edge5" class="edge">
<title>linkedca.RegistrationAuthorityConfig&#45;&gt;linkedca.ProvisionerIdentity</title>
<path fill="none" stroke="black" d="M1292.25,-74.23C1288.97,-73.81 1285.72,-73.4 1282.5,-73 1103.34,-50.78 890.66,-32.54 788.39,-24.28"/>
<text text-anchor="middle" x="790.89" y="-26.88" font-family="Bitstream Vera Sans" font-size="8.00">1</text>
<text text-anchor="middle" x="1289.75" y="-76.83" font-family="Bitstream Vera Sans" font-size="8.00">1</text>
</g>
<!-- linkedca.RegistrationAuthorityProvisioner -->
<g id="node9" class="node">
<title>linkedca.RegistrationAuthorityProvisioner</title>
<polygon fill="#f2f2f2" stroke="black" points="367.5,-78 367.5,-121 699.5,-121 699.5,-78 367.5,-78"/>
<text text-anchor="middle" x="533.5" y="-110.6" font-family="Bitstream Vera Sans" font-size="8.00">linkedca.RegistrationAuthorityProvisioner</text>
<polyline fill="none" stroke="black" points="367.5,-104 699.5,-104"/>
<text text-anchor="middle" x="533.5" y="-93.6" font-family="Bitstream Vera Sans" font-size="8.00">+ linkedca.RegistrationAuthorityProvisioner.authority_id:string</text>
<text text-anchor="middle" x="533.5" y="-84.6" font-family="Bitstream Vera Sans" font-size="8.00">+ linkedca.RegistrationAuthorityProvisioner.provisioner:linkedca.ProvisionerIdentity</text>
</g>
<!-- linkedca.RegistrationAuthorityProvisioner&#45;&gt;linkedca.ProvisionerIdentity -->
<g id="edge6" class="edge">
<title>linkedca.RegistrationAuthorityProvisioner&#45;&gt;linkedca.ProvisionerIdentity</title>
<path fill="none" stroke="black" d="M583.71,-78.05C615.48,-65.11 656.06,-48.59 686.01,-36.4"/>
<text text-anchor="middle" x="683.51" y="-39" font-family="Bitstream Vera Sans" font-size="8.00">1</text>
<text text-anchor="middle" x="581.21" y="-71.65" font-family="Bitstream Vera Sans" font-size="8.00">1</text>
</g>
<!-- linkedca.CreateProvisionerRequest -->
<g id="node10" class="node">
<title>linkedca.CreateProvisionerRequest</title>
<polygon fill="#f2f2f2" stroke="black" points="1439,-287.5 1439,-375.5 1726,-375.5 1726,-287.5 1439,-287.5"/>
<text text-anchor="middle" x="1582.5" y="-365.1" font-family="Bitstream Vera Sans" font-size="8.00">linkedca.CreateProvisionerRequest</text>
<polyline fill="none" stroke="black" points="1439,-358.5 1726,-358.5"/>
<text text-anchor="middle" x="1582.5" y="-348.1" font-family="Bitstream Vera Sans" font-size="8.00">+ linkedca.CreateProvisionerRequest.type:enum</text>
<text text-anchor="middle" x="1582.5" y="-339.1" font-family="Bitstream Vera Sans" font-size="8.00">+ linkedca.CreateProvisionerRequest.name:string</text>
<text text-anchor="middle" x="1582.5" y="-330.1" font-family="Bitstream Vera Sans" font-size="8.00">+ linkedca.CreateProvisionerRequest.details:linkedca.ProvisionerDetails</text>
<text text-anchor="middle" x="1582.5" y="-321.1" font-family="Bitstream Vera Sans" font-size="8.00">+ linkedca.CreateProvisionerRequest.claims:linkedca.Claims</text>
<text text-anchor="middle" x="1582.5" y="-312.1" font-family="Bitstream Vera Sans" font-size="8.00">+ linkedca.CreateProvisionerRequest.x509_template:linkedca.Template</text>
<text text-anchor="middle" x="1582.5" y="-303.1" font-family="Bitstream Vera Sans" font-size="8.00">+ linkedca.CreateProvisionerRequest.ssh_template:linkedca.Template</text>
<text text-anchor="middle" x="1582.5" y="-294.1" font-family="Bitstream Vera Sans" font-size="8.00">+ linkedca.CreateProvisionerRequest.preferred_id:string</text>
</g>
<!-- linkedca.ProvisionerDetails -->
<g id="node38" class="node">
<title>linkedca.ProvisionerDetails</title>
<polygon fill="#f2f2f2" stroke="black" points="1534,-188.5 1534,-224.5 1653,-224.5 1653,-188.5 1534,-188.5"/>
<text text-anchor="middle" x="1593.5" y="-204.6" font-family="Bitstream Vera Sans" font-size="8.00">linkedca.ProvisionerDetails</text>
</g>
<!-- linkedca.CreateProvisionerRequest&#45;&gt;linkedca.ProvisionerDetails -->
<g id="edge7" class="edge">
<title>linkedca.CreateProvisionerRequest&#45;&gt;linkedca.ProvisionerDetails</title>
<path fill="none" stroke="black" d="M1586.32,-287.83C1588.26,-266.04 1590.53,-240.76 1591.98,-224.47"/>
<text text-anchor="middle" x="1589.48" y="-227.07" font-family="Bitstream Vera Sans" font-size="8.00">1</text>
<text text-anchor="middle" x="1583.82" y="-281.43" font-family="Bitstream Vera Sans" font-size="8.00">1</text>
</g>
<!-- linkedca.Claims -->
<g id="node39" class="node">
<title>linkedca.Claims</title>
<polygon fill="#f2f2f2" stroke="black" points="1683.5,-188.5 1683.5,-224.5 1759.5,-224.5 1759.5,-188.5 1683.5,-188.5"/>
<text text-anchor="middle" x="1721.5" y="-204.6" font-family="Bitstream Vera Sans" font-size="8.00">linkedca.Claims</text>
</g>
<!-- linkedca.CreateProvisionerRequest&#45;&gt;linkedca.Claims -->
<g id="edge8" class="edge">
<title>linkedca.CreateProvisionerRequest&#45;&gt;linkedca.Claims</title>
<path fill="none" stroke="black" d="M1630.73,-287.83C1655.35,-266.04 1683.91,-240.76 1702.32,-224.47"/>
<text text-anchor="middle" x="1699.82" y="-227.07" font-family="Bitstream Vera Sans" font-size="8.00">1</text>
<text text-anchor="middle" x="1628.23" y="-281.43" font-family="Bitstream Vera Sans" font-size="8.00">1</text>
</g>
<!-- linkedca.Template -->
<g id="node40" class="node">
<title>linkedca.Template</title>
<polygon fill="#f2f2f2" stroke="black" points="1800.5,-188.5 1800.5,-224.5 1886.5,-224.5 1886.5,-188.5 1800.5,-188.5"/>
<text text-anchor="middle" x="1843.5" y="-204.6" font-family="Bitstream Vera Sans" font-size="8.00">linkedca.Template</text>
</g>
<!-- linkedca.CreateProvisionerRequest&#45;&gt;linkedca.Template -->
<g id="edge9" class="edge">
<title>linkedca.CreateProvisionerRequest&#45;&gt;linkedca.Template</title>
<path fill="none" stroke="black" d="M1680.54,-287.5C1706.46,-276.23 1734.23,-263.67 1759.5,-251 1775.65,-242.9 1793.14,-232.84 1808.09,-224.43"/>
<text text-anchor="middle" x="1805.59" y="-227.03" font-family="Bitstream Vera Sans" font-size="8.00">1</text>
<text text-anchor="middle" x="1678.04" y="-281.1" font-family="Bitstream Vera Sans" font-size="8.00">1</text>
</g>
<!-- linkedca.CreateProvisionerRequest&#45;&gt;linkedca.Template -->
<g id="edge10" class="edge">
<title>linkedca.CreateProvisionerRequest&#45;&gt;linkedca.Template</title>
<path fill="none" stroke="black" d="M1697.98,-287.5C1724.46,-276.23 1752.23,-263.67 1777.5,-251 1793.65,-242.9 1811.14,-232.84 1824.23,-224.43"/>
<text text-anchor="middle" x="1821.73" y="-227.03" font-family="Bitstream Vera Sans" font-size="8.00">1</text>
<text text-anchor="middle" x="1695.48" y="-281.1" font-family="Bitstream Vera Sans" font-size="8.00">1</text>
</g>
<!-- linkedca.GetProvisionerRequest -->
<g id="node11" class="node">
<title>linkedca.GetProvisionerRequest</title>
<polygon fill="#f2f2f2" stroke="black" points="2053.5,-313.5 2053.5,-349.5 2231.5,-349.5 2231.5,-313.5 2053.5,-313.5"/>
<text text-anchor="middle" x="2142.5" y="-338.6" font-family="Bitstream Vera Sans" font-size="8.00">linkedca.GetProvisionerRequest</text>
<polyline fill="none" stroke="black" points="2053.5,-331.5 2231.5,-331.5"/>
<text text-anchor="middle" x="2142.5" y="-320.6" font-family="Bitstream Vera Sans" font-size="8.00">+ linkedca.GetProvisionerRequest.id:string</text>
</g>
<!-- linkedca.UpdateProvisionerRequest -->
<g id="node12" class="node">
<title>linkedca.UpdateProvisionerRequest</title>
<polygon fill="#f2f2f2" stroke="black" points="1744,-292 1744,-371 2035,-371 2035,-292 1744,-292"/>
<text text-anchor="middle" x="1889.5" y="-360.6" font-family="Bitstream Vera Sans" font-size="8.00">linkedca.UpdateProvisionerRequest</text>
<polyline fill="none" stroke="black" points="1744,-354 2035,-354"/>
<text text-anchor="middle" x="1889.5" y="-343.6" font-family="Bitstream Vera Sans" font-size="8.00">+ linkedca.UpdateProvisionerRequest.id:string</text>
<text text-anchor="middle" x="1889.5" y="-334.6" font-family="Bitstream Vera Sans" font-size="8.00">+ linkedca.UpdateProvisionerRequest.name:string</text>
<text text-anchor="middle" x="1889.5" y="-325.6" font-family="Bitstream Vera Sans" font-size="8.00">+ linkedca.UpdateProvisionerRequest.details:linkedca.ProvisionerDetails</text>
<text text-anchor="middle" x="1889.5" y="-316.6" font-family="Bitstream Vera Sans" font-size="8.00">+ linkedca.UpdateProvisionerRequest.claims:linkedca.Claims</text>
<text text-anchor="middle" x="1889.5" y="-307.6" font-family="Bitstream Vera Sans" font-size="8.00">+ linkedca.UpdateProvisionerRequest.x509_template:linkedca.Template</text>
<text text-anchor="middle" x="1889.5" y="-298.6" font-family="Bitstream Vera Sans" font-size="8.00">+ linkedca.UpdateProvisionerRequest.ssh_template:linkedca.Template</text>
</g>
<!-- linkedca.UpdateProvisionerRequest&#45;&gt;linkedca.ProvisionerDetails -->
<g id="edge11" class="edge">
<title>linkedca.UpdateProvisionerRequest&#45;&gt;linkedca.ProvisionerDetails</title>
<path fill="none" stroke="black" d="M1776.45,-292.03C1743.22,-279.84 1707.06,-265.68 1674.5,-251 1656.89,-243.06 1637.83,-232.91 1622.63,-224.41"/>
<text text-anchor="middle" x="1620.13" y="-227.01" font-family="Bitstream Vera Sans" font-size="8.00">1</text>
<text text-anchor="middle" x="1773.95" y="-285.63" font-family="Bitstream Vera Sans" font-size="8.00">1</text>
</g>
<!-- linkedca.UpdateProvisionerRequest&#45;&gt;linkedca.Claims -->
<g id="edge12" class="edge">
<title>linkedca.UpdateProvisionerRequest&#45;&gt;linkedca.Claims</title>
<path fill="none" stroke="black" d="M1837.26,-292.26C1806.25,-269.55 1768.46,-241.88 1744.68,-224.47"/>
<text text-anchor="middle" x="1742.18" y="-227.07" font-family="Bitstream Vera Sans" font-size="8.00">1</text>
<text text-anchor="middle" x="1834.76" y="-285.86" font-family="Bitstream Vera Sans" font-size="8.00">1</text>
</g>
<!-- linkedca.UpdateProvisionerRequest&#45;&gt;linkedca.Template -->
<g id="edge13" class="edge">
<title>linkedca.UpdateProvisionerRequest&#45;&gt;linkedca.Template</title>
<path fill="none" stroke="black" d="M1868.9,-292.26C1859.49,-269.55 1849.63,-241.88 1845.02,-224.47"/>
<text text-anchor="middle" x="1842.52" y="-227.07" font-family="Bitstream Vera Sans" font-size="8.00">1</text>
<text text-anchor="middle" x="1866.4" y="-285.86" font-family="Bitstream Vera Sans" font-size="8.00">1</text>
</g>
<!-- linkedca.UpdateProvisionerRequest&#45;&gt;linkedca.Template -->
<g id="edge14" class="edge">
<title>linkedca.UpdateProvisionerRequest&#45;&gt;linkedca.Template</title>
<path fill="none" stroke="black" d="M1881.5,-292.26C1873.92,-269.55 1863.09,-241.88 1854.68,-224.47"/>
<text text-anchor="middle" x="1852.18" y="-227.07" font-family="Bitstream Vera Sans" font-size="8.00">1</text>
<text text-anchor="middle" x="1879" y="-285.86" font-family="Bitstream Vera Sans" font-size="8.00">1</text>
</g>
<!-- linkedca.DeleteProvisionerRequest -->
<g id="node13" class="node">
<title>linkedca.DeleteProvisionerRequest</title>
<polygon fill="#f2f2f2" stroke="black" points="2249.5,-313.5 2249.5,-349.5 2439.5,-349.5 2439.5,-313.5 2249.5,-313.5"/>
<text text-anchor="middle" x="2344.5" y="-338.6" font-family="Bitstream Vera Sans" font-size="8.00">linkedca.DeleteProvisionerRequest</text>
<polyline fill="none" stroke="black" points="2249.5,-331.5 2439.5,-331.5"/>
<text text-anchor="middle" x="2344.5" y="-320.6" font-family="Bitstream Vera Sans" font-size="8.00">+ linkedca.DeleteProvisionerRequest.id:string</text>
</g>
<!-- linkedca.CreateAdminRequest -->
<g id="node14" class="node">
<title>linkedca.CreateAdminRequest</title>
<polygon fill="#f2f2f2" stroke="black" points="2458,-301 2458,-362 2677,-362 2677,-301 2458,-301"/>
<text text-anchor="middle" x="2567.5" y="-351.6" font-family="Bitstream Vera Sans" font-size="8.00">linkedca.CreateAdminRequest</text>
<polyline fill="none" stroke="black" points="2458,-345 2677,-345"/>
<text text-anchor="middle" x="2567.5" y="-334.6" font-family="Bitstream Vera Sans" font-size="8.00">+ linkedca.CreateAdminRequest.subject:string</text>
<text text-anchor="middle" x="2567.5" y="-325.6" font-family="Bitstream Vera Sans" font-size="8.00">+ linkedca.CreateAdminRequest.provisioner_id:string</text>
<text text-anchor="middle" x="2567.5" y="-316.6" font-family="Bitstream Vera Sans" font-size="8.00">+ linkedca.CreateAdminRequest.type:enum</text>
<text text-anchor="middle" x="2567.5" y="-307.6" font-family="Bitstream Vera Sans" font-size="8.00">+ linkedca.CreateAdminRequest.preferred_id:string</text>
</g>
<!-- linkedca.GetAdminRequest -->
<g id="node15" class="node">
<title>linkedca.GetAdminRequest</title>
<polygon fill="#f2f2f2" stroke="black" points="2695.5,-313.5 2695.5,-349.5 2857.5,-349.5 2857.5,-313.5 2695.5,-313.5"/>
<text text-anchor="middle" x="2776.5" y="-338.6" font-family="Bitstream Vera Sans" font-size="8.00">linkedca.GetAdminRequest</text>
<polyline fill="none" stroke="black" points="2695.5,-331.5 2857.5,-331.5"/>
<text text-anchor="middle" x="2776.5" y="-320.6" font-family="Bitstream Vera Sans" font-size="8.00">+ linkedca.GetAdminRequest.id:string</text>
</g>
<!-- linkedca.UpdateAdminRequest -->
<g id="node16" class="node">
<title>linkedca.UpdateAdminRequest</title>
<polygon fill="#f2f2f2" stroke="black" points="2876,-310 2876,-353 3063,-353 3063,-310 2876,-310"/>
<text text-anchor="middle" x="2969.5" y="-342.6" font-family="Bitstream Vera Sans" font-size="8.00">linkedca.UpdateAdminRequest</text>
<polyline fill="none" stroke="black" points="2876,-336 3063,-336"/>
<text text-anchor="middle" x="2969.5" y="-325.6" font-family="Bitstream Vera Sans" font-size="8.00">+ linkedca.UpdateAdminRequest.id:string</text>
<text text-anchor="middle" x="2969.5" y="-316.6" font-family="Bitstream Vera Sans" font-size="8.00">+ linkedca.UpdateAdminRequest.type:enum</text>
</g>
<!-- linkedca.DeleteAdminRequest -->
<g id="node17" class="node">
<title>linkedca.DeleteAdminRequest</title>
<polygon fill="#f2f2f2" stroke="black" points="3081.5,-313.5 3081.5,-349.5 3255.5,-349.5 3255.5,-313.5 3081.5,-313.5"/>
<text text-anchor="middle" x="3168.5" y="-338.6" font-family="Bitstream Vera Sans" font-size="8.00">linkedca.DeleteAdminRequest</text>
<polyline fill="none" stroke="black" points="3081.5,-331.5 3255.5,-331.5"/>
<text text-anchor="middle" x="3168.5" y="-320.6" font-family="Bitstream Vera Sans" font-size="8.00">+ linkedca.DeleteAdminRequest.id:string</text>
</g>
<!-- linkedca.CertificateRequest -->
<g id="node18" class="node">
<title>linkedca.CertificateRequest</title>
<polygon fill="#f2f2f2" stroke="black" points="168.5,-162.5 168.5,-250.5 510.5,-250.5 510.5,-162.5 168.5,-162.5"/>
<text text-anchor="middle" x="339.5" y="-240.1" font-family="Bitstream Vera Sans" font-size="8.00">linkedca.CertificateRequest</text>
<polyline fill="none" stroke="black" points="168.5,-233.5 510.5,-233.5"/>
<text text-anchor="middle" x="339.5" y="-223.1" font-family="Bitstream Vera Sans" font-size="8.00">+ linkedca.CertificateRequest.pem_certificate:string</text>
<text text-anchor="middle" x="339.5" y="-214.1" font-family="Bitstream Vera Sans" font-size="8.00">+ linkedca.CertificateRequest.pem_certificate_chain:string</text>
<text text-anchor="middle" x="339.5" y="-205.1" font-family="Bitstream Vera Sans" font-size="8.00">+ linkedca.CertificateRequest.pem_parent_certificate:string</text>
<text text-anchor="middle" x="339.5" y="-196.1" font-family="Bitstream Vera Sans" font-size="8.00">+ linkedca.CertificateRequest.provisioner:linkedca.ProvisionerIdentity</text>
<text text-anchor="middle" x="339.5" y="-187.1" font-family="Bitstream Vera Sans" font-size="8.00">+ linkedca.CertificateRequest.ra_provisioner:linkedca.RegistrationAuthorityProvisioner</text>
<text text-anchor="middle" x="339.5" y="-178.1" font-family="Bitstream Vera Sans" font-size="8.00">+ linkedca.CertificateRequest.endpoint_id:string</text>
<text text-anchor="middle" x="339.5" y="-169.1" font-family="Bitstream Vera Sans" font-size="8.00">+ linkedca.CertificateRequest.attestation_data:linkedca.AttestationData</text>
</g>
<!-- linkedca.CertificateRequest&#45;&gt;linkedca.RegistrationAuthorityProvisioner -->
<g id="edge16" class="edge">
<title>linkedca.CertificateRequest&#45;&gt;linkedca.RegistrationAuthorityProvisioner</title>
<path fill="none" stroke="black" d="M418.69,-162.64C445.3,-148.24 473.76,-132.83 495.69,-120.96"/>
<text text-anchor="middle" x="493.19" y="-123.56" font-family="Bitstream Vera Sans" font-size="8.00">1</text>
<text text-anchor="middle" x="416.19" y="-156.24" font-family="Bitstream Vera Sans" font-size="8.00">1</text>
</g>
<!-- linkedca.AttestationData -->
<g id="node19" class="node">
<title>linkedca.AttestationData</title>
<polygon fill="#f2f2f2" stroke="black" points="85.5,-81.5 85.5,-117.5 311.5,-117.5 311.5,-81.5 85.5,-81.5"/>
<text text-anchor="middle" x="198.5" y="-106.6" font-family="Bitstream Vera Sans" font-size="8.00">linkedca.AttestationData</text>
<polyline fill="none" stroke="black" points="85.5,-99.5 311.5,-99.5"/>
<text text-anchor="middle" x="198.5" y="-88.6" font-family="Bitstream Vera Sans" font-size="8.00">+ linkedca.AttestationData.permanent_identifier:string</text>
</g>
<!-- linkedca.CertificateRequest&#45;&gt;linkedca.AttestationData -->
<g id="edge17" class="edge">
<title>linkedca.CertificateRequest&#45;&gt;linkedca.AttestationData</title>
<path fill="none" stroke="black" d="M282.15,-162.79C260.8,-146.89 237.79,-129.76 221.31,-117.49"/>
<text text-anchor="middle" x="218.81" y="-120.09" font-family="Bitstream Vera Sans" font-size="8.00">1</text>
<text text-anchor="middle" x="279.65" y="-156.39" font-family="Bitstream Vera Sans" font-size="8.00">1</text>
</g>
<!-- linkedca.CertificateRequest&#45;&gt;linkedca.ProvisionerIdentity -->
<g id="edge15" class="edge">
<title>linkedca.CertificateRequest&#45;&gt;linkedca.ProvisionerIdentity</title>
<path fill="none" stroke="black" d="M333.51,-162.72C331.99,-133.49 335.51,-96.02 358.5,-73 400.64,-30.8 573.26,-21.63 666.72,-19.81"/>
<text text-anchor="middle" x="664.22" y="-22.41" font-family="Bitstream Vera Sans" font-size="8.00">1</text>
<text text-anchor="middle" x="331.01" y="-156.32" font-family="Bitstream Vera Sans" font-size="8.00">1</text>
</g>
<!-- linkedca.CertificateResponse -->
<g id="node20" class="node">
<title>linkedca.CertificateResponse</title>
<polygon fill="#f2f2f2" stroke="black" points="3274,-313.5 3274,-349.5 3441,-349.5 3441,-313.5 3274,-313.5"/>
<text text-anchor="middle" x="3357.5" y="-338.6" font-family="Bitstream Vera Sans" font-size="8.00">linkedca.CertificateResponse</text>
<polyline fill="none" stroke="black" points="3274,-331.5 3441,-331.5"/>
<text text-anchor="middle" x="3357.5" y="-320.6" font-family="Bitstream Vera Sans" font-size="8.00">+ linkedca.CertificateResponse.id:string</text>
</g>
<!-- linkedca.SSHCertificateRequest -->
<g id="node21" class="node">
<title>linkedca.SSHCertificateRequest</title>
<polygon fill="#f2f2f2" stroke="black" points="756,-73.5 756,-125.5 1051,-125.5 1051,-73.5 756,-73.5"/>
<text text-anchor="middle" x="903.5" y="-115.1" font-family="Bitstream Vera Sans" font-size="8.00">linkedca.SSHCertificateRequest</text>
<polyline fill="none" stroke="black" points="756,-108.5 1051,-108.5"/>
<text text-anchor="middle" x="903.5" y="-98.1" font-family="Bitstream Vera Sans" font-size="8.00">+ linkedca.SSHCertificateRequest.certificate:string</text>
<text text-anchor="middle" x="903.5" y="-89.1" font-family="Bitstream Vera Sans" font-size="8.00">+ linkedca.SSHCertificateRequest.parent_certificate:string</text>
<text text-anchor="middle" x="903.5" y="-80.1" font-family="Bitstream Vera Sans" font-size="8.00">+ linkedca.SSHCertificateRequest.provisioner:linkedca.ProvisionerIdentity</text>
</g>
<!-- linkedca.SSHCertificateRequest&#45;&gt;linkedca.ProvisionerIdentity -->
<g id="edge18" class="edge">
<title>linkedca.SSHCertificateRequest&#45;&gt;linkedca.ProvisionerIdentity</title>
<path fill="none" stroke="black" d="M847.81,-73.5C820.92,-61.43 789.36,-47.27 765.31,-36.47"/>
<text text-anchor="middle" x="762.81" y="-39.07" font-family="Bitstream Vera Sans" font-size="8.00">1</text>
<text text-anchor="middle" x="845.31" y="-67.1" font-family="Bitstream Vera Sans" font-size="8.00">1</text>
</g>
<!-- linkedca.SSHCertificateResponse -->
<g id="node22" class="node">
<title>linkedca.SSHCertificateResponse</title>
<polygon fill="#f2f2f2" stroke="black" points="3459.5,-313.5 3459.5,-349.5 3641.5,-349.5 3641.5,-313.5 3459.5,-313.5"/>
<text text-anchor="middle" x="3550.5" y="-338.6" font-family="Bitstream Vera Sans" font-size="8.00">linkedca.SSHCertificateResponse</text>
<polyline fill="none" stroke="black" points="3459.5,-331.5 3641.5,-331.5"/>
<text text-anchor="middle" x="3550.5" y="-320.6" font-family="Bitstream Vera Sans" font-size="8.00">+ linkedca.SSHCertificateResponse.id:string</text>
</g>
<!-- linkedca.OneTimeTokenRequest -->
<g id="node23" class="node">
<title>linkedca.OneTimeTokenRequest</title>
<polygon fill="#f2f2f2" stroke="black" points="3659.5,-310 3659.5,-353 3853.5,-353 3853.5,-310 3659.5,-310"/>
<text text-anchor="middle" x="3756.5" y="-342.6" font-family="Bitstream Vera Sans" font-size="8.00">linkedca.OneTimeTokenRequest</text>
<polyline fill="none" stroke="black" points="3659.5,-336 3853.5,-336"/>
<text text-anchor="middle" x="3756.5" y="-325.6" font-family="Bitstream Vera Sans" font-size="8.00">+ linkedca.OneTimeTokenRequest.jti:string</text>
<text text-anchor="middle" x="3756.5" y="-316.6" font-family="Bitstream Vera Sans" font-size="8.00">+ linkedca.OneTimeTokenRequest.token:string</text>
</g>
<!-- linkedca.OneTimeTokenResponse -->
<g id="node24" class="node">
<title>linkedca.OneTimeTokenResponse</title>
<polygon fill="#f2f2f2" stroke="black" points="3872,-313.5 3872,-349.5 4057,-349.5 4057,-313.5 3872,-313.5"/>
<text text-anchor="middle" x="3964.5" y="-338.6" font-family="Bitstream Vera Sans" font-size="8.00">linkedca.OneTimeTokenResponse</text>
<polyline fill="none" stroke="black" points="3872,-331.5 4057,-331.5"/>
<text text-anchor="middle" x="3964.5" y="-320.6" font-family="Bitstream Vera Sans" font-size="8.00">+ linkedca.OneTimeTokenResponse.id:string</text>
</g>
<!-- linkedca.RevokeCertificateRequest -->
<g id="node25" class="node">
<title>linkedca.RevokeCertificateRequest</title>
<polygon fill="#f2f2f2" stroke="black" points="4075.5,-292 4075.5,-371 4381.5,-371 4381.5,-292 4075.5,-292"/>
<text text-anchor="middle" x="4228.5" y="-360.6" font-family="Bitstream Vera Sans" font-size="8.00">linkedca.RevokeCertificateRequest</text>
<polyline fill="none" stroke="black" points="4075.5,-354 4381.5,-354"/>
<text text-anchor="middle" x="4228.5" y="-343.6" font-family="Bitstream Vera Sans" font-size="8.00">+ linkedca.RevokeCertificateRequest.serial:string</text>
<text text-anchor="middle" x="4228.5" y="-334.6" font-family="Bitstream Vera Sans" font-size="8.00">+ linkedca.RevokeCertificateRequest.pem_certificate:string</text>
<text text-anchor="middle" x="4228.5" y="-325.6" font-family="Bitstream Vera Sans" font-size="8.00">+ linkedca.RevokeCertificateRequest.reason:string</text>
<text text-anchor="middle" x="4228.5" y="-316.6" font-family="Bitstream Vera Sans" font-size="8.00">+ linkedca.RevokeCertificateRequest.reason_code:enum</text>
<text text-anchor="middle" x="4228.5" y="-307.6" font-family="Bitstream Vera Sans" font-size="8.00">+ linkedca.RevokeCertificateRequest.passive:bool</text>
<text text-anchor="middle" x="4228.5" y="-298.6" font-family="Bitstream Vera Sans" font-size="8.00">+ linkedca.RevokeCertificateRequest.revoked_at:google.protobuf.Timestamp</text>
</g>
<!-- google.protobuf.Timestamp -->
<g id="node41" class="node">
<title>google.protobuf.Timestamp</title>
<polygon fill="#f2f2f2" stroke="black" points="4668.5,-188.5 4668.5,-224.5 4790.5,-224.5 4790.5,-188.5 4668.5,-188.5"/>
<text text-anchor="middle" x="4729.5" y="-204.6" font-family="Bitstream Vera Sans" font-size="8.00">google.protobuf.Timestamp</text>
</g>
<!-- linkedca.RevokeCertificateRequest&#45;&gt;google.protobuf.Timestamp -->
<g id="edge19" class="edge">
<title>linkedca.RevokeCertificateRequest&#45;&gt;google.protobuf.Timestamp</title>
<path fill="none" stroke="black" d="M4370.67,-292.05C4377.37,-290.32 4384,-288.63 4390.5,-287 4487.53,-262.6 4600.78,-236.52 4668.73,-221.13"/>
<text text-anchor="middle" x="4666.23" y="-223.73" font-family="Bitstream Vera Sans" font-size="8.00">1</text>
<text text-anchor="middle" x="4368.17" y="-285.65" font-family="Bitstream Vera Sans" font-size="8.00">1</text>
</g>
<!-- linkedca.RevokeCertificateResponse -->
<g id="node26" class="node">
<title>linkedca.RevokeCertificateResponse</title>
<polygon fill="#f2f2f2" stroke="black" points="5432.5,-313.5 5432.5,-349.5 5642.5,-349.5 5642.5,-313.5 5432.5,-313.5"/>
<text text-anchor="middle" x="5537.5" y="-338.6" font-family="Bitstream Vera Sans" font-size="8.00">linkedca.RevokeCertificateResponse</text>
<polyline fill="none" stroke="black" points="5432.5,-331.5 5642.5,-331.5"/>
<text text-anchor="middle" x="5537.5" y="-320.6" font-family="Bitstream Vera Sans" font-size="8.00">+ linkedca.RevokeCertificateResponse.status:enum</text>
</g>
<!-- linkedca.RevokeSSHCertificateRequest -->
<g id="node27" class="node">
<title>linkedca.RevokeSSHCertificateRequest</title>
<polygon fill="#f2f2f2" stroke="black" points="4400,-292 4400,-371 4721,-371 4721,-292 4400,-292"/>
<text text-anchor="middle" x="4560.5" y="-360.6" font-family="Bitstream Vera Sans" font-size="8.00">linkedca.RevokeSSHCertificateRequest</text>
<polyline fill="none" stroke="black" points="4400,-354 4721,-354"/>
<text text-anchor="middle" x="4560.5" y="-343.6" font-family="Bitstream Vera Sans" font-size="8.00">+ linkedca.RevokeSSHCertificateRequest.serial:string</text>
<text text-anchor="middle" x="4560.5" y="-334.6" font-family="Bitstream Vera Sans" font-size="8.00">+ linkedca.RevokeSSHCertificateRequest.certificate:string</text>
<text text-anchor="middle" x="4560.5" y="-325.6" font-family="Bitstream Vera Sans" font-size="8.00">+ linkedca.RevokeSSHCertificateRequest.reason:string</text>
<text text-anchor="middle" x="4560.5" y="-316.6" font-family="Bitstream Vera Sans" font-size="8.00">+ linkedca.RevokeSSHCertificateRequest.reason_code:enum</text>
<text text-anchor="middle" x="4560.5" y="-307.6" font-family="Bitstream Vera Sans" font-size="8.00">+ linkedca.RevokeSSHCertificateRequest.passive:bool</text>
<text text-anchor="middle" x="4560.5" y="-298.6" font-family="Bitstream Vera Sans" font-size="8.00">+ linkedca.RevokeSSHCertificateRequest.revoked_at:google.protobuf.Timestamp</text>
</g>
<!-- linkedca.RevokeSSHCertificateRequest&#45;&gt;google.protobuf.Timestamp -->
<g id="edge20" class="edge">
<title>linkedca.RevokeSSHCertificateRequest&#45;&gt;google.protobuf.Timestamp</title>
<path fill="none" stroke="black" d="M4613.05,-292.26C4644.25,-269.55 4682.26,-241.88 4706.18,-224.47"/>
<text text-anchor="middle" x="4703.68" y="-227.07" font-family="Bitstream Vera Sans" font-size="8.00">1</text>
<text text-anchor="middle" x="4610.55" y="-285.86" font-family="Bitstream Vera Sans" font-size="8.00">1</text>
</g>
<!-- linkedca.RevokeSSHCertificateResponse -->
<g id="node28" class="node">
<title>linkedca.RevokeSSHCertificateResponse</title>
<polygon fill="#f2f2f2" stroke="black" points="5661,-313.5 5661,-349.5 5886,-349.5 5886,-313.5 5661,-313.5"/>
<text text-anchor="middle" x="5773.5" y="-338.6" font-family="Bitstream Vera Sans" font-size="8.00">linkedca.RevokeSSHCertificateResponse</text>
<polyline fill="none" stroke="black" points="5661,-331.5 5886,-331.5"/>
<text text-anchor="middle" x="5773.5" y="-320.6" font-family="Bitstream Vera Sans" font-size="8.00">+ linkedca.RevokeSSHCertificateResponse.status:enum</text>
</g>
<!-- linkedca.GetCertificateRequest -->
<g id="node29" class="node">
<title>linkedca.GetCertificateRequest</title>
<polygon fill="#f2f2f2" stroke="black" points="5904.5,-313.5 5904.5,-349.5 6092.5,-349.5 6092.5,-313.5 5904.5,-313.5"/>
<text text-anchor="middle" x="5998.5" y="-338.6" font-family="Bitstream Vera Sans" font-size="8.00">linkedca.GetCertificateRequest</text>
<polyline fill="none" stroke="black" points="5904.5,-331.5 6092.5,-331.5"/>
<text text-anchor="middle" x="5998.5" y="-320.6" font-family="Bitstream Vera Sans" font-size="8.00">+ linkedca.GetCertificateRequest.serial:string</text>
</g>
<!-- linkedca.GetCertificateResponse -->
<g id="node30" class="node">
<title>linkedca.GetCertificateResponse</title>
<polygon fill="#f2f2f2" stroke="black" points="538,-180.5 538,-232.5 899,-232.5 899,-180.5 538,-180.5"/>
<text text-anchor="middle" x="718.5" y="-222.1" font-family="Bitstream Vera Sans" font-size="8.00">linkedca.GetCertificateResponse</text>
<polyline fill="none" stroke="black" points="538,-215.5 899,-215.5"/>
<text text-anchor="middle" x="718.5" y="-205.1" font-family="Bitstream Vera Sans" font-size="8.00">+ linkedca.GetCertificateResponse.pem_certificate:string</text>
<text text-anchor="middle" x="718.5" y="-196.1" font-family="Bitstream Vera Sans" font-size="8.00">+ linkedca.GetCertificateResponse.provisioner:linkedca.ProvisionerIdentity</text>
<text text-anchor="middle" x="718.5" y="-187.1" font-family="Bitstream Vera Sans" font-size="8.00">+ linkedca.GetCertificateResponse.ra_provisioner:linkedca.RegistrationAuthorityProvisioner</text>
</g>
<!-- linkedca.GetCertificateResponse&#45;&gt;linkedca.RegistrationAuthorityProvisioner -->
<g id="edge22" class="edge">
<title>linkedca.GetCertificateResponse&#45;&gt;linkedca.RegistrationAuthorityProvisioner</title>
<path fill="none" stroke="black" d="M674.66,-180.62C642.6,-162.42 599.65,-138.04 569.57,-120.97"/>
<text text-anchor="middle" x="567.07" y="-123.57" font-family="Bitstream Vera Sans" font-size="8.00">1</text>
<text text-anchor="middle" x="672.16" y="-174.22" font-family="Bitstream Vera Sans" font-size="8.00">1</text>
</g>
<!-- linkedca.GetCertificateResponse&#45;&gt;linkedca.ProvisionerIdentity -->
<g id="edge21" class="edge">
<title>linkedca.GetCertificateResponse&#45;&gt;linkedca.ProvisionerIdentity</title>
<path fill="none" stroke="black" d="M719.7,-180.8C721.56,-142.36 725.09,-69.22 726.69,-36.3"/>
<text text-anchor="middle" x="724.19" y="-38.9" font-family="Bitstream Vera Sans" font-size="8.00">1</text>
<text text-anchor="middle" x="717.2" y="-174.4" font-family="Bitstream Vera Sans" font-size="8.00">1</text>
</g>
<!-- linkedca.GetCertificateStatusRequest -->
<g id="node31" class="node">
<title>linkedca.GetCertificateStatusRequest</title>
<polygon fill="#f2f2f2" stroke="black" points="6110.5,-313.5 6110.5,-349.5 6322.5,-349.5 6322.5,-313.5 6110.5,-313.5"/>
<text text-anchor="middle" x="6216.5" y="-338.6" font-family="Bitstream Vera Sans" font-size="8.00">linkedca.GetCertificateStatusRequest</text>
<polyline fill="none" stroke="black" points="6110.5,-331.5 6322.5,-331.5"/>
<text text-anchor="middle" x="6216.5" y="-320.6" font-family="Bitstream Vera Sans" font-size="8.00">+ linkedca.GetCertificateStatusRequest.serial:string</text>
</g>
<!-- linkedca.GetCertificateStatusResponse -->
<g id="node32" class="node">
<title>linkedca.GetCertificateStatusResponse</title>
<polygon fill="#f2f2f2" stroke="black" points="4739,-301 4739,-362 5060,-362 5060,-301 4739,-301"/>
<text text-anchor="middle" x="4899.5" y="-351.6" font-family="Bitstream Vera Sans" font-size="8.00">linkedca.GetCertificateStatusResponse</text>
<polyline fill="none" stroke="black" points="4739,-345 5060,-345"/>
<text text-anchor="middle" x="4899.5" y="-334.6" font-family="Bitstream Vera Sans" font-size="8.00">+ linkedca.GetCertificateStatusResponse.status:enum</text>
<text text-anchor="middle" x="4899.5" y="-325.6" font-family="Bitstream Vera Sans" font-size="8.00">+ linkedca.GetCertificateStatusResponse.reason:string</text>
<text text-anchor="middle" x="4899.5" y="-316.6" font-family="Bitstream Vera Sans" font-size="8.00">+ linkedca.GetCertificateStatusResponse.reason_code:enum</text>
<text text-anchor="middle" x="4899.5" y="-307.6" font-family="Bitstream Vera Sans" font-size="8.00">+ linkedca.GetCertificateStatusResponse.revoked_at:google.protobuf.Timestamp</text>
</g>
<!-- linkedca.GetCertificateStatusResponse&#45;&gt;google.protobuf.Timestamp -->
<g id="edge23" class="edge">
<title>linkedca.GetCertificateStatusResponse&#45;&gt;google.protobuf.Timestamp</title>
<path fill="none" stroke="black" d="M4858.78,-301.04C4825.58,-277.02 4779.87,-243.95 4752.64,-224.24"/>
<text text-anchor="middle" x="4750.14" y="-226.84" font-family="Bitstream Vera Sans" font-size="8.00">1</text>
<text text-anchor="middle" x="4856.28" y="-294.64" font-family="Bitstream Vera Sans" font-size="8.00">1</text>
</g>
<!-- linkedca.GetSSHCertificateStatusRequest -->
<g id="node33" class="node">
<title>linkedca.GetSSHCertificateStatusRequest</title>
<polygon fill="#f2f2f2" stroke="black" points="6341,-313.5 6341,-349.5 6568,-349.5 6568,-313.5 6341,-313.5"/>
<text text-anchor="middle" x="6454.5" y="-338.6" font-family="Bitstream Vera Sans" font-size="8.00">linkedca.GetSSHCertificateStatusRequest</text>
<polyline fill="none" stroke="black" points="6341,-331.5 6568,-331.5"/>
<text text-anchor="middle" x="6454.5" y="-320.6" font-family="Bitstream Vera Sans" font-size="8.00">+ linkedca.GetSSHCertificateStatusRequest.serial:string</text>
</g>
<!-- linkedca.GetSSHCertificateStatusResponse -->
<g id="node34" class="node">
<title>linkedca.GetSSHCertificateStatusResponse</title>
<polygon fill="#f2f2f2" stroke="black" points="5078.5,-301 5078.5,-362 5414.5,-362 5414.5,-301 5078.5,-301"/>
<text text-anchor="middle" x="5246.5" y="-351.6" font-family="Bitstream Vera Sans" font-size="8.00">linkedca.GetSSHCertificateStatusResponse</text>
<polyline fill="none" stroke="black" points="5078.5,-345 5414.5,-345"/>
<text text-anchor="middle" x="5246.5" y="-334.6" font-family="Bitstream Vera Sans" font-size="8.00">+ linkedca.GetSSHCertificateStatusResponse.status:enum</text>
<text text-anchor="middle" x="5246.5" y="-325.6" font-family="Bitstream Vera Sans" font-size="8.00">+ linkedca.GetSSHCertificateStatusResponse.reason:string</text>
<text text-anchor="middle" x="5246.5" y="-316.6" font-family="Bitstream Vera Sans" font-size="8.00">+ linkedca.GetSSHCertificateStatusResponse.reason_code:enum</text>
<text text-anchor="middle" x="5246.5" y="-307.6" font-family="Bitstream Vera Sans" font-size="8.00">+ linkedca.GetSSHCertificateStatusResponse.revoked_at:google.protobuf.Timestamp</text>
</g>
<!-- linkedca.GetSSHCertificateStatusResponse&#45;&gt;google.protobuf.Timestamp -->
<g id="edge24" class="edge">
<title>linkedca.GetSSHCertificateStatusResponse&#45;&gt;google.protobuf.Timestamp</title>
<path fill="none" stroke="black" d="M5127.53,-301.07C5108.15,-296.33 5088.27,-291.5 5069.5,-287 4971.94,-263.61 4858.42,-237.23 4790.35,-221.51"/>
<text text-anchor="middle" x="4792.85" y="-224.11" font-family="Bitstream Vera Sans" font-size="8.00">1</text>
<text text-anchor="middle" x="5125.03" y="-294.67" font-family="Bitstream Vera Sans" font-size="8.00">1</text>
</g>
<!-- linkedca.Provisioner -->
<g id="node35" class="node">
<title>linkedca.Provisioner</title>
<polygon fill="#f2f2f2" stroke="black" points="1233.5,-313.5 1233.5,-349.5 1325.5,-349.5 1325.5,-313.5 1233.5,-313.5"/>
<text text-anchor="middle" x="1279.5" y="-329.6" font-family="Bitstream Vera Sans" font-size="8.00">linkedca.Provisioner</text>
</g>
<!-- linkedca.Provisioner&#45;&gt;linkedca.ConfigurationResponse -->
<g id="edge1" class="edge">
<title>linkedca.Provisioner&#45;&gt;linkedca.ConfigurationResponse</title>
<path fill="none" stroke="black" d="M1283.75,-313.66C1287.9,-297.16 1294.41,-271.35 1299.96,-249.32"/>
<polygon fill="none" stroke="black" points="1299.94,-249.39 1297.53,-242.59 1302.88,-237.75 1305.29,-244.55 1299.94,-249.39"/>
<text text-anchor="middle" x="1300.6" y="-239.48" font-family="Bitstream Vera Sans" font-size="8.00">1</text>
<text text-anchor="middle" x="1276.75" y="-307.26" font-family="Bitstream Vera Sans" font-size="8.00">0..*</text>
</g>
<!-- linkedca.Admin -->
<g id="node36" class="node">
<title>linkedca.Admin</title>
<polygon fill="#f2f2f2" stroke="black" points="1344,-313.5 1344,-349.5 1421,-349.5 1421,-313.5 1344,-313.5"/>
<text text-anchor="middle" x="1382.5" y="-329.6" font-family="Bitstream Vera Sans" font-size="8.00">linkedca.Admin</text>
</g>
<!-- linkedca.Admin&#45;&gt;linkedca.ConfigurationResponse -->
<g id="edge2" class="edge">
<title>linkedca.Admin&#45;&gt;linkedca.ConfigurationResponse</title>
<path fill="none" stroke="black" d="M1372.64,-313.66C1362.8,-296.85 1347.31,-270.38 1334.26,-248.08"/>
<polygon fill="none" stroke="black" points="1334.21,-248.01 1327.73,-244.85 1328.15,-237.65 1334.63,-240.81 1334.21,-248.01"/>
<text text-anchor="middle" x="1325.2" y="-239.48" font-family="Bitstream Vera Sans" font-size="8.00">1</text>
<text text-anchor="middle" x="1365.64" y="-307.26" font-family="Bitstream Vera Sans" font-size="8.00">0..*</text>
</g>
</g>
</svg>
