<?xml version="1.0" encoding="UTF-8" standalone="no"?>
<!DOCTYPE svg PUBLIC "-//W3C//DTD SVG 1.1//EN"
 "http://www.w3.org/Graphics/SVG/1.1/DTD/svg11.dtd">
<!-- Generated by graphviz version 7.0.1 (20221109.1506)
 -->
<!-- Title: Protobuf UML class diagram Pages: 1 -->
<svg width="3335pt" height="696pt"
 viewBox="0.00 0.00 3335.00 696.00" xmlns="http://www.w3.org/2000/svg" xmlns:xlink="http://www.w3.org/1999/xlink">
<g id="graph0" class="graph" transform="scale(1 1) rotate(0) translate(4 692)">
<title>Protobuf UML class diagram</title>
<polygon fill="white" stroke="none" points="-4,4 -4,-692 3331,-692 3331,4 -4,4"/>
<!-- linkedca.Provisioner -->
<g id="node1" class="node">
<title>linkedca.Provisioner</title>
<polygon fill="#f2f2f2" stroke="black" points="2668.5,-411.5 2668.5,-544.5 2917.5,-544.5 2917.5,-411.5 2668.5,-411.5"/>
<text text-anchor="middle" x="2793" y="-534.1" font-family="Bitstream Vera Sans" font-size="8.00">linkedca.Provisioner</text>
<polyline fill="none" stroke="black" points="2668.5,-527.5 2917.5,-527.5"/>
<text text-anchor="middle" x="2793" y="-517.1" font-family="Bitstream Vera Sans" font-size="8.00">+ linkedca.Provisioner.id:string</text>
<text text-anchor="middle" x="2793" y="-508.1" font-family="Bitstream Vera Sans" font-size="8.00">+ linkedca.Provisioner.authority_id:string</text>
<text text-anchor="middle" x="2793" y="-499.1" font-family="Bitstream Vera Sans" font-size="8.00">+ linkedca.Provisioner.type:enum</text>
<text text-anchor="middle" x="2793" y="-490.1" font-family="Bitstream Vera Sans" font-size="8.00">+ linkedca.Provisioner.name:string</text>
<text text-anchor="middle" x="2793" y="-481.1" font-family="Bitstream Vera Sans" font-size="8.00">+ linkedca.Provisioner.details:linkedca.ProvisionerDetails</text>
<text text-anchor="middle" x="2793" y="-472.1" font-family="Bitstream Vera Sans" font-size="8.00">+ linkedca.Provisioner.claims:linkedca.Claims</text>
<text text-anchor="middle" x="2793" y="-463.1" font-family="Bitstream Vera Sans" font-size="8.00">+ linkedca.Provisioner.x509_template:linkedca.Template</text>
<text text-anchor="middle" x="2793" y="-454.1" font-family="Bitstream Vera Sans" font-size="8.00">+ linkedca.Provisioner.ssh_template:linkedca.Template</text>
<text text-anchor="middle" x="2793" y="-445.1" font-family="Bitstream Vera Sans" font-size="8.00">+ linkedca.Provisioner.created_at:google.protobuf.Timestamp</text>
<text text-anchor="middle" x="2793" y="-436.1" font-family="Bitstream Vera Sans" font-size="8.00">+ linkedca.Provisioner.deleted_at:google.protobuf.Timestamp</text>
<text text-anchor="middle" x="2793" y="-427.1" font-family="Bitstream Vera Sans" font-size="8.00">+ linkedca.Provisioner.policy:linkedca.Policy</text>
<text text-anchor="middle" x="2793" y="-418.1" font-family="Bitstream Vera Sans" font-size="8.00">+ linkedca.Provisioner.webhooks:linkedca.Webhook</text>
</g>
<!-- linkedca.ProvisionerDetails -->
<g id="node3" class="node">
<title>linkedca.ProvisionerDetails</title>
<polygon fill="#f2f2f2" stroke="black" points="1337,-250.5 1337,-374.5 1603,-374.5 1603,-250.5 1337,-250.5"/>
<text text-anchor="middle" x="1470" y="-364.1" font-family="Bitstream Vera Sans" font-size="8.00">linkedca.ProvisionerDetails</text>
<polyline fill="none" stroke="black" points="1337,-357.5 1603,-357.5"/>
<text text-anchor="middle" x="1470" y="-347.1" font-family="Bitstream Vera Sans" font-size="8.00">+ linkedca.ProvisionerDetails.JWK:linkedca.JWKProvisioner</text>
<text text-anchor="middle" x="1470" y="-338.1" font-family="Bitstream Vera Sans" font-size="8.00">+ linkedca.ProvisionerDetails.OIDC:linkedca.OIDCProvisioner</text>
<text text-anchor="middle" x="1470" y="-329.1" font-family="Bitstream Vera Sans" font-size="8.00">+ linkedca.ProvisionerDetails.GCP:linkedca.GCPProvisioner</text>
<text text-anchor="middle" x="1470" y="-320.1" font-family="Bitstream Vera Sans" font-size="8.00">+ linkedca.ProvisionerDetails.AWS:linkedca.AWSProvisioner</text>
<text text-anchor="middle" x="1470" y="-311.1" font-family="Bitstream Vera Sans" font-size="8.00">+ linkedca.ProvisionerDetails.Azure:linkedca.AzureProvisioner</text>
<text text-anchor="middle" x="1470" y="-302.1" font-family="Bitstream Vera Sans" font-size="8.00">+ linkedca.ProvisionerDetails.ACME:linkedca.ACMEProvisioner</text>
<text text-anchor="middle" x="1470" y="-293.1" font-family="Bitstream Vera Sans" font-size="8.00">+ linkedca.ProvisionerDetails.X5C:linkedca.X5CProvisioner</text>
<text text-anchor="middle" x="1470" y="-284.1" font-family="Bitstream Vera Sans" font-size="8.00">+ linkedca.ProvisionerDetails.K8sSA:linkedca.K8sSAProvisioner</text>
<text text-anchor="middle" x="1470" y="-275.1" font-family="Bitstream Vera Sans" font-size="8.00">+ linkedca.ProvisionerDetails.SSHPOP:linkedca.SSHPOPProvisioner</text>
<text text-anchor="middle" x="1470" y="-266.1" font-family="Bitstream Vera Sans" font-size="8.00">+ linkedca.ProvisionerDetails.SCEP:linkedca.SCEPProvisioner</text>
<text text-anchor="middle" x="1470" y="-257.1" font-family="Bitstream Vera Sans" font-size="8.00">+ linkedca.ProvisionerDetails.Nebula:linkedca.NebulaProvisioner</text>
</g>
<!-- linkedca.Provisioner&#45;&gt;linkedca.ProvisionerDetails -->
<g id="edge1" class="edge">
<title>linkedca.Provisioner&#45;&gt;linkedca.ProvisionerDetails</title>
<path fill="none" stroke="black" d="M2668.54,-461.62C2418.96,-430.77 1859.35,-361.62 1602.93,-329.93"/>
<text text-anchor="middle" x="1605.43" y="-332.53" font-family="Bitstream Vera Sans" font-size="8.00">1</text>
<text text-anchor="middle" x="2666.04" y="-464.22" font-family="Bitstream Vera Sans" font-size="8.00">1</text>
</g>
<!-- linkedca.ProvisionerList -->
<g id="node4" class="node">
<title>linkedca.ProvisionerList</title>
<polygon fill="#f2f2f2" stroke="black" points="2225.5,-294.5 2225.5,-330.5 2464.5,-330.5 2464.5,-294.5 2225.5,-294.5"/>
<text text-anchor="middle" x="2345" y="-319.6" font-family="Bitstream Vera Sans" font-size="8.00">linkedca.ProvisionerList</text>
<polyline fill="none" stroke="black" points="2225.5,-312.5 2464.5,-312.5"/>
<text text-anchor="middle" x="2345" y="-301.6" font-family="Bitstream Vera Sans" font-size="8.00">+ linkedca.ProvisionerList.provisioners:linkedca.Provisioner</text>
</g>
<!-- linkedca.Provisioner&#45;&gt;linkedca.ProvisionerList -->
<g id="edge20" class="edge">
<title>linkedca.Provisioner&#45;&gt;linkedca.ProvisionerList</title>
<path fill="none" stroke="black" d="M2668.88,-441.84C2609,-423.76 2536.54,-400.25 2473,-375 2444.25,-363.58 2412.94,-348.58 2388.48,-336.25"/>
<polygon fill="none" stroke="black" points="2388.56,-336.29 2381.4,-337.14 2377.86,-330.85 2385.03,-330.01 2388.56,-336.29"/>
<text text-anchor="middle" x="2374.56" y="-333.04" font-family="Bitstream Vera Sans" font-size="8.00">1</text>
<text text-anchor="middle" x="2661.88" y="-444.44" font-family="Bitstream Vera Sans" font-size="8.00">0..*</text>
</g>
<!-- linkedca.Claims -->
<g id="node5" class="node">
<title>linkedca.Claims</title>
<polygon fill="#f2f2f2" stroke="black" points="2482.5,-277.5 2482.5,-347.5 2699.5,-347.5 2699.5,-277.5 2482.5,-277.5"/>
<text text-anchor="middle" x="2591" y="-337.1" font-family="Bitstream Vera Sans" font-size="8.00">linkedca.Claims</text>
<polyline fill="none" stroke="black" points="2482.5,-330.5 2699.5,-330.5"/>
<text text-anchor="middle" x="2591" y="-320.1" font-family="Bitstream Vera Sans" font-size="8.00">+ linkedca.Claims.x509:linkedca.X509Claims</text>
<text text-anchor="middle" x="2591" y="-311.1" font-family="Bitstream Vera Sans" font-size="8.00">+ linkedca.Claims.ssh:linkedca.SSHClaims</text>
<text text-anchor="middle" x="2591" y="-302.1" font-family="Bitstream Vera Sans" font-size="8.00">+ linkedca.Claims.disable_renewal:bool</text>
<text text-anchor="middle" x="2591" y="-293.1" font-family="Bitstream Vera Sans" font-size="8.00">+ linkedca.Claims.allow_renewal_after_expiry:bool</text>
<text text-anchor="middle" x="2591" y="-284.1" font-family="Bitstream Vera Sans" font-size="8.00">+ linkedca.Claims.disable_smallstep_extensions:bool</text>
</g>
<!-- linkedca.Provisioner&#45;&gt;linkedca.Claims -->
<g id="edge2" class="edge">
<title>linkedca.Provisioner&#45;&gt;linkedca.Claims</title>
<path fill="none" stroke="black" d="M2712.29,-411.68C2685.04,-389.62 2655.73,-365.89 2632.75,-347.29"/>
<text text-anchor="middle" x="2630.25" y="-349.89" font-family="Bitstream Vera Sans" font-size="8.00">1</text>
<text text-anchor="middle" x="2709.79" y="-405.28" font-family="Bitstream Vera Sans" font-size="8.00">1</text>
</g>
<!-- linkedca.Template -->
<g id="node9" class="node">
<title>linkedca.Template</title>
<polygon fill="#f2f2f2" stroke="black" points="2717.5,-291 2717.5,-334 2868.5,-334 2868.5,-291 2717.5,-291"/>
<text text-anchor="middle" x="2793" y="-323.6" font-family="Bitstream Vera Sans" font-size="8.00">linkedca.Template</text>
<polyline fill="none" stroke="black" points="2717.5,-317 2868.5,-317"/>
<text text-anchor="middle" x="2793" y="-306.6" font-family="Bitstream Vera Sans" font-size="8.00">+ linkedca.Template.template:bytes</text>
<text text-anchor="middle" x="2793" y="-297.6" font-family="Bitstream Vera Sans" font-size="8.00">+ linkedca.Template.data:bytes</text>
</g>
<!-- linkedca.Provisioner&#45;&gt;linkedca.Template -->
<g id="edge3" class="edge">
<title>linkedca.Provisioner&#45;&gt;linkedca.Template</title>
<path fill="none" stroke="black" d="M2786.38,-411.91C2785.95,-383.95 2786.61,-353.27 2788.37,-333.72"/>
<text text-anchor="middle" x="2785.87" y="-336.32" font-family="Bitstream Vera Sans" font-size="8.00">1</text>
<text text-anchor="middle" x="2783.88" y="-405.51" font-family="Bitstream Vera Sans" font-size="8.00">1</text>
</g>
<!-- linkedca.Provisioner&#45;&gt;linkedca.Template -->
<g id="edge4" class="edge">
<title>linkedca.Provisioner&#45;&gt;linkedca.Template</title>
<path fill="none" stroke="black" d="M2799.62,-411.91C2800.05,-383.95 2799.39,-353.27 2797.63,-333.72"/>
<text text-anchor="middle" x="2795.13" y="-336.32" font-family="Bitstream Vera Sans" font-size="8.00">1</text>
<text text-anchor="middle" x="2797.12" y="-405.51" font-family="Bitstream Vera Sans" font-size="8.00">1</text>
</g>
<!-- google.protobuf.Timestamp -->
<g id="node25" class="node">
<title>google.protobuf.Timestamp</title>
<polygon fill="#f2f2f2" stroke="black" points="2887,-294.5 2887,-330.5 3009,-330.5 3009,-294.5 2887,-294.5"/>
<text text-anchor="middle" x="2948" y="-310.6" font-family="Bitstream Vera Sans" font-size="8.00">google.protobuf.Timestamp</text>
</g>
<!-- linkedca.Provisioner&#45;&gt;google.protobuf.Timestamp -->
<g id="edge5" class="edge">
<title>linkedca.Provisioner&#45;&gt;google.protobuf.Timestamp</title>
<path fill="none" stroke="black" d="M2848.08,-411.91C2875.66,-382.35 2907.33,-349.74 2927.59,-330.47"/>
<text text-anchor="middle" x="2925.09" y="-333.07" font-family="Bitstream Vera Sans" font-size="8.00">1</text>
<text text-anchor="middle" x="2845.58" y="-405.51" font-family="Bitstream Vera Sans" font-size="8.00">1</text>
</g>
<!-- linkedca.Provisioner&#45;&gt;google.protobuf.Timestamp -->
<g id="edge6" class="edge">
<title>linkedca.Provisioner&#45;&gt;google.protobuf.Timestamp</title>
<path fill="none" stroke="black" d="M2861.33,-411.91C2889.81,-382.35 2919.95,-349.74 2936.22,-330.47"/>
<text text-anchor="middle" x="2933.72" y="-333.07" font-family="Bitstream Vera Sans" font-size="8.00">1</text>
<text text-anchor="middle" x="2858.83" y="-405.51" font-family="Bitstream Vera Sans" font-size="8.00">1</text>
</g>
<!-- linkedca.Policy -->
<g id="node26" class="node">
<title>linkedca.Policy</title>
<polygon fill="#f2f2f2" stroke="black" points="3027,-294.5 3027,-330.5 3099,-330.5 3099,-294.5 3027,-294.5"/>
<text text-anchor="middle" x="3063" y="-310.6" font-family="Bitstream Vera Sans" font-size="8.00">linkedca.Policy</text>
</g>
<!-- linkedca.Provisioner&#45;&gt;linkedca.Policy -->
<g id="edge7" class="edge">
<title>linkedca.Provisioner&#45;&gt;linkedca.Policy</title>
<path fill="none" stroke="black" d="M2917.44,-414.83C2920.32,-413.53 2923.17,-412.25 2926,-411 2966.15,-393.22 2983.21,-401.78 3018,-375 3033.62,-362.98 3046.3,-344.11 3054.17,-330.45"/>
<text text-anchor="middle" x="3051.67" y="-333.05" font-family="Bitstream Vera Sans" font-size="8.00">1</text>
<text text-anchor="middle" x="2919.94" y="-417.43" font-family="Bitstream Vera Sans" font-size="8.00">1</text>
</g>
<!-- linkedca.ProvisionerIdentity -->
<g id="node2" class="node">
<title>linkedca.ProvisionerIdentity</title>
<polygon fill="#f2f2f2" stroke="black" points="3149,-608.5 3149,-660.5 3327,-660.5 3327,-608.5 3149,-608.5"/>
<text text-anchor="middle" x="3238" y="-650.1" font-family="Bitstream Vera Sans" font-size="8.00">linkedca.ProvisionerIdentity</text>
<polyline fill="none" stroke="black" points="3149,-643.5 3327,-643.5"/>
<text text-anchor="middle" x="3238" y="-633.1" font-family="Bitstream Vera Sans" font-size="8.00">+ linkedca.ProvisionerIdentity.id:string</text>
<text text-anchor="middle" x="3238" y="-624.1" font-family="Bitstream Vera Sans" font-size="8.00">+ linkedca.ProvisionerIdentity.type:enum</text>
<text text-anchor="middle" x="3238" y="-615.1" font-family="Bitstream Vera Sans" font-size="8.00">+ linkedca.ProvisionerIdentity.name:string</text>
</g>
<!-- linkedca.JWKProvisioner -->
<g id="node10" class="node">
<title>linkedca.JWKProvisioner</title>
<polygon fill="#f2f2f2" stroke="black" points="0,-134.5 0,-177.5 222,-177.5 222,-134.5 0,-134.5"/>
<text text-anchor="middle" x="111" y="-167.1" font-family="Bitstream Vera Sans" font-size="8.00">linkedca.JWKProvisioner</text>
<polyline fill="none" stroke="black" points="0,-160.5 222,-160.5"/>
<text text-anchor="middle" x="111" y="-150.1" font-family="Bitstream Vera Sans" font-size="8.00">+ linkedca.JWKProvisioner.public_key:bytes</text>
<text text-anchor="middle" x="111" y="-141.1" font-family="Bitstream Vera Sans" font-size="8.00">+ linkedca.JWKProvisioner.encrypted_private_key:bytes</text>
</g>
<!-- linkedca.ProvisionerDetails&#45;&gt;linkedca.JWKProvisioner -->
<g id="edge9" class="edge">
<title>linkedca.ProvisionerDetails&#45;&gt;linkedca.JWKProvisioner</title>
<path fill="none" stroke="black" d="M1337.2,-307.15C1061.73,-297.12 436.73,-268.95 231,-214 200.69,-205.91 168.72,-190.33 145.41,-177.5"/>
<text text-anchor="middle" x="142.91" y="-180.1" font-family="Bitstream Vera Sans" font-size="8.00">1</text>
<text text-anchor="middle" x="1334.7" y="-309.75" font-family="Bitstream Vera Sans" font-size="8.00">1</text>
</g>
<!-- linkedca.OIDCProvisioner -->
<g id="node11" class="node">
<title>linkedca.OIDCProvisioner</title>
<polygon fill="#f2f2f2" stroke="black" points="240.5,-98.5 240.5,-213.5 475.5,-213.5 475.5,-98.5 240.5,-98.5"/>
<text text-anchor="middle" x="358" y="-203.1" font-family="Bitstream Vera Sans" font-size="8.00">linkedca.OIDCProvisioner</text>
<polyline fill="none" stroke="black" points="240.5,-196.5 475.5,-196.5"/>
<text text-anchor="middle" x="358" y="-186.1" font-family="Bitstream Vera Sans" font-size="8.00">+ linkedca.OIDCProvisioner.client_id:string</text>
<text text-anchor="middle" x="358" y="-177.1" font-family="Bitstream Vera Sans" font-size="8.00">+ linkedca.OIDCProvisioner.client_secret:string</text>
<text text-anchor="middle" x="358" y="-168.1" font-family="Bitstream Vera Sans" font-size="8.00">+ linkedca.OIDCProvisioner.configuration_endpoint:string</text>
<text text-anchor="middle" x="358" y="-159.1" font-family="Bitstream Vera Sans" font-size="8.00">+ linkedca.OIDCProvisioner.admins:string</text>
<text text-anchor="middle" x="358" y="-150.1" font-family="Bitstream Vera Sans" font-size="8.00">+ linkedca.OIDCProvisioner.domains:string</text>
<text text-anchor="middle" x="358" y="-141.1" font-family="Bitstream Vera Sans" font-size="8.00">+ linkedca.OIDCProvisioner.groups:string</text>
<text text-anchor="middle" x="358" y="-132.1" font-family="Bitstream Vera Sans" font-size="8.00">+ linkedca.OIDCProvisioner.listen_address:string</text>
<text text-anchor="middle" x="358" y="-123.1" font-family="Bitstream Vera Sans" font-size="8.00">+ linkedca.OIDCProvisioner.tenant_id:string</text>
<text text-anchor="middle" x="358" y="-114.1" font-family="Bitstream Vera Sans" font-size="8.00">+ linkedca.OIDCProvisioner.scopes:string</text>
<text text-anchor="middle" x="358" y="-105.1" font-family="Bitstream Vera Sans" font-size="8.00">+ linkedca.OIDCProvisioner.auth_params:string</text>
</g>
<!-- linkedca.ProvisionerDetails&#45;&gt;linkedca.OIDCProvisioner -->
<g id="edge10" class="edge">
<title>linkedca.ProvisionerDetails&#45;&gt;linkedca.OIDCProvisioner</title>
<path fill="none" stroke="black" d="M1337.18,-311.97C1145.49,-309.61 781.63,-293.72 484,-214 481.1,-213.22 478.18,-212.39 475.26,-211.5"/>
<text text-anchor="middle" x="477.76" y="-214.1" font-family="Bitstream Vera Sans" font-size="8.00">1</text>
<text text-anchor="middle" x="1335.93" y="-305.57" font-family="Bitstream Vera Sans" font-size="8.00">1</text>
</g>
<!-- linkedca.GCPProvisioner -->
<g id="node12" class="node">
<title>linkedca.GCPProvisioner</title>
<polygon fill="#f2f2f2" stroke="black" points="493.5,-112 493.5,-200 726.5,-200 726.5,-112 493.5,-112"/>
<text text-anchor="middle" x="610" y="-189.6" font-family="Bitstream Vera Sans" font-size="8.00">linkedca.GCPProvisioner</text>
<polyline fill="none" stroke="black" points="493.5,-183 726.5,-183"/>
<text text-anchor="middle" x="610" y="-172.6" font-family="Bitstream Vera Sans" font-size="8.00">+ linkedca.GCPProvisioner.service_accounts:string</text>
<text text-anchor="middle" x="610" y="-163.6" font-family="Bitstream Vera Sans" font-size="8.00">+ linkedca.GCPProvisioner.project_ids:string</text>
<text text-anchor="middle" x="610" y="-154.6" font-family="Bitstream Vera Sans" font-size="8.00">+ linkedca.GCPProvisioner.disable_custom_sans:bool</text>
<text text-anchor="middle" x="610" y="-145.6" font-family="Bitstream Vera Sans" font-size="8.00">+ linkedca.GCPProvisioner.disable_trust_on_first_use:bool</text>
<text text-anchor="middle" x="610" y="-136.6" font-family="Bitstream Vera Sans" font-size="8.00">+ linkedca.GCPProvisioner.instance_age:string</text>
<text text-anchor="middle" x="610" y="-127.6" font-family="Bitstream Vera Sans" font-size="8.00">+ linkedca.GCPProvisioner.disable_ssh_ca_user:bool</text>
<text text-anchor="middle" x="610" y="-118.6" font-family="Bitstream Vera Sans" font-size="8.00">+ linkedca.GCPProvisioner.disable_ssh_ca_host:bool</text>
</g>
<!-- linkedca.ProvisionerDetails&#45;&gt;linkedca.GCPProvisioner -->
<g id="edge11" class="edge">
<title>linkedca.ProvisionerDetails&#45;&gt;linkedca.GCPProvisioner</title>
<path fill="none" stroke="black" d="M1337.03,-305.53C1188.14,-296.17 940.86,-272.57 736,-214 722.84,-210.24 709.3,-205.33 696.19,-199.96"/>
<text text-anchor="middle" x="693.69" y="-202.56" font-family="Bitstream Vera Sans" font-size="8.00">1</text>
<text text-anchor="middle" x="1334.53" y="-299.13" font-family="Bitstream Vera Sans" font-size="8.00">1</text>
</g>
<!-- linkedca.AWSProvisioner -->
<g id="node13" class="node">
<title>linkedca.AWSProvisioner</title>
<polygon fill="#f2f2f2" stroke="black" points="745,-125.5 745,-186.5 979,-186.5 979,-125.5 745,-125.5"/>
<text text-anchor="middle" x="862" y="-176.1" font-family="Bitstream Vera Sans" font-size="8.00">linkedca.AWSProvisioner</text>
<polyline fill="none" stroke="black" points="745,-169.5 979,-169.5"/>
<text text-anchor="middle" x="862" y="-159.1" font-family="Bitstream Vera Sans" font-size="8.00">+ linkedca.AWSProvisioner.accounts:string</text>
<text text-anchor="middle" x="862" y="-150.1" font-family="Bitstream Vera Sans" font-size="8.00">+ linkedca.AWSProvisioner.disable_custom_sans:bool</text>
<text text-anchor="middle" x="862" y="-141.1" font-family="Bitstream Vera Sans" font-size="8.00">+ linkedca.AWSProvisioner.disable_trust_on_first_use:bool</text>
<text text-anchor="middle" x="862" y="-132.1" font-family="Bitstream Vera Sans" font-size="8.00">+ linkedca.AWSProvisioner.instance_age:string</text>
</g>
<!-- linkedca.ProvisionerDetails&#45;&gt;linkedca.AWSProvisioner -->
<g id="edge12" class="edge">
<title>linkedca.ProvisionerDetails&#45;&gt;linkedca.AWSProvisioner</title>
<path fill="none" stroke="black" d="M1337.02,-292.87C1239.05,-277.16 1103.37,-251.24 988,-214 965.15,-206.63 940.93,-196.31 919.89,-186.49"/>
<text text-anchor="middle" x="917.39" y="-189.09" font-family="Bitstream Vera Sans" font-size="8.00">1</text>
<text text-anchor="middle" x="1334.52" y="-286.47" font-family="Bitstream Vera Sans" font-size="8.00">1</text>
</g>
<!-- linkedca.AzureProvisioner -->
<g id="node14" class="node">
<title>linkedca.AzureProvisioner</title>
<polygon fill="#f2f2f2" stroke="black" points="997.5,-112 997.5,-200 1236.5,-200 1236.5,-112 997.5,-112"/>
<text text-anchor="middle" x="1117" y="-189.6" font-family="Bitstream Vera Sans" font-size="8.00">linkedca.AzureProvisioner</text>
<polyline fill="none" stroke="black" points="997.5,-183 1236.5,-183"/>
<text text-anchor="middle" x="1117" y="-172.6" font-family="Bitstream Vera Sans" font-size="8.00">+ linkedca.AzureProvisioner.tenant_id:string</text>
<text text-anchor="middle" x="1117" y="-163.6" font-family="Bitstream Vera Sans" font-size="8.00">+ linkedca.AzureProvisioner.resource_groups:string</text>
<text text-anchor="middle" x="1117" y="-154.6" font-family="Bitstream Vera Sans" font-size="8.00">+ linkedca.AzureProvisioner.audience:string</text>
<text text-anchor="middle" x="1117" y="-145.6" font-family="Bitstream Vera Sans" font-size="8.00">+ linkedca.AzureProvisioner.disable_custom_sans:bool</text>
<text text-anchor="middle" x="1117" y="-136.6" font-family="Bitstream Vera Sans" font-size="8.00">+ linkedca.AzureProvisioner.disable_trust_on_first_use:bool</text>
<text text-anchor="middle" x="1117" y="-127.6" font-family="Bitstream Vera Sans" font-size="8.00">+ linkedca.AzureProvisioner.subscription_ids:string</text>
<text text-anchor="middle" x="1117" y="-118.6" font-family="Bitstream Vera Sans" font-size="8.00">+ linkedca.AzureProvisioner.object_ids:string</text>
</g>
<!-- linkedca.ProvisionerDetails&#45;&gt;linkedca.AzureProvisioner -->
<g id="edge13" class="edge">
<title>linkedca.ProvisionerDetails&#45;&gt;linkedca.AzureProvisioner</title>
<path fill="none" stroke="black" d="M1337.29,-253.88C1307.25,-240.8 1275.52,-226.95 1246,-214 1235.57,-209.43 1224.68,-204.64 1213.83,-199.85"/>
<text text-anchor="middle" x="1211.33" y="-202.45" font-family="Bitstream Vera Sans" font-size="8.00">1</text>
<text text-anchor="middle" x="1334.79" y="-247.48" font-family="Bitstream Vera Sans" font-size="8.00">1</text>
</g>
<!-- linkedca.ACMEProvisioner -->
<g id="node15" class="node">
<title>linkedca.ACMEProvisioner</title>
<polygon fill="#f2f2f2" stroke="black" points="1255,-107.5 1255,-204.5 1477,-204.5 1477,-107.5 1255,-107.5"/>
<text text-anchor="middle" x="1366" y="-194.1" font-family="Bitstream Vera Sans" font-size="8.00">linkedca.ACMEProvisioner</text>
<polyline fill="none" stroke="black" points="1255,-187.5 1477,-187.5"/>
<text text-anchor="middle" x="1366" y="-177.1" font-family="Bitstream Vera Sans" font-size="8.00">+ linkedca.ACMEProvisioner.force_cn:bool</text>
<text text-anchor="middle" x="1366" y="-168.1" font-family="Bitstream Vera Sans" font-size="8.00">+ linkedca.ACMEProvisioner.require_eab:bool</text>
<text text-anchor="middle" x="1366" y="-159.1" font-family="Bitstream Vera Sans" font-size="8.00">+ linkedca.ACMEProvisioner.challenges:enum</text>
<text text-anchor="middle" x="1366" y="-150.1" font-family="Bitstream Vera Sans" font-size="8.00">+ linkedca.ACMEProvisioner.attestation_formats:enum</text>
<text text-anchor="middle" x="1366" y="-141.1" font-family="Bitstream Vera Sans" font-size="8.00">+ linkedca.ACMEProvisioner.attestation_roots:bytes</text>
<text text-anchor="middle" x="1366" y="-132.1" font-family="Bitstream Vera Sans" font-size="8.00">+ linkedca.ACMEProvisioner.terms_of_service:string</text>
<text text-anchor="middle" x="1366" y="-123.1" font-family="Bitstream Vera Sans" font-size="8.00">+ linkedca.ACMEProvisioner.website:string</text>
<text text-anchor="middle" x="1366" y="-114.1" font-family="Bitstream Vera Sans" font-size="8.00">+ linkedca.ACMEProvisioner.caa_identities:string</text>
</g>
<!-- linkedca.ProvisionerDetails&#45;&gt;linkedca.ACMEProvisioner -->
<g id="edge14" class="edge">
<title>linkedca.ProvisionerDetails&#45;&gt;linkedca.ACMEProvisioner</title>
<path fill="none" stroke="black" d="M1429.19,-250.88C1418.72,-235.33 1407.62,-218.83 1397.68,-204.07"/>
<text text-anchor="middle" x="1395.18" y="-206.67" font-family="Bitstream Vera Sans" font-size="8.00">1</text>
<text text-anchor="middle" x="1426.69" y="-244.48" font-family="Bitstream Vera Sans" font-size="8.00">1</text>
</g>
<!-- linkedca.X5CProvisioner -->
<g id="node16" class="node">
<title>linkedca.X5CProvisioner</title>
<polygon fill="#f2f2f2" stroke="black" points="1495.5,-138 1495.5,-174 1650.5,-174 1650.5,-138 1495.5,-138"/>
<text text-anchor="middle" x="1573" y="-163.1" font-family="Bitstream Vera Sans" font-size="8.00">linkedca.X5CProvisioner</text>
<polyline fill="none" stroke="black" points="1495.5,-156 1650.5,-156"/>
<text text-anchor="middle" x="1573" y="-145.1" font-family="Bitstream Vera Sans" font-size="8.00">+ linkedca.X5CProvisioner.roots:bytes</text>
</g>
<!-- linkedca.ProvisionerDetails&#45;&gt;linkedca.X5CProvisioner -->
<g id="edge15" class="edge">
<title>linkedca.ProvisionerDetails&#45;&gt;linkedca.X5CProvisioner</title>
<path fill="none" stroke="black" d="M1510.41,-250.88C1528.9,-223.15 1549.39,-192.42 1561.72,-173.92"/>
<text text-anchor="middle" x="1559.22" y="-176.52" font-family="Bitstream Vera Sans" font-size="8.00">1</text>
<text text-anchor="middle" x="1507.91" y="-244.48" font-family="Bitstream Vera Sans" font-size="8.00">1</text>
</g>
<!-- linkedca.K8sSAProvisioner -->
<g id="node17" class="node">
<title>linkedca.K8sSAProvisioner</title>
<polygon fill="#f2f2f2" stroke="black" points="1669,-138 1669,-174 1859,-174 1859,-138 1669,-138"/>
<text text-anchor="middle" x="1764" y="-163.1" font-family="Bitstream Vera Sans" font-size="8.00">linkedca.K8sSAProvisioner</text>
<polyline fill="none" stroke="black" points="1669,-156 1859,-156"/>
<text text-anchor="middle" x="1764" y="-145.1" font-family="Bitstream Vera Sans" font-size="8.00">+ linkedca.K8sSAProvisioner.public_keys:bytes</text>
</g>
<!-- linkedca.ProvisionerDetails&#45;&gt;linkedca.K8sSAProvisioner -->
<g id="edge16" class="edge">
<title>linkedca.ProvisionerDetails&#45;&gt;linkedca.K8sSAProvisioner</title>
<path fill="none" stroke="black" d="M1589.17,-250.51C1612.37,-238.49 1636.48,-225.92 1659,-214 1684.12,-200.71 1712.42,-185.32 1733.31,-173.88"/>
<text text-anchor="middle" x="1730.81" y="-176.48" font-family="Bitstream Vera Sans" font-size="8.00">1</text>
<text text-anchor="middle" x="1586.67" y="-244.11" font-family="Bitstream Vera Sans" font-size="8.00">1</text>
</g>
<!-- linkedca.SSHPOPProvisioner -->
<g id="node18" class="node">
<title>linkedca.SSHPOPProvisioner</title>
<polygon fill="#f2f2f2" stroke="black" points="1877,-138 1877,-174 1999,-174 1999,-138 1877,-138"/>
<text text-anchor="middle" x="1938" y="-163.1" font-family="Bitstream Vera Sans" font-size="8.00">linkedca.SSHPOPProvisioner</text>
<polyline fill="none" stroke="black" points="1877,-156 1999,-156"/>
<text text-anchor="middle" x="1938" y="-145.1" font-family="Bitstream Vera Sans" font-size="8.00"> </text>
</g>
<!-- linkedca.ProvisionerDetails&#45;&gt;linkedca.SSHPOPProvisioner -->
<g id="edge17" class="edge">
<title>linkedca.ProvisionerDetails&#45;&gt;linkedca.SSHPOPProvisioner</title>
<path fill="none" stroke="black" d="M1602.79,-294.08C1682.7,-279.99 1784.73,-255.45 1868,-214 1888.48,-203.8 1908.37,-186.7 1921.68,-173.88"/>
<text text-anchor="middle" x="1919.18" y="-176.48" font-family="Bitstream Vera Sans" font-size="8.00">1</text>
<text text-anchor="middle" x="1605.29" y="-287.68" font-family="Bitstream Vera Sans" font-size="8.00">1</text>
</g>
<!-- linkedca.SCEPProvisioner -->
<g id="node20" class="node">
<title>linkedca.SCEPProvisioner</title>
<polygon fill="#f2f2f2" stroke="black" points="2017.5,-107.5 2017.5,-204.5 2278.5,-204.5 2278.5,-107.5 2017.5,-107.5"/>
<text text-anchor="middle" x="2148" y="-194.1" font-family="Bitstream Vera Sans" font-size="8.00">linkedca.SCEPProvisioner</text>
<polyline fill="none" stroke="black" points="2017.5,-187.5 2278.5,-187.5"/>
<text text-anchor="middle" x="2148" y="-177.1" font-family="Bitstream Vera Sans" font-size="8.00">+ linkedca.SCEPProvisioner.force_cn:bool</text>
<text text-anchor="middle" x="2148" y="-168.1" font-family="Bitstream Vera Sans" font-size="8.00">+ linkedca.SCEPProvisioner.challenge:string</text>
<text text-anchor="middle" x="2148" y="-159.1" font-family="Bitstream Vera Sans" font-size="8.00">+ linkedca.SCEPProvisioner.capabilities:string</text>
<text text-anchor="middle" x="2148" y="-150.1" font-family="Bitstream Vera Sans" font-size="8.00">+ linkedca.SCEPProvisioner.minimum_public_key_length:int32</text>
<text text-anchor="middle" x="2148" y="-141.1" font-family="Bitstream Vera Sans" font-size="8.00">+ linkedca.SCEPProvisioner.include_root:bool</text>
<text text-anchor="middle" x="2148" y="-132.1" font-family="Bitstream Vera Sans" font-size="8.00">+ linkedca.SCEPProvisioner.encryption_algorithm_identifier:int32</text>
<text text-anchor="middle" x="2148" y="-123.1" font-family="Bitstream Vera Sans" font-size="8.00">+ linkedca.SCEPProvisioner.decrypter:linkedca.SCEPDecrypter</text>
<text text-anchor="middle" x="2148" y="-114.1" font-family="Bitstream Vera Sans" font-size="8.00">+ linkedca.SCEPProvisioner.exclude_intermediate:bool</text>
</g>
<!-- linkedca.ProvisionerDetails&#45;&gt;linkedca.SCEPProvisioner -->
<g id="edge18" class="edge">
<title>linkedca.ProvisionerDetails&#45;&gt;linkedca.SCEPProvisioner</title>
<path fill="none" stroke="black" d="M1602.77,-295.26C1712.75,-279.95 1872.42,-253.42 2008,-214 2017.7,-211.18 2027.65,-207.92 2037.56,-204.41"/>
<text text-anchor="middle" x="2035.06" y="-207.01" font-family="Bitstream Vera Sans" font-size="8.00">1</text>
<text text-anchor="middle" x="1605.27" y="-297.86" font-family="Bitstream Vera Sans" font-size="8.00">1</text>
</g>
<!-- linkedca.NebulaProvisioner -->
<g id="node21" class="node">
<title>linkedca.NebulaProvisioner</title>
<polygon fill="#f2f2f2" stroke="black" points="2296.5,-138 2296.5,-174 2465.5,-174 2465.5,-138 2296.5,-138"/>
<text text-anchor="middle" x="2381" y="-163.1" font-family="Bitstream Vera Sans" font-size="8.00">linkedca.NebulaProvisioner</text>
<polyline fill="none" stroke="black" points="2296.5,-156 2465.5,-156"/>
<text text-anchor="middle" x="2381" y="-145.1" font-family="Bitstream Vera Sans" font-size="8.00">+ linkedca.NebulaProvisioner.roots:bytes</text>
</g>
<!-- linkedca.ProvisionerDetails&#45;&gt;linkedca.NebulaProvisioner -->
<g id="edge19" class="edge">
<title>linkedca.ProvisionerDetails&#45;&gt;linkedca.NebulaProvisioner</title>
<path fill="none" stroke="black" d="M1602.89,-302.51C1801.03,-287.94 2163.77,-256.48 2287,-214 2313.7,-204.8 2340.95,-187.18 2359.18,-173.96"/>
<text text-anchor="middle" x="2356.68" y="-176.56" font-family="Bitstream Vera Sans" font-size="8.00">1</text>
<text text-anchor="middle" x="1605.39" y="-305.11" font-family="Bitstream Vera Sans" font-size="8.00">1</text>
</g>
<!-- linkedca.X509Claims -->
<g id="node6" class="node">
<title>linkedca.X509Claims</title>
<polygon fill="#f2f2f2" stroke="black" points="2483.5,-134.5 2483.5,-177.5 2698.5,-177.5 2698.5,-134.5 2483.5,-134.5"/>
<text text-anchor="middle" x="2591" y="-167.1" font-family="Bitstream Vera Sans" font-size="8.00">linkedca.X509Claims</text>
<polyline fill="none" stroke="black" points="2483.5,-160.5 2698.5,-160.5"/>
<text text-anchor="middle" x="2591" y="-150.1" font-family="Bitstream Vera Sans" font-size="8.00">+ linkedca.X509Claims.enabled:bool</text>
<text text-anchor="middle" x="2591" y="-141.1" font-family="Bitstream Vera Sans" font-size="8.00">+ linkedca.X509Claims.durations:linkedca.Durations</text>
</g>
<!-- linkedca.Claims&#45;&gt;linkedca.X509Claims -->
<g id="edge21" class="edge">
<title>linkedca.Claims&#45;&gt;linkedca.X509Claims</title>
<path fill="none" stroke="black" d="M2591,-277.59C2591,-246.86 2591,-202.59 2591,-177.12"/>
<text text-anchor="middle" x="2588.5" y="-179.72" font-family="Bitstream Vera Sans" font-size="8.00">1</text>
<text text-anchor="middle" x="2588.5" y="-271.19" font-family="Bitstream Vera Sans" font-size="8.00">1</text>
</g>
<!-- linkedca.SSHClaims -->
<g id="node7" class="node">
<title>linkedca.SSHClaims</title>
<polygon fill="#f2f2f2" stroke="black" points="2717,-130 2717,-182 2949,-182 2949,-130 2717,-130"/>
<text text-anchor="middle" x="2833" y="-171.6" font-family="Bitstream Vera Sans" font-size="8.00">linkedca.SSHClaims</text>
<polyline fill="none" stroke="black" points="2717,-165 2949,-165"/>
<text text-anchor="middle" x="2833" y="-154.6" font-family="Bitstream Vera Sans" font-size="8.00">+ linkedca.SSHClaims.enabled:bool</text>
<text text-anchor="middle" x="2833" y="-145.6" font-family="Bitstream Vera Sans" font-size="8.00">+ linkedca.SSHClaims.user_durations:linkedca.Durations</text>
<text text-anchor="middle" x="2833" y="-136.6" font-family="Bitstream Vera Sans" font-size="8.00">+ linkedca.SSHClaims.host_durations:linkedca.Durations</text>
</g>
<!-- linkedca.Claims&#45;&gt;linkedca.SSHClaims -->
<g id="edge22" class="edge">
<title>linkedca.Claims&#45;&gt;linkedca.SSHClaims</title>
<path fill="none" stroke="black" d="M2644.11,-277.59C2689.33,-248.73 2753.25,-207.92 2793.91,-181.96"/>
<text text-anchor="middle" x="2791.41" y="-184.56" font-family="Bitstream Vera Sans" font-size="8.00">1</text>
<text text-anchor="middle" x="2641.61" y="-271.19" font-family="Bitstream Vera Sans" font-size="8.00">1</text>
</g>
<!-- linkedca.Durations -->
<g id="node8" class="node">
<title>linkedca.Durations</title>
<polygon fill="#f2f2f2" stroke="black" points="2758,-5 2758,-57 2908,-57 2908,-5 2758,-5"/>
<text text-anchor="middle" x="2833" y="-46.6" font-family="Bitstream Vera Sans" font-size="8.00">linkedca.Durations</text>
<polyline fill="none" stroke="black" points="2758,-40 2908,-40"/>
<text text-anchor="middle" x="2833" y="-29.6" font-family="Bitstream Vera Sans" font-size="8.00">+ linkedca.Durations.default:string</text>
<text text-anchor="middle" x="2833" y="-20.6" font-family="Bitstream Vera Sans" font-size="8.00">+ linkedca.Durations.min:string</text>
<text text-anchor="middle" x="2833" y="-11.6" font-family="Bitstream Vera Sans" font-size="8.00">+ linkedca.Durations.max:string</text>
</g>
<!-- linkedca.X509Claims&#45;&gt;linkedca.Durations -->
<g id="edge23" class="edge">
<title>linkedca.X509Claims&#45;&gt;linkedca.Durations</title>
<path fill="none" stroke="black" d="M2631.23,-134.55C2673.17,-113.24 2738.92,-79.82 2783.89,-56.96"/>
<text text-anchor="middle" x="2781.39" y="-59.56" font-family="Bitstream Vera Sans" font-size="8.00">1</text>
<text text-anchor="middle" x="2628.73" y="-128.15" font-family="Bitstream Vera Sans" font-size="8.00">1</text>
</g>
<!-- linkedca.SSHClaims&#45;&gt;linkedca.Durations -->
<g id="edge24" class="edge">
<title>linkedca.SSHClaims&#45;&gt;linkedca.Durations</title>
<path fill="none" stroke="black" d="M2827.45,-130.11C2825.85,-108.77 2825.85,-78.18 2827.45,-56.85"/>
<text text-anchor="middle" x="2824.95" y="-59.45" font-family="Bitstream Vera Sans" font-size="8.00">1</text>
<text text-anchor="middle" x="2824.95" y="-123.71" font-family="Bitstream Vera Sans" font-size="8.00">1</text>
</g>
<!-- linkedca.SSHClaims&#45;&gt;linkedca.Durations -->
<g id="edge25" class="edge">
<title>linkedca.SSHClaims&#45;&gt;linkedca.Durations</title>
<path fill="none" stroke="black" d="M2838.55,-130.11C2840.15,-108.77 2840.15,-78.18 2838.55,-56.85"/>
<text text-anchor="middle" x="2836.05" y="-59.45" font-family="Bitstream Vera Sans" font-size="8.00">1</text>
<text text-anchor="middle" x="2836.05" y="-123.71" font-family="Bitstream Vera Sans" font-size="8.00">1</text>
</g>
<!-- linkedca.SCEPDecrypter -->
<g id="node19" class="node">
<title>linkedca.SCEPDecrypter</title>
<polygon fill="#f2f2f2" stroke="black" points="2053.5,-0.5 2053.5,-61.5 2242.5,-61.5 2242.5,-0.5 2053.5,-0.5"/>
<text text-anchor="middle" x="2148" y="-51.1" font-family="Bitstream Vera Sans" font-size="8.00">linkedca.SCEPDecrypter</text>
<polyline fill="none" stroke="black" points="2053.5,-44.5 2242.5,-44.5"/>
<text text-anchor="middle" x="2148" y="-34.1" font-family="Bitstream Vera Sans" font-size="8.00">+ linkedca.SCEPDecrypter.certificate:bytes</text>
<text text-anchor="middle" x="2148" y="-25.1" font-family="Bitstream Vera Sans" font-size="8.00">+ linkedca.SCEPDecrypter.key:bytes</text>
<text text-anchor="middle" x="2148" y="-16.1" font-family="Bitstream Vera Sans" font-size="8.00">+ linkedca.SCEPDecrypter.key_uri:string</text>
<text text-anchor="middle" x="2148" y="-7.1" font-family="Bitstream Vera Sans" font-size="8.00">+ linkedca.SCEPDecrypter.key_password:bytes</text>
</g>
<!-- linkedca.SCEPProvisioner&#45;&gt;linkedca.SCEPDecrypter -->
<g id="edge26" class="edge">
<title>linkedca.SCEPProvisioner&#45;&gt;linkedca.SCEPDecrypter</title>
<path fill="none" stroke="black" d="M2148,-107.8C2148,-92.21 2148,-75.34 2148,-61.47"/>
<text text-anchor="middle" x="2145.5" y="-64.07" font-family="Bitstream Vera Sans" font-size="8.00">1</text>
<text text-anchor="middle" x="2145.5" y="-101.4" font-family="Bitstream Vera Sans" font-size="8.00">1</text>
</g>
<!-- linkedca.BasicAuth -->
<g id="node22" class="node">
<title>linkedca.BasicAuth</title>
<polygon fill="#f2f2f2" stroke="black" points="2935.5,-456.5 2935.5,-499.5 3096.5,-499.5 3096.5,-456.5 2935.5,-456.5"/>
<text text-anchor="middle" x="3016" y="-489.1" font-family="Bitstream Vera Sans" font-size="8.00">linkedca.BasicAuth</text>
<polyline fill="none" stroke="black" points="2935.5,-482.5 3096.5,-482.5"/>
<text text-anchor="middle" x="3016" y="-472.1" font-family="Bitstream Vera Sans" font-size="8.00">+ linkedca.BasicAuth.username:string</text>
<text text-anchor="middle" x="3016" y="-463.1" font-family="Bitstream Vera Sans" font-size="8.00">+ linkedca.BasicAuth.password:string</text>
</g>
<!-- linkedca.BearerToken -->
<g id="node23" class="node">
<title>linkedca.BearerToken</title>
<polygon fill="#f2f2f2" stroke="black" points="3115,-460 3115,-496 3297,-496 3297,-460 3115,-460"/>
<text text-anchor="middle" x="3206" y="-485.1" font-family="Bitstream Vera Sans" font-size="8.00">linkedca.BearerToken</text>
<polyline fill="none" stroke="black" points="3115,-478 3297,-478"/>
<text text-anchor="middle" x="3206" y="-467.1" font-family="Bitstream Vera Sans" font-size="8.00">+ linkedca.BearerToken.bearer_token:string</text>
</g>
<!-- linkedca.Webhook -->
<g id="node24" class="node">
<title>linkedca.Webhook</title>
<polygon fill="#f2f2f2" stroke="black" points="2901,-581.5 2901,-687.5 3131,-687.5 3131,-581.5 2901,-581.5"/>
<text text-anchor="middle" x="3016" y="-677.1" font-family="Bitstream Vera Sans" font-size="8.00">linkedca.Webhook</text>
<polyline fill="none" stroke="black" points="2901,-670.5 3131,-670.5"/>
<text text-anchor="middle" x="3016" y="-660.1" font-family="Bitstream Vera Sans" font-size="8.00">+ linkedca.Webhook.name:string</text>
<text text-anchor="middle" x="3016" y="-651.1" font-family="Bitstream Vera Sans" font-size="8.00">+ linkedca.Webhook.id:string</text>
<text text-anchor="middle" x="3016" y="-642.1" font-family="Bitstream Vera Sans" font-size="8.00">+ linkedca.Webhook.url:string</text>
<text text-anchor="middle" x="3016" y="-633.1" font-family="Bitstream Vera Sans" font-size="8.00">+ linkedca.Webhook.kind:enum</text>
<text text-anchor="middle" x="3016" y="-624.1" font-family="Bitstream Vera Sans" font-size="8.00">+ linkedca.Webhook.secret:string</text>
<text text-anchor="middle" x="3016" y="-615.1" font-family="Bitstream Vera Sans" font-size="8.00">+ linkedca.Webhook.bearer_token:linkedca.BearerToken</text>
<text text-anchor="middle" x="3016" y="-606.1" font-family="Bitstream Vera Sans" font-size="8.00">+ linkedca.Webhook.basic_auth:linkedca.BasicAuth</text>
<text text-anchor="middle" x="3016" y="-597.1" font-family="Bitstream Vera Sans" font-size="8.00">+ linkedca.Webhook.disable_tls_client_auth:bool</text>
<text text-anchor="middle" x="3016" y="-588.1" font-family="Bitstream Vera Sans" font-size="8.00">+ linkedca.Webhook.cert_type:enum</text>
</g>
<!-- linkedca.Webhook&#45;&gt;linkedca.Provisioner -->
<g id="edge8" class="edge">
<title>linkedca.Webhook&#45;&gt;linkedca.Provisioner</title>
<path fill="none" stroke="black" d="M2941.12,-581.62C2927.28,-572.03 2912.58,-561.85 2898.03,-551.77"/>
<polygon fill="none" stroke="black" points="2898.09,-551.81 2890.88,-551.68 2888.22,-544.97 2895.43,-545.1 2898.09,-551.81"/>
<text text-anchor="middle" x="2884.98" y="-547.06" font-family="Bitstream Vera Sans" font-size="8.00">1</text>
<text text-anchor="middle" x="2934.12" y="-575.22" font-family="Bitstream Vera Sans" font-size="8.00">0..*</text>
</g>
<!-- linkedca.Webhook&#45;&gt;linkedca.BasicAuth -->
<g id="edge28" class="edge">
<title>linkedca.Webhook&#45;&gt;linkedca.BasicAuth</title>
<path fill="none" stroke="black" d="M3016,-581.62C3016,-553.4 3016,-520.08 3016,-499.25"/>
<text text-anchor="middle" x="3013.5" y="-501.85" font-family="Bitstream Vera Sans" font-size="8.00">1</text>
<text text-anchor="middle" x="3013.5" y="-575.22" font-family="Bitstream Vera Sans" font-size="8.00">1</text>
</g>
<!-- linkedca.Webhook&#45;&gt;linkedca.BearerToken -->
<g id="edge27" class="edge">
<title>linkedca.Webhook&#45;&gt;linkedca.BearerToken</title>
<path fill="none" stroke="black" d="M3079.8,-581.62C3116.45,-551.82 3160.08,-516.34 3185.25,-495.87"/>
<text text-anchor="middle" x="3182.75" y="-498.47" font-family="Bitstream Vera Sans" font-size="8.00">1</text>
<text text-anchor="middle" x="3077.3" y="-575.22" font-family="Bitstream Vera Sans" font-size="8.00">1</text>
</g>
</g>
</svg>
