<?xml version="1.0" encoding="UTF-8" standalone="no"?>
<!DOCTYPE svg PUBLIC "-//W3C//DTD SVG 1.1//EN"
 "http://www.w3.org/Graphics/SVG/1.1/DTD/svg11.dtd">
<!-- Generated by graphviz version 12.2.1 (0)
 -->
<!-- Pages: 1 -->
<svg width="911pt" height="760pt"
 viewBox="0.00 0.00 911.25 760.00" xmlns="http://www.w3.org/2000/svg" xmlns:xlink="http://www.w3.org/1999/xlink">
<g id="graph0" class="graph" transform="scale(1 1) rotate(0) translate(4 756)">
<polygon fill="white" stroke="none" points="-4,4 -4,-756 907.25,-756 907.25,4 -4,4"/>
<!-- 824634649088 -->
<g id="node1" class="node">
<title>824634649088</title>
<path fill="lightblue" stroke="lightblue" d="M538.25,-83.5C538.25,-83.5 699,-83.5 699,-83.5 705,-83.5 711,-89.5 711,-95.5 711,-95.5 711,-107.5 711,-107.5 711,-113.5 705,-119.5 699,-119.5 699,-119.5 538.25,-119.5 538.25,-119.5 532.25,-119.5 526.25,-113.5 526.25,-107.5 526.25,-107.5 526.25,-95.5 526.25,-95.5 526.25,-89.5 532.25,-83.5 538.25,-83.5"/>
<text text-anchor="middle" x="618.62" y="-97.2" font-family="Times,serif" font-size="14.00">doc/getting&#45;started.texi</text>
</g>
<!-- 824634649344 -->
<g id="node2" class="node">
<title>824634649344</title>
<path fill="lightblue" stroke="lightblue" d="M82.88,-110.5C82.88,-110.5 155.88,-110.5 155.88,-110.5 161.88,-110.5 167.88,-116.5 167.88,-122.5 167.88,-122.5 167.88,-134.5 167.88,-134.5 167.88,-140.5 161.88,-146.5 155.88,-146.5 155.88,-146.5 82.88,-146.5 82.88,-146.5 76.88,-146.5 70.88,-140.5 70.88,-134.5 70.88,-134.5 70.88,-122.5 70.88,-122.5 70.88,-116.5 76.88,-110.5 82.88,-110.5"/>
<text text-anchor="middle" x="119.38" y="-124.2" font-family="Times,serif" font-size="14.00">doc/rde.pdf</text>
</g>
<!-- 824634647552 -->
<g id="node3" class="node">
<title>824634647552</title>
<path fill="lightblue" stroke="lightblue" d="M344.12,-55.5C344.12,-55.5 420.88,-55.5 420.88,-55.5 426.88,-55.5 432.88,-61.5 432.88,-67.5 432.88,-67.5 432.88,-79.5 432.88,-79.5 432.88,-85.5 426.88,-91.5 420.88,-91.5 420.88,-91.5 344.12,-91.5 344.12,-91.5 338.12,-91.5 332.12,-85.5 332.12,-79.5 332.12,-79.5 332.12,-67.5 332.12,-67.5 332.12,-61.5 338.12,-55.5 344.12,-55.5"/>
<text text-anchor="middle" x="382.5" y="-69.2" font-family="Times,serif" font-size="14.00">doc/rde.texi</text>
</g>
<!-- 824634649344&#45;&gt;824634647552 -->
<g id="edge1" class="edge">
<title>824634649344&#45;&gt;824634647552</title>
<path fill="none" stroke="black" d="M168.27,-118.41C211.12,-109.39 274.14,-96.11 320.56,-86.33"/>
<polygon fill="black" stroke="black" points="321.14,-89.79 330.21,-84.3 319.7,-82.94 321.14,-89.79"/>
</g>
<!-- 824634647552&#45;&gt;824634649088 -->
<g id="edge4" class="edge">
<title>824634647552&#45;&gt;824634649088</title>
<path fill="none" stroke="black" d="M433.15,-79.44C456.97,-82.29 486.44,-85.81 514.78,-89.2"/>
<polygon fill="black" stroke="black" points="514.14,-92.65 524.48,-90.36 514.97,-85.7 514.14,-92.65"/>
</g>
<!-- 824634648960 -->
<g id="node6" class="node">
<title>824634648960</title>
<path fill="lightblue" stroke="lightblue" d="M551,-28.5C551,-28.5 686.25,-28.5 686.25,-28.5 692.25,-28.5 698.25,-34.5 698.25,-40.5 698.25,-40.5 698.25,-52.5 698.25,-52.5 698.25,-58.5 692.25,-64.5 686.25,-64.5 686.25,-64.5 551,-64.5 551,-64.5 545,-64.5 539,-58.5 539,-52.5 539,-52.5 539,-40.5 539,-40.5 539,-34.5 545,-28.5 551,-28.5"/>
<text text-anchor="middle" x="618.62" y="-42.2" font-family="Times,serif" font-size="14.00">doc/rde&#45;tool&#45;list.texi</text>
</g>
<!-- 824634647552&#45;&gt;824634648960 -->
<g id="edge3" class="edge">
<title>824634647552&#45;&gt;824634648960</title>
<path fill="none" stroke="black" d="M433.15,-67.77C460.53,-64.62 495.37,-60.6 527.38,-56.91"/>
<polygon fill="black" stroke="black" points="527.53,-60.41 537.06,-55.79 526.73,-53.46 527.53,-60.41"/>
</g>
<!-- 824634647296 -->
<g id="node4" class="node">
<title>824634647296</title>
<path fill="lightblue" stroke="lightblue" d="M286.75,-165.5C286.75,-165.5 478.25,-165.5 478.25,-165.5 484.25,-165.5 490.25,-171.5 490.25,-177.5 490.25,-177.5 490.25,-189.5 490.25,-189.5 490.25,-195.5 484.25,-201.5 478.25,-201.5 478.25,-201.5 286.75,-201.5 286.75,-201.5 280.75,-201.5 274.75,-195.5 274.75,-189.5 274.75,-189.5 274.75,-177.5 274.75,-177.5 274.75,-171.5 280.75,-165.5 286.75,-165.5"/>
<text text-anchor="middle" x="382.5" y="-179.2" font-family="Times,serif" font-size="14.00">examples/target/rde&#45;live.iso</text>
</g>
<!-- 824634647424 -->
<g id="node5" class="node">
<title>824634647424</title>
<path fill="lightblue" stroke="lightblue" d="M81,-55.5C81,-55.5 157.75,-55.5 157.75,-55.5 163.75,-55.5 169.75,-61.5 169.75,-67.5 169.75,-67.5 169.75,-79.5 169.75,-79.5 169.75,-85.5 163.75,-91.5 157.75,-91.5 157.75,-91.5 81,-91.5 81,-91.5 75,-91.5 69,-85.5 69,-79.5 69,-79.5 69,-67.5 69,-67.5 69,-61.5 75,-55.5 81,-55.5"/>
<text text-anchor="middle" x="119.38" y="-69.2" font-family="Times,serif" font-size="14.00">doc/rde.info</text>
</g>
<!-- 824634647424&#45;&gt;824634647552 -->
<g id="edge2" class="edge">
<title>824634647424&#45;&gt;824634647552</title>
<path fill="none" stroke="black" d="M170.11,-73.5C212.94,-73.5 274.91,-73.5 320.69,-73.5"/>
<polygon fill="black" stroke="black" points="320.44,-77 330.44,-73.5 320.44,-70 320.44,-77"/>
</g>
<!-- 824634649600 -->
<g id="node14" class="node">
<title>824634649600</title>
<path fill="lightblue" stroke="lightblue" d="M759,-28.5C759,-28.5 891.25,-28.5 891.25,-28.5 897.25,-28.5 903.25,-34.5 903.25,-40.5 903.25,-40.5 903.25,-52.5 903.25,-52.5 903.25,-58.5 897.25,-64.5 891.25,-64.5 891.25,-64.5 759,-64.5 759,-64.5 753,-64.5 747,-58.5 747,-52.5 747,-52.5 747,-40.5 747,-40.5 747,-34.5 753,-28.5 759,-28.5"/>
<text text-anchor="middle" x="825.12" y="-42.2" font-family="Times,serif" font-size="14.00">doc/rde&#45;tool&#45;list.org</text>
</g>
<!-- 824634648960&#45;&gt;824634649600 -->
<g id="edge8" class="edge">
<title>824634648960&#45;&gt;824634649600</title>
<path fill="none" stroke="black" d="M698.69,-46.5C710.74,-46.5 723.24,-46.5 735.47,-46.5"/>
<polygon fill="black" stroke="black" points="735.1,-50 745.1,-46.5 735.1,-43 735.1,-50"/>
</g>
<!-- 824634648192 -->
<g id="node7" class="node">
<title>824634648192</title>
<path fill="lightblue" stroke="lightblue" d="M104.38,-220.5C104.38,-220.5 134.38,-220.5 134.38,-220.5 140.38,-220.5 146.38,-226.5 146.38,-232.5 146.38,-232.5 146.38,-244.5 146.38,-244.5 146.38,-250.5 140.38,-256.5 134.38,-256.5 134.38,-256.5 104.38,-256.5 104.38,-256.5 98.38,-256.5 92.38,-250.5 92.38,-244.5 92.38,-244.5 92.38,-232.5 92.38,-232.5 92.38,-226.5 98.38,-220.5 104.38,-220.5"/>
<text text-anchor="middle" x="119.38" y="-234.2" font-family="Times,serif" font-size="14.00">guix</text>
</g>
<!-- 824634648448 -->
<g id="node8" class="node">
<title>824634648448</title>
<path fill="lightblue" stroke="lightblue" d="M367.5,-303.5C367.5,-303.5 397.5,-303.5 397.5,-303.5 403.5,-303.5 409.5,-309.5 409.5,-315.5 409.5,-315.5 409.5,-327.5 409.5,-327.5 409.5,-333.5 403.5,-339.5 397.5,-339.5 397.5,-339.5 367.5,-339.5 367.5,-339.5 361.5,-339.5 355.5,-333.5 355.5,-327.5 355.5,-327.5 355.5,-315.5 355.5,-315.5 355.5,-309.5 361.5,-303.5 367.5,-303.5"/>
<text text-anchor="middle" x="382.5" y="-317.2" font-family="Times,serif" font-size="14.00">ares</text>
</g>
<!-- 824634648832 -->
<g id="node9" class="node">
<title>824634648832</title>
<path fill="lightblue" stroke="lightblue" d="M70.88,-385.5C70.88,-385.5 167.88,-385.5 167.88,-385.5 173.88,-385.5 179.88,-391.5 179.88,-397.5 179.88,-397.5 179.88,-409.5 179.88,-409.5 179.88,-415.5 173.88,-421.5 167.88,-421.5 167.88,-421.5 70.88,-421.5 70.88,-421.5 64.88,-421.5 58.88,-415.5 58.88,-409.5 58.88,-409.5 58.88,-397.5 58.88,-397.5 58.88,-391.5 64.88,-385.5 70.88,-385.5"/>
<text text-anchor="middle" x="119.38" y="-399.2" font-family="Times,serif" font-size="14.00">qemu/1/deploy</text>
</g>
<!-- 824634649856 -->
<g id="node10" class="node">
<title>824634649856</title>
<path fill="lightblue" stroke="lightblue" d="M12,-440.5C12,-440.5 226.75,-440.5 226.75,-440.5 232.75,-440.5 238.75,-446.5 238.75,-452.5 238.75,-452.5 238.75,-464.5 238.75,-464.5 238.75,-470.5 232.75,-476.5 226.75,-476.5 226.75,-476.5 12,-476.5 12,-476.5 6,-476.5 0,-470.5 0,-464.5 0,-464.5 0,-452.5 0,-452.5 0,-446.5 6,-440.5 12,-440.5"/>
<text text-anchor="middle" x="119.38" y="-454.2" font-family="Times,serif" font-size="14.00">examples/ixy/home/reconfigure</text>
</g>
<!-- 824634647168 -->
<g id="node11" class="node">
<title>824634647168</title>
<path fill="lightblue" stroke="lightblue" d="M28.12,-165.5C28.12,-165.5 210.62,-165.5 210.62,-165.5 216.62,-165.5 222.62,-171.5 222.62,-177.5 222.62,-177.5 222.62,-189.5 222.62,-189.5 222.62,-195.5 216.62,-201.5 210.62,-201.5 210.62,-201.5 28.12,-201.5 28.12,-201.5 22.12,-201.5 16.12,-195.5 16.12,-189.5 16.12,-189.5 16.12,-177.5 16.12,-177.5 16.12,-171.5 22.12,-165.5 28.12,-165.5"/>
<text text-anchor="middle" x="119.38" y="-179.2" font-family="Times,serif" font-size="14.00">qemu/live/run&#45;from&#45;rde&#45;iso</text>
</g>
<!-- 824634647168&#45;&gt;824634647296 -->
<g id="edge5" class="edge">
<title>824634647168&#45;&gt;824634647296</title>
<path fill="none" stroke="black" d="M222.83,-183.5C236.11,-183.5 249.8,-183.5 263.32,-183.5"/>
<polygon fill="black" stroke="black" points="263.1,-187 273.1,-183.5 263.1,-180 263.1,-187"/>
</g>
<!-- 824634648320 -->
<g id="node12" class="node">
<title>824634648320</title>
<path fill="lightblue" stroke="lightblue" d="M104.38,-330.5C104.38,-330.5 134.38,-330.5 134.38,-330.5 140.38,-330.5 146.38,-336.5 146.38,-342.5 146.38,-342.5 146.38,-354.5 146.38,-354.5 146.38,-360.5 140.38,-366.5 134.38,-366.5 134.38,-366.5 104.38,-366.5 104.38,-366.5 98.38,-366.5 92.38,-360.5 92.38,-354.5 92.38,-354.5 92.38,-342.5 92.38,-342.5 92.38,-336.5 98.38,-330.5 104.38,-330.5"/>
<text text-anchor="middle" x="119.38" y="-344.2" font-family="Times,serif" font-size="14.00">repl</text>
</g>
<!-- 824634648320&#45;&gt;824634648448 -->
<g id="edge6" class="edge">
<title>824634648320&#45;&gt;824634648448</title>
<path fill="none" stroke="black" d="M146.85,-345.76C193.5,-340.94 290.46,-330.91 343.98,-325.38"/>
<polygon fill="black" stroke="black" points="344.25,-328.87 353.84,-324.36 343.53,-321.91 344.25,-328.87"/>
</g>
<!-- 824634648704 -->
<g id="node13" class="node">
<title>824634648704</title>
<path fill="lightblue" stroke="lightblue" d="M104.38,-275.5C104.38,-275.5 134.38,-275.5 134.38,-275.5 140.38,-275.5 146.38,-281.5 146.38,-287.5 146.38,-287.5 146.38,-299.5 146.38,-299.5 146.38,-305.5 140.38,-311.5 134.38,-311.5 134.38,-311.5 104.38,-311.5 104.38,-311.5 98.38,-311.5 92.38,-305.5 92.38,-299.5 92.38,-299.5 92.38,-287.5 92.38,-287.5 92.38,-281.5 98.38,-275.5 104.38,-275.5"/>
<text text-anchor="middle" x="119.38" y="-289.2" font-family="Times,serif" font-size="14.00">all</text>
</g>
<!-- 824634648704&#45;&gt;824634648448 -->
<g id="edge7" class="edge">
<title>824634648704&#45;&gt;824634648448</title>
<path fill="none" stroke="black" d="M146.85,-296.34C193.5,-301.34 290.46,-311.74 343.98,-317.48"/>
<polygon fill="black" stroke="black" points="343.52,-320.95 353.84,-318.53 344.27,-313.99 343.52,-320.95"/>
</g>
<!-- 824634649216 -->
<g id="node15" class="node">
<title>824634649216</title>
<path fill="lightblue" stroke="lightblue" d="M34.88,-495.5C34.88,-495.5 203.88,-495.5 203.88,-495.5 209.88,-495.5 215.88,-501.5 215.88,-507.5 215.88,-507.5 215.88,-519.5 215.88,-519.5 215.88,-525.5 209.88,-531.5 203.88,-531.5 203.88,-531.5 34.88,-531.5 34.88,-531.5 28.88,-531.5 22.88,-525.5 22.88,-519.5 22.88,-519.5 22.88,-507.5 22.88,-507.5 22.88,-501.5 28.88,-495.5 34.88,-495.5"/>
<text text-anchor="middle" x="119.38" y="-509.2" font-family="Times,serif" font-size="14.00">examples/ixy/home/build</text>
</g>
<!-- 824634647040 -->
<g id="node16" class="node">
<title>824634647040</title>
<path fill="lightblue" stroke="lightblue" d="M103.12,-550.5C103.12,-550.5 135.62,-550.5 135.62,-550.5 141.62,-550.5 147.62,-556.5 147.62,-562.5 147.62,-562.5 147.62,-574.5 147.62,-574.5 147.62,-580.5 141.62,-586.5 135.62,-586.5 135.62,-586.5 103.12,-586.5 103.12,-586.5 97.12,-586.5 91.12,-580.5 91.12,-574.5 91.12,-574.5 91.12,-562.5 91.12,-562.5 91.12,-556.5 97.12,-550.5 103.12,-550.5"/>
<text text-anchor="middle" x="119.38" y="-564.2" font-family="Times,serif" font-size="14.00">check</text>
</g>
<!-- 824634647680 -->
<g id="node17" class="node">
<title>824634647680</title>
<path fill="lightblue" stroke="lightblue" d="M104.38,-605.5C104.38,-605.5 134.38,-605.5 134.38,-605.5 140.38,-605.5 146.38,-611.5 146.38,-617.5 146.38,-617.5 146.38,-629.5 146.38,-629.5 146.38,-635.5 140.38,-641.5 134.38,-641.5 134.38,-641.5 104.38,-641.5 104.38,-641.5 98.38,-641.5 92.38,-635.5 92.38,-629.5 92.38,-629.5 92.38,-617.5 92.38,-617.5 92.38,-611.5 98.38,-605.5 104.38,-605.5"/>
<text text-anchor="middle" x="119.38" y="-619.2" font-family="Times,serif" font-size="14.00">clean</text>
</g>
<!-- 824634647808 -->
<g id="node18" class="node">
<title>824634647808</title>
<path fill="lightblue" stroke="lightblue" d="M45.38,-660.5C45.38,-660.5 193.38,-660.5 193.38,-660.5 199.38,-660.5 205.38,-666.5 205.38,-672.5 205.38,-672.5 205.38,-684.5 205.38,-684.5 205.38,-690.5 199.38,-696.5 193.38,-696.5 193.38,-696.5 45.38,-696.5 45.38,-696.5 39.38,-696.5 33.38,-690.5 33.38,-684.5 33.38,-684.5 33.38,-672.5 33.38,-672.5 33.38,-666.5 39.38,-660.5 45.38,-660.5"/>
<text text-anchor="middle" x="119.38" y="-674.2" font-family="Times,serif" font-size="14.00">deploy&#45;README.html</text>
</g>
<!-- 824634647936 -->
<g id="node19" class="node">
<title>824634647936</title>
<path fill="lightblue" stroke="lightblue" d="M334.38,-660.5C334.38,-660.5 430.62,-660.5 430.62,-660.5 436.62,-660.5 442.62,-666.5 442.62,-672.5 442.62,-672.5 442.62,-684.5 442.62,-684.5 442.62,-690.5 436.62,-696.5 430.62,-696.5 430.62,-696.5 334.38,-696.5 334.38,-696.5 328.38,-696.5 322.38,-690.5 322.38,-684.5 322.38,-684.5 322.38,-672.5 322.38,-672.5 322.38,-666.5 328.38,-660.5 334.38,-660.5"/>
<text text-anchor="middle" x="382.5" y="-674.2" font-family="Times,serif" font-size="14.00">README.html</text>
</g>
<!-- 824634647808&#45;&gt;824634647936 -->
<g id="edge9" class="edge">
<title>824634647808&#45;&gt;824634647936</title>
<path fill="none" stroke="black" d="M205.52,-678.5C239.6,-678.5 278.4,-678.5 310.88,-678.5"/>
<polygon fill="black" stroke="black" points="310.57,-682 320.57,-678.5 310.57,-675 310.57,-682"/>
</g>
<!-- 824634649728 -->
<g id="node20" class="node">
<title>824634649728</title>
<path fill="lightblue" stroke="lightblue" d="M589.25,-660.5C589.25,-660.5 648,-660.5 648,-660.5 654,-660.5 660,-666.5 660,-672.5 660,-672.5 660,-684.5 660,-684.5 660,-690.5 654,-696.5 648,-696.5 648,-696.5 589.25,-696.5 589.25,-696.5 583.25,-696.5 577.25,-690.5 577.25,-684.5 577.25,-684.5 577.25,-672.5 577.25,-672.5 577.25,-666.5 583.25,-660.5 589.25,-660.5"/>
<text text-anchor="middle" x="618.62" y="-674.2" font-family="Times,serif" font-size="14.00">README</text>
</g>
<!-- 824634647936&#45;&gt;824634649728 -->
<g id="edge10" class="edge">
<title>824634647936&#45;&gt;824634649728</title>
<path fill="none" stroke="black" d="M442.88,-678.5C480.78,-678.5 529.42,-678.5 565.76,-678.5"/>
<polygon fill="black" stroke="black" points="565.59,-682 575.59,-678.5 565.59,-675 565.59,-682"/>
</g>
<!-- 824634648064 -->
<g id="node21" class="node">
<title>824634648064</title>
<path fill="lightblue" stroke="lightblue" d="M82.12,-715.5C82.12,-715.5 156.62,-715.5 156.62,-715.5 162.62,-715.5 168.62,-721.5 168.62,-727.5 168.62,-727.5 168.62,-739.5 168.62,-739.5 168.62,-745.5 162.62,-751.5 156.62,-751.5 156.62,-751.5 82.12,-751.5 82.12,-751.5 76.12,-751.5 70.12,-745.5 70.12,-739.5 70.12,-739.5 70.12,-727.5 70.12,-727.5 70.12,-721.5 76.12,-715.5 82.12,-715.5"/>
<text text-anchor="middle" x="119.38" y="-729.2" font-family="Times,serif" font-size="14.00">qemu/1/run</text>
</g>
<!-- 824634648576 -->
<g id="node22" class="node">
<title>824634648576</title>
<path fill="lightblue" stroke="lightblue" d="M78,-0.5C78,-0.5 160.75,-0.5 160.75,-0.5 166.75,-0.5 172.75,-6.5 172.75,-12.5 172.75,-12.5 172.75,-24.5 172.75,-24.5 172.75,-30.5 166.75,-36.5 160.75,-36.5 160.75,-36.5 78,-36.5 78,-36.5 72,-36.5 66,-30.5 66,-24.5 66,-24.5 66,-12.5 66,-12.5 66,-6.5 72,-0.5 78,-0.5"/>
<text text-anchor="middle" x="119.38" y="-14.2" font-family="Times,serif" font-size="14.00">doc/rde.html</text>
</g>
<!-- 824634648576&#45;&gt;824634647552 -->
<g id="edge11" class="edge">
<title>824634648576&#45;&gt;824634647552</title>
<path fill="none" stroke="black" d="M173.22,-29.63C215.94,-38.63 276.13,-51.31 320.82,-60.72"/>
<polygon fill="black" stroke="black" points="319.84,-64.09 330.35,-62.73 321.29,-57.24 319.84,-64.09"/>
</g>
</g>
</svg>
