<?xml version="1.0" encoding="UTF-8" standalone="no"?>
<!DOCTYPE svg PUBLIC "-//W3C//DTD SVG 1.1//EN"
 "http://www.w3.org/Graphics/SVG/1.1/DTD/svg11.dtd">
<!-- Generated by graphviz version 12.2.1 (0)
 -->
<!-- Pages: 1 -->
<svg width="1294pt" height="870pt"
 viewBox="0.00 0.00 1293.50 870.00" xmlns="http://www.w3.org/2000/svg" xmlns:xlink="http://www.w3.org/1999/xlink">
<g id="graph0" class="graph" transform="scale(1 1) rotate(0) translate(4 866)">
<polygon fill="white" stroke="none" points="-4,4 -4,-866 1289.5,-866 1289.5,4 -4,4"/>
<!-- 824634665216 -->
<g id="node1" class="node">
<title>824634665216</title>
<path fill="lightblue" stroke="lightblue" d="M495.5,-55.5C495.5,-55.5 531.75,-55.5 531.75,-55.5 537.75,-55.5 543.75,-61.5 543.75,-67.5 543.75,-67.5 543.75,-79.5 543.75,-79.5 543.75,-85.5 537.75,-91.5 531.75,-91.5 531.75,-91.5 495.5,-91.5 495.5,-91.5 489.5,-91.5 483.5,-85.5 483.5,-79.5 483.5,-79.5 483.5,-67.5 483.5,-67.5 483.5,-61.5 489.5,-55.5 495.5,-55.5"/>
<text text-anchor="middle" x="513.62" y="-69.2" font-family="Times,serif" font-size="14.00">target</text>
</g>
<!-- 824634665728 -->
<g id="node2" class="node">
<title>824634665728</title>
<path fill="lightblue" stroke="lightblue" d="M343.12,-605.5C343.12,-605.5 373.12,-605.5 373.12,-605.5 379.12,-605.5 385.12,-611.5 385.12,-617.5 385.12,-617.5 385.12,-629.5 385.12,-629.5 385.12,-635.5 379.12,-641.5 373.12,-641.5 373.12,-641.5 343.12,-641.5 343.12,-641.5 337.12,-641.5 331.12,-635.5 331.12,-629.5 331.12,-629.5 331.12,-617.5 331.12,-617.5 331.12,-611.5 337.12,-605.5 343.12,-605.5"/>
<text text-anchor="middle" x="358.12" y="-619.2" font-family="Times,serif" font-size="14.00">repl</text>
</g>
<!-- 824634665856 -->
<g id="node3" class="node">
<title>824634665856</title>
<path fill="lightblue" stroke="lightblue" d="M498.62,-495.5C498.62,-495.5 528.62,-495.5 528.62,-495.5 534.62,-495.5 540.62,-501.5 540.62,-507.5 540.62,-507.5 540.62,-519.5 540.62,-519.5 540.62,-525.5 534.62,-531.5 528.62,-531.5 528.62,-531.5 498.62,-531.5 498.62,-531.5 492.62,-531.5 486.62,-525.5 486.62,-519.5 486.62,-519.5 486.62,-507.5 486.62,-507.5 486.62,-501.5 492.62,-495.5 498.62,-495.5"/>
<text text-anchor="middle" x="513.62" y="-509.2" font-family="Times,serif" font-size="14.00">ares</text>
</g>
<!-- 824634665728&#45;&gt;824634665856 -->
<g id="edge1" class="edge">
<title>824634665728&#45;&gt;824634665856</title>
<path fill="none" stroke="black" d="M385.29,-619.42C403.9,-615.56 428.81,-608.37 447.5,-595.5 467.96,-581.4 485.14,-558.98 496.71,-541.15"/>
<polygon fill="black" stroke="black" points="499.42,-543.41 501.74,-533.07 493.48,-539.71 499.42,-543.41"/>
</g>
<!-- 824634665344 -->
<g id="node14" class="node">
<title>824634665344</title>
<path fill="lightblue" stroke="lightblue" d="M591.75,-412.5C591.75,-412.5 646,-412.5 646,-412.5 652,-412.5 658,-418.5 658,-424.5 658,-424.5 658,-436.5 658,-436.5 658,-442.5 652,-448.5 646,-448.5 646,-448.5 591.75,-448.5 591.75,-448.5 585.75,-448.5 579.75,-442.5 579.75,-436.5 579.75,-436.5 579.75,-424.5 579.75,-424.5 579.75,-418.5 585.75,-412.5 591.75,-412.5"/>
<text text-anchor="middle" x="618.88" y="-426.2" font-family="Times,serif" font-size="14.00">env/sync</text>
</g>
<!-- 824634665856&#45;&gt;824634665344 -->
<g id="edge11" class="edge">
<title>824634665856&#45;&gt;824634665344</title>
<path fill="none" stroke="black" d="M537.54,-495.08C551.84,-483.58 570.46,-468.62 586.17,-455.99"/>
<polygon fill="black" stroke="black" points="588.24,-458.81 593.84,-449.82 583.86,-453.35 588.24,-458.81"/>
</g>
<!-- 824634666112 -->
<g id="node4" class="node">
<title>824634666112</title>
<path fill="lightblue" stroke="lightblue" d="M37.5,-27.5C37.5,-27.5 195.25,-27.5 195.25,-27.5 201.25,-27.5 207.25,-33.5 207.25,-39.5 207.25,-39.5 207.25,-51.5 207.25,-51.5 207.25,-57.5 201.25,-63.5 195.25,-63.5 195.25,-63.5 37.5,-63.5 37.5,-63.5 31.5,-63.5 25.5,-57.5 25.5,-51.5 25.5,-51.5 25.5,-39.5 25.5,-39.5 25.5,-33.5 31.5,-27.5 37.5,-27.5"/>
<text text-anchor="middle" x="116.38" y="-41.2" font-family="Times,serif" font-size="14.00">release/rde&#45;live&#45;x86_64</text>
</g>
<!-- 824634665088 -->
<g id="node5" class="node">
<title>824634665088</title>
<path fill="lightblue" stroke="lightblue" d="M298.38,-55.5C298.38,-55.5 417.88,-55.5 417.88,-55.5 423.88,-55.5 429.88,-61.5 429.88,-67.5 429.88,-67.5 429.88,-79.5 429.88,-79.5 429.88,-85.5 423.88,-91.5 417.88,-91.5 417.88,-91.5 298.38,-91.5 298.38,-91.5 292.38,-91.5 286.38,-85.5 286.38,-79.5 286.38,-79.5 286.38,-67.5 286.38,-67.5 286.38,-61.5 292.38,-55.5 298.38,-55.5"/>
<text text-anchor="middle" x="358.12" y="-69.2" font-family="Times,serif" font-size="14.00">target/rde&#45;live.iso</text>
</g>
<!-- 824634666112&#45;&gt;824634665088 -->
<g id="edge2" class="edge">
<title>824634666112&#45;&gt;824634665088</title>
<path fill="none" stroke="black" d="M207.67,-56.05C229.61,-58.61 252.96,-61.34 274.53,-63.85"/>
<polygon fill="black" stroke="black" points="274.12,-67.33 284.46,-65.01 274.93,-60.38 274.12,-67.33"/>
</g>
<!-- 824634664960 -->
<g id="node6" class="node">
<title>824634664960</title>
<path fill="lightblue" stroke="lightblue" d="M311.88,-0.5C311.88,-0.5 404.38,-0.5 404.38,-0.5 410.38,-0.5 416.38,-6.5 416.38,-12.5 416.38,-12.5 416.38,-24.5 416.38,-24.5 416.38,-30.5 410.38,-36.5 404.38,-36.5 404.38,-36.5 311.88,-36.5 311.88,-36.5 305.88,-36.5 299.88,-30.5 299.88,-24.5 299.88,-24.5 299.88,-12.5 299.88,-12.5 299.88,-6.5 305.88,-0.5 311.88,-0.5"/>
<text text-anchor="middle" x="358.12" y="-14.2" font-family="Times,serif" font-size="14.00">target/release</text>
</g>
<!-- 824634666112&#45;&gt;824634664960 -->
<g id="edge3" class="edge">
<title>824634666112&#45;&gt;824634664960</title>
<path fill="none" stroke="black" d="M207.67,-35.33C234.38,-32.32 263.17,-29.08 288.29,-26.25"/>
<polygon fill="black" stroke="black" points="288.5,-29.75 298.05,-25.15 287.72,-22.79 288.5,-29.75"/>
</g>
<!-- 824634665088&#45;&gt;824634665216 -->
<g id="edge9" class="edge">
<title>824634665088&#45;&gt;824634665216</title>
<path fill="none" stroke="black" d="M430.03,-73.5C444.35,-73.5 458.93,-73.5 471.79,-73.5"/>
<polygon fill="black" stroke="black" points="471.53,-77 481.53,-73.5 471.53,-70 471.53,-77"/>
</g>
<!-- 824634663552 -->
<g id="node8" class="node">
<title>824634663552</title>
<path fill="lightblue" stroke="lightblue" d="M498.62,-330.5C498.62,-330.5 528.62,-330.5 528.62,-330.5 534.62,-330.5 540.62,-336.5 540.62,-342.5 540.62,-342.5 540.62,-354.5 540.62,-354.5 540.62,-360.5 534.62,-366.5 528.62,-366.5 528.62,-366.5 498.62,-366.5 498.62,-366.5 492.62,-366.5 486.62,-360.5 486.62,-354.5 486.62,-354.5 486.62,-342.5 486.62,-342.5 486.62,-336.5 492.62,-330.5 498.62,-330.5"/>
<text text-anchor="middle" x="513.62" y="-344.2" font-family="Times,serif" font-size="14.00">guix</text>
</g>
<!-- 824634665088&#45;&gt;824634663552 -->
<g id="edge8" class="edge">
<title>824634665088&#45;&gt;824634663552</title>
<path fill="none" stroke="black" d="M430.07,-87.68C436.52,-91.09 442.5,-95.29 447.5,-100.5 505.76,-161.12 513.5,-267.27 513.56,-318.78"/>
<polygon fill="black" stroke="black" points="510.06,-318.52 513.46,-328.55 517.06,-318.59 510.06,-318.52"/>
</g>
<!-- 824634663424 -->
<g id="node7" class="node">
<title>824634663424</title>
<path fill="lightblue" stroke="lightblue" d="M280.75,-550.5C280.75,-550.5 435.5,-550.5 435.5,-550.5 441.5,-550.5 447.5,-556.5 447.5,-562.5 447.5,-562.5 447.5,-574.5 447.5,-574.5 447.5,-580.5 441.5,-586.5 435.5,-586.5 435.5,-586.5 280.75,-586.5 280.75,-586.5 274.75,-586.5 268.75,-580.5 268.75,-574.5 268.75,-574.5 268.75,-562.5 268.75,-562.5 268.75,-556.5 274.75,-550.5 280.75,-550.5"/>
<text text-anchor="middle" x="358.12" y="-564.2" font-family="Times,serif" font-size="14.00">ixy/system/reconfigure</text>
</g>
<!-- 824634663424&#45;&gt;824634663552 -->
<g id="edge4" class="edge">
<title>824634663424&#45;&gt;824634663552</title>
<path fill="none" stroke="black" d="M434.84,-550.24C439.42,-547.44 443.71,-544.22 447.5,-540.5 470.96,-517.5 494.84,-425.95 506.05,-378.05"/>
<polygon fill="black" stroke="black" points="509.45,-378.89 508.28,-368.36 502.62,-377.32 509.45,-378.89"/>
</g>
<!-- 824634663552&#45;&gt;824634665344 -->
<g id="edge18" class="edge">
<title>824634663552&#45;&gt;824634665344</title>
<path fill="none" stroke="black" d="M537.8,-366.9C552.01,-378.19 570.41,-392.8 585.99,-405.18"/>
<polygon fill="black" stroke="black" points="583.59,-407.74 593.6,-411.22 587.94,-402.26 583.59,-407.74"/>
</g>
<!-- 824634664320 -->
<g id="node9" class="node">
<title>824634664320</title>
<path fill="lightblue" stroke="lightblue" d="M328.75,-495.5C328.75,-495.5 387.5,-495.5 387.5,-495.5 393.5,-495.5 399.5,-501.5 399.5,-507.5 399.5,-507.5 399.5,-519.5 399.5,-519.5 399.5,-525.5 393.5,-531.5 387.5,-531.5 387.5,-531.5 328.75,-531.5 328.75,-531.5 322.75,-531.5 316.75,-525.5 316.75,-519.5 316.75,-519.5 316.75,-507.5 316.75,-507.5 316.75,-501.5 322.75,-495.5 328.75,-495.5"/>
<text text-anchor="middle" x="358.12" y="-509.2" font-family="Times,serif" font-size="14.00">cloud&#45;rde</text>
</g>
<!-- 824634664320&#45;&gt;824634663552 -->
<g id="edge5" class="edge">
<title>824634664320&#45;&gt;824634663552</title>
<path fill="none" stroke="black" d="M400,-507.81C416.29,-503.81 434.28,-497.03 447.5,-485.5 480.07,-457.11 497.64,-408.85 506.06,-377.84"/>
<polygon fill="black" stroke="black" points="509.4,-378.9 508.48,-368.35 502.62,-377.17 509.4,-378.9"/>
</g>
<!-- 824634664832 -->
<g id="node10" class="node">
<title>824634664832</title>
<path fill="lightblue" stroke="lightblue" d="M319,-660.5C319,-660.5 397.25,-660.5 397.25,-660.5 403.25,-660.5 409.25,-666.5 409.25,-672.5 409.25,-672.5 409.25,-684.5 409.25,-684.5 409.25,-690.5 403.25,-696.5 397.25,-696.5 397.25,-696.5 319,-696.5 319,-696.5 313,-696.5 307,-690.5 307,-684.5 307,-684.5 307,-672.5 307,-672.5 307,-666.5 313,-660.5 319,-660.5"/>
<text text-anchor="middle" x="358.12" y="-674.2" font-family="Times,serif" font-size="14.00">clean&#45;target</text>
</g>
<!-- 824634666240 -->
<g id="node11" class="node">
<title>824634666240</title>
<path fill="lightblue" stroke="lightblue" d="M308.5,-440.5C308.5,-440.5 407.75,-440.5 407.75,-440.5 413.75,-440.5 419.75,-446.5 419.75,-452.5 419.75,-452.5 419.75,-464.5 419.75,-464.5 419.75,-470.5 413.75,-476.5 407.75,-476.5 407.75,-476.5 308.5,-476.5 308.5,-476.5 302.5,-476.5 296.5,-470.5 296.5,-464.5 296.5,-464.5 296.5,-452.5 296.5,-452.5 296.5,-446.5 302.5,-440.5 308.5,-440.5"/>
<text text-anchor="middle" x="358.12" y="-454.2" font-family="Times,serif" font-size="14.00">minimal&#45;emacs</text>
</g>
<!-- 824634666240&#45;&gt;824634663552 -->
<g id="edge6" class="edge">
<title>824634666240&#45;&gt;824634663552</title>
<path fill="none" stroke="black" d="M419.84,-444.56C429.56,-440.87 439.15,-436.25 447.5,-430.5 467.96,-416.4 485.14,-393.98 496.71,-376.15"/>
<polygon fill="black" stroke="black" points="499.42,-378.41 501.74,-368.07 493.48,-374.71 499.42,-378.41"/>
</g>
<!-- 824634666496 -->
<g id="node12" class="node">
<title>824634666496</title>
<path fill="lightblue" stroke="lightblue" d="M286.75,-385.5C286.75,-385.5 429.5,-385.5 429.5,-385.5 435.5,-385.5 441.5,-391.5 441.5,-397.5 441.5,-397.5 441.5,-409.5 441.5,-409.5 441.5,-415.5 435.5,-421.5 429.5,-421.5 429.5,-421.5 286.75,-421.5 286.75,-421.5 280.75,-421.5 274.75,-415.5 274.75,-409.5 274.75,-409.5 274.75,-397.5 274.75,-397.5 274.75,-391.5 280.75,-385.5 286.75,-385.5"/>
<text text-anchor="middle" x="358.12" y="-399.2" font-family="Times,serif" font-size="14.00">ixy/home/reconfigure</text>
</g>
<!-- 824634666496&#45;&gt;824634663552 -->
<g id="edge7" class="edge">
<title>824634666496&#45;&gt;824634663552</title>
<path fill="none" stroke="black" d="M419.73,-385.06C429.08,-382 438.58,-378.76 447.5,-375.5 456.76,-372.12 466.63,-368.2 475.82,-364.41"/>
<polygon fill="black" stroke="black" points="476.94,-367.73 484.82,-360.64 474.24,-361.27 476.94,-367.73"/>
</g>
<!-- 824634664064 -->
<g id="node13" class="node">
<title>824634664064</title>
<path fill="lightblue" stroke="lightblue" d="M1013,-412.5C1013,-412.5 1273.5,-412.5 1273.5,-412.5 1279.5,-412.5 1285.5,-418.5 1285.5,-424.5 1285.5,-424.5 1285.5,-436.5 1285.5,-436.5 1285.5,-442.5 1279.5,-448.5 1273.5,-448.5 1273.5,-448.5 1013,-448.5 1013,-448.5 1007,-448.5 1001,-442.5 1001,-436.5 1001,-436.5 1001,-424.5 1001,-424.5 1001,-418.5 1007,-412.5 1013,-412.5"/>
<text text-anchor="middle" x="1143.25" y="-426.2" font-family="Times,serif" font-size="14.00">../env/guix/rde/env/guix/channels.scm</text>
</g>
<!-- 824634663936 -->
<g id="node15" class="node">
<title>824634663936</title>
<path fill="lightblue" stroke="lightblue" d="M706,-412.5C706,-412.5 953,-412.5 953,-412.5 959,-412.5 965,-418.5 965,-424.5 965,-424.5 965,-436.5 965,-436.5 965,-442.5 959,-448.5 953,-448.5 953,-448.5 706,-448.5 706,-448.5 700,-448.5 694,-442.5 694,-436.5 694,-436.5 694,-424.5 694,-424.5 694,-418.5 700,-412.5 706,-412.5"/>
<text text-anchor="middle" x="829.5" y="-426.2" font-family="Times,serif" font-size="14.00">env/guix/rde/env/guix/channels.scm</text>
</g>
<!-- 824634665344&#45;&gt;824634663936 -->
<g id="edge10" class="edge">
<title>824634665344&#45;&gt;824634663936</title>
<path fill="none" stroke="black" d="M658.14,-430.5C665.5,-430.5 673.61,-430.5 682.17,-430.5"/>
<polygon fill="black" stroke="black" points="682.14,-434 692.14,-430.5 682.14,-427 682.14,-434"/>
</g>
<!-- 824634663936&#45;&gt;824634664064 -->
<g id="edge14" class="edge">
<title>824634663936&#45;&gt;824634664064</title>
<path fill="none" stroke="black" d="M965.42,-430.5C973.37,-430.5 981.38,-430.5 989.39,-430.5"/>
<polygon fill="black" stroke="black" points="989.17,-434 999.17,-430.5 989.17,-427 989.17,-434"/>
</g>
<!-- 824634666368 -->
<g id="node16" class="node">
<title>824634666368</title>
<path fill="lightblue" stroke="lightblue" d="M305.12,-330.5C305.12,-330.5 411.12,-330.5 411.12,-330.5 417.12,-330.5 423.12,-336.5 423.12,-342.5 423.12,-342.5 423.12,-354.5 423.12,-354.5 423.12,-360.5 417.12,-366.5 411.12,-366.5 411.12,-366.5 305.12,-366.5 305.12,-366.5 299.12,-366.5 293.12,-360.5 293.12,-354.5 293.12,-354.5 293.12,-342.5 293.12,-342.5 293.12,-336.5 299.12,-330.5 305.12,-330.5"/>
<text text-anchor="middle" x="358.12" y="-344.2" font-family="Times,serif" font-size="14.00">live/image/build</text>
</g>
<!-- 824634666368&#45;&gt;824634663552 -->
<g id="edge12" class="edge">
<title>824634666368&#45;&gt;824634663552</title>
<path fill="none" stroke="black" d="M423.33,-348.5C441.01,-348.5 459.6,-348.5 475.21,-348.5"/>
<polygon fill="black" stroke="black" points="474.99,-352 484.99,-348.5 474.99,-345 474.99,-352"/>
</g>
<!-- 824634664192 -->
<g id="node17" class="node">
<title>824634664192</title>
<path fill="lightblue" stroke="lightblue" d="M309.62,-275.5C309.62,-275.5 406.62,-275.5 406.62,-275.5 412.62,-275.5 418.62,-281.5 418.62,-287.5 418.62,-287.5 418.62,-299.5 418.62,-299.5 418.62,-305.5 412.62,-311.5 406.62,-311.5 406.62,-311.5 309.62,-311.5 309.62,-311.5 303.62,-311.5 297.62,-305.5 297.62,-299.5 297.62,-299.5 297.62,-287.5 297.62,-287.5 297.62,-281.5 303.62,-275.5 309.62,-275.5"/>
<text text-anchor="middle" x="358.12" y="-289.2" font-family="Times,serif" font-size="14.00">ixy/home/build</text>
</g>
<!-- 824634664192&#45;&gt;824634663552 -->
<g id="edge13" class="edge">
<title>824634664192&#45;&gt;824634663552</title>
<path fill="none" stroke="black" d="M418.84,-310.77C428.48,-313.84 438.31,-317.13 447.5,-320.5 456.8,-323.91 466.69,-327.94 475.88,-331.87"/>
<polygon fill="black" stroke="black" points="474.32,-335.01 484.89,-335.79 477.11,-328.59 474.32,-335.01"/>
</g>
<!-- 824634664448 -->
<g id="node18" class="node">
<title>824634664448</title>
<path fill="lightblue" stroke="lightblue" d="M85.88,-715.5C85.88,-715.5 146.88,-715.5 146.88,-715.5 152.88,-715.5 158.88,-721.5 158.88,-727.5 158.88,-727.5 158.88,-739.5 158.88,-739.5 158.88,-745.5 152.88,-751.5 146.88,-751.5 146.88,-751.5 85.88,-751.5 85.88,-751.5 79.88,-751.5 73.88,-745.5 73.88,-739.5 73.88,-739.5 73.88,-727.5 73.88,-727.5 73.88,-721.5 79.88,-715.5 85.88,-715.5"/>
<text text-anchor="middle" x="116.38" y="-729.2" font-family="Times,serif" font-size="14.00">cow&#45;store</text>
</g>
<!-- 824634664576 -->
<g id="node19" class="node">
<title>824634664576</title>
<path fill="lightblue" stroke="lightblue" d="M41.25,-770.5C41.25,-770.5 191.5,-770.5 191.5,-770.5 197.5,-770.5 203.5,-776.5 203.5,-782.5 203.5,-782.5 203.5,-794.5 203.5,-794.5 203.5,-800.5 197.5,-806.5 191.5,-806.5 191.5,-806.5 41.25,-806.5 41.25,-806.5 35.25,-806.5 29.25,-800.5 29.25,-794.5 29.25,-794.5 29.25,-782.5 29.25,-782.5 29.25,-776.5 35.25,-770.5 41.25,-770.5"/>
<text text-anchor="middle" x="116.38" y="-784.2" font-family="Times,serif" font-size="14.00">minimal/home/build/ci</text>
</g>
<!-- 824634664704 -->
<g id="node20" class="node">
<title>824634664704</title>
<path fill="lightblue" stroke="lightblue" d="M101.38,-660.5C101.38,-660.5 131.38,-660.5 131.38,-660.5 137.38,-660.5 143.38,-666.5 143.38,-672.5 143.38,-672.5 143.38,-684.5 143.38,-684.5 143.38,-690.5 137.38,-696.5 131.38,-696.5 131.38,-696.5 101.38,-696.5 101.38,-696.5 95.38,-696.5 89.38,-690.5 89.38,-684.5 89.38,-684.5 89.38,-672.5 89.38,-672.5 89.38,-666.5 95.38,-660.5 101.38,-660.5"/>
<text text-anchor="middle" x="116.38" y="-674.2" font-family="Times,serif" font-size="14.00">clean</text>
</g>
<!-- 824634664704&#45;&gt;824634664832 -->
<g id="edge15" class="edge">
<title>824634664704&#45;&gt;824634664832</title>
<path fill="none" stroke="black" d="M143.49,-678.5C179.67,-678.5 246.14,-678.5 295.36,-678.5"/>
<polygon fill="black" stroke="black" points="295.33,-682 305.33,-678.5 295.33,-675 295.33,-682"/>
</g>
<!-- 824634665600 -->
<g id="node21" class="node">
<title>824634665600</title>
<path fill="lightblue" stroke="lightblue" d="M309.62,-220.5C309.62,-220.5 406.62,-220.5 406.62,-220.5 412.62,-220.5 418.62,-226.5 418.62,-232.5 418.62,-232.5 418.62,-244.5 418.62,-244.5 418.62,-250.5 412.62,-256.5 406.62,-256.5 406.62,-256.5 309.62,-256.5 309.62,-256.5 303.62,-256.5 297.62,-250.5 297.62,-244.5 297.62,-244.5 297.62,-232.5 297.62,-232.5 297.62,-226.5 303.62,-220.5 309.62,-220.5"/>
<text text-anchor="middle" x="358.12" y="-234.2" font-family="Times,serif" font-size="14.00">ixy/system/init</text>
</g>
<!-- 824634665600&#45;&gt;824634663552 -->
<g id="edge16" class="edge">
<title>824634665600&#45;&gt;824634663552</title>
<path fill="none" stroke="black" d="M418.94,-251.31C428.97,-254.96 438.9,-259.6 447.5,-265.5 468.18,-279.68 485.37,-302.43 496.88,-320.53"/>
<polygon fill="black" stroke="black" points="493.85,-322.28 502.05,-328.99 499.82,-318.63 493.85,-322.28"/>
</g>
<!-- 824634665984 -->
<g id="node22" class="node">
<title>824634665984</title>
<path fill="lightblue" stroke="lightblue" d="M303.62,-165.5C303.62,-165.5 412.62,-165.5 412.62,-165.5 418.62,-165.5 424.62,-171.5 424.62,-177.5 424.62,-177.5 424.62,-189.5 424.62,-189.5 424.62,-195.5 418.62,-201.5 412.62,-201.5 412.62,-201.5 303.62,-201.5 303.62,-201.5 297.62,-201.5 291.62,-195.5 291.62,-189.5 291.62,-189.5 291.62,-177.5 291.62,-177.5 291.62,-171.5 297.62,-165.5 303.62,-165.5"/>
<text text-anchor="middle" x="358.12" y="-179.2" font-family="Times,serif" font-size="14.00">ixy/system/build</text>
</g>
<!-- 824634665984&#45;&gt;824634663552 -->
<g id="edge17" class="edge">
<title>824634665984&#45;&gt;824634663552</title>
<path fill="none" stroke="black" d="M425.12,-196.82C433.23,-200.35 440.95,-204.83 447.5,-210.5 480.54,-239.09 498.04,-288.12 506.31,-319.39"/>
<polygon fill="black" stroke="black" points="502.88,-320.08 508.68,-328.95 509.67,-318.4 502.88,-320.08"/>
</g>
<!-- 824634663680 -->
<g id="node23" class="node">
<title>824634663680</title>
<path fill="lightblue" stroke="lightblue" d="M291.25,-110.5C291.25,-110.5 425,-110.5 425,-110.5 431,-110.5 437,-116.5 437,-122.5 437,-122.5 437,-134.5 437,-134.5 437,-140.5 431,-146.5 425,-146.5 425,-146.5 291.25,-146.5 291.25,-146.5 285.25,-146.5 279.25,-140.5 279.25,-134.5 279.25,-134.5 279.25,-122.5 279.25,-122.5 279.25,-116.5 285.25,-110.5 291.25,-110.5"/>
<text text-anchor="middle" x="358.12" y="-124.2" font-family="Times,serif" font-size="14.00">minimal/home/build</text>
</g>
<!-- 824634663680&#45;&gt;824634663552 -->
<g id="edge19" class="edge">
<title>824634663680&#45;&gt;824634663552</title>
<path fill="none" stroke="black" d="M436.48,-146.89C440.45,-149.4 444.16,-152.26 447.5,-155.5 492.98,-199.68 506.7,-276.65 510.84,-318.81"/>
<polygon fill="black" stroke="black" points="507.34,-319.03 511.68,-328.7 514.32,-318.44 507.34,-319.03"/>
</g>
<!-- 824634663808 -->
<g id="node24" class="node">
<title>824634663808</title>
<path fill="lightblue" stroke="lightblue" d="M12,-825.5C12,-825.5 220.75,-825.5 220.75,-825.5 226.75,-825.5 232.75,-831.5 232.75,-837.5 232.75,-837.5 232.75,-849.5 232.75,-849.5 232.75,-855.5 226.75,-861.5 220.75,-861.5 220.75,-861.5 12,-861.5 12,-861.5 6,-861.5 0,-855.5 0,-849.5 0,-849.5 0,-837.5 0,-837.5 0,-831.5 6,-825.5 12,-825.5"/>
<text text-anchor="middle" x="116.38" y="-839.2" font-family="Times,serif" font-size="14.00">minimal/home/build/ci&#45;no&#45;auth</text>
</g>
</g>
</svg>
