<?xml version="1.0" encoding="UTF-8" standalone="no"?>
<!DOCTYPE svg PUBLIC "-//W3C//DTD SVG 1.1//EN"
 "http://www.w3.org/Graphics/SVG/1.1/DTD/svg11.dtd">
<!-- Generated by graphviz version 12.2.1 (0)
 -->
<!-- Pages: 1 -->
<svg width="1854pt" height="264pt"
 viewBox="0.00 0.00 1854.00 264.00" xmlns="http://www.w3.org/2000/svg" xmlns:xlink="http://www.w3.org/1999/xlink">
<g id="graph0" class="graph" transform="scale(1 1) rotate(0) translate(4 260)">
<polygon fill="white" stroke="none" points="-4,4 -4,-260 1850,-260 1850,4 -4,4"/>
<!-- 824634671872 -->
<g id="node1" class="node">
<title>824634671872</title>
<path fill="lightblue" stroke="lightblue" d="M12,-146.5C12,-146.5 203.5,-146.5 203.5,-146.5 209.5,-146.5 215.5,-152.5 215.5,-158.5 215.5,-158.5 215.5,-170.5 215.5,-170.5 215.5,-176.5 209.5,-182.5 203.5,-182.5 203.5,-182.5 12,-182.5 12,-182.5 6,-182.5 0,-176.5 0,-170.5 0,-170.5 0,-158.5 0,-158.5 0,-152.5 6,-146.5 12,-146.5"/>
<text text-anchor="middle" x="107.75" y="-159.82" font-family="Times,serif" font-size="14.00">examples/target/rde&#45;live.iso</text>
</g>
<!-- 824634672640 -->
<g id="node2" class="node">
<title>824634672640</title>
<path fill="lightblue" stroke="lightblue" d="M241.5,-219.5C241.5,-219.5 316,-219.5 316,-219.5 322,-219.5 328,-225.5 328,-231.5 328,-231.5 328,-243.5 328,-243.5 328,-249.5 322,-255.5 316,-255.5 316,-255.5 241.5,-255.5 241.5,-255.5 235.5,-255.5 229.5,-249.5 229.5,-243.5 229.5,-243.5 229.5,-231.5 229.5,-231.5 229.5,-225.5 235.5,-219.5 241.5,-219.5"/>
<text text-anchor="middle" x="278.75" y="-232.82" font-family="Times,serif" font-size="14.00">qemu/1/run</text>
</g>
<!-- 824634673280 -->
<g id="node3" class="node">
<title>824634673280</title>
<path fill="lightblue" stroke="lightblue" d="M357.75,-219.5C357.75,-219.5 387.75,-219.5 387.75,-219.5 393.75,-219.5 399.75,-225.5 399.75,-231.5 399.75,-231.5 399.75,-243.5 399.75,-243.5 399.75,-249.5 393.75,-255.5 387.75,-255.5 387.75,-255.5 357.75,-255.5 357.75,-255.5 351.75,-255.5 345.75,-249.5 345.75,-243.5 345.75,-243.5 345.75,-231.5 345.75,-231.5 345.75,-225.5 351.75,-219.5 357.75,-219.5"/>
<text text-anchor="middle" x="372.38" y="-232.82" font-family="Times,serif" font-size="14.00">all</text>
</g>
<!-- 824634673024 -->
<g id="node4" class="node">
<title>824634673024</title>
<path fill="lightblue" stroke="lightblue" d="M393.75,-146.5C393.75,-146.5 423.75,-146.5 423.75,-146.5 429.75,-146.5 435.75,-152.5 435.75,-158.5 435.75,-158.5 435.75,-170.5 435.75,-170.5 435.75,-176.5 429.75,-182.5 423.75,-182.5 423.75,-182.5 393.75,-182.5 393.75,-182.5 387.75,-182.5 381.75,-176.5 381.75,-170.5 381.75,-170.5 381.75,-158.5 381.75,-158.5 381.75,-152.5 387.75,-146.5 393.75,-146.5"/>
<text text-anchor="middle" x="408.62" y="-159.82" font-family="Times,serif" font-size="14.00">ares</text>
</g>
<!-- 824634673280&#45;&gt;824634673024 -->
<g id="edge1" class="edge">
<title>824634673280&#45;&gt;824634673024</title>
<path fill="none" stroke="black" d="M381.46,-219.31C385.53,-211.29 390.47,-201.55 395.02,-192.57"/>
<polygon fill="black" stroke="black" points="398.03,-194.38 399.43,-183.88 391.79,-191.21 398.03,-194.38"/>
</g>
<!-- 824634673408 -->
<g id="node5" class="node">
<title>824634673408</title>
<path fill="lightblue" stroke="lightblue" d="M502.25,-219.5C502.25,-219.5 599.25,-219.5 599.25,-219.5 605.25,-219.5 611.25,-225.5 611.25,-231.5 611.25,-231.5 611.25,-243.5 611.25,-243.5 611.25,-249.5 605.25,-255.5 599.25,-255.5 599.25,-255.5 502.25,-255.5 502.25,-255.5 496.25,-255.5 490.25,-249.5 490.25,-243.5 490.25,-243.5 490.25,-231.5 490.25,-231.5 490.25,-225.5 496.25,-219.5 502.25,-219.5"/>
<text text-anchor="middle" x="550.75" y="-232.82" font-family="Times,serif" font-size="14.00">qemu/1/deploy</text>
</g>
<!-- 824634674176 -->
<g id="node6" class="node">
<title>824634674176</title>
<path fill="lightblue" stroke="lightblue" d="M605.62,-0.5C605.62,-0.5 737.88,-0.5 737.88,-0.5 743.88,-0.5 749.88,-6.5 749.88,-12.5 749.88,-12.5 749.88,-24.5 749.88,-24.5 749.88,-30.5 743.88,-36.5 737.88,-36.5 737.88,-36.5 605.62,-36.5 605.62,-36.5 599.62,-36.5 593.62,-30.5 593.62,-24.5 593.62,-24.5 593.62,-12.5 593.62,-12.5 593.62,-6.5 599.62,-0.5 605.62,-0.5"/>
<text text-anchor="middle" x="671.75" y="-13.82" font-family="Times,serif" font-size="14.00">doc/rde&#45;tool&#45;list.org</text>
</g>
<!-- 824634674304 -->
<g id="node7" class="node">
<title>824634674304</title>
<path fill="lightblue" stroke="lightblue" d="M1044.38,-73.5C1044.38,-73.5 1103.12,-73.5 1103.12,-73.5 1109.12,-73.5 1115.12,-79.5 1115.12,-85.5 1115.12,-85.5 1115.12,-97.5 1115.12,-97.5 1115.12,-103.5 1109.12,-109.5 1103.12,-109.5 1103.12,-109.5 1044.38,-109.5 1044.38,-109.5 1038.38,-109.5 1032.38,-103.5 1032.38,-97.5 1032.38,-97.5 1032.38,-85.5 1032.38,-85.5 1032.38,-79.5 1038.38,-73.5 1044.38,-73.5"/>
<text text-anchor="middle" x="1073.75" y="-86.83" font-family="Times,serif" font-size="14.00">README</text>
</g>
<!-- 824634674432 -->
<g id="node8" class="node">
<title>824634674432</title>
<path fill="lightblue" stroke="lightblue" d="M1189.38,-219.5C1189.38,-219.5 1404.12,-219.5 1404.12,-219.5 1410.12,-219.5 1416.12,-225.5 1416.12,-231.5 1416.12,-231.5 1416.12,-243.5 1416.12,-243.5 1416.12,-249.5 1410.12,-255.5 1404.12,-255.5 1404.12,-255.5 1189.38,-255.5 1189.38,-255.5 1183.38,-255.5 1177.38,-249.5 1177.38,-243.5 1177.38,-243.5 1177.38,-231.5 1177.38,-231.5 1177.38,-225.5 1183.38,-219.5 1189.38,-219.5"/>
<text text-anchor="middle" x="1296.75" y="-232.82" font-family="Times,serif" font-size="14.00">examples/ixy/home/reconfigure</text>
</g>
<!-- 824634672512 -->
<g id="node9" class="node">
<title>824634672512</title>
<path fill="lightblue" stroke="lightblue" d="M1025.62,-146.5C1025.62,-146.5 1121.88,-146.5 1121.88,-146.5 1127.88,-146.5 1133.88,-152.5 1133.88,-158.5 1133.88,-158.5 1133.88,-170.5 1133.88,-170.5 1133.88,-176.5 1127.88,-182.5 1121.88,-182.5 1121.88,-182.5 1025.62,-182.5 1025.62,-182.5 1019.62,-182.5 1013.62,-176.5 1013.62,-170.5 1013.62,-170.5 1013.62,-158.5 1013.62,-158.5 1013.62,-152.5 1019.62,-146.5 1025.62,-146.5"/>
<text text-anchor="middle" x="1073.75" y="-159.82" font-family="Times,serif" font-size="14.00">README.html</text>
</g>
<!-- 824634672512&#45;&gt;824634674304 -->
<g id="edge2" class="edge">
<title>824634672512&#45;&gt;824634674304</title>
<path fill="none" stroke="black" d="M1073.75,-146.31C1073.75,-138.73 1073.75,-129.6 1073.75,-121.04"/>
<polygon fill="black" stroke="black" points="1077.25,-121.04 1073.75,-111.04 1070.25,-121.04 1077.25,-121.04"/>
</g>
<!-- 824634672768 -->
<g id="node10" class="node">
<title>824634672768</title>
<path fill="lightblue" stroke="lightblue" d="M1445.75,-219.5C1445.75,-219.5 1475.75,-219.5 1475.75,-219.5 1481.75,-219.5 1487.75,-225.5 1487.75,-231.5 1487.75,-231.5 1487.75,-243.5 1487.75,-243.5 1487.75,-249.5 1481.75,-255.5 1475.75,-255.5 1475.75,-255.5 1445.75,-255.5 1445.75,-255.5 1439.75,-255.5 1433.75,-249.5 1433.75,-243.5 1433.75,-243.5 1433.75,-231.5 1433.75,-231.5 1433.75,-225.5 1439.75,-219.5 1445.75,-219.5"/>
<text text-anchor="middle" x="1460.62" y="-232.82" font-family="Times,serif" font-size="14.00">guix</text>
</g>
<!-- 824634673536 -->
<g id="node11" class="node">
<title>824634673536</title>
<path fill="lightblue" stroke="lightblue" d="M604.12,-73.5C604.12,-73.5 739.38,-73.5 739.38,-73.5 745.38,-73.5 751.38,-79.5 751.38,-85.5 751.38,-85.5 751.38,-97.5 751.38,-97.5 751.38,-103.5 745.38,-109.5 739.38,-109.5 739.38,-109.5 604.12,-109.5 604.12,-109.5 598.12,-109.5 592.12,-103.5 592.12,-97.5 592.12,-97.5 592.12,-85.5 592.12,-85.5 592.12,-79.5 598.12,-73.5 604.12,-73.5"/>
<text text-anchor="middle" x="671.75" y="-86.83" font-family="Times,serif" font-size="14.00">doc/rde&#45;tool&#45;list.texi</text>
</g>
<!-- 824634673536&#45;&gt;824634674176 -->
<g id="edge3" class="edge">
<title>824634673536&#45;&gt;824634674176</title>
<path fill="none" stroke="black" d="M671.75,-73.31C671.75,-65.73 671.75,-56.6 671.75,-48.04"/>
<polygon fill="black" stroke="black" points="675.25,-48.04 671.75,-38.04 668.25,-48.04 675.25,-48.04"/>
</g>
<!-- 824634673664 -->
<g id="node12" class="node">
<title>824634673664</title>
<path fill="lightblue" stroke="lightblue" d="M781.38,-73.5C781.38,-73.5 942.12,-73.5 942.12,-73.5 948.12,-73.5 954.12,-79.5 954.12,-85.5 954.12,-85.5 954.12,-97.5 954.12,-97.5 954.12,-103.5 948.12,-109.5 942.12,-109.5 942.12,-109.5 781.38,-109.5 781.38,-109.5 775.38,-109.5 769.38,-103.5 769.38,-97.5 769.38,-97.5 769.38,-85.5 769.38,-85.5 769.38,-79.5 775.38,-73.5 781.38,-73.5"/>
<text text-anchor="middle" x="861.75" y="-86.83" font-family="Times,serif" font-size="14.00">doc/getting&#45;started.texi</text>
</g>
<!-- 824634673792 -->
<g id="node13" class="node">
<title>824634673792</title>
<path fill="lightblue" stroke="lightblue" d="M1518.25,-219.5C1518.25,-219.5 1687.25,-219.5 1687.25,-219.5 1693.25,-219.5 1699.25,-225.5 1699.25,-231.5 1699.25,-231.5 1699.25,-243.5 1699.25,-243.5 1699.25,-249.5 1693.25,-255.5 1687.25,-255.5 1687.25,-255.5 1518.25,-255.5 1518.25,-255.5 1512.25,-255.5 1506.25,-249.5 1506.25,-243.5 1506.25,-243.5 1506.25,-231.5 1506.25,-231.5 1506.25,-225.5 1512.25,-219.5 1518.25,-219.5"/>
<text text-anchor="middle" x="1602.75" y="-232.82" font-family="Times,serif" font-size="14.00">examples/ixy/home/build</text>
</g>
<!-- 824634671744 -->
<g id="node14" class="node">
<title>824634671744</title>
<path fill="lightblue" stroke="lightblue" d="M16.5,-219.5C16.5,-219.5 199,-219.5 199,-219.5 205,-219.5 211,-225.5 211,-231.5 211,-231.5 211,-243.5 211,-243.5 211,-249.5 205,-255.5 199,-255.5 199,-255.5 16.5,-255.5 16.5,-255.5 10.5,-255.5 4.5,-249.5 4.5,-243.5 4.5,-243.5 4.5,-231.5 4.5,-231.5 4.5,-225.5 10.5,-219.5 16.5,-219.5"/>
<text text-anchor="middle" x="107.75" y="-232.82" font-family="Times,serif" font-size="14.00">qemu/live/run&#45;from&#45;rde&#45;iso</text>
</g>
<!-- 824634671744&#45;&gt;824634671872 -->
<g id="edge4" class="edge">
<title>824634671744&#45;&gt;824634671872</title>
<path fill="none" stroke="black" d="M107.75,-219.31C107.75,-211.73 107.75,-202.6 107.75,-194.04"/>
<polygon fill="black" stroke="black" points="111.25,-194.04 107.75,-184.04 104.25,-194.04 111.25,-194.04"/>
</g>
<!-- 824634672256 -->
<g id="node15" class="node">
<title>824634672256</title>
<path fill="lightblue" stroke="lightblue" d="M1729.75,-219.5C1729.75,-219.5 1759.75,-219.5 1759.75,-219.5 1765.75,-219.5 1771.75,-225.5 1771.75,-231.5 1771.75,-231.5 1771.75,-243.5 1771.75,-243.5 1771.75,-249.5 1765.75,-255.5 1759.75,-255.5 1759.75,-255.5 1729.75,-255.5 1729.75,-255.5 1723.75,-255.5 1717.75,-249.5 1717.75,-243.5 1717.75,-243.5 1717.75,-231.5 1717.75,-231.5 1717.75,-225.5 1723.75,-219.5 1729.75,-219.5"/>
<text text-anchor="middle" x="1744.5" y="-232.82" font-family="Times,serif" font-size="14.00">clean</text>
</g>
<!-- 824634672384 -->
<g id="node16" class="node">
<title>824634672384</title>
<path fill="lightblue" stroke="lightblue" d="M999.75,-219.5C999.75,-219.5 1147.75,-219.5 1147.75,-219.5 1153.75,-219.5 1159.75,-225.5 1159.75,-231.5 1159.75,-231.5 1159.75,-243.5 1159.75,-243.5 1159.75,-249.5 1153.75,-255.5 1147.75,-255.5 1147.75,-255.5 999.75,-255.5 999.75,-255.5 993.75,-255.5 987.75,-249.5 987.75,-243.5 987.75,-243.5 987.75,-231.5 987.75,-231.5 987.75,-225.5 993.75,-219.5 999.75,-219.5"/>
<text text-anchor="middle" x="1073.75" y="-232.82" font-family="Times,serif" font-size="14.00">deploy&#45;README.html</text>
</g>
<!-- 824634672384&#45;&gt;824634672512 -->
<g id="edge5" class="edge">
<title>824634672384&#45;&gt;824634672512</title>
<path fill="none" stroke="black" d="M1073.75,-219.31C1073.75,-211.73 1073.75,-202.6 1073.75,-194.04"/>
<polygon fill="black" stroke="black" points="1077.25,-194.04 1073.75,-184.04 1070.25,-194.04 1077.25,-194.04"/>
</g>
<!-- 824634673152 -->
<g id="node17" class="node">
<title>824634673152</title>
<path fill="lightblue" stroke="lightblue" d="M641.38,-219.5C641.38,-219.5 724.12,-219.5 724.12,-219.5 730.12,-219.5 736.12,-225.5 736.12,-231.5 736.12,-231.5 736.12,-243.5 736.12,-243.5 736.12,-249.5 730.12,-255.5 724.12,-255.5 724.12,-255.5 641.38,-255.5 641.38,-255.5 635.38,-255.5 629.38,-249.5 629.38,-243.5 629.38,-243.5 629.38,-231.5 629.38,-231.5 629.38,-225.5 635.38,-219.5 641.38,-219.5"/>
<text text-anchor="middle" x="682.75" y="-232.82" font-family="Times,serif" font-size="14.00">doc/rde.html</text>
</g>
<!-- 824634672128 -->
<g id="node18" class="node">
<title>824634672128</title>
<path fill="lightblue" stroke="lightblue" d="M764.38,-146.5C764.38,-146.5 841.12,-146.5 841.12,-146.5 847.12,-146.5 853.12,-152.5 853.12,-158.5 853.12,-158.5 853.12,-170.5 853.12,-170.5 853.12,-176.5 847.12,-182.5 841.12,-182.5 841.12,-182.5 764.38,-182.5 764.38,-182.5 758.38,-182.5 752.38,-176.5 752.38,-170.5 752.38,-170.5 752.38,-158.5 752.38,-158.5 752.38,-152.5 758.38,-146.5 764.38,-146.5"/>
<text text-anchor="middle" x="802.75" y="-159.82" font-family="Times,serif" font-size="14.00">doc/rde.texi</text>
</g>
<!-- 824634673152&#45;&gt;824634672128 -->
<g id="edge6" class="edge">
<title>824634673152&#45;&gt;824634672128</title>
<path fill="none" stroke="black" d="M712.11,-219.13C727.65,-209.93 746.95,-198.52 763.73,-188.58"/>
<polygon fill="black" stroke="black" points="765.16,-191.81 771.98,-183.71 761.59,-185.79 765.16,-191.81"/>
</g>
<!-- 824634672128&#45;&gt;824634673536 -->
<g id="edge9" class="edge">
<title>824634672128&#45;&gt;824634673536</title>
<path fill="none" stroke="black" d="M770.7,-146.13C753.58,-136.85 732.28,-125.3 713.83,-115.31"/>
<polygon fill="black" stroke="black" points="715.71,-112.34 705.25,-110.66 712.37,-118.5 715.71,-112.34"/>
</g>
<!-- 824634672128&#45;&gt;824634673664 -->
<g id="edge10" class="edge">
<title>824634672128&#45;&gt;824634673664</title>
<path fill="none" stroke="black" d="M817.03,-146.31C824.06,-137.85 832.68,-127.48 840.47,-118.11"/>
<polygon fill="black" stroke="black" points="842.93,-120.62 846.63,-110.69 837.55,-116.15 842.93,-120.62"/>
</g>
<!-- 824634673920 -->
<g id="node19" class="node">
<title>824634673920</title>
<path fill="lightblue" stroke="lightblue" d="M766.25,-219.5C766.25,-219.5 839.25,-219.5 839.25,-219.5 845.25,-219.5 851.25,-225.5 851.25,-231.5 851.25,-231.5 851.25,-243.5 851.25,-243.5 851.25,-249.5 845.25,-255.5 839.25,-255.5 839.25,-255.5 766.25,-255.5 766.25,-255.5 760.25,-255.5 754.25,-249.5 754.25,-243.5 754.25,-243.5 754.25,-231.5 754.25,-231.5 754.25,-225.5 760.25,-219.5 766.25,-219.5"/>
<text text-anchor="middle" x="802.75" y="-232.82" font-family="Times,serif" font-size="14.00">doc/rde.pdf</text>
</g>
<!-- 824634673920&#45;&gt;824634672128 -->
<g id="edge7" class="edge">
<title>824634673920&#45;&gt;824634672128</title>
<path fill="none" stroke="black" d="M802.75,-219.31C802.75,-211.73 802.75,-202.6 802.75,-194.04"/>
<polygon fill="black" stroke="black" points="806.25,-194.04 802.75,-184.04 799.25,-194.04 806.25,-194.04"/>
</g>
<!-- 824634671616 -->
<g id="node20" class="node">
<title>824634671616</title>
<path fill="lightblue" stroke="lightblue" d="M1801.5,-219.5C1801.5,-219.5 1834,-219.5 1834,-219.5 1840,-219.5 1846,-225.5 1846,-231.5 1846,-231.5 1846,-243.5 1846,-243.5 1846,-249.5 1840,-255.5 1834,-255.5 1834,-255.5 1801.5,-255.5 1801.5,-255.5 1795.5,-255.5 1789.5,-249.5 1789.5,-243.5 1789.5,-243.5 1789.5,-231.5 1789.5,-231.5 1789.5,-225.5 1795.5,-219.5 1801.5,-219.5"/>
<text text-anchor="middle" x="1817.75" y="-232.82" font-family="Times,serif" font-size="14.00">check</text>
</g>
<!-- 824634672000 -->
<g id="node21" class="node">
<title>824634672000</title>
<path fill="lightblue" stroke="lightblue" d="M881.38,-219.5C881.38,-219.5 958.12,-219.5 958.12,-219.5 964.12,-219.5 970.12,-225.5 970.12,-231.5 970.12,-231.5 970.12,-243.5 970.12,-243.5 970.12,-249.5 964.12,-255.5 958.12,-255.5 958.12,-255.5 881.38,-255.5 881.38,-255.5 875.38,-255.5 869.38,-249.5 869.38,-243.5 869.38,-243.5 869.38,-231.5 869.38,-231.5 869.38,-225.5 875.38,-219.5 881.38,-219.5"/>
<text text-anchor="middle" x="919.75" y="-232.82" font-family="Times,serif" font-size="14.00">doc/rde.info</text>
</g>
<!-- 824634672000&#45;&gt;824634672128 -->
<g id="edge8" class="edge">
<title>824634672000&#45;&gt;824634672128</title>
<path fill="none" stroke="black" d="M891.13,-219.13C876.11,-210.02 857.51,-198.73 841.25,-188.86"/>
<polygon fill="black" stroke="black" points="843.14,-185.92 832.78,-183.72 839.51,-191.9 843.14,-185.92"/>
</g>
<!-- 824634672896 -->
<g id="node22" class="node">
<title>824634672896</title>
<path fill="lightblue" stroke="lightblue" d="M429.75,-219.5C429.75,-219.5 459.75,-219.5 459.75,-219.5 465.75,-219.5 471.75,-225.5 471.75,-231.5 471.75,-231.5 471.75,-243.5 471.75,-243.5 471.75,-249.5 465.75,-255.5 459.75,-255.5 459.75,-255.5 429.75,-255.5 429.75,-255.5 423.75,-255.5 417.75,-249.5 417.75,-243.5 417.75,-243.5 417.75,-231.5 417.75,-231.5 417.75,-225.5 423.75,-219.5 429.75,-219.5"/>
<text text-anchor="middle" x="444.5" y="-232.82" font-family="Times,serif" font-size="14.00">repl</text>
</g>
<!-- 824634672896&#45;&gt;824634673024 -->
<g id="edge11" class="edge">
<title>824634672896&#45;&gt;824634673024</title>
<path fill="none" stroke="black" d="M436.04,-219.31C431.97,-211.29 427.03,-201.55 422.48,-192.57"/>
<polygon fill="black" stroke="black" points="425.71,-191.21 418.07,-183.88 419.47,-194.38 425.71,-191.21"/>
</g>
</g>
</svg>
