<?xml version="1.0" encoding="UTF-8" standalone="no"?>
<!DOCTYPE svg PUBLIC "-//W3C//DTD SVG 1.1//EN"
 "http://www.w3.org/Graphics/SVG/1.1/DTD/svg11.dtd">
<!-- Generated by graphviz version 12.2.1 (0)
 -->
<!-- Pages: 1 -->
<svg width="387pt" height="1090pt"
 viewBox="0.00 0.00 386.50 1090.00" xmlns="http://www.w3.org/2000/svg" xmlns:xlink="http://www.w3.org/1999/xlink">
<g id="graph0" class="graph" transform="scale(1 1) rotate(0) translate(4 1086)">
<polygon fill="white" stroke="none" points="-4,4 -4,-1086 382.5,-1086 382.5,4 -4,4"/>
<!-- 824634674944 -->
<g id="node1" class="node">
<title>824634674944</title>
<path fill="lightblue" stroke="lightblue" d="M12,-0.5C12,-0.5 132.25,-0.5 132.25,-0.5 138.25,-0.5 144.25,-6.5 144.25,-12.5 144.25,-12.5 144.25,-24.5 144.25,-24.5 144.25,-30.5 138.25,-36.5 132.25,-36.5 132.25,-36.5 12,-36.5 12,-36.5 6,-36.5 0,-30.5 0,-24.5 0,-24.5 0,-12.5 0,-12.5 0,-6.5 6,-0.5 12,-0.5"/>
<text text-anchor="middle" x="72.12" y="-14.2" font-family="Times,serif" font-size="14.00">build&#45;linux&#45;amd64</text>
</g>
<!-- 824634673280 -->
<g id="node2" class="node">
<title>824634673280</title>
<path fill="lightblue" stroke="lightblue" d="M30,-55.5C30,-55.5 114.25,-55.5 114.25,-55.5 120.25,-55.5 126.25,-61.5 126.25,-67.5 126.25,-67.5 126.25,-79.5 126.25,-79.5 126.25,-85.5 120.25,-91.5 114.25,-91.5 114.25,-91.5 30,-91.5 30,-91.5 24,-91.5 18,-85.5 18,-79.5 18,-79.5 18,-67.5 18,-67.5 18,-61.5 24,-55.5 30,-55.5"/>
<text text-anchor="middle" x="72.12" y="-69.2" font-family="Times,serif" font-size="14.00">oci&#45;arm&#45;push</text>
</g>
<!-- 824634673152 -->
<g id="node3" class="node">
<title>824634673152</title>
<path fill="lightblue" stroke="lightblue" d="M220.38,-55.5C220.38,-55.5 338.38,-55.5 338.38,-55.5 344.38,-55.5 350.38,-61.5 350.38,-67.5 350.38,-67.5 350.38,-79.5 350.38,-79.5 350.38,-85.5 344.38,-91.5 338.38,-91.5 338.38,-91.5 220.38,-91.5 220.38,-91.5 214.38,-91.5 208.38,-85.5 208.38,-79.5 208.38,-79.5 208.38,-67.5 208.38,-67.5 208.38,-61.5 214.38,-55.5 220.38,-55.5"/>
<text text-anchor="middle" x="279.38" y="-69.2" font-family="Times,serif" font-size="14.00">build&#45;linux&#45;arm64</text>
</g>
<!-- 824634673280&#45;&gt;824634673152 -->
<g id="edge1" class="edge">
<title>824634673280&#45;&gt;824634673152</title>
<path fill="none" stroke="black" d="M126.52,-73.5C147.95,-73.5 173.14,-73.5 196.78,-73.5"/>
<polygon fill="black" stroke="black" points="196.72,-77 206.72,-73.5 196.72,-70 196.72,-77"/>
</g>
<!-- 824634673408 -->
<g id="node4" class="node">
<title>824634673408</title>
<path fill="lightblue" stroke="lightblue" d="M57.12,-110.5C57.12,-110.5 87.12,-110.5 87.12,-110.5 93.12,-110.5 99.12,-116.5 99.12,-122.5 99.12,-122.5 99.12,-134.5 99.12,-134.5 99.12,-140.5 93.12,-146.5 87.12,-146.5 87.12,-146.5 57.12,-146.5 57.12,-146.5 51.12,-146.5 45.12,-140.5 45.12,-134.5 45.12,-134.5 45.12,-122.5 45.12,-122.5 45.12,-116.5 51.12,-110.5 57.12,-110.5"/>
<text text-anchor="middle" x="72.12" y="-124.2" font-family="Times,serif" font-size="14.00">all</text>
</g>
<!-- 824634673536 -->
<g id="node5" class="node">
<title>824634673536</title>
<path fill="lightblue" stroke="lightblue" d="M264.38,-110.5C264.38,-110.5 294.38,-110.5 294.38,-110.5 300.38,-110.5 306.38,-116.5 306.38,-122.5 306.38,-122.5 306.38,-134.5 306.38,-134.5 306.38,-140.5 300.38,-146.5 294.38,-146.5 294.38,-146.5 264.38,-146.5 264.38,-146.5 258.38,-146.5 252.38,-140.5 252.38,-134.5 252.38,-134.5 252.38,-122.5 252.38,-122.5 252.38,-116.5 258.38,-110.5 264.38,-110.5"/>
<text text-anchor="middle" x="279.38" y="-124.2" font-family="Times,serif" font-size="14.00">build</text>
</g>
<!-- 824634673408&#45;&gt;824634673536 -->
<g id="edge2" class="edge">
<title>824634673408&#45;&gt;824634673536</title>
<path fill="none" stroke="black" d="M99.54,-128.5C135.41,-128.5 199.73,-128.5 240.67,-128.5"/>
<polygon fill="black" stroke="black" points="240.55,-132 250.55,-128.5 240.55,-125 240.55,-132"/>
</g>
<!-- 824634673664 -->
<g id="node6" class="node">
<title>824634673664</title>
<path fill="lightblue" stroke="lightblue" d="M38.25,-165.5C38.25,-165.5 106,-165.5 106,-165.5 112,-165.5 118,-171.5 118,-177.5 118,-177.5 118,-189.5 118,-189.5 118,-195.5 112,-201.5 106,-201.5 106,-201.5 38.25,-201.5 38.25,-201.5 32.25,-201.5 26.25,-195.5 26.25,-189.5 26.25,-189.5 26.25,-177.5 26.25,-177.5 26.25,-171.5 32.25,-165.5 38.25,-165.5"/>
<text text-anchor="middle" x="72.12" y="-179.2" font-family="Times,serif" font-size="14.00">mocks&#45;gen</text>
</g>
<!-- 824634672896 -->
<g id="node7" class="node">
<title>824634672896</title>
<path fill="lightblue" stroke="lightblue" d="M248.5,-165.5C248.5,-165.5 310.25,-165.5 310.25,-165.5 316.25,-165.5 322.25,-171.5 322.25,-177.5 322.25,-177.5 322.25,-189.5 322.25,-189.5 322.25,-195.5 316.25,-201.5 310.25,-201.5 310.25,-201.5 248.5,-201.5 248.5,-201.5 242.5,-201.5 236.5,-195.5 236.5,-189.5 236.5,-189.5 236.5,-177.5 236.5,-177.5 236.5,-171.5 242.5,-165.5 248.5,-165.5"/>
<text text-anchor="middle" x="279.38" y="-179.2" font-family="Times,serif" font-size="14.00">mocks&#45;rm</text>
</g>
<!-- 824634673664&#45;&gt;824634672896 -->
<g id="edge3" class="edge">
<title>824634673664&#45;&gt;824634672896</title>
<path fill="none" stroke="black" d="M118.42,-183.5C149.89,-183.5 191.95,-183.5 225.04,-183.5"/>
<polygon fill="black" stroke="black" points="224.83,-187 234.83,-183.5 224.83,-180 224.83,-187"/>
</g>
<!-- 824634674048 -->
<g id="node8" class="node">
<title>824634674048</title>
<path fill="lightblue" stroke="lightblue" d="M24.38,-220.5C24.38,-220.5 119.88,-220.5 119.88,-220.5 125.88,-220.5 131.88,-226.5 131.88,-232.5 131.88,-232.5 131.88,-244.5 131.88,-244.5 131.88,-250.5 125.88,-256.5 119.88,-256.5 119.88,-256.5 24.38,-256.5 24.38,-256.5 18.38,-256.5 12.38,-250.5 12.38,-244.5 12.38,-244.5 12.38,-232.5 12.38,-232.5 12.38,-226.5 18.38,-220.5 24.38,-220.5"/>
<text text-anchor="middle" x="72.12" y="-234.2" font-family="Times,serif" font-size="14.00">serve&#45;docs&#45;full</text>
</g>
<!-- 824634674176 -->
<g id="node9" class="node">
<title>824634674176</title>
<path fill="lightblue" stroke="lightblue" d="M57.12,-275.5C57.12,-275.5 87.12,-275.5 87.12,-275.5 93.12,-275.5 99.12,-281.5 99.12,-287.5 99.12,-287.5 99.12,-299.5 99.12,-299.5 99.12,-305.5 93.12,-311.5 87.12,-311.5 87.12,-311.5 57.12,-311.5 57.12,-311.5 51.12,-311.5 45.12,-305.5 45.12,-299.5 45.12,-299.5 45.12,-287.5 45.12,-287.5 45.12,-281.5 51.12,-275.5 57.12,-275.5"/>
<text text-anchor="middle" x="72.12" y="-289.2" font-family="Times,serif" font-size="14.00">clint</text>
</g>
<!-- 824634671616 -->
<g id="node10" class="node">
<title>824634671616</title>
<path fill="lightblue" stroke="lightblue" d="M18.38,-330.5C18.38,-330.5 125.88,-330.5 125.88,-330.5 131.88,-330.5 137.88,-336.5 137.88,-342.5 137.88,-342.5 137.88,-354.5 137.88,-354.5 137.88,-360.5 131.88,-366.5 125.88,-366.5 125.88,-366.5 18.38,-366.5 18.38,-366.5 12.38,-366.5 6.38,-360.5 6.38,-354.5 6.38,-354.5 6.38,-342.5 6.38,-342.5 6.38,-336.5 12.38,-330.5 18.38,-330.5"/>
<text text-anchor="middle" x="72.12" y="-344.2" font-family="Times,serif" font-size="14.00">build&#45;with&#45;cover</text>
</g>
<!-- 824634672640 -->
<g id="node11" class="node">
<title>824634672640</title>
<path fill="lightblue" stroke="lightblue" d="M33.75,-385.5C33.75,-385.5 110.5,-385.5 110.5,-385.5 116.5,-385.5 122.5,-391.5 122.5,-397.5 122.5,-397.5 122.5,-409.5 122.5,-409.5 122.5,-415.5 116.5,-421.5 110.5,-421.5 110.5,-421.5 33.75,-421.5 33.75,-421.5 27.75,-421.5 21.75,-415.5 21.75,-409.5 21.75,-409.5 21.75,-397.5 21.75,-397.5 21.75,-391.5 27.75,-385.5 33.75,-385.5"/>
<text text-anchor="middle" x="72.12" y="-399.2" font-family="Times,serif" font-size="14.00">build&#45;debug</text>
</g>
<!-- 824634672768 -->
<g id="node12" class="node">
<title>824634672768</title>
<path fill="lightblue" stroke="lightblue" d="M14.62,-440.5C14.62,-440.5 129.62,-440.5 129.62,-440.5 135.62,-440.5 141.62,-446.5 141.62,-452.5 141.62,-452.5 141.62,-464.5 141.62,-464.5 141.62,-470.5 135.62,-476.5 129.62,-476.5 129.62,-476.5 14.62,-476.5 14.62,-476.5 8.62,-476.5 2.62,-470.5 2.62,-464.5 2.62,-464.5 2.62,-452.5 2.62,-452.5 2.62,-446.5 8.62,-440.5 14.62,-440.5"/>
<text text-anchor="middle" x="72.12" y="-454.2" font-family="Times,serif" font-size="14.00">convert&#45;coverage</text>
</g>
<!-- 824634672512 -->
<g id="node13" class="node">
<title>824634672512</title>
<path fill="lightblue" stroke="lightblue" d="M46.12,-495.5C46.12,-495.5 98.12,-495.5 98.12,-495.5 104.12,-495.5 110.12,-501.5 110.12,-507.5 110.12,-507.5 110.12,-519.5 110.12,-519.5 110.12,-525.5 104.12,-531.5 98.12,-531.5 98.12,-531.5 46.12,-531.5 46.12,-531.5 40.12,-531.5 34.12,-525.5 34.12,-519.5 34.12,-519.5 34.12,-507.5 34.12,-507.5 34.12,-501.5 40.12,-495.5 46.12,-495.5"/>
<text text-anchor="middle" x="72.12" y="-509.2" font-family="Times,serif" font-size="14.00">golangci</text>
</g>
<!-- 824634674816 -->
<g id="node14" class="node">
<title>824634674816</title>
<path fill="lightblue" stroke="lightblue" d="M20.62,-550.5C20.62,-550.5 123.62,-550.5 123.62,-550.5 129.62,-550.5 135.62,-556.5 135.62,-562.5 135.62,-562.5 135.62,-574.5 135.62,-574.5 135.62,-580.5 129.62,-586.5 123.62,-586.5 123.62,-586.5 20.62,-586.5 20.62,-586.5 14.62,-586.5 8.62,-580.5 8.62,-574.5 8.62,-574.5 8.62,-562.5 8.62,-562.5 8.62,-556.5 14.62,-550.5 20.62,-550.5"/>
<text text-anchor="middle" x="72.12" y="-564.2" font-family="Times,serif" font-size="14.00">build&#45;dlv&#45;debug</text>
</g>
<!-- 824634672128 -->
<g id="node15" class="node">
<title>824634672128</title>
<path fill="lightblue" stroke="lightblue" d="M40.88,-605.5C40.88,-605.5 103.38,-605.5 103.38,-605.5 109.38,-605.5 115.38,-611.5 115.38,-617.5 115.38,-617.5 115.38,-629.5 115.38,-629.5 115.38,-635.5 109.38,-641.5 103.38,-641.5 103.38,-641.5 40.88,-641.5 40.88,-641.5 34.88,-641.5 28.88,-635.5 28.88,-629.5 28.88,-629.5 28.88,-617.5 28.88,-617.5 28.88,-611.5 34.88,-605.5 40.88,-605.5"/>
<text text-anchor="middle" x="72.12" y="-619.2" font-family="Times,serif" font-size="14.00">robot&#45;test</text>
</g>
<!-- 824634672256 -->
<g id="node16" class="node">
<title>824634672256</title>
<path fill="lightblue" stroke="lightblue" d="M192.25,-605.5C192.25,-605.5 366.5,-605.5 366.5,-605.5 372.5,-605.5 378.5,-611.5 378.5,-617.5 378.5,-617.5 378.5,-629.5 378.5,-629.5 378.5,-635.5 372.5,-641.5 366.5,-641.5 366.5,-641.5 192.25,-641.5 192.25,-641.5 186.25,-641.5 180.25,-635.5 180.25,-629.5 180.25,-629.5 180.25,-617.5 180.25,-617.5 180.25,-611.5 186.25,-605.5 192.25,-605.5"/>
<text text-anchor="middle" x="279.38" y="-619.2" font-family="Times,serif" font-size="14.00">build&#45;with&#45;podman&#45;debug</text>
</g>
<!-- 824634672128&#45;&gt;824634672256 -->
<g id="edge4" class="edge">
<title>824634672128&#45;&gt;824634672256</title>
<path fill="none" stroke="black" d="M115.65,-623.5C131.28,-623.5 149.79,-623.5 168.61,-623.5"/>
<polygon fill="black" stroke="black" points="168.52,-627 178.52,-623.5 168.52,-620 168.52,-627"/>
</g>
<!-- 824634673792 -->
<g id="node17" class="node">
<title>824634673792</title>
<path fill="lightblue" stroke="lightblue" d="M57.12,-660.5C57.12,-660.5 87.12,-660.5 87.12,-660.5 93.12,-660.5 99.12,-666.5 99.12,-672.5 99.12,-672.5 99.12,-684.5 99.12,-684.5 99.12,-690.5 93.12,-696.5 87.12,-696.5 87.12,-696.5 57.12,-696.5 57.12,-696.5 51.12,-696.5 45.12,-690.5 45.12,-684.5 45.12,-684.5 45.12,-672.5 45.12,-672.5 45.12,-666.5 51.12,-660.5 57.12,-660.5"/>
<text text-anchor="middle" x="72.12" y="-674.2" font-family="Times,serif" font-size="14.00">test</text>
</g>
<!-- 824634673920 -->
<g id="node18" class="node">
<title>824634673920</title>
<path fill="lightblue" stroke="lightblue" d="M57.12,-715.5C57.12,-715.5 87.12,-715.5 87.12,-715.5 93.12,-715.5 99.12,-721.5 99.12,-727.5 99.12,-727.5 99.12,-739.5 99.12,-739.5 99.12,-745.5 93.12,-751.5 87.12,-751.5 87.12,-751.5 57.12,-751.5 57.12,-751.5 51.12,-751.5 45.12,-745.5 45.12,-739.5 45.12,-739.5 45.12,-727.5 45.12,-727.5 45.12,-721.5 51.12,-715.5 57.12,-715.5"/>
<text text-anchor="middle" x="72.12" y="-729.2" font-family="Times,serif" font-size="14.00">site</text>
</g>
<!-- 824634674688 -->
<g id="node19" class="node">
<title>824634674688</title>
<path fill="lightblue" stroke="lightblue" d="M263.12,-770.5C263.12,-770.5 295.62,-770.5 295.62,-770.5 301.62,-770.5 307.62,-776.5 307.62,-782.5 307.62,-782.5 307.62,-794.5 307.62,-794.5 307.62,-800.5 301.62,-806.5 295.62,-806.5 295.62,-806.5 263.12,-806.5 263.12,-806.5 257.12,-806.5 251.12,-800.5 251.12,-794.5 251.12,-794.5 251.12,-782.5 251.12,-782.5 251.12,-776.5 257.12,-770.5 263.12,-770.5"/>
<text text-anchor="middle" x="279.38" y="-784.2" font-family="Times,serif" font-size="14.00">godot</text>
</g>
<!-- 824634671872 -->
<g id="node20" class="node">
<title>824634671872</title>
<path fill="lightblue" stroke="lightblue" d="M216.62,-825.5C216.62,-825.5 342.12,-825.5 342.12,-825.5 348.12,-825.5 354.12,-831.5 354.12,-837.5 354.12,-837.5 354.12,-849.5 354.12,-849.5 354.12,-855.5 348.12,-861.5 342.12,-861.5 342.12,-861.5 216.62,-861.5 216.62,-861.5 210.62,-861.5 204.62,-855.5 204.62,-849.5 204.62,-849.5 204.62,-837.5 204.62,-837.5 204.62,-831.5 210.62,-825.5 216.62,-825.5"/>
<text text-anchor="middle" x="279.38" y="-839.2" font-family="Times,serif" font-size="14.00">build&#45;with&#45;podman</text>
</g>
<!-- 824634672384 -->
<g id="node21" class="node">
<title>824634672384</title>
<path fill="lightblue" stroke="lightblue" d="M57.12,-880.5C57.12,-880.5 87.12,-880.5 87.12,-880.5 93.12,-880.5 99.12,-886.5 99.12,-892.5 99.12,-892.5 99.12,-904.5 99.12,-904.5 99.12,-910.5 93.12,-916.5 87.12,-916.5 87.12,-916.5 57.12,-916.5 57.12,-916.5 51.12,-916.5 45.12,-910.5 45.12,-904.5 45.12,-904.5 45.12,-892.5 45.12,-892.5 45.12,-886.5 51.12,-880.5 57.12,-880.5"/>
<text text-anchor="middle" x="72.12" y="-894.2" font-family="Times,serif" font-size="14.00">docs</text>
</g>
<!-- 824634674304 -->
<g id="node22" class="node">
<title>824634674304</title>
<path fill="lightblue" stroke="lightblue" d="M253.38,-715.5C253.38,-715.5 305.38,-715.5 305.38,-715.5 311.38,-715.5 317.38,-721.5 317.38,-727.5 317.38,-727.5 317.38,-739.5 317.38,-739.5 317.38,-745.5 311.38,-751.5 305.38,-751.5 305.38,-751.5 253.38,-751.5 253.38,-751.5 247.38,-751.5 241.38,-745.5 241.38,-739.5 241.38,-739.5 241.38,-727.5 241.38,-727.5 241.38,-721.5 247.38,-715.5 253.38,-715.5"/>
<text text-anchor="middle" x="279.38" y="-729.2" font-family="Times,serif" font-size="14.00">gofumpt</text>
</g>
<!-- 824634674432 -->
<g id="node23" class="node">
<title>824634674432</title>
<path fill="lightblue" stroke="lightblue" d="M38.25,-935.5C38.25,-935.5 106,-935.5 106,-935.5 112,-935.5 118,-941.5 118,-947.5 118,-947.5 118,-959.5 118,-959.5 118,-965.5 112,-971.5 106,-971.5 106,-971.5 38.25,-971.5 38.25,-971.5 32.25,-971.5 26.25,-965.5 26.25,-959.5 26.25,-959.5 26.25,-947.5 26.25,-947.5 26.25,-941.5 32.25,-935.5 38.25,-935.5"/>
<text text-anchor="middle" x="72.12" y="-949.2" font-family="Times,serif" font-size="14.00">serve&#45;docs</text>
</g>
<!-- 824634671744 -->
<g id="node24" class="node">
<title>824634671744</title>
<path fill="lightblue" stroke="lightblue" d="M46.5,-825.5C46.5,-825.5 97.75,-825.5 97.75,-825.5 103.75,-825.5 109.75,-831.5 109.75,-837.5 109.75,-837.5 109.75,-849.5 109.75,-849.5 109.75,-855.5 103.75,-861.5 97.75,-861.5 97.75,-861.5 46.5,-861.5 46.5,-861.5 40.5,-861.5 34.5,-855.5 34.5,-849.5 34.5,-849.5 34.5,-837.5 34.5,-837.5 34.5,-831.5 40.5,-825.5 46.5,-825.5"/>
<text text-anchor="middle" x="72.12" y="-839.2" font-family="Times,serif" font-size="14.00">oci&#45;push</text>
</g>
<!-- 824634671744&#45;&gt;824634671872 -->
<g id="edge5" class="edge">
<title>824634671744&#45;&gt;824634671872</title>
<path fill="none" stroke="black" d="M109.82,-843.5C132.93,-843.5 163.77,-843.5 192.75,-843.5"/>
<polygon fill="black" stroke="black" points="192.65,-847 202.65,-843.5 192.65,-840 192.65,-847"/>
</g>
<!-- 824634672000 -->
<g id="node25" class="node">
<title>824634672000</title>
<path fill="lightblue" stroke="lightblue" d="M57.12,-990.5C57.12,-990.5 87.12,-990.5 87.12,-990.5 93.12,-990.5 99.12,-996.5 99.12,-1002.5 99.12,-1002.5 99.12,-1014.5 99.12,-1014.5 99.12,-1020.5 93.12,-1026.5 87.12,-1026.5 87.12,-1026.5 57.12,-1026.5 57.12,-1026.5 51.12,-1026.5 45.12,-1020.5 45.12,-1014.5 45.12,-1014.5 45.12,-1002.5 45.12,-1002.5 45.12,-996.5 51.12,-990.5 57.12,-990.5"/>
<text text-anchor="middle" x="72.12" y="-1004.2" font-family="Times,serif" font-size="14.00">lint</text>
</g>
<!-- 824634673024 -->
<g id="node26" class="node">
<title>824634673024</title>
<path fill="lightblue" stroke="lightblue" d="M45.75,-1045.5C45.75,-1045.5 98.5,-1045.5 98.5,-1045.5 104.5,-1045.5 110.5,-1051.5 110.5,-1057.5 110.5,-1057.5 110.5,-1069.5 110.5,-1069.5 110.5,-1075.5 104.5,-1081.5 98.5,-1081.5 98.5,-1081.5 45.75,-1081.5 45.75,-1081.5 39.75,-1081.5 33.75,-1075.5 33.75,-1069.5 33.75,-1069.5 33.75,-1057.5 33.75,-1057.5 33.75,-1051.5 39.75,-1045.5 45.75,-1045.5"/>
<text text-anchor="middle" x="72.12" y="-1059.2" font-family="Times,serif" font-size="14.00">htmltest</text>
</g>
<!-- 824634674560 -->
<g id="node27" class="node">
<title>824634674560</title>
<path fill="lightblue" stroke="lightblue" d="M52.12,-770.5C52.12,-770.5 92.12,-770.5 92.12,-770.5 98.12,-770.5 104.12,-776.5 104.12,-782.5 104.12,-782.5 104.12,-794.5 104.12,-794.5 104.12,-800.5 98.12,-806.5 92.12,-806.5 92.12,-806.5 52.12,-806.5 52.12,-806.5 46.12,-806.5 40.12,-800.5 40.12,-794.5 40.12,-794.5 40.12,-782.5 40.12,-782.5 40.12,-776.5 46.12,-770.5 52.12,-770.5"/>
<text text-anchor="middle" x="72.12" y="-784.2" font-family="Times,serif" font-size="14.00">format</text>
</g>
<!-- 824634674560&#45;&gt;824634674688 -->
<g id="edge7" class="edge">
<title>824634674560&#45;&gt;824634674688</title>
<path fill="none" stroke="black" d="M104.3,-788.5C140.48,-788.5 200.18,-788.5 239.4,-788.5"/>
<polygon fill="black" stroke="black" points="239.35,-792 249.35,-788.5 239.35,-785 239.35,-792"/>
</g>
<!-- 824634674560&#45;&gt;824634674304 -->
<g id="edge6" class="edge">
<title>824634674560&#45;&gt;824634674304</title>
<path fill="none" stroke="black" d="M104.3,-780.15C137.67,-771.2 191.07,-756.9 229.93,-746.48"/>
<polygon fill="black" stroke="black" points="230.77,-749.88 239.52,-743.91 228.95,-743.12 230.77,-749.88"/>
</g>
</g>
</svg>
