<svg xmlns="http://www.w3.org/2000/svg" xmlns:xlink="http://www.w3.org/1999/xlink" contentStyleType="text/css" data-diagram-type="CLASS" height="425px" preserveAspectRatio="none" style="width:1969px;height:425px;background:#FFFFFF;" version="1.1" viewBox="0 0 1969 425" width="1969px" zoomAndPan="magnify"><defs/><g><!--class LinkConfigShort--><g class="entity" data-entity="LinkConfigShort" data-source-line="12" data-uid="ent0002" id="entity_LinkConfigShort"><rect fill="#F1F1F1" height="97.2038" rx="2.5" ry="2.5" style="stroke:#181818;stroke-width:0.5;" width="165.9714" x="7" y="54.67"/><ellipse cx="31.4463" cy="70.67" fill="#ADD1B2" rx="11" ry="11" style="stroke:#181818;stroke-width:1;"/><path d="M30.9151,77.5919 Q29.1651,77.5919 28.0245,76.8575 Q26.8995,76.1075 26.337,74.7638 Q25.7901,73.4044 25.7901,71.6075 Q25.7901,69.5763 26.4463,68.1231 Q27.1026,66.67 28.3838,65.8888 Q29.6651,65.1075 31.5401,65.1075 Q32.4307,65.1075 33.1026,65.295 Q33.7745,65.4669 34.462,65.8106 L33.6495,67.8263 Q33.0245,67.5138 32.4776,67.3888 Q31.9463,67.2638 31.462,67.2638 Q30.2901,67.2638 29.587,67.795 Q28.8838,68.3263 28.587,69.2794 Q28.2901,70.2325 28.2901,71.4981 Q28.2901,73.5138 29.0088,74.4825 Q29.7276,75.4356 31.3213,75.4356 Q31.9151,75.4356 32.5401,75.2794 Q33.1651,75.1231 33.9932,74.7481 L33.9932,76.9669 Q33.2588,77.2794 32.462,77.4356 Q31.6807,77.5919 30.9151,77.5919 Z " fill="#000000"/><text fill="#000000" font-family="sans-serif" font-size="14" font-weight="bold" lengthAdjust="spacing" textLength="112.9796" x="47.5455" y="76.102">LinkConfigShort</text><line style="stroke:#181818;stroke-width:0.5;" x1="8" x2="171.9714" y1="86.67" y2="86.67"/><text fill="#000000" font-family="sans-serif" font-size="14" lengthAdjust="spacing" textLength="80.0377" x="13" y="105.6359">StringType[]</text><text fill="#000000" font-family="sans-serif" font-size="14" font-weight="bold" lengthAdjust="spacing" textLength="70.2937" x="96.6777" y="105.6359">endpoints</text><text fill="#000000" font-family="sans-serif" font-size="14" lengthAdjust="spacing" textLength="30.7159" x="13" y="124.7039">MTU</text><text fill="#000000" font-family="sans-serif" font-size="14" font-weight="bold" lengthAdjust="spacing" textLength="28.8259" x="47.3559" y="124.7039">mtu</text><text fill="#000000" font-family="sans-serif" font-size="14" lengthAdjust="spacing" textLength="55.8178" x="13" y="143.7718">LinkVars</text><text fill="#000000" font-family="sans-serif" font-size="14" font-weight="bold" lengthAdjust="spacing" textLength="29.6659" x="72.4578" y="143.7718">vars</text></g><!--class LinkTypeVeth--><g class="entity" data-entity="LinkTypeVeth" data-source-line="19" data-uid="ent0003" id="entity_LinkTypeVeth"><rect fill="#F1F1F1" height="135.3396" rx="2.5" ry="2.5" style="stroke:#181818;stroke-width:0.5;" width="181.6653" x="742.15" y="35.6"/><ellipse cx="781.4328" cy="51.6" fill="#ADD1B2" rx="11" ry="11" style="stroke:#181818;stroke-width:1;"/><path d="M780.9015,58.5219 Q779.1515,58.5219 778.0109,57.7875 Q776.8859,57.0375 776.3234,55.6938 Q775.7765,54.3344 775.7765,52.5375 Q775.7765,50.5063 776.4328,49.0531 Q777.089,47.6 778.3703,46.8188 Q779.6515,46.0375 781.5265,46.0375 Q782.4171,46.0375 783.089,46.225 Q783.7609,46.3969 784.4484,46.7406 L783.6359,48.7563 Q783.0109,48.4438 782.464,48.3188 Q781.9328,48.1938 781.4484,48.1938 Q780.2765,48.1938 779.5734,48.725 Q778.8703,49.2563 778.5734,50.2094 Q778.2765,51.1625 778.2765,52.4281 Q778.2765,54.4438 778.9953,55.4125 Q779.714,56.3656 781.3078,56.3656 Q781.9015,56.3656 782.5265,56.2094 Q783.1515,56.0531 783.9796,55.6781 L783.9796,57.8969 Q783.2453,58.2094 782.4484,58.3656 Q781.6671,58.5219 780.9015,58.5219 Z " fill="#000000"/><text fill="#000000" font-family="sans-serif" font-size="14" font-weight="bold" lengthAdjust="spacing" textLength="95.7036" x="800.8289" y="57.032">LinkTypeVeth</text><line style="stroke:#181818;stroke-width:0.5;" x1="743.15" x2="922.8153" y1="67.6" y2="67.6"/><text fill="#000000" font-family="sans-serif" font-size="14" lengthAdjust="spacing" textLength="70.8257" x="748.15" y="86.5659">StringType</text><text fill="#000000" font-family="sans-serif" font-size="14" font-weight="bold" lengthAdjust="spacing" textLength="31.2759" x="822.6157" y="86.5659">type</text><text fill="#000000" font-family="sans-serif" font-size="14" lengthAdjust="spacing" textLength="95.7316" x="748.15" y="105.6339">LinkEndpoint[]</text><text fill="#000000" font-family="sans-serif" font-size="14" font-weight="bold" lengthAdjust="spacing" textLength="70.2937" x="847.5216" y="105.6339">endpoints</text><text fill="#000000" font-family="sans-serif" font-size="14" lengthAdjust="spacing" textLength="30.7159" x="748.15" y="124.7018">MTU</text><text fill="#000000" font-family="sans-serif" font-size="14" font-weight="bold" lengthAdjust="spacing" textLength="28.8259" x="782.5059" y="124.7018">mtu</text><text fill="#000000" font-family="sans-serif" font-size="14" lengthAdjust="spacing" textLength="55.8178" x="748.15" y="143.7697">LinkVars</text><text fill="#000000" font-family="sans-serif" font-size="14" font-weight="bold" lengthAdjust="spacing" textLength="29.6659" x="807.6078" y="143.7697">vars</text><text fill="#000000" font-family="sans-serif" font-size="14" lengthAdjust="spacing" textLength="42.0138" x="748.15" y="162.8376">Labels</text><text fill="#000000" font-family="sans-serif" font-size="14" font-weight="bold" lengthAdjust="spacing" textLength="40.9638" x="793.8038" y="162.8376">labels</text></g><!--class LinkEndpoint--><g class="entity" data-entity="LinkEndpoint" data-source-line="27" data-uid="ent0004" id="entity_LinkEndpoint"><rect fill="#F1F1F1" height="97.2038" rx="2.5" ry="2.5" style="stroke:#181818;stroke-width:0.5;" width="149.8295" x="1000.07" y="259.55"/><ellipse cx="1026.4504" cy="275.55" fill="#ADD1B2" rx="11" ry="11" style="stroke:#181818;stroke-width:1;"/><path d="M1025.9192,282.4719 Q1024.1692,282.4719 1023.0286,281.7375 Q1021.9036,280.9875 1021.3411,279.6438 Q1020.7942,278.2844 1020.7942,276.4875 Q1020.7942,274.4563 1021.4504,273.0031 Q1022.1067,271.55 1023.3879,270.7688 Q1024.6692,269.9875 1026.5442,269.9875 Q1027.4348,269.9875 1028.1067,270.175 Q1028.7786,270.3469 1029.4661,270.6906 L1028.6536,272.7063 Q1028.0286,272.3938 1027.4817,272.2688 Q1026.9504,272.1438 1026.4661,272.1438 Q1025.2942,272.1438 1024.5911,272.675 Q1023.8879,273.2063 1023.5911,274.1594 Q1023.2942,275.1125 1023.2942,276.3781 Q1023.2942,278.3938 1024.0129,279.3625 Q1024.7317,280.3156 1026.3254,280.3156 Q1026.9192,280.3156 1027.5442,280.1594 Q1028.1692,280.0031 1028.9973,279.6281 L1028.9973,281.8469 Q1028.2629,282.1594 1027.4661,282.3156 Q1026.6848,282.4719 1025.9192,282.4719 Z " fill="#000000"/><text fill="#000000" font-family="sans-serif" font-size="14" font-weight="bold" lengthAdjust="spacing" textLength="92.5396" x="1042.9794" y="280.982">LinkEndpoint</text><line style="stroke:#181818;stroke-width:0.5;" x1="1001.07" x2="1148.8995" y1="291.55" y2="291.55"/><text fill="#000000" font-family="sans-serif" font-size="14" lengthAdjust="spacing" textLength="70.8257" x="1006.07" y="310.5159">StringType</text><text fill="#000000" font-family="sans-serif" font-size="14" font-weight="bold" lengthAdjust="spacing" textLength="35.0559" x="1080.5357" y="310.5159">node</text><text fill="#000000" font-family="sans-serif" font-size="14" lengthAdjust="spacing" textLength="70.8257" x="1006.07" y="329.5839">StringType</text><text fill="#000000" font-family="sans-serif" font-size="14" font-weight="bold" lengthAdjust="spacing" textLength="63.3638" x="1080.5357" y="329.5839">interface</text><text fill="#000000" font-family="sans-serif" font-size="14" lengthAdjust="spacing" textLength="70.8257" x="1006.07" y="348.6518">StringType</text><text fill="#000000" font-family="sans-serif" font-size="14" font-weight="bold" lengthAdjust="spacing" textLength="29.2599" x="1080.5357" y="348.6518">mac</text></g><!--class Labels--><g class="entity" data-entity="Labels" data-source-line="33" data-uid="ent0005" id="entity_Labels"><rect fill="#F1F1F1" height="32" rx="2.5" ry="2.5" style="stroke:#181818;stroke-width:0.5;" width="76.6178" x="1885.68" y="87.27"/><ellipse cx="1900.68" cy="103.27" fill="#ADD1B2" rx="11" ry="11" style="stroke:#181818;stroke-width:1;"/><path d="M1900.1488,110.1919 Q1898.3988,110.1919 1897.2581,109.4575 Q1896.1331,108.7075 1895.5706,107.3637 Q1895.0238,106.0044 1895.0238,104.2075 Q1895.0238,102.1762 1895.68,100.7231 Q1896.3363,99.27 1897.6175,98.4887 Q1898.8988,97.7075 1900.7738,97.7075 Q1901.6644,97.7075 1902.3363,97.895 Q1903.0081,98.0669 1903.6956,98.4106 L1902.8831,100.4262 Q1902.2581,100.1137 1901.7113,99.9887 Q1901.18,99.8637 1900.6956,99.8637 Q1899.5238,99.8637 1898.8206,100.395 Q1898.1175,100.9262 1897.8206,101.8794 Q1897.5238,102.8325 1897.5238,104.0981 Q1897.5238,106.1137 1898.2425,107.0825 Q1898.9613,108.0356 1900.555,108.0356 Q1901.1488,108.0356 1901.7738,107.8794 Q1902.3988,107.7231 1903.2269,107.3481 L1903.2269,109.5669 Q1902.4925,109.8794 1901.6956,110.0356 Q1900.9144,110.1919 1900.1488,110.1919 Z " fill="#000000"/><text fill="#000000" font-family="sans-serif" font-size="14" font-weight="bold" lengthAdjust="spacing" textLength="44.6178" x="1914.68" y="108.702">Labels</text></g><!--class LinkTypeMgmtNet--><g class="entity" data-entity="LinkTypeMgmtNet" data-source-line="35" data-uid="ent0006" id="entity_LinkTypeMgmtNet"><rect fill="#F1F1F1" height="154.4075" rx="2.5" ry="2.5" style="stroke:#181818;stroke-width:0.5;" width="231.5332" x="475.22" y="26.07"/><ellipse cx="521.4058" cy="42.07" fill="#ADD1B2" rx="11" ry="11" style="stroke:#181818;stroke-width:1;"/><path d="M520.8746,48.9919 Q519.1246,48.9919 517.984,48.2575 Q516.859,47.5075 516.2965,46.1637 Q515.7496,44.8044 515.7496,43.0075 Q515.7496,40.9762 516.4058,39.5231 Q517.0621,38.07 518.3433,37.2887 Q519.6246,36.5075 521.4996,36.5075 Q522.3902,36.5075 523.0621,36.695 Q523.734,36.8669 524.4215,37.2106 L523.609,39.2262 Q522.984,38.9137 522.4371,38.7887 Q521.9058,38.6637 521.4215,38.6637 Q520.2496,38.6637 519.5465,39.195 Q518.8433,39.7262 518.5465,40.6794 Q518.2496,41.6325 518.2496,42.8981 Q518.2496,44.9137 518.9683,45.8825 Q519.6871,46.8356 521.2808,46.8356 Q521.8746,46.8356 522.4996,46.6794 Q523.1246,46.5231 523.9527,46.1481 L523.9527,48.3669 Q523.2183,48.6794 522.4215,48.8356 Q521.6402,48.9919 520.8746,48.9919 Z " fill="#000000"/><text fill="#000000" font-family="sans-serif" font-size="14" font-weight="bold" lengthAdjust="spacing" textLength="130.6615" x="541.9058" y="47.502">LinkTypeMgmtNet</text><line style="stroke:#181818;stroke-width:0.5;" x1="476.22" x2="705.7532" y1="58.07" y2="58.07"/><text fill="#000000" font-family="sans-serif" font-size="14" lengthAdjust="spacing" textLength="70.8257" x="481.22" y="77.0359">StringType</text><text fill="#000000" font-family="sans-serif" font-size="14" font-weight="bold" lengthAdjust="spacing" textLength="31.2759" x="555.6857" y="77.0359">type</text><text fill="#000000" font-family="sans-serif" font-size="14" lengthAdjust="spacing" textLength="86.5197" x="481.22" y="96.1039">LinkEndpoint</text><text fill="#000000" font-family="sans-serif" font-size="14" font-weight="bold" lengthAdjust="spacing" textLength="63.2657" x="571.3796" y="96.1039">endpoint</text><text fill="#000000" font-family="sans-serif" font-size="14" lengthAdjust="spacing" textLength="117.0956" x="481.22" y="115.1718">LinkHostInterface</text><text fill="#000000" font-family="sans-serif" font-size="14" font-weight="bold" lengthAdjust="spacing" textLength="98.7976" x="601.9555" y="115.1718">host-interface</text><text fill="#000000" font-family="sans-serif" font-size="14" lengthAdjust="spacing" textLength="30.7159" x="481.22" y="134.2397">MTU</text><text fill="#000000" font-family="sans-serif" font-size="14" font-weight="bold" lengthAdjust="spacing" textLength="28.8259" x="515.5759" y="134.2397">mtu</text><text fill="#000000" font-family="sans-serif" font-size="14" lengthAdjust="spacing" textLength="55.8178" x="481.22" y="153.3076">LinkVars</text><text fill="#000000" font-family="sans-serif" font-size="14" font-weight="bold" lengthAdjust="spacing" textLength="29.6659" x="540.6778" y="153.3076">vars</text><text fill="#000000" font-family="sans-serif" font-size="14" lengthAdjust="spacing" textLength="42.0138" x="481.22" y="172.3755">Labels</text><text fill="#000000" font-family="sans-serif" font-size="14" font-weight="bold" lengthAdjust="spacing" textLength="40.9638" x="526.8738" y="172.3755">labels</text></g><!--class LinkHostInterface--><g class="entity" data-entity="LinkHostInterface" data-source-line="44" data-uid="ent0007" id="entity_LinkHostInterface"><rect fill="#F1F1F1" height="32" rx="2.5" ry="2.5" style="stroke:#181818;stroke-width:0.5;" width="158.9795" x="378.5" y="292.15"/><ellipse cx="393.5" cy="308.15" fill="#ADD1B2" rx="11" ry="11" style="stroke:#181818;stroke-width:1;"/><path d="M392.9688,315.0719 Q391.2188,315.0719 390.0781,314.3375 Q388.9531,313.5875 388.3906,312.2438 Q387.8438,310.8844 387.8438,309.0875 Q387.8438,307.0563 388.5,305.6031 Q389.1563,304.15 390.4375,303.3688 Q391.7188,302.5875 393.5938,302.5875 Q394.4844,302.5875 395.1563,302.775 Q395.8281,302.9469 396.5156,303.2906 L395.7031,305.3063 Q395.0781,304.9938 394.5313,304.8688 Q394,304.7438 393.5156,304.7438 Q392.3438,304.7438 391.6406,305.275 Q390.9375,305.8063 390.6406,306.7594 Q390.3438,307.7125 390.3438,308.9781 Q390.3438,310.9938 391.0625,311.9625 Q391.7813,312.9156 393.375,312.9156 Q393.9688,312.9156 394.5938,312.7594 Q395.2188,312.6031 396.0469,312.2281 L396.0469,314.4469 Q395.3125,314.7594 394.5156,314.9156 Q393.7344,315.0719 392.9688,315.0719 Z " fill="#000000"/><text fill="#000000" font-family="sans-serif" font-size="14" font-weight="bold" lengthAdjust="spacing" textLength="126.9795" x="407.5" y="313.582">LinkHostInterface</text></g><!--class LinkTypeMacvlan--><g class="entity" data-entity="LinkTypeMacvlan" data-source-line="46" data-uid="ent0008" id="entity_LinkTypeMacvlan"><rect fill="#F1F1F1" height="154.4075" rx="2.5" ry="2.5" style="stroke:#181818;stroke-width:0.5;" width="231.5332" x="959.22" y="26.07"/><ellipse cx="1009.9698" cy="42.07" fill="#ADD1B2" rx="11" ry="11" style="stroke:#181818;stroke-width:1;"/><path d="M1009.4386,48.9919 Q1007.6886,48.9919 1006.5479,48.2575 Q1005.4229,47.5075 1004.8604,46.1637 Q1004.3136,44.8044 1004.3136,43.0075 Q1004.3136,40.9762 1004.9698,39.5231 Q1005.6261,38.07 1006.9073,37.2887 Q1008.1886,36.5075 1010.0636,36.5075 Q1010.9542,36.5075 1011.6261,36.695 Q1012.2979,36.8669 1012.9854,37.2106 L1012.1729,39.2262 Q1011.5479,38.9137 1011.0011,38.7887 Q1010.4698,38.6637 1009.9854,38.6637 Q1008.8136,38.6637 1008.1104,39.195 Q1007.4073,39.7262 1007.1104,40.6794 Q1006.8136,41.6325 1006.8136,42.8981 Q1006.8136,44.9137 1007.5323,45.8825 Q1008.2511,46.8356 1009.8448,46.8356 Q1010.4386,46.8356 1011.0636,46.6794 Q1011.6886,46.5231 1012.5167,46.1481 L1012.5167,48.3669 Q1011.7823,48.6794 1010.9854,48.8356 Q1010.2042,48.9919 1009.4386,48.9919 Z " fill="#000000"/><text fill="#000000" font-family="sans-serif" font-size="14" font-weight="bold" lengthAdjust="spacing" textLength="121.5335" x="1030.4698" y="47.502">LinkTypeMacvlan</text><line style="stroke:#181818;stroke-width:0.5;" x1="960.22" x2="1189.7532" y1="58.07" y2="58.07"/><text fill="#000000" font-family="sans-serif" font-size="14" lengthAdjust="spacing" textLength="70.8257" x="965.22" y="77.0359">StringType</text><text fill="#000000" font-family="sans-serif" font-size="14" font-weight="bold" lengthAdjust="spacing" textLength="31.2759" x="1039.6857" y="77.0359">type</text><text fill="#000000" font-family="sans-serif" font-size="14" lengthAdjust="spacing" textLength="86.5197" x="965.22" y="96.1039">LinkEndpoint</text><text fill="#000000" font-family="sans-serif" font-size="14" font-weight="bold" lengthAdjust="spacing" textLength="63.2657" x="1055.3796" y="96.1039">endpoint</text><text fill="#000000" font-family="sans-serif" font-size="14" lengthAdjust="spacing" textLength="117.0956" x="965.22" y="115.1718">LinkHostInterface</text><text fill="#000000" font-family="sans-serif" font-size="14" font-weight="bold" lengthAdjust="spacing" textLength="98.7976" x="1085.9555" y="115.1718">host-interface</text><text fill="#000000" font-family="sans-serif" font-size="14" lengthAdjust="spacing" textLength="30.7159" x="965.22" y="134.2397">MTU</text><text fill="#000000" font-family="sans-serif" font-size="14" font-weight="bold" lengthAdjust="spacing" textLength="28.8259" x="999.5759" y="134.2397">mtu</text><text fill="#000000" font-family="sans-serif" font-size="14" lengthAdjust="spacing" textLength="55.8178" x="965.22" y="153.3076">LinkVars</text><text fill="#000000" font-family="sans-serif" font-size="14" font-weight="bold" lengthAdjust="spacing" textLength="29.6659" x="1024.6778" y="153.3076">vars</text><text fill="#000000" font-family="sans-serif" font-size="14" lengthAdjust="spacing" textLength="42.0138" x="965.22" y="172.3755">Labels</text><text fill="#000000" font-family="sans-serif" font-size="14" font-weight="bold" lengthAdjust="spacing" textLength="40.9638" x="1010.8738" y="172.3755">labels</text></g><!--class LinkTypeHost--><g class="entity" data-entity="LinkTypeHost" data-source-line="55" data-uid="ent0009" id="entity_LinkTypeHost"><rect fill="#F1F1F1" height="154.4075" rx="2.5" ry="2.5" style="stroke:#181818;stroke-width:0.5;" width="231.5332" x="208.22" y="26.07"/><ellipse cx="271.9198" cy="42.07" fill="#ADD1B2" rx="11" ry="11" style="stroke:#181818;stroke-width:1;"/><path d="M271.3885,48.9919 Q269.6385,48.9919 268.4979,48.2575 Q267.3729,47.5075 266.8104,46.1637 Q266.2635,44.8044 266.2635,43.0075 Q266.2635,40.9762 266.9198,39.5231 Q267.576,38.07 268.8573,37.2887 Q270.1385,36.5075 272.0135,36.5075 Q272.9041,36.5075 273.576,36.695 Q274.2479,36.8669 274.9354,37.2106 L274.1229,39.2262 Q273.4979,38.9137 272.951,38.7887 Q272.4198,38.6637 271.9354,38.6637 Q270.7635,38.6637 270.0604,39.195 Q269.3573,39.7262 269.0604,40.6794 Q268.7635,41.6325 268.7635,42.8981 Q268.7635,44.9137 269.4823,45.8825 Q270.201,46.8356 271.7948,46.8356 Q272.3885,46.8356 273.0135,46.6794 Q273.6385,46.5231 274.4666,46.1481 L274.4666,48.3669 Q273.7323,48.6794 272.9354,48.8356 Q272.1541,48.9919 271.3885,48.9919 Z " fill="#000000"/><text fill="#000000" font-family="sans-serif" font-size="14" font-weight="bold" lengthAdjust="spacing" textLength="95.6336" x="292.4198" y="47.502">LinkTypeHost</text><line style="stroke:#181818;stroke-width:0.5;" x1="209.22" x2="438.7532" y1="58.07" y2="58.07"/><text fill="#000000" font-family="sans-serif" font-size="14" lengthAdjust="spacing" textLength="70.8257" x="214.22" y="77.0359">StringType</text><text fill="#000000" font-family="sans-serif" font-size="14" font-weight="bold" lengthAdjust="spacing" textLength="31.2759" x="288.6857" y="77.0359">type</text><text fill="#000000" font-family="sans-serif" font-size="14" lengthAdjust="spacing" textLength="86.5197" x="214.22" y="96.1039">LinkEndpoint</text><text fill="#000000" font-family="sans-serif" font-size="14" font-weight="bold" lengthAdjust="spacing" textLength="63.2657" x="304.3796" y="96.1039">endpoint</text><text fill="#000000" font-family="sans-serif" font-size="14" lengthAdjust="spacing" textLength="117.0956" x="214.22" y="115.1718">LinkHostInterface</text><text fill="#000000" font-family="sans-serif" font-size="14" font-weight="bold" lengthAdjust="spacing" textLength="98.7976" x="334.9555" y="115.1718">host-interface</text><text fill="#000000" font-family="sans-serif" font-size="14" lengthAdjust="spacing" textLength="30.7159" x="214.22" y="134.2397">MTU</text><text fill="#000000" font-family="sans-serif" font-size="14" font-weight="bold" lengthAdjust="spacing" textLength="28.8259" x="248.5759" y="134.2397">mtu</text><text fill="#000000" font-family="sans-serif" font-size="14" lengthAdjust="spacing" textLength="55.8178" x="214.22" y="153.3076">LinkVars</text><text fill="#000000" font-family="sans-serif" font-size="14" font-weight="bold" lengthAdjust="spacing" textLength="29.6659" x="273.6778" y="153.3076">vars</text><text fill="#000000" font-family="sans-serif" font-size="14" lengthAdjust="spacing" textLength="42.0138" x="214.22" y="172.3755">Labels</text><text fill="#000000" font-family="sans-serif" font-size="14" font-weight="bold" lengthAdjust="spacing" textLength="40.9638" x="259.8738" y="172.3755">labels</text></g><!--class LinkTypeVxlan--><g class="entity" data-entity="LinkTypeVxlan" data-source-line="64" data-uid="ent0010" id="entity_LinkTypeVxlan"><rect fill="#F1F1F1" height="192.5433" rx="2.5" ry="2.5" style="stroke:#181818;stroke-width:0.5;" width="195.0773" x="1655.45" y="7"/><ellipse cx="1697.971" cy="23" fill="#ADD1B2" rx="11" ry="11" style="stroke:#181818;stroke-width:1;"/><path d="M1697.4397,29.9219 Q1695.6897,29.9219 1694.5491,29.1875 Q1693.4241,28.4375 1692.8616,27.0938 Q1692.3147,25.7344 1692.3147,23.9375 Q1692.3147,21.9063 1692.971,20.4531 Q1693.6272,19 1694.9085,18.2188 Q1696.1897,17.4375 1698.0647,17.4375 Q1698.9553,17.4375 1699.6272,17.625 Q1700.2991,17.7969 1700.9866,18.1406 L1700.1741,20.1563 Q1699.5491,19.8438 1699.0022,19.7188 Q1698.471,19.5938 1697.9866,19.5938 Q1696.8147,19.5938 1696.1116,20.125 Q1695.4085,20.6563 1695.1116,21.6094 Q1694.8147,22.5625 1694.8147,23.8281 Q1694.8147,25.8438 1695.5335,26.8125 Q1696.2522,27.7656 1697.846,27.7656 Q1698.4397,27.7656 1699.0647,27.6094 Q1699.6897,27.4531 1700.5178,27.0781 L1700.5178,29.2969 Q1699.7835,29.6094 1698.9866,29.7656 Q1698.2053,29.9219 1697.4397,29.9219 Z " fill="#000000"/><text fill="#000000" font-family="sans-serif" font-size="14" font-weight="bold" lengthAdjust="spacing" textLength="101.9196" x="1718.0867" y="28.432">LinkTypeVxlan</text><line style="stroke:#181818;stroke-width:0.5;" x1="1656.45" x2="1849.5273" y1="39" y2="39"/><text fill="#000000" font-family="sans-serif" font-size="14" lengthAdjust="spacing" textLength="70.8257" x="1661.45" y="57.9659">StringType</text><text fill="#000000" font-family="sans-serif" font-size="14" font-weight="bold" lengthAdjust="spacing" textLength="31.2759" x="1735.9157" y="57.9659">type</text><text fill="#000000" font-family="sans-serif" font-size="14" lengthAdjust="spacing" textLength="86.5197" x="1661.45" y="77.0339">LinkEndpoint</text><text fill="#000000" font-family="sans-serif" font-size="14" font-weight="bold" lengthAdjust="spacing" textLength="63.2657" x="1751.6096" y="77.0339">endpoint</text><text fill="#000000" font-family="sans-serif" font-size="14" lengthAdjust="spacing" textLength="114.1135" x="1661.45" y="96.1018">LinkVxlanRemote</text><text fill="#000000" font-family="sans-serif" font-size="14" font-weight="bold" lengthAdjust="spacing" textLength="51.4498" x="1779.2035" y="96.1018">remote</text><text fill="#000000" font-family="sans-serif" font-size="14" lengthAdjust="spacing" textLength="83.6637" x="1661.45" y="115.1697">LinkVxlanVni</text><text fill="#000000" font-family="sans-serif" font-size="14" font-weight="bold" lengthAdjust="spacing" textLength="21.2799" x="1748.7536" y="115.1697">vni</text><text fill="#000000" font-family="sans-serif" font-size="14" lengthAdjust="spacing" textLength="118.2296" x="1661.45" y="134.2376">LinkVxlanUdpPort</text><text fill="#000000" font-family="sans-serif" font-size="14" font-weight="bold" lengthAdjust="spacing" textLength="61.2077" x="1783.3195" y="134.2376">udp-port</text><text fill="#000000" font-family="sans-serif" font-size="14" lengthAdjust="spacing" textLength="30.7159" x="1661.45" y="153.3055">MTU</text><text fill="#000000" font-family="sans-serif" font-size="14" font-weight="bold" lengthAdjust="spacing" textLength="28.8259" x="1695.8059" y="153.3055">mtu</text><text fill="#000000" font-family="sans-serif" font-size="14" lengthAdjust="spacing" textLength="55.8178" x="1661.45" y="172.3734">LinkVars</text><text fill="#000000" font-family="sans-serif" font-size="14" font-weight="bold" lengthAdjust="spacing" textLength="29.6659" x="1720.9078" y="172.3734">vars</text><text fill="#000000" font-family="sans-serif" font-size="14" lengthAdjust="spacing" textLength="42.0138" x="1661.45" y="191.4414">Labels</text><text fill="#000000" font-family="sans-serif" font-size="14" font-weight="bold" lengthAdjust="spacing" textLength="40.9638" x="1707.1038" y="191.4414">labels</text></g><!--class LinkVxlanRemote--><g class="entity" data-entity="LinkVxlanRemote" data-source-line="75" data-uid="ent0011" id="entity_LinkVxlanRemote"><rect fill="#F1F1F1" height="32" rx="2.5" ry="2.5" style="stroke:#181818;stroke-width:0.5;" width="155.0175" x="1298.48" y="292.15"/><ellipse cx="1313.48" cy="308.15" fill="#ADD1B2" rx="11" ry="11" style="stroke:#181818;stroke-width:1;"/><path d="M1312.9488,315.0719 Q1311.1988,315.0719 1310.0581,314.3375 Q1308.9331,313.5875 1308.3706,312.2438 Q1307.8238,310.8844 1307.8238,309.0875 Q1307.8238,307.0563 1308.48,305.6031 Q1309.1363,304.15 1310.4175,303.3688 Q1311.6988,302.5875 1313.5738,302.5875 Q1314.4644,302.5875 1315.1363,302.775 Q1315.8081,302.9469 1316.4956,303.2906 L1315.6831,305.3063 Q1315.0581,304.9938 1314.5113,304.8688 Q1313.98,304.7438 1313.4956,304.7438 Q1312.3238,304.7438 1311.6206,305.275 Q1310.9175,305.8063 1310.6206,306.7594 Q1310.3238,307.7125 1310.3238,308.9781 Q1310.3238,310.9938 1311.0425,311.9625 Q1311.7613,312.9156 1313.355,312.9156 Q1313.9488,312.9156 1314.5738,312.7594 Q1315.1988,312.6031 1316.0269,312.2281 L1316.0269,314.4469 Q1315.2925,314.7594 1314.4956,314.9156 Q1313.7144,315.0719 1312.9488,315.0719 Z " fill="#000000"/><text fill="#000000" font-family="sans-serif" font-size="14" font-weight="bold" lengthAdjust="spacing" textLength="123.0175" x="1327.48" y="313.582">LinkVxlanRemote</text></g><!--class LinkVxlanVni--><g class="entity" data-entity="LinkVxlanVni" data-source-line="77" data-uid="ent0012" id="entity_LinkVxlanVni"><rect fill="#F1F1F1" height="32" rx="2.5" ry="2.5" style="stroke:#181818;stroke-width:0.5;" width="123.0276" x="1488.47" y="292.15"/><ellipse cx="1503.47" cy="308.15" fill="#ADD1B2" rx="11" ry="11" style="stroke:#181818;stroke-width:1;"/><path d="M1502.9388,315.0719 Q1501.1888,315.0719 1500.0481,314.3375 Q1498.9231,313.5875 1498.3606,312.2438 Q1497.8138,310.8844 1497.8138,309.0875 Q1497.8138,307.0563 1498.47,305.6031 Q1499.1263,304.15 1500.4075,303.3688 Q1501.6888,302.5875 1503.5638,302.5875 Q1504.4544,302.5875 1505.1263,302.775 Q1505.7981,302.9469 1506.4856,303.2906 L1505.6731,305.3063 Q1505.0481,304.9938 1504.5013,304.8688 Q1503.97,304.7438 1503.4856,304.7438 Q1502.3138,304.7438 1501.6106,305.275 Q1500.9075,305.8063 1500.6106,306.7594 Q1500.3138,307.7125 1500.3138,308.9781 Q1500.3138,310.9938 1501.0325,311.9625 Q1501.7513,312.9156 1503.345,312.9156 Q1503.9388,312.9156 1504.5638,312.7594 Q1505.1888,312.6031 1506.0169,312.2281 L1506.0169,314.4469 Q1505.2825,314.7594 1504.4856,314.9156 Q1503.7044,315.0719 1502.9388,315.0719 Z " fill="#000000"/><text fill="#000000" font-family="sans-serif" font-size="14" font-weight="bold" lengthAdjust="spacing" textLength="91.0276" x="1517.47" y="313.582">LinkVxlanVni</text></g><!--class LinkVxlanUdpPort--><g class="entity" data-entity="LinkVxlanUdpPort" data-source-line="79" data-uid="ent0013" id="entity_LinkVxlanUdpPort"><rect fill="#F1F1F1" height="32" rx="2.5" ry="2.5" style="stroke:#181818;stroke-width:0.5;" width="158.6995" x="1646.64" y="292.15"/><ellipse cx="1661.64" cy="308.15" fill="#ADD1B2" rx="11" ry="11" style="stroke:#181818;stroke-width:1;"/><path d="M1661.1088,315.0719 Q1659.3588,315.0719 1658.2181,314.3375 Q1657.0931,313.5875 1656.5306,312.2438 Q1655.9838,310.8844 1655.9838,309.0875 Q1655.9838,307.0563 1656.64,305.6031 Q1657.2963,304.15 1658.5775,303.3688 Q1659.8588,302.5875 1661.7338,302.5875 Q1662.6244,302.5875 1663.2963,302.775 Q1663.9681,302.9469 1664.6556,303.2906 L1663.8431,305.3063 Q1663.2181,304.9938 1662.6713,304.8688 Q1662.14,304.7438 1661.6556,304.7438 Q1660.4838,304.7438 1659.7806,305.275 Q1659.0775,305.8063 1658.7806,306.7594 Q1658.4838,307.7125 1658.4838,308.9781 Q1658.4838,310.9938 1659.2025,311.9625 Q1659.9213,312.9156 1661.515,312.9156 Q1662.1088,312.9156 1662.7338,312.7594 Q1663.3588,312.6031 1664.1869,312.2281 L1664.1869,314.4469 Q1663.4525,314.7594 1662.6556,314.9156 Q1661.8744,315.0719 1661.1088,315.0719 Z " fill="#000000"/><text fill="#000000" font-family="sans-serif" font-size="14" font-weight="bold" lengthAdjust="spacing" textLength="126.6995" x="1675.64" y="313.582">LinkVxlanUdpPort</text></g><!--class LinkTypeVxlanStitched--><g class="entity" data-entity="LinkTypeVxlanStitched" data-source-line="81" data-uid="ent0014" id="entity_LinkTypeVxlanStitched"><rect fill="#F1F1F1" height="192.5433" rx="2.5" ry="2.5" style="stroke:#181818;stroke-width:0.5;" width="195.0773" x="1425.45" y="7"/><ellipse cx="1442.0592" cy="23" fill="#ADD1B2" rx="11" ry="11" style="stroke:#181818;stroke-width:1;"/><path d="M1441.5279,29.9219 Q1439.7779,29.9219 1438.6373,29.1875 Q1437.5123,28.4375 1436.9498,27.0938 Q1436.4029,25.7344 1436.4029,23.9375 Q1436.4029,21.9063 1437.0592,20.4531 Q1437.7154,19 1438.9967,18.2188 Q1440.2779,17.4375 1442.1529,17.4375 Q1443.0435,17.4375 1443.7154,17.625 Q1444.3873,17.7969 1445.0748,18.1406 L1444.2623,20.1563 Q1443.6373,19.8438 1443.0904,19.7188 Q1442.5592,19.5938 1442.0748,19.5938 Q1440.9029,19.5938 1440.1998,20.125 Q1439.4967,20.6563 1439.1998,21.6094 Q1438.9029,22.5625 1438.9029,23.8281 Q1438.9029,25.8438 1439.6217,26.8125 Q1440.3404,27.7656 1441.9342,27.7656 Q1442.5279,27.7656 1443.1529,27.6094 Q1443.7779,27.4531 1444.606,27.0781 L1444.606,29.2969 Q1443.8717,29.6094 1443.0748,29.7656 Q1442.2935,29.9219 1441.5279,29.9219 Z " fill="#000000"/><text fill="#000000" font-family="sans-serif" font-size="14" font-weight="bold" lengthAdjust="spacing" textLength="159.5014" x="1456.4168" y="28.432">LinkTypeVxlanStitched</text><line style="stroke:#181818;stroke-width:0.5;" x1="1426.45" x2="1619.5273" y1="39" y2="39"/><text fill="#000000" font-family="sans-serif" font-size="14" lengthAdjust="spacing" textLength="70.8257" x="1431.45" y="57.9659">StringType</text><text fill="#000000" font-family="sans-serif" font-size="14" font-weight="bold" lengthAdjust="spacing" textLength="31.2759" x="1505.9157" y="57.9659">type</text><text fill="#000000" font-family="sans-serif" font-size="14" lengthAdjust="spacing" textLength="86.5197" x="1431.45" y="77.0339">LinkEndpoint</text><text fill="#000000" font-family="sans-serif" font-size="14" font-weight="bold" lengthAdjust="spacing" textLength="63.2657" x="1521.6096" y="77.0339">endpoint</text><text fill="#000000" font-family="sans-serif" font-size="14" lengthAdjust="spacing" textLength="114.1135" x="1431.45" y="96.1018">LinkVxlanRemote</text><text fill="#000000" font-family="sans-serif" font-size="14" font-weight="bold" lengthAdjust="spacing" textLength="51.4498" x="1549.2035" y="96.1018">remote</text><text fill="#000000" font-family="sans-serif" font-size="14" lengthAdjust="spacing" textLength="83.6637" x="1431.45" y="115.1697">LinkVxlanVni</text><text fill="#000000" font-family="sans-serif" font-size="14" font-weight="bold" lengthAdjust="spacing" textLength="21.2799" x="1518.7536" y="115.1697">vni</text><text fill="#000000" font-family="sans-serif" font-size="14" lengthAdjust="spacing" textLength="118.2296" x="1431.45" y="134.2376">LinkVxlanUdpPort</text><text fill="#000000" font-family="sans-serif" font-size="14" font-weight="bold" lengthAdjust="spacing" textLength="61.2077" x="1553.3195" y="134.2376">udp-port</text><text fill="#000000" font-family="sans-serif" font-size="14" lengthAdjust="spacing" textLength="30.7159" x="1431.45" y="153.3055">MTU</text><text fill="#000000" font-family="sans-serif" font-size="14" font-weight="bold" lengthAdjust="spacing" textLength="28.8259" x="1465.8059" y="153.3055">mtu</text><text fill="#000000" font-family="sans-serif" font-size="14" lengthAdjust="spacing" textLength="55.8178" x="1431.45" y="172.3734">LinkVars</text><text fill="#000000" font-family="sans-serif" font-size="14" font-weight="bold" lengthAdjust="spacing" textLength="29.6659" x="1490.9078" y="172.3734">vars</text><text fill="#000000" font-family="sans-serif" font-size="14" lengthAdjust="spacing" textLength="42.0138" x="1431.45" y="191.4414">Labels</text><text fill="#000000" font-family="sans-serif" font-size="14" font-weight="bold" lengthAdjust="spacing" textLength="40.9638" x="1477.1038" y="191.4414">labels</text></g><!--class LinkTypeDummy--><g class="entity" data-entity="LinkTypeDummy" data-source-line="92" data-uid="ent0015" id="entity_LinkTypeDummy"><rect fill="#F1F1F1" height="135.3396" rx="2.5" ry="2.5" style="stroke:#181818;stroke-width:0.5;" width="165.4254" x="1225.27" y="35.6"/><ellipse cx="1247.3412" cy="51.6" fill="#ADD1B2" rx="11" ry="11" style="stroke:#181818;stroke-width:1;"/><path d="M1246.81,58.5219 Q1245.06,58.5219 1243.9194,57.7875 Q1242.7944,57.0375 1242.2319,55.6938 Q1241.685,54.3344 1241.685,52.5375 Q1241.685,50.5063 1242.3412,49.0531 Q1242.9975,47.6 1244.2787,46.8188 Q1245.56,46.0375 1247.435,46.0375 Q1248.3256,46.0375 1248.9975,46.225 Q1249.6694,46.3969 1250.3569,46.7406 L1249.5444,48.7563 Q1248.9194,48.4438 1248.3725,48.3188 Q1247.8412,48.1938 1247.3569,48.1938 Q1246.185,48.1938 1245.4819,48.725 Q1244.7787,49.2563 1244.4819,50.2094 Q1244.185,51.1625 1244.185,52.4281 Q1244.185,54.4438 1244.9037,55.4125 Q1245.6225,56.3656 1247.2162,56.3656 Q1247.81,56.3656 1248.435,56.2094 Q1249.06,56.0531 1249.8881,55.6781 L1249.8881,57.8969 Q1249.1537,58.2094 1248.3569,58.3656 Q1247.5756,58.5219 1246.81,58.5219 Z " fill="#000000"/><text fill="#000000" font-family="sans-serif" font-size="14" font-weight="bold" lengthAdjust="spacing" textLength="117.7115" x="1262.9126" y="57.032">LinkTypeDummy</text><line style="stroke:#181818;stroke-width:0.5;" x1="1226.27" x2="1389.6954" y1="67.6" y2="67.6"/><text fill="#000000" font-family="sans-serif" font-size="14" lengthAdjust="spacing" textLength="70.8257" x="1231.27" y="86.5659">StringType</text><text fill="#000000" font-family="sans-serif" font-size="14" font-weight="bold" lengthAdjust="spacing" textLength="31.2759" x="1305.7357" y="86.5659">type</text><text fill="#000000" font-family="sans-serif" font-size="14" lengthAdjust="spacing" textLength="86.5197" x="1231.27" y="105.6339">LinkEndpoint</text><text fill="#000000" font-family="sans-serif" font-size="14" font-weight="bold" lengthAdjust="spacing" textLength="63.2657" x="1321.4296" y="105.6339">endpoint</text><text fill="#000000" font-family="sans-serif" font-size="14" lengthAdjust="spacing" textLength="30.7159" x="1231.27" y="124.7018">MTU</text><text fill="#000000" font-family="sans-serif" font-size="14" font-weight="bold" lengthAdjust="spacing" textLength="28.8259" x="1265.6259" y="124.7018">mtu</text><text fill="#000000" font-family="sans-serif" font-size="14" lengthAdjust="spacing" textLength="55.8178" x="1231.27" y="143.7697">LinkVars</text><text fill="#000000" font-family="sans-serif" font-size="14" font-weight="bold" lengthAdjust="spacing" textLength="29.6659" x="1290.7278" y="143.7697">vars</text><text fill="#000000" font-family="sans-serif" font-size="14" lengthAdjust="spacing" textLength="42.0138" x="1231.27" y="162.8376">Labels</text><text fill="#000000" font-family="sans-serif" font-size="14" font-weight="bold" lengthAdjust="spacing" textLength="40.9638" x="1276.9238" y="162.8376">labels</text></g><!--class MTU--><g class="entity" data-entity="MTU" data-source-line="129" data-uid="ent0026" id="entity_MTU"><rect fill="#F1F1F1" height="32" rx="2.5" ry="2.5" style="stroke:#181818;stroke-width:0.5;" width="62.7159" x="1840.63" y="292.15"/><ellipse cx="1855.63" cy="308.15" fill="#ADD1B2" rx="11" ry="11" style="stroke:#181818;stroke-width:1;"/><path d="M1855.0988,315.0719 Q1853.3488,315.0719 1852.2081,314.3375 Q1851.0831,313.5875 1850.5206,312.2438 Q1849.9738,310.8844 1849.9738,309.0875 Q1849.9738,307.0563 1850.63,305.6031 Q1851.2863,304.15 1852.5675,303.3688 Q1853.8488,302.5875 1855.7238,302.5875 Q1856.6144,302.5875 1857.2863,302.775 Q1857.9581,302.9469 1858.6456,303.2906 L1857.8331,305.3063 Q1857.2081,304.9938 1856.6613,304.8688 Q1856.13,304.7438 1855.6456,304.7438 Q1854.4738,304.7438 1853.7706,305.275 Q1853.0675,305.8063 1852.7706,306.7594 Q1852.4738,307.7125 1852.4738,308.9781 Q1852.4738,310.9938 1853.1925,311.9625 Q1853.9113,312.9156 1855.505,312.9156 Q1856.0988,312.9156 1856.7238,312.7594 Q1857.3488,312.6031 1858.1769,312.2281 L1858.1769,314.4469 Q1857.4425,314.7594 1856.6456,314.9156 Q1855.8644,315.0719 1855.0988,315.0719 Z " fill="#000000"/><text fill="#000000" font-family="sans-serif" font-size="14" lengthAdjust="spacing" textLength="30.7159" x="1869.63" y="313.582">MTU</text></g><!--reverse link LinkTypeVeth to LinkEndpoint--><g class="link" data-entity-1="LinkTypeVeth" data-entity-2="LinkEndpoint" data-source-line="103" data-uid="lnk16" id="link_LinkTypeVeth_LinkEndpoint"><path codeLine="103" d="M917.9756,179.1307 C929.0156,188.6807 931.21,190.49 941.99,199.55 C965.51,219.33 991.75,240.71 1014.67,259.15" fill="none" id="LinkTypeVeth-backto-LinkEndpoint" style="stroke:#181818;stroke-width:1;"/><polygon fill="#181818" points="908.9,171.28,910.8209,178.2306,917.9756,179.1307,916.0547,172.1802,908.9,171.28" style="stroke:#181818;stroke-width:1;"/><text fill="#000000" font-family="sans-serif" font-size="13" lengthAdjust="spacing" textLength="7.436" x="909.05" y="192.7432">0</text><text fill="#000000" font-family="sans-serif" font-size="13" lengthAdjust="spacing" textLength="8.034" x="997.2263" y="247.6533">n</text></g><!--reverse link LinkTypeMgmtNet to LinkEndpoint--><g class="link" data-entity-1="LinkTypeMgmtNet" data-entity-2="LinkEndpoint" data-source-line="108" data-uid="lnk17" id="link_LinkTypeMgmtNet_LinkEndpoint"><path codeLine="108" d="M701.8668,187.2065 C712.8268,194.0065 713.85,194.05 724.99,199.55 C814.93,243.9 926.92,274.45 999.64,291.37" fill="none" id="LinkTypeMgmtNet-backto-LinkEndpoint" style="stroke:#181818;stroke-width:1;"/><polygon fill="#181818" points="691.67,180.88,694.6596,187.4422,701.8668,187.2065,698.8772,180.6443,691.67,180.88" style="stroke:#181818;stroke-width:1;"/></g><!--reverse link LinkTypeMgmtNet to LinkHostInterface--><g class="link" data-entity-1="LinkTypeMgmtNet" data-entity-2="LinkHostInterface" data-source-line="109" data-uid="lnk18" id="link_LinkTypeMgmtNet_LinkHostInterface"><path codeLine="109" d="M534.1226,191.0068 C507.3526,231.8568 483.42,268.36 468.01,291.85" fill="none" id="LinkTypeMgmtNet-backto-LinkHostInterface" style="stroke:#181818;stroke-width:1;"/><polygon fill="#181818" points="540.7,180.97,534.0657,183.796,534.1226,191.0068,540.7569,188.1809,540.7,180.97" style="stroke:#181818;stroke-width:1;"/></g><!--reverse link LinkTypeMacvlan to LinkEndpoint--><g class="link" data-entity-1="LinkTypeMacvlan" data-entity-2="LinkEndpoint" data-source-line="114" data-uid="lnk19" id="link_LinkTypeMacvlan_LinkEndpoint"><path codeLine="114" d="M1074.99,192.97 C1074.99,219.23 1074.99,235.84 1074.99,259.17" fill="none" id="LinkTypeMacvlan-backto-LinkEndpoint" style="stroke:#181818;stroke-width:1;"/><polygon fill="#181818" points="1074.99,180.97,1070.99,186.97,1074.99,192.97,1078.99,186.97,1074.99,180.97" style="stroke:#181818;stroke-width:1;"/></g><!--reverse link LinkTypeHost to LinkEndpoint--><g class="link" data-entity-1="LinkTypeHost" data-entity-2="LinkEndpoint" data-source-line="119" data-uid="lnk20" id="link_LinkTypeHost_LinkEndpoint"><path codeLine="119" d="M431.6322,186.9301 C443.5422,194.0701 445.6,194.38 457.99,199.55 C642.62,276.6 880.59,298.48 999.84,304.69" fill="none" id="LinkTypeHost-backto-LinkEndpoint" style="stroke:#181818;stroke-width:1;"/><polygon fill="#181818" points="421.34,180.76,424.4294,187.2758,431.6322,186.9301,428.5428,180.4143,421.34,180.76" style="stroke:#181818;stroke-width:1;"/></g><!--reverse link LinkTypeHost to LinkHostInterface--><g class="link" data-entity-1="LinkTypeHost" data-entity-2="LinkHostInterface" data-source-line="120" data-uid="lnk21" id="link_LinkTypeHost_LinkHostInterface"><path codeLine="120" d="M381.2616,190.9843 C408.2316,231.8343 432.36,268.36 447.88,291.85" fill="none" id="LinkTypeHost-backto-LinkHostInterface" style="stroke:#181818;stroke-width:1;"/><polygon fill="#181818" points="374.65,180.97,374.6177,188.181,381.2616,190.9843,381.2939,183.7733,374.65,180.97" style="stroke:#181818;stroke-width:1;"/></g><!--reverse link LinkTypeVxlan to LinkEndpoint--><g class="link" data-entity-1="LinkTypeVxlan" data-entity-2="LinkEndpoint" data-source-line="125" data-uid="lnk22" id="link_LinkTypeVxlan_LinkEndpoint"><path codeLine="125" d="M1644.746,196.6587 C1639.126,199.9387 1643.76,196.9 1637.99,199.55 C1491.69,266.5 1438.77,228.09 1280.99,259.55 C1237.43,268.23 1189.03,279.34 1150.09,288.64" fill="none" id="LinkTypeVxlan-backto-LinkEndpoint" style="stroke:#181818;stroke-width:1;"/><polygon fill="#181818" points="1655.11,190.61,1647.9117,190.1797,1644.746,196.6587,1651.9442,197.089,1655.11,190.61" style="stroke:#181818;stroke-width:1;"/></g><!--reverse link LinkTypeVxlan to LinkVxlanRemote--><g class="link" data-entity-1="LinkTypeVxlan" data-entity-2="LinkVxlanRemote" data-source-line="126" data-uid="lnk23" id="link_LinkTypeVxlan_LinkVxlanRemote"><path codeLine="126" d="M1645.1519,195.5661 C1639.4719,199.3361 1643.73,196.27 1637.99,199.55 C1569.48,238.62 1543.48,228.49 1470.99,259.55 C1448.26,269.28 1423.3,281.87 1404.67,291.65" fill="none" id="LinkTypeVxlan-backto-LinkVxlanRemote" style="stroke:#181818;stroke-width:1;"/><polygon fill="#181818" points="1655.15,188.93,1647.9389,188.9153,1645.1519,195.5661,1652.363,195.5807,1655.15,188.93" style="stroke:#181818;stroke-width:1;"/></g><!--reverse link LinkTypeVxlan to LinkVxlanVni--><g class="link" data-entity-1="LinkTypeVxlan" data-entity-2="LinkVxlanVni" data-source-line="127" data-uid="lnk24" id="link_LinkTypeVxlan_LinkVxlanVni"><path codeLine="127" d="M1648.9423,208.2529 C1613.3623,243.8129 1585.29,271.87 1565.32,291.82" fill="none" id="LinkTypeVxlan-backto-LinkVxlanVni" style="stroke:#181818;stroke-width:1;"/><polygon fill="#181818" points="1657.43,199.77,1650.3585,201.1822,1648.9423,208.2529,1656.0138,206.8407,1657.43,199.77" style="stroke:#181818;stroke-width:1;"/></g><!--reverse link LinkTypeVxlan to LinkVxlanUdpPort--><g class="link" data-entity-1="LinkTypeVxlan" data-entity-2="LinkVxlanUdpPort" data-source-line="128" data-uid="lnk25" id="link_LinkTypeVxlan_LinkVxlanUdpPort"><path codeLine="128" d="M1738.6945,211.6648 C1733.9545,247.2248 1730.68,271.87 1728.03,291.82" fill="none" id="LinkTypeVxlan-backto-LinkVxlanUdpPort" style="stroke:#181818;stroke-width:1;"/><polygon fill="#181818" points="1740.28,199.77,1735.5223,205.1889,1738.6945,211.6648,1743.4522,206.2459,1740.28,199.77" style="stroke:#181818;stroke-width:1;"/></g><!--reverse link LinkTypeVxlan to MTU--><g class="link" data-entity-1="LinkTypeVxlan" data-entity-2="MTU" data-source-line="129" data-uid="lnk27" id="link_LinkTypeVxlan_MTU"><path codeLine="129" d="M1815.0718,210.1205 C1835.9318,245.6805 1851.29,271.87 1862.99,291.82" fill="none" id="LinkTypeVxlan-backto-MTU" style="stroke:#181818;stroke-width:1;"/><polygon fill="#181818" points="1809,199.77,1808.5857,206.9692,1815.0718,210.1205,1815.4861,202.9213,1809,199.77" style="stroke:#181818;stroke-width:1;"/></g><!--reverse link LinkTypeVxlanStitched to LinkEndpoint--><g class="link" data-entity-1="LinkTypeVxlanStitched" data-entity-2="LinkEndpoint" data-source-line="133" data-uid="lnk28" id="link_LinkTypeVxlanStitched_LinkEndpoint"><path codeLine="133" d="M1415.2122,195.69 C1409.4922,199.4 1413.78,196.36 1407.99,199.55 C1325.18,245.02 1220.1,274.95 1150.37,291.44" fill="none" id="LinkTypeVxlanStitched-backto-LinkEndpoint" style="stroke:#181818;stroke-width:1;"/><polygon fill="#181818" points="1425.28,189.16,1418.0695,189.0691,1415.2122,195.69,1422.4228,195.7809,1425.28,189.16" style="stroke:#181818;stroke-width:1;"/></g><!--reverse link LinkTypeVxlanStitched to LinkVxlanRemote--><g class="link" data-entity-1="LinkTypeVxlanStitched" data-entity-2="LinkVxlanRemote" data-source-line="134" data-uid="lnk29" id="link_LinkTypeVxlanStitched_LinkVxlanRemote"><path codeLine="134" d="M1446.7484,209.4868 C1420.9784,245.0468 1401.55,271.87 1387.09,291.82" fill="none" id="LinkTypeVxlanStitched-backto-LinkVxlanRemote" style="stroke:#181818;stroke-width:1;"/><polygon fill="#181818" points="1453.79,199.77,1447.0303,202.2812,1446.7484,209.4868,1453.5081,206.9756,1453.79,199.77" style="stroke:#181818;stroke-width:1;"/></g><!--reverse link LinkTypeVxlanStitched to LinkVxlanVni--><g class="link" data-entity-1="LinkTypeVxlanStitched" data-entity-2="LinkVxlanVni" data-source-line="135" data-uid="lnk30" id="link_LinkTypeVxlanStitched_LinkVxlanVni"><path codeLine="135" d="M1537.2822,211.6652 C1542.0122,247.2252 1545.29,271.87 1547.95,291.82" fill="none" id="LinkTypeVxlanStitched-backto-LinkVxlanVni" style="stroke:#181818;stroke-width:1;"/><polygon fill="#181818" points="1535.7,199.77,1532.526,206.245,1537.2822,211.6652,1540.4562,205.1902,1535.7,199.77" style="stroke:#181818;stroke-width:1;"/></g><!--reverse link LinkTypeVxlanStitched to LinkVxlanUdpPort--><g class="link" data-entity-1="LinkTypeVxlanStitched" data-entity-2="LinkVxlanUdpPort" data-source-line="136" data-uid="lnk31" id="link_LinkTypeVxlanStitched_LinkVxlanUdpPort"><path codeLine="136" d="M1627.0277,208.2529 C1662.6077,243.8129 1690.68,271.87 1710.65,291.82" fill="none" id="LinkTypeVxlanStitched-backto-LinkVxlanUdpPort" style="stroke:#181818;stroke-width:1;"/><polygon fill="#181818" points="1618.54,199.77,1619.9562,206.8407,1627.0277,208.2529,1625.6115,201.1822,1618.54,199.77" style="stroke:#181818;stroke-width:1;"/></g><!--reverse link LinkTypeVxlanStitched to MTU--><g class="link" data-entity-1="LinkTypeVxlanStitched" data-entity-2="MTU" data-source-line="137" data-uid="lnk32" id="link_LinkTypeVxlanStitched_MTU"><path codeLine="137" d="M1630.7625,195.688 C1636.4725,199.398 1632.19,196.36 1637.99,199.55 C1713.73,241.19 1748.95,214.94 1822.99,259.55 C1837.21,268.12 1850.53,281.55 1859.68,291.96" fill="none" id="LinkTypeVxlanStitched-backto-MTU" style="stroke:#181818;stroke-width:1;"/><polygon fill="#181818" points="1620.7,189.15,1623.5519,195.7732,1630.7625,195.688,1627.9106,189.0648,1620.7,189.15" style="stroke:#181818;stroke-width:1;"/></g><!--reverse link LinkTypeDummy to LinkEndpoint--><g class="link" data-entity-1="LinkTypeDummy" data-entity-2="LinkEndpoint" data-source-line="141" data-uid="lnk33" id="link_LinkTypeDummy_LinkEndpoint"><path codeLine="141" d="M1230.2193,179.5699 C1219.9493,189.1599 1218.16,190.61 1207.99,199.55 C1185.11,219.64 1159.23,240.89 1136.42,259.15" fill="none" id="LinkTypeDummy-backto-LinkEndpoint" style="stroke:#181818;stroke-width:1;"/><polygon fill="#181818" points="1238.99,171.38,1231.8747,172.5514,1230.2193,179.5699,1237.3346,178.3985,1238.99,171.38" style="stroke:#181818;stroke-width:1;"/></g><g class="footer" data-source-line="146"><text fill="#888888" font-family="sans-serif" font-size="10" lengthAdjust="spacing" textLength="2.6" x="976.3489" y="373.4437">&#160;</text><text fill="#888888" font-family="sans-serif" font-size="10" lengthAdjust="spacing" textLength="263.3798" x="845.959" y="387.0637">generated with yacg (https://github.com/OkieOth/yacg),</text><text fill="#888888" font-family="sans-serif" font-size="10" lengthAdjust="spacing" textLength="156.0699" x="899.614" y="400.6837">(template: plantUml.mako v1.1.0)</text><text fill="#888888" font-family="sans-serif" font-size="10" lengthAdjust="spacing" textLength="212.2098" x="871.544" y="414.3037">powered by plantuml (https://plantuml.com/)</text></g><!--SRC=[vPVFRvim5CVl_1KMbpJM4bgfsg6tQPkqIkiwBGsNPGS23g1WWy196qNvtsVpqpRFgRHbbwwNmFE7zxxVv-IP9cb44A45Fo1AU997bPCCeKrACX5nl8c39YZCWgf2BiRtnVxzXoWgCNPHKA7k5XrF9dQhOxSGzl2qR0bnPIv-JTdM3ygg9RhR1lCSHmC_vcoJneiaBxd2Ar5qT53xj-1bokAdGq5-_a8O4nOLUSguADGZKWx6bE-KM2y0utqjopavXWgPqnUzL2Hq8R2-ICN5Xr7aSoleBzNrAy6QP3AUrHUDRarsLr2HtOLiibaUgRArDV4OAJT1Q0Le49egMcbD_KRmyGHqzo6c_1lXHeFRw1_qMEcmGNp9AtxVEH5O8kvdaBLBxuPMM36g2uAx4uJxB61cTvhes-YE52sB6nvbwEqOz5_6krZ7BcgnplY3q9pB56Lz0I4-IwKHbaABowZuBiShnhkec1Nr_FrdlL4KgwU2ukC8Fk9BxJelJS5mwyXye3Dwj6xOWgSyJ4W4RLotzfzle7JxQKVfmUXH7RjORowWsfkCNY0GditgrEBbmxOyb95lADhvxrwxDU8oLxFGvUf1e8w-fXMn48qdLKHtHWufUWLsH9k2QYqD7OiTPmBq6X0WkJsu0Cbg6fK2f8oIG59qQ2obFb_EjCvOj_PjuCPAZHo0J9KOQsnEY3CYJK2P7-SPCK3E0-qGWI3XK_kIlhow6HfYiTdFqzVi0g3LjeqTsRU1O1jq66e7bCxI5XCTjwSPfUT_CWep_XgQ2G0f6Z98sEIYfILQiPWmKWPSo7nEnKmw166ChXBEY-hEys8HsgtdOKwznsrA7ddYIM3wRiMkkFZdCnCFtY7nmVYIPdCQR7EqlvdVpA-dArRapwGKUTU7XjZHRCZSHUhSqzy0]--></g></svg>