<?xml version="1.0" encoding="UTF-8" standalone="no"?>
<!DOCTYPE svg PUBLIC "-//W3C//DTD SVG 1.1//EN"
 "http://www.w3.org/Graphics/SVG/1.1/DTD/svg11.dtd">
<!-- Generated by graphviz version 12.2.1 (0)
 -->
<!-- Title: Life Pages: 1 -->
<svg width="1080pt" height="914pt"
 viewBox="0.00 0.00 1079.51 914.42" xmlns="http://www.w3.org/2000/svg" xmlns:xlink="http://www.w3.org/1999/xlink">
<g id="graph0" class="graph" transform="scale(1 1) rotate(0) translate(4 910.42)">
<title>Life</title>
<polygon fill="white" stroke="none" points="-4,4 -4,-910.42 1075.51,-910.42 1075.51,4 -4,4"/>
<!-- Shame -->
<g id="node1" class="node">
<title>Shame</title>
<ellipse fill="none" stroke="black" cx="954.13" cy="-469.58" rx="117.38" ry="30.05"/>
<text text-anchor="middle" x="954.13" y="-473.53" font-family="Times,serif" font-size="14.00">Shame</text>
<text text-anchor="middle" x="954.13" y="-456.28" font-family="Times,serif" font-size="14.00">(Externally Imposed)</text>
</g>
<!-- Aimlessness -->
<g id="node8" class="node">
<title>Aimlessness</title>
<ellipse fill="none" stroke="black" cx="963.53" cy="-289.62" rx="72.78" ry="18"/>
<text text-anchor="middle" x="963.53" y="-284.94" font-family="Times,serif" font-size="14.00">Aimlessness</text>
</g>
<!-- Shame&#45;&gt;Aimlessness -->
<g id="edge6" class="edge">
<title>Shame&#45;&gt;Aimlessness</title>
<path fill="none" stroke="black" d="M955.73,-439.05C957.48,-405.47 960.28,-351.89 962.01,-318.84"/>
<polygon fill="black" stroke="black" points="965.48,-319.35 962.51,-309.18 958.49,-318.98 965.48,-319.35"/>
</g>
<!-- Help -->
<g id="node2" class="node">
<title>Help</title>
<ellipse fill="none" stroke="black" cx="285.18" cy="-541.27" rx="52.26" ry="18"/>
<text text-anchor="middle" x="285.18" y="-536.6" font-family="Times,serif" font-size="14.00">No Help</text>
</g>
<!-- Friction -->
<g id="node16" class="node">
<title>Friction</title>
<ellipse fill="none" stroke="black" cx="237.72" cy="-714.98" rx="50.68" ry="18"/>
<text text-anchor="middle" x="237.72" y="-710.31" font-family="Times,serif" font-size="14.00">Friction</text>
</g>
<!-- Help&#45;&gt;Friction -->
<g id="edge16" class="edge">
<title>Help&#45;&gt;Friction</title>
<path fill="none" stroke="black" d="M280.19,-559.53C271.97,-589.64 255.5,-649.93 245.66,-685.93"/>
<polygon fill="black" stroke="black" points="242.37,-684.67 243.11,-695.24 249.13,-686.52 242.37,-684.67"/>
</g>
<!-- Support -->
<g id="node3" class="node">
<title>Support</title>
<ellipse fill="none" stroke="black" cx="69.1" cy="-649.2" rx="69.1" ry="18"/>
<text text-anchor="middle" x="69.1" y="-644.52" font-family="Times,serif" font-size="14.00">No Support</text>
</g>
<!-- Support&#45;&gt;Friction -->
<g id="edge17" class="edge">
<title>Support&#45;&gt;Friction</title>
<path fill="none" stroke="black" d="M108.21,-664.46C133.43,-674.3 166.32,-687.13 192.64,-697.4"/>
<polygon fill="black" stroke="black" points="191.12,-700.56 201.7,-700.93 193.66,-694.03 191.12,-700.56"/>
</g>
<!-- Procrastination -->
<g id="node4" class="node">
<title>Procrastination</title>
<ellipse fill="none" stroke="black" cx="713.78" cy="-837.63" rx="88.56" ry="18"/>
<text text-anchor="middle" x="713.78" y="-832.95" font-family="Times,serif" font-size="14.00">Procrastination</text>
</g>
<!-- Anxiety -->
<g id="node5" class="node">
<title>Anxiety</title>
<ellipse fill="none" stroke="black" cx="841.21" cy="-714.3" rx="49.1" ry="18"/>
<text text-anchor="middle" x="841.21" y="-709.63" font-family="Times,serif" font-size="14.00">Anxiety</text>
</g>
<!-- Procrastination&#45;&gt;Anxiety -->
<g id="edge1" class="edge">
<title>Procrastination&#45;&gt;Anxiety</title>
<path fill="none" stroke="black" d="M732.31,-819.7C754.17,-798.54 790.64,-763.24 815.29,-739.38"/>
<polygon fill="black" stroke="black" points="817.64,-741.98 822.39,-732.51 812.77,-736.95 817.64,-741.98"/>
</g>
<!-- Disruption -->
<g id="node6" class="node">
<title>Disruption</title>
<ellipse fill="none" stroke="black" cx="789.31" cy="-542.14" rx="64.36" ry="18"/>
<text text-anchor="middle" x="789.31" y="-537.46" font-family="Times,serif" font-size="14.00">Disruption</text>
</g>
<!-- Anxiety&#45;&gt;Disruption -->
<g id="edge2" class="edge">
<title>Anxiety&#45;&gt;Disruption</title>
<path fill="none" stroke="black" d="M835.75,-696.2C826.78,-666.44 808.84,-606.93 798.07,-571.21"/>
<polygon fill="black" stroke="black" points="801.52,-570.53 795.29,-561.96 794.82,-572.55 801.52,-570.53"/>
</g>
<!-- Failure -->
<g id="node7" class="node">
<title>Failure</title>
<ellipse fill="none" stroke="black" cx="1007.49" cy="-642.28" rx="46.47" ry="18"/>
<text text-anchor="middle" x="1007.49" y="-637.61" font-family="Times,serif" font-size="14.00">Failure</text>
</g>
<!-- Anxiety&#45;&gt;Failure -->
<g id="edge3" class="edge">
<title>Anxiety&#45;&gt;Failure</title>
<path fill="none" stroke="black" d="M873.27,-700.41C899.54,-689.03 936.93,-672.84 965.58,-660.43"/>
<polygon fill="black" stroke="black" points="966.91,-663.67 974.7,-656.48 964.13,-657.24 966.91,-663.67"/>
</g>
<!-- Disruption&#45;&gt;Shame -->
<g id="edge4" class="edge">
<title>Disruption&#45;&gt;Shame</title>
<path fill="none" stroke="black" d="M824.26,-526.75C841.73,-519.06 863.5,-509.48 884.2,-500.37"/>
<polygon fill="black" stroke="black" points="885.44,-503.64 893.18,-496.41 882.62,-497.24 885.44,-503.64"/>
</g>
<!-- Failure&#45;&gt;Shame -->
<g id="edge5" class="edge">
<title>Failure&#45;&gt;Shame</title>
<path fill="none" stroke="black" d="M1001.88,-624.12C993.61,-597.36 977.93,-546.6 966.79,-510.57"/>
<polygon fill="black" stroke="black" points="970.24,-509.87 963.94,-501.35 963.55,-511.93 970.24,-509.87"/>
</g>
<!-- Compensation -->
<g id="node9" class="node">
<title>Compensation</title>
<ellipse fill="none" stroke="black" cx="857.58" cy="-145.67" rx="82.77" ry="18"/>
<text text-anchor="middle" x="857.58" y="-140.99" font-family="Times,serif" font-size="14.00">Compensation</text>
</g>
<!-- Aimlessness&#45;&gt;Compensation -->
<g id="edge7" class="edge">
<title>Aimlessness&#45;&gt;Compensation</title>
<path fill="none" stroke="black" d="M950.33,-271.68C932.09,-246.89 899.02,-201.97 877.69,-173"/>
<polygon fill="black" stroke="black" points="880.59,-171.03 871.85,-165.05 874.96,-175.18 880.59,-171.03"/>
</g>
<!-- IdentifyNewGoals -->
<g id="node10" class="node">
<title>IdentifyNewGoals</title>
<ellipse fill="none" stroke="black" cx="707.53" cy="-49.55" rx="100.66" ry="18"/>
<text text-anchor="middle" x="707.53" y="-44.88" font-family="Times,serif" font-size="14.00">IdentifyNewGoals</text>
</g>
<!-- Compensation&#45;&gt;IdentifyNewGoals -->
<g id="edge8" class="edge">
<title>Compensation&#45;&gt;IdentifyNewGoals</title>
<path fill="none" stroke="black" d="M830.41,-128.26C806.41,-112.89 771.21,-90.34 744.63,-73.32"/>
<polygon fill="black" stroke="black" points="746.84,-70.58 736.54,-68.13 743.07,-76.47 746.84,-70.58"/>
</g>
<!-- Learn -->
<g id="node11" class="node">
<title>Learn</title>
<ellipse fill="none" stroke="black" cx="531.66" cy="-18" rx="40.16" ry="18"/>
<text text-anchor="middle" x="531.66" y="-13.32" font-family="Times,serif" font-size="14.00">Learn</text>
</g>
<!-- IdentifyNewGoals&#45;&gt;Learn -->
<g id="edge9" class="edge">
<title>IdentifyNewGoals&#45;&gt;Learn</title>
<path fill="none" stroke="black" d="M635.49,-36.63C616.82,-33.28 597.15,-29.75 580.02,-26.68"/>
<polygon fill="black" stroke="black" points="581.11,-23.32 570.65,-24.99 579.88,-30.21 581.11,-23.32"/>
</g>
<!-- Plan -->
<g id="node12" class="node">
<title>Plan</title>
<ellipse fill="none" stroke="black" cx="359.26" cy="-62.92" rx="33.32" ry="18"/>
<text text-anchor="middle" x="359.26" y="-58.24" font-family="Times,serif" font-size="14.00">Plan</text>
</g>
<!-- Learn&#45;&gt;Plan -->
<g id="edge10" class="edge">
<title>Learn&#45;&gt;Plan</title>
<path fill="none" stroke="black" d="M496.78,-27.09C469.07,-34.31 430.24,-44.43 400.9,-52.07"/>
<polygon fill="black" stroke="black" points="400.03,-48.68 391.23,-54.59 401.79,-55.45 400.03,-48.68"/>
</g>
<!-- Schedule -->
<g id="node13" class="node">
<title>Schedule</title>
<ellipse fill="none" stroke="black" cx="204.53" cy="-151.78" rx="57" ry="18"/>
<text text-anchor="middle" x="204.53" y="-147.1" font-family="Times,serif" font-size="14.00">Schedule</text>
</g>
<!-- Plan&#45;&gt;Schedule -->
<g id="edge11" class="edge">
<title>Plan&#45;&gt;Schedule</title>
<path fill="none" stroke="black" d="M336.1,-76.22C311.36,-90.43 271.77,-113.16 242.47,-129.99"/>
<polygon fill="black" stroke="black" points="240.82,-126.9 233.89,-134.92 244.31,-132.97 240.82,-126.9"/>
</g>
<!-- BarterForTime -->
<g id="node14" class="node">
<title>BarterForTime</title>
<ellipse fill="none" stroke="black" cx="98.68" cy="-295.98" rx="85.41" ry="18"/>
<text text-anchor="middle" x="98.68" y="-291.31" font-family="Times,serif" font-size="14.00">BarterForTime</text>
</g>
<!-- Schedule&#45;&gt;BarterForTime -->
<g id="edge12" class="edge">
<title>Schedule&#45;&gt;BarterForTime</title>
<path fill="none" stroke="black" d="M191.34,-169.75C173.12,-194.58 140.08,-239.58 118.78,-268.61"/>
<polygon fill="black" stroke="black" points="116.03,-266.43 112.93,-276.57 121.67,-270.58 116.03,-266.43"/>
</g>
<!-- Poverty -->
<g id="node15" class="node">
<title>Poverty</title>
<ellipse fill="none" stroke="black" cx="117.94" cy="-475.08" rx="49.63" ry="18"/>
<text text-anchor="middle" x="117.94" y="-470.4" font-family="Times,serif" font-size="14.00">Poverty</text>
</g>
<!-- BarterForTime&#45;&gt;Poverty -->
<g id="edge13" class="edge">
<title>BarterForTime&#45;&gt;Poverty</title>
<path fill="none" stroke="black" d="M100.67,-314.48C104.01,-345.52 110.76,-408.38 114.76,-445.58"/>
<polygon fill="black" stroke="black" points="111.25,-445.61 115.8,-455.18 118.21,-444.86 111.25,-445.61"/>
</g>
<!-- Poverty&#45;&gt;Help -->
<g id="edge14" class="edge">
<title>Poverty&#45;&gt;Help</title>
<path fill="none" stroke="black" d="M151.78,-488.47C177.06,-498.48 211.88,-512.26 239.61,-523.23"/>
<polygon fill="black" stroke="black" points="238.24,-526.46 248.83,-526.88 240.82,-519.95 238.24,-526.46"/>
</g>
<!-- Poverty&#45;&gt;Support -->
<g id="edge15" class="edge">
<title>Poverty&#45;&gt;Support</title>
<path fill="none" stroke="black" d="M112.8,-493.38C104.34,-523.56 87.39,-583.99 77.26,-620.08"/>
<polygon fill="black" stroke="black" points="73.97,-618.85 74.64,-629.42 80.71,-620.74 73.97,-618.85"/>
</g>
<!-- NoOptions -->
<g id="node17" class="node">
<title>NoOptions</title>
<ellipse fill="none" stroke="black" cx="364.37" cy="-842.8" rx="64.36" ry="18"/>
<text text-anchor="middle" x="364.37" y="-838.13" font-family="Times,serif" font-size="14.00">NoOptions</text>
</g>
<!-- Friction&#45;&gt;NoOptions -->
<g id="edge18" class="edge">
<title>Friction&#45;&gt;NoOptions</title>
<path fill="none" stroke="black" d="M254.8,-732.22C276.4,-754.01 313.77,-791.73 338.78,-816.98"/>
<polygon fill="black" stroke="black" points="336.16,-819.3 345.68,-823.94 341.13,-814.37 336.16,-819.3"/>
</g>
<!-- SmallFailure -->
<g id="node18" class="node">
<title>SmallFailure</title>
<ellipse fill="none" stroke="black" cx="534.21" cy="-888.42" rx="74.88" ry="18"/>
<text text-anchor="middle" x="534.21" y="-883.74" font-family="Times,serif" font-size="14.00">SmallFailure</text>
</g>
<!-- NoOptions&#45;&gt;SmallFailure -->
<g id="edge19" class="edge">
<title>NoOptions&#45;&gt;SmallFailure</title>
<path fill="none" stroke="black" d="M411.23,-855.39C430.2,-860.48 452.37,-866.44 472.62,-871.87"/>
<polygon fill="black" stroke="black" points="471.61,-875.23 482.18,-874.44 473.43,-868.47 471.61,-875.23"/>
</g>
<!-- SmallFailure&#45;&gt;Procrastination -->
<g id="edge20" class="edge">
<title>SmallFailure&#45;&gt;Procrastination</title>
<path fill="none" stroke="black" d="M583.28,-874.54C603.98,-868.68 628.34,-861.79 650.37,-855.56"/>
<polygon fill="black" stroke="black" points="651.19,-858.97 659.86,-852.88 649.28,-852.23 651.19,-858.97"/>
</g>
</g>
</svg>
